G75*
G70*
%OFA0B0*%
%FSLAX24Y24*%
%IPPOS*%
%LPD*%
%AMOC8*
5,1,8,0,0,1.08239X$1,22.5*
%
%ADD10R,0.0200X0.0200*%
%ADD11R,0.0400X0.0300*%
%ADD12R,0.0515X0.0515*%
%ADD13C,0.0515*%
%ADD14C,0.0740*%
%ADD15R,0.0709X0.0630*%
%ADD16R,0.0900X0.0900*%
%ADD17C,0.0900*%
%ADD18C,0.1000*%
%ADD19OC8,0.0600*%
%ADD20C,0.2000*%
%ADD21R,0.0800X0.0260*%
%ADD22R,0.0700X0.2000*%
%ADD23R,0.0630X0.0709*%
%ADD24C,0.0600*%
%ADD25C,0.1004*%
%ADD26R,0.0740X0.0740*%
%ADD27C,0.0669*%
%ADD28R,0.0440X0.0440*%
%ADD29C,0.0300*%
%ADD30C,0.0240*%
%ADD31C,0.0100*%
%ADD32C,0.0160*%
D10*
X029438Y013912D03*
D11*
X023738Y010562D03*
D12*
X021538Y001212D03*
X038538Y001212D03*
D13*
X037538Y001212D03*
X037538Y002212D03*
X038538Y002212D03*
X038538Y003212D03*
X037538Y003212D03*
X037538Y004212D03*
X038538Y004212D03*
X038538Y005212D03*
X037538Y005212D03*
X037538Y006212D03*
X038538Y006212D03*
X038538Y007212D03*
X037538Y007212D03*
X037538Y008212D03*
X038538Y008212D03*
X038538Y009212D03*
X037538Y009212D03*
X037538Y010212D03*
X038538Y010212D03*
X038538Y011212D03*
X037538Y011212D03*
X037538Y012212D03*
X038538Y012212D03*
X038538Y013212D03*
X037538Y013212D03*
X037538Y014212D03*
X038538Y014212D03*
X038538Y015212D03*
X037538Y015212D03*
X037538Y016212D03*
X038538Y016212D03*
X038538Y017212D03*
X037538Y017212D03*
X037538Y018212D03*
X038538Y018212D03*
X038538Y019212D03*
X037538Y019212D03*
X037538Y020212D03*
X038538Y020212D03*
X038538Y021212D03*
X037538Y021212D03*
X037538Y022212D03*
X038538Y022212D03*
X038538Y023212D03*
X037538Y023212D03*
X037538Y024212D03*
X038538Y024212D03*
X038538Y025212D03*
X037538Y025212D03*
X021538Y025212D03*
X020538Y025212D03*
X020538Y024212D03*
X021538Y024212D03*
X021538Y023212D03*
X020538Y023212D03*
X020538Y022212D03*
X021538Y022212D03*
X021538Y021212D03*
X020538Y021212D03*
X020538Y020212D03*
X021538Y020212D03*
X021538Y019212D03*
X021538Y018212D03*
X020538Y018212D03*
X020538Y019212D03*
X020538Y017212D03*
X021538Y017212D03*
X021538Y016212D03*
X020538Y016212D03*
X020538Y015212D03*
X021538Y015212D03*
X021538Y014212D03*
X020538Y014212D03*
X020538Y013212D03*
X021538Y013212D03*
X021538Y012212D03*
X020538Y012212D03*
X020538Y011212D03*
X021538Y011212D03*
X021538Y010212D03*
X020538Y010212D03*
X020538Y009212D03*
X021538Y009212D03*
X021538Y008212D03*
X020538Y008212D03*
X020538Y007212D03*
X020538Y006212D03*
X021538Y006212D03*
X021538Y007212D03*
X021538Y005212D03*
X020538Y005212D03*
X020538Y004212D03*
X021538Y004212D03*
X021538Y003212D03*
X020538Y003212D03*
X020538Y002212D03*
X021538Y002212D03*
X020538Y001212D03*
D14*
X012338Y001412D03*
X011338Y001412D03*
X008538Y001412D03*
X007538Y001412D03*
X012138Y005012D03*
X011388Y005512D03*
X012138Y006012D03*
X012138Y009112D03*
X011388Y009612D03*
X012138Y010112D03*
X003438Y019012D03*
X003438Y020012D03*
X003438Y021012D03*
X003438Y022012D03*
X003438Y023012D03*
X024638Y028612D03*
X024638Y029612D03*
X026538Y015762D03*
X027538Y015662D03*
X028538Y015762D03*
X029538Y015662D03*
X030538Y015762D03*
X031538Y015662D03*
X032538Y015762D03*
D15*
X034838Y015561D03*
X034838Y016664D03*
X026238Y018861D03*
X026238Y019964D03*
X026238Y021061D03*
X026238Y022164D03*
X023338Y006864D03*
X023338Y005761D03*
D16*
X007838Y030312D03*
D17*
X007838Y028712D03*
X007838Y027112D03*
D18*
X014138Y028812D02*
X014138Y029812D01*
X016138Y029812D02*
X016138Y028812D01*
X020338Y028812D02*
X020338Y029812D01*
X022338Y029812D02*
X022338Y028812D01*
D19*
X030278Y026812D03*
X031358Y026812D03*
X030818Y027812D03*
X031898Y027812D03*
X032978Y027812D03*
X032438Y026812D03*
X033518Y026812D03*
X034598Y026812D03*
X034058Y027812D03*
X007538Y013072D03*
X006538Y012532D03*
X007538Y011992D03*
X006538Y011452D03*
X007538Y010912D03*
X006538Y010372D03*
X007538Y009832D03*
X006538Y009292D03*
X007538Y008752D03*
D20*
X007038Y005982D03*
X007038Y015842D03*
X027508Y027312D03*
X037368Y027312D03*
D21*
X032218Y024062D03*
X032218Y023562D03*
X032218Y023062D03*
X032218Y022562D03*
X032218Y022062D03*
X032218Y021562D03*
X032218Y021062D03*
X032218Y020562D03*
X032218Y020062D03*
X032218Y019562D03*
X032218Y019062D03*
X032218Y018562D03*
X032218Y018062D03*
X032218Y017562D03*
X028258Y017562D03*
X028258Y018062D03*
X028258Y018562D03*
X028258Y019062D03*
X028258Y019562D03*
X028258Y020062D03*
X028258Y020562D03*
X028258Y021062D03*
X028258Y021562D03*
X028258Y022062D03*
X028258Y022562D03*
X028258Y023062D03*
X028258Y023562D03*
X028258Y024062D03*
D22*
X034838Y022312D03*
X034838Y018512D03*
D23*
X034789Y024712D03*
X033687Y024712D03*
X016589Y009712D03*
X015487Y009712D03*
X015587Y004012D03*
X016689Y004012D03*
D24*
X016938Y001912D02*
X016938Y001312D01*
X015938Y001412D02*
X015938Y002012D01*
X014938Y001912D02*
X014938Y001312D01*
X013938Y001412D02*
X013938Y002012D01*
X017938Y002012D02*
X017938Y001412D01*
X018938Y001312D02*
X018938Y001912D01*
D25*
X004940Y026533D02*
X003936Y026533D01*
X003936Y028092D02*
X004940Y028092D01*
D26*
X003438Y024012D03*
X006538Y001412D03*
X010338Y001412D03*
D27*
X009838Y023712D03*
X009838Y026712D03*
D28*
X008538Y024812D03*
X008038Y023012D03*
X010238Y021112D03*
X010638Y017812D03*
X012938Y017812D03*
X013638Y016012D03*
X014938Y016012D03*
X014838Y014512D03*
X015738Y014512D03*
X016538Y014512D03*
X017538Y014512D03*
X018038Y015112D03*
X016538Y016012D03*
X018838Y017312D03*
X019638Y017312D03*
X019238Y018512D03*
X023438Y018912D03*
X024838Y020512D03*
X023538Y022212D03*
X025738Y024312D03*
X023338Y025112D03*
X023338Y026712D03*
X027538Y029112D03*
X031938Y025112D03*
X033338Y023812D03*
X033338Y023112D03*
X033338Y022512D03*
X033338Y021812D03*
X035938Y024112D03*
X040238Y026012D03*
X037338Y029112D03*
X040238Y021412D03*
X040238Y015712D03*
X035438Y013512D03*
X033438Y015012D03*
X031538Y013912D03*
X033138Y017212D03*
X033138Y017812D03*
X033138Y018412D03*
X033138Y019012D03*
X027238Y014212D03*
X026938Y016912D03*
X023438Y017512D03*
X023438Y015312D03*
X019038Y013312D03*
X019038Y011912D03*
X017338Y010712D03*
X017538Y009612D03*
X018338Y009212D03*
X016338Y008812D03*
X014438Y008812D03*
X013838Y010312D03*
X013838Y011112D03*
X011938Y012212D03*
X013238Y013312D03*
X011338Y014212D03*
X011338Y015612D03*
X008248Y017792D03*
X005438Y020212D03*
X003238Y017712D03*
X010038Y012212D03*
X010038Y010012D03*
X011238Y008312D03*
X009738Y008212D03*
X010438Y007012D03*
X011938Y007012D03*
X011838Y003812D03*
X009438Y003512D03*
X007588Y004152D03*
X005238Y001212D03*
X003338Y004312D03*
X014638Y003212D03*
X018438Y006612D03*
X019438Y005112D03*
X019438Y004212D03*
X023338Y004912D03*
X023238Y002512D03*
X023138Y010112D03*
X040238Y010412D03*
X040238Y004412D03*
X018138Y024712D03*
X018838Y026612D03*
X015538Y024612D03*
X014338Y026512D03*
X013238Y025612D03*
X018238Y029312D03*
X011138Y030412D03*
X009138Y030412D03*
X005638Y023612D03*
D29*
X007438Y025712D02*
X010938Y025712D01*
X012638Y027412D01*
X018438Y027412D01*
X020338Y029312D01*
X022338Y029312D01*
X024638Y028612D02*
X024638Y023764D01*
X026238Y022164D01*
X026238Y021061D02*
X026238Y019964D01*
X026187Y019912D01*
X025238Y019912D01*
X024838Y020312D01*
X024838Y020512D01*
X026589Y021061D02*
X027538Y020012D01*
X028208Y020012D01*
X033687Y025061D02*
X034238Y025612D01*
X037138Y025612D01*
X037538Y025212D01*
X038538Y025212D01*
X037538Y024212D02*
X037038Y024212D01*
X036638Y023812D01*
X036638Y011912D01*
X036038Y011312D01*
X034238Y011312D01*
X031638Y013912D01*
X031538Y013912D01*
X024489Y006864D01*
X023338Y006864D01*
X020938Y003712D02*
X020038Y003712D01*
X018438Y005312D01*
X018438Y006612D01*
X017538Y005012D02*
X017538Y008412D01*
X018338Y009212D01*
X017738Y009612D02*
X017538Y009612D01*
X017538Y005012D02*
X019638Y002912D01*
X019638Y000712D01*
X019538Y000612D01*
X010638Y000612D01*
X010338Y000912D01*
X010338Y001412D01*
X011388Y002362D02*
X012338Y001412D01*
X013638Y001412D01*
X013938Y001712D01*
X011388Y002362D02*
X011388Y005512D01*
X007588Y004152D02*
X007588Y001312D01*
X007538Y001312D01*
X007538Y009832D02*
X010038Y009832D01*
X007538Y009832D02*
X007538Y010912D01*
X007538Y013072D02*
X011698Y013072D01*
X013738Y015112D01*
X018038Y015112D01*
X014638Y023712D02*
X009838Y023712D01*
X008538Y024812D02*
X011338Y024812D01*
X012138Y025612D01*
X013238Y025612D01*
X014638Y023712D02*
X015538Y024612D01*
X016238Y029312D02*
X014138Y029312D01*
X008438Y029312D01*
X007838Y028712D01*
X007838Y027112D02*
X008238Y026712D01*
X009838Y026712D01*
X007438Y025712D02*
X005059Y028092D01*
X004438Y028092D01*
X020938Y003712D02*
X021038Y003612D01*
X021038Y001612D01*
X021438Y001212D01*
X021538Y001212D01*
X036038Y011312D02*
X036938Y010412D01*
X036938Y004012D01*
X038038Y003512D02*
X038038Y002712D01*
X038538Y002212D01*
X035438Y013512D02*
X034838Y014112D01*
X034838Y015561D01*
D30*
X036938Y004012D02*
X037238Y003712D01*
X037838Y003712D01*
X038038Y003512D01*
D31*
X002788Y002318D02*
X002788Y018302D01*
X004725Y018302D01*
X004848Y018425D01*
X004848Y020852D01*
X008031Y020852D01*
X010518Y018365D01*
X010591Y018292D01*
X010687Y018252D01*
X017731Y018252D01*
X018408Y017575D01*
X018408Y017005D01*
X018531Y016882D01*
X019145Y016882D01*
X019238Y016975D01*
X019331Y016882D01*
X019563Y016882D01*
X019563Y003496D01*
X017898Y005162D01*
X017898Y005685D01*
X017924Y005711D01*
X017993Y005876D01*
X017993Y006248D01*
X017966Y006312D01*
X017993Y006376D01*
X017993Y006748D01*
X017966Y006812D01*
X017993Y006876D01*
X017993Y007248D01*
X017966Y007312D01*
X017993Y007376D01*
X017993Y007748D01*
X017924Y007914D01*
X017898Y007940D01*
X017898Y008263D01*
X018417Y008782D01*
X018645Y008782D01*
X018768Y008905D01*
X018768Y009519D01*
X018645Y009642D01*
X018031Y009642D01*
X017908Y009519D01*
X017908Y009291D01*
X017334Y008718D01*
X017233Y008616D01*
X017178Y008484D01*
X017178Y008109D01*
X016922Y008109D01*
X016756Y008040D01*
X016630Y007914D01*
X016561Y007748D01*
X016561Y007376D01*
X016588Y007312D01*
X016561Y007248D01*
X016561Y006876D01*
X016588Y006812D01*
X016561Y006748D01*
X016561Y006376D01*
X016583Y006324D01*
X016551Y006248D01*
X016551Y005876D01*
X016620Y005711D01*
X016746Y005584D01*
X016912Y005516D01*
X017178Y005516D01*
X017178Y004941D01*
X017233Y004809D01*
X017334Y004707D01*
X019278Y002763D01*
X019278Y002622D01*
X013451Y002622D01*
X013328Y002499D01*
X013328Y000972D01*
X013048Y000972D01*
X013048Y002699D01*
X012925Y002822D01*
X009751Y002822D01*
X009628Y002699D01*
X009628Y000762D01*
X009248Y000762D01*
X009248Y002699D01*
X009125Y002822D01*
X008798Y002822D01*
X008798Y004105D01*
X010746Y006052D01*
X011558Y006052D01*
X011558Y006004D01*
X011510Y006020D01*
X011429Y006032D01*
X011418Y006032D01*
X011418Y005543D01*
X011358Y005543D01*
X011358Y006032D01*
X011347Y006032D01*
X011266Y006020D01*
X011189Y005994D01*
X011116Y005957D01*
X011049Y005909D01*
X010992Y005851D01*
X010944Y005785D01*
X010906Y005712D01*
X010881Y005634D01*
X010868Y005553D01*
X010868Y005542D01*
X011358Y005542D01*
X011358Y005482D01*
X011418Y005482D01*
X011418Y004992D01*
X011429Y004992D01*
X011510Y005005D01*
X011558Y005021D01*
X011558Y004897D01*
X011647Y004684D01*
X011810Y004521D01*
X012023Y004432D01*
X012254Y004432D01*
X012322Y004461D01*
X012991Y003792D01*
X013087Y003752D01*
X013190Y003752D01*
X015062Y003752D01*
X015062Y003571D01*
X015185Y003448D01*
X015806Y003448D01*
X015811Y003442D01*
X016445Y003442D01*
X016451Y003448D01*
X017091Y003448D01*
X017214Y003571D01*
X017214Y004454D01*
X017091Y004577D01*
X016923Y004577D01*
X016910Y004609D01*
X016398Y005120D01*
X016398Y008382D01*
X016645Y008382D01*
X016768Y008505D01*
X016768Y009119D01*
X016739Y009148D01*
X016991Y009148D01*
X017114Y009271D01*
X017114Y010154D01*
X016991Y010277D01*
X016849Y010277D01*
X016849Y010710D01*
X016849Y010813D01*
X016835Y010848D01*
X016908Y010775D01*
X016908Y010405D01*
X017031Y010282D01*
X017645Y010282D01*
X017768Y010405D01*
X017768Y011019D01*
X017645Y011142D01*
X017276Y011142D01*
X017202Y011216D01*
X017632Y011216D01*
X017797Y011284D01*
X017924Y011411D01*
X017993Y011576D01*
X017993Y011948D01*
X017966Y012012D01*
X017993Y012076D01*
X017993Y012448D01*
X017966Y012512D01*
X017993Y012576D01*
X017993Y012948D01*
X017966Y013012D01*
X017993Y013076D01*
X017993Y013448D01*
X017924Y013614D01*
X017797Y013740D01*
X017632Y013809D01*
X017002Y013809D01*
X017096Y013902D01*
X017925Y013902D01*
X018048Y014025D01*
X018048Y014682D01*
X018345Y014682D01*
X018468Y014805D01*
X018468Y015419D01*
X018345Y015542D01*
X017731Y015542D01*
X017661Y015472D01*
X013667Y015472D01*
X013534Y015418D01*
X013433Y015316D01*
X011549Y013432D01*
X008248Y013432D01*
X008248Y013699D01*
X008125Y013822D01*
X005751Y013822D01*
X005628Y013699D01*
X005628Y012760D01*
X005611Y012753D01*
X004991Y012133D01*
X004918Y012060D01*
X004878Y011964D01*
X004878Y008864D01*
X004878Y008761D01*
X004918Y008665D01*
X006118Y007465D01*
X006191Y007392D01*
X006287Y007352D01*
X013187Y007352D01*
X013290Y007352D01*
X013386Y007392D01*
X014376Y008382D01*
X014745Y008382D01*
X014868Y008505D01*
X014868Y009119D01*
X014745Y009242D01*
X014136Y009242D01*
X014346Y009452D01*
X014962Y009452D01*
X014962Y009271D01*
X015085Y009148D01*
X015706Y009148D01*
X015711Y009142D01*
X015931Y009142D01*
X015908Y009119D01*
X015908Y008737D01*
X015878Y008664D01*
X015878Y008561D01*
X015878Y004961D01*
X015918Y004865D01*
X015991Y004792D01*
X016201Y004582D01*
X015811Y004582D01*
X015806Y004577D01*
X015185Y004577D01*
X015062Y004454D01*
X015062Y004272D01*
X013246Y004272D01*
X012690Y004829D01*
X012718Y004897D01*
X012718Y005128D01*
X012630Y005341D01*
X012467Y005504D01*
X012447Y005512D01*
X012467Y005521D01*
X012630Y005684D01*
X012718Y005897D01*
X012718Y006128D01*
X012630Y006341D01*
X012467Y006504D01*
X012254Y006592D01*
X012023Y006592D01*
X011932Y006555D01*
X011890Y006572D01*
X010690Y006572D01*
X010587Y006572D01*
X010491Y006533D01*
X008391Y004433D01*
X008318Y004360D01*
X008278Y004264D01*
X008278Y002822D01*
X005951Y002822D01*
X005828Y002699D01*
X005828Y000762D01*
X004344Y000762D01*
X004518Y000937D01*
X004663Y001188D01*
X004738Y001468D01*
X004738Y001757D01*
X004663Y002037D01*
X004518Y002288D01*
X004314Y002493D01*
X004063Y002637D01*
X003783Y002712D01*
X003493Y002712D01*
X003214Y002637D01*
X002963Y002493D01*
X002788Y002318D01*
X002788Y002382D02*
X002852Y002382D01*
X002788Y002480D02*
X002951Y002480D01*
X003112Y002579D02*
X002788Y002579D01*
X002788Y002677D02*
X003363Y002677D01*
X003913Y002677D02*
X005828Y002677D01*
X005828Y002579D02*
X004164Y002579D01*
X004326Y002480D02*
X005828Y002480D01*
X005828Y002382D02*
X004424Y002382D01*
X004521Y002283D02*
X005828Y002283D01*
X005828Y002185D02*
X004578Y002185D01*
X004635Y002086D02*
X005828Y002086D01*
X005828Y001988D02*
X004676Y001988D01*
X004703Y001889D02*
X005828Y001889D01*
X005828Y001791D02*
X004729Y001791D01*
X004738Y001692D02*
X005828Y001692D01*
X005828Y001594D02*
X004738Y001594D01*
X004738Y001495D02*
X005828Y001495D01*
X005828Y001396D02*
X004719Y001396D01*
X004693Y001298D02*
X005828Y001298D01*
X005828Y001199D02*
X004666Y001199D01*
X004613Y001101D02*
X005828Y001101D01*
X005828Y001002D02*
X004556Y001002D01*
X004485Y000904D02*
X005828Y000904D01*
X005828Y000805D02*
X004387Y000805D01*
X005905Y002776D02*
X002788Y002776D01*
X002788Y002875D02*
X008278Y002875D01*
X008278Y002973D02*
X002788Y002973D01*
X002788Y003072D02*
X008278Y003072D01*
X008278Y003170D02*
X002788Y003170D01*
X002788Y003269D02*
X008278Y003269D01*
X008278Y003367D02*
X002788Y003367D01*
X002788Y003466D02*
X008278Y003466D01*
X008278Y003564D02*
X002788Y003564D01*
X002788Y003663D02*
X008278Y003663D01*
X008278Y003761D02*
X002788Y003761D01*
X002788Y003860D02*
X008278Y003860D01*
X008278Y003959D02*
X002788Y003959D01*
X002788Y004057D02*
X008278Y004057D01*
X008278Y004156D02*
X002788Y004156D01*
X002788Y004254D02*
X008278Y004254D01*
X008315Y004353D02*
X002788Y004353D01*
X002788Y004451D02*
X008409Y004451D01*
X008508Y004550D02*
X002788Y004550D01*
X002788Y004648D02*
X008606Y004648D01*
X008705Y004747D02*
X002788Y004747D01*
X002788Y004845D02*
X006858Y004845D01*
X006845Y004847D02*
X006974Y004832D01*
X006988Y004832D01*
X006988Y005932D01*
X007088Y005932D01*
X007088Y004832D01*
X007103Y004832D01*
X007231Y004847D01*
X007357Y004876D01*
X007479Y004918D01*
X007595Y004974D01*
X007705Y005043D01*
X007806Y005124D01*
X007897Y005215D01*
X007978Y005316D01*
X008046Y005425D01*
X008102Y005542D01*
X008145Y005664D01*
X008174Y005789D01*
X008188Y005918D01*
X008188Y005932D01*
X007088Y005932D01*
X007088Y006032D01*
X008188Y006032D01*
X008188Y006047D01*
X008174Y006175D01*
X008145Y006301D01*
X008102Y006423D01*
X008046Y006540D01*
X007978Y006649D01*
X007897Y006750D01*
X007806Y006841D01*
X007705Y006922D01*
X007595Y006991D01*
X007479Y007047D01*
X007357Y007089D01*
X007231Y007118D01*
X007103Y007132D01*
X007088Y007132D01*
X007088Y006033D01*
X006988Y006033D01*
X006988Y007132D01*
X006974Y007132D01*
X006845Y007118D01*
X006719Y007089D01*
X006597Y007047D01*
X006481Y006991D01*
X006372Y006922D01*
X006271Y006841D01*
X006179Y006750D01*
X006099Y006649D01*
X006030Y006540D01*
X005974Y006423D01*
X005931Y006301D01*
X005903Y006175D01*
X005888Y006047D01*
X005888Y006032D01*
X006988Y006032D01*
X006988Y005932D01*
X005888Y005932D01*
X005888Y005918D01*
X005903Y005789D01*
X005931Y005664D01*
X005974Y005542D01*
X006030Y005425D01*
X006099Y005316D01*
X006179Y005215D01*
X006271Y005124D01*
X006372Y005043D01*
X006481Y004974D01*
X006597Y004918D01*
X006719Y004876D01*
X006845Y004847D01*
X006988Y004845D02*
X007088Y004845D01*
X007088Y004944D02*
X006988Y004944D01*
X006988Y005043D02*
X007088Y005043D01*
X007088Y005141D02*
X006988Y005141D01*
X006988Y005240D02*
X007088Y005240D01*
X007088Y005338D02*
X006988Y005338D01*
X006988Y005437D02*
X007088Y005437D01*
X007088Y005535D02*
X006988Y005535D01*
X006988Y005634D02*
X007088Y005634D01*
X007088Y005732D02*
X006988Y005732D01*
X006988Y005831D02*
X007088Y005831D01*
X007088Y005929D02*
X006988Y005929D01*
X006988Y006028D02*
X002788Y006028D01*
X002788Y006126D02*
X005897Y006126D01*
X005914Y006225D02*
X002788Y006225D01*
X002788Y006324D02*
X005939Y006324D01*
X005974Y006422D02*
X002788Y006422D01*
X002788Y006521D02*
X006021Y006521D01*
X006080Y006619D02*
X002788Y006619D01*
X002788Y006718D02*
X006154Y006718D01*
X006246Y006816D02*
X002788Y006816D01*
X002788Y006915D02*
X006363Y006915D01*
X006529Y007013D02*
X002788Y007013D01*
X002788Y007112D02*
X006819Y007112D01*
X006988Y007112D02*
X007088Y007112D01*
X007088Y007013D02*
X006988Y007013D01*
X006988Y006915D02*
X007088Y006915D01*
X007088Y006816D02*
X006988Y006816D01*
X006988Y006718D02*
X007088Y006718D01*
X007088Y006619D02*
X006988Y006619D01*
X006988Y006521D02*
X007088Y006521D01*
X007088Y006422D02*
X006988Y006422D01*
X006988Y006324D02*
X007088Y006324D01*
X007088Y006225D02*
X006988Y006225D01*
X006988Y006126D02*
X007088Y006126D01*
X007088Y006028D02*
X009986Y006028D01*
X009888Y005929D02*
X008188Y005929D01*
X008178Y005831D02*
X009789Y005831D01*
X009690Y005732D02*
X008161Y005732D01*
X008135Y005634D02*
X009592Y005634D01*
X009493Y005535D02*
X008099Y005535D01*
X008052Y005437D02*
X009395Y005437D01*
X009296Y005338D02*
X007992Y005338D01*
X007917Y005240D02*
X009198Y005240D01*
X009099Y005141D02*
X007823Y005141D01*
X007704Y005043D02*
X009001Y005043D01*
X008902Y004944D02*
X007532Y004944D01*
X007218Y004845D02*
X008804Y004845D01*
X009243Y004550D02*
X011781Y004550D01*
X011682Y004648D02*
X009342Y004648D01*
X009440Y004747D02*
X011620Y004747D01*
X011580Y004845D02*
X009539Y004845D01*
X009637Y004944D02*
X011558Y004944D01*
X011418Y005043D02*
X011358Y005043D01*
X011358Y004992D02*
X011358Y005482D01*
X010868Y005482D01*
X010868Y005471D01*
X010881Y005391D01*
X010906Y005313D01*
X010944Y005240D01*
X009933Y005240D01*
X010032Y005338D02*
X010898Y005338D01*
X010874Y005437D02*
X010130Y005437D01*
X010229Y005535D02*
X011358Y005535D01*
X011358Y005437D02*
X011418Y005437D01*
X011418Y005338D02*
X011358Y005338D01*
X011358Y005240D02*
X011418Y005240D01*
X011418Y005141D02*
X011358Y005141D01*
X011347Y004992D02*
X011358Y004992D01*
X011347Y004992D02*
X011266Y005005D01*
X011189Y005031D01*
X011116Y005068D01*
X011049Y005116D01*
X010992Y005174D01*
X010944Y005240D01*
X011024Y005141D02*
X009835Y005141D01*
X009736Y005043D02*
X011165Y005043D01*
X011358Y005634D02*
X011418Y005634D01*
X011418Y005732D02*
X011358Y005732D01*
X011358Y005831D02*
X011418Y005831D01*
X011418Y005929D02*
X011358Y005929D01*
X011358Y006028D02*
X011418Y006028D01*
X011457Y006028D02*
X011558Y006028D01*
X011319Y006028D02*
X010721Y006028D01*
X010623Y005929D02*
X011078Y005929D01*
X010977Y005831D02*
X010524Y005831D01*
X010426Y005732D02*
X010917Y005732D01*
X010881Y005634D02*
X010327Y005634D01*
X010085Y006126D02*
X008179Y006126D01*
X008162Y006225D02*
X010183Y006225D01*
X010282Y006324D02*
X008137Y006324D01*
X008103Y006422D02*
X010380Y006422D01*
X010479Y006521D02*
X008055Y006521D01*
X007996Y006619D02*
X013874Y006619D01*
X013874Y006521D02*
X012427Y006521D01*
X012549Y006422D02*
X013874Y006422D01*
X013874Y006376D02*
X013901Y006312D01*
X013874Y006248D01*
X013874Y005876D01*
X013943Y005711D01*
X014069Y005584D01*
X014235Y005516D01*
X014955Y005516D01*
X015120Y005584D01*
X015247Y005711D01*
X015315Y005876D01*
X015315Y006248D01*
X015284Y006324D01*
X015306Y006376D01*
X015306Y006748D01*
X015284Y006801D01*
X015315Y006876D01*
X015315Y007248D01*
X015289Y007312D01*
X015315Y007376D01*
X015315Y007748D01*
X015247Y007914D01*
X015120Y008040D01*
X014955Y008109D01*
X014235Y008109D01*
X014069Y008040D01*
X013943Y007914D01*
X013874Y007748D01*
X013874Y007376D01*
X013901Y007312D01*
X013874Y007248D01*
X013874Y006876D01*
X013901Y006812D01*
X013874Y006748D01*
X013874Y006376D01*
X013896Y006324D02*
X012637Y006324D01*
X012678Y006225D02*
X013874Y006225D01*
X013874Y006126D02*
X012718Y006126D01*
X012718Y006028D02*
X013874Y006028D01*
X013874Y005929D02*
X012718Y005929D01*
X012691Y005831D02*
X013893Y005831D01*
X013934Y005732D02*
X012650Y005732D01*
X012580Y005634D02*
X014020Y005634D01*
X014188Y005535D02*
X012481Y005535D01*
X012534Y005437D02*
X015878Y005437D01*
X015878Y005535D02*
X015001Y005535D01*
X015170Y005634D02*
X015878Y005634D01*
X015878Y005732D02*
X015256Y005732D01*
X015296Y005831D02*
X015878Y005831D01*
X015878Y005929D02*
X015315Y005929D01*
X015315Y006028D02*
X015878Y006028D01*
X015878Y006126D02*
X015315Y006126D01*
X015315Y006225D02*
X015878Y006225D01*
X015878Y006324D02*
X015284Y006324D01*
X015306Y006422D02*
X015878Y006422D01*
X015878Y006521D02*
X015306Y006521D01*
X015306Y006619D02*
X015878Y006619D01*
X015878Y006718D02*
X015306Y006718D01*
X015290Y006816D02*
X015878Y006816D01*
X015878Y006915D02*
X015315Y006915D01*
X015315Y007013D02*
X015878Y007013D01*
X015878Y007112D02*
X015315Y007112D01*
X015315Y007210D02*
X015878Y007210D01*
X015878Y007309D02*
X015290Y007309D01*
X015315Y007408D02*
X015878Y007408D01*
X015878Y007506D02*
X015315Y007506D01*
X015315Y007605D02*
X015878Y007605D01*
X015878Y007703D02*
X015315Y007703D01*
X015293Y007802D02*
X015878Y007802D01*
X015878Y007900D02*
X015253Y007900D01*
X015162Y007999D02*
X015878Y007999D01*
X015878Y008097D02*
X014983Y008097D01*
X014756Y008393D02*
X015878Y008393D01*
X015878Y008492D02*
X014854Y008492D01*
X014868Y008590D02*
X015878Y008590D01*
X015888Y008689D02*
X014868Y008689D01*
X014868Y008787D02*
X015908Y008787D01*
X015908Y008886D02*
X014868Y008886D01*
X014868Y008984D02*
X015908Y008984D01*
X015908Y009083D02*
X014868Y009083D01*
X014806Y009181D02*
X015052Y009181D01*
X014962Y009280D02*
X014173Y009280D01*
X014272Y009378D02*
X014962Y009378D01*
X015487Y009712D02*
X014238Y009712D01*
X013638Y009112D01*
X012138Y009112D01*
X012038Y009012D01*
X009638Y009012D01*
X009358Y009292D01*
X006538Y009292D01*
X005638Y009012D02*
X006438Y008212D01*
X009738Y008212D01*
X010168Y008196D02*
X013454Y008196D01*
X013553Y008294D02*
X010168Y008294D01*
X010168Y008393D02*
X013651Y008393D01*
X013750Y008492D02*
X010168Y008492D01*
X010168Y008519D02*
X010045Y008642D01*
X009431Y008642D01*
X009311Y008522D01*
X008248Y008522D01*
X008248Y009032D01*
X009251Y009032D01*
X009418Y008865D01*
X009491Y008792D01*
X009587Y008752D01*
X011678Y008752D01*
X011810Y008621D01*
X012023Y008532D01*
X012254Y008532D01*
X012467Y008621D01*
X012630Y008784D01*
X012658Y008852D01*
X013587Y008852D01*
X013690Y008852D01*
X013786Y008892D01*
X014008Y009115D01*
X014008Y008750D01*
X013131Y007872D01*
X010135Y007872D01*
X010168Y007905D01*
X010168Y008519D01*
X010098Y008590D02*
X011884Y008590D01*
X011742Y008689D02*
X008248Y008689D01*
X008248Y008787D02*
X009503Y008787D01*
X009397Y008886D02*
X008248Y008886D01*
X008248Y008984D02*
X009299Y008984D01*
X009379Y008590D02*
X008248Y008590D01*
X008248Y009552D02*
X008248Y010152D01*
X009390Y010152D01*
X009486Y010192D01*
X009559Y010265D01*
X011574Y010265D01*
X011558Y010228D02*
X011558Y010104D01*
X011510Y010120D01*
X011429Y010132D01*
X011418Y010132D01*
X011418Y009643D01*
X011358Y009643D01*
X011358Y010132D01*
X011347Y010132D01*
X011266Y010120D01*
X011189Y010094D01*
X011116Y010057D01*
X011049Y010009D01*
X010992Y009951D01*
X010944Y009885D01*
X010906Y009812D01*
X010881Y009734D01*
X010868Y009653D01*
X010868Y009642D01*
X011358Y009642D01*
X011358Y009582D01*
X010868Y009582D01*
X010868Y009571D01*
X010881Y009491D01*
X010906Y009413D01*
X010944Y009340D01*
X010992Y009274D01*
X010993Y009272D01*
X009746Y009272D01*
X009506Y009513D01*
X009410Y009552D01*
X009307Y009552D01*
X008248Y009552D01*
X008248Y009576D02*
X010868Y009576D01*
X010872Y009674D02*
X008248Y009674D01*
X008248Y009773D02*
X010894Y009773D01*
X010936Y009871D02*
X008248Y009871D01*
X008248Y009970D02*
X011010Y009970D01*
X011137Y010068D02*
X008248Y010068D01*
X008248Y010672D02*
X008248Y012712D01*
X011627Y012712D01*
X011770Y012712D01*
X011902Y012767D01*
X013887Y014752D01*
X014328Y014752D01*
X014328Y014025D01*
X014451Y013902D01*
X014561Y013902D01*
X014467Y013809D01*
X014235Y013809D01*
X014069Y013740D01*
X013943Y013614D01*
X013874Y013448D01*
X013874Y013216D01*
X012131Y011472D01*
X010190Y011472D01*
X010087Y011472D01*
X009991Y011433D01*
X009231Y010672D01*
X008248Y010672D01*
X008248Y010758D02*
X009316Y010758D01*
X009415Y010857D02*
X008248Y010857D01*
X008248Y010955D02*
X009513Y010955D01*
X009612Y011054D02*
X008248Y011054D01*
X008248Y011152D02*
X009710Y011152D01*
X009809Y011251D02*
X008248Y011251D01*
X008248Y011349D02*
X009907Y011349D01*
X010027Y011448D02*
X008248Y011448D01*
X008248Y011546D02*
X012205Y011546D01*
X012303Y011645D02*
X008248Y011645D01*
X008248Y011743D02*
X012402Y011743D01*
X012500Y011842D02*
X008248Y011842D01*
X008248Y011941D02*
X012599Y011941D01*
X012697Y012039D02*
X008248Y012039D01*
X008248Y012138D02*
X012796Y012138D01*
X012894Y012236D02*
X008248Y012236D01*
X008248Y012335D02*
X012993Y012335D01*
X013091Y012433D02*
X008248Y012433D01*
X008248Y012532D02*
X013190Y012532D01*
X013289Y012630D02*
X008248Y012630D01*
X008248Y013517D02*
X011634Y013517D01*
X011733Y013616D02*
X008248Y013616D01*
X008233Y013714D02*
X011831Y013714D01*
X011930Y013813D02*
X008135Y013813D01*
X007479Y014778D02*
X007357Y014736D01*
X007231Y014707D01*
X007103Y014692D01*
X007088Y014692D01*
X007088Y015792D01*
X006988Y015792D01*
X006988Y014692D01*
X006974Y014692D01*
X006845Y014707D01*
X006719Y014736D01*
X006597Y014778D01*
X006481Y014834D01*
X006372Y014903D01*
X006271Y014984D01*
X006179Y015075D01*
X006099Y015176D01*
X006030Y015285D01*
X005974Y015402D01*
X005931Y015524D01*
X005903Y015649D01*
X005888Y015778D01*
X005888Y015792D01*
X006988Y015792D01*
X006988Y015892D01*
X005888Y015892D01*
X005888Y015907D01*
X005903Y016035D01*
X005931Y016161D01*
X005974Y016283D01*
X006030Y016400D01*
X006099Y016509D01*
X006179Y016610D01*
X006271Y016701D01*
X006372Y016782D01*
X006481Y016851D01*
X006597Y016907D01*
X006719Y016949D01*
X006845Y016978D01*
X006974Y016992D01*
X006988Y016992D01*
X006988Y015893D01*
X007088Y015893D01*
X007088Y016992D01*
X007103Y016992D01*
X007231Y016978D01*
X007357Y016949D01*
X007479Y016907D01*
X007595Y016851D01*
X007705Y016782D01*
X007806Y016701D01*
X007897Y016610D01*
X007978Y016509D01*
X008046Y016400D01*
X008102Y016283D01*
X008145Y016161D01*
X008174Y016035D01*
X008188Y015907D01*
X008188Y015892D01*
X007088Y015892D01*
X007088Y015792D01*
X008188Y015792D01*
X008188Y015778D01*
X008174Y015649D01*
X008145Y015524D01*
X008102Y015402D01*
X008046Y015285D01*
X007978Y015176D01*
X007897Y015075D01*
X007806Y014984D01*
X007705Y014903D01*
X007595Y014834D01*
X007479Y014778D01*
X007521Y014798D02*
X012915Y014798D01*
X012816Y014700D02*
X007168Y014700D01*
X007088Y014700D02*
X006988Y014700D01*
X006909Y014700D02*
X002788Y014700D01*
X002788Y014798D02*
X006556Y014798D01*
X006382Y014897D02*
X002788Y014897D01*
X002788Y014995D02*
X006259Y014995D01*
X006164Y015094D02*
X002788Y015094D01*
X002788Y015192D02*
X006088Y015192D01*
X006027Y015291D02*
X002788Y015291D01*
X002788Y015390D02*
X005980Y015390D01*
X005944Y015488D02*
X002788Y015488D01*
X002788Y015587D02*
X005917Y015587D01*
X005899Y015685D02*
X002788Y015685D01*
X002788Y015784D02*
X005888Y015784D01*
X005897Y015981D02*
X002788Y015981D01*
X002788Y016079D02*
X005913Y016079D01*
X005937Y016178D02*
X002788Y016178D01*
X002788Y016276D02*
X005972Y016276D01*
X006018Y016375D02*
X002788Y016375D01*
X002788Y016474D02*
X006077Y016474D01*
X006149Y016572D02*
X002788Y016572D01*
X002788Y016671D02*
X006240Y016671D01*
X006356Y016769D02*
X002788Y016769D01*
X002788Y016868D02*
X006517Y016868D01*
X006794Y016966D02*
X002788Y016966D01*
X002788Y017065D02*
X018408Y017065D01*
X018408Y017163D02*
X002788Y017163D01*
X002788Y017262D02*
X018408Y017262D01*
X018408Y017360D02*
X002788Y017360D01*
X002788Y017459D02*
X018408Y017459D01*
X018408Y017558D02*
X002788Y017558D01*
X002788Y017656D02*
X018327Y017656D01*
X018228Y017755D02*
X002788Y017755D01*
X002788Y017853D02*
X018130Y017853D01*
X018031Y017952D02*
X002788Y017952D01*
X002788Y018050D02*
X017933Y018050D01*
X017834Y018149D02*
X002788Y018149D01*
X002788Y018247D02*
X017736Y018247D01*
X017838Y018512D02*
X018838Y017512D01*
X018838Y017312D01*
X018447Y016966D02*
X007282Y016966D01*
X007088Y016966D02*
X006988Y016966D01*
X006988Y016868D02*
X007088Y016868D01*
X007088Y016769D02*
X006988Y016769D01*
X006988Y016671D02*
X007088Y016671D01*
X007088Y016572D02*
X006988Y016572D01*
X006988Y016474D02*
X007088Y016474D01*
X007088Y016375D02*
X006988Y016375D01*
X006988Y016276D02*
X007088Y016276D01*
X007088Y016178D02*
X006988Y016178D01*
X006988Y016079D02*
X007088Y016079D01*
X007088Y015981D02*
X006988Y015981D01*
X006988Y015882D02*
X002788Y015882D01*
X002788Y014601D02*
X012718Y014601D01*
X012619Y014503D02*
X002788Y014503D01*
X002788Y014404D02*
X012521Y014404D01*
X012422Y014306D02*
X002788Y014306D01*
X002788Y014207D02*
X012324Y014207D01*
X012225Y014109D02*
X002788Y014109D01*
X002788Y014010D02*
X012127Y014010D01*
X012028Y013911D02*
X002788Y013911D01*
X002788Y013813D02*
X005742Y013813D01*
X005643Y013714D02*
X002788Y013714D01*
X002788Y013616D02*
X005628Y013616D01*
X005628Y013517D02*
X002788Y013517D01*
X002788Y013419D02*
X005628Y013419D01*
X005628Y013320D02*
X002788Y013320D01*
X002788Y013222D02*
X005628Y013222D01*
X005628Y013123D02*
X002788Y013123D01*
X002788Y013025D02*
X005628Y013025D01*
X005628Y012926D02*
X002788Y012926D01*
X002788Y012827D02*
X005628Y012827D01*
X005587Y012729D02*
X002788Y012729D01*
X002788Y012630D02*
X005489Y012630D01*
X005390Y012532D02*
X002788Y012532D01*
X002788Y012433D02*
X005291Y012433D01*
X005193Y012335D02*
X002788Y012335D01*
X002788Y012236D02*
X005094Y012236D01*
X004996Y012138D02*
X002788Y012138D01*
X002788Y012039D02*
X004909Y012039D01*
X004878Y011941D02*
X002788Y011941D01*
X002788Y011842D02*
X004878Y011842D01*
X004878Y011743D02*
X002788Y011743D01*
X002788Y011645D02*
X004878Y011645D01*
X004878Y011546D02*
X002788Y011546D01*
X002788Y011448D02*
X004878Y011448D01*
X004878Y011349D02*
X002788Y011349D01*
X002788Y011251D02*
X004878Y011251D01*
X004878Y011152D02*
X002788Y011152D01*
X002788Y011054D02*
X004878Y011054D01*
X004878Y010955D02*
X002788Y010955D01*
X002788Y010857D02*
X004878Y010857D01*
X004878Y010758D02*
X002788Y010758D01*
X002788Y010659D02*
X004878Y010659D01*
X004878Y010561D02*
X002788Y010561D01*
X002788Y010462D02*
X004878Y010462D01*
X004878Y010364D02*
X002788Y010364D01*
X002788Y010265D02*
X004878Y010265D01*
X004878Y010167D02*
X002788Y010167D01*
X002788Y010068D02*
X004878Y010068D01*
X004878Y009970D02*
X002788Y009970D01*
X002788Y009871D02*
X004878Y009871D01*
X004878Y009773D02*
X002788Y009773D01*
X002788Y009674D02*
X004878Y009674D01*
X004878Y009576D02*
X002788Y009576D01*
X002788Y009477D02*
X004878Y009477D01*
X004878Y009378D02*
X002788Y009378D01*
X002788Y009280D02*
X004878Y009280D01*
X004878Y009181D02*
X002788Y009181D01*
X002788Y009083D02*
X004878Y009083D01*
X004878Y008984D02*
X002788Y008984D01*
X002788Y008886D02*
X004878Y008886D01*
X004878Y008787D02*
X002788Y008787D01*
X002788Y008689D02*
X004908Y008689D01*
X004993Y008590D02*
X002788Y008590D01*
X002788Y008492D02*
X005091Y008492D01*
X005190Y008393D02*
X002788Y008393D01*
X002788Y008294D02*
X005289Y008294D01*
X005387Y008196D02*
X002788Y008196D01*
X002788Y008097D02*
X005486Y008097D01*
X005584Y007999D02*
X002788Y007999D01*
X002788Y007900D02*
X005683Y007900D01*
X005781Y007802D02*
X002788Y007802D01*
X002788Y007703D02*
X005880Y007703D01*
X005978Y007605D02*
X002788Y007605D01*
X002788Y007506D02*
X006077Y007506D01*
X006175Y007408D02*
X002788Y007408D01*
X002788Y007309D02*
X013899Y007309D01*
X013874Y007408D02*
X013401Y007408D01*
X013500Y007506D02*
X013874Y007506D01*
X013874Y007605D02*
X013598Y007605D01*
X013697Y007703D02*
X013874Y007703D01*
X013896Y007802D02*
X013795Y007802D01*
X013894Y007900D02*
X013937Y007900D01*
X013992Y007999D02*
X014028Y007999D01*
X014091Y008097D02*
X014207Y008097D01*
X014189Y008196D02*
X015878Y008196D01*
X015878Y008294D02*
X014288Y008294D01*
X013947Y008689D02*
X012535Y008689D01*
X012631Y008787D02*
X014008Y008787D01*
X014008Y008886D02*
X013770Y008886D01*
X013878Y008984D02*
X014008Y008984D01*
X014008Y009083D02*
X013976Y009083D01*
X013848Y008590D02*
X012393Y008590D01*
X012658Y009372D02*
X012630Y009441D01*
X012467Y009604D01*
X012447Y009612D01*
X012467Y009621D01*
X012630Y009784D01*
X012718Y009997D01*
X012718Y010228D01*
X012630Y010441D01*
X012467Y010604D01*
X012254Y010692D01*
X012023Y010692D01*
X011810Y010604D01*
X011647Y010441D01*
X011558Y010228D01*
X011558Y010167D02*
X009425Y010167D01*
X009559Y010265D02*
X010246Y010952D01*
X012290Y010952D01*
X012386Y010992D01*
X012459Y011065D01*
X013897Y012503D01*
X013874Y012448D01*
X013874Y012076D01*
X013901Y012012D01*
X013874Y011948D01*
X013874Y011576D01*
X013888Y011542D01*
X013531Y011542D01*
X013408Y011419D01*
X013408Y010805D01*
X013531Y010682D01*
X014145Y010682D01*
X014268Y010805D01*
X014268Y010852D01*
X014687Y010852D01*
X014790Y010852D01*
X014886Y010892D01*
X015386Y011392D01*
X015459Y011465D01*
X015498Y011561D01*
X015498Y013902D01*
X015978Y013902D01*
X015978Y011061D01*
X016018Y010965D01*
X016091Y010892D01*
X016329Y010654D01*
X016329Y010282D01*
X015711Y010282D01*
X015706Y010277D01*
X015085Y010277D01*
X014962Y010154D01*
X014962Y009972D01*
X014187Y009972D01*
X014091Y009933D01*
X014018Y009860D01*
X013531Y009372D01*
X012658Y009372D01*
X012656Y009378D02*
X013537Y009378D01*
X013635Y009477D02*
X012594Y009477D01*
X012495Y009576D02*
X013734Y009576D01*
X013832Y009674D02*
X012520Y009674D01*
X012619Y009773D02*
X013931Y009773D01*
X014029Y009871D02*
X012666Y009871D01*
X012707Y009970D02*
X014180Y009970D01*
X014962Y010068D02*
X012718Y010068D01*
X012718Y010167D02*
X014975Y010167D01*
X015074Y010265D02*
X012703Y010265D01*
X012662Y010364D02*
X016329Y010364D01*
X016329Y010462D02*
X012608Y010462D01*
X012510Y010561D02*
X016329Y010561D01*
X016324Y010659D02*
X012333Y010659D01*
X012296Y010955D02*
X013408Y010955D01*
X013408Y010857D02*
X010150Y010857D01*
X010052Y010758D02*
X013456Y010758D01*
X013408Y011054D02*
X012447Y011054D01*
X012546Y011152D02*
X013408Y011152D01*
X013408Y011251D02*
X012644Y011251D01*
X012743Y011349D02*
X013408Y011349D01*
X013437Y011448D02*
X012841Y011448D01*
X012940Y011546D02*
X013887Y011546D01*
X013874Y011645D02*
X013038Y011645D01*
X013137Y011743D02*
X013874Y011743D01*
X013874Y011842D02*
X013235Y011842D01*
X013334Y011941D02*
X013874Y011941D01*
X013890Y012039D02*
X013433Y012039D01*
X013531Y012138D02*
X013874Y012138D01*
X013874Y012236D02*
X013630Y012236D01*
X013728Y012335D02*
X013874Y012335D01*
X013874Y012433D02*
X013827Y012433D01*
X013486Y012827D02*
X011962Y012827D01*
X012061Y012926D02*
X013584Y012926D01*
X013683Y013025D02*
X012159Y013025D01*
X012258Y013123D02*
X013781Y013123D01*
X013874Y013222D02*
X012357Y013222D01*
X012455Y013320D02*
X013874Y013320D01*
X013874Y013419D02*
X012554Y013419D01*
X012652Y013517D02*
X013903Y013517D01*
X013945Y013616D02*
X012751Y013616D01*
X012849Y013714D02*
X014043Y013714D01*
X014344Y014010D02*
X013145Y014010D01*
X013243Y014109D02*
X014328Y014109D01*
X014328Y014207D02*
X013342Y014207D01*
X013441Y014306D02*
X014328Y014306D01*
X014328Y014404D02*
X013539Y014404D01*
X013638Y014503D02*
X014328Y014503D01*
X014328Y014601D02*
X013736Y014601D01*
X013835Y014700D02*
X014328Y014700D01*
X014838Y014512D02*
X014838Y013812D01*
X012238Y011212D01*
X010138Y011212D01*
X009338Y010412D01*
X006578Y010412D01*
X006538Y010372D01*
X006478Y010312D01*
X005638Y011212D02*
X005638Y009012D01*
X005138Y008812D02*
X006338Y007612D01*
X013238Y007612D01*
X014438Y008812D01*
X013356Y008097D02*
X010168Y008097D01*
X010168Y007999D02*
X013257Y007999D01*
X013158Y007900D02*
X010163Y007900D01*
X009738Y009280D02*
X010987Y009280D01*
X010924Y009378D02*
X009640Y009378D01*
X009541Y009477D02*
X010885Y009477D01*
X011168Y009832D02*
X011388Y009612D01*
X011358Y009674D02*
X011418Y009674D01*
X011418Y009773D02*
X011358Y009773D01*
X011358Y009871D02*
X011418Y009871D01*
X011418Y009970D02*
X011358Y009970D01*
X011358Y010068D02*
X011418Y010068D01*
X011615Y010364D02*
X009657Y010364D01*
X009756Y010462D02*
X011668Y010462D01*
X011767Y010561D02*
X009854Y010561D01*
X009953Y010659D02*
X011943Y010659D01*
X013838Y011112D02*
X014738Y011112D01*
X015238Y011612D01*
X015238Y014012D01*
X015738Y014512D01*
X016238Y014312D02*
X016438Y014512D01*
X016538Y014512D01*
X016238Y014312D02*
X016238Y011112D01*
X016589Y010761D01*
X016589Y009712D01*
X017114Y009674D02*
X019563Y009674D01*
X019563Y009576D02*
X018712Y009576D01*
X018768Y009477D02*
X019563Y009477D01*
X019563Y009378D02*
X018768Y009378D01*
X018768Y009280D02*
X019563Y009280D01*
X019563Y009181D02*
X018768Y009181D01*
X018768Y009083D02*
X019563Y009083D01*
X019563Y008984D02*
X018768Y008984D01*
X018749Y008886D02*
X019563Y008886D01*
X019563Y008787D02*
X018650Y008787D01*
X018324Y008689D02*
X019563Y008689D01*
X019563Y008590D02*
X018225Y008590D01*
X018126Y008492D02*
X019563Y008492D01*
X019563Y008393D02*
X018028Y008393D01*
X017929Y008294D02*
X019563Y008294D01*
X019563Y008196D02*
X017898Y008196D01*
X017898Y008097D02*
X019563Y008097D01*
X019563Y007999D02*
X017898Y007999D01*
X017930Y007900D02*
X019563Y007900D01*
X019563Y007802D02*
X017970Y007802D01*
X017993Y007703D02*
X019563Y007703D01*
X019563Y007605D02*
X017993Y007605D01*
X017993Y007506D02*
X019563Y007506D01*
X019563Y007408D02*
X017993Y007408D01*
X017967Y007309D02*
X019563Y007309D01*
X019563Y007210D02*
X017993Y007210D01*
X017993Y007112D02*
X019563Y007112D01*
X019563Y007013D02*
X017993Y007013D01*
X017993Y006915D02*
X019563Y006915D01*
X019563Y006816D02*
X017968Y006816D01*
X017993Y006718D02*
X019563Y006718D01*
X019563Y006619D02*
X017993Y006619D01*
X017993Y006521D02*
X019563Y006521D01*
X019563Y006422D02*
X017993Y006422D01*
X017971Y006324D02*
X019563Y006324D01*
X019563Y006225D02*
X017993Y006225D01*
X017993Y006126D02*
X019563Y006126D01*
X019563Y006028D02*
X017993Y006028D01*
X017993Y005929D02*
X019563Y005929D01*
X019563Y005831D02*
X017974Y005831D01*
X017933Y005732D02*
X019563Y005732D01*
X019563Y005634D02*
X017898Y005634D01*
X017898Y005535D02*
X019563Y005535D01*
X019563Y005437D02*
X017898Y005437D01*
X017898Y005338D02*
X019563Y005338D01*
X019563Y005240D02*
X017898Y005240D01*
X017919Y005141D02*
X019563Y005141D01*
X019563Y005043D02*
X018017Y005043D01*
X018116Y004944D02*
X019563Y004944D01*
X019563Y004845D02*
X018214Y004845D01*
X018313Y004747D02*
X019563Y004747D01*
X019563Y004648D02*
X018411Y004648D01*
X018510Y004550D02*
X019563Y004550D01*
X019563Y004451D02*
X018609Y004451D01*
X018707Y004353D02*
X019563Y004353D01*
X019563Y004254D02*
X018806Y004254D01*
X018904Y004156D02*
X019563Y004156D01*
X019563Y004057D02*
X019003Y004057D01*
X019101Y003959D02*
X019563Y003959D01*
X019563Y003860D02*
X019200Y003860D01*
X019298Y003761D02*
X019563Y003761D01*
X019563Y003663D02*
X019397Y003663D01*
X019495Y003564D02*
X019563Y003564D01*
X018871Y003170D02*
X008798Y003170D01*
X008798Y003072D02*
X018970Y003072D01*
X019068Y002973D02*
X008798Y002973D01*
X008798Y002875D02*
X019167Y002875D01*
X019266Y002776D02*
X012972Y002776D01*
X013048Y002677D02*
X019278Y002677D01*
X018773Y003269D02*
X008798Y003269D01*
X008798Y003367D02*
X018674Y003367D01*
X018576Y003466D02*
X017109Y003466D01*
X017208Y003564D02*
X018477Y003564D01*
X018379Y003663D02*
X017214Y003663D01*
X017214Y003761D02*
X018280Y003761D01*
X018182Y003860D02*
X017214Y003860D01*
X017214Y003959D02*
X018083Y003959D01*
X017984Y004057D02*
X017214Y004057D01*
X017214Y004156D02*
X017886Y004156D01*
X017787Y004254D02*
X017214Y004254D01*
X017214Y004353D02*
X017689Y004353D01*
X017590Y004451D02*
X017214Y004451D01*
X017118Y004550D02*
X017492Y004550D01*
X017393Y004648D02*
X016870Y004648D01*
X016771Y004747D02*
X017295Y004747D01*
X017218Y004845D02*
X016673Y004845D01*
X016574Y004944D02*
X017178Y004944D01*
X017178Y005043D02*
X016476Y005043D01*
X016398Y005141D02*
X017178Y005141D01*
X017178Y005240D02*
X016398Y005240D01*
X016398Y005338D02*
X017178Y005338D01*
X017178Y005437D02*
X016398Y005437D01*
X016398Y005535D02*
X016865Y005535D01*
X016697Y005634D02*
X016398Y005634D01*
X016398Y005732D02*
X016611Y005732D01*
X016570Y005831D02*
X016398Y005831D01*
X016398Y005929D02*
X016551Y005929D01*
X016551Y006028D02*
X016398Y006028D01*
X016398Y006126D02*
X016551Y006126D01*
X016551Y006225D02*
X016398Y006225D01*
X016398Y006324D02*
X016582Y006324D01*
X016561Y006422D02*
X016398Y006422D01*
X016398Y006521D02*
X016561Y006521D01*
X016561Y006619D02*
X016398Y006619D01*
X016398Y006718D02*
X016561Y006718D01*
X016586Y006816D02*
X016398Y006816D01*
X016398Y006915D02*
X016561Y006915D01*
X016561Y007013D02*
X016398Y007013D01*
X016398Y007112D02*
X016561Y007112D01*
X016561Y007210D02*
X016398Y007210D01*
X016398Y007309D02*
X016586Y007309D01*
X016561Y007408D02*
X016398Y007408D01*
X016398Y007506D02*
X016561Y007506D01*
X016561Y007605D02*
X016398Y007605D01*
X016398Y007703D02*
X016561Y007703D01*
X016583Y007802D02*
X016398Y007802D01*
X016398Y007900D02*
X016624Y007900D01*
X016715Y007999D02*
X016398Y007999D01*
X016398Y008097D02*
X016894Y008097D01*
X017178Y008196D02*
X016398Y008196D01*
X016398Y008294D02*
X017178Y008294D01*
X017178Y008393D02*
X016656Y008393D01*
X016754Y008492D02*
X017181Y008492D01*
X017222Y008590D02*
X016768Y008590D01*
X016768Y008689D02*
X017305Y008689D01*
X017334Y008718D02*
X017334Y008718D01*
X017404Y008787D02*
X016768Y008787D01*
X016768Y008886D02*
X017502Y008886D01*
X017601Y008984D02*
X016768Y008984D01*
X016768Y009083D02*
X017700Y009083D01*
X017798Y009181D02*
X017025Y009181D01*
X017114Y009280D02*
X017897Y009280D01*
X017908Y009378D02*
X017114Y009378D01*
X017114Y009477D02*
X017908Y009477D01*
X017964Y009576D02*
X017114Y009576D01*
X017114Y009773D02*
X019563Y009773D01*
X019563Y009871D02*
X017114Y009871D01*
X017114Y009970D02*
X019563Y009970D01*
X019563Y010068D02*
X017114Y010068D01*
X017101Y010167D02*
X019563Y010167D01*
X019563Y010265D02*
X017003Y010265D01*
X016950Y010364D02*
X016849Y010364D01*
X016849Y010462D02*
X016908Y010462D01*
X016908Y010561D02*
X016849Y010561D01*
X016849Y010659D02*
X016908Y010659D01*
X016908Y010758D02*
X016849Y010758D01*
X017338Y010712D02*
X016738Y011312D01*
X016738Y013912D01*
X017238Y014412D01*
X017538Y014412D01*
X017538Y014512D01*
X018048Y014503D02*
X019563Y014503D01*
X019563Y014601D02*
X018048Y014601D01*
X018048Y014404D02*
X019563Y014404D01*
X019563Y014306D02*
X018048Y014306D01*
X018048Y014207D02*
X019563Y014207D01*
X019563Y014109D02*
X018048Y014109D01*
X018033Y014010D02*
X019563Y014010D01*
X019563Y013911D02*
X017934Y013911D01*
X017824Y013714D02*
X019563Y013714D01*
X019563Y013616D02*
X017922Y013616D01*
X017964Y013517D02*
X019563Y013517D01*
X019563Y013419D02*
X017993Y013419D01*
X017993Y013320D02*
X019563Y013320D01*
X019563Y013222D02*
X017993Y013222D01*
X017993Y013123D02*
X019563Y013123D01*
X019563Y013025D02*
X017971Y013025D01*
X017993Y012926D02*
X019563Y012926D01*
X019563Y012827D02*
X017993Y012827D01*
X017993Y012729D02*
X019563Y012729D01*
X019563Y012630D02*
X017993Y012630D01*
X017974Y012532D02*
X019563Y012532D01*
X019563Y012433D02*
X017993Y012433D01*
X017993Y012335D02*
X019563Y012335D01*
X019563Y012236D02*
X017993Y012236D01*
X017993Y012138D02*
X019563Y012138D01*
X019563Y012039D02*
X017977Y012039D01*
X017993Y011941D02*
X019563Y011941D01*
X019563Y011842D02*
X017993Y011842D01*
X017993Y011743D02*
X019563Y011743D01*
X019563Y011645D02*
X017993Y011645D01*
X017980Y011546D02*
X019563Y011546D01*
X019563Y011448D02*
X017939Y011448D01*
X017862Y011349D02*
X019563Y011349D01*
X019563Y011251D02*
X017716Y011251D01*
X017734Y011054D02*
X019563Y011054D01*
X019563Y011152D02*
X017266Y011152D01*
X017768Y010955D02*
X019563Y010955D01*
X019563Y010857D02*
X017768Y010857D01*
X017768Y010758D02*
X019563Y010758D01*
X019563Y010659D02*
X017768Y010659D01*
X017768Y010561D02*
X019563Y010561D01*
X019563Y010462D02*
X017768Y010462D01*
X017727Y010364D02*
X019563Y010364D01*
X022248Y010364D02*
X022708Y010364D01*
X022708Y010419D02*
X022708Y009805D01*
X022831Y009682D01*
X023445Y009682D01*
X023568Y009805D01*
X023568Y010202D01*
X024025Y010202D01*
X024148Y010325D01*
X024148Y010799D01*
X024025Y010922D01*
X023451Y010922D01*
X023398Y010869D01*
X023398Y011605D01*
X023746Y011952D01*
X028187Y011952D01*
X028290Y011952D01*
X028386Y011992D01*
X031476Y015082D01*
X031654Y015082D01*
X031867Y015171D01*
X032030Y015334D01*
X032064Y015416D01*
X032210Y015271D01*
X032423Y015182D01*
X032654Y015182D01*
X032867Y015271D01*
X033030Y015434D01*
X033118Y015647D01*
X033118Y015802D01*
X033125Y015802D01*
X033178Y015856D01*
X033178Y015442D01*
X033131Y015442D01*
X033008Y015319D01*
X033008Y014705D01*
X033131Y014582D01*
X033745Y014582D01*
X033868Y014705D01*
X033868Y015319D01*
X033745Y015442D01*
X033698Y015442D01*
X033698Y016061D01*
X033698Y016164D01*
X033659Y016260D01*
X033259Y016660D01*
X033186Y016733D01*
X033090Y016772D01*
X030440Y016772D01*
X030337Y016772D01*
X030241Y016733D01*
X029722Y016214D01*
X029654Y016242D01*
X029423Y016242D01*
X029390Y016229D01*
X028848Y016770D01*
X028848Y017325D01*
X028868Y017345D01*
X028868Y017779D01*
X028835Y017812D01*
X028868Y017845D01*
X028868Y018279D01*
X028835Y018312D01*
X028868Y018345D01*
X028868Y018779D01*
X028835Y018812D01*
X028868Y018845D01*
X028868Y019279D01*
X028835Y019312D01*
X028868Y019345D01*
X028868Y019779D01*
X028845Y019802D01*
X029637Y019802D01*
X029740Y019802D01*
X029836Y019842D01*
X030346Y020352D01*
X031608Y020352D01*
X031608Y020345D01*
X031641Y020312D01*
X031608Y020279D01*
X031608Y019845D01*
X031641Y019812D01*
X031608Y019779D01*
X031608Y019345D01*
X031641Y019312D01*
X031608Y019279D01*
X031608Y018845D01*
X031641Y018812D01*
X031608Y018779D01*
X031608Y018345D01*
X031641Y018312D01*
X031608Y018279D01*
X031608Y017845D01*
X031641Y017812D01*
X031608Y017779D01*
X031608Y017345D01*
X031731Y017222D01*
X032705Y017222D01*
X032708Y017226D01*
X032708Y016905D01*
X032831Y016782D01*
X033445Y016782D01*
X033568Y016905D01*
X033568Y017519D01*
X033568Y018119D01*
X033568Y018705D01*
X033568Y018815D01*
X034091Y018292D01*
X034187Y018252D01*
X034278Y018252D01*
X034278Y017425D01*
X034401Y017302D01*
X034578Y017302D01*
X034578Y017189D01*
X034397Y017189D01*
X034274Y017066D01*
X034274Y016445D01*
X034268Y016439D01*
X034268Y015805D01*
X034334Y015740D01*
X034334Y015611D01*
X034788Y015611D01*
X034788Y015511D01*
X034888Y015511D01*
X034888Y015096D01*
X035212Y015096D01*
X035250Y015107D01*
X035285Y015126D01*
X035313Y015154D01*
X035332Y015188D01*
X035343Y015227D01*
X035343Y015511D01*
X034888Y015511D01*
X034888Y015611D01*
X035343Y015611D01*
X035343Y015740D01*
X035408Y015805D01*
X035408Y016439D01*
X035403Y016445D01*
X035403Y017066D01*
X035280Y017189D01*
X035098Y017189D01*
X035098Y017302D01*
X035275Y017302D01*
X035398Y017425D01*
X035398Y019599D01*
X035275Y019722D01*
X034401Y019722D01*
X034278Y019599D01*
X034278Y018840D01*
X033459Y019660D01*
X033386Y019733D01*
X033338Y019752D01*
X033490Y019752D01*
X033586Y019792D01*
X033659Y019865D01*
X034896Y021102D01*
X035275Y021102D01*
X035398Y021225D01*
X035398Y023399D01*
X035275Y023522D01*
X035098Y023522D01*
X035098Y024148D01*
X035191Y024148D01*
X035314Y024271D01*
X035314Y025154D01*
X035191Y025277D01*
X034561Y025277D01*
X034555Y025282D01*
X033921Y025282D01*
X033856Y025217D01*
X033737Y025217D01*
X033737Y024763D01*
X033637Y024763D01*
X033637Y025217D01*
X033352Y025217D01*
X033314Y025206D01*
X033280Y025187D01*
X033252Y025159D01*
X033232Y025125D01*
X033222Y025086D01*
X033222Y024762D01*
X033637Y024762D01*
X033637Y024662D01*
X033222Y024662D01*
X033222Y024522D01*
X032798Y024522D01*
X032798Y025005D01*
X033531Y025737D01*
X036828Y025737D01*
X033530Y025737D01*
X033432Y025638D02*
X036828Y025638D01*
X036828Y025540D02*
X033333Y025540D01*
X033234Y025441D02*
X036828Y025441D01*
X036828Y025342D02*
X033136Y025342D01*
X033037Y025244D02*
X033883Y025244D01*
X033737Y025145D02*
X033637Y025145D01*
X033687Y025061D02*
X033687Y024712D01*
X033637Y024751D02*
X032798Y024751D01*
X032798Y024653D02*
X033222Y024653D01*
X033222Y024554D02*
X032798Y024554D01*
X032798Y024850D02*
X033222Y024850D01*
X033222Y024948D02*
X032798Y024948D01*
X032840Y025047D02*
X033222Y025047D01*
X033244Y025145D02*
X032939Y025145D01*
X032538Y025112D02*
X032538Y024382D01*
X032218Y024062D01*
X031938Y024342D01*
X031938Y025112D01*
X032538Y025112D02*
X034238Y026812D01*
X034598Y026812D01*
X035448Y026821D02*
X036329Y026821D01*
X036304Y026872D02*
X036360Y026755D01*
X036403Y026687D01*
X035448Y026687D01*
X035448Y028599D01*
X035325Y028722D01*
X029651Y028722D01*
X029528Y028599D01*
X029528Y026687D01*
X028474Y026687D01*
X028516Y026755D01*
X028572Y026872D01*
X028615Y026994D01*
X028644Y027119D01*
X028658Y027248D01*
X028658Y027262D01*
X027558Y027262D01*
X027558Y027362D01*
X028658Y027362D01*
X028658Y027377D01*
X028644Y027505D01*
X028615Y027631D01*
X028572Y027753D01*
X028516Y027870D01*
X028448Y027979D01*
X028367Y028080D01*
X028276Y028171D01*
X028175Y028252D01*
X028065Y028321D01*
X027949Y028377D01*
X027827Y028419D01*
X027701Y028448D01*
X027573Y028462D01*
X027558Y028462D01*
X027558Y027363D01*
X027458Y027363D01*
X027458Y028462D01*
X027444Y028462D01*
X027315Y028448D01*
X027189Y028419D01*
X027067Y028377D01*
X026951Y028321D01*
X026842Y028252D01*
X026741Y028171D01*
X026649Y028080D01*
X026569Y027979D01*
X026500Y027870D01*
X026444Y027753D01*
X026401Y027631D01*
X026373Y027505D01*
X026358Y027377D01*
X026358Y027362D01*
X027458Y027362D01*
X027458Y027262D01*
X026358Y027262D01*
X026358Y027248D01*
X026373Y027119D01*
X026401Y026994D01*
X026444Y026872D01*
X026500Y026755D01*
X026543Y026687D01*
X024998Y026687D01*
X024998Y028152D01*
X025130Y028284D01*
X025218Y028497D01*
X025218Y028728D01*
X025130Y028941D01*
X024967Y029104D01*
X024867Y029145D01*
X024911Y029168D01*
X024977Y029216D01*
X025035Y029274D01*
X025083Y029340D01*
X025120Y029413D01*
X025145Y029491D01*
X025158Y029571D01*
X025158Y029582D01*
X024669Y029582D01*
X024669Y029642D01*
X025158Y029642D01*
X025158Y029653D01*
X025145Y029734D01*
X025120Y029812D01*
X025083Y029885D01*
X025035Y029951D01*
X024977Y030009D01*
X024911Y030057D01*
X024838Y030094D01*
X024760Y030120D01*
X024679Y030132D01*
X024668Y030132D01*
X024668Y029643D01*
X024608Y029643D01*
X024608Y030132D01*
X024597Y030132D01*
X024516Y030120D01*
X024439Y030094D01*
X024366Y030057D01*
X024299Y030009D01*
X024242Y029951D01*
X024194Y029885D01*
X024156Y029812D01*
X024131Y029734D01*
X024118Y029653D01*
X024118Y029642D01*
X024608Y029642D01*
X024608Y029582D01*
X024118Y029582D01*
X024118Y029571D01*
X024131Y029491D01*
X024156Y029413D01*
X024194Y029340D01*
X024242Y029274D01*
X024299Y029216D01*
X024366Y029168D01*
X024409Y029145D01*
X024310Y029104D01*
X024147Y028941D01*
X024058Y028728D01*
X024058Y028497D01*
X024147Y028284D01*
X024278Y028152D01*
X024278Y026687D01*
X019944Y026687D01*
X019769Y026615D01*
X019636Y026481D01*
X019563Y026307D01*
X019563Y026118D01*
X019563Y019805D01*
X019431Y019672D01*
X011149Y019672D01*
X008760Y022157D01*
X008759Y022160D01*
X008723Y022195D01*
X008690Y022230D01*
X008687Y022231D01*
X008686Y022233D01*
X008640Y022252D01*
X008595Y022271D01*
X008592Y022271D01*
X008590Y022272D01*
X008540Y022272D01*
X008492Y022273D01*
X008489Y022272D01*
X005546Y022272D01*
X004848Y022970D01*
X004848Y024599D01*
X004725Y024722D01*
X002788Y024722D01*
X002788Y025602D01*
X006325Y025602D01*
X006448Y025725D01*
X006448Y026193D01*
X007234Y025407D01*
X007367Y025352D01*
X007510Y025352D01*
X010867Y025352D01*
X011010Y025352D01*
X011142Y025407D01*
X012787Y027052D01*
X018367Y027052D01*
X018510Y027052D01*
X018642Y027107D01*
X019841Y028306D01*
X019936Y028211D01*
X020197Y028102D01*
X020479Y028102D01*
X020740Y028211D01*
X020940Y028410D01*
X021048Y028671D01*
X021048Y028952D01*
X021628Y028952D01*
X021628Y028671D01*
X021736Y028410D01*
X021936Y028211D01*
X022197Y028102D01*
X022479Y028102D01*
X022740Y028211D01*
X022940Y028410D01*
X023048Y028671D01*
X023048Y029954D01*
X022940Y030215D01*
X022740Y030414D01*
X022479Y030522D01*
X022197Y030522D01*
X021936Y030414D01*
X021736Y030215D01*
X021628Y029954D01*
X021628Y029672D01*
X021048Y029672D01*
X021048Y029954D01*
X020940Y030215D01*
X020740Y030414D01*
X020479Y030522D01*
X020197Y030522D01*
X019936Y030414D01*
X019736Y030215D01*
X019628Y029954D01*
X019628Y029111D01*
X018289Y027772D01*
X012567Y027772D01*
X012434Y027718D01*
X012333Y027616D01*
X010789Y026072D01*
X008795Y026072D01*
X008848Y026125D01*
X008848Y026352D01*
X009428Y026352D01*
X009530Y026251D01*
X009730Y026168D01*
X009947Y026168D01*
X010147Y026251D01*
X010300Y026404D01*
X010383Y026604D01*
X010383Y026821D01*
X010300Y027021D01*
X010147Y027174D01*
X009947Y027257D01*
X009730Y027257D01*
X009530Y027174D01*
X009428Y027072D01*
X008848Y027072D01*
X008848Y028952D01*
X013428Y028952D01*
X013428Y028671D01*
X013536Y028410D01*
X013736Y028211D01*
X013997Y028102D01*
X014279Y028102D01*
X014540Y028211D01*
X014740Y028410D01*
X014848Y028671D01*
X014848Y028952D01*
X015428Y028952D01*
X015428Y028671D01*
X015536Y028410D01*
X015736Y028211D01*
X015997Y028102D01*
X016279Y028102D01*
X016540Y028211D01*
X016740Y028410D01*
X016848Y028671D01*
X016848Y029954D01*
X016740Y030215D01*
X016540Y030414D01*
X016279Y030522D01*
X015997Y030522D01*
X015736Y030414D01*
X015536Y030215D01*
X015428Y029954D01*
X015428Y029672D01*
X014848Y029672D01*
X014848Y029954D01*
X014740Y030215D01*
X014540Y030414D01*
X014279Y030522D01*
X013997Y030522D01*
X013736Y030414D01*
X013536Y030215D01*
X013428Y029954D01*
X013428Y029672D01*
X008848Y029672D01*
X008848Y031099D01*
X008725Y031222D01*
X006951Y031222D01*
X006828Y031099D01*
X006828Y026831D01*
X006448Y027212D01*
X006448Y028899D01*
X006325Y029022D01*
X002788Y029022D01*
X002788Y029807D01*
X002963Y029632D01*
X003214Y029487D01*
X003493Y029412D01*
X003783Y029412D01*
X004063Y029487D01*
X004314Y029632D01*
X004518Y029837D01*
X004663Y030088D01*
X004738Y030368D01*
X006828Y030368D01*
X006828Y030270D02*
X004712Y030270D01*
X004738Y030368D02*
X004738Y030657D01*
X004663Y030937D01*
X004518Y031188D01*
X004348Y031359D01*
X039729Y031359D01*
X039558Y031188D01*
X039413Y030937D01*
X039338Y030657D01*
X039338Y030368D01*
X022787Y030368D01*
X022885Y030270D02*
X039364Y030270D01*
X039338Y030368D02*
X039413Y030088D01*
X039558Y029837D01*
X039763Y029632D01*
X040014Y029487D01*
X040293Y029412D01*
X040583Y029412D01*
X040863Y029487D01*
X041114Y029632D01*
X041258Y029777D01*
X041258Y029777D01*
X041258Y002348D01*
X041114Y002493D01*
X040863Y002637D01*
X040583Y002712D01*
X040293Y002712D01*
X040014Y002637D01*
X039763Y002493D01*
X039713Y002443D01*
X039713Y026307D01*
X039641Y026481D01*
X039507Y026615D01*
X039333Y026687D01*
X039144Y026687D01*
X038334Y026687D01*
X038376Y026755D01*
X038432Y026872D01*
X038475Y026994D01*
X038504Y027119D01*
X038518Y027248D01*
X038518Y027262D01*
X037418Y027262D01*
X037418Y027362D01*
X038518Y027362D01*
X038518Y027377D01*
X038504Y027505D01*
X038475Y027631D01*
X038432Y027753D01*
X038376Y027870D01*
X038308Y027979D01*
X038227Y028080D01*
X038136Y028171D01*
X038035Y028252D01*
X037925Y028321D01*
X037809Y028377D01*
X037687Y028419D01*
X037561Y028448D01*
X037433Y028462D01*
X037418Y028462D01*
X037418Y027363D01*
X037318Y027363D01*
X037318Y028462D01*
X037304Y028462D01*
X037175Y028448D01*
X037049Y028419D01*
X036927Y028377D01*
X036811Y028321D01*
X036702Y028252D01*
X036601Y028171D01*
X036509Y028080D01*
X036429Y027979D01*
X036360Y027870D01*
X036304Y027753D01*
X036261Y027631D01*
X036233Y027505D01*
X036218Y027377D01*
X036218Y027362D01*
X037318Y027362D01*
X037318Y027262D01*
X036218Y027262D01*
X036218Y027248D01*
X036233Y027119D01*
X036261Y026994D01*
X036304Y026872D01*
X036287Y026919D02*
X035448Y026919D01*
X035448Y027018D02*
X036256Y027018D01*
X036233Y027116D02*
X035448Y027116D01*
X035448Y027215D02*
X036222Y027215D01*
X036222Y027412D02*
X035448Y027412D01*
X035448Y027510D02*
X036234Y027510D01*
X036256Y027609D02*
X035448Y027609D01*
X035448Y027707D02*
X036288Y027707D01*
X036330Y027806D02*
X035448Y027806D01*
X035448Y027905D02*
X036382Y027905D01*
X036448Y028003D02*
X035448Y028003D01*
X035448Y028102D02*
X036531Y028102D01*
X036637Y028200D02*
X035448Y028200D01*
X035448Y028299D02*
X036776Y028299D01*
X036987Y028397D02*
X035448Y028397D01*
X035448Y028496D02*
X041258Y028496D01*
X041258Y028594D02*
X035448Y028594D01*
X035355Y028693D02*
X041258Y028693D01*
X041258Y028791D02*
X025192Y028791D01*
X025218Y028693D02*
X029622Y028693D01*
X029528Y028594D02*
X025218Y028594D01*
X025218Y028496D02*
X029528Y028496D01*
X029528Y028397D02*
X027890Y028397D01*
X028100Y028299D02*
X029528Y028299D01*
X029528Y028200D02*
X028239Y028200D01*
X028345Y028102D02*
X029528Y028102D01*
X029528Y028003D02*
X028428Y028003D01*
X028494Y027905D02*
X029528Y027905D01*
X029528Y027806D02*
X028547Y027806D01*
X028588Y027707D02*
X029528Y027707D01*
X029528Y027609D02*
X028620Y027609D01*
X028643Y027510D02*
X029528Y027510D01*
X029528Y027412D02*
X028654Y027412D01*
X028654Y027215D02*
X029528Y027215D01*
X029528Y027313D02*
X027558Y027313D01*
X027558Y027412D02*
X027458Y027412D01*
X027458Y027510D02*
X027558Y027510D01*
X027558Y027609D02*
X027458Y027609D01*
X027458Y027707D02*
X027558Y027707D01*
X027558Y027806D02*
X027458Y027806D01*
X027458Y027905D02*
X027558Y027905D01*
X027558Y028003D02*
X027458Y028003D01*
X027458Y028102D02*
X027558Y028102D01*
X027558Y028200D02*
X027458Y028200D01*
X027458Y028299D02*
X027558Y028299D01*
X027558Y028397D02*
X027458Y028397D01*
X027127Y028397D02*
X025177Y028397D01*
X025136Y028299D02*
X026916Y028299D01*
X026777Y028200D02*
X025046Y028200D01*
X024998Y028102D02*
X026671Y028102D01*
X026588Y028003D02*
X024998Y028003D01*
X024998Y027905D02*
X026522Y027905D01*
X026470Y027806D02*
X024998Y027806D01*
X024998Y027707D02*
X026428Y027707D01*
X026396Y027609D02*
X024998Y027609D01*
X024998Y027510D02*
X026374Y027510D01*
X026362Y027412D02*
X024998Y027412D01*
X024998Y027313D02*
X027458Y027313D01*
X026396Y027018D02*
X024998Y027018D01*
X024998Y027116D02*
X026373Y027116D01*
X026362Y027215D02*
X024998Y027215D01*
X024998Y026919D02*
X026427Y026919D01*
X026469Y026821D02*
X024998Y026821D01*
X024998Y026722D02*
X026521Y026722D01*
X027338Y025212D02*
X027338Y023712D01*
X027538Y023512D01*
X028208Y023512D01*
X028258Y023562D01*
X028243Y023569D02*
X025342Y023569D01*
X025244Y023667D02*
X027708Y023667D01*
X027708Y023712D02*
X027708Y023577D01*
X028243Y023577D01*
X028243Y023547D01*
X027708Y023547D01*
X027708Y023413D01*
X027719Y023375D01*
X027728Y023359D01*
X027648Y023279D01*
X027648Y022845D01*
X027681Y022812D01*
X027648Y022779D01*
X027648Y022345D01*
X027681Y022312D01*
X027648Y022279D01*
X027648Y021845D01*
X027681Y021812D01*
X027648Y021779D01*
X027648Y021345D01*
X027681Y021312D01*
X027648Y021279D01*
X027648Y020845D01*
X027681Y020812D01*
X027648Y020779D01*
X027648Y020722D01*
X027381Y020722D01*
X026818Y021345D01*
X026818Y021939D01*
X026803Y021955D01*
X026803Y022566D01*
X026680Y022689D01*
X026222Y022689D01*
X024998Y023913D01*
X024998Y025737D01*
X030708Y025737D01*
X030709Y025737D02*
X030678Y025664D01*
X030678Y021564D01*
X030678Y021461D01*
X030718Y021365D01*
X031118Y020965D01*
X031191Y020892D01*
X031238Y020872D01*
X030187Y020872D01*
X030091Y020833D01*
X030018Y020760D01*
X029581Y020322D01*
X028845Y020322D01*
X028868Y020345D01*
X028868Y020779D01*
X028835Y020812D01*
X028868Y020845D01*
X028868Y021279D01*
X028835Y021312D01*
X028868Y021345D01*
X028868Y021779D01*
X028835Y021812D01*
X028868Y021845D01*
X028868Y022279D01*
X028835Y022312D01*
X028868Y022345D01*
X028868Y022779D01*
X028835Y022812D01*
X028868Y022845D01*
X028868Y023279D01*
X028789Y023359D01*
X028798Y023375D01*
X028808Y023413D01*
X028808Y023547D01*
X028274Y023547D01*
X028274Y023577D01*
X028808Y023577D01*
X028808Y023712D01*
X028798Y023750D01*
X028789Y023766D01*
X028868Y023845D01*
X028868Y024279D01*
X028745Y024402D01*
X027771Y024402D01*
X027648Y024279D01*
X027648Y023845D01*
X027728Y023766D01*
X027719Y023750D01*
X027708Y023712D01*
X027727Y023766D02*
X025145Y023766D01*
X025047Y023864D02*
X027648Y023864D01*
X027648Y023963D02*
X024998Y023963D01*
X024998Y024061D02*
X027648Y024061D01*
X027648Y024160D02*
X024998Y024160D01*
X024998Y024258D02*
X027648Y024258D01*
X027726Y024357D02*
X024998Y024357D01*
X024998Y024456D02*
X030678Y024456D01*
X030678Y024554D02*
X024998Y024554D01*
X024998Y024653D02*
X030678Y024653D01*
X030678Y024751D02*
X024998Y024751D01*
X024998Y024850D02*
X030678Y024850D01*
X030678Y024948D02*
X024998Y024948D01*
X024998Y025047D02*
X030678Y025047D01*
X030678Y025145D02*
X024998Y025145D01*
X024998Y025244D02*
X030678Y025244D01*
X030678Y025342D02*
X024998Y025342D01*
X024998Y025441D02*
X030678Y025441D01*
X030678Y025540D02*
X024998Y025540D01*
X024998Y025638D02*
X030678Y025638D01*
X030709Y025737D02*
X024998Y025737D01*
X024278Y025737D02*
X022248Y025737D01*
X024278Y025737D01*
X024278Y023835D01*
X024278Y023692D01*
X024333Y023560D01*
X025674Y022219D01*
X025674Y021762D01*
X025678Y021757D01*
X025678Y021468D01*
X025674Y021463D01*
X025674Y020659D01*
X025797Y020536D01*
X025878Y020536D01*
X025878Y020489D01*
X025797Y020489D01*
X025674Y020366D01*
X025674Y020272D01*
X025387Y020272D01*
X025268Y020391D01*
X025268Y020819D01*
X025145Y020942D01*
X024531Y020942D01*
X024408Y020819D01*
X024408Y020205D01*
X024531Y020082D01*
X024559Y020082D01*
X024933Y019709D01*
X025034Y019607D01*
X025167Y019552D01*
X025668Y019552D01*
X025668Y019121D01*
X024997Y019121D01*
X022248Y021870D01*
X022248Y025737D01*
X022248Y025638D02*
X024278Y025638D01*
X024278Y025540D02*
X022248Y025540D01*
X022248Y025441D02*
X024278Y025441D01*
X024278Y025342D02*
X022248Y025342D01*
X022248Y025244D02*
X024278Y025244D01*
X024278Y025145D02*
X022248Y025145D01*
X022248Y025047D02*
X024278Y025047D01*
X024278Y024948D02*
X022248Y024948D01*
X022248Y024850D02*
X024278Y024850D01*
X024278Y024751D02*
X022248Y024751D01*
X022248Y024653D02*
X024278Y024653D01*
X024278Y024554D02*
X022248Y024554D01*
X022248Y024456D02*
X024278Y024456D01*
X024278Y024357D02*
X022248Y024357D01*
X022248Y024258D02*
X024278Y024258D01*
X024278Y024160D02*
X022248Y024160D01*
X022248Y024061D02*
X024278Y024061D01*
X024278Y023963D02*
X022248Y023963D01*
X022248Y023864D02*
X024278Y023864D01*
X024278Y023766D02*
X022248Y023766D01*
X022248Y023667D02*
X024289Y023667D01*
X024329Y023569D02*
X022248Y023569D01*
X022248Y023470D02*
X024423Y023470D01*
X024521Y023372D02*
X022248Y023372D01*
X022248Y023273D02*
X024620Y023273D01*
X024718Y023174D02*
X022248Y023174D01*
X022248Y023076D02*
X024817Y023076D01*
X024915Y022977D02*
X022248Y022977D01*
X022248Y022879D02*
X025014Y022879D01*
X025112Y022780D02*
X022248Y022780D01*
X022248Y022682D02*
X025211Y022682D01*
X025310Y022583D02*
X022248Y022583D01*
X022248Y022485D02*
X025408Y022485D01*
X025507Y022386D02*
X022248Y022386D01*
X022248Y022288D02*
X025605Y022288D01*
X025674Y022189D02*
X022248Y022189D01*
X022248Y022091D02*
X025674Y022091D01*
X025674Y021992D02*
X022248Y021992D01*
X022248Y021893D02*
X025674Y021893D01*
X025674Y021795D02*
X022323Y021795D01*
X022422Y021696D02*
X025678Y021696D01*
X025678Y021598D02*
X022521Y021598D01*
X022619Y021499D02*
X025678Y021499D01*
X025674Y021401D02*
X022718Y021401D01*
X022816Y021302D02*
X025674Y021302D01*
X025674Y021204D02*
X022915Y021204D01*
X023013Y021105D02*
X025674Y021105D01*
X025674Y021007D02*
X023112Y021007D01*
X023210Y020908D02*
X024497Y020908D01*
X024408Y020809D02*
X023309Y020809D01*
X023407Y020711D02*
X024408Y020711D01*
X024408Y020612D02*
X023506Y020612D01*
X023605Y020514D02*
X024408Y020514D01*
X024408Y020415D02*
X023703Y020415D01*
X023802Y020317D02*
X024408Y020317D01*
X024408Y020218D02*
X023900Y020218D01*
X023999Y020120D02*
X024494Y020120D01*
X024620Y020021D02*
X024097Y020021D01*
X024196Y019923D02*
X024719Y019923D01*
X024818Y019824D02*
X024294Y019824D01*
X024393Y019725D02*
X024916Y019725D01*
X025015Y019627D02*
X024491Y019627D01*
X024590Y019528D02*
X025668Y019528D01*
X025668Y019430D02*
X024689Y019430D01*
X024787Y019331D02*
X025668Y019331D01*
X025668Y019233D02*
X024886Y019233D01*
X024984Y019134D02*
X025668Y019134D01*
X025674Y018601D02*
X025674Y018459D01*
X025797Y018336D01*
X026517Y018336D01*
X026551Y018302D01*
X026561Y018302D01*
X025031Y016772D01*
X022890Y016772D01*
X022787Y016772D01*
X022691Y016733D01*
X022248Y016290D01*
X022248Y021135D01*
X024742Y018641D01*
X024838Y018601D01*
X024941Y018601D01*
X025674Y018601D01*
X025674Y018543D02*
X022248Y018543D01*
X022248Y018641D02*
X024741Y018641D01*
X024643Y018740D02*
X022248Y018740D01*
X022248Y018839D02*
X024544Y018839D01*
X024446Y018937D02*
X022248Y018937D01*
X022248Y019036D02*
X024347Y019036D01*
X024249Y019134D02*
X022248Y019134D01*
X022248Y019233D02*
X024150Y019233D01*
X024052Y019331D02*
X022248Y019331D01*
X022248Y019430D02*
X023953Y019430D01*
X023855Y019528D02*
X022248Y019528D01*
X022248Y019627D02*
X023756Y019627D01*
X023658Y019725D02*
X022248Y019725D01*
X022248Y019824D02*
X023559Y019824D01*
X023460Y019923D02*
X022248Y019923D01*
X022248Y020021D02*
X023362Y020021D01*
X023263Y020120D02*
X022248Y020120D01*
X022248Y020218D02*
X023165Y020218D01*
X023066Y020317D02*
X022248Y020317D01*
X022248Y020415D02*
X022968Y020415D01*
X022869Y020514D02*
X022248Y020514D01*
X022248Y020612D02*
X022771Y020612D01*
X022672Y020711D02*
X022248Y020711D01*
X022248Y020809D02*
X022574Y020809D01*
X022475Y020908D02*
X022248Y020908D01*
X022248Y021007D02*
X022376Y021007D01*
X022278Y021105D02*
X022248Y021105D01*
X021538Y022212D02*
X024889Y018861D01*
X026238Y018861D01*
X026587Y018861D01*
X027238Y019512D01*
X028208Y019512D01*
X028258Y019562D01*
X028258Y019062D02*
X028208Y019012D01*
X027638Y019012D01*
X025138Y016512D01*
X022838Y016512D01*
X022038Y015712D01*
X021038Y015712D01*
X020538Y015212D01*
X019563Y015192D02*
X018468Y015192D01*
X018468Y015094D02*
X019563Y015094D01*
X019563Y014995D02*
X018468Y014995D01*
X018468Y014897D02*
X019563Y014897D01*
X019563Y014798D02*
X018461Y014798D01*
X018363Y014700D02*
X019563Y014700D01*
X019563Y015291D02*
X018468Y015291D01*
X018468Y015390D02*
X019563Y015390D01*
X019563Y015488D02*
X018400Y015488D01*
X017677Y015488D02*
X011768Y015488D01*
X011768Y015390D02*
X013506Y015390D01*
X013408Y015291D02*
X011754Y015291D01*
X011768Y015305D02*
X011768Y015675D01*
X011846Y015752D01*
X013208Y015752D01*
X013208Y015705D01*
X013331Y015582D01*
X013945Y015582D01*
X014068Y015705D01*
X014068Y016319D01*
X013945Y016442D01*
X013331Y016442D01*
X013208Y016319D01*
X013208Y016272D01*
X011790Y016272D01*
X011687Y016272D01*
X011591Y016233D01*
X011401Y016042D01*
X011031Y016042D01*
X010908Y015919D01*
X010908Y015305D01*
X011031Y015182D01*
X011645Y015182D01*
X011768Y015305D01*
X011655Y015192D02*
X013309Y015192D01*
X013211Y015094D02*
X007912Y015094D01*
X007988Y015192D02*
X011021Y015192D01*
X010923Y015291D02*
X008049Y015291D01*
X008097Y015390D02*
X010908Y015390D01*
X010908Y015488D02*
X008133Y015488D01*
X008159Y015587D02*
X010908Y015587D01*
X010908Y015685D02*
X008178Y015685D01*
X008188Y015784D02*
X010908Y015784D01*
X010908Y015882D02*
X007088Y015882D01*
X007088Y015784D02*
X006988Y015784D01*
X006988Y015685D02*
X007088Y015685D01*
X007088Y015587D02*
X006988Y015587D01*
X006988Y015488D02*
X007088Y015488D01*
X007088Y015390D02*
X006988Y015390D01*
X006988Y015291D02*
X007088Y015291D01*
X007088Y015192D02*
X006988Y015192D01*
X006988Y015094D02*
X007088Y015094D01*
X007088Y014995D02*
X006988Y014995D01*
X006988Y014897D02*
X007088Y014897D01*
X007088Y014798D02*
X006988Y014798D01*
X007695Y014897D02*
X013014Y014897D01*
X013112Y014995D02*
X007818Y014995D01*
X008180Y015981D02*
X010970Y015981D01*
X011438Y016079D02*
X008164Y016079D01*
X008139Y016178D02*
X011536Y016178D01*
X011738Y016012D02*
X011338Y015612D01*
X011768Y015587D02*
X013327Y015587D01*
X013229Y015685D02*
X011779Y015685D01*
X011738Y016012D02*
X013638Y016012D01*
X014068Y015981D02*
X019563Y015981D01*
X019563Y016079D02*
X014068Y016079D01*
X014068Y016178D02*
X019563Y016178D01*
X019563Y016276D02*
X014068Y016276D01*
X014013Y016375D02*
X019563Y016375D01*
X019563Y016474D02*
X008000Y016474D01*
X008058Y016375D02*
X013264Y016375D01*
X013208Y016276D02*
X008105Y016276D01*
X007927Y016572D02*
X019563Y016572D01*
X019563Y016671D02*
X007836Y016671D01*
X007721Y016769D02*
X019563Y016769D01*
X019563Y016868D02*
X007560Y016868D01*
X010044Y018839D02*
X004848Y018839D01*
X004848Y018937D02*
X009946Y018937D01*
X009847Y019036D02*
X004848Y019036D01*
X004848Y019134D02*
X009749Y019134D01*
X009650Y019233D02*
X004848Y019233D01*
X004848Y019331D02*
X009552Y019331D01*
X009453Y019430D02*
X004848Y019430D01*
X004848Y019528D02*
X009355Y019528D01*
X009256Y019627D02*
X004848Y019627D01*
X004848Y019725D02*
X009158Y019725D01*
X009059Y019824D02*
X004848Y019824D01*
X004848Y019923D02*
X008960Y019923D01*
X008862Y020021D02*
X004848Y020021D01*
X004848Y020120D02*
X008763Y020120D01*
X008665Y020218D02*
X004848Y020218D01*
X004848Y020317D02*
X008566Y020317D01*
X008468Y020415D02*
X004848Y020415D01*
X004848Y020514D02*
X008369Y020514D01*
X008271Y020612D02*
X004848Y020612D01*
X004848Y020711D02*
X008172Y020711D01*
X008074Y020809D02*
X004848Y020809D01*
X004038Y021412D02*
X008238Y021412D01*
X010838Y018812D01*
X018138Y018812D01*
X019638Y017312D01*
X019247Y016966D02*
X019229Y016966D01*
X019563Y015882D02*
X014068Y015882D01*
X014068Y015784D02*
X019563Y015784D01*
X019563Y015685D02*
X014048Y015685D01*
X013949Y015587D02*
X019563Y015587D01*
X020538Y014212D02*
X020638Y014212D01*
X021038Y013812D01*
X021038Y012912D01*
X021238Y012712D01*
X027838Y012712D01*
X029538Y014412D01*
X029538Y015662D01*
X029538Y015712D01*
X028258Y016992D01*
X028258Y017562D01*
X028258Y018062D02*
X027838Y018062D01*
X027538Y017762D01*
X027538Y015662D01*
X027135Y016079D02*
X026951Y016079D01*
X026935Y016101D02*
X026877Y016159D01*
X026811Y016207D01*
X026738Y016244D01*
X026660Y016270D01*
X026588Y016281D01*
X026588Y015822D01*
X026488Y015822D01*
X026488Y016281D01*
X026416Y016270D01*
X026339Y016244D01*
X026266Y016207D01*
X026199Y016159D01*
X026142Y016101D01*
X026098Y016041D01*
X026098Y016605D01*
X027278Y017785D01*
X027278Y017711D01*
X027278Y016182D01*
X027210Y016154D01*
X027047Y015991D01*
X027026Y015942D01*
X027020Y015962D01*
X026983Y016035D01*
X026935Y016101D01*
X026851Y016178D02*
X027267Y016178D01*
X027278Y016276D02*
X026617Y016276D01*
X026588Y016276D02*
X026488Y016276D01*
X026460Y016276D02*
X026098Y016276D01*
X026098Y016178D02*
X026225Y016178D01*
X026126Y016079D02*
X026098Y016079D01*
X026098Y016375D02*
X027278Y016375D01*
X027278Y016474D02*
X026098Y016474D01*
X026098Y016572D02*
X027278Y016572D01*
X027278Y016671D02*
X026164Y016671D01*
X026263Y016769D02*
X027278Y016769D01*
X027278Y016868D02*
X026361Y016868D01*
X026460Y016966D02*
X027278Y016966D01*
X027278Y017065D02*
X026558Y017065D01*
X026657Y017163D02*
X027278Y017163D01*
X027278Y017262D02*
X026755Y017262D01*
X026854Y017360D02*
X027278Y017360D01*
X027278Y017459D02*
X026952Y017459D01*
X027051Y017558D02*
X027278Y017558D01*
X027278Y017656D02*
X027150Y017656D01*
X027248Y017755D02*
X027278Y017755D01*
X026506Y018247D02*
X022248Y018247D01*
X022248Y018149D02*
X026407Y018149D01*
X026308Y018050D02*
X022248Y018050D01*
X022248Y017952D02*
X026210Y017952D01*
X026111Y017853D02*
X022248Y017853D01*
X022248Y017755D02*
X026013Y017755D01*
X025914Y017656D02*
X022248Y017656D01*
X022248Y017558D02*
X025816Y017558D01*
X025717Y017459D02*
X022248Y017459D01*
X022248Y017360D02*
X025619Y017360D01*
X025520Y017262D02*
X022248Y017262D01*
X022248Y017163D02*
X025422Y017163D01*
X025323Y017065D02*
X022248Y017065D01*
X022248Y016966D02*
X025224Y016966D01*
X025126Y016868D02*
X022248Y016868D01*
X022248Y016769D02*
X022779Y016769D01*
X022629Y016671D02*
X022248Y016671D01*
X022248Y016572D02*
X022530Y016572D01*
X022432Y016474D02*
X022248Y016474D01*
X022248Y016375D02*
X022333Y016375D01*
X022674Y015981D02*
X025578Y015981D01*
X025578Y016079D02*
X022773Y016079D01*
X022871Y016178D02*
X025578Y016178D01*
X025578Y016276D02*
X025248Y016276D01*
X025286Y016292D02*
X025578Y016585D01*
X025578Y015161D01*
X025618Y015065D01*
X025691Y014992D01*
X025891Y014792D01*
X025987Y014752D01*
X026090Y014752D01*
X027990Y014752D01*
X028086Y014792D01*
X028159Y014865D01*
X028278Y014985D01*
X028278Y014220D01*
X027981Y013922D01*
X027951Y013922D01*
X027828Y013799D01*
X027828Y013770D01*
X027531Y013472D01*
X022248Y013472D01*
X022248Y015555D01*
X022259Y015565D01*
X022946Y016252D01*
X025087Y016252D01*
X025190Y016252D01*
X025286Y016292D01*
X025368Y016375D02*
X025578Y016375D01*
X025578Y016474D02*
X025467Y016474D01*
X025566Y016572D02*
X025578Y016572D01*
X025838Y016712D02*
X027688Y018562D01*
X028258Y018562D01*
X028868Y018543D02*
X031608Y018543D01*
X031608Y018641D02*
X028868Y018641D01*
X028868Y018740D02*
X031608Y018740D01*
X031615Y018839D02*
X028861Y018839D01*
X028868Y018937D02*
X031608Y018937D01*
X031608Y019036D02*
X028868Y019036D01*
X028868Y019134D02*
X031608Y019134D01*
X031608Y019233D02*
X028868Y019233D01*
X028854Y019331D02*
X031622Y019331D01*
X031608Y019430D02*
X028868Y019430D01*
X028868Y019528D02*
X031608Y019528D01*
X031608Y019627D02*
X028868Y019627D01*
X028868Y019725D02*
X031608Y019725D01*
X031630Y019824D02*
X029792Y019824D01*
X029916Y019923D02*
X031608Y019923D01*
X031608Y020021D02*
X030015Y020021D01*
X030113Y020120D02*
X031608Y020120D01*
X031608Y020218D02*
X030212Y020218D01*
X030310Y020317D02*
X031637Y020317D01*
X032168Y020612D02*
X032218Y020562D01*
X032168Y020612D02*
X030238Y020612D01*
X029688Y020062D01*
X028258Y020062D01*
X028208Y020012D01*
X028868Y020415D02*
X029673Y020415D01*
X029772Y020514D02*
X028868Y020514D01*
X028868Y020612D02*
X029871Y020612D01*
X029969Y020711D02*
X028868Y020711D01*
X028838Y020809D02*
X030068Y020809D01*
X030781Y021302D02*
X028845Y021302D01*
X028868Y021204D02*
X030879Y021204D01*
X030978Y021105D02*
X028868Y021105D01*
X028868Y021007D02*
X031076Y021007D01*
X031175Y020908D02*
X028868Y020908D01*
X028868Y021401D02*
X030703Y021401D01*
X030678Y021499D02*
X028868Y021499D01*
X028868Y021598D02*
X030678Y021598D01*
X030678Y021696D02*
X028868Y021696D01*
X028853Y021795D02*
X030678Y021795D01*
X030678Y021893D02*
X028868Y021893D01*
X028868Y021992D02*
X030678Y021992D01*
X030678Y022091D02*
X028868Y022091D01*
X028868Y022189D02*
X030678Y022189D01*
X030678Y022288D02*
X028860Y022288D01*
X028868Y022386D02*
X030678Y022386D01*
X030678Y022485D02*
X028868Y022485D01*
X028868Y022583D02*
X030678Y022583D01*
X030678Y022682D02*
X028868Y022682D01*
X028867Y022780D02*
X030678Y022780D01*
X030678Y022879D02*
X028868Y022879D01*
X028868Y022977D02*
X030678Y022977D01*
X030678Y023076D02*
X028868Y023076D01*
X028868Y023174D02*
X030678Y023174D01*
X030678Y023273D02*
X028868Y023273D01*
X028796Y023372D02*
X030678Y023372D01*
X030678Y023470D02*
X028808Y023470D01*
X028808Y023667D02*
X030678Y023667D01*
X030678Y023569D02*
X028274Y023569D01*
X028789Y023766D02*
X030678Y023766D01*
X030678Y023864D02*
X028868Y023864D01*
X028868Y023963D02*
X030678Y023963D01*
X030678Y024061D02*
X028868Y024061D01*
X028868Y024160D02*
X030678Y024160D01*
X030678Y024258D02*
X028868Y024258D01*
X028791Y024357D02*
X030678Y024357D01*
X031338Y025412D02*
X031338Y021812D01*
X031638Y021512D01*
X032168Y021512D01*
X032218Y021562D01*
X032168Y021112D02*
X032218Y021062D01*
X032168Y021112D02*
X031338Y021112D01*
X030938Y021512D01*
X030938Y025612D01*
X031838Y026512D01*
X031838Y027112D01*
X032038Y027312D01*
X032938Y027312D01*
X033458Y026792D01*
X033518Y026792D01*
X033518Y026812D01*
X032438Y026812D02*
X032438Y026512D01*
X031338Y025412D01*
X029528Y026722D02*
X028495Y026722D01*
X028548Y026821D02*
X029528Y026821D01*
X029528Y026919D02*
X028589Y026919D01*
X028621Y027018D02*
X029528Y027018D01*
X029528Y027116D02*
X028643Y027116D01*
X028938Y026812D02*
X027338Y025212D01*
X027708Y023470D02*
X025441Y023470D01*
X025539Y023372D02*
X027720Y023372D01*
X027648Y023273D02*
X025638Y023273D01*
X025736Y023174D02*
X027648Y023174D01*
X027648Y023076D02*
X025835Y023076D01*
X025934Y022977D02*
X027648Y022977D01*
X027648Y022879D02*
X026032Y022879D01*
X026131Y022780D02*
X027649Y022780D01*
X027648Y022682D02*
X026686Y022682D01*
X026785Y022583D02*
X027648Y022583D01*
X027648Y022485D02*
X026803Y022485D01*
X026803Y022386D02*
X027648Y022386D01*
X027656Y022288D02*
X026803Y022288D01*
X026803Y022189D02*
X027648Y022189D01*
X027648Y022091D02*
X026803Y022091D01*
X026803Y021992D02*
X027648Y021992D01*
X027648Y021893D02*
X026818Y021893D01*
X026818Y021795D02*
X027664Y021795D01*
X027648Y021696D02*
X026818Y021696D01*
X026818Y021598D02*
X027648Y021598D01*
X027648Y021499D02*
X026818Y021499D01*
X026818Y021401D02*
X027648Y021401D01*
X027671Y021302D02*
X026857Y021302D01*
X026946Y021204D02*
X027648Y021204D01*
X027648Y021105D02*
X027035Y021105D01*
X027124Y021007D02*
X027648Y021007D01*
X027648Y020908D02*
X027214Y020908D01*
X027303Y020809D02*
X027678Y020809D01*
X026589Y021061D02*
X026238Y021061D01*
X025674Y020908D02*
X025180Y020908D01*
X025268Y020809D02*
X025674Y020809D01*
X025674Y020711D02*
X025268Y020711D01*
X025268Y020612D02*
X025721Y020612D01*
X025878Y020514D02*
X025268Y020514D01*
X025268Y020415D02*
X025724Y020415D01*
X025674Y020317D02*
X025343Y020317D01*
X025689Y018444D02*
X022248Y018444D01*
X022248Y018346D02*
X025787Y018346D01*
X025838Y016712D02*
X025838Y015212D01*
X026038Y015012D01*
X027938Y015012D01*
X028538Y015612D01*
X028538Y015762D01*
X028538Y014112D01*
X027638Y013212D01*
X021538Y013212D01*
X022248Y013517D02*
X027575Y013517D01*
X027674Y013616D02*
X022248Y013616D01*
X022248Y013714D02*
X027772Y013714D01*
X027842Y013813D02*
X022248Y013813D01*
X022248Y013911D02*
X027940Y013911D01*
X028068Y014010D02*
X022248Y014010D01*
X022248Y014109D02*
X028167Y014109D01*
X028265Y014207D02*
X022248Y014207D01*
X022248Y014306D02*
X028278Y014306D01*
X028278Y014404D02*
X022248Y014404D01*
X022248Y014503D02*
X028278Y014503D01*
X028278Y014601D02*
X022248Y014601D01*
X022248Y014700D02*
X028278Y014700D01*
X028278Y014798D02*
X028092Y014798D01*
X028190Y014897D02*
X028278Y014897D01*
X029538Y015112D02*
X029538Y015662D01*
X030388Y016512D01*
X033038Y016512D01*
X033438Y016112D01*
X033438Y015012D01*
X033008Y014995D02*
X031389Y014995D01*
X031290Y014897D02*
X033008Y014897D01*
X033008Y014798D02*
X031192Y014798D01*
X031093Y014700D02*
X033014Y014700D01*
X033112Y014601D02*
X030995Y014601D01*
X030896Y014503D02*
X036278Y014503D01*
X036278Y014601D02*
X033764Y014601D01*
X033863Y014700D02*
X036278Y014700D01*
X036278Y014798D02*
X033868Y014798D01*
X033868Y014897D02*
X036278Y014897D01*
X036278Y014995D02*
X033868Y014995D01*
X033868Y015094D02*
X036278Y015094D01*
X036278Y015192D02*
X035333Y015192D01*
X035343Y015291D02*
X036278Y015291D01*
X036278Y015390D02*
X035343Y015390D01*
X035343Y015488D02*
X036278Y015488D01*
X036278Y015587D02*
X034888Y015587D01*
X034888Y015488D02*
X034788Y015488D01*
X034788Y015511D02*
X034788Y015096D01*
X034464Y015096D01*
X034426Y015107D01*
X034392Y015126D01*
X034364Y015154D01*
X034344Y015188D01*
X034334Y015227D01*
X034334Y015511D01*
X034788Y015511D01*
X034788Y015587D02*
X033698Y015587D01*
X033698Y015685D02*
X034334Y015685D01*
X034290Y015784D02*
X033698Y015784D01*
X033698Y015882D02*
X034268Y015882D01*
X034268Y015981D02*
X033698Y015981D01*
X033698Y016079D02*
X034268Y016079D01*
X034268Y016178D02*
X033693Y016178D01*
X033642Y016276D02*
X034268Y016276D01*
X034268Y016375D02*
X033543Y016375D01*
X033445Y016474D02*
X034274Y016474D01*
X034274Y016572D02*
X033346Y016572D01*
X033248Y016671D02*
X034274Y016671D01*
X034274Y016769D02*
X033098Y016769D01*
X032746Y016868D02*
X028848Y016868D01*
X028848Y016966D02*
X032708Y016966D01*
X032708Y017065D02*
X028848Y017065D01*
X028848Y017163D02*
X032708Y017163D01*
X032788Y017562D02*
X033138Y017212D01*
X033568Y017163D02*
X034372Y017163D01*
X034274Y017065D02*
X033568Y017065D01*
X033568Y016966D02*
X034274Y016966D01*
X034274Y016868D02*
X033531Y016868D01*
X033568Y017262D02*
X034578Y017262D01*
X034343Y017360D02*
X033568Y017360D01*
X033568Y017459D02*
X034278Y017459D01*
X034278Y017558D02*
X033568Y017558D01*
X033568Y017656D02*
X034278Y017656D01*
X034278Y017755D02*
X033568Y017755D01*
X033568Y017853D02*
X034278Y017853D01*
X034278Y017952D02*
X033568Y017952D01*
X033568Y018050D02*
X034278Y018050D01*
X034278Y018149D02*
X033568Y018149D01*
X033568Y018247D02*
X034278Y018247D01*
X034037Y018346D02*
X033568Y018346D01*
X033568Y018444D02*
X033939Y018444D01*
X033840Y018543D02*
X033568Y018543D01*
X033568Y018641D02*
X033741Y018641D01*
X033643Y018740D02*
X033568Y018740D01*
X033138Y019012D02*
X032268Y019012D01*
X032218Y019062D01*
X032268Y019512D02*
X032218Y019562D01*
X032268Y019512D02*
X033238Y019512D01*
X034238Y018512D01*
X034838Y018512D01*
X034838Y016664D01*
X035403Y016671D02*
X036278Y016671D01*
X036278Y016769D02*
X035403Y016769D01*
X035403Y016868D02*
X036278Y016868D01*
X036278Y016966D02*
X035403Y016966D01*
X035403Y017065D02*
X036278Y017065D01*
X036278Y017163D02*
X035305Y017163D01*
X035333Y017360D02*
X036278Y017360D01*
X036278Y017262D02*
X035098Y017262D01*
X035398Y017459D02*
X036278Y017459D01*
X036278Y017558D02*
X035398Y017558D01*
X035398Y017656D02*
X036278Y017656D01*
X036278Y017755D02*
X035398Y017755D01*
X035398Y017853D02*
X036278Y017853D01*
X036278Y017952D02*
X035398Y017952D01*
X035398Y018050D02*
X036278Y018050D01*
X036278Y018149D02*
X035398Y018149D01*
X035398Y018247D02*
X036278Y018247D01*
X036278Y018346D02*
X035398Y018346D01*
X035398Y018444D02*
X036278Y018444D01*
X036278Y018543D02*
X035398Y018543D01*
X035398Y018641D02*
X036278Y018641D01*
X036278Y018740D02*
X035398Y018740D01*
X035398Y018839D02*
X036278Y018839D01*
X036278Y018937D02*
X035398Y018937D01*
X035398Y019036D02*
X036278Y019036D01*
X036278Y019134D02*
X035398Y019134D01*
X035398Y019233D02*
X036278Y019233D01*
X036278Y019331D02*
X035398Y019331D01*
X035398Y019430D02*
X036278Y019430D01*
X036278Y019528D02*
X035398Y019528D01*
X035371Y019627D02*
X036278Y019627D01*
X036278Y019725D02*
X033393Y019725D01*
X033491Y019627D02*
X034306Y019627D01*
X034278Y019528D02*
X033590Y019528D01*
X033689Y019430D02*
X034278Y019430D01*
X034278Y019331D02*
X033787Y019331D01*
X033886Y019233D02*
X034278Y019233D01*
X034278Y019134D02*
X033984Y019134D01*
X034083Y019036D02*
X034278Y019036D01*
X034278Y018937D02*
X034181Y018937D01*
X033618Y019824D02*
X036278Y019824D01*
X036278Y019923D02*
X033716Y019923D01*
X033815Y020021D02*
X036278Y020021D01*
X036278Y020120D02*
X033913Y020120D01*
X034012Y020218D02*
X036278Y020218D01*
X036278Y020317D02*
X034110Y020317D01*
X034209Y020415D02*
X036278Y020415D01*
X036278Y020514D02*
X034307Y020514D01*
X034406Y020612D02*
X036278Y020612D01*
X036278Y020711D02*
X034504Y020711D01*
X034603Y020809D02*
X036278Y020809D01*
X036278Y020908D02*
X034701Y020908D01*
X034800Y021007D02*
X036278Y021007D01*
X036278Y021105D02*
X035278Y021105D01*
X035376Y021204D02*
X036278Y021204D01*
X036278Y021302D02*
X035398Y021302D01*
X035398Y021401D02*
X036278Y021401D01*
X036278Y021499D02*
X035398Y021499D01*
X035398Y021598D02*
X036278Y021598D01*
X036278Y021696D02*
X035398Y021696D01*
X035398Y021795D02*
X036278Y021795D01*
X036278Y021893D02*
X035398Y021893D01*
X035398Y021992D02*
X036278Y021992D01*
X036278Y022091D02*
X035398Y022091D01*
X035398Y022189D02*
X036278Y022189D01*
X036278Y022288D02*
X035398Y022288D01*
X035398Y022386D02*
X036278Y022386D01*
X036278Y022485D02*
X035398Y022485D01*
X035398Y022583D02*
X036278Y022583D01*
X036278Y022682D02*
X035398Y022682D01*
X035398Y022780D02*
X036278Y022780D01*
X036278Y022879D02*
X035398Y022879D01*
X035398Y022977D02*
X036278Y022977D01*
X036278Y023076D02*
X035398Y023076D01*
X035398Y023174D02*
X036278Y023174D01*
X036278Y023273D02*
X035398Y023273D01*
X035398Y023372D02*
X036278Y023372D01*
X036278Y023470D02*
X035328Y023470D01*
X035098Y023569D02*
X036278Y023569D01*
X036278Y023667D02*
X035098Y023667D01*
X035098Y023766D02*
X036278Y023766D01*
X036278Y023864D02*
X035098Y023864D01*
X035098Y023963D02*
X036311Y023963D01*
X036333Y024016D02*
X036278Y023884D01*
X036278Y012061D01*
X035889Y011672D01*
X034387Y011672D01*
X031968Y014091D01*
X031968Y014219D01*
X031845Y014342D01*
X031231Y014342D01*
X031108Y014219D01*
X031108Y013991D01*
X024340Y007224D01*
X023903Y007224D01*
X023903Y007266D01*
X023780Y007389D01*
X022897Y007389D01*
X022774Y007266D01*
X022774Y006462D01*
X022897Y006339D01*
X023780Y006339D01*
X023903Y006462D01*
X023903Y006504D01*
X024418Y006504D01*
X024561Y006504D01*
X024693Y006558D01*
X031588Y013453D01*
X033933Y011109D01*
X033933Y011109D01*
X034034Y011007D01*
X034167Y010952D01*
X035889Y010952D01*
X036578Y010263D01*
X036578Y003941D01*
X036633Y003809D01*
X036734Y003707D01*
X036807Y003677D01*
X036828Y003656D01*
X036828Y000762D01*
X022248Y000762D01*
X022248Y012452D01*
X023538Y012452D01*
X023491Y012433D01*
X023418Y012360D01*
X022918Y011860D01*
X022878Y011764D01*
X022878Y011661D01*
X022878Y010542D01*
X022831Y010542D01*
X022708Y010419D01*
X022751Y010462D02*
X022248Y010462D01*
X022248Y010561D02*
X022878Y010561D01*
X022878Y010659D02*
X022248Y010659D01*
X022248Y010758D02*
X022878Y010758D01*
X022878Y010857D02*
X022248Y010857D01*
X022248Y010955D02*
X022878Y010955D01*
X022878Y011054D02*
X022248Y011054D01*
X022248Y011152D02*
X022878Y011152D01*
X022878Y011251D02*
X022248Y011251D01*
X022248Y011349D02*
X022878Y011349D01*
X022878Y011448D02*
X022248Y011448D01*
X022248Y011546D02*
X022878Y011546D01*
X022878Y011645D02*
X022248Y011645D01*
X022248Y011743D02*
X022878Y011743D01*
X022911Y011842D02*
X022248Y011842D01*
X022248Y011941D02*
X022999Y011941D01*
X023097Y012039D02*
X022248Y012039D01*
X022248Y012138D02*
X023196Y012138D01*
X023294Y012236D02*
X022248Y012236D01*
X022248Y012335D02*
X023393Y012335D01*
X023492Y012433D02*
X022248Y012433D01*
X023138Y011712D02*
X023638Y012212D01*
X028238Y012212D01*
X031538Y015512D01*
X031538Y015662D01*
X031987Y015291D02*
X032189Y015291D01*
X032091Y015390D02*
X032053Y015390D01*
X031889Y015192D02*
X032399Y015192D01*
X032678Y015192D02*
X033008Y015192D01*
X033008Y015094D02*
X031681Y015094D01*
X031882Y014306D02*
X036278Y014306D01*
X036278Y014404D02*
X030798Y014404D01*
X030699Y014306D02*
X031194Y014306D01*
X031108Y014207D02*
X030601Y014207D01*
X030502Y014109D02*
X031108Y014109D01*
X031108Y014010D02*
X030403Y014010D01*
X030305Y013911D02*
X031028Y013911D01*
X030930Y013813D02*
X030206Y013813D01*
X030108Y013714D02*
X030831Y013714D01*
X030733Y013616D02*
X030009Y013616D01*
X029911Y013517D02*
X030634Y013517D01*
X030535Y013419D02*
X029812Y013419D01*
X029714Y013320D02*
X030437Y013320D01*
X030338Y013222D02*
X029615Y013222D01*
X029517Y013123D02*
X030240Y013123D01*
X030141Y013025D02*
X029418Y013025D01*
X029319Y012926D02*
X030043Y012926D01*
X029944Y012827D02*
X029221Y012827D01*
X029122Y012729D02*
X029846Y012729D01*
X029747Y012630D02*
X029024Y012630D01*
X028925Y012532D02*
X029649Y012532D01*
X029550Y012433D02*
X028827Y012433D01*
X028728Y012335D02*
X029451Y012335D01*
X029353Y012236D02*
X028630Y012236D01*
X028531Y012138D02*
X029254Y012138D01*
X029156Y012039D02*
X028433Y012039D01*
X028860Y011743D02*
X023537Y011743D01*
X023438Y011645D02*
X028762Y011645D01*
X028663Y011546D02*
X023398Y011546D01*
X023398Y011448D02*
X028565Y011448D01*
X028466Y011349D02*
X023398Y011349D01*
X023398Y011251D02*
X028368Y011251D01*
X028269Y011152D02*
X023398Y011152D01*
X023398Y011054D02*
X028170Y011054D01*
X028072Y010955D02*
X023398Y010955D01*
X024091Y010857D02*
X027973Y010857D01*
X027875Y010758D02*
X024148Y010758D01*
X024148Y010659D02*
X027776Y010659D01*
X027678Y010561D02*
X024148Y010561D01*
X024148Y010462D02*
X027579Y010462D01*
X027481Y010364D02*
X024148Y010364D01*
X024088Y010265D02*
X027382Y010265D01*
X027284Y010167D02*
X023568Y010167D01*
X023568Y010068D02*
X027185Y010068D01*
X027086Y009970D02*
X023568Y009970D01*
X023568Y009871D02*
X026988Y009871D01*
X026889Y009773D02*
X023535Y009773D01*
X023138Y010112D02*
X023138Y011712D01*
X023636Y011842D02*
X028959Y011842D01*
X029057Y011941D02*
X023734Y011941D01*
X022708Y010265D02*
X022248Y010265D01*
X022248Y010167D02*
X022708Y010167D01*
X022708Y010068D02*
X022248Y010068D01*
X022248Y009970D02*
X022708Y009970D01*
X022708Y009871D02*
X022248Y009871D01*
X022248Y009773D02*
X022741Y009773D01*
X022248Y009674D02*
X026791Y009674D01*
X026692Y009576D02*
X022248Y009576D01*
X022248Y009477D02*
X026594Y009477D01*
X026495Y009378D02*
X022248Y009378D01*
X022248Y009280D02*
X026397Y009280D01*
X026298Y009181D02*
X022248Y009181D01*
X022248Y009083D02*
X026200Y009083D01*
X026101Y008984D02*
X022248Y008984D01*
X022248Y008886D02*
X026002Y008886D01*
X025904Y008787D02*
X022248Y008787D01*
X022248Y008689D02*
X025805Y008689D01*
X025707Y008590D02*
X022248Y008590D01*
X022248Y008492D02*
X025608Y008492D01*
X025510Y008393D02*
X022248Y008393D01*
X022248Y008294D02*
X025411Y008294D01*
X025313Y008196D02*
X022248Y008196D01*
X022248Y008097D02*
X025214Y008097D01*
X025116Y007999D02*
X022248Y007999D01*
X022248Y007900D02*
X025017Y007900D01*
X024919Y007802D02*
X022248Y007802D01*
X022248Y007703D02*
X024820Y007703D01*
X024721Y007605D02*
X022248Y007605D01*
X022248Y007506D02*
X024623Y007506D01*
X024524Y007408D02*
X022248Y007408D01*
X022248Y007309D02*
X022817Y007309D01*
X022774Y007210D02*
X022248Y007210D01*
X022248Y007112D02*
X022774Y007112D01*
X022774Y007013D02*
X022248Y007013D01*
X022248Y006915D02*
X022774Y006915D01*
X022774Y006816D02*
X022248Y006816D01*
X022248Y006718D02*
X022774Y006718D01*
X022774Y006619D02*
X022248Y006619D01*
X022248Y006521D02*
X022774Y006521D01*
X022813Y006422D02*
X022248Y006422D01*
X022248Y006324D02*
X036578Y006324D01*
X036578Y006422D02*
X023863Y006422D01*
X023780Y006286D02*
X023903Y006163D01*
X023903Y005359D01*
X023780Y005236D01*
X023751Y005236D01*
X023768Y005219D01*
X023768Y004605D01*
X023645Y004482D01*
X023031Y004482D01*
X022908Y004605D01*
X022908Y005219D01*
X022925Y005236D01*
X022897Y005236D01*
X022774Y005359D01*
X022774Y006163D01*
X022897Y006286D01*
X023780Y006286D01*
X023841Y006225D02*
X036578Y006225D01*
X036578Y006126D02*
X023903Y006126D01*
X023903Y006028D02*
X036578Y006028D01*
X036578Y005929D02*
X023903Y005929D01*
X023903Y005831D02*
X036578Y005831D01*
X036578Y005732D02*
X023903Y005732D01*
X023903Y005634D02*
X036578Y005634D01*
X036578Y005535D02*
X023903Y005535D01*
X023903Y005437D02*
X036578Y005437D01*
X036578Y005338D02*
X023881Y005338D01*
X023783Y005240D02*
X036578Y005240D01*
X036578Y005141D02*
X023768Y005141D01*
X023768Y005043D02*
X036578Y005043D01*
X036578Y004944D02*
X023768Y004944D01*
X023768Y004845D02*
X036578Y004845D01*
X036578Y004747D02*
X023768Y004747D01*
X023768Y004648D02*
X036578Y004648D01*
X036578Y004550D02*
X023713Y004550D01*
X023338Y004912D02*
X023338Y005761D01*
X022774Y005732D02*
X022248Y005732D01*
X022248Y005634D02*
X022774Y005634D01*
X022774Y005535D02*
X022248Y005535D01*
X022248Y005437D02*
X022774Y005437D01*
X022795Y005338D02*
X022248Y005338D01*
X022248Y005240D02*
X022894Y005240D01*
X022908Y005141D02*
X022248Y005141D01*
X022248Y005043D02*
X022908Y005043D01*
X022908Y004944D02*
X022248Y004944D01*
X022248Y004845D02*
X022908Y004845D01*
X022908Y004747D02*
X022248Y004747D01*
X022248Y004648D02*
X022908Y004648D01*
X022964Y004550D02*
X022248Y004550D01*
X022248Y004451D02*
X036578Y004451D01*
X036578Y004353D02*
X022248Y004353D01*
X022248Y004254D02*
X036578Y004254D01*
X036578Y004156D02*
X022248Y004156D01*
X022248Y004057D02*
X036578Y004057D01*
X036578Y003959D02*
X022248Y003959D01*
X022248Y003860D02*
X036612Y003860D01*
X036680Y003761D02*
X022248Y003761D01*
X022248Y003663D02*
X036821Y003663D01*
X036828Y003564D02*
X022248Y003564D01*
X022248Y003466D02*
X036828Y003466D01*
X036828Y003367D02*
X022248Y003367D01*
X022248Y003269D02*
X036828Y003269D01*
X036828Y003170D02*
X022248Y003170D01*
X022248Y003072D02*
X036828Y003072D01*
X036828Y002973D02*
X022248Y002973D01*
X022248Y002875D02*
X036828Y002875D01*
X036828Y002776D02*
X022248Y002776D01*
X022248Y002677D02*
X036828Y002677D01*
X036828Y002579D02*
X022248Y002579D01*
X022248Y002480D02*
X036828Y002480D01*
X036828Y002382D02*
X022248Y002382D01*
X022248Y002283D02*
X036828Y002283D01*
X036828Y002185D02*
X022248Y002185D01*
X022248Y002086D02*
X036828Y002086D01*
X036828Y001988D02*
X022248Y001988D01*
X022248Y001889D02*
X036828Y001889D01*
X036828Y001791D02*
X022248Y001791D01*
X022248Y001692D02*
X036828Y001692D01*
X036828Y001594D02*
X022248Y001594D01*
X022248Y001495D02*
X036828Y001495D01*
X036828Y001396D02*
X022248Y001396D01*
X022248Y001298D02*
X036828Y001298D01*
X036828Y001199D02*
X022248Y001199D01*
X022248Y001101D02*
X036828Y001101D01*
X036828Y001002D02*
X022248Y001002D01*
X022248Y000904D02*
X036828Y000904D01*
X036828Y000805D02*
X022248Y000805D01*
X022248Y005831D02*
X022774Y005831D01*
X022774Y005929D02*
X022248Y005929D01*
X022248Y006028D02*
X022774Y006028D01*
X022774Y006126D02*
X022248Y006126D01*
X022248Y006225D02*
X022836Y006225D01*
X023859Y007309D02*
X024426Y007309D01*
X025050Y006915D02*
X036578Y006915D01*
X036578Y007013D02*
X025148Y007013D01*
X025247Y007112D02*
X036578Y007112D01*
X036578Y007210D02*
X025345Y007210D01*
X025444Y007309D02*
X036578Y007309D01*
X036578Y007408D02*
X025542Y007408D01*
X025641Y007506D02*
X036578Y007506D01*
X036578Y007605D02*
X025740Y007605D01*
X025838Y007703D02*
X036578Y007703D01*
X036578Y007802D02*
X025937Y007802D01*
X026035Y007900D02*
X036578Y007900D01*
X036578Y007999D02*
X026134Y007999D01*
X026232Y008097D02*
X036578Y008097D01*
X036578Y008196D02*
X026331Y008196D01*
X026429Y008294D02*
X036578Y008294D01*
X036578Y008393D02*
X026528Y008393D01*
X026626Y008492D02*
X036578Y008492D01*
X036578Y008590D02*
X026725Y008590D01*
X026824Y008689D02*
X036578Y008689D01*
X036578Y008787D02*
X026922Y008787D01*
X027021Y008886D02*
X036578Y008886D01*
X036578Y008984D02*
X027119Y008984D01*
X027218Y009083D02*
X036578Y009083D01*
X036578Y009181D02*
X027316Y009181D01*
X027415Y009280D02*
X036578Y009280D01*
X036578Y009378D02*
X027513Y009378D01*
X027612Y009477D02*
X036578Y009477D01*
X036578Y009576D02*
X027710Y009576D01*
X027809Y009674D02*
X036578Y009674D01*
X036578Y009773D02*
X027907Y009773D01*
X028006Y009871D02*
X036578Y009871D01*
X036578Y009970D02*
X028105Y009970D01*
X028203Y010068D02*
X036578Y010068D01*
X036578Y010167D02*
X028302Y010167D01*
X028400Y010265D02*
X036576Y010265D01*
X036478Y010364D02*
X028499Y010364D01*
X028597Y010462D02*
X036379Y010462D01*
X036281Y010561D02*
X028696Y010561D01*
X028794Y010659D02*
X036182Y010659D01*
X036084Y010758D02*
X028893Y010758D01*
X028991Y010857D02*
X035985Y010857D01*
X035960Y011743D02*
X034316Y011743D01*
X034218Y011842D02*
X036059Y011842D01*
X036157Y011941D02*
X034119Y011941D01*
X034021Y012039D02*
X036256Y012039D01*
X036278Y012138D02*
X033922Y012138D01*
X033824Y012236D02*
X036278Y012236D01*
X036278Y012335D02*
X033725Y012335D01*
X033626Y012433D02*
X036278Y012433D01*
X036278Y012532D02*
X033528Y012532D01*
X033429Y012630D02*
X036278Y012630D01*
X036278Y012729D02*
X033331Y012729D01*
X033232Y012827D02*
X036278Y012827D01*
X036278Y012926D02*
X033134Y012926D01*
X033035Y013025D02*
X036278Y013025D01*
X036278Y013123D02*
X032937Y013123D01*
X032838Y013222D02*
X036278Y013222D01*
X036278Y013320D02*
X032740Y013320D01*
X032641Y013419D02*
X036278Y013419D01*
X036278Y013517D02*
X032542Y013517D01*
X032444Y013616D02*
X036278Y013616D01*
X036278Y013714D02*
X032345Y013714D01*
X032247Y013813D02*
X036278Y013813D01*
X036278Y013911D02*
X032148Y013911D01*
X032050Y014010D02*
X036278Y014010D01*
X036278Y014109D02*
X031968Y014109D01*
X031968Y014207D02*
X036278Y014207D01*
X034888Y015192D02*
X034788Y015192D01*
X034788Y015291D02*
X034888Y015291D01*
X034888Y015390D02*
X034788Y015390D01*
X035343Y015685D02*
X036278Y015685D01*
X036278Y015784D02*
X035387Y015784D01*
X035408Y015882D02*
X036278Y015882D01*
X036278Y015981D02*
X035408Y015981D01*
X035408Y016079D02*
X036278Y016079D01*
X036278Y016178D02*
X035408Y016178D01*
X035408Y016276D02*
X036278Y016276D01*
X036278Y016375D02*
X035408Y016375D01*
X035403Y016474D02*
X036278Y016474D01*
X036278Y016572D02*
X035403Y016572D01*
X034334Y015488D02*
X033698Y015488D01*
X033798Y015390D02*
X034334Y015390D01*
X034334Y015291D02*
X033868Y015291D01*
X033868Y015192D02*
X034343Y015192D01*
X033178Y015488D02*
X033052Y015488D01*
X033078Y015390D02*
X032986Y015390D01*
X033008Y015291D02*
X032887Y015291D01*
X033093Y015587D02*
X033178Y015587D01*
X033178Y015685D02*
X033118Y015685D01*
X033118Y015784D02*
X033178Y015784D01*
X031692Y017262D02*
X028848Y017262D01*
X028868Y017360D02*
X031608Y017360D01*
X031608Y017459D02*
X028868Y017459D01*
X028868Y017558D02*
X031608Y017558D01*
X031608Y017656D02*
X028868Y017656D01*
X028868Y017755D02*
X031608Y017755D01*
X031608Y017853D02*
X028868Y017853D01*
X028868Y017952D02*
X031608Y017952D01*
X031608Y018050D02*
X028868Y018050D01*
X028868Y018149D02*
X031608Y018149D01*
X031608Y018247D02*
X028868Y018247D01*
X028868Y018346D02*
X031608Y018346D01*
X031608Y018444D02*
X028868Y018444D01*
X028849Y016769D02*
X030329Y016769D01*
X030179Y016671D02*
X028948Y016671D01*
X029046Y016572D02*
X030080Y016572D01*
X029982Y016474D02*
X029145Y016474D01*
X029243Y016375D02*
X029883Y016375D01*
X029785Y016276D02*
X029342Y016276D01*
X027042Y015981D02*
X027011Y015981D01*
X026588Y015981D02*
X026488Y015981D01*
X026488Y016079D02*
X026588Y016079D01*
X026588Y016178D02*
X026488Y016178D01*
X026488Y015882D02*
X026588Y015882D01*
X025578Y015882D02*
X022576Y015882D01*
X022477Y015784D02*
X025578Y015784D01*
X025578Y015685D02*
X022379Y015685D01*
X022280Y015587D02*
X025578Y015587D01*
X025578Y015488D02*
X022248Y015488D01*
X022248Y015390D02*
X025578Y015390D01*
X025578Y015291D02*
X022248Y015291D01*
X022248Y015192D02*
X025578Y015192D01*
X025606Y015094D02*
X022248Y015094D01*
X022248Y014995D02*
X025688Y014995D01*
X025786Y014897D02*
X022248Y014897D01*
X022248Y014798D02*
X025885Y014798D01*
X029484Y011349D02*
X033692Y011349D01*
X033594Y011448D02*
X029583Y011448D01*
X029681Y011546D02*
X033495Y011546D01*
X033397Y011645D02*
X029780Y011645D01*
X029878Y011743D02*
X033298Y011743D01*
X033200Y011842D02*
X029977Y011842D01*
X030075Y011941D02*
X033101Y011941D01*
X033002Y012039D02*
X030174Y012039D01*
X030273Y012138D02*
X032904Y012138D01*
X032805Y012236D02*
X030371Y012236D01*
X030470Y012335D02*
X032707Y012335D01*
X032608Y012433D02*
X030568Y012433D01*
X030667Y012532D02*
X032510Y012532D01*
X032411Y012630D02*
X030765Y012630D01*
X030864Y012729D02*
X032313Y012729D01*
X032214Y012827D02*
X030962Y012827D01*
X031061Y012926D02*
X032116Y012926D01*
X032017Y013025D02*
X031159Y013025D01*
X031258Y013123D02*
X031919Y013123D01*
X031820Y013222D02*
X031356Y013222D01*
X031455Y013320D02*
X031721Y013320D01*
X031623Y013419D02*
X031554Y013419D01*
X029386Y011251D02*
X033791Y011251D01*
X033889Y011152D02*
X029287Y011152D01*
X029189Y011054D02*
X033988Y011054D01*
X034160Y010955D02*
X029090Y010955D01*
X024951Y006816D02*
X036578Y006816D01*
X036578Y006718D02*
X024853Y006718D01*
X024754Y006619D02*
X036578Y006619D01*
X036578Y006521D02*
X024602Y006521D01*
X016689Y004461D02*
X016689Y004012D01*
X016689Y004461D02*
X016138Y005012D01*
X016138Y008612D01*
X016338Y008812D01*
X013874Y007210D02*
X002788Y007210D01*
X002788Y005929D02*
X005888Y005929D01*
X005898Y005831D02*
X002788Y005831D01*
X002788Y005732D02*
X005916Y005732D01*
X005942Y005634D02*
X002788Y005634D01*
X002788Y005535D02*
X005977Y005535D01*
X006025Y005437D02*
X002788Y005437D01*
X002788Y005338D02*
X006085Y005338D01*
X006160Y005240D02*
X002788Y005240D01*
X002788Y005141D02*
X006253Y005141D01*
X006373Y005043D02*
X002788Y005043D01*
X002788Y004944D02*
X006544Y004944D01*
X008538Y004212D02*
X008538Y001412D01*
X009248Y001396D02*
X009628Y001396D01*
X009628Y001298D02*
X009248Y001298D01*
X009248Y001199D02*
X009628Y001199D01*
X009628Y001101D02*
X009248Y001101D01*
X009248Y001002D02*
X009628Y001002D01*
X009628Y000904D02*
X009248Y000904D01*
X009248Y000805D02*
X009628Y000805D01*
X009628Y001495D02*
X009248Y001495D01*
X009248Y001594D02*
X009628Y001594D01*
X009628Y001692D02*
X009248Y001692D01*
X009248Y001791D02*
X009628Y001791D01*
X009628Y001889D02*
X009248Y001889D01*
X009248Y001988D02*
X009628Y001988D01*
X009628Y002086D02*
X009248Y002086D01*
X009248Y002185D02*
X009628Y002185D01*
X009628Y002283D02*
X009248Y002283D01*
X009248Y002382D02*
X009628Y002382D01*
X009628Y002480D02*
X009248Y002480D01*
X009248Y002579D02*
X009628Y002579D01*
X009628Y002677D02*
X009248Y002677D01*
X009172Y002776D02*
X009705Y002776D01*
X008798Y003466D02*
X015167Y003466D01*
X015069Y003564D02*
X008798Y003564D01*
X008798Y003663D02*
X015062Y003663D01*
X015587Y004012D02*
X013138Y004012D01*
X012138Y005012D01*
X012672Y005240D02*
X015878Y005240D01*
X015878Y005338D02*
X012631Y005338D01*
X012713Y005141D02*
X015878Y005141D01*
X015878Y005043D02*
X012718Y005043D01*
X012718Y004944D02*
X015885Y004944D01*
X015938Y004845D02*
X012697Y004845D01*
X012771Y004747D02*
X016036Y004747D01*
X016135Y004648D02*
X012870Y004648D01*
X012969Y004550D02*
X015158Y004550D01*
X015062Y004451D02*
X013067Y004451D01*
X013166Y004353D02*
X015062Y004353D01*
X013065Y003761D02*
X008798Y003761D01*
X008798Y003860D02*
X012923Y003860D01*
X012824Y003959D02*
X008798Y003959D01*
X008798Y004057D02*
X012726Y004057D01*
X012627Y004156D02*
X008849Y004156D01*
X008948Y004254D02*
X012529Y004254D01*
X012430Y004353D02*
X009046Y004353D01*
X009145Y004451D02*
X011977Y004451D01*
X012299Y004451D02*
X012332Y004451D01*
X012138Y006012D02*
X011838Y006312D01*
X010638Y006312D01*
X008538Y004212D01*
X007923Y006718D02*
X013874Y006718D01*
X013899Y006816D02*
X007831Y006816D01*
X007713Y006915D02*
X013874Y006915D01*
X013874Y007013D02*
X007548Y007013D01*
X007258Y007112D02*
X013874Y007112D01*
X014221Y010758D02*
X016225Y010758D01*
X016126Y010857D02*
X014800Y010857D01*
X014949Y010955D02*
X016028Y010955D01*
X015981Y011054D02*
X015047Y011054D01*
X015146Y011152D02*
X015978Y011152D01*
X015978Y011251D02*
X015244Y011251D01*
X015343Y011349D02*
X015978Y011349D01*
X015978Y011448D02*
X015441Y011448D01*
X015492Y011546D02*
X015978Y011546D01*
X015978Y011645D02*
X015498Y011645D01*
X015498Y011743D02*
X015978Y011743D01*
X015978Y011842D02*
X015498Y011842D01*
X015498Y011941D02*
X015978Y011941D01*
X015978Y012039D02*
X015498Y012039D01*
X015498Y012138D02*
X015978Y012138D01*
X015978Y012236D02*
X015498Y012236D01*
X015498Y012335D02*
X015978Y012335D01*
X015978Y012433D02*
X015498Y012433D01*
X015498Y012532D02*
X015978Y012532D01*
X015978Y012630D02*
X015498Y012630D01*
X015498Y012729D02*
X015978Y012729D01*
X015978Y012827D02*
X015498Y012827D01*
X015498Y012926D02*
X015978Y012926D01*
X015978Y013025D02*
X015498Y013025D01*
X015498Y013123D02*
X015978Y013123D01*
X015978Y013222D02*
X015498Y013222D01*
X015498Y013320D02*
X015978Y013320D01*
X015978Y013419D02*
X015498Y013419D01*
X015498Y013517D02*
X015978Y013517D01*
X015978Y013616D02*
X015498Y013616D01*
X015498Y013714D02*
X015978Y013714D01*
X015978Y013813D02*
X015498Y013813D01*
X014471Y013813D02*
X012948Y013813D01*
X013046Y013911D02*
X014442Y013911D01*
X013238Y013512D02*
X013238Y013312D01*
X013387Y012729D02*
X011810Y012729D01*
X017006Y013813D02*
X019563Y013813D01*
X019238Y018512D02*
X018638Y019112D01*
X010938Y019112D01*
X008338Y021712D01*
X004738Y021712D01*
X003438Y023012D01*
X003438Y022012D02*
X004038Y021412D01*
X003538Y021112D02*
X008138Y021112D01*
X010738Y018512D01*
X017838Y018512D01*
X019538Y019412D02*
X019838Y019712D01*
X021338Y019712D01*
X021538Y019512D01*
X021538Y019212D01*
X019538Y019412D02*
X011038Y019412D01*
X008538Y022012D01*
X005438Y022012D01*
X003438Y024012D01*
X002788Y024751D02*
X008108Y024751D01*
X008108Y024653D02*
X004795Y024653D01*
X004848Y024554D02*
X008108Y024554D01*
X008108Y024505D02*
X008231Y024382D01*
X008845Y024382D01*
X008915Y024452D01*
X011410Y024452D01*
X011542Y024507D01*
X011643Y024609D01*
X012287Y025252D01*
X012861Y025252D01*
X012931Y025182D01*
X013545Y025182D01*
X013668Y025305D01*
X013668Y025919D01*
X013545Y026042D01*
X012931Y026042D01*
X012861Y025972D01*
X012067Y025972D01*
X011934Y025918D01*
X011833Y025816D01*
X011189Y025172D01*
X008915Y025172D01*
X008845Y025242D01*
X008231Y025242D01*
X008108Y025119D01*
X008108Y024505D01*
X008158Y024456D02*
X004848Y024456D01*
X004848Y024357D02*
X014774Y024357D01*
X014872Y024456D02*
X011417Y024456D01*
X011589Y024554D02*
X014971Y024554D01*
X015069Y024653D02*
X011688Y024653D01*
X011643Y024609D02*
X011643Y024609D01*
X011786Y024751D02*
X015108Y024751D01*
X015108Y024692D02*
X015108Y024919D01*
X015231Y025042D01*
X015845Y025042D01*
X015968Y024919D01*
X015968Y024305D01*
X015845Y024182D01*
X015617Y024182D01*
X015382Y023947D01*
X015384Y023947D01*
X015564Y023873D01*
X015702Y023735D01*
X015776Y023555D01*
X015776Y023309D01*
X015848Y023309D01*
X016014Y023240D01*
X016140Y023114D01*
X016209Y022948D01*
X016209Y022576D01*
X016140Y022411D01*
X016014Y022284D01*
X015848Y022216D01*
X015776Y022216D01*
X015776Y021470D01*
X015702Y021290D01*
X015564Y021152D01*
X015384Y021078D01*
X015189Y021078D01*
X014085Y021078D01*
X013890Y021078D01*
X013888Y021078D01*
X013693Y021078D01*
X013513Y021152D01*
X013375Y021290D01*
X013300Y021470D01*
X013300Y023352D01*
X010249Y023352D01*
X010147Y023251D01*
X009947Y023168D01*
X009730Y023168D01*
X009530Y023251D01*
X009377Y023404D01*
X009294Y023604D01*
X009294Y023821D01*
X009377Y024021D01*
X009530Y024174D01*
X009730Y024257D01*
X009947Y024257D01*
X010147Y024174D01*
X010249Y024072D01*
X014489Y024072D01*
X015108Y024692D01*
X015108Y024850D02*
X011885Y024850D01*
X011983Y024948D02*
X015137Y024948D01*
X015939Y024948D02*
X019563Y024948D01*
X019563Y024850D02*
X015968Y024850D01*
X015968Y024751D02*
X019563Y024751D01*
X019563Y024653D02*
X015968Y024653D01*
X015968Y024554D02*
X019563Y024554D01*
X019563Y024456D02*
X015968Y024456D01*
X015968Y024357D02*
X019563Y024357D01*
X019563Y024258D02*
X015921Y024258D01*
X015595Y024160D02*
X019563Y024160D01*
X019563Y024061D02*
X015496Y024061D01*
X015398Y023963D02*
X019563Y023963D01*
X019563Y023864D02*
X015572Y023864D01*
X015671Y023766D02*
X019563Y023766D01*
X019563Y023667D02*
X015730Y023667D01*
X015771Y023569D02*
X019563Y023569D01*
X019563Y023470D02*
X015776Y023470D01*
X015776Y023372D02*
X019563Y023372D01*
X019563Y023273D02*
X015935Y023273D01*
X016080Y023174D02*
X019563Y023174D01*
X019563Y023076D02*
X016156Y023076D01*
X016197Y022977D02*
X019563Y022977D01*
X019563Y022879D02*
X016209Y022879D01*
X016209Y022780D02*
X019563Y022780D01*
X019563Y022682D02*
X016209Y022682D01*
X016209Y022583D02*
X019563Y022583D01*
X019563Y022485D02*
X016171Y022485D01*
X016115Y022386D02*
X019563Y022386D01*
X019563Y022288D02*
X016017Y022288D01*
X015776Y022189D02*
X019563Y022189D01*
X019563Y022091D02*
X015776Y022091D01*
X015776Y021992D02*
X019563Y021992D01*
X019563Y021893D02*
X015776Y021893D01*
X015776Y021795D02*
X019563Y021795D01*
X019563Y021696D02*
X015776Y021696D01*
X015776Y021598D02*
X019563Y021598D01*
X019563Y021499D02*
X015776Y021499D01*
X015748Y021401D02*
X019563Y021401D01*
X019563Y021302D02*
X015707Y021302D01*
X015615Y021204D02*
X019563Y021204D01*
X019563Y021105D02*
X015450Y021105D01*
X014796Y022058D02*
X014477Y022058D01*
X014477Y022967D01*
X014796Y022967D01*
X014796Y022058D01*
X014796Y022091D02*
X014477Y022091D01*
X014477Y022189D02*
X014796Y022189D01*
X014796Y022288D02*
X014477Y022288D01*
X014477Y022386D02*
X014796Y022386D01*
X014796Y022485D02*
X014477Y022485D01*
X014477Y022583D02*
X014796Y022583D01*
X014796Y022682D02*
X014477Y022682D01*
X014477Y022780D02*
X014796Y022780D01*
X014796Y022879D02*
X014477Y022879D01*
X013300Y022879D02*
X004939Y022879D01*
X004848Y022977D02*
X013300Y022977D01*
X013300Y023076D02*
X004848Y023076D01*
X004848Y023174D02*
X009714Y023174D01*
X009507Y023273D02*
X004848Y023273D01*
X004848Y023372D02*
X009409Y023372D01*
X009349Y023470D02*
X004848Y023470D01*
X004848Y023569D02*
X009308Y023569D01*
X009294Y023667D02*
X004848Y023667D01*
X004848Y023766D02*
X009294Y023766D01*
X009312Y023864D02*
X004848Y023864D01*
X004848Y023963D02*
X009352Y023963D01*
X009417Y024061D02*
X004848Y024061D01*
X004848Y024160D02*
X009516Y024160D01*
X010161Y024160D02*
X014577Y024160D01*
X014675Y024258D02*
X004848Y024258D01*
X005038Y022780D02*
X013300Y022780D01*
X013300Y022682D02*
X005137Y022682D01*
X005235Y022583D02*
X013300Y022583D01*
X013300Y022485D02*
X005334Y022485D01*
X005432Y022386D02*
X013300Y022386D01*
X013300Y022288D02*
X005531Y022288D01*
X003538Y021112D02*
X003438Y021012D01*
X004848Y018740D02*
X010143Y018740D01*
X010242Y018641D02*
X004848Y018641D01*
X004848Y018543D02*
X010340Y018543D01*
X010439Y018444D02*
X004848Y018444D01*
X004769Y018346D02*
X010537Y018346D01*
X010518Y018365D02*
X010518Y018365D01*
X011098Y019725D02*
X019484Y019725D01*
X019563Y019824D02*
X011003Y019824D01*
X010908Y019923D02*
X019563Y019923D01*
X019563Y020021D02*
X010814Y020021D01*
X010719Y020120D02*
X019563Y020120D01*
X019563Y020218D02*
X010624Y020218D01*
X010529Y020317D02*
X019563Y020317D01*
X019563Y020415D02*
X010435Y020415D01*
X010340Y020514D02*
X019563Y020514D01*
X019563Y020612D02*
X010245Y020612D01*
X010150Y020711D02*
X019563Y020711D01*
X019563Y020809D02*
X010056Y020809D01*
X009961Y020908D02*
X019563Y020908D01*
X019563Y021007D02*
X009866Y021007D01*
X009771Y021105D02*
X013626Y021105D01*
X013461Y021204D02*
X009677Y021204D01*
X009582Y021302D02*
X013370Y021302D01*
X013329Y021401D02*
X009487Y021401D01*
X009392Y021499D02*
X013300Y021499D01*
X013300Y021598D02*
X009298Y021598D01*
X009203Y021696D02*
X013300Y021696D01*
X013300Y021795D02*
X009108Y021795D01*
X009013Y021893D02*
X013300Y021893D01*
X013300Y021992D02*
X008919Y021992D01*
X008824Y022091D02*
X013300Y022091D01*
X013300Y022189D02*
X008729Y022189D01*
X009963Y023174D02*
X013300Y023174D01*
X013300Y023273D02*
X010169Y023273D01*
X008108Y024850D02*
X002788Y024850D01*
X002788Y024948D02*
X008108Y024948D01*
X008108Y025047D02*
X002788Y025047D01*
X002788Y025145D02*
X008134Y025145D01*
X007201Y025441D02*
X002788Y025441D01*
X002788Y025540D02*
X007102Y025540D01*
X007004Y025638D02*
X006361Y025638D01*
X006448Y025737D02*
X006905Y025737D01*
X006806Y025835D02*
X006448Y025835D01*
X006448Y025934D02*
X006708Y025934D01*
X006609Y026032D02*
X006448Y026032D01*
X006448Y026131D02*
X006511Y026131D01*
X006741Y026919D02*
X006828Y026919D01*
X006828Y027018D02*
X006642Y027018D01*
X006544Y027116D02*
X006828Y027116D01*
X006828Y027215D02*
X006448Y027215D01*
X006448Y027313D02*
X006828Y027313D01*
X006828Y027412D02*
X006448Y027412D01*
X006448Y027510D02*
X006828Y027510D01*
X006828Y027609D02*
X006448Y027609D01*
X006448Y027707D02*
X006828Y027707D01*
X006828Y027806D02*
X006448Y027806D01*
X006448Y027905D02*
X006828Y027905D01*
X006828Y028003D02*
X006448Y028003D01*
X006448Y028102D02*
X006828Y028102D01*
X006828Y028200D02*
X006448Y028200D01*
X006448Y028299D02*
X006828Y028299D01*
X006828Y028397D02*
X006448Y028397D01*
X006448Y028496D02*
X006828Y028496D01*
X006828Y028594D02*
X006448Y028594D01*
X006448Y028693D02*
X006828Y028693D01*
X006828Y028791D02*
X006448Y028791D01*
X006448Y028890D02*
X006828Y028890D01*
X006828Y028989D02*
X006359Y028989D01*
X006828Y029087D02*
X002788Y029087D01*
X002788Y029186D02*
X006828Y029186D01*
X006828Y029284D02*
X002788Y029284D01*
X002788Y029383D02*
X006828Y029383D01*
X006828Y029481D02*
X004040Y029481D01*
X004223Y029580D02*
X006828Y029580D01*
X006828Y029678D02*
X004360Y029678D01*
X004458Y029777D02*
X006828Y029777D01*
X006828Y029875D02*
X004541Y029875D01*
X004598Y029974D02*
X006828Y029974D01*
X006828Y030073D02*
X004654Y030073D01*
X004686Y030171D02*
X006828Y030171D01*
X006828Y030467D02*
X004738Y030467D01*
X004738Y030565D02*
X006828Y030565D01*
X006828Y030664D02*
X004736Y030664D01*
X004710Y030762D02*
X006828Y030762D01*
X006828Y030861D02*
X004684Y030861D01*
X004650Y030959D02*
X006828Y030959D01*
X006828Y031058D02*
X004593Y031058D01*
X004537Y031156D02*
X006885Y031156D01*
X008791Y031156D02*
X039540Y031156D01*
X039483Y031058D02*
X008848Y031058D01*
X008848Y030959D02*
X039426Y030959D01*
X039393Y030861D02*
X008848Y030861D01*
X008848Y030762D02*
X039366Y030762D01*
X039340Y030664D02*
X008848Y030664D01*
X008848Y030565D02*
X039338Y030565D01*
X039338Y030467D02*
X022614Y030467D01*
X022958Y030171D02*
X039391Y030171D01*
X039422Y030073D02*
X024881Y030073D01*
X025012Y029974D02*
X039479Y029974D01*
X039536Y029875D02*
X025088Y029875D01*
X025132Y029777D02*
X039618Y029777D01*
X039717Y029678D02*
X025154Y029678D01*
X025158Y029580D02*
X039854Y029580D01*
X040037Y029481D02*
X025142Y029481D01*
X025105Y029383D02*
X041258Y029383D01*
X041258Y029481D02*
X040840Y029481D01*
X041023Y029580D02*
X041258Y029580D01*
X041258Y029678D02*
X041160Y029678D01*
X041258Y029284D02*
X025042Y029284D01*
X024935Y029186D02*
X041258Y029186D01*
X041258Y029087D02*
X024984Y029087D01*
X025082Y028989D02*
X041258Y028989D01*
X041258Y028890D02*
X025151Y028890D01*
X024341Y029186D02*
X023048Y029186D01*
X023048Y029284D02*
X024234Y029284D01*
X024172Y029383D02*
X023048Y029383D01*
X023048Y029481D02*
X024134Y029481D01*
X024118Y029580D02*
X023048Y029580D01*
X023048Y029678D02*
X024122Y029678D01*
X024145Y029777D02*
X023048Y029777D01*
X023048Y029875D02*
X024189Y029875D01*
X024264Y029974D02*
X023040Y029974D01*
X022999Y030073D02*
X024396Y030073D01*
X024608Y030073D02*
X024668Y030073D01*
X024668Y029974D02*
X024608Y029974D01*
X024608Y029875D02*
X024668Y029875D01*
X024668Y029777D02*
X024608Y029777D01*
X024608Y029678D02*
X024668Y029678D01*
X024293Y029087D02*
X023048Y029087D01*
X023048Y028989D02*
X024194Y028989D01*
X024125Y028890D02*
X023048Y028890D01*
X023048Y028791D02*
X024085Y028791D01*
X024058Y028693D02*
X023048Y028693D01*
X023016Y028594D02*
X024058Y028594D01*
X024059Y028496D02*
X022976Y028496D01*
X022927Y028397D02*
X024100Y028397D01*
X024140Y028299D02*
X022829Y028299D01*
X022716Y028200D02*
X024230Y028200D01*
X024278Y028102D02*
X019637Y028102D01*
X019735Y028200D02*
X019961Y028200D01*
X019848Y028299D02*
X019834Y028299D01*
X019538Y028003D02*
X024278Y028003D01*
X024278Y027905D02*
X019439Y027905D01*
X019341Y027806D02*
X024278Y027806D01*
X024278Y027707D02*
X019242Y027707D01*
X019144Y027609D02*
X024278Y027609D01*
X024278Y027510D02*
X019045Y027510D01*
X018947Y027412D02*
X024278Y027412D01*
X024278Y027313D02*
X018848Y027313D01*
X018750Y027215D02*
X024278Y027215D01*
X024278Y027116D02*
X018651Y027116D01*
X018323Y027806D02*
X008848Y027806D01*
X008848Y027707D02*
X012424Y027707D01*
X012333Y027616D02*
X012333Y027616D01*
X012326Y027609D02*
X008848Y027609D01*
X008848Y027510D02*
X012227Y027510D01*
X012129Y027412D02*
X008848Y027412D01*
X008848Y027313D02*
X012030Y027313D01*
X011932Y027215D02*
X010049Y027215D01*
X010205Y027116D02*
X011833Y027116D01*
X011734Y027018D02*
X010301Y027018D01*
X010342Y026919D02*
X011636Y026919D01*
X011537Y026821D02*
X010383Y026821D01*
X010383Y026722D02*
X011439Y026722D01*
X011340Y026624D02*
X010383Y026624D01*
X010350Y026525D02*
X011242Y026525D01*
X011143Y026426D02*
X010309Y026426D01*
X010224Y026328D02*
X011045Y026328D01*
X010946Y026229D02*
X010095Y026229D01*
X010848Y026131D02*
X008848Y026131D01*
X008848Y026229D02*
X009581Y026229D01*
X009453Y026328D02*
X008848Y026328D01*
X008848Y027116D02*
X009472Y027116D01*
X009628Y027215D02*
X008848Y027215D01*
X008848Y027905D02*
X018421Y027905D01*
X018520Y028003D02*
X008848Y028003D01*
X008848Y028102D02*
X018618Y028102D01*
X018717Y028200D02*
X016516Y028200D01*
X016629Y028299D02*
X018816Y028299D01*
X018914Y028397D02*
X016727Y028397D01*
X016776Y028496D02*
X019013Y028496D01*
X019111Y028594D02*
X016816Y028594D01*
X016848Y028693D02*
X019210Y028693D01*
X019308Y028791D02*
X016848Y028791D01*
X016848Y028890D02*
X019407Y028890D01*
X019505Y028989D02*
X016848Y028989D01*
X016848Y029087D02*
X019604Y029087D01*
X019628Y029186D02*
X016848Y029186D01*
X016848Y029284D02*
X019628Y029284D01*
X019628Y029383D02*
X016848Y029383D01*
X016848Y029481D02*
X019628Y029481D01*
X019628Y029580D02*
X016848Y029580D01*
X016848Y029678D02*
X019628Y029678D01*
X019628Y029777D02*
X016848Y029777D01*
X016848Y029875D02*
X019628Y029875D01*
X019637Y029974D02*
X016840Y029974D01*
X016799Y030073D02*
X019678Y030073D01*
X019718Y030171D02*
X016758Y030171D01*
X016685Y030270D02*
X019791Y030270D01*
X019890Y030368D02*
X016587Y030368D01*
X016414Y030467D02*
X020063Y030467D01*
X020614Y030467D02*
X022063Y030467D01*
X021890Y030368D02*
X020787Y030368D01*
X020885Y030270D02*
X021791Y030270D01*
X021718Y030171D02*
X020958Y030171D01*
X020999Y030073D02*
X021678Y030073D01*
X021637Y029974D02*
X021040Y029974D01*
X021048Y029875D02*
X021628Y029875D01*
X021628Y029777D02*
X021048Y029777D01*
X021048Y029678D02*
X021628Y029678D01*
X021628Y028890D02*
X021048Y028890D01*
X021048Y028791D02*
X021628Y028791D01*
X021628Y028693D02*
X021048Y028693D01*
X021016Y028594D02*
X021660Y028594D01*
X021701Y028496D02*
X020976Y028496D01*
X020927Y028397D02*
X021749Y028397D01*
X021848Y028299D02*
X020829Y028299D01*
X020716Y028200D02*
X021961Y028200D01*
X024278Y027018D02*
X012753Y027018D01*
X012654Y026919D02*
X024278Y026919D01*
X024278Y026821D02*
X012555Y026821D01*
X012457Y026722D02*
X024278Y026722D01*
X019790Y026624D02*
X012358Y026624D01*
X012260Y026525D02*
X019679Y026525D01*
X019613Y026426D02*
X012161Y026426D01*
X012063Y026328D02*
X019572Y026328D01*
X019563Y026229D02*
X011964Y026229D01*
X011866Y026131D02*
X019563Y026131D01*
X019563Y026032D02*
X013555Y026032D01*
X013654Y025934D02*
X019563Y025934D01*
X019563Y025835D02*
X013668Y025835D01*
X013668Y025737D02*
X019563Y025737D01*
X019563Y025638D02*
X013668Y025638D01*
X013668Y025540D02*
X019563Y025540D01*
X019563Y025441D02*
X013668Y025441D01*
X013668Y025342D02*
X019563Y025342D01*
X019563Y025244D02*
X013607Y025244D01*
X012870Y025244D02*
X012279Y025244D01*
X012180Y025145D02*
X019563Y025145D01*
X019563Y025047D02*
X012082Y025047D01*
X011359Y025342D02*
X002788Y025342D01*
X002788Y025244D02*
X011261Y025244D01*
X011176Y025441D02*
X011458Y025441D01*
X011556Y025540D02*
X011274Y025540D01*
X011373Y025638D02*
X011655Y025638D01*
X011753Y025737D02*
X011471Y025737D01*
X011570Y025835D02*
X011852Y025835D01*
X011833Y025816D02*
X011833Y025816D01*
X011973Y025934D02*
X011669Y025934D01*
X011767Y026032D02*
X012921Y026032D01*
X013761Y028200D02*
X008848Y028200D01*
X008848Y028299D02*
X013648Y028299D01*
X013549Y028397D02*
X008848Y028397D01*
X008848Y028496D02*
X013501Y028496D01*
X013460Y028594D02*
X008848Y028594D01*
X008848Y028693D02*
X013428Y028693D01*
X013428Y028791D02*
X008848Y028791D01*
X008848Y028890D02*
X013428Y028890D01*
X013428Y029678D02*
X008848Y029678D01*
X008848Y029777D02*
X013428Y029777D01*
X013428Y029875D02*
X008848Y029875D01*
X008848Y029974D02*
X013437Y029974D01*
X013478Y030073D02*
X008848Y030073D01*
X008848Y030171D02*
X013518Y030171D01*
X013591Y030270D02*
X008848Y030270D01*
X008848Y030368D02*
X013690Y030368D01*
X013863Y030467D02*
X008848Y030467D01*
X004451Y031255D02*
X039625Y031255D01*
X039724Y031354D02*
X004353Y031354D01*
X003054Y029580D02*
X002788Y029580D01*
X002788Y029678D02*
X002917Y029678D01*
X002818Y029777D02*
X002788Y029777D01*
X002788Y029481D02*
X003237Y029481D01*
X014414Y030467D02*
X015863Y030467D01*
X015690Y030368D02*
X014587Y030368D01*
X014685Y030270D02*
X015591Y030270D01*
X015518Y030171D02*
X014758Y030171D01*
X014799Y030073D02*
X015478Y030073D01*
X015437Y029974D02*
X014840Y029974D01*
X014848Y029875D02*
X015428Y029875D01*
X015428Y029777D02*
X014848Y029777D01*
X014848Y029678D02*
X015428Y029678D01*
X015428Y028890D02*
X014848Y028890D01*
X014848Y028791D02*
X015428Y028791D01*
X015428Y028693D02*
X014848Y028693D01*
X014816Y028594D02*
X015460Y028594D01*
X015501Y028496D02*
X014776Y028496D01*
X014727Y028397D02*
X015549Y028397D01*
X015648Y028299D02*
X014629Y028299D01*
X014516Y028200D02*
X015761Y028200D01*
X028938Y026812D02*
X030278Y026812D01*
X033637Y025047D02*
X033737Y025047D01*
X033737Y024948D02*
X033637Y024948D01*
X033637Y024850D02*
X033737Y024850D01*
X033848Y024208D02*
X033856Y024208D01*
X033921Y024142D01*
X034555Y024142D01*
X034561Y024148D01*
X034578Y024148D01*
X034578Y023522D01*
X034401Y023522D01*
X034278Y023399D01*
X034278Y021225D01*
X034281Y021223D01*
X033331Y020272D01*
X032828Y020272D01*
X032828Y020279D01*
X032795Y020312D01*
X032828Y020345D01*
X032828Y020779D01*
X032795Y020812D01*
X032828Y020845D01*
X032828Y021202D01*
X033725Y021202D01*
X033848Y021325D01*
X033848Y024208D01*
X033848Y024160D02*
X033904Y024160D01*
X033848Y024061D02*
X034578Y024061D01*
X034578Y023963D02*
X033848Y023963D01*
X033848Y023864D02*
X034578Y023864D01*
X034578Y023766D02*
X033848Y023766D01*
X033848Y023667D02*
X034578Y023667D01*
X034578Y023569D02*
X033848Y023569D01*
X033848Y023470D02*
X034349Y023470D01*
X034278Y023372D02*
X033848Y023372D01*
X033848Y023273D02*
X034278Y023273D01*
X034278Y023174D02*
X033848Y023174D01*
X033848Y023076D02*
X034278Y023076D01*
X034278Y022977D02*
X033848Y022977D01*
X033848Y022879D02*
X034278Y022879D01*
X034278Y022780D02*
X033848Y022780D01*
X033848Y022682D02*
X034278Y022682D01*
X034278Y022583D02*
X033848Y022583D01*
X033848Y022485D02*
X034278Y022485D01*
X034278Y022386D02*
X033848Y022386D01*
X033848Y022288D02*
X034278Y022288D01*
X034278Y022189D02*
X033848Y022189D01*
X033848Y022091D02*
X034278Y022091D01*
X034278Y021992D02*
X033848Y021992D01*
X033848Y021893D02*
X034278Y021893D01*
X034278Y021795D02*
X033848Y021795D01*
X033848Y021696D02*
X034278Y021696D01*
X034278Y021598D02*
X033848Y021598D01*
X033848Y021499D02*
X034278Y021499D01*
X034278Y021401D02*
X033848Y021401D01*
X033825Y021302D02*
X034278Y021302D01*
X034262Y021204D02*
X033726Y021204D01*
X033966Y020908D02*
X032828Y020908D01*
X032828Y021007D02*
X034065Y021007D01*
X034163Y021105D02*
X032828Y021105D01*
X032798Y020809D02*
X033868Y020809D01*
X033769Y020711D02*
X032828Y020711D01*
X032828Y020612D02*
X033671Y020612D01*
X033572Y020514D02*
X032828Y020514D01*
X032828Y020415D02*
X033473Y020415D01*
X033375Y020317D02*
X032799Y020317D01*
X032268Y020012D02*
X032218Y020062D01*
X032268Y020012D02*
X033438Y020012D01*
X034838Y021412D01*
X034838Y022312D01*
X034838Y024664D01*
X034789Y024712D01*
X035314Y024751D02*
X036828Y024751D01*
X036828Y024653D02*
X035314Y024653D01*
X035314Y024554D02*
X036828Y024554D01*
X036828Y024512D02*
X036434Y024118D01*
X036333Y024016D01*
X036378Y024061D02*
X035098Y024061D01*
X035203Y024160D02*
X036477Y024160D01*
X036575Y024258D02*
X035302Y024258D01*
X035314Y024357D02*
X036674Y024357D01*
X036772Y024456D02*
X035314Y024456D01*
X035314Y024850D02*
X036828Y024850D01*
X036828Y024948D02*
X035314Y024948D01*
X035314Y025047D02*
X036828Y025047D01*
X036828Y025145D02*
X035314Y025145D01*
X035224Y025244D02*
X036828Y025244D01*
X036828Y025737D02*
X036828Y024512D01*
X036381Y026722D02*
X035448Y026722D01*
X035448Y027313D02*
X037318Y027313D01*
X037318Y027412D02*
X037418Y027412D01*
X037418Y027510D02*
X037318Y027510D01*
X037318Y027609D02*
X037418Y027609D01*
X037418Y027707D02*
X037318Y027707D01*
X037318Y027806D02*
X037418Y027806D01*
X037418Y027905D02*
X037318Y027905D01*
X037318Y028003D02*
X037418Y028003D01*
X037418Y028102D02*
X037318Y028102D01*
X037318Y028200D02*
X037418Y028200D01*
X037418Y028299D02*
X037318Y028299D01*
X037318Y028397D02*
X037418Y028397D01*
X037750Y028397D02*
X041258Y028397D01*
X041258Y028299D02*
X037960Y028299D01*
X038099Y028200D02*
X041258Y028200D01*
X041258Y028102D02*
X038205Y028102D01*
X038288Y028003D02*
X041258Y028003D01*
X041258Y027905D02*
X038354Y027905D01*
X038407Y027806D02*
X041258Y027806D01*
X041258Y027707D02*
X038448Y027707D01*
X038480Y027609D02*
X041258Y027609D01*
X041258Y027510D02*
X038503Y027510D01*
X038514Y027412D02*
X041258Y027412D01*
X041258Y027313D02*
X037418Y027313D01*
X038514Y027215D02*
X041258Y027215D01*
X041258Y027116D02*
X038503Y027116D01*
X038481Y027018D02*
X041258Y027018D01*
X041258Y026919D02*
X038449Y026919D01*
X038408Y026821D02*
X041258Y026821D01*
X041258Y026722D02*
X038355Y026722D01*
X039487Y026624D02*
X041258Y026624D01*
X041258Y026525D02*
X039597Y026525D01*
X039664Y026426D02*
X041258Y026426D01*
X041258Y026328D02*
X039705Y026328D01*
X039713Y026229D02*
X041258Y026229D01*
X041258Y026131D02*
X039713Y026131D01*
X039713Y026032D02*
X041258Y026032D01*
X041258Y025934D02*
X039713Y025934D01*
X039713Y025835D02*
X041258Y025835D01*
X041258Y025737D02*
X039713Y025737D01*
X039713Y025638D02*
X041258Y025638D01*
X041258Y025540D02*
X039713Y025540D01*
X039713Y025441D02*
X041258Y025441D01*
X041258Y025342D02*
X039713Y025342D01*
X039713Y025244D02*
X041258Y025244D01*
X041258Y025145D02*
X039713Y025145D01*
X039713Y025047D02*
X041258Y025047D01*
X041258Y024948D02*
X039713Y024948D01*
X039713Y024850D02*
X041258Y024850D01*
X041258Y024751D02*
X039713Y024751D01*
X039713Y024653D02*
X041258Y024653D01*
X041258Y024554D02*
X039713Y024554D01*
X039713Y024456D02*
X041258Y024456D01*
X041258Y024357D02*
X039713Y024357D01*
X039713Y024258D02*
X041258Y024258D01*
X041258Y024160D02*
X039713Y024160D01*
X039713Y024061D02*
X041258Y024061D01*
X041258Y023963D02*
X039713Y023963D01*
X039713Y023864D02*
X041258Y023864D01*
X041258Y023766D02*
X039713Y023766D01*
X039713Y023667D02*
X041258Y023667D01*
X041258Y023569D02*
X039713Y023569D01*
X039713Y023470D02*
X041258Y023470D01*
X041258Y023372D02*
X039713Y023372D01*
X039713Y023273D02*
X041258Y023273D01*
X041258Y023174D02*
X039713Y023174D01*
X039713Y023076D02*
X041258Y023076D01*
X041258Y022977D02*
X039713Y022977D01*
X039713Y022879D02*
X041258Y022879D01*
X041258Y022780D02*
X039713Y022780D01*
X039713Y022682D02*
X041258Y022682D01*
X041258Y022583D02*
X039713Y022583D01*
X039713Y022485D02*
X041258Y022485D01*
X041258Y022386D02*
X039713Y022386D01*
X039713Y022288D02*
X041258Y022288D01*
X041258Y022189D02*
X039713Y022189D01*
X039713Y022091D02*
X041258Y022091D01*
X041258Y021992D02*
X039713Y021992D01*
X039713Y021893D02*
X041258Y021893D01*
X041258Y021795D02*
X039713Y021795D01*
X039713Y021696D02*
X041258Y021696D01*
X041258Y021598D02*
X039713Y021598D01*
X039713Y021499D02*
X041258Y021499D01*
X041258Y021401D02*
X039713Y021401D01*
X039713Y021302D02*
X041258Y021302D01*
X041258Y021204D02*
X039713Y021204D01*
X039713Y021105D02*
X041258Y021105D01*
X041258Y021007D02*
X039713Y021007D01*
X039713Y020908D02*
X041258Y020908D01*
X041258Y020809D02*
X039713Y020809D01*
X039713Y020711D02*
X041258Y020711D01*
X041258Y020612D02*
X039713Y020612D01*
X039713Y020514D02*
X041258Y020514D01*
X041258Y020415D02*
X039713Y020415D01*
X039713Y020317D02*
X041258Y020317D01*
X041258Y020218D02*
X039713Y020218D01*
X039713Y020120D02*
X041258Y020120D01*
X041258Y020021D02*
X039713Y020021D01*
X039713Y019923D02*
X041258Y019923D01*
X041258Y019824D02*
X039713Y019824D01*
X039713Y019725D02*
X041258Y019725D01*
X041258Y019627D02*
X039713Y019627D01*
X039713Y019528D02*
X041258Y019528D01*
X041258Y019430D02*
X039713Y019430D01*
X039713Y019331D02*
X041258Y019331D01*
X041258Y019233D02*
X039713Y019233D01*
X039713Y019134D02*
X041258Y019134D01*
X041258Y019036D02*
X039713Y019036D01*
X039713Y018937D02*
X041258Y018937D01*
X041258Y018839D02*
X039713Y018839D01*
X039713Y018740D02*
X041258Y018740D01*
X041258Y018641D02*
X039713Y018641D01*
X039713Y018543D02*
X041258Y018543D01*
X041258Y018444D02*
X039713Y018444D01*
X039713Y018346D02*
X041258Y018346D01*
X041258Y018247D02*
X039713Y018247D01*
X039713Y018149D02*
X041258Y018149D01*
X041258Y018050D02*
X039713Y018050D01*
X039713Y017952D02*
X041258Y017952D01*
X041258Y017853D02*
X039713Y017853D01*
X039713Y017755D02*
X041258Y017755D01*
X041258Y017656D02*
X039713Y017656D01*
X039713Y017558D02*
X041258Y017558D01*
X041258Y017459D02*
X039713Y017459D01*
X039713Y017360D02*
X041258Y017360D01*
X041258Y017262D02*
X039713Y017262D01*
X039713Y017163D02*
X041258Y017163D01*
X041258Y017065D02*
X039713Y017065D01*
X039713Y016966D02*
X041258Y016966D01*
X041258Y016868D02*
X039713Y016868D01*
X039713Y016769D02*
X041258Y016769D01*
X041258Y016671D02*
X039713Y016671D01*
X039713Y016572D02*
X041258Y016572D01*
X041258Y016474D02*
X039713Y016474D01*
X039713Y016375D02*
X041258Y016375D01*
X041258Y016276D02*
X039713Y016276D01*
X039713Y016178D02*
X041258Y016178D01*
X041258Y016079D02*
X039713Y016079D01*
X039713Y015981D02*
X041258Y015981D01*
X041258Y015882D02*
X039713Y015882D01*
X039713Y015784D02*
X041258Y015784D01*
X041258Y015685D02*
X039713Y015685D01*
X039713Y015587D02*
X041258Y015587D01*
X041258Y015488D02*
X039713Y015488D01*
X039713Y015390D02*
X041258Y015390D01*
X041258Y015291D02*
X039713Y015291D01*
X039713Y015192D02*
X041258Y015192D01*
X041258Y015094D02*
X039713Y015094D01*
X039713Y014995D02*
X041258Y014995D01*
X041258Y014897D02*
X039713Y014897D01*
X039713Y014798D02*
X041258Y014798D01*
X041258Y014700D02*
X039713Y014700D01*
X039713Y014601D02*
X041258Y014601D01*
X041258Y014503D02*
X039713Y014503D01*
X039713Y014404D02*
X041258Y014404D01*
X041258Y014306D02*
X039713Y014306D01*
X039713Y014207D02*
X041258Y014207D01*
X041258Y014109D02*
X039713Y014109D01*
X039713Y014010D02*
X041258Y014010D01*
X041258Y013911D02*
X039713Y013911D01*
X039713Y013813D02*
X041258Y013813D01*
X041258Y013714D02*
X039713Y013714D01*
X039713Y013616D02*
X041258Y013616D01*
X041258Y013517D02*
X039713Y013517D01*
X039713Y013419D02*
X041258Y013419D01*
X041258Y013320D02*
X039713Y013320D01*
X039713Y013222D02*
X041258Y013222D01*
X041258Y013123D02*
X039713Y013123D01*
X039713Y013025D02*
X041258Y013025D01*
X041258Y012926D02*
X039713Y012926D01*
X039713Y012827D02*
X041258Y012827D01*
X041258Y012729D02*
X039713Y012729D01*
X039713Y012630D02*
X041258Y012630D01*
X041258Y012532D02*
X039713Y012532D01*
X039713Y012433D02*
X041258Y012433D01*
X041258Y012335D02*
X039713Y012335D01*
X039713Y012236D02*
X041258Y012236D01*
X041258Y012138D02*
X039713Y012138D01*
X039713Y012039D02*
X041258Y012039D01*
X041258Y011941D02*
X039713Y011941D01*
X039713Y011842D02*
X041258Y011842D01*
X041258Y011743D02*
X039713Y011743D01*
X039713Y011645D02*
X041258Y011645D01*
X041258Y011546D02*
X039713Y011546D01*
X039713Y011448D02*
X041258Y011448D01*
X041258Y011349D02*
X039713Y011349D01*
X039713Y011251D02*
X041258Y011251D01*
X041258Y011152D02*
X039713Y011152D01*
X039713Y011054D02*
X041258Y011054D01*
X041258Y010955D02*
X039713Y010955D01*
X039713Y010857D02*
X041258Y010857D01*
X041258Y010758D02*
X039713Y010758D01*
X039713Y010659D02*
X041258Y010659D01*
X041258Y010561D02*
X039713Y010561D01*
X039713Y010462D02*
X041258Y010462D01*
X041258Y010364D02*
X039713Y010364D01*
X039713Y010265D02*
X041258Y010265D01*
X041258Y010167D02*
X039713Y010167D01*
X039713Y010068D02*
X041258Y010068D01*
X041258Y009970D02*
X039713Y009970D01*
X039713Y009871D02*
X041258Y009871D01*
X041258Y009773D02*
X039713Y009773D01*
X039713Y009674D02*
X041258Y009674D01*
X041258Y009576D02*
X039713Y009576D01*
X039713Y009477D02*
X041258Y009477D01*
X041258Y009378D02*
X039713Y009378D01*
X039713Y009280D02*
X041258Y009280D01*
X041258Y009181D02*
X039713Y009181D01*
X039713Y009083D02*
X041258Y009083D01*
X041258Y008984D02*
X039713Y008984D01*
X039713Y008886D02*
X041258Y008886D01*
X041258Y008787D02*
X039713Y008787D01*
X039713Y008689D02*
X041258Y008689D01*
X041258Y008590D02*
X039713Y008590D01*
X039713Y008492D02*
X041258Y008492D01*
X041258Y008393D02*
X039713Y008393D01*
X039713Y008294D02*
X041258Y008294D01*
X041258Y008196D02*
X039713Y008196D01*
X039713Y008097D02*
X041258Y008097D01*
X041258Y007999D02*
X039713Y007999D01*
X039713Y007900D02*
X041258Y007900D01*
X041258Y007802D02*
X039713Y007802D01*
X039713Y007703D02*
X041258Y007703D01*
X041258Y007605D02*
X039713Y007605D01*
X039713Y007506D02*
X041258Y007506D01*
X041258Y007408D02*
X039713Y007408D01*
X039713Y007309D02*
X041258Y007309D01*
X041258Y007210D02*
X039713Y007210D01*
X039713Y007112D02*
X041258Y007112D01*
X041258Y007013D02*
X039713Y007013D01*
X039713Y006915D02*
X041258Y006915D01*
X041258Y006816D02*
X039713Y006816D01*
X039713Y006718D02*
X041258Y006718D01*
X041258Y006619D02*
X039713Y006619D01*
X039713Y006521D02*
X041258Y006521D01*
X041258Y006422D02*
X039713Y006422D01*
X039713Y006324D02*
X041258Y006324D01*
X041258Y006225D02*
X039713Y006225D01*
X039713Y006126D02*
X041258Y006126D01*
X041258Y006028D02*
X039713Y006028D01*
X039713Y005929D02*
X041258Y005929D01*
X041258Y005831D02*
X039713Y005831D01*
X039713Y005732D02*
X041258Y005732D01*
X041258Y005634D02*
X039713Y005634D01*
X039713Y005535D02*
X041258Y005535D01*
X041258Y005437D02*
X039713Y005437D01*
X039713Y005338D02*
X041258Y005338D01*
X041258Y005240D02*
X039713Y005240D01*
X039713Y005141D02*
X041258Y005141D01*
X041258Y005043D02*
X039713Y005043D01*
X039713Y004944D02*
X041258Y004944D01*
X041258Y004845D02*
X039713Y004845D01*
X039713Y004747D02*
X041258Y004747D01*
X041258Y004648D02*
X039713Y004648D01*
X039713Y004550D02*
X041258Y004550D01*
X041258Y004451D02*
X039713Y004451D01*
X039713Y004353D02*
X041258Y004353D01*
X041258Y004254D02*
X039713Y004254D01*
X039713Y004156D02*
X041258Y004156D01*
X041258Y004057D02*
X039713Y004057D01*
X039713Y003959D02*
X041258Y003959D01*
X041258Y003860D02*
X039713Y003860D01*
X039713Y003761D02*
X041258Y003761D01*
X041258Y003663D02*
X039713Y003663D01*
X039713Y003564D02*
X041258Y003564D01*
X041258Y003466D02*
X039713Y003466D01*
X039713Y003367D02*
X041258Y003367D01*
X041258Y003269D02*
X039713Y003269D01*
X039713Y003170D02*
X041258Y003170D01*
X041258Y003072D02*
X039713Y003072D01*
X039713Y002973D02*
X041258Y002973D01*
X041258Y002875D02*
X039713Y002875D01*
X039713Y002776D02*
X041258Y002776D01*
X041258Y002677D02*
X040713Y002677D01*
X040964Y002579D02*
X041258Y002579D01*
X041258Y002480D02*
X041126Y002480D01*
X041224Y002382D02*
X041258Y002382D01*
X040163Y002677D02*
X039713Y002677D01*
X039713Y002579D02*
X039912Y002579D01*
X039751Y002480D02*
X039713Y002480D01*
X032788Y017562D02*
X032218Y017562D01*
X032218Y018062D02*
X032888Y018062D01*
X033138Y017812D01*
X033138Y018412D02*
X032988Y018562D01*
X032218Y018562D01*
X033338Y021812D02*
X033088Y022062D01*
X032218Y022062D01*
X032268Y022512D02*
X032218Y022562D01*
X032268Y022512D02*
X033338Y022512D01*
X033288Y023062D02*
X033338Y023112D01*
X033288Y023062D02*
X032218Y023062D01*
X032218Y023562D02*
X033088Y023562D01*
X033338Y023812D01*
X013408Y002579D02*
X013048Y002579D01*
X013048Y002480D02*
X013328Y002480D01*
X013328Y002382D02*
X013048Y002382D01*
X013048Y002283D02*
X013328Y002283D01*
X013328Y002185D02*
X013048Y002185D01*
X013048Y002086D02*
X013328Y002086D01*
X013328Y001988D02*
X013048Y001988D01*
X013048Y001889D02*
X013328Y001889D01*
X013328Y001791D02*
X013048Y001791D01*
X013048Y001692D02*
X013328Y001692D01*
X013328Y001594D02*
X013048Y001594D01*
X013048Y001495D02*
X013328Y001495D01*
X013328Y001396D02*
X013048Y001396D01*
X013048Y001298D02*
X013328Y001298D01*
X013328Y001199D02*
X013048Y001199D01*
X013048Y001101D02*
X013328Y001101D01*
X013328Y001002D02*
X013048Y001002D01*
X007538Y001312D02*
X007538Y001412D01*
X005138Y008812D02*
X005138Y011912D01*
X005758Y012532D01*
X006538Y012532D01*
X006538Y011452D02*
X005878Y011452D01*
X005638Y011212D01*
D32*
X010038Y010012D02*
X010038Y009832D01*
M02*
