%
M48
M72
T01C0.0280
T02C0.0315
T03C0.0320
T04C0.0400
T05C0.0433
T06C0.0520
T07C0.0600
T08C0.0669
T09C0.1300
%
T01
X5238Y1212
X3338Y4312
X7588Y4152
X9438Y3512
X11838Y3812
X14638Y3212
X18438Y6612
X19438Y5112
X19438Y4212
X23338Y4912
X23238Y2512
X16338Y8812
X17538Y9612
X18338Y9212
X17338Y10712
X19038Y11912
X19038Y13312
X17538Y14512
X18038Y15112
X16538Y14512
X15738Y14512
X14838Y14512
X14938Y16012
X13638Y16012
X12938Y17812
X10638Y17812
X11338Y15612
X11338Y14212
X13238Y13312
X11938Y12212
X10038Y12212
X10038Y10012
X11238Y8312
X9738Y8212
X10438Y7012
X11938Y7012
X14438Y8812
X13838Y10312
X13838Y11112
X16538Y16012
X18838Y17312
X19638Y17312
X19238Y18512
X23438Y18912
X24838Y20512
X23538Y22212
X25738Y24312
X23338Y25112
X23338Y26712
X27538Y29112
X31938Y25112
X33338Y23812
X33338Y23112
X33338Y22512
X33338Y21812
X35938Y24112
X40238Y26012
X37338Y29112
X40238Y21412
X40238Y15712
X35438Y13512
X33438Y15012
X31538Y13912
X33138Y17212
X33138Y17812
X33138Y18412
X33138Y19012
X27238Y14212
X26938Y16912
X23438Y17512
X23438Y15312
X23138Y10112
X10238Y21112
X8038Y23012
X8538Y24812
X5638Y23612
X5438Y20212
X3238Y17712
X8248Y17792
X15538Y24612
X14338Y26512
X13238Y25612
X18138Y24712
X18838Y26612
X18238Y29312
X11138Y30412
X9138Y30412
X40238Y10412
X40238Y4412
T02
X38538Y4212
X37538Y4212
X37538Y3212
X38538Y3212
X38538Y2212
X37538Y2212
X37538Y1212
X38538Y1212
X38538Y5212
X37538Y5212
X37538Y6212
X38538Y6212
X38538Y7212
X37538Y7212
X37538Y8212
X38538Y8212
X38538Y9212
X37538Y9212
X37538Y10212
X38538Y10212
X38538Y11212
X37538Y11212
X37538Y12212
X38538Y12212
X38538Y13212
X37538Y13212
X37538Y14212
X38538Y14212
X38538Y15212
X37538Y15212
X37538Y16212
X38538Y16212
X38538Y17212
X37538Y17212
X37538Y18212
X38538Y18212
X38538Y19212
X37538Y19212
X37538Y20212
X38538Y20212
X38538Y21212
X37538Y21212
X37538Y22212
X38538Y22212
X38538Y23212
X37538Y23212
X37538Y24212
X38538Y24212
X38538Y25212
X37538Y25212
X21538Y25212
X20538Y25212
X20538Y24212
X21538Y24212
X21538Y23212
X20538Y23212
X20538Y22212
X21538Y22212
X21538Y21212
X20538Y21212
X20538Y20212
X21538Y20212
X21538Y19212
X21538Y18212
X20538Y18212
X20538Y19212
X20538Y17212
X21538Y17212
X21538Y16212
X20538Y16212
X20538Y15212
X21538Y15212
X21538Y14212
X20538Y14212
X20538Y13212
X21538Y13212
X21538Y12212
X20538Y12212
X20538Y11212
X21538Y11212
X21538Y10212
X20538Y10212
X20538Y9212
X21538Y9212
X21538Y8212
X20538Y8212
X20538Y7212
X20538Y6212
X21538Y6212
X21538Y7212
X21538Y5212
X20538Y5212
X20538Y4212
X21538Y4212
X21538Y3212
X20538Y3212
X20538Y2212
X21538Y2212
X21538Y1212
X20538Y1212
T03
X12138Y5012
X11388Y5512
X12138Y6012
X12138Y9112
X11388Y9612
X12138Y10112
X24638Y28612
X24638Y29612
T04
X30278Y26812
X31358Y26812
X30818Y27812
X31898Y27812
X32978Y27812
X32438Y26812
X33518Y26812
X34598Y26812
X34058Y27812
X32538Y15762
X31538Y15662
X30538Y15762
X29538Y15662
X28538Y15762
X27538Y15662
X26538Y15762
X18938Y1612
X17938Y1712
X16938Y1612
X15938Y1712
X14938Y1612
X13938Y1712
X12338Y1412
X11338Y1412
X10338Y1412
X8538Y1412
X7538Y1412
X6538Y1412
X7538Y8752
X6538Y9292
X7538Y9832
X6538Y10372
X7538Y10912
X6538Y11452
X7538Y11992
X6538Y12532
X7538Y13072
X3438Y19012
X3438Y20012
X3438Y21012
X3438Y22012
X3438Y23012
X3438Y24012
T05
X9838Y23712
X9838Y26712
T06
X14138Y29312
X16138Y29312
X20338Y29312
X22338Y29312
T07
X7838Y28712
X7838Y28712
X7838Y27112
X7838Y27112
X7838Y30312
X7838Y30312
T08
X4438Y28092
X4438Y26533
T09
X3638Y1612
X7038Y5982
X7038Y15842
X3638Y30512
X27508Y27312
X37368Y27312
X40438Y30512
X40438Y1612
M30
