%
M48
M72
T01C0.0200
T02C0.0280
T03C0.0350
T06C0.0520
T07C0.0600
T09C0.1250
T10C0.1520
%
T01
X13781Y20992
X15431Y19392
X17581Y17342
X18331Y17092
X18881Y17092
X19381Y17092
X20031Y17092
X20581Y17042
X21281Y17042
X21881Y17042
X22481Y16892
X22881Y17792
X22481Y18292
X22031Y18692
X21581Y19142
X21031Y19542
X20631Y19942
X20281Y20392
X19881Y20792
X19381Y21242
X18931Y21742
X18581Y22242
X6481Y39042
X6031Y39392
X5631Y39792
X5231Y40192
X4931Y40592
X4631Y40942
X4281Y41292
X3931Y41592
X3581Y41942
X3281Y42292
X3031Y41142
X3331Y40292
X3681Y39542
X3881Y38692
X4231Y37892
X4581Y37092
X4931Y36342
X5431Y35192
X5881Y34142
X6281Y33192
X5831Y32242
X22981Y36542
X24081Y34542
X26581Y41842
X26981Y41242
X27281Y40142
X27481Y39442
X27781Y38642
X28381Y38342
X28081Y37742
X29581Y35242
X30781Y32042
X32281Y32642
X28081Y42942
X27181Y44042
X27181Y44842
X26781Y45542
X26581Y44442
X26481Y43642
X26281Y42642
X28081Y46142
X28581Y46742
X27681Y47642
X27281Y48142
X27781Y48742
X27481Y50342
X27781Y51142
X28181Y51342
X28381Y52642
X28781Y52842
X28981Y53542
X29581Y53542
X30081Y52942
X29281Y54342
X29681Y55242
X30181Y49642
X29881Y48642
X28581Y48642
X30181Y45142
X26881Y47342
X26281Y46942
X23281Y50142
X33881Y58942
X30781Y22442
T02
X34981Y73692
X33181Y75292
X34031Y79142
T03
X31281Y57822
X31281Y56822
X31281Y55822
X31281Y54822
X31281Y53822
X31281Y52822
X31281Y51822
X31281Y50822
X31281Y49822
X31281Y48822
X31281Y47822
X31281Y46822
X31281Y45822
X31281Y44822
X31281Y43822
X31281Y42822
X31281Y41822
X31281Y40822
X31281Y39822
X31281Y38822
X31281Y37822
X31281Y36822
X31281Y35822
X31281Y34822
X31281Y33822
X32281Y33822
X32281Y34822
X32281Y35822
X32281Y36822
X32281Y37822
X32281Y38822
X32281Y39822
X32281Y40822
X32281Y41822
X32281Y42822
X32281Y43822
X32281Y44822
X32281Y45822
X32281Y46822
X32281Y47822
X32281Y48822
X32281Y49822
X32281Y50822
X32281Y51822
X32281Y52822
X32281Y53822
X32281Y54822
X32281Y55822
X32281Y56822
X32281Y57822
X33831Y57796
X33831Y56796
X33831Y55796
X33831Y54796
X33831Y53796
X33831Y52796
X33831Y51796
X33831Y50796
X33831Y49796
X33831Y48796
X33831Y47796
X33831Y46796
X33831Y45796
X33831Y44796
X33831Y43796
X33831Y42796
X33831Y41796
X33831Y40796
X33831Y39796
X33831Y38796
X33831Y37796
X33831Y36796
X33831Y35796
X33831Y34796
X33831Y33796
X34831Y33796
X34831Y34796
X34831Y35796
X34831Y36796
X34831Y37796
X34831Y38796
X34831Y39796
X34831Y40796
X34831Y41796
X34831Y42796
X34831Y43796
X34831Y44796
X34831Y45796
X34831Y46796
X34831Y47796
X34831Y48796
X34831Y49796
X34831Y50796
X34831Y51796
X34831Y52796
X34831Y53796
X34831Y54796
X34831Y55796
X34831Y56796
X34831Y57796
X15755Y44740
X15755Y43740
X15733Y41873
X15733Y38873
T06
X14769Y31816
X15476Y31109
X16183Y30402
X16890Y29695
X17598Y28987
X18305Y28280
X19012Y27573
X19719Y26866
X20426Y26159
X21133Y25452
X21840Y24745
X22547Y24038
X23264Y23321
X23961Y22623
X24669Y21916
X25376Y21209
X26083Y20502
X26790Y19795
X27497Y19088
X28204Y18381
X28911Y17674
X29618Y16967
X30325Y16259
X31033Y15552
X31740Y14845
X32447Y16967
X31740Y17674
X31033Y18381
X30325Y19088
X29618Y19795
X28911Y20502
X28204Y21209
X27497Y21916
X26790Y22623
X26083Y23331
X25376Y24038
X24669Y24745
X23961Y25452
X23254Y26159
X22547Y26866
X21840Y27573
X21133Y28280
X20426Y28987
X19719Y29695
X19012Y30402
X18305Y31109
X17598Y31816
X16890Y32523
X16183Y33230
X16202Y56873
X16909Y57580
X17616Y58287
X18324Y58994
X19031Y59701
X19738Y60408
X20445Y61115
X21152Y61822
X21859Y62529
X22566Y63237
X23273Y63944
X23980Y64651
X24687Y65358
X25395Y66065
X26102Y66772
X26809Y67479
X27516Y68186
X28223Y68893
X28930Y69600
X29637Y70308
X30344Y71015
X31051Y71722
X31759Y72429
X32466Y73136
X33173Y73843
X31759Y75257
X31051Y74550
X30344Y73843
X29637Y73136
X28930Y72429
X28223Y71722
X27516Y71015
X26809Y70308
X26102Y69600
X25395Y68893
X24687Y68186
X23980Y67479
X23264Y66763
X22566Y66065
X21859Y65358
X21152Y64651
X20445Y63944
X19738Y63237
X19031Y62529
X18324Y61822
X17616Y61115
X16909Y60408
X16202Y59701
X15495Y58994
X14788Y58287
X33154Y16259
T07
X21654Y39239
X21654Y40892
X21654Y42546
X21654Y44199
X21654Y45853
X21654Y47506
X21654Y49160
X21654Y50814
X21654Y52467
X19489Y52467
X19489Y50814
X19489Y49160
X19489Y47506
X19489Y45853
X19489Y44199
X19489Y42546
X19489Y40892
X19489Y39239
X19489Y37585
X21654Y37585
X15681Y48042
X15681Y48042
X15681Y49807
X15681Y49807
X15681Y51572
X15681Y51572
T09
X19670Y54317
X19670Y35735
T10
X12631Y39042
X32681Y30042
X37181Y11042
X32681Y60042
X37181Y79042
X12631Y51042
M30
