G75*
G70*
%OFA0B0*%
%FSLAX24Y24*%
%IPPOS*%
%LPD*%
%AMOC8*
5,1,8,0,0,1.08239X$1,22.5*
%
%ADD10C,0.1600*%
%ADD11R,0.0907X0.0907*%
%ADD12C,0.1261*%
%ADD13R,0.0789X0.0789*%
%ADD14R,0.0595X0.0595*%
%ADD15C,0.0595*%
%ADD16OC8,0.0600*%
%ADD17C,0.0680*%
%ADD18R,0.0980X0.0980*%
%ADD19C,0.0980*%
%ADD20C,0.0430*%
%ADD21C,0.0437*%
%ADD22C,0.0476*%
%ADD23R,0.0476X0.0476*%
D10*
X012631Y039042D03*
X012631Y051042D03*
X032681Y060042D03*
X037181Y079042D03*
X032681Y030042D03*
X037181Y011042D03*
D11*
X021654Y037585D03*
X021654Y039239D03*
X021654Y040892D03*
X021654Y042546D03*
X021654Y044199D03*
X021654Y045853D03*
X021654Y047506D03*
X021654Y049160D03*
X021654Y050814D03*
X021654Y052467D03*
X019489Y052467D03*
X019489Y050814D03*
X019489Y049160D03*
X019489Y047506D03*
X019489Y045853D03*
X019489Y044199D03*
X019489Y042546D03*
X019489Y040892D03*
X019489Y039239D03*
X019489Y037585D03*
D12*
X019670Y035735D03*
X019670Y054317D03*
D13*
G36*
X017059Y058287D02*
X017616Y058844D01*
X018173Y058287D01*
X017616Y057730D01*
X017059Y058287D01*
G37*
G36*
X016352Y057580D02*
X016909Y058137D01*
X017466Y057580D01*
X016909Y057023D01*
X016352Y057580D01*
G37*
G36*
X015645Y056873D02*
X016202Y057430D01*
X016759Y056873D01*
X016202Y056316D01*
X015645Y056873D01*
G37*
G36*
X014231Y058287D02*
X014788Y058844D01*
X015345Y058287D01*
X014788Y057730D01*
X014231Y058287D01*
G37*
G36*
X014938Y058994D02*
X015495Y059551D01*
X016052Y058994D01*
X015495Y058437D01*
X014938Y058994D01*
G37*
G36*
X015645Y059701D02*
X016202Y060258D01*
X016759Y059701D01*
X016202Y059144D01*
X015645Y059701D01*
G37*
G36*
X016352Y060408D02*
X016909Y060965D01*
X017466Y060408D01*
X016909Y059851D01*
X016352Y060408D01*
G37*
G36*
X017059Y061115D02*
X017616Y061672D01*
X018173Y061115D01*
X017616Y060558D01*
X017059Y061115D01*
G37*
G36*
X017767Y061822D02*
X018324Y062379D01*
X018881Y061822D01*
X018324Y061265D01*
X017767Y061822D01*
G37*
G36*
X018474Y062529D02*
X019031Y063086D01*
X019588Y062529D01*
X019031Y061972D01*
X018474Y062529D01*
G37*
G36*
X019181Y063237D02*
X019738Y063794D01*
X020295Y063237D01*
X019738Y062680D01*
X019181Y063237D01*
G37*
G36*
X019888Y063944D02*
X020445Y064501D01*
X021002Y063944D01*
X020445Y063387D01*
X019888Y063944D01*
G37*
G36*
X020595Y064651D02*
X021152Y065208D01*
X021709Y064651D01*
X021152Y064094D01*
X020595Y064651D01*
G37*
G36*
X021302Y065358D02*
X021859Y065915D01*
X022416Y065358D01*
X021859Y064801D01*
X021302Y065358D01*
G37*
G36*
X022009Y066065D02*
X022566Y066622D01*
X023123Y066065D01*
X022566Y065508D01*
X022009Y066065D01*
G37*
G36*
X022707Y066763D02*
X023264Y067320D01*
X023821Y066763D01*
X023264Y066206D01*
X022707Y066763D01*
G37*
G36*
X023423Y067479D02*
X023980Y068036D01*
X024537Y067479D01*
X023980Y066922D01*
X023423Y067479D01*
G37*
G36*
X024130Y068186D02*
X024687Y068743D01*
X025244Y068186D01*
X024687Y067629D01*
X024130Y068186D01*
G37*
G36*
X024838Y068893D02*
X025395Y069450D01*
X025952Y068893D01*
X025395Y068336D01*
X024838Y068893D01*
G37*
G36*
X025545Y069600D02*
X026102Y070157D01*
X026659Y069600D01*
X026102Y069043D01*
X025545Y069600D01*
G37*
G36*
X026252Y070308D02*
X026809Y070865D01*
X027366Y070308D01*
X026809Y069751D01*
X026252Y070308D01*
G37*
G36*
X026959Y071015D02*
X027516Y071572D01*
X028073Y071015D01*
X027516Y070458D01*
X026959Y071015D01*
G37*
G36*
X027666Y071722D02*
X028223Y072279D01*
X028780Y071722D01*
X028223Y071165D01*
X027666Y071722D01*
G37*
G36*
X028373Y072429D02*
X028930Y072986D01*
X029487Y072429D01*
X028930Y071872D01*
X028373Y072429D01*
G37*
G36*
X029080Y073136D02*
X029637Y073693D01*
X030194Y073136D01*
X029637Y072579D01*
X029080Y073136D01*
G37*
G36*
X029787Y073843D02*
X030344Y074400D01*
X030901Y073843D01*
X030344Y073286D01*
X029787Y073843D01*
G37*
G36*
X030494Y074550D02*
X031051Y075107D01*
X031608Y074550D01*
X031051Y073993D01*
X030494Y074550D01*
G37*
G36*
X031202Y075257D02*
X031759Y075814D01*
X032316Y075257D01*
X031759Y074700D01*
X031202Y075257D01*
G37*
G36*
X031909Y073136D02*
X032466Y073693D01*
X033023Y073136D01*
X032466Y072579D01*
X031909Y073136D01*
G37*
G36*
X031202Y072429D02*
X031759Y072986D01*
X032316Y072429D01*
X031759Y071872D01*
X031202Y072429D01*
G37*
G36*
X030494Y071722D02*
X031051Y072279D01*
X031608Y071722D01*
X031051Y071165D01*
X030494Y071722D01*
G37*
G36*
X029787Y071015D02*
X030344Y071572D01*
X030901Y071015D01*
X030344Y070458D01*
X029787Y071015D01*
G37*
G36*
X029080Y070308D02*
X029637Y070865D01*
X030194Y070308D01*
X029637Y069751D01*
X029080Y070308D01*
G37*
G36*
X028373Y069600D02*
X028930Y070157D01*
X029487Y069600D01*
X028930Y069043D01*
X028373Y069600D01*
G37*
G36*
X027666Y068893D02*
X028223Y069450D01*
X028780Y068893D01*
X028223Y068336D01*
X027666Y068893D01*
G37*
G36*
X026959Y068186D02*
X027516Y068743D01*
X028073Y068186D01*
X027516Y067629D01*
X026959Y068186D01*
G37*
G36*
X026252Y067479D02*
X026809Y068036D01*
X027366Y067479D01*
X026809Y066922D01*
X026252Y067479D01*
G37*
G36*
X025545Y066772D02*
X026102Y067329D01*
X026659Y066772D01*
X026102Y066215D01*
X025545Y066772D01*
G37*
G36*
X024838Y066065D02*
X025395Y066622D01*
X025952Y066065D01*
X025395Y065508D01*
X024838Y066065D01*
G37*
G36*
X024130Y065358D02*
X024687Y065915D01*
X025244Y065358D01*
X024687Y064801D01*
X024130Y065358D01*
G37*
G36*
X023423Y064651D02*
X023980Y065208D01*
X024537Y064651D01*
X023980Y064094D01*
X023423Y064651D01*
G37*
G36*
X022716Y063944D02*
X023273Y064501D01*
X023830Y063944D01*
X023273Y063387D01*
X022716Y063944D01*
G37*
G36*
X022009Y063237D02*
X022566Y063794D01*
X023123Y063237D01*
X022566Y062680D01*
X022009Y063237D01*
G37*
G36*
X021302Y062529D02*
X021859Y063086D01*
X022416Y062529D01*
X021859Y061972D01*
X021302Y062529D01*
G37*
G36*
X020595Y061822D02*
X021152Y062379D01*
X021709Y061822D01*
X021152Y061265D01*
X020595Y061822D01*
G37*
G36*
X019888Y061115D02*
X020445Y061672D01*
X021002Y061115D01*
X020445Y060558D01*
X019888Y061115D01*
G37*
G36*
X019181Y060408D02*
X019738Y060965D01*
X020295Y060408D01*
X019738Y059851D01*
X019181Y060408D01*
G37*
G36*
X018474Y059701D02*
X019031Y060258D01*
X019588Y059701D01*
X019031Y059144D01*
X018474Y059701D01*
G37*
G36*
X017767Y058994D02*
X018324Y059551D01*
X018881Y058994D01*
X018324Y058437D01*
X017767Y058994D01*
G37*
G36*
X016183Y032673D02*
X015626Y033230D01*
X016183Y033787D01*
X016740Y033230D01*
X016183Y032673D01*
G37*
G36*
X016890Y031966D02*
X016333Y032523D01*
X016890Y033080D01*
X017447Y032523D01*
X016890Y031966D01*
G37*
G36*
X017598Y031259D02*
X017041Y031816D01*
X017598Y032373D01*
X018155Y031816D01*
X017598Y031259D01*
G37*
G36*
X018305Y030552D02*
X017748Y031109D01*
X018305Y031666D01*
X018862Y031109D01*
X018305Y030552D01*
G37*
G36*
X019012Y029845D02*
X018455Y030402D01*
X019012Y030959D01*
X019569Y030402D01*
X019012Y029845D01*
G37*
G36*
X019719Y029138D02*
X019162Y029695D01*
X019719Y030252D01*
X020276Y029695D01*
X019719Y029138D01*
G37*
G36*
X020426Y028430D02*
X019869Y028987D01*
X020426Y029544D01*
X020983Y028987D01*
X020426Y028430D01*
G37*
G36*
X021133Y027723D02*
X020576Y028280D01*
X021133Y028837D01*
X021690Y028280D01*
X021133Y027723D01*
G37*
G36*
X020426Y025602D02*
X019869Y026159D01*
X020426Y026716D01*
X020983Y026159D01*
X020426Y025602D01*
G37*
G36*
X021133Y024895D02*
X020576Y025452D01*
X021133Y026009D01*
X021690Y025452D01*
X021133Y024895D01*
G37*
G36*
X021840Y024188D02*
X021283Y024745D01*
X021840Y025302D01*
X022397Y024745D01*
X021840Y024188D01*
G37*
G36*
X022547Y023481D02*
X021990Y024038D01*
X022547Y024595D01*
X023104Y024038D01*
X022547Y023481D01*
G37*
G36*
X023264Y022764D02*
X022707Y023321D01*
X023264Y023878D01*
X023821Y023321D01*
X023264Y022764D01*
G37*
G36*
X023961Y022066D02*
X023404Y022623D01*
X023961Y023180D01*
X024518Y022623D01*
X023961Y022066D01*
G37*
G36*
X024669Y021359D02*
X024112Y021916D01*
X024669Y022473D01*
X025226Y021916D01*
X024669Y021359D01*
G37*
G36*
X025376Y020652D02*
X024819Y021209D01*
X025376Y021766D01*
X025933Y021209D01*
X025376Y020652D01*
G37*
G36*
X026083Y019945D02*
X025526Y020502D01*
X026083Y021059D01*
X026640Y020502D01*
X026083Y019945D01*
G37*
G36*
X026790Y019238D02*
X026233Y019795D01*
X026790Y020352D01*
X027347Y019795D01*
X026790Y019238D01*
G37*
G36*
X027497Y018531D02*
X026940Y019088D01*
X027497Y019645D01*
X028054Y019088D01*
X027497Y018531D01*
G37*
G36*
X028204Y017824D02*
X027647Y018381D01*
X028204Y018938D01*
X028761Y018381D01*
X028204Y017824D01*
G37*
G36*
X028911Y017117D02*
X028354Y017674D01*
X028911Y018231D01*
X029468Y017674D01*
X028911Y017117D01*
G37*
G36*
X029618Y016410D02*
X029061Y016967D01*
X029618Y017524D01*
X030175Y016967D01*
X029618Y016410D01*
G37*
G36*
X030325Y015702D02*
X029768Y016259D01*
X030325Y016816D01*
X030882Y016259D01*
X030325Y015702D01*
G37*
G36*
X031033Y014995D02*
X030476Y015552D01*
X031033Y016109D01*
X031590Y015552D01*
X031033Y014995D01*
G37*
G36*
X031740Y014288D02*
X031183Y014845D01*
X031740Y015402D01*
X032297Y014845D01*
X031740Y014288D01*
G37*
G36*
X033154Y015702D02*
X032597Y016259D01*
X033154Y016816D01*
X033711Y016259D01*
X033154Y015702D01*
G37*
G36*
X032447Y016410D02*
X031890Y016967D01*
X032447Y017524D01*
X033004Y016967D01*
X032447Y016410D01*
G37*
G36*
X031740Y017117D02*
X031183Y017674D01*
X031740Y018231D01*
X032297Y017674D01*
X031740Y017117D01*
G37*
G36*
X031033Y017824D02*
X030476Y018381D01*
X031033Y018938D01*
X031590Y018381D01*
X031033Y017824D01*
G37*
G36*
X030325Y018531D02*
X029768Y019088D01*
X030325Y019645D01*
X030882Y019088D01*
X030325Y018531D01*
G37*
G36*
X029618Y019238D02*
X029061Y019795D01*
X029618Y020352D01*
X030175Y019795D01*
X029618Y019238D01*
G37*
G36*
X028911Y019945D02*
X028354Y020502D01*
X028911Y021059D01*
X029468Y020502D01*
X028911Y019945D01*
G37*
G36*
X028204Y020652D02*
X027647Y021209D01*
X028204Y021766D01*
X028761Y021209D01*
X028204Y020652D01*
G37*
G36*
X027497Y021359D02*
X026940Y021916D01*
X027497Y022473D01*
X028054Y021916D01*
X027497Y021359D01*
G37*
G36*
X026790Y022066D02*
X026233Y022623D01*
X026790Y023180D01*
X027347Y022623D01*
X026790Y022066D01*
G37*
G36*
X026083Y022774D02*
X025526Y023331D01*
X026083Y023888D01*
X026640Y023331D01*
X026083Y022774D01*
G37*
G36*
X025376Y023481D02*
X024819Y024038D01*
X025376Y024595D01*
X025933Y024038D01*
X025376Y023481D01*
G37*
G36*
X024669Y024188D02*
X024112Y024745D01*
X024669Y025302D01*
X025226Y024745D01*
X024669Y024188D01*
G37*
G36*
X023961Y024895D02*
X023404Y025452D01*
X023961Y026009D01*
X024518Y025452D01*
X023961Y024895D01*
G37*
G36*
X023254Y025602D02*
X022697Y026159D01*
X023254Y026716D01*
X023811Y026159D01*
X023254Y025602D01*
G37*
G36*
X022547Y026309D02*
X021990Y026866D01*
X022547Y027423D01*
X023104Y026866D01*
X022547Y026309D01*
G37*
G36*
X021840Y027016D02*
X021283Y027573D01*
X021840Y028130D01*
X022397Y027573D01*
X021840Y027016D01*
G37*
G36*
X019719Y026309D02*
X019162Y026866D01*
X019719Y027423D01*
X020276Y026866D01*
X019719Y026309D01*
G37*
G36*
X019012Y027016D02*
X018455Y027573D01*
X019012Y028130D01*
X019569Y027573D01*
X019012Y027016D01*
G37*
G36*
X018305Y027723D02*
X017748Y028280D01*
X018305Y028837D01*
X018862Y028280D01*
X018305Y027723D01*
G37*
G36*
X017598Y028430D02*
X017041Y028987D01*
X017598Y029544D01*
X018155Y028987D01*
X017598Y028430D01*
G37*
G36*
X016890Y029138D02*
X016333Y029695D01*
X016890Y030252D01*
X017447Y029695D01*
X016890Y029138D01*
G37*
G36*
X016183Y029845D02*
X015626Y030402D01*
X016183Y030959D01*
X016740Y030402D01*
X016183Y029845D01*
G37*
G36*
X015476Y030552D02*
X014919Y031109D01*
X015476Y031666D01*
X016033Y031109D01*
X015476Y030552D01*
G37*
G36*
X014769Y031259D02*
X014212Y031816D01*
X014769Y032373D01*
X015326Y031816D01*
X014769Y031259D01*
G37*
G36*
X032616Y073843D02*
X033173Y074400D01*
X033730Y073843D01*
X033173Y073286D01*
X032616Y073843D01*
G37*
D14*
X032281Y033822D03*
X034831Y033796D03*
D15*
X034831Y034796D03*
X034831Y035796D03*
X034831Y036796D03*
X034831Y037796D03*
X034831Y038796D03*
X034831Y039796D03*
X034831Y040796D03*
X034831Y041796D03*
X034831Y042796D03*
X034831Y043796D03*
X034831Y044796D03*
X034831Y045796D03*
X034831Y046796D03*
X034831Y047796D03*
X034831Y048796D03*
X034831Y049796D03*
X034831Y050796D03*
X034831Y051796D03*
X034831Y052796D03*
X034831Y053796D03*
X034831Y054796D03*
X034831Y055796D03*
X034831Y056796D03*
X034831Y057796D03*
X033831Y057796D03*
X033831Y056796D03*
X033831Y055796D03*
X033831Y054796D03*
X033831Y053796D03*
X033831Y052796D03*
X033831Y051796D03*
X033831Y050796D03*
X033831Y049796D03*
X033831Y048796D03*
X033831Y047796D03*
X033831Y046796D03*
X033831Y045796D03*
X033831Y044796D03*
X033831Y043796D03*
X033831Y042796D03*
X033831Y041796D03*
X033831Y040796D03*
X033831Y039796D03*
X033831Y038796D03*
X033831Y037796D03*
X033831Y036796D03*
X033831Y035796D03*
X033831Y034796D03*
X033831Y033796D03*
X032281Y034822D03*
X032281Y035822D03*
X032281Y036822D03*
X032281Y037822D03*
X031281Y037822D03*
X031281Y036822D03*
X031281Y035822D03*
X031281Y034822D03*
X031281Y033822D03*
X031281Y038822D03*
X031281Y039822D03*
X031281Y040822D03*
X031281Y041822D03*
X031281Y042822D03*
X031281Y043822D03*
X031281Y044822D03*
X031281Y045822D03*
X031281Y046822D03*
X031281Y047822D03*
X031281Y048822D03*
X031281Y049822D03*
X031281Y050822D03*
X031281Y051822D03*
X031281Y052822D03*
X031281Y053822D03*
X031281Y054822D03*
X031281Y055822D03*
X031281Y056822D03*
X031281Y057822D03*
X032281Y057822D03*
X032281Y056822D03*
X032281Y055822D03*
X032281Y054822D03*
X032281Y053822D03*
X032281Y052822D03*
X032281Y051822D03*
X032281Y050822D03*
X032281Y049822D03*
X032281Y048822D03*
X032281Y047822D03*
X032281Y046822D03*
X032281Y045822D03*
X032281Y044822D03*
X032281Y043822D03*
X032281Y042822D03*
X032281Y041822D03*
X032281Y040822D03*
X032281Y039822D03*
X032281Y038822D03*
D16*
X015733Y038873D03*
X015733Y041873D03*
X015755Y043740D03*
X015755Y044740D03*
D17*
X015681Y048042D03*
X015681Y049807D03*
X015681Y051572D03*
D18*
X015681Y048042D03*
D19*
X015681Y049807D03*
X015681Y051572D03*
D20*
X023281Y050142D03*
X026281Y046942D03*
X026881Y047342D03*
X027281Y048142D03*
X027681Y047642D03*
X028081Y046142D03*
X028581Y046742D03*
X028581Y048642D03*
X027781Y048742D03*
X027481Y050342D03*
X027781Y051142D03*
X028181Y051342D03*
X028381Y052642D03*
X028781Y052842D03*
X028981Y053542D03*
X029581Y053542D03*
X030081Y052942D03*
X029281Y054342D03*
X029681Y055242D03*
X030181Y049642D03*
X029881Y048642D03*
X030181Y045142D03*
X028081Y042942D03*
X027181Y044042D03*
X027181Y044842D03*
X026781Y045542D03*
X026581Y044442D03*
X026481Y043642D03*
X026281Y042642D03*
X026581Y041842D03*
X026981Y041242D03*
X027281Y040142D03*
X027481Y039442D03*
X027781Y038642D03*
X028381Y038342D03*
X028081Y037742D03*
X029581Y035242D03*
X030781Y032042D03*
X032281Y032642D03*
X030781Y022442D03*
X024081Y034542D03*
X033881Y058942D03*
X005831Y032242D03*
D21*
X013781Y020992D03*
X015431Y019392D03*
X017581Y017342D03*
X018331Y017092D03*
X018881Y017092D03*
X019381Y017092D03*
X020031Y017092D03*
X020581Y017042D03*
X021281Y017042D03*
X021881Y017042D03*
X022481Y016892D03*
X022881Y017792D03*
X022481Y018292D03*
X022031Y018692D03*
X021581Y019142D03*
X021031Y019542D03*
X020631Y019942D03*
X020281Y020392D03*
X019881Y020792D03*
X019381Y021242D03*
X018931Y021742D03*
X018581Y022242D03*
X022981Y036542D03*
X006481Y039042D03*
X006031Y039392D03*
X005631Y039792D03*
X005231Y040192D03*
X004931Y040592D03*
X004631Y040942D03*
X004281Y041292D03*
X003931Y041592D03*
X003581Y041942D03*
X003281Y042292D03*
X003031Y041142D03*
X003331Y040292D03*
X003681Y039542D03*
X003881Y038692D03*
X004231Y037892D03*
X004581Y037092D03*
X004931Y036342D03*
X005431Y035192D03*
X005881Y034142D03*
X006281Y033192D03*
D22*
X034031Y079142D03*
D23*
X033181Y075292D03*
X034981Y073692D03*
M02*
