%
M48
M72
T01C0.0320
T02C0.0350
T03C0.0400
T04C0.0420
T05C0.0520
T06C0.0600
T07C0.1250
T08C0.1520
%
T01
X54101Y11601
X55101Y11601
X58101Y12601
X58101Y9601
T02
X2601Y1624
X2601Y4577
X2601Y20624
X2601Y23577
X52601Y23577
X52601Y20624
X57601Y6561
X52601Y4577
X52601Y1624
X57601Y1640
T03
X55601Y8601
X54601Y8601
X53601Y8601
T04
X9601Y24601
X9601Y25601
X9601Y26601
X6601Y26601
X6601Y25601
X6601Y24601
T05
X13101Y25101
X13101Y26101
X14601Y26101
X16101Y26101
X17601Y26101
X19101Y26101
X20601Y26101
X20601Y25101
X19101Y25101
X17601Y25101
X16101Y25101
X14601Y25101
X14601Y24101
X16101Y24101
X17601Y24101
X19101Y24101
X20601Y24101
X22101Y24101
X23601Y24101
X25101Y24101
X26601Y24101
X28101Y24101
X29601Y24101
X31101Y24101
X32601Y24101
X34101Y24101
X34101Y25101
X34101Y26101
X32601Y26101
X31101Y26101
X31101Y25101
X32601Y25101
X29601Y25101
X28101Y25101
X28101Y26101
X29601Y26101
X29601Y27101
X28101Y27101
X26601Y27101
X25101Y27101
X23601Y27101
X22101Y27101
X20601Y27101
X19101Y27101
X17601Y27101
X16101Y27101
X14601Y27101
X13101Y27101
X13101Y24101
X22101Y25101
X23601Y25101
X23601Y26101
X22101Y26101
X25101Y26101
X26601Y26101
X26601Y25101
X25101Y25101
X31101Y27101
X32601Y27101
X34101Y27101
T06
X52101Y18101
X52101Y14996
T07
X45601Y22101
X27601Y22101
X9601Y22101
X9601Y2101
X27601Y2101
X45601Y2101
T08
X48601Y5101
X48601Y9101
X48601Y15101
X48601Y19101
X6601Y19101
X6601Y15101
X6601Y12101
X6601Y9101
X6601Y5101
M30
