G75*
G70*
%OFA0B0*%
%FSLAX24Y24*%
%IPPOS*%
%LPD*%
%AMOC8*
5,1,8,0,0,1.08239X$1,22.5*
%
%ADD10R,0.1500X0.1500*%
%ADD11C,0.1500*%
%ADD12C,0.0740*%
%ADD13C,0.0550*%
%ADD14C,0.3000*%
%ADD15C,0.3500*%
%ADD16C,0.2540*%
%ADD17OC8,0.0520*%
%ADD18C,0.0860*%
%ADD19C,0.0780*%
%ADD20R,0.0780X0.0780*%
%ADD21R,0.0630X0.0630*%
%ADD22C,0.0630*%
%ADD23C,0.0500*%
%ADD24C,0.1500*%
D10*
X052101Y018101D03*
D11*
X052101Y014996D03*
D12*
X054101Y011601D03*
X055101Y011601D03*
X055601Y008601D03*
X054601Y008601D03*
X053601Y008601D03*
D13*
X057601Y006561D03*
X057601Y001640D03*
D14*
X048601Y005101D03*
X048601Y009101D03*
X048601Y015101D03*
X048601Y019101D03*
D15*
X006601Y019101D03*
X006601Y005101D03*
D16*
X009601Y002101D03*
X006601Y009101D03*
X006601Y012101D03*
X006601Y015101D03*
X009601Y022101D03*
X027601Y022101D03*
X045601Y022101D03*
X045601Y002101D03*
X027601Y002101D03*
D17*
X058101Y009601D03*
X058101Y012601D03*
D18*
X052601Y020624D03*
X052601Y023577D03*
X052601Y004577D03*
X052601Y001624D03*
X002601Y001624D03*
X002601Y004577D03*
X002601Y020624D03*
X002601Y023577D03*
D19*
X013101Y024101D03*
X014601Y024101D03*
X016101Y024101D03*
X017601Y024101D03*
X019101Y024101D03*
X020601Y024101D03*
X022101Y024101D03*
X023601Y024101D03*
X025101Y024101D03*
X026601Y024101D03*
X028101Y024101D03*
X029601Y024101D03*
X031101Y024101D03*
X032601Y024101D03*
X034101Y024101D03*
D20*
X034101Y025101D03*
X034101Y026101D03*
X032601Y026101D03*
X031101Y026101D03*
X031101Y025101D03*
X032601Y025101D03*
X029601Y025101D03*
X028101Y025101D03*
X028101Y026101D03*
X029601Y026101D03*
X029601Y027101D03*
X028101Y027101D03*
X026601Y027101D03*
X025101Y027101D03*
X023601Y027101D03*
X022101Y027101D03*
X020601Y027101D03*
X019101Y027101D03*
X017601Y027101D03*
X016101Y027101D03*
X014601Y027101D03*
X013101Y027101D03*
X013101Y026101D03*
X013101Y025101D03*
X014601Y025101D03*
X016101Y025101D03*
X017601Y025101D03*
X019101Y025101D03*
X020601Y025101D03*
X020601Y026101D03*
X019101Y026101D03*
X017601Y026101D03*
X016101Y026101D03*
X014601Y026101D03*
X022101Y026101D03*
X023601Y026101D03*
X023601Y025101D03*
X022101Y025101D03*
X025101Y025101D03*
X026601Y025101D03*
X026601Y026101D03*
X025101Y026101D03*
X031101Y027101D03*
X032601Y027101D03*
X034101Y027101D03*
D21*
X009601Y026601D03*
X006601Y026601D03*
D22*
X006601Y025601D03*
X006601Y024601D03*
X009601Y024601D03*
X009601Y025601D03*
D23*
X009101Y001601D02*
X002601Y001601D01*
X008114Y004588D02*
X048088Y004588D01*
X047589Y004089D02*
X008612Y004089D01*
X009111Y003591D02*
X047091Y003591D01*
X046592Y003092D02*
X009610Y003092D01*
X010108Y002594D02*
X046094Y002594D01*
X045601Y002101D02*
X010601Y002101D01*
X007101Y005601D01*
X009601Y008101D01*
X009601Y022101D01*
X011601Y024101D01*
X035601Y024101D01*
X037601Y022101D01*
X045601Y022101D01*
X047101Y023601D01*
X052601Y023601D01*
X055601Y020601D01*
X055601Y018601D01*
X049101Y012101D01*
X047601Y012101D01*
X045601Y010101D01*
X045601Y008101D01*
X048601Y005101D01*
X045601Y002101D01*
X046101Y001601D01*
X052601Y001601D01*
X054601Y004601D02*
X054601Y008601D01*
X054101Y011351D02*
X057601Y007851D01*
X057601Y006601D01*
X048586Y005086D02*
X007615Y005086D01*
X007117Y005585D02*
X048117Y005585D01*
X047618Y006083D02*
X007583Y006083D01*
X008082Y006582D02*
X047120Y006582D01*
X046621Y007080D02*
X008580Y007080D01*
X009079Y007579D02*
X046123Y007579D01*
X045624Y008077D02*
X009577Y008077D01*
X009601Y008576D02*
X045601Y008576D01*
X045601Y009075D02*
X009601Y009075D01*
X009601Y009573D02*
X045601Y009573D01*
X045601Y010072D02*
X009601Y010072D01*
X009601Y010570D02*
X046070Y010570D01*
X046569Y011069D02*
X009601Y011069D01*
X009601Y011567D02*
X047067Y011567D01*
X047566Y012066D02*
X009601Y012066D01*
X009601Y012564D02*
X049564Y012564D01*
X049271Y012846D02*
X049160Y012801D01*
X047660Y012801D01*
X047541Y012801D01*
X047431Y012846D01*
X046431Y013846D01*
X046346Y013931D01*
X046301Y014041D01*
X046301Y018041D01*
X046301Y018660D01*
X046301Y020041D01*
X046301Y020160D01*
X046346Y020271D01*
X046846Y020771D01*
X047346Y021271D01*
X047431Y021355D01*
X047541Y021401D01*
X051476Y021401D01*
X051846Y021771D01*
X051931Y021855D01*
X052041Y021901D01*
X053041Y021901D01*
X053160Y021901D01*
X053271Y021855D01*
X053771Y021355D01*
X053855Y021271D01*
X053901Y021160D01*
X053901Y018160D01*
X053901Y017910D01*
X053901Y017791D01*
X053855Y017681D01*
X053105Y016931D01*
X053021Y016846D01*
X052910Y016801D01*
X051725Y016801D01*
X051151Y016226D01*
X051151Y014910D01*
X051151Y014791D01*
X051105Y014681D01*
X050855Y014431D01*
X049355Y012931D01*
X049271Y012846D01*
X049487Y013063D02*
X050063Y013063D01*
X049986Y013561D02*
X050561Y013561D01*
X050484Y014060D02*
X051060Y014060D01*
X050983Y014559D02*
X051559Y014559D01*
X051151Y015057D02*
X052057Y015057D01*
X052556Y015556D02*
X051151Y015556D01*
X051151Y016054D02*
X053054Y016054D01*
X053553Y016553D02*
X051477Y016553D01*
X053226Y017051D02*
X054051Y017051D01*
X053724Y017550D02*
X054550Y017550D01*
X055048Y018048D02*
X053901Y018048D01*
X053901Y018547D02*
X055547Y018547D01*
X055601Y019045D02*
X053901Y019045D01*
X053901Y019544D02*
X055601Y019544D01*
X055601Y020043D02*
X053901Y020043D01*
X053901Y020541D02*
X055601Y020541D01*
X055162Y021040D02*
X053901Y021040D01*
X053588Y021538D02*
X054663Y021538D01*
X054165Y022037D02*
X009601Y022037D01*
X009601Y022101D02*
X011601Y024101D01*
X013101Y024101D01*
X014601Y024101D01*
X016101Y024101D01*
X017601Y024101D01*
X019101Y024101D01*
X020601Y024101D01*
X022101Y024101D01*
X023601Y024101D01*
X025101Y024101D01*
X026601Y024101D01*
X028101Y024101D01*
X029601Y024101D01*
X031101Y024101D01*
X032601Y024101D01*
X034101Y024101D01*
X035601Y024101D01*
X037601Y022101D01*
X037166Y022535D02*
X010035Y022535D01*
X009601Y022101D02*
X008601Y023101D01*
X008601Y024601D01*
X009601Y025601D01*
X007601Y025601D01*
X006601Y024601D01*
X003601Y024601D01*
X002601Y023601D01*
X009601Y024601D02*
X010601Y024601D01*
X012101Y026101D01*
X013101Y026101D01*
X014601Y026101D01*
X016101Y026101D01*
X017601Y026101D01*
X019101Y026101D01*
X020601Y026101D01*
X022101Y026101D01*
X023601Y026101D01*
X025101Y026101D01*
X026601Y026101D01*
X028101Y026101D01*
X029601Y026101D01*
X031101Y026101D01*
X032601Y026101D01*
X034101Y026101D01*
X035671Y024031D02*
X011531Y024031D01*
X011032Y023532D02*
X036169Y023532D01*
X036668Y023034D02*
X010534Y023034D01*
X009601Y021538D02*
X051614Y021538D01*
X053666Y022535D02*
X046035Y022535D01*
X046534Y023034D02*
X053168Y023034D01*
X052669Y023532D02*
X047032Y023532D01*
X047115Y021040D02*
X009601Y021040D01*
X009601Y020541D02*
X046617Y020541D01*
X046301Y020043D02*
X009601Y020043D01*
X009601Y019544D02*
X046301Y019544D01*
X046301Y019045D02*
X009601Y019045D01*
X009601Y018547D02*
X046301Y018547D01*
X046301Y018048D02*
X009601Y018048D01*
X009601Y017550D02*
X046301Y017550D01*
X046301Y017051D02*
X009601Y017051D01*
X009601Y016553D02*
X046301Y016553D01*
X046301Y016054D02*
X009601Y016054D01*
X009601Y015556D02*
X046301Y015556D01*
X046301Y015057D02*
X009601Y015057D01*
X009601Y014559D02*
X046301Y014559D01*
X046301Y014060D02*
X009601Y014060D01*
X009601Y013561D02*
X046716Y013561D01*
X047214Y013063D02*
X009601Y013063D01*
X009601Y002101D02*
X009101Y001601D01*
X054101Y011351D02*
X054101Y011601D01*
D24*
X052101Y014251D02*
X049951Y012101D01*
X047601Y012101D01*
X045601Y010101D01*
X045601Y008101D01*
X048601Y005101D01*
X052101Y005101D01*
X052601Y004601D01*
X054601Y004601D01*
X057601Y001601D01*
X048601Y005101D02*
X047601Y005101D01*
X045601Y003101D01*
X045601Y002101D01*
X009601Y002101D01*
X009601Y003101D01*
X007601Y005101D01*
X006601Y005101D01*
X003101Y005101D01*
X002601Y004601D01*
X006601Y005101D02*
X006601Y009101D01*
X009601Y008101D02*
X009601Y022101D01*
X027601Y022101D01*
X037601Y022101D01*
X045601Y022101D01*
X047101Y023601D01*
X052601Y023601D01*
X055601Y020601D01*
X055601Y018501D01*
X052101Y015001D01*
X052101Y014251D01*
X009601Y008101D02*
X006601Y005101D01*
M02*
