G75*
G70*
%OFA0B0*%
%FSLAX24Y24*%
%IPPOS*%
%LPD*%
%AMOC8*
5,1,8,0,0,1.08239X$1,22.5*
%
%ADD10R,0.0591X0.0984*%
%ADD11R,0.0860X0.0420*%
%ADD12R,0.0787X0.0984*%
%ADD13R,0.0512X0.0433*%
%ADD14R,0.0472X0.0591*%
%ADD15R,0.1055X0.0993*%
%ADD16R,0.1055X0.0993*%
%ADD17C,0.0740*%
%ADD18R,0.0630X0.0709*%
%ADD19R,0.0740X0.0740*%
%ADD20OC8,0.0740*%
%ADD21R,0.0515X0.0515*%
%ADD22C,0.0515*%
%ADD23R,0.0827X0.0827*%
%ADD24R,0.0137X0.0550*%
%ADD25R,0.0984X0.0197*%
%ADD26R,0.0984X0.0787*%
%ADD27C,0.0554*%
%ADD28R,0.0551X0.0630*%
%ADD29R,0.0709X0.0630*%
%ADD30C,0.0160*%
%ADD31C,0.0100*%
%ADD32C,0.0360*%
%ADD33C,0.0240*%
%ADD34C,0.0396*%
D10*
X014931Y027971D03*
X025758Y028729D03*
D11*
X025790Y027863D03*
X025790Y023926D03*
D12*
X026113Y021878D03*
X014577Y021878D03*
D13*
X025301Y019891D03*
D14*
X024431Y019961D03*
X023766Y019969D03*
X022813Y019969D03*
X021829Y019969D03*
X020845Y019969D03*
X019861Y019969D03*
X018876Y019969D03*
X017892Y019969D03*
X016908Y019969D03*
D15*
X025974Y028718D03*
D16*
X014714Y027969D03*
D17*
X008101Y030321D03*
X007101Y030321D03*
X003201Y022121D03*
X002201Y022121D03*
X005201Y020621D03*
X005201Y019621D03*
X005201Y018671D03*
X004201Y018571D03*
X003201Y018671D03*
X005201Y017621D03*
X005201Y016621D03*
X006201Y018571D03*
X007201Y018671D03*
X002151Y012521D03*
X002251Y011521D03*
X002151Y010521D03*
X015701Y002521D03*
X016701Y002421D03*
X017701Y002521D03*
X018701Y002421D03*
X019701Y002521D03*
X020701Y002421D03*
X022801Y002521D03*
X023801Y002421D03*
X024801Y002521D03*
X025801Y002421D03*
X026801Y002521D03*
X027801Y002421D03*
X031401Y002521D03*
X032401Y002521D03*
X033401Y002521D03*
X037301Y005421D03*
X038051Y004921D03*
X038051Y005921D03*
X036271Y007721D03*
X035131Y007721D03*
X035201Y009621D03*
X034201Y009721D03*
X033201Y009621D03*
X032201Y009721D03*
X036201Y009721D03*
X037201Y009621D03*
X033301Y016601D03*
X033301Y017741D03*
X034151Y019921D03*
X034151Y020921D03*
X036121Y021931D03*
X036121Y023711D03*
X038681Y023711D03*
X038681Y021931D03*
X031801Y020921D03*
X031801Y019921D03*
X023701Y017471D03*
X022701Y017371D03*
X021701Y017471D03*
X020701Y017371D03*
X019701Y017471D03*
X018701Y017371D03*
X017701Y017471D03*
D18*
X018610Y015541D03*
X019712Y015541D03*
X021837Y015572D03*
X022940Y015572D03*
X025068Y015596D03*
X026171Y015596D03*
X036900Y012821D03*
X038002Y012821D03*
X009952Y027821D03*
X008850Y027821D03*
X008652Y026071D03*
X007550Y026071D03*
X007400Y024721D03*
X008502Y024721D03*
X007052Y023221D03*
X005950Y023221D03*
X005852Y014621D03*
X004750Y014621D03*
X004750Y013321D03*
X005852Y013321D03*
D19*
X002251Y013521D03*
X009101Y030321D03*
X030401Y002521D03*
D20*
X008801Y002521D03*
X007801Y002521D03*
X007801Y003521D03*
X008801Y003521D03*
X008801Y004521D03*
X007801Y004521D03*
X007801Y005521D03*
X008801Y005521D03*
X008801Y008221D03*
X007801Y008221D03*
X007801Y009221D03*
X008801Y009221D03*
X008801Y010221D03*
X007801Y010221D03*
X007801Y011221D03*
X008801Y011221D03*
D21*
X012401Y005921D03*
X029401Y005921D03*
D22*
X029401Y006921D03*
X029401Y007921D03*
X029401Y008921D03*
X029401Y009921D03*
X029401Y010921D03*
X029401Y011921D03*
X028401Y011921D03*
X028401Y010921D03*
X028401Y009921D03*
X028401Y008921D03*
X028401Y007921D03*
X028401Y006921D03*
X028401Y005921D03*
X028401Y012921D03*
X029401Y012921D03*
X029401Y013921D03*
X029401Y014921D03*
X029401Y015921D03*
X029401Y016921D03*
X029401Y017921D03*
X029401Y018921D03*
X029401Y019921D03*
X029401Y020921D03*
X028401Y020921D03*
X028401Y019921D03*
X028401Y018921D03*
X028401Y017921D03*
X028401Y016921D03*
X028401Y015921D03*
X028401Y014921D03*
X028401Y013921D03*
X028401Y021921D03*
X029401Y021921D03*
X029401Y022921D03*
X029401Y023921D03*
X029401Y024921D03*
X029401Y025921D03*
X029401Y026921D03*
X029401Y027921D03*
X029401Y028921D03*
X029401Y029921D03*
X028401Y029921D03*
X028401Y028921D03*
X028401Y027921D03*
X028401Y026921D03*
X028401Y025921D03*
X028401Y024921D03*
X028401Y023921D03*
X028401Y022921D03*
X012401Y022921D03*
X011401Y022921D03*
X011401Y023921D03*
X012401Y023921D03*
X012401Y024921D03*
X011401Y024921D03*
X011401Y025921D03*
X012401Y025921D03*
X012401Y026921D03*
X011401Y026921D03*
X011401Y027921D03*
X012401Y027921D03*
X012401Y028921D03*
X011401Y028921D03*
X011401Y029921D03*
X012401Y029921D03*
X012401Y021921D03*
X011401Y021921D03*
X011401Y020921D03*
X012401Y020921D03*
X012401Y019921D03*
X011401Y019921D03*
X011401Y018921D03*
X012401Y018921D03*
X012401Y017921D03*
X011401Y017921D03*
X011401Y016921D03*
X012401Y016921D03*
X012401Y015921D03*
X011401Y015921D03*
X011401Y014921D03*
X012401Y014921D03*
X012401Y013921D03*
X011401Y013921D03*
X011401Y012921D03*
X012401Y012921D03*
X012401Y011921D03*
X011401Y011921D03*
X011401Y010921D03*
X012401Y010921D03*
X012401Y009921D03*
X011401Y009921D03*
X011401Y008921D03*
X012401Y008921D03*
X012401Y007921D03*
X011401Y007921D03*
X011401Y006921D03*
X012401Y006921D03*
X011401Y005921D03*
D23*
X004728Y025238D03*
X003074Y025238D03*
X003074Y027404D03*
X004728Y027404D03*
D24*
X031287Y015160D03*
X031543Y015160D03*
X031799Y015160D03*
X032055Y015160D03*
X032311Y015160D03*
X032567Y015160D03*
X032823Y015160D03*
X033079Y015160D03*
X033335Y015160D03*
X033591Y015160D03*
X033846Y015160D03*
X034102Y015160D03*
X034358Y015160D03*
X034614Y015160D03*
X034614Y012282D03*
X034358Y012282D03*
X034102Y012282D03*
X033846Y012282D03*
X033591Y012282D03*
X033335Y012282D03*
X033079Y012282D03*
X032823Y012282D03*
X032567Y012282D03*
X032311Y012282D03*
X032055Y012282D03*
X031799Y012282D03*
X031543Y012282D03*
X031287Y012282D03*
D25*
X036417Y017041D03*
X036417Y017356D03*
X036417Y017671D03*
X036417Y017986D03*
X036417Y018301D03*
D26*
X036417Y019443D03*
X038582Y019443D03*
X038582Y015899D03*
X036417Y015899D03*
D27*
X037401Y016805D03*
X037401Y018537D03*
D28*
X036900Y014321D03*
X038002Y014321D03*
D29*
X034051Y022020D03*
X034051Y023122D03*
X031801Y023172D03*
X031801Y022070D03*
D30*
X026096Y023926D02*
X025790Y023926D01*
X025831Y027821D02*
X025790Y027863D01*
X020845Y019969D02*
X020701Y019825D01*
X022813Y017484D02*
X022701Y017371D01*
X023701Y017471D02*
X023766Y017536D01*
X022964Y015596D02*
X022940Y015572D01*
X021901Y015636D02*
X021837Y015572D01*
X018701Y015632D02*
X018610Y015541D01*
X018601Y017121D02*
X018701Y017221D01*
X018701Y017371D01*
X026171Y015596D02*
X026195Y015621D01*
X026701Y015621D01*
D31*
X027401Y016321D01*
X027401Y027221D01*
X026801Y027821D01*
X025831Y027821D01*
X028001Y028921D02*
X028401Y028921D01*
X028001Y028921D02*
X026401Y030521D01*
X012001Y030521D01*
X011401Y029921D01*
X011901Y029421D01*
X011901Y006421D01*
X011401Y005921D01*
X011901Y005121D02*
X012401Y005621D01*
X012401Y005921D01*
X011901Y005121D02*
X009601Y005121D01*
X009201Y005521D01*
X008801Y005521D01*
X008301Y006021D02*
X008301Y010721D01*
X007801Y011221D01*
X008001Y012021D02*
X008801Y011221D01*
X008801Y010221D02*
X009901Y010221D01*
X010301Y010621D01*
X010301Y012521D01*
X010701Y012921D01*
X011401Y012921D01*
X011401Y011921D02*
X010901Y011921D01*
X010501Y011521D01*
X010501Y009721D01*
X010001Y009221D01*
X008801Y009221D01*
X008901Y008321D02*
X008801Y008221D01*
X008901Y008321D02*
X010101Y008321D01*
X010701Y008921D01*
X010701Y010421D01*
X011201Y010921D01*
X011401Y010921D01*
X008601Y013021D02*
X007901Y012321D01*
X006601Y012321D01*
X005201Y011121D01*
X004101Y011121D01*
X005201Y010521D02*
X002151Y010521D01*
X002251Y011521D02*
X002551Y011821D01*
X005301Y011821D01*
X005501Y012321D02*
X005901Y012721D01*
X005901Y013121D01*
X005852Y013170D01*
X005852Y013321D01*
X006601Y013321D01*
X006901Y013621D01*
X006901Y015921D01*
X005201Y017621D01*
X005201Y016621D02*
X005852Y015970D01*
X005852Y014621D01*
X005852Y014572D01*
X005301Y014021D01*
X005852Y014621D02*
X006001Y014621D01*
X006101Y014521D01*
X004750Y014621D02*
X004750Y013321D01*
X004101Y013321D01*
X002451Y013321D01*
X002251Y013521D01*
X002151Y012521D02*
X002351Y012321D01*
X005501Y012321D01*
X006701Y012021D02*
X005201Y010521D01*
X006701Y012021D02*
X008001Y012021D01*
X004750Y014621D02*
X003201Y016170D01*
X003201Y018671D01*
X003201Y022121D02*
X004301Y023221D01*
X005950Y023221D01*
X007052Y023221D02*
X007400Y023569D01*
X007400Y024721D01*
X005600Y026521D01*
X005201Y026521D01*
X004728Y026994D01*
X004728Y027404D01*
X003074Y027404D02*
X005991Y030321D01*
X007101Y030321D01*
X007750Y029872D01*
X007801Y029821D01*
X007801Y026421D01*
X007550Y026170D01*
X007550Y026071D01*
X008101Y025721D02*
X008502Y025320D01*
X008502Y024721D01*
X008502Y024522D01*
X007801Y023821D01*
X007801Y015021D01*
X014301Y014321D02*
X019001Y014321D01*
X019701Y015530D01*
X019712Y015541D01*
X020701Y016530D01*
X020701Y015121D01*
X020901Y014921D01*
X022801Y014921D01*
X023001Y014721D01*
X023001Y008621D01*
X023301Y008321D01*
X023301Y008121D01*
X021301Y008121D01*
X015701Y002521D01*
X013801Y002021D02*
X013801Y022621D01*
X013501Y022921D01*
X012401Y022921D01*
X012401Y021921D02*
X013301Y021921D01*
X013601Y021621D01*
X013601Y002321D01*
X013101Y001821D01*
X007001Y001821D01*
X006701Y002121D01*
X006701Y003121D01*
X007101Y003521D01*
X007801Y003521D01*
X007801Y002521D02*
X007801Y002021D01*
X012901Y002021D01*
X013401Y002521D01*
X013401Y020621D01*
X013201Y020821D01*
X012501Y020821D01*
X012401Y020921D01*
X014701Y020921D02*
X014701Y016821D01*
X015501Y016721D02*
X015501Y019821D01*
X015101Y020621D02*
X015101Y018421D01*
X015101Y015521D01*
X016301Y015421D02*
X016301Y018421D01*
X017892Y019969D02*
X018601Y019260D01*
X018601Y017121D01*
X018701Y017371D02*
X018701Y015632D01*
X020701Y016530D02*
X020701Y017371D01*
X020701Y019825D01*
X019901Y020009D02*
X019901Y020621D01*
X020101Y020821D01*
X022601Y020821D01*
X022701Y020721D01*
X022701Y020221D01*
X022813Y020108D01*
X022813Y019969D01*
X022813Y017484D01*
X021829Y017599D02*
X021829Y019969D01*
X023301Y021221D02*
X023701Y020821D01*
X023701Y020221D01*
X023766Y020156D01*
X023766Y019969D01*
X023766Y017536D01*
X022301Y016521D02*
X021837Y016058D01*
X021837Y015572D01*
X022801Y014921D02*
X023001Y015121D01*
X023001Y015511D01*
X022940Y015572D01*
X022964Y015596D02*
X025068Y015596D01*
X026201Y016521D02*
X026901Y017221D01*
X026901Y023121D01*
X026096Y023926D01*
X023301Y021221D02*
X019401Y021221D01*
X018901Y020721D01*
X018401Y021221D01*
X015601Y021221D01*
X015101Y020621D01*
X018901Y020721D02*
X018901Y019993D01*
X018876Y019969D01*
X019701Y019145D01*
X019701Y017471D01*
X021701Y017471D02*
X021829Y017599D01*
X022301Y016521D02*
X026201Y016521D01*
X027601Y012621D02*
X027601Y008521D01*
X027201Y008021D02*
X027201Y011821D01*
X027001Y012021D01*
X031287Y012282D02*
X031301Y012268D01*
X031301Y011721D01*
X032401Y010621D01*
X032701Y010621D01*
X033201Y010121D01*
X033201Y009621D01*
X033201Y008221D01*
X032501Y007521D01*
X033801Y007721D02*
X035131Y007721D01*
X034201Y008521D02*
X034201Y009721D01*
X034201Y010421D01*
X033701Y010921D01*
X033001Y010921D01*
X032301Y011621D01*
X032301Y012282D01*
X032311Y012282D01*
X032055Y012282D02*
X032055Y013721D01*
X032101Y013721D01*
X032801Y013321D02*
X033101Y013621D01*
X033101Y014621D01*
X033101Y015160D01*
X033079Y015160D01*
X033079Y014621D01*
X033801Y014621D01*
X033801Y015160D01*
X033846Y015160D01*
X034102Y015160D02*
X034102Y014023D01*
X034101Y014021D01*
X033101Y014621D02*
X032055Y014621D01*
X032055Y015160D01*
X032055Y014675D01*
X032001Y014621D01*
X031801Y014621D01*
X031801Y015159D01*
X031799Y015160D01*
X032567Y015160D02*
X032601Y015194D01*
X032601Y015621D01*
X031801Y016421D01*
X031801Y019921D01*
X031801Y020921D02*
X031801Y022070D01*
X031701Y023021D02*
X030901Y023021D01*
X031701Y023021D02*
X031901Y023221D01*
X031851Y023122D02*
X034051Y023122D01*
X034051Y022020D02*
X034051Y021021D01*
X034151Y020921D01*
X034151Y019921D02*
X033810Y019730D01*
X033601Y019721D01*
X033201Y019721D01*
X032201Y018721D01*
X032201Y016421D01*
X032801Y015821D01*
X032801Y015182D01*
X032823Y015160D01*
X033335Y015160D02*
X033335Y016521D01*
X033301Y016521D01*
X033301Y016601D01*
X033335Y016621D02*
X033401Y016621D01*
X033801Y017021D01*
X036396Y017021D01*
X036417Y017041D01*
X036417Y017005D01*
X037101Y016321D01*
X037101Y015021D01*
X036901Y014821D01*
X036901Y014322D01*
X036900Y014321D01*
X036900Y012821D01*
X038002Y012821D02*
X038002Y012322D01*
X037601Y011921D01*
X038002Y012821D02*
X038002Y014321D01*
X038001Y014322D01*
X038001Y014821D01*
X037901Y014921D01*
X037901Y017821D01*
X037601Y018121D01*
X037201Y018121D01*
X037021Y018301D01*
X036417Y018301D01*
X036396Y018321D01*
X035601Y018321D01*
X035401Y018521D01*
X035401Y023421D01*
X035691Y023711D01*
X036121Y023711D01*
X034101Y022020D02*
X034051Y022020D01*
X031851Y023122D02*
X031801Y023172D01*
X031801Y024721D01*
X029401Y029921D02*
X028401Y029921D01*
X029601Y031121D02*
X004101Y031121D01*
X003501Y030521D01*
X003501Y028821D01*
X003001Y028321D01*
X002601Y028321D01*
X002401Y028121D01*
X002401Y025621D01*
X002783Y025238D01*
X003074Y025238D01*
X008101Y025721D02*
X008101Y030321D01*
X008850Y030070D02*
X008850Y027821D01*
X008901Y027770D01*
X008901Y026021D01*
X008850Y026072D01*
X008652Y026071D01*
X009952Y027821D02*
X010052Y027921D01*
X011401Y027921D01*
X011401Y028921D02*
X010501Y028921D01*
X009101Y030321D01*
X008850Y030070D01*
X019861Y019969D02*
X019901Y020009D01*
X018801Y012621D02*
X018801Y009921D01*
X014701Y005821D01*
X014701Y005021D02*
X019401Y009721D01*
X019401Y012021D01*
X023301Y008121D02*
X026501Y008121D01*
X025001Y006621D02*
X024101Y006621D01*
X023101Y006621D01*
X023101Y002821D01*
X022801Y002521D01*
X028601Y001921D02*
X028801Y001721D01*
X030901Y001721D01*
X031401Y002221D01*
X031401Y002521D01*
X030401Y002521D02*
X030401Y030321D01*
X029601Y031121D01*
X035101Y017821D02*
X035301Y017821D01*
X035451Y017671D01*
X036417Y017671D01*
X036417Y017356D02*
X034466Y017356D01*
X034401Y017421D01*
X033335Y016621D02*
X033335Y016521D01*
X034358Y016321D02*
X034401Y016321D01*
X034358Y016321D02*
X034358Y015160D01*
X034614Y015160D02*
X034614Y015721D01*
X035101Y015721D01*
X032801Y013321D02*
X032801Y013221D01*
X032801Y012304D01*
X032823Y012282D01*
X033801Y007721D02*
X031501Y005421D01*
X032801Y004221D02*
X034001Y005421D01*
X037301Y005421D01*
X028601Y004921D02*
X028601Y001921D01*
X013801Y002021D02*
X013101Y001321D01*
X006701Y001321D01*
X006401Y001621D01*
X006401Y003921D01*
X007001Y004521D01*
X007801Y004521D01*
X007801Y005521D02*
X008301Y006021D01*
X009601Y005121D02*
X009601Y003721D01*
X010901Y002421D01*
D32*
X010901Y002421D03*
X014701Y005021D03*
X014701Y005821D03*
X019401Y012021D03*
X018801Y012621D03*
X019901Y013521D03*
X021301Y013621D03*
X024301Y013621D03*
X026401Y013621D03*
X027601Y012621D03*
X027001Y012021D03*
X027601Y008521D03*
X027201Y008021D03*
X026501Y008121D03*
X025001Y006621D03*
X024101Y006621D03*
X023101Y006621D03*
X023301Y008121D03*
X028601Y004921D03*
X031501Y005421D03*
X032801Y004221D03*
X032501Y007521D03*
X034201Y008521D03*
X037601Y011921D03*
X034101Y014021D03*
X032801Y013221D03*
X032101Y013721D03*
X035101Y015721D03*
X034401Y016321D03*
X034401Y017421D03*
X035101Y017821D03*
X030901Y023021D03*
X031801Y024721D03*
X038201Y028521D03*
X023401Y027421D03*
X020301Y027321D03*
X016901Y027321D03*
X020601Y023021D03*
X016801Y022821D03*
X014701Y020921D03*
X015501Y019821D03*
X015101Y018421D03*
X016301Y018421D03*
X014701Y016821D03*
X015501Y016721D03*
X015101Y015521D03*
X016301Y015421D03*
X014301Y014321D03*
X008601Y013021D03*
X007801Y015021D03*
X005301Y014021D03*
X004101Y013321D03*
X005301Y011821D03*
X004101Y011121D03*
X005101Y006321D03*
X002101Y006321D03*
X004001Y002421D03*
X001301Y020421D03*
D33*
X000621Y001978D02*
X000621Y000641D01*
X039451Y000641D01*
X039451Y031597D01*
X038750Y031597D01*
X038819Y031557D01*
X039037Y031339D01*
X039191Y031073D01*
X039271Y030775D01*
X039271Y030467D01*
X039191Y030169D01*
X039037Y029903D01*
X038819Y029685D01*
X038552Y029531D01*
X038255Y029451D01*
X037947Y029451D01*
X037649Y029531D01*
X037382Y029685D01*
X037165Y029903D01*
X037011Y030169D01*
X036931Y030467D01*
X036931Y030775D01*
X037011Y031073D01*
X037165Y031339D01*
X037382Y031557D01*
X037451Y031597D01*
X002250Y031597D01*
X002319Y031557D01*
X002537Y031339D01*
X002691Y031073D01*
X002771Y030775D01*
X002771Y030467D01*
X002691Y030169D01*
X002537Y029903D01*
X002319Y029685D01*
X002052Y029531D01*
X001755Y029451D01*
X001447Y029451D01*
X001149Y029531D01*
X000882Y029685D01*
X000665Y029903D01*
X000621Y029978D01*
X000621Y028157D01*
X000795Y028257D01*
X001077Y028333D01*
X001370Y028333D01*
X001652Y028257D01*
X001906Y028111D01*
X001991Y028026D01*
X001991Y028202D01*
X002053Y028353D01*
X002169Y028469D01*
X002369Y028669D01*
X002519Y028731D01*
X002682Y028731D01*
X002831Y028731D01*
X003091Y028991D01*
X003091Y030602D01*
X003153Y030753D01*
X003269Y030869D01*
X003869Y031469D01*
X004019Y031531D01*
X004182Y031531D01*
X029682Y031531D01*
X029833Y031469D01*
X029948Y031353D01*
X030748Y030553D01*
X030811Y030402D01*
X030811Y030239D01*
X030811Y023561D01*
X031008Y023561D01*
X031086Y023528D01*
X031086Y023559D01*
X031141Y023691D01*
X031243Y023792D01*
X031375Y023847D01*
X031391Y023847D01*
X031391Y024367D01*
X031343Y024415D01*
X031261Y024614D01*
X031261Y024828D01*
X031343Y025027D01*
X031495Y025179D01*
X031693Y025261D01*
X031908Y025261D01*
X032107Y025179D01*
X032259Y025027D01*
X032341Y024828D01*
X032341Y024614D01*
X032259Y024415D01*
X032211Y024367D01*
X032211Y023847D01*
X032227Y023847D01*
X032359Y023792D01*
X032460Y023691D01*
X032515Y023559D01*
X032515Y023532D01*
X033346Y023532D01*
X033391Y023641D01*
X033493Y023742D01*
X033625Y023797D01*
X034477Y023797D01*
X034609Y023742D01*
X034710Y023641D01*
X034765Y023509D01*
X034765Y022736D01*
X034710Y022603D01*
X034678Y022571D01*
X034710Y022539D01*
X034765Y022406D01*
X034765Y021633D01*
X034710Y021501D01*
X034657Y021447D01*
X034770Y021334D01*
X034881Y021066D01*
X034881Y020776D01*
X034770Y020507D01*
X034683Y020421D01*
X034770Y020334D01*
X034881Y020066D01*
X034881Y019776D01*
X034770Y019507D01*
X034564Y019302D01*
X034296Y019191D01*
X034006Y019191D01*
X033737Y019302D01*
X033723Y019316D01*
X033691Y019315D01*
X033682Y019311D01*
X033610Y019311D01*
X033538Y019308D01*
X033529Y019311D01*
X033371Y019311D01*
X032611Y018551D01*
X032611Y017983D01*
X032682Y018154D01*
X032887Y018360D01*
X033156Y018471D01*
X033446Y018471D01*
X033714Y018360D01*
X033920Y018154D01*
X034031Y017886D01*
X034031Y017815D01*
X034095Y017879D01*
X034293Y017961D01*
X034508Y017961D01*
X034565Y017938D01*
X034643Y018127D01*
X034795Y018279D01*
X034993Y018361D01*
X035023Y018361D01*
X034991Y018439D01*
X034991Y023339D01*
X034991Y023502D01*
X035053Y023653D01*
X035343Y023943D01*
X035459Y024059D01*
X035478Y024067D01*
X035502Y024124D01*
X035707Y024330D01*
X035976Y024441D01*
X036266Y024441D01*
X036534Y024330D01*
X036740Y024124D01*
X036851Y023856D01*
X036851Y023566D01*
X036740Y023297D01*
X036534Y023092D01*
X036266Y022981D01*
X035976Y022981D01*
X035811Y023049D01*
X035811Y022593D01*
X035976Y022661D01*
X036266Y022661D01*
X036534Y022550D01*
X036740Y022344D01*
X036851Y022076D01*
X036851Y021786D01*
X036740Y021517D01*
X036534Y021312D01*
X036266Y021201D01*
X035976Y021201D01*
X035811Y021269D01*
X035811Y020179D01*
X035853Y020196D01*
X036980Y020196D01*
X037113Y020141D01*
X037214Y020040D01*
X037269Y019908D01*
X037269Y019172D01*
X037274Y019174D01*
X037528Y019174D01*
X037730Y019090D01*
X037730Y019908D01*
X037785Y020040D01*
X037886Y020141D01*
X038018Y020196D01*
X039146Y020196D01*
X039278Y020141D01*
X039379Y020040D01*
X039434Y019908D01*
X039434Y018977D01*
X039379Y018845D01*
X039278Y018744D01*
X039146Y018689D01*
X038027Y018689D01*
X038038Y018664D01*
X038038Y018410D01*
X037995Y018307D01*
X038248Y018053D01*
X038311Y017902D01*
X038311Y017739D01*
X038311Y016653D01*
X039146Y016653D01*
X039278Y016598D01*
X039379Y016497D01*
X039434Y016365D01*
X039434Y015434D01*
X039379Y015302D01*
X039278Y015200D01*
X039146Y015146D01*
X038311Y015146D01*
X038311Y015091D01*
X038348Y015053D01*
X038377Y014984D01*
X038481Y014941D01*
X038583Y014840D01*
X038638Y014708D01*
X038638Y013934D01*
X038583Y013802D01*
X038481Y013701D01*
X038412Y013672D01*
X038412Y013526D01*
X038521Y013480D01*
X038622Y013379D01*
X038677Y013247D01*
X038677Y012395D01*
X038622Y012263D01*
X038521Y012161D01*
X038389Y012107D01*
X038356Y012107D01*
X038350Y012090D01*
X038234Y011975D01*
X038141Y011881D01*
X038141Y011814D01*
X038059Y011615D01*
X037907Y011463D01*
X037708Y011381D01*
X037493Y011381D01*
X037295Y011463D01*
X037143Y011615D01*
X037061Y011814D01*
X037061Y012028D01*
X037093Y012107D01*
X036513Y012107D01*
X036381Y012161D01*
X036279Y012263D01*
X036225Y012395D01*
X036225Y013247D01*
X036279Y013379D01*
X036381Y013480D01*
X036490Y013526D01*
X036490Y013672D01*
X036420Y013701D01*
X036319Y013802D01*
X036264Y013934D01*
X036264Y014708D01*
X036319Y014840D01*
X036420Y014941D01*
X036525Y014984D01*
X036553Y015053D01*
X036646Y015146D01*
X035853Y015146D01*
X035720Y015200D01*
X035619Y015302D01*
X035565Y015432D01*
X035559Y015415D01*
X035407Y015263D01*
X035208Y015181D01*
X035043Y015181D01*
X035043Y014814D01*
X034988Y014681D01*
X034887Y014580D01*
X034754Y014525D01*
X034512Y014525D01*
X034512Y014373D01*
X034559Y014327D01*
X034641Y014128D01*
X034641Y013914D01*
X034559Y013715D01*
X034407Y013563D01*
X034208Y013481D01*
X033993Y013481D01*
X033795Y013563D01*
X033643Y013715D01*
X033561Y013914D01*
X033561Y014128D01*
X033595Y014211D01*
X033511Y014211D01*
X033511Y013539D01*
X033448Y013389D01*
X033341Y013281D01*
X033341Y013114D01*
X033259Y012917D01*
X033450Y012917D01*
X033706Y012917D01*
X033962Y012917D01*
X034218Y012917D01*
X034474Y012917D01*
X034754Y012917D01*
X034887Y012862D01*
X034988Y012760D01*
X035043Y012628D01*
X035043Y011935D01*
X034988Y011803D01*
X034887Y011701D01*
X034754Y011647D01*
X034474Y011647D01*
X034218Y011647D01*
X033962Y011647D01*
X033706Y011647D01*
X033450Y011647D01*
X033194Y011647D01*
X032939Y011647D01*
X032855Y011647D01*
X033171Y011331D01*
X033619Y011331D01*
X033782Y011331D01*
X033933Y011269D01*
X034433Y010769D01*
X034548Y010653D01*
X034611Y010502D01*
X034611Y010341D01*
X034614Y010340D01*
X034751Y010203D01*
X034787Y010240D01*
X035056Y010351D01*
X035346Y010351D01*
X035614Y010240D01*
X035651Y010203D01*
X035787Y010340D01*
X036056Y010451D01*
X036346Y010451D01*
X036614Y010340D01*
X036751Y010203D01*
X036787Y010240D01*
X037056Y010351D01*
X037346Y010351D01*
X037614Y010240D01*
X037820Y010034D01*
X037931Y009766D01*
X037931Y009476D01*
X037820Y009207D01*
X037614Y009002D01*
X037346Y008891D01*
X037056Y008891D01*
X036787Y009002D01*
X036651Y009139D01*
X036614Y009102D01*
X036346Y008991D01*
X036056Y008991D01*
X035787Y009102D01*
X035751Y009139D01*
X035614Y009002D01*
X035346Y008891D01*
X035056Y008891D01*
X034787Y009002D01*
X034651Y009139D01*
X034614Y009102D01*
X034611Y009101D01*
X034611Y008875D01*
X034659Y008827D01*
X034741Y008628D01*
X034741Y008414D01*
X034705Y008328D01*
X034717Y008340D01*
X034986Y008451D01*
X035276Y008451D01*
X035544Y008340D01*
X035701Y008183D01*
X035857Y008340D01*
X036126Y008451D01*
X036416Y008451D01*
X036684Y008340D01*
X036890Y008134D01*
X037001Y007866D01*
X037001Y007576D01*
X036890Y007307D01*
X036684Y007102D01*
X036416Y006991D01*
X036126Y006991D01*
X035857Y007102D01*
X035701Y007259D01*
X035544Y007102D01*
X035276Y006991D01*
X034986Y006991D01*
X034717Y007102D01*
X034512Y007307D01*
X034510Y007311D01*
X033971Y007311D01*
X032041Y005381D01*
X032041Y005314D01*
X031959Y005115D01*
X031807Y004963D01*
X031608Y004881D01*
X031393Y004881D01*
X031195Y004963D01*
X031043Y005115D01*
X030961Y005314D01*
X030961Y005528D01*
X031043Y005727D01*
X031195Y005879D01*
X031393Y005961D01*
X031461Y005961D01*
X032481Y006981D01*
X032393Y006981D01*
X032195Y007063D01*
X032043Y007215D01*
X031961Y007414D01*
X031961Y007628D01*
X032043Y007827D01*
X032195Y007979D01*
X032393Y008061D01*
X032461Y008061D01*
X032791Y008391D01*
X032791Y009001D01*
X032787Y009002D01*
X032651Y009139D01*
X032614Y009102D01*
X032346Y008991D01*
X032056Y008991D01*
X031787Y009102D01*
X031582Y009307D01*
X031471Y009576D01*
X031471Y009866D01*
X031582Y010134D01*
X031787Y010340D01*
X032010Y010432D01*
X030953Y011489D01*
X030891Y011639D01*
X030891Y011802D01*
X030891Y011858D01*
X030859Y011935D01*
X030859Y012628D01*
X030914Y012760D01*
X031015Y012862D01*
X031147Y012917D01*
X031403Y012917D01*
X031645Y012917D01*
X031645Y013413D01*
X031643Y013415D01*
X031561Y013614D01*
X031561Y013828D01*
X031643Y014027D01*
X031795Y014179D01*
X031873Y014211D01*
X031719Y014211D01*
X031569Y014273D01*
X031453Y014389D01*
X031397Y014525D01*
X031147Y014525D01*
X031015Y014580D01*
X030914Y014681D01*
X030859Y014814D01*
X030859Y015507D01*
X030914Y015639D01*
X031015Y015740D01*
X031147Y015795D01*
X031403Y015795D01*
X031659Y015795D01*
X031847Y015795D01*
X031569Y016073D01*
X031453Y016189D01*
X031391Y016339D01*
X031391Y019301D01*
X031387Y019302D01*
X031182Y019507D01*
X031071Y019776D01*
X031071Y020066D01*
X031182Y020334D01*
X031268Y020421D01*
X031182Y020507D01*
X031071Y020776D01*
X031071Y021066D01*
X031182Y021334D01*
X031281Y021434D01*
X031243Y021450D01*
X031141Y021551D01*
X031086Y021683D01*
X031086Y022456D01*
X031115Y022525D01*
X031008Y022481D01*
X030811Y022481D01*
X030811Y003251D01*
X030842Y003251D01*
X030975Y003196D01*
X031018Y003153D01*
X031256Y003251D01*
X031546Y003251D01*
X031814Y003140D01*
X031901Y003053D01*
X031987Y003140D01*
X032256Y003251D01*
X032546Y003251D01*
X032814Y003140D01*
X032901Y003053D01*
X032987Y003140D01*
X033256Y003251D01*
X033546Y003251D01*
X033814Y003140D01*
X034020Y002934D01*
X034131Y002666D01*
X034131Y002376D01*
X034020Y002107D01*
X033814Y001902D01*
X033546Y001791D01*
X033256Y001791D01*
X032987Y001902D01*
X032901Y001989D01*
X032814Y001902D01*
X032546Y001791D01*
X032256Y001791D01*
X031987Y001902D01*
X031901Y001989D01*
X031814Y001902D01*
X031554Y001794D01*
X031133Y001373D01*
X030982Y001311D01*
X030819Y001311D01*
X028719Y001311D01*
X028569Y001373D01*
X028453Y001489D01*
X028253Y001689D01*
X028207Y001799D01*
X027946Y001691D01*
X027656Y001691D01*
X027387Y001802D01*
X027251Y001939D01*
X027214Y001902D01*
X026946Y001791D01*
X026656Y001791D01*
X026387Y001902D01*
X026351Y001939D01*
X026214Y001802D01*
X025946Y001691D01*
X025656Y001691D01*
X025387Y001802D01*
X025251Y001939D01*
X025214Y001902D01*
X024946Y001791D01*
X024656Y001791D01*
X024387Y001902D01*
X024351Y001939D01*
X024214Y001802D01*
X023946Y001691D01*
X023656Y001691D01*
X023387Y001802D01*
X023251Y001939D01*
X023214Y001902D01*
X022946Y001791D01*
X022656Y001791D01*
X022387Y001902D01*
X022182Y002107D01*
X022071Y002376D01*
X022071Y002666D01*
X022182Y002934D01*
X022387Y003140D01*
X022656Y003251D01*
X022691Y003251D01*
X022691Y006267D01*
X022643Y006315D01*
X022561Y006514D01*
X022561Y006728D01*
X022643Y006927D01*
X022795Y007079D01*
X022993Y007161D01*
X023208Y007161D01*
X023407Y007079D01*
X023454Y007031D01*
X023747Y007031D01*
X023795Y007079D01*
X023993Y007161D01*
X024208Y007161D01*
X024407Y007079D01*
X024454Y007031D01*
X024647Y007031D01*
X024695Y007079D01*
X024893Y007161D01*
X025108Y007161D01*
X025307Y007079D01*
X025459Y006927D01*
X025541Y006728D01*
X025541Y006514D01*
X025459Y006315D01*
X025307Y006163D01*
X025108Y006081D01*
X024893Y006081D01*
X024695Y006163D01*
X024647Y006211D01*
X024454Y006211D01*
X024407Y006163D01*
X024208Y006081D01*
X023993Y006081D01*
X023795Y006163D01*
X023747Y006211D01*
X023511Y006211D01*
X023511Y003091D01*
X023656Y003151D01*
X023946Y003151D01*
X024214Y003040D01*
X024251Y003003D01*
X024387Y003140D01*
X024656Y003251D01*
X024946Y003251D01*
X025214Y003140D01*
X025351Y003003D01*
X025387Y003040D01*
X025656Y003151D01*
X025946Y003151D01*
X026214Y003040D01*
X026251Y003003D01*
X026387Y003140D01*
X026656Y003251D01*
X026946Y003251D01*
X027214Y003140D01*
X027351Y003003D01*
X027387Y003040D01*
X027656Y003151D01*
X027946Y003151D01*
X028191Y003049D01*
X028191Y004567D01*
X028143Y004615D01*
X028061Y004814D01*
X028061Y005028D01*
X028143Y005227D01*
X028237Y005321D01*
X028051Y005397D01*
X027877Y005571D01*
X027783Y005798D01*
X027783Y006044D01*
X027877Y006271D01*
X028028Y006421D01*
X027877Y006571D01*
X027783Y006798D01*
X027783Y007044D01*
X027877Y007271D01*
X028028Y007421D01*
X027877Y007571D01*
X027783Y007798D01*
X027783Y008012D01*
X027741Y007994D01*
X027741Y007914D01*
X027659Y007715D01*
X027507Y007563D01*
X027308Y007481D01*
X027093Y007481D01*
X026895Y007563D01*
X026798Y007660D01*
X026608Y007581D01*
X026393Y007581D01*
X026195Y007663D01*
X026147Y007711D01*
X023654Y007711D01*
X023607Y007663D01*
X023408Y007581D01*
X023193Y007581D01*
X022995Y007663D01*
X022947Y007711D01*
X021471Y007711D01*
X016892Y003132D01*
X017114Y003040D01*
X017151Y003003D01*
X017287Y003140D01*
X017556Y003251D01*
X017846Y003251D01*
X018114Y003140D01*
X018251Y003003D01*
X018287Y003040D01*
X018556Y003151D01*
X018846Y003151D01*
X019114Y003040D01*
X019151Y003003D01*
X019287Y003140D01*
X019556Y003251D01*
X019846Y003251D01*
X020114Y003140D01*
X020251Y003003D01*
X020287Y003040D01*
X020556Y003151D01*
X020846Y003151D01*
X021114Y003040D01*
X021320Y002834D01*
X021431Y002566D01*
X021431Y002276D01*
X021320Y002007D01*
X021114Y001802D01*
X020846Y001691D01*
X020556Y001691D01*
X020287Y001802D01*
X020151Y001939D01*
X020114Y001902D01*
X019846Y001791D01*
X019556Y001791D01*
X019287Y001902D01*
X019251Y001939D01*
X019114Y001802D01*
X018846Y001691D01*
X018556Y001691D01*
X018287Y001802D01*
X018151Y001939D01*
X018114Y001902D01*
X017846Y001791D01*
X017556Y001791D01*
X017287Y001902D01*
X017251Y001939D01*
X017114Y001802D01*
X016846Y001691D01*
X016556Y001691D01*
X016287Y001802D01*
X016151Y001939D01*
X016114Y001902D01*
X015846Y001791D01*
X015556Y001791D01*
X015287Y001902D01*
X015082Y002107D01*
X014971Y002376D01*
X014971Y002666D01*
X015082Y002934D01*
X015287Y003140D01*
X015556Y003251D01*
X015846Y003251D01*
X015849Y003249D01*
X020953Y008353D01*
X021069Y008469D01*
X021219Y008531D01*
X022594Y008531D01*
X022591Y008539D01*
X022591Y008702D01*
X022591Y014511D01*
X020819Y014511D01*
X020669Y014573D01*
X020553Y014689D01*
X020353Y014889D01*
X020319Y014970D01*
X020231Y014881D01*
X020099Y014827D01*
X019767Y014827D01*
X019369Y014139D01*
X019348Y014089D01*
X019329Y014069D01*
X019315Y014045D01*
X019271Y014012D01*
X019233Y013973D01*
X019207Y013963D01*
X019185Y013946D01*
X019133Y013932D01*
X019082Y013911D01*
X019054Y013911D01*
X019028Y013904D01*
X018974Y013911D01*
X014654Y013911D01*
X014607Y013863D01*
X014408Y013781D01*
X014211Y013781D01*
X014211Y006049D01*
X014243Y006127D01*
X014395Y006279D01*
X014593Y006361D01*
X014661Y006361D01*
X018391Y010091D01*
X018391Y012267D01*
X018343Y012315D01*
X018261Y012514D01*
X018261Y012728D01*
X018343Y012927D01*
X018495Y013079D01*
X018693Y013161D01*
X018908Y013161D01*
X019107Y013079D01*
X019259Y012927D01*
X019341Y012728D01*
X019341Y012561D01*
X019508Y012561D01*
X019707Y012479D01*
X019859Y012327D01*
X019941Y012128D01*
X019941Y011914D01*
X019859Y011715D01*
X019811Y011667D01*
X019811Y009639D01*
X019748Y009489D01*
X019633Y009373D01*
X015241Y004981D01*
X015241Y004914D01*
X015159Y004715D01*
X015007Y004563D01*
X014808Y004481D01*
X014593Y004481D01*
X014395Y004563D01*
X014243Y004715D01*
X014211Y004793D01*
X014211Y001939D01*
X014148Y001789D01*
X014033Y001673D01*
X014033Y001673D01*
X013333Y000973D01*
X013182Y000911D01*
X013019Y000911D01*
X006782Y000911D01*
X006619Y000911D01*
X006469Y000973D01*
X006053Y001389D01*
X005991Y001539D01*
X005991Y001702D01*
X005991Y004002D01*
X006053Y004153D01*
X006169Y004269D01*
X006769Y004869D01*
X006919Y004931D01*
X007082Y004931D01*
X007178Y004931D01*
X007268Y005021D01*
X007071Y005219D01*
X007071Y005823D01*
X007498Y006251D01*
X007891Y006251D01*
X007891Y007491D01*
X007498Y007491D01*
X007071Y007919D01*
X007071Y008523D01*
X007268Y008721D01*
X007071Y008919D01*
X007071Y009523D01*
X007268Y009721D01*
X007071Y009919D01*
X007071Y010523D01*
X007268Y010721D01*
X007071Y010919D01*
X007071Y011523D01*
X007159Y011611D01*
X006871Y011611D01*
X005548Y010289D01*
X005433Y010173D01*
X005282Y010111D01*
X002771Y010111D01*
X002770Y010107D01*
X002564Y009902D01*
X002296Y009791D01*
X002006Y009791D01*
X001737Y009902D01*
X001532Y010107D01*
X001421Y010376D01*
X001421Y010666D01*
X001532Y010934D01*
X001668Y011071D01*
X001632Y011107D01*
X001521Y011376D01*
X001521Y011666D01*
X001632Y011934D01*
X001668Y011971D01*
X001532Y012107D01*
X001421Y012376D01*
X001421Y012666D01*
X001532Y012934D01*
X001566Y012969D01*
X001521Y013079D01*
X001521Y013963D01*
X001576Y014095D01*
X001677Y014196D01*
X001809Y014251D01*
X002692Y014251D01*
X002825Y014196D01*
X002926Y014095D01*
X002981Y013963D01*
X002981Y013731D01*
X003747Y013731D01*
X003795Y013779D01*
X003993Y013861D01*
X004122Y013861D01*
X004129Y013879D01*
X004221Y013971D01*
X004129Y014063D01*
X004075Y014195D01*
X002826Y014195D01*
X002981Y013956D02*
X004207Y013956D01*
X004075Y014195D02*
X004075Y014716D01*
X002969Y015822D01*
X002853Y015938D01*
X002791Y016088D01*
X002791Y018051D01*
X002787Y018052D01*
X002582Y018257D01*
X002471Y018526D01*
X002471Y018816D01*
X002582Y019084D01*
X002787Y019290D01*
X003056Y019401D01*
X003346Y019401D01*
X003614Y019290D01*
X003751Y019153D01*
X003787Y019190D01*
X004056Y019301D01*
X004346Y019301D01*
X004589Y019200D01*
X004582Y019207D01*
X004471Y019476D01*
X004471Y019766D01*
X004582Y020034D01*
X004668Y020121D01*
X004582Y020207D01*
X004471Y020476D01*
X004471Y020766D01*
X004582Y021034D01*
X004787Y021240D01*
X005056Y021351D01*
X005346Y021351D01*
X005614Y021240D01*
X005820Y021034D01*
X005931Y020766D01*
X005931Y020476D01*
X005820Y020207D01*
X005733Y020121D01*
X005820Y020034D01*
X005931Y019766D01*
X005931Y019476D01*
X005820Y019207D01*
X005812Y019200D01*
X006056Y019301D01*
X006346Y019301D01*
X006614Y019190D01*
X006651Y019153D01*
X006787Y019290D01*
X007056Y019401D01*
X007346Y019401D01*
X007391Y019382D01*
X007391Y022507D01*
X006665Y022507D01*
X006533Y022561D01*
X006501Y022594D01*
X006468Y022561D01*
X006336Y022507D01*
X005563Y022507D01*
X005431Y022561D01*
X005329Y022663D01*
X005275Y022795D01*
X005275Y022811D01*
X004471Y022811D01*
X003929Y022270D01*
X003931Y022266D01*
X003931Y021976D01*
X003820Y021707D01*
X003614Y021502D01*
X003346Y021391D01*
X003056Y021391D01*
X002787Y021502D01*
X002701Y021589D01*
X002614Y021502D01*
X002346Y021391D01*
X002056Y021391D01*
X001787Y021502D01*
X001582Y021707D01*
X001471Y021976D01*
X001471Y022266D01*
X001582Y022534D01*
X001787Y022740D01*
X002056Y022851D01*
X002346Y022851D01*
X002614Y022740D01*
X002701Y022653D01*
X002787Y022740D01*
X003056Y022851D01*
X003346Y022851D01*
X003349Y022849D01*
X003953Y023453D01*
X004069Y023569D01*
X004219Y023631D01*
X005275Y023631D01*
X005275Y023647D01*
X005329Y023779D01*
X005431Y023880D01*
X005563Y023935D01*
X006336Y023935D01*
X006468Y023880D01*
X006501Y023848D01*
X006533Y023880D01*
X006665Y023935D01*
X006990Y023935D01*
X006990Y024016D01*
X006881Y024061D01*
X006779Y024163D01*
X006725Y024295D01*
X006725Y024816D01*
X005430Y026111D01*
X005282Y026111D01*
X005119Y026111D01*
X004969Y026173D01*
X004512Y026630D01*
X004243Y026630D01*
X004110Y026685D01*
X004009Y026786D01*
X003954Y026919D01*
X003954Y027704D01*
X003847Y027597D01*
X003847Y026919D01*
X003793Y026786D01*
X003691Y026685D01*
X003559Y026630D01*
X002811Y026630D01*
X002811Y026012D01*
X003559Y026012D01*
X003691Y025957D01*
X003793Y025856D01*
X003847Y025723D01*
X003847Y024753D01*
X003793Y024621D01*
X003691Y024520D01*
X003559Y024465D01*
X002589Y024465D01*
X002457Y024520D01*
X002355Y024621D01*
X002301Y024753D01*
X002301Y025141D01*
X002053Y025389D01*
X001991Y025539D01*
X001991Y025702D01*
X001991Y026419D01*
X001906Y026334D01*
X001652Y026188D01*
X001370Y026112D01*
X001077Y026112D01*
X000795Y026188D01*
X000621Y026288D01*
X000621Y003263D01*
X000665Y003339D01*
X000882Y003557D01*
X001149Y003711D01*
X001447Y003791D01*
X001755Y003791D01*
X002052Y003711D01*
X002319Y003557D01*
X002537Y003339D01*
X002691Y003073D01*
X002771Y002775D01*
X002771Y002467D01*
X002691Y002169D01*
X002537Y001903D01*
X002319Y001685D01*
X002052Y001531D01*
X001755Y001451D01*
X001447Y001451D01*
X001149Y001531D01*
X000882Y001685D01*
X000665Y001903D01*
X000621Y001978D01*
X000621Y001791D02*
X000776Y001791D01*
X000621Y001552D02*
X001112Y001552D01*
X000621Y001314D02*
X006128Y001314D01*
X005991Y001552D02*
X002090Y001552D01*
X002425Y001791D02*
X005991Y001791D01*
X005991Y002029D02*
X004373Y002029D01*
X004307Y001963D02*
X004459Y002115D01*
X004541Y002314D01*
X004541Y002528D01*
X004459Y002727D01*
X004307Y002879D01*
X004108Y002961D01*
X003893Y002961D01*
X003695Y002879D01*
X003543Y002727D01*
X003461Y002528D01*
X003461Y002314D01*
X003543Y002115D01*
X003695Y001963D01*
X003893Y001881D01*
X004108Y001881D01*
X004307Y001963D01*
X004522Y002268D02*
X005991Y002268D01*
X005991Y002506D02*
X004541Y002506D01*
X004440Y002745D02*
X005991Y002745D01*
X005991Y002983D02*
X002715Y002983D01*
X002771Y002745D02*
X003561Y002745D01*
X003461Y002506D02*
X002771Y002506D01*
X002717Y002268D02*
X003480Y002268D01*
X003629Y002029D02*
X002610Y002029D01*
X002605Y003222D02*
X005991Y003222D01*
X005991Y003461D02*
X002416Y003461D01*
X002073Y003699D02*
X005991Y003699D01*
X005991Y003938D02*
X000621Y003938D01*
X000621Y004176D02*
X006076Y004176D01*
X006315Y004415D02*
X000621Y004415D01*
X000621Y004653D02*
X006553Y004653D01*
X006825Y004892D02*
X000621Y004892D01*
X000621Y005130D02*
X007159Y005130D01*
X007071Y005369D02*
X000621Y005369D01*
X000621Y005607D02*
X007071Y005607D01*
X007094Y005846D02*
X005365Y005846D01*
X005407Y005863D02*
X005559Y006015D01*
X005641Y006214D01*
X005641Y006428D01*
X005559Y006627D01*
X005407Y006779D01*
X005208Y006861D01*
X004993Y006861D01*
X004795Y006779D01*
X004643Y006627D01*
X004561Y006428D01*
X004561Y006214D01*
X004643Y006015D01*
X004795Y005863D01*
X004993Y005781D01*
X005208Y005781D01*
X005407Y005863D01*
X005587Y006085D02*
X007332Y006085D01*
X007891Y006323D02*
X005641Y006323D01*
X005586Y006562D02*
X007891Y006562D01*
X007891Y006800D02*
X005355Y006800D01*
X004847Y006800D02*
X002355Y006800D01*
X002407Y006779D02*
X002208Y006861D01*
X001993Y006861D01*
X001795Y006779D01*
X001643Y006627D01*
X001561Y006428D01*
X001561Y006214D01*
X001643Y006015D01*
X001795Y005863D01*
X001993Y005781D01*
X002208Y005781D01*
X002407Y005863D01*
X002559Y006015D01*
X002641Y006214D01*
X002641Y006428D01*
X002559Y006627D01*
X002407Y006779D01*
X002586Y006562D02*
X004616Y006562D01*
X004561Y006323D02*
X002641Y006323D01*
X002587Y006085D02*
X004614Y006085D01*
X004836Y005846D02*
X002365Y005846D01*
X001836Y005846D02*
X000621Y005846D01*
X000621Y006085D02*
X001614Y006085D01*
X001561Y006323D02*
X000621Y006323D01*
X000621Y006562D02*
X001616Y006562D01*
X001847Y006800D02*
X000621Y006800D01*
X000621Y007039D02*
X007891Y007039D01*
X007891Y007277D02*
X000621Y007277D01*
X000621Y007516D02*
X007474Y007516D01*
X007235Y007754D02*
X000621Y007754D01*
X000621Y007993D02*
X007071Y007993D01*
X007071Y008231D02*
X000621Y008231D01*
X000621Y008470D02*
X007071Y008470D01*
X007256Y008709D02*
X000621Y008709D01*
X000621Y008947D02*
X007071Y008947D01*
X007071Y009186D02*
X000621Y009186D01*
X000621Y009424D02*
X007071Y009424D01*
X007210Y009663D02*
X000621Y009663D01*
X000621Y009901D02*
X001739Y009901D01*
X001519Y010140D02*
X000621Y010140D01*
X000621Y010378D02*
X001421Y010378D01*
X001421Y010617D02*
X000621Y010617D01*
X000621Y010855D02*
X001499Y010855D01*
X001645Y011094D02*
X000621Y011094D01*
X000621Y011332D02*
X001539Y011332D01*
X001521Y011571D02*
X000621Y011571D01*
X000621Y011810D02*
X001580Y011810D01*
X001591Y012048D02*
X000621Y012048D01*
X000621Y012287D02*
X001458Y012287D01*
X001421Y012525D02*
X000621Y012525D01*
X000621Y012764D02*
X001461Y012764D01*
X001553Y013002D02*
X000621Y013002D01*
X000621Y013241D02*
X001521Y013241D01*
X001521Y013479D02*
X000621Y013479D01*
X000621Y013718D02*
X001521Y013718D01*
X001521Y013956D02*
X000621Y013956D01*
X000621Y014195D02*
X001676Y014195D01*
X000621Y014434D02*
X004075Y014434D01*
X004075Y014672D02*
X000621Y014672D01*
X000621Y014911D02*
X003880Y014911D01*
X003642Y015149D02*
X000621Y015149D01*
X000621Y015388D02*
X003403Y015388D01*
X003164Y015626D02*
X000621Y015626D01*
X000621Y015865D02*
X002926Y015865D01*
X002791Y016103D02*
X000621Y016103D01*
X000621Y016342D02*
X002791Y016342D01*
X002791Y016580D02*
X000621Y016580D01*
X000621Y016819D02*
X002791Y016819D01*
X002791Y017058D02*
X000621Y017058D01*
X000621Y017296D02*
X002791Y017296D01*
X002791Y017535D02*
X000621Y017535D01*
X000621Y017773D02*
X002791Y017773D01*
X002791Y018012D02*
X000621Y018012D01*
X000621Y018250D02*
X002589Y018250D01*
X002486Y018489D02*
X000621Y018489D01*
X000621Y018727D02*
X002471Y018727D01*
X002533Y018966D02*
X000621Y018966D01*
X000621Y019204D02*
X002702Y019204D01*
X001759Y020115D02*
X001607Y019963D01*
X001408Y019881D01*
X001193Y019881D01*
X000995Y019963D01*
X000843Y020115D01*
X000761Y020314D01*
X000761Y020528D01*
X000843Y020727D01*
X000995Y020879D01*
X001193Y020961D01*
X001408Y020961D01*
X001607Y020879D01*
X001759Y020727D01*
X001841Y020528D01*
X001841Y020314D01*
X001759Y020115D01*
X001777Y020159D02*
X004631Y020159D01*
X004535Y019920D02*
X001503Y019920D01*
X001099Y019920D02*
X000621Y019920D01*
X000621Y019681D02*
X004471Y019681D01*
X004484Y019443D02*
X000621Y019443D01*
X000621Y020159D02*
X000825Y020159D01*
X000761Y020397D02*
X000621Y020397D01*
X000621Y020636D02*
X000805Y020636D01*
X000621Y020874D02*
X000990Y020874D01*
X000621Y021113D02*
X004660Y021113D01*
X004516Y020874D02*
X001611Y020874D01*
X001796Y020636D02*
X004471Y020636D01*
X004503Y020397D02*
X001841Y020397D01*
X000621Y021351D02*
X007391Y021351D01*
X007391Y021113D02*
X005741Y021113D01*
X005886Y020874D02*
X007391Y020874D01*
X007391Y020636D02*
X005931Y020636D01*
X005898Y020397D02*
X007391Y020397D01*
X007391Y020159D02*
X005771Y020159D01*
X005867Y019920D02*
X007391Y019920D01*
X007391Y019681D02*
X005931Y019681D01*
X005917Y019443D02*
X007391Y019443D01*
X006702Y019204D02*
X006579Y019204D01*
X005823Y019204D02*
X005817Y019204D01*
X004585Y019204D02*
X004579Y019204D01*
X003823Y019204D02*
X003700Y019204D01*
X003651Y018089D02*
X003787Y017952D01*
X004056Y017841D01*
X004346Y017841D01*
X004534Y017919D01*
X004471Y017766D01*
X004471Y017476D01*
X004582Y017207D01*
X004668Y017121D01*
X004582Y017034D01*
X004471Y016766D01*
X004471Y016476D01*
X004582Y016207D01*
X004787Y016002D01*
X005056Y015891D01*
X005346Y015891D01*
X005349Y015892D01*
X005442Y015800D01*
X005442Y015326D01*
X005333Y015280D01*
X005301Y015248D01*
X005268Y015280D01*
X005136Y015335D01*
X004615Y015335D01*
X003611Y016340D01*
X003611Y018051D01*
X003614Y018052D01*
X003651Y018089D01*
X003611Y018012D02*
X003728Y018012D01*
X003611Y017773D02*
X004474Y017773D01*
X004471Y017535D02*
X003611Y017535D01*
X003611Y017296D02*
X004545Y017296D01*
X004605Y017058D02*
X003611Y017058D01*
X003611Y016819D02*
X004493Y016819D01*
X004471Y016580D02*
X003611Y016580D01*
X003611Y016342D02*
X004526Y016342D01*
X004686Y016103D02*
X003847Y016103D01*
X004086Y015865D02*
X005377Y015865D01*
X005442Y015626D02*
X004324Y015626D01*
X004563Y015388D02*
X005442Y015388D01*
X006262Y015388D02*
X006491Y015388D01*
X006371Y015280D02*
X006472Y015179D01*
X006491Y015134D01*
X006491Y015751D01*
X006262Y015980D01*
X006262Y015326D01*
X006371Y015280D01*
X006485Y015149D02*
X006491Y015149D01*
X006491Y015626D02*
X006262Y015626D01*
X006262Y015865D02*
X006377Y015865D01*
X007060Y016342D02*
X007391Y016342D01*
X007248Y016153D02*
X007133Y016269D01*
X005929Y017472D01*
X005931Y017476D01*
X005931Y017766D01*
X005867Y017919D01*
X006056Y017841D01*
X006346Y017841D01*
X006614Y017952D01*
X006751Y018089D01*
X006787Y018052D01*
X007056Y017941D01*
X007346Y017941D01*
X007391Y017960D01*
X007391Y015375D01*
X007343Y015327D01*
X007311Y015249D01*
X007311Y016002D01*
X007248Y016153D01*
X007269Y016103D02*
X007391Y016103D01*
X007391Y015865D02*
X007311Y015865D01*
X007311Y015626D02*
X007391Y015626D01*
X007391Y015388D02*
X007311Y015388D01*
X007311Y014793D02*
X007343Y014715D01*
X007495Y014563D01*
X007693Y014481D01*
X007908Y014481D01*
X008107Y014563D01*
X008259Y014715D01*
X008341Y014914D01*
X008341Y015128D01*
X008259Y015327D01*
X008211Y015375D01*
X008211Y023651D01*
X008566Y024007D01*
X008889Y024007D01*
X009021Y024061D01*
X009122Y024163D01*
X009177Y024295D01*
X009177Y025147D01*
X009122Y025279D01*
X009043Y025358D01*
X009171Y025411D01*
X009272Y025513D01*
X009327Y025645D01*
X010847Y025645D01*
X010877Y025571D02*
X011028Y025421D01*
X010877Y025271D01*
X010783Y025044D01*
X010783Y024798D01*
X010877Y024571D01*
X011028Y024421D01*
X010877Y024271D01*
X010783Y024044D01*
X010783Y023798D01*
X010877Y023571D01*
X011028Y023421D01*
X010877Y023271D01*
X010783Y023044D01*
X010783Y022798D01*
X010877Y022571D01*
X011028Y022421D01*
X010877Y022271D01*
X010783Y022044D01*
X010783Y021798D01*
X010877Y021571D01*
X011028Y021421D01*
X010877Y021271D01*
X010783Y021044D01*
X010783Y020798D01*
X010877Y020571D01*
X011028Y020421D01*
X010877Y020271D01*
X010783Y020044D01*
X010783Y019798D01*
X010877Y019571D01*
X011028Y019421D01*
X010877Y019271D01*
X010783Y019044D01*
X010783Y018798D01*
X010877Y018571D01*
X011028Y018421D01*
X010877Y018271D01*
X010783Y018044D01*
X010783Y017798D01*
X010877Y017571D01*
X011028Y017421D01*
X010877Y017271D01*
X010783Y017044D01*
X010783Y016798D01*
X010877Y016571D01*
X011028Y016421D01*
X010877Y016271D01*
X010783Y016044D01*
X010783Y015798D01*
X010877Y015571D01*
X011028Y015421D01*
X010877Y015271D01*
X010783Y015044D01*
X010783Y014798D01*
X010877Y014571D01*
X011028Y014421D01*
X010877Y014271D01*
X010783Y014044D01*
X010783Y013798D01*
X010877Y013571D01*
X011028Y013421D01*
X010938Y013331D01*
X010619Y013331D01*
X010469Y013269D01*
X010353Y013153D01*
X009953Y012753D01*
X009891Y012602D01*
X009891Y012439D01*
X009891Y010791D01*
X009731Y010631D01*
X009423Y010631D01*
X009333Y010721D01*
X009531Y010919D01*
X009531Y011523D01*
X009103Y011951D01*
X008651Y011951D01*
X008381Y012221D01*
X008641Y012481D01*
X008708Y012481D01*
X008907Y012563D01*
X009059Y012715D01*
X009141Y012914D01*
X009141Y013128D01*
X009059Y013327D01*
X008907Y013479D01*
X008708Y013561D01*
X008493Y013561D01*
X008295Y013479D01*
X008143Y013327D01*
X008061Y013128D01*
X008061Y013061D01*
X007731Y012731D01*
X006616Y012731D01*
X006551Y012736D01*
X006535Y012731D01*
X006519Y012731D01*
X006458Y012706D01*
X006396Y012685D01*
X006387Y012678D01*
X006472Y012763D01*
X006527Y012895D01*
X006527Y012911D01*
X006682Y012911D01*
X006833Y012973D01*
X006948Y013089D01*
X007248Y013389D01*
X007311Y013539D01*
X007311Y013702D01*
X007311Y014793D01*
X007311Y014672D02*
X007386Y014672D01*
X007311Y014434D02*
X011015Y014434D01*
X010846Y014195D02*
X007311Y014195D01*
X007311Y013956D02*
X010783Y013956D01*
X010816Y013718D02*
X007311Y013718D01*
X007286Y013479D02*
X008297Y013479D01*
X008107Y013241D02*
X007100Y013241D01*
X006862Y013002D02*
X008002Y013002D01*
X007764Y012764D02*
X006473Y012764D01*
X006355Y012655D02*
X006309Y012636D01*
X006293Y012597D01*
X006322Y012622D01*
X006355Y012655D01*
X006491Y013834D02*
X006472Y013879D01*
X006380Y013971D01*
X006472Y014063D01*
X006491Y014108D01*
X006491Y013834D01*
X006491Y013956D02*
X006395Y013956D01*
X008216Y014672D02*
X010835Y014672D01*
X010783Y014911D02*
X008340Y014911D01*
X008332Y015149D02*
X010827Y015149D01*
X010994Y015388D02*
X008211Y015388D01*
X008211Y015626D02*
X010854Y015626D01*
X010783Y015865D02*
X008211Y015865D01*
X008211Y016103D02*
X010808Y016103D01*
X010949Y016342D02*
X008211Y016342D01*
X008211Y016580D02*
X010873Y016580D01*
X010783Y016819D02*
X008211Y016819D01*
X008211Y017058D02*
X010789Y017058D01*
X010903Y017296D02*
X008211Y017296D01*
X008211Y017535D02*
X010914Y017535D01*
X010794Y017773D02*
X008211Y017773D01*
X008211Y018012D02*
X010783Y018012D01*
X010869Y018250D02*
X008211Y018250D01*
X008211Y018489D02*
X010960Y018489D01*
X010813Y018727D02*
X008211Y018727D01*
X008211Y018966D02*
X010783Y018966D01*
X010850Y019204D02*
X008211Y019204D01*
X008211Y019443D02*
X011006Y019443D01*
X010832Y019681D02*
X008211Y019681D01*
X008211Y019920D02*
X010783Y019920D01*
X010831Y020159D02*
X008211Y020159D01*
X008211Y020397D02*
X011004Y020397D01*
X010851Y020636D02*
X008211Y020636D01*
X008211Y020874D02*
X010783Y020874D01*
X010812Y021113D02*
X008211Y021113D01*
X008211Y021351D02*
X010958Y021351D01*
X010870Y021590D02*
X008211Y021590D01*
X008211Y021828D02*
X010783Y021828D01*
X010793Y022067D02*
X008211Y022067D01*
X008211Y022305D02*
X010912Y022305D01*
X010904Y022544D02*
X008211Y022544D01*
X008211Y022783D02*
X010790Y022783D01*
X010783Y023021D02*
X008211Y023021D01*
X008211Y023260D02*
X010873Y023260D01*
X010950Y023498D02*
X008211Y023498D01*
X008296Y023737D02*
X010809Y023737D01*
X010783Y023975D02*
X008535Y023975D01*
X009143Y024214D02*
X010854Y024214D01*
X010996Y024452D02*
X009177Y024452D01*
X009177Y024691D02*
X010828Y024691D01*
X010783Y024929D02*
X009177Y024929D01*
X009168Y025168D02*
X010835Y025168D01*
X011013Y025407D02*
X009159Y025407D01*
X009327Y025645D02*
X009327Y026497D01*
X009311Y026536D01*
X009311Y027138D01*
X009368Y027161D01*
X009401Y027194D01*
X009433Y027161D01*
X009565Y027107D01*
X010339Y027107D01*
X010471Y027161D01*
X010572Y027263D01*
X010627Y027395D01*
X010627Y027511D01*
X010938Y027511D01*
X011028Y027421D01*
X010877Y027271D01*
X010783Y027044D01*
X010783Y026798D01*
X010877Y026571D01*
X011028Y026421D01*
X010877Y026271D01*
X010783Y026044D01*
X010783Y025798D01*
X010877Y025571D01*
X010783Y025884D02*
X009327Y025884D01*
X009327Y026122D02*
X010816Y026122D01*
X010967Y026361D02*
X009327Y026361D01*
X009311Y026599D02*
X010866Y026599D01*
X010783Y026838D02*
X009311Y026838D01*
X009311Y027076D02*
X010797Y027076D01*
X010922Y027315D02*
X010594Y027315D01*
X010592Y028331D02*
X010572Y028379D01*
X010471Y028480D01*
X010339Y028535D01*
X009565Y028535D01*
X009433Y028480D01*
X009401Y028448D01*
X009368Y028480D01*
X009260Y028526D01*
X009260Y029582D01*
X010153Y028689D01*
X010269Y028573D01*
X010419Y028511D01*
X010938Y028511D01*
X011028Y028421D01*
X010938Y028331D01*
X010592Y028331D01*
X010405Y028508D02*
X010941Y028508D01*
X010096Y028746D02*
X009260Y028746D01*
X009260Y028985D02*
X009857Y028985D01*
X009619Y029223D02*
X009260Y029223D01*
X009260Y029462D02*
X009380Y029462D01*
X010063Y029939D02*
X010783Y029939D01*
X010783Y030044D02*
X010783Y029798D01*
X010877Y029571D01*
X011028Y029421D01*
X010938Y029331D01*
X010671Y029331D01*
X009831Y030171D01*
X009831Y030711D01*
X011611Y030711D01*
X011438Y030538D01*
X011278Y030538D01*
X011051Y030444D01*
X010877Y030271D01*
X010783Y030044D01*
X010839Y030177D02*
X009831Y030177D01*
X009831Y030416D02*
X011023Y030416D01*
X011555Y030654D02*
X009831Y030654D01*
X010301Y029700D02*
X010824Y029700D01*
X010987Y029462D02*
X010540Y029462D01*
X009499Y028508D02*
X009303Y028508D01*
X007391Y028508D02*
X004758Y028508D01*
X004996Y028746D02*
X007391Y028746D01*
X007391Y028985D02*
X005235Y028985D01*
X005473Y029223D02*
X007391Y029223D01*
X007391Y029462D02*
X005712Y029462D01*
X005950Y029700D02*
X006691Y029700D01*
X006687Y029702D02*
X006956Y029591D01*
X007246Y029591D01*
X007364Y029640D01*
X007391Y029622D01*
X007391Y027980D01*
X007260Y028111D01*
X007007Y028257D01*
X006724Y028333D01*
X006432Y028333D01*
X006149Y028257D01*
X005896Y028111D01*
X005689Y027904D01*
X005543Y027651D01*
X005501Y027494D01*
X005501Y027889D01*
X005446Y028021D01*
X005345Y028122D01*
X005213Y028177D01*
X004427Y028177D01*
X006161Y029911D01*
X006480Y029911D01*
X006482Y029907D01*
X006687Y029702D01*
X005759Y030669D02*
X005644Y030553D01*
X003911Y028820D01*
X003911Y028902D01*
X003911Y030351D01*
X004271Y030711D01*
X005862Y030711D01*
X005759Y030669D01*
X005745Y030654D02*
X004214Y030654D01*
X003976Y030416D02*
X005507Y030416D01*
X005268Y030177D02*
X003911Y030177D01*
X003911Y029939D02*
X005029Y029939D01*
X004791Y029700D02*
X003911Y029700D01*
X003911Y029462D02*
X004552Y029462D01*
X004314Y029223D02*
X003911Y029223D01*
X003911Y028985D02*
X004075Y028985D01*
X004519Y028269D02*
X006193Y028269D01*
X005815Y028031D02*
X005436Y028031D01*
X005501Y027792D02*
X005624Y027792D01*
X005517Y027553D02*
X005501Y027553D01*
X005501Y026951D02*
X005501Y026931D01*
X005506Y026931D01*
X005501Y026951D01*
X005092Y026122D02*
X002811Y026122D01*
X002811Y026361D02*
X004781Y026361D01*
X004543Y026599D02*
X002811Y026599D01*
X003814Y026838D02*
X003988Y026838D01*
X003954Y027076D02*
X003847Y027076D01*
X003847Y027315D02*
X003954Y027315D01*
X003954Y027553D02*
X003847Y027553D01*
X002846Y028746D02*
X000621Y028746D01*
X000621Y028508D02*
X002208Y028508D01*
X002018Y028269D02*
X001609Y028269D01*
X001986Y028031D02*
X001991Y028031D01*
X000839Y028269D02*
X000621Y028269D01*
X000621Y028985D02*
X003085Y028985D01*
X003091Y029223D02*
X000621Y029223D01*
X000621Y029462D02*
X001406Y029462D01*
X001795Y029462D02*
X003091Y029462D01*
X003091Y029700D02*
X002335Y029700D01*
X002558Y029939D02*
X003091Y029939D01*
X003091Y030177D02*
X002693Y030177D01*
X002757Y030416D02*
X003091Y030416D01*
X003112Y030654D02*
X002771Y030654D01*
X002739Y030893D02*
X003293Y030893D01*
X003532Y031132D02*
X002657Y031132D01*
X002506Y031370D02*
X003770Y031370D01*
X000951Y031597D02*
X000882Y031557D01*
X000665Y031339D01*
X000621Y031263D01*
X000621Y031597D01*
X000951Y031597D01*
X000695Y031370D02*
X000621Y031370D01*
X000621Y029939D02*
X000644Y029939D01*
X000621Y029700D02*
X000867Y029700D01*
X001932Y026361D02*
X001991Y026361D01*
X001991Y026122D02*
X001408Y026122D01*
X001039Y026122D02*
X000621Y026122D01*
X000621Y025884D02*
X001991Y025884D01*
X001991Y025645D02*
X000621Y025645D01*
X000621Y025407D02*
X002046Y025407D01*
X002274Y025168D02*
X000621Y025168D01*
X000621Y024929D02*
X002301Y024929D01*
X002326Y024691D02*
X000621Y024691D01*
X000621Y024452D02*
X006725Y024452D01*
X006725Y024691D02*
X005475Y024691D01*
X005501Y024753D02*
X005446Y024621D01*
X005345Y024520D01*
X005213Y024465D01*
X004243Y024465D01*
X004110Y024520D01*
X004009Y024621D01*
X003954Y024753D01*
X003954Y025723D01*
X004009Y025856D01*
X004110Y025957D01*
X004243Y026012D01*
X005213Y026012D01*
X005345Y025957D01*
X005446Y025856D01*
X005501Y025723D01*
X005501Y024753D01*
X005501Y024929D02*
X006611Y024929D01*
X006373Y025168D02*
X005501Y025168D01*
X005501Y025407D02*
X006134Y025407D01*
X005896Y025645D02*
X005501Y025645D01*
X005418Y025884D02*
X005657Y025884D01*
X006588Y026112D02*
X006724Y026112D01*
X006875Y026152D01*
X006875Y025826D01*
X006588Y026112D01*
X006762Y026122D02*
X006875Y026122D01*
X006875Y025884D02*
X006817Y025884D01*
X006758Y024214D02*
X000621Y024214D01*
X000621Y023975D02*
X006990Y023975D01*
X005312Y023737D02*
X000621Y023737D01*
X000621Y023498D02*
X003998Y023498D01*
X003760Y023260D02*
X000621Y023260D01*
X000621Y023021D02*
X003521Y023021D01*
X002891Y022783D02*
X002511Y022783D01*
X001891Y022783D02*
X000621Y022783D01*
X000621Y022544D02*
X001591Y022544D01*
X001487Y022305D02*
X000621Y022305D01*
X000621Y022067D02*
X001471Y022067D01*
X001532Y021828D02*
X000621Y021828D01*
X000621Y021590D02*
X001699Y021590D01*
X003702Y021590D02*
X007391Y021590D01*
X007391Y021828D02*
X003870Y021828D01*
X003931Y022067D02*
X007391Y022067D01*
X007391Y022305D02*
X003965Y022305D01*
X004204Y022544D02*
X005473Y022544D01*
X005280Y022783D02*
X004442Y022783D01*
X006426Y022544D02*
X006575Y022544D01*
X003980Y024691D02*
X003822Y024691D01*
X003847Y024929D02*
X003954Y024929D01*
X003954Y025168D02*
X003847Y025168D01*
X003847Y025407D02*
X003954Y025407D01*
X003954Y025645D02*
X003847Y025645D01*
X003764Y025884D02*
X004037Y025884D01*
X006963Y028269D02*
X007391Y028269D01*
X007391Y028031D02*
X007340Y028031D01*
X012774Y028421D02*
X012924Y028571D01*
X013018Y028798D01*
X013018Y029044D01*
X012924Y029271D01*
X012774Y029421D01*
X012924Y029571D01*
X013018Y029798D01*
X013018Y030044D01*
X012990Y030111D01*
X026231Y030111D01*
X027653Y028689D01*
X027769Y028573D01*
X027919Y028511D01*
X027938Y028511D01*
X028028Y028421D01*
X027877Y028271D01*
X027783Y028044D01*
X027783Y027798D01*
X027877Y027571D01*
X028028Y027421D01*
X027877Y027271D01*
X027811Y027110D01*
X027811Y027302D01*
X027748Y027453D01*
X027633Y027569D01*
X027033Y028169D01*
X026882Y028231D01*
X026862Y028231D01*
X026862Y029286D01*
X026807Y029419D01*
X026706Y029520D01*
X026574Y029575D01*
X026140Y029575D01*
X026125Y029581D01*
X025391Y029581D01*
X025376Y029575D01*
X025375Y029575D01*
X025243Y029520D01*
X025142Y029419D01*
X025087Y029286D01*
X025087Y028309D01*
X025055Y028277D01*
X025000Y028144D01*
X025000Y027581D01*
X025055Y027449D01*
X025156Y027347D01*
X025288Y027293D01*
X026291Y027293D01*
X026424Y027347D01*
X026487Y027411D01*
X026631Y027411D01*
X026991Y027051D01*
X026991Y023611D01*
X026580Y024022D01*
X026580Y024207D01*
X026525Y024340D01*
X026424Y024441D01*
X026291Y024496D01*
X025288Y024496D01*
X025156Y024441D01*
X025055Y024340D01*
X025000Y024207D01*
X025000Y023644D01*
X025055Y023512D01*
X025156Y023410D01*
X025288Y023356D01*
X026086Y023356D01*
X026491Y022951D01*
X026491Y022731D01*
X025647Y022731D01*
X025515Y022676D01*
X025414Y022574D01*
X025359Y022442D01*
X025359Y021315D01*
X025414Y021182D01*
X025515Y021081D01*
X025647Y021026D01*
X026491Y021026D01*
X026491Y017391D01*
X026031Y016931D01*
X024193Y016931D01*
X024320Y017057D01*
X024431Y017326D01*
X024431Y017616D01*
X024320Y017884D01*
X024176Y018028D01*
X024176Y019306D01*
X024739Y019306D01*
X024866Y019359D01*
X024973Y019314D01*
X025628Y019314D01*
X025761Y019369D01*
X025862Y019470D01*
X025917Y019603D01*
X025917Y020179D01*
X025862Y020311D01*
X025761Y020413D01*
X025628Y020467D01*
X024973Y020467D01*
X024967Y020465D01*
X024871Y020561D01*
X024739Y020616D01*
X024123Y020616D01*
X024111Y020611D01*
X024111Y020902D01*
X024048Y021053D01*
X023933Y021169D01*
X023533Y021569D01*
X023382Y021631D01*
X023219Y021631D01*
X019319Y021631D01*
X019169Y021569D01*
X019053Y021453D01*
X018901Y021301D01*
X018748Y021453D01*
X018633Y021569D01*
X018482Y021631D01*
X015663Y021631D01*
X015645Y021637D01*
X015582Y021631D01*
X015519Y021631D01*
X015502Y021624D01*
X015482Y021622D01*
X015427Y021593D01*
X015369Y021569D01*
X015355Y021555D01*
X015338Y021546D01*
X015331Y021537D01*
X015331Y022442D01*
X015276Y022574D01*
X015175Y022676D01*
X015042Y022731D01*
X014199Y022731D01*
X014148Y022853D01*
X013733Y023269D01*
X013582Y023331D01*
X013419Y023331D01*
X012864Y023331D01*
X012774Y023421D01*
X012924Y023571D01*
X013018Y023798D01*
X013018Y024044D01*
X012924Y024271D01*
X012774Y024421D01*
X012924Y024571D01*
X013018Y024798D01*
X013018Y025044D01*
X012924Y025271D01*
X012774Y025421D01*
X012924Y025571D01*
X013018Y025798D01*
X013018Y026044D01*
X012924Y026271D01*
X012774Y026421D01*
X012924Y026571D01*
X013018Y026798D01*
X013018Y027044D01*
X012924Y027271D01*
X012774Y027421D01*
X012924Y027571D01*
X013018Y027798D01*
X013018Y028044D01*
X012924Y028271D01*
X012774Y028421D01*
X012861Y028508D02*
X013826Y028508D01*
X013826Y028537D02*
X013881Y028670D01*
X013982Y028771D01*
X014115Y028826D01*
X015313Y028826D01*
X015445Y028771D01*
X015547Y028670D01*
X015601Y028537D01*
X015601Y027401D01*
X015547Y027268D01*
X015445Y027167D01*
X015313Y027112D01*
X014115Y027112D01*
X013982Y027167D01*
X013881Y027268D01*
X013826Y027401D01*
X013826Y028537D01*
X013958Y028746D02*
X012997Y028746D01*
X013018Y028985D02*
X025087Y028985D01*
X025087Y029223D02*
X012944Y029223D01*
X012815Y029462D02*
X025185Y029462D01*
X025087Y028746D02*
X015470Y028746D01*
X015601Y028508D02*
X025087Y028508D01*
X025051Y028269D02*
X015601Y028269D01*
X015601Y028031D02*
X025000Y028031D01*
X025000Y027792D02*
X023793Y027792D01*
X023859Y027727D02*
X023707Y027879D01*
X023508Y027961D01*
X023293Y027961D01*
X023095Y027879D01*
X022943Y027727D01*
X022861Y027528D01*
X022861Y027314D01*
X022943Y027115D01*
X023095Y026963D01*
X023293Y026881D01*
X023508Y026881D01*
X023707Y026963D01*
X023859Y027115D01*
X023941Y027314D01*
X023941Y027528D01*
X023859Y027727D01*
X023930Y027553D02*
X025011Y027553D01*
X025234Y027315D02*
X023941Y027315D01*
X023820Y027076D02*
X026966Y027076D01*
X026991Y026838D02*
X020545Y026838D01*
X020607Y026863D02*
X020759Y027015D01*
X020841Y027214D01*
X020841Y027428D01*
X020759Y027627D01*
X020607Y027779D01*
X020408Y027861D01*
X020193Y027861D01*
X019995Y027779D01*
X019843Y027627D01*
X019761Y027428D01*
X019761Y027214D01*
X019843Y027015D01*
X019995Y026863D01*
X020193Y026781D01*
X020408Y026781D01*
X020607Y026863D01*
X020784Y027076D02*
X022982Y027076D01*
X022861Y027315D02*
X020841Y027315D01*
X020789Y027553D02*
X022871Y027553D01*
X023008Y027792D02*
X020575Y027792D01*
X020027Y027792D02*
X017175Y027792D01*
X017207Y027779D02*
X017008Y027861D01*
X016793Y027861D01*
X016595Y027779D01*
X016443Y027627D01*
X016361Y027428D01*
X016361Y027214D01*
X016443Y027015D01*
X016595Y026863D01*
X016793Y026781D01*
X017008Y026781D01*
X017207Y026863D01*
X017359Y027015D01*
X017441Y027214D01*
X017441Y027428D01*
X017359Y027627D01*
X017207Y027779D01*
X017389Y027553D02*
X019813Y027553D01*
X019761Y027315D02*
X017441Y027315D01*
X017384Y027076D02*
X019818Y027076D01*
X020056Y026838D02*
X017145Y026838D01*
X016656Y026838D02*
X013018Y026838D01*
X013005Y027076D02*
X016418Y027076D01*
X016361Y027315D02*
X015566Y027315D01*
X015601Y027553D02*
X016413Y027553D01*
X016627Y027792D02*
X015601Y027792D01*
X013826Y027792D02*
X013016Y027792D01*
X013018Y028031D02*
X013826Y028031D01*
X013826Y028269D02*
X012925Y028269D01*
X012906Y027553D02*
X013826Y027553D01*
X013862Y027315D02*
X012880Y027315D01*
X012936Y026599D02*
X026991Y026599D01*
X026991Y026361D02*
X012834Y026361D01*
X012986Y026122D02*
X026991Y026122D01*
X026991Y025884D02*
X013018Y025884D01*
X012955Y025645D02*
X026991Y025645D01*
X026991Y025407D02*
X012788Y025407D01*
X012967Y025168D02*
X026991Y025168D01*
X026991Y024929D02*
X013018Y024929D01*
X012974Y024691D02*
X026991Y024691D01*
X026991Y024452D02*
X026396Y024452D01*
X026577Y024214D02*
X026991Y024214D01*
X026991Y023975D02*
X026626Y023975D01*
X026865Y023737D02*
X026991Y023737D01*
X027811Y023732D02*
X027811Y023110D01*
X027877Y023271D01*
X028028Y023421D01*
X027877Y023571D01*
X027811Y023732D01*
X027811Y023498D02*
X027950Y023498D01*
X027873Y023260D02*
X027811Y023260D01*
X027811Y022732D02*
X027877Y022571D01*
X028028Y022421D01*
X027877Y022271D01*
X027811Y022110D01*
X027811Y022732D01*
X027811Y022544D02*
X027904Y022544D01*
X027912Y022305D02*
X027811Y022305D01*
X027811Y021732D02*
X027877Y021571D01*
X028028Y021421D01*
X027877Y021271D01*
X027811Y021110D01*
X027811Y021732D01*
X027811Y021590D02*
X027870Y021590D01*
X027811Y021351D02*
X027958Y021351D01*
X027811Y021113D02*
X027812Y021113D01*
X027811Y020732D02*
X027877Y020571D01*
X028028Y020421D01*
X027877Y020271D01*
X027811Y020110D01*
X027811Y020732D01*
X027811Y020636D02*
X027851Y020636D01*
X027811Y020397D02*
X028004Y020397D01*
X027831Y020159D02*
X027811Y020159D01*
X027811Y019732D02*
X027877Y019571D01*
X028028Y019421D01*
X027877Y019271D01*
X027811Y019110D01*
X027811Y019732D01*
X027811Y019681D02*
X027832Y019681D01*
X027811Y019443D02*
X028006Y019443D01*
X027850Y019204D02*
X027811Y019204D01*
X027811Y018732D02*
X027877Y018571D01*
X028028Y018421D01*
X027877Y018271D01*
X027811Y018110D01*
X027811Y018732D01*
X027811Y018727D02*
X027813Y018727D01*
X027811Y018489D02*
X027960Y018489D01*
X027869Y018250D02*
X027811Y018250D01*
X027811Y017732D02*
X027877Y017571D01*
X028028Y017421D01*
X027877Y017271D01*
X027811Y017110D01*
X027811Y017732D01*
X027811Y017535D02*
X027914Y017535D01*
X027903Y017296D02*
X027811Y017296D01*
X027811Y016732D02*
X027877Y016571D01*
X028028Y016421D01*
X027877Y016271D01*
X027783Y016044D01*
X027783Y015798D01*
X027877Y015571D01*
X028028Y015421D01*
X027877Y015271D01*
X027783Y015044D01*
X027783Y014798D01*
X027877Y014571D01*
X028028Y014421D01*
X027877Y014271D01*
X027783Y014044D01*
X027783Y013798D01*
X027877Y013571D01*
X028028Y013421D01*
X027877Y013271D01*
X027814Y013117D01*
X027708Y013161D01*
X027493Y013161D01*
X027295Y013079D01*
X027143Y012927D01*
X027061Y012728D01*
X027061Y012561D01*
X026893Y012561D01*
X026695Y012479D01*
X026543Y012327D01*
X026461Y012128D01*
X026461Y011914D01*
X026543Y011715D01*
X026695Y011563D01*
X026791Y011523D01*
X026791Y008585D01*
X026608Y008661D01*
X026393Y008661D01*
X026195Y008579D01*
X026147Y008531D01*
X023658Y008531D01*
X023648Y008553D01*
X023533Y008669D01*
X023411Y008791D01*
X023411Y014802D01*
X023379Y014880D01*
X023459Y014913D01*
X023560Y015014D01*
X023615Y015146D01*
X023615Y015186D01*
X024393Y015186D01*
X024393Y015170D01*
X024448Y015038D01*
X024549Y014937D01*
X024682Y014882D01*
X025455Y014882D01*
X025587Y014937D01*
X025619Y014969D01*
X025652Y014937D01*
X025784Y014882D01*
X026557Y014882D01*
X026689Y014937D01*
X026791Y015038D01*
X026845Y015170D01*
X026845Y015205D01*
X026950Y015248D01*
X027074Y015372D01*
X027104Y015444D01*
X027633Y015973D01*
X027748Y016089D01*
X027811Y016239D01*
X027811Y016732D01*
X027811Y016580D02*
X027873Y016580D01*
X027811Y016342D02*
X027949Y016342D01*
X027808Y016103D02*
X027754Y016103D01*
X027783Y015865D02*
X027524Y015865D01*
X027286Y015626D02*
X027854Y015626D01*
X027994Y015388D02*
X027080Y015388D01*
X026837Y015149D02*
X027827Y015149D01*
X027783Y014911D02*
X026627Y014911D01*
X025714Y014911D02*
X025524Y014911D01*
X024612Y014911D02*
X023454Y014911D01*
X023411Y014672D02*
X027835Y014672D01*
X028015Y014434D02*
X023411Y014434D01*
X023411Y014195D02*
X027846Y014195D01*
X027783Y013956D02*
X026829Y013956D01*
X026859Y013927D02*
X026707Y014079D01*
X026508Y014161D01*
X026293Y014161D01*
X026095Y014079D01*
X025943Y013927D01*
X025861Y013728D01*
X025861Y013514D01*
X025943Y013315D01*
X026095Y013163D01*
X026293Y013081D01*
X026508Y013081D01*
X026707Y013163D01*
X026859Y013315D01*
X026941Y013514D01*
X026941Y013728D01*
X026859Y013927D01*
X026941Y013718D02*
X027816Y013718D01*
X027969Y013479D02*
X026927Y013479D01*
X026784Y013241D02*
X027865Y013241D01*
X027218Y013002D02*
X023411Y013002D01*
X023411Y012764D02*
X027075Y012764D01*
X026807Y012525D02*
X023411Y012525D01*
X023411Y012287D02*
X026526Y012287D01*
X026461Y012048D02*
X023411Y012048D01*
X023411Y011810D02*
X026504Y011810D01*
X026687Y011571D02*
X023411Y011571D01*
X023411Y011332D02*
X026791Y011332D01*
X026791Y011094D02*
X023411Y011094D01*
X023411Y010855D02*
X026791Y010855D01*
X026791Y010617D02*
X023411Y010617D01*
X023411Y010378D02*
X026791Y010378D01*
X026791Y010140D02*
X023411Y010140D01*
X023411Y009901D02*
X026791Y009901D01*
X026791Y009663D02*
X023411Y009663D01*
X023411Y009424D02*
X026791Y009424D01*
X026791Y009186D02*
X023411Y009186D01*
X023411Y008947D02*
X026791Y008947D01*
X026791Y008709D02*
X023493Y008709D01*
X022591Y008709D02*
X018968Y008709D01*
X019207Y008947D02*
X022591Y008947D01*
X022591Y009186D02*
X019445Y009186D01*
X019684Y009424D02*
X022591Y009424D01*
X022591Y009663D02*
X019811Y009663D01*
X019811Y009901D02*
X022591Y009901D01*
X022591Y010140D02*
X019811Y010140D01*
X019811Y010378D02*
X022591Y010378D01*
X022591Y010617D02*
X019811Y010617D01*
X019811Y010855D02*
X022591Y010855D01*
X022591Y011094D02*
X019811Y011094D01*
X019811Y011332D02*
X022591Y011332D01*
X022591Y011571D02*
X019811Y011571D01*
X019898Y011810D02*
X022591Y011810D01*
X022591Y012048D02*
X019941Y012048D01*
X019875Y012287D02*
X022591Y012287D01*
X022591Y012525D02*
X019594Y012525D01*
X019326Y012764D02*
X022591Y012764D01*
X022591Y013002D02*
X020060Y013002D01*
X020008Y012981D02*
X020207Y013063D01*
X020359Y013215D01*
X020441Y013414D01*
X020441Y013628D01*
X020359Y013827D01*
X020207Y013979D01*
X020008Y014061D01*
X019793Y014061D01*
X019595Y013979D01*
X019443Y013827D01*
X019361Y013628D01*
X019361Y013414D01*
X019443Y013215D01*
X019595Y013063D01*
X019793Y012981D01*
X020008Y012981D01*
X019742Y013002D02*
X019183Y013002D01*
X019432Y013241D02*
X014211Y013241D01*
X014211Y013479D02*
X019361Y013479D01*
X019398Y013718D02*
X014211Y013718D01*
X014211Y013002D02*
X018418Y013002D01*
X018275Y012764D02*
X014211Y012764D01*
X014211Y012525D02*
X018261Y012525D01*
X018371Y012287D02*
X014211Y012287D01*
X014211Y012048D02*
X018391Y012048D01*
X018391Y011810D02*
X014211Y011810D01*
X014211Y011571D02*
X018391Y011571D01*
X018391Y011332D02*
X014211Y011332D01*
X014211Y011094D02*
X018391Y011094D01*
X018391Y010855D02*
X014211Y010855D01*
X014211Y010617D02*
X018391Y010617D01*
X018391Y010378D02*
X014211Y010378D01*
X014211Y010140D02*
X018391Y010140D01*
X018201Y009901D02*
X014211Y009901D01*
X014211Y009663D02*
X017963Y009663D01*
X017724Y009424D02*
X014211Y009424D01*
X014211Y009186D02*
X017486Y009186D01*
X017247Y008947D02*
X014211Y008947D01*
X014211Y008709D02*
X017009Y008709D01*
X016770Y008470D02*
X014211Y008470D01*
X014211Y008231D02*
X016531Y008231D01*
X016293Y007993D02*
X014211Y007993D01*
X014211Y007754D02*
X016054Y007754D01*
X015816Y007516D02*
X014211Y007516D01*
X014211Y007277D02*
X015577Y007277D01*
X015339Y007039D02*
X014211Y007039D01*
X014211Y006800D02*
X015100Y006800D01*
X014862Y006562D02*
X014211Y006562D01*
X014211Y006323D02*
X014502Y006323D01*
X014226Y006085D02*
X014211Y006085D01*
X014211Y005593D02*
X014243Y005515D01*
X014337Y005421D01*
X014243Y005327D01*
X014211Y005249D01*
X014211Y005593D01*
X014211Y005369D02*
X014285Y005369D01*
X014305Y004653D02*
X014211Y004653D01*
X014211Y004415D02*
X017015Y004415D01*
X017253Y004653D02*
X015097Y004653D01*
X015232Y004892D02*
X017492Y004892D01*
X017730Y005130D02*
X015390Y005130D01*
X015629Y005369D02*
X017969Y005369D01*
X018207Y005607D02*
X015867Y005607D01*
X016106Y005846D02*
X018446Y005846D01*
X018685Y006085D02*
X016344Y006085D01*
X016583Y006323D02*
X018923Y006323D01*
X019162Y006562D02*
X016821Y006562D01*
X017060Y006800D02*
X019400Y006800D01*
X019639Y007039D02*
X017298Y007039D01*
X017537Y007277D02*
X019877Y007277D01*
X020116Y007516D02*
X017775Y007516D01*
X018014Y007754D02*
X020354Y007754D01*
X020593Y007993D02*
X018253Y007993D01*
X018491Y008231D02*
X020831Y008231D01*
X021072Y008470D02*
X018730Y008470D01*
X020560Y006800D02*
X022591Y006800D01*
X022561Y006562D02*
X020321Y006562D01*
X020083Y006323D02*
X022640Y006323D01*
X022691Y006085D02*
X019844Y006085D01*
X019606Y005846D02*
X022691Y005846D01*
X022691Y005607D02*
X019367Y005607D01*
X019129Y005369D02*
X022691Y005369D01*
X022691Y005130D02*
X018890Y005130D01*
X018651Y004892D02*
X022691Y004892D01*
X022691Y004653D02*
X018413Y004653D01*
X018174Y004415D02*
X022691Y004415D01*
X022691Y004176D02*
X017936Y004176D01*
X017697Y003938D02*
X022691Y003938D01*
X022691Y003699D02*
X017459Y003699D01*
X017220Y003461D02*
X022691Y003461D01*
X022586Y003222D02*
X019916Y003222D01*
X019486Y003222D02*
X017916Y003222D01*
X017486Y003222D02*
X016982Y003222D01*
X016299Y003699D02*
X014211Y003699D01*
X014211Y003461D02*
X016061Y003461D01*
X015486Y003222D02*
X014211Y003222D01*
X014211Y002983D02*
X015131Y002983D01*
X015003Y002745D02*
X014211Y002745D01*
X014211Y002506D02*
X014971Y002506D01*
X015015Y002268D02*
X014211Y002268D01*
X014211Y002029D02*
X015160Y002029D01*
X014149Y001791D02*
X016315Y001791D01*
X017087Y001791D02*
X018315Y001791D01*
X019087Y001791D02*
X020315Y001791D01*
X021087Y001791D02*
X023415Y001791D01*
X024187Y001791D02*
X025415Y001791D01*
X026187Y001791D02*
X027415Y001791D01*
X028187Y001791D02*
X028211Y001791D01*
X028390Y001552D02*
X013912Y001552D01*
X013673Y001314D02*
X028713Y001314D01*
X029011Y002131D02*
X029011Y004567D01*
X029059Y004615D01*
X029141Y004814D01*
X029141Y005028D01*
X029059Y005227D01*
X028907Y005379D01*
X028783Y005430D01*
X028831Y005478D01*
X028838Y005460D01*
X028939Y005358D01*
X029072Y005303D01*
X029730Y005303D01*
X029862Y005358D01*
X029963Y005460D01*
X029991Y005526D01*
X029991Y003251D01*
X029959Y003251D01*
X029827Y003196D01*
X029726Y003095D01*
X029671Y002963D01*
X029671Y002131D01*
X029011Y002131D01*
X029011Y002268D02*
X029671Y002268D01*
X029671Y002506D02*
X029011Y002506D01*
X029011Y002745D02*
X029671Y002745D01*
X029679Y002983D02*
X029011Y002983D01*
X029011Y003222D02*
X029889Y003222D01*
X029991Y003461D02*
X029011Y003461D01*
X029011Y003699D02*
X029991Y003699D01*
X029991Y003938D02*
X029011Y003938D01*
X029011Y004176D02*
X029991Y004176D01*
X029991Y004415D02*
X029011Y004415D01*
X029074Y004653D02*
X029991Y004653D01*
X029991Y004892D02*
X029141Y004892D01*
X029099Y005130D02*
X029991Y005130D01*
X029991Y005369D02*
X029873Y005369D01*
X030811Y005369D02*
X030961Y005369D01*
X030994Y005607D02*
X030811Y005607D01*
X030811Y005846D02*
X031162Y005846D01*
X030811Y006085D02*
X031585Y006085D01*
X031823Y006323D02*
X030811Y006323D01*
X030811Y006562D02*
X032062Y006562D01*
X032300Y006800D02*
X030811Y006800D01*
X030811Y007039D02*
X032254Y007039D01*
X032017Y007277D02*
X030811Y007277D01*
X030811Y007516D02*
X031961Y007516D01*
X032013Y007754D02*
X030811Y007754D01*
X030811Y007993D02*
X032229Y007993D01*
X032631Y008231D02*
X030811Y008231D01*
X030811Y008470D02*
X032791Y008470D01*
X032791Y008709D02*
X030811Y008709D01*
X030811Y008947D02*
X032791Y008947D01*
X033611Y008947D02*
X033791Y008947D01*
X033791Y008875D02*
X033743Y008827D01*
X033661Y008628D01*
X033661Y008414D01*
X033743Y008215D01*
X033827Y008131D01*
X033719Y008131D01*
X033584Y008075D01*
X033611Y008139D01*
X033611Y009001D01*
X033614Y009002D01*
X033751Y009139D01*
X033787Y009102D01*
X033791Y009101D01*
X033791Y008875D01*
X033694Y008709D02*
X033611Y008709D01*
X033611Y008470D02*
X033661Y008470D01*
X033611Y008231D02*
X033736Y008231D01*
X034741Y008470D02*
X039451Y008470D01*
X039451Y008709D02*
X034708Y008709D01*
X034611Y008947D02*
X034920Y008947D01*
X035481Y008947D02*
X036920Y008947D01*
X037481Y008947D02*
X039451Y008947D01*
X039451Y009186D02*
X037798Y009186D01*
X037909Y009424D02*
X039451Y009424D01*
X039451Y009663D02*
X037931Y009663D01*
X037875Y009901D02*
X039451Y009901D01*
X039451Y010140D02*
X037714Y010140D01*
X036521Y010378D02*
X039451Y010378D01*
X039451Y010617D02*
X034563Y010617D01*
X034611Y010378D02*
X035880Y010378D01*
X037187Y011571D02*
X032930Y011571D01*
X033169Y011332D02*
X039451Y011332D01*
X039451Y011094D02*
X034108Y011094D01*
X034346Y010855D02*
X039451Y010855D01*
X039451Y011571D02*
X038015Y011571D01*
X038139Y011810D02*
X039451Y011810D01*
X039451Y012048D02*
X038308Y012048D01*
X038632Y012287D02*
X039451Y012287D01*
X039451Y012525D02*
X038677Y012525D01*
X038677Y012764D02*
X039451Y012764D01*
X039451Y013002D02*
X038677Y013002D01*
X038677Y013241D02*
X039451Y013241D01*
X039451Y013479D02*
X038522Y013479D01*
X038499Y013718D02*
X039451Y013718D01*
X039451Y013956D02*
X038638Y013956D01*
X038638Y014195D02*
X039451Y014195D01*
X039451Y014434D02*
X038638Y014434D01*
X038638Y014672D02*
X039451Y014672D01*
X039451Y014911D02*
X038512Y014911D01*
X039154Y015149D02*
X039451Y015149D01*
X039451Y015388D02*
X039415Y015388D01*
X039434Y015626D02*
X039451Y015626D01*
X039434Y015865D02*
X039451Y015865D01*
X039434Y016103D02*
X039451Y016103D01*
X039434Y016342D02*
X039451Y016342D01*
X039451Y016580D02*
X039296Y016580D01*
X039451Y016819D02*
X038311Y016819D01*
X038311Y017058D02*
X039451Y017058D01*
X039451Y017296D02*
X038311Y017296D01*
X038311Y017535D02*
X039451Y017535D01*
X039451Y017773D02*
X038311Y017773D01*
X038266Y018012D02*
X039451Y018012D01*
X039451Y018250D02*
X038051Y018250D01*
X038038Y018489D02*
X039451Y018489D01*
X039451Y018727D02*
X039238Y018727D01*
X039429Y018966D02*
X039451Y018966D01*
X039434Y019204D02*
X039451Y019204D01*
X039434Y019443D02*
X039451Y019443D01*
X039434Y019681D02*
X039451Y019681D01*
X039451Y019920D02*
X039429Y019920D01*
X039451Y020159D02*
X039237Y020159D01*
X039451Y020397D02*
X035811Y020397D01*
X035811Y020636D02*
X037097Y020636D01*
X037028Y020705D02*
X037185Y020548D01*
X037390Y020463D01*
X037612Y020463D01*
X037817Y020548D01*
X037974Y020705D01*
X038059Y020910D01*
X038059Y021132D01*
X037974Y021337D01*
X037817Y021494D01*
X037612Y021579D01*
X037390Y021579D01*
X037185Y021494D01*
X037028Y021337D01*
X036943Y021132D01*
X036943Y020910D01*
X037028Y020705D01*
X036957Y020874D02*
X035811Y020874D01*
X035811Y021113D02*
X036943Y021113D01*
X037042Y021351D02*
X036574Y021351D01*
X036770Y021590D02*
X038032Y021590D01*
X038062Y021517D02*
X037951Y021786D01*
X037951Y022076D01*
X038062Y022344D01*
X038267Y022550D01*
X038536Y022661D01*
X038826Y022661D01*
X039094Y022550D01*
X039300Y022344D01*
X039411Y022076D01*
X039411Y021786D01*
X039300Y021517D01*
X039094Y021312D01*
X038826Y021201D01*
X038536Y021201D01*
X038267Y021312D01*
X038062Y021517D01*
X037960Y021351D02*
X038228Y021351D01*
X038059Y021113D02*
X039451Y021113D01*
X039451Y021351D02*
X039134Y021351D01*
X039330Y021590D02*
X039451Y021590D01*
X039451Y021828D02*
X039411Y021828D01*
X039411Y022067D02*
X039451Y022067D01*
X039451Y022305D02*
X039316Y022305D01*
X039451Y022544D02*
X039100Y022544D01*
X039451Y022783D02*
X035811Y022783D01*
X035811Y023021D02*
X035879Y023021D01*
X036363Y023021D02*
X038439Y023021D01*
X038536Y022981D02*
X038267Y023092D01*
X038062Y023297D01*
X037951Y023566D01*
X037951Y023856D01*
X038062Y024124D01*
X038267Y024330D01*
X038536Y024441D01*
X038826Y024441D01*
X039094Y024330D01*
X039300Y024124D01*
X039411Y023856D01*
X039411Y023566D01*
X039300Y023297D01*
X039094Y023092D01*
X038826Y022981D01*
X038536Y022981D01*
X038923Y023021D02*
X039451Y023021D01*
X039451Y023260D02*
X039262Y023260D01*
X039383Y023498D02*
X039451Y023498D01*
X039451Y023737D02*
X039411Y023737D01*
X039451Y023975D02*
X039361Y023975D01*
X039451Y024214D02*
X039210Y024214D01*
X039451Y024452D02*
X032274Y024452D01*
X032211Y024214D02*
X035591Y024214D01*
X035375Y023975D02*
X032211Y023975D01*
X032415Y023737D02*
X033487Y023737D01*
X033346Y022712D02*
X032485Y022712D01*
X032460Y022653D01*
X032428Y022621D01*
X032460Y022589D01*
X032515Y022456D01*
X032515Y021683D01*
X032460Y021551D01*
X032359Y021450D01*
X032320Y021434D01*
X032420Y021334D01*
X032531Y021066D01*
X032531Y020776D01*
X032420Y020507D01*
X032333Y020421D01*
X032420Y020334D01*
X032531Y020066D01*
X032531Y019776D01*
X032428Y019528D01*
X032853Y019953D01*
X032969Y020069D01*
X033119Y020131D01*
X033448Y020131D01*
X033532Y020334D01*
X033618Y020421D01*
X033532Y020507D01*
X033421Y020776D01*
X033421Y021066D01*
X033532Y021334D01*
X033566Y021369D01*
X033493Y021400D01*
X033391Y021501D01*
X033336Y021633D01*
X033336Y022406D01*
X033391Y022539D01*
X033424Y022571D01*
X033391Y022603D01*
X033346Y022712D01*
X033397Y022544D02*
X032479Y022544D01*
X032515Y022305D02*
X033336Y022305D01*
X033336Y022067D02*
X032515Y022067D01*
X032515Y021828D02*
X033336Y021828D01*
X033354Y021590D02*
X032476Y021590D01*
X032403Y021351D02*
X033549Y021351D01*
X033440Y021113D02*
X032511Y021113D01*
X032531Y020874D02*
X033421Y020874D01*
X033479Y020636D02*
X032473Y020636D01*
X032357Y020397D02*
X033595Y020397D01*
X033459Y020159D02*
X032492Y020159D01*
X032531Y019920D02*
X032820Y019920D01*
X032582Y019681D02*
X032492Y019681D01*
X033264Y019204D02*
X033973Y019204D01*
X034328Y019204D02*
X034991Y019204D01*
X034991Y018966D02*
X033026Y018966D01*
X032787Y018727D02*
X034991Y018727D01*
X034991Y018489D02*
X032611Y018489D01*
X032611Y018250D02*
X032778Y018250D01*
X032623Y018012D02*
X032611Y018012D01*
X032611Y017499D02*
X032682Y017327D01*
X032838Y017171D01*
X032682Y017014D01*
X032611Y016843D01*
X032611Y017499D01*
X032611Y017296D02*
X032713Y017296D01*
X032725Y017058D02*
X032611Y017058D01*
X031391Y017058D02*
X030811Y017058D01*
X030811Y017296D02*
X031391Y017296D01*
X031391Y017535D02*
X030811Y017535D01*
X030811Y017773D02*
X031391Y017773D01*
X031391Y018012D02*
X030811Y018012D01*
X030811Y018250D02*
X031391Y018250D01*
X031391Y018489D02*
X030811Y018489D01*
X030811Y018727D02*
X031391Y018727D01*
X031391Y018966D02*
X030811Y018966D01*
X030811Y019204D02*
X031391Y019204D01*
X031246Y019443D02*
X030811Y019443D01*
X030811Y019681D02*
X031110Y019681D01*
X031071Y019920D02*
X030811Y019920D01*
X030811Y020159D02*
X031109Y020159D01*
X031245Y020397D02*
X030811Y020397D01*
X030811Y020636D02*
X031129Y020636D01*
X031071Y020874D02*
X030811Y020874D01*
X030811Y021113D02*
X031090Y021113D01*
X031199Y021351D02*
X030811Y021351D01*
X030811Y021590D02*
X031125Y021590D01*
X031086Y021828D02*
X030811Y021828D01*
X030811Y022067D02*
X031086Y022067D01*
X031086Y022305D02*
X030811Y022305D01*
X029991Y022305D02*
X029889Y022305D01*
X029924Y022271D02*
X029991Y022110D01*
X029991Y022732D01*
X029924Y022571D01*
X029774Y022421D01*
X029924Y022271D01*
X029897Y022544D02*
X029991Y022544D01*
X029991Y023110D02*
X029924Y023271D01*
X029774Y023421D01*
X029924Y023571D01*
X029991Y023732D01*
X029991Y023110D01*
X029991Y023260D02*
X029929Y023260D01*
X029991Y023498D02*
X029851Y023498D01*
X029991Y024110D02*
X029924Y024271D01*
X029774Y024421D01*
X029924Y024571D01*
X029991Y024732D01*
X029991Y024110D01*
X029991Y024214D02*
X029948Y024214D01*
X029991Y024452D02*
X029805Y024452D01*
X029974Y024691D02*
X029991Y024691D01*
X029991Y025110D02*
X029924Y025271D01*
X029774Y025421D01*
X029924Y025571D01*
X029991Y025732D01*
X029991Y025110D01*
X029991Y025168D02*
X029967Y025168D01*
X029991Y025407D02*
X029788Y025407D01*
X029955Y025645D02*
X029991Y025645D01*
X029991Y026110D02*
X029924Y026271D01*
X029774Y026421D01*
X029924Y026571D01*
X029991Y026732D01*
X029991Y026110D01*
X029991Y026122D02*
X029986Y026122D01*
X029991Y026361D02*
X029834Y026361D01*
X029936Y026599D02*
X029991Y026599D01*
X029991Y027110D02*
X029924Y027271D01*
X029774Y027421D01*
X029924Y027571D01*
X029991Y027732D01*
X029991Y027110D01*
X029991Y027315D02*
X029880Y027315D01*
X029906Y027553D02*
X029991Y027553D01*
X029991Y028110D02*
X029924Y028271D01*
X029774Y028421D01*
X029924Y028571D01*
X029991Y028732D01*
X029991Y028110D01*
X029991Y028269D02*
X029925Y028269D01*
X029861Y028508D02*
X029991Y028508D01*
X029991Y029110D02*
X029924Y029271D01*
X029774Y029421D01*
X029924Y029571D01*
X029991Y029732D01*
X029991Y029110D01*
X029991Y029223D02*
X029944Y029223D01*
X029991Y029462D02*
X029815Y029462D01*
X029978Y029700D02*
X029991Y029700D01*
X029991Y030110D02*
X029991Y030151D01*
X029962Y030180D01*
X029991Y030110D01*
X029963Y030177D02*
X029964Y030177D01*
X029660Y030482D02*
X029524Y030538D01*
X029278Y030538D01*
X029051Y030444D01*
X028938Y030331D01*
X028864Y030331D01*
X028751Y030444D01*
X028524Y030538D01*
X028278Y030538D01*
X028051Y030444D01*
X027877Y030271D01*
X027783Y030044D01*
X027783Y029798D01*
X027840Y029662D01*
X026791Y030711D01*
X029431Y030711D01*
X029660Y030482D01*
X029487Y030654D02*
X026847Y030654D01*
X027086Y030416D02*
X028023Y030416D01*
X027839Y030177D02*
X027324Y030177D01*
X027563Y029939D02*
X027783Y029939D01*
X027801Y029700D02*
X027824Y029700D01*
X027119Y029223D02*
X026862Y029223D01*
X026862Y028985D02*
X027357Y028985D01*
X027596Y028746D02*
X026862Y028746D01*
X026862Y028508D02*
X027941Y028508D01*
X027877Y028269D02*
X026862Y028269D01*
X027171Y028031D02*
X027783Y028031D01*
X027786Y027792D02*
X027410Y027792D01*
X027648Y027553D02*
X027895Y027553D01*
X027922Y027315D02*
X027806Y027315D01*
X027811Y026732D02*
X027877Y026571D01*
X028028Y026421D01*
X027877Y026271D01*
X027811Y026110D01*
X027811Y026732D01*
X027811Y026599D02*
X027866Y026599D01*
X027811Y026361D02*
X027967Y026361D01*
X027816Y026122D02*
X027811Y026122D01*
X027811Y025732D02*
X027877Y025571D01*
X028028Y025421D01*
X027877Y025271D01*
X027811Y025110D01*
X027811Y025732D01*
X027811Y025645D02*
X027847Y025645D01*
X027811Y025407D02*
X028013Y025407D01*
X027835Y025168D02*
X027811Y025168D01*
X027811Y024732D02*
X027877Y024571D01*
X028028Y024421D01*
X027877Y024271D01*
X027811Y024110D01*
X027811Y024732D01*
X027811Y024691D02*
X027828Y024691D01*
X027811Y024452D02*
X027996Y024452D01*
X027854Y024214D02*
X027811Y024214D01*
X028774Y024421D02*
X028901Y024548D01*
X029028Y024421D01*
X028901Y024294D01*
X028774Y024421D01*
X028805Y024452D02*
X028996Y024452D01*
X028901Y023548D02*
X029028Y023421D01*
X028901Y023294D01*
X028774Y023421D01*
X028901Y023548D01*
X028851Y023498D02*
X028950Y023498D01*
X028901Y022548D02*
X028774Y022421D01*
X028901Y022294D01*
X029028Y022421D01*
X028901Y022548D01*
X028897Y022544D02*
X028904Y022544D01*
X028889Y022305D02*
X028912Y022305D01*
X029991Y021732D02*
X029991Y021110D01*
X029924Y021271D01*
X029774Y021421D01*
X029924Y021571D01*
X029991Y021732D01*
X029991Y021590D02*
X029932Y021590D01*
X029991Y021351D02*
X029844Y021351D01*
X029990Y021113D02*
X029991Y021113D01*
X029991Y020732D02*
X029991Y020110D01*
X029924Y020271D01*
X029774Y020421D01*
X029924Y020571D01*
X029991Y020732D01*
X029991Y020636D02*
X029951Y020636D01*
X029991Y020397D02*
X029798Y020397D01*
X029971Y020159D02*
X029991Y020159D01*
X029991Y019732D02*
X029991Y019110D01*
X029924Y019271D01*
X029774Y019421D01*
X029924Y019571D01*
X029991Y019732D01*
X029991Y019681D02*
X029970Y019681D01*
X029991Y019443D02*
X029796Y019443D01*
X029952Y019204D02*
X029991Y019204D01*
X029991Y018732D02*
X029991Y018110D01*
X029924Y018271D01*
X029774Y018421D01*
X029924Y018571D01*
X029991Y018732D01*
X029989Y018727D02*
X029991Y018727D01*
X029991Y018489D02*
X029842Y018489D01*
X029933Y018250D02*
X029991Y018250D01*
X029991Y017732D02*
X029991Y017110D01*
X029924Y017271D01*
X029774Y017421D01*
X029924Y017571D01*
X029991Y017732D01*
X029991Y017535D02*
X029888Y017535D01*
X029899Y017296D02*
X029991Y017296D01*
X029991Y016732D02*
X029991Y016110D01*
X029924Y016271D01*
X029774Y016421D01*
X029924Y016571D01*
X029991Y016732D01*
X029991Y016580D02*
X029928Y016580D01*
X029991Y016342D02*
X029853Y016342D01*
X029991Y015732D02*
X029991Y015110D01*
X029924Y015271D01*
X029774Y015421D01*
X029924Y015571D01*
X029991Y015732D01*
X029991Y015626D02*
X029947Y015626D01*
X029991Y015388D02*
X029807Y015388D01*
X029975Y015149D02*
X029991Y015149D01*
X029991Y014732D02*
X029991Y014110D01*
X029924Y014271D01*
X029774Y014421D01*
X029924Y014571D01*
X029991Y014732D01*
X029991Y014672D02*
X029966Y014672D01*
X029991Y014434D02*
X029787Y014434D01*
X029956Y014195D02*
X029991Y014195D01*
X029991Y013732D02*
X029991Y013110D01*
X029924Y013271D01*
X029774Y013421D01*
X029924Y013571D01*
X029991Y013732D01*
X029991Y013718D02*
X029985Y013718D01*
X029991Y013479D02*
X029832Y013479D01*
X029937Y013241D02*
X029991Y013241D01*
X029991Y012732D02*
X029991Y012110D01*
X029924Y012271D01*
X029774Y012421D01*
X029924Y012571D01*
X029991Y012732D01*
X029991Y012525D02*
X029878Y012525D01*
X029908Y012287D02*
X029991Y012287D01*
X029991Y011732D02*
X029991Y011110D01*
X029924Y011271D01*
X029774Y011421D01*
X029924Y011571D01*
X029991Y011571D01*
X029924Y011571D02*
X029991Y011732D01*
X029991Y011332D02*
X029862Y011332D01*
X029991Y010732D02*
X029991Y010110D01*
X029924Y010271D01*
X029774Y010421D01*
X029924Y010571D01*
X029991Y010732D01*
X029991Y010617D02*
X029943Y010617D01*
X029991Y010378D02*
X029817Y010378D01*
X029978Y010140D02*
X029991Y010140D01*
X029991Y009732D02*
X029991Y009110D01*
X029924Y009271D01*
X029774Y009421D01*
X029924Y009571D01*
X029991Y009732D01*
X029991Y009663D02*
X029962Y009663D01*
X029991Y009424D02*
X029777Y009424D01*
X029959Y009186D02*
X029991Y009186D01*
X029991Y008732D02*
X029991Y008110D01*
X029924Y008271D01*
X029774Y008421D01*
X029924Y008571D01*
X029991Y008732D01*
X029991Y008709D02*
X029981Y008709D01*
X029991Y008470D02*
X029823Y008470D01*
X029941Y008231D02*
X029991Y008231D01*
X029991Y007732D02*
X029991Y007110D01*
X029924Y007271D01*
X029774Y007421D01*
X029924Y007571D01*
X029991Y007732D01*
X029991Y007516D02*
X029869Y007516D01*
X029918Y007277D02*
X029991Y007277D01*
X029991Y006732D02*
X029991Y006316D01*
X029963Y006382D01*
X029862Y006484D01*
X029844Y006491D01*
X029924Y006571D01*
X029991Y006732D01*
X029991Y006562D02*
X029915Y006562D01*
X029988Y006323D02*
X029991Y006323D01*
X028957Y006491D02*
X028939Y006484D01*
X028838Y006382D01*
X028831Y006364D01*
X028774Y006421D01*
X028901Y006548D01*
X028957Y006491D01*
X028901Y007294D02*
X029028Y007421D01*
X028901Y007548D01*
X028774Y007421D01*
X028901Y007294D01*
X028869Y007516D02*
X028933Y007516D01*
X028901Y008294D02*
X029028Y008421D01*
X028901Y008548D01*
X028774Y008421D01*
X028901Y008294D01*
X028823Y008470D02*
X028979Y008470D01*
X028901Y009294D02*
X029028Y009421D01*
X028901Y009548D01*
X028774Y009421D01*
X028901Y009294D01*
X029024Y009424D02*
X028777Y009424D01*
X028028Y009421D02*
X028011Y009438D01*
X028011Y009404D01*
X028028Y009421D01*
X028024Y009424D02*
X028011Y009424D01*
X028011Y010404D02*
X028011Y010438D01*
X028028Y010421D01*
X028011Y010404D01*
X028774Y010421D02*
X028901Y010548D01*
X029028Y010421D01*
X028901Y010294D01*
X028774Y010421D01*
X028817Y010378D02*
X028985Y010378D01*
X028901Y011294D02*
X028774Y011421D01*
X028901Y011548D01*
X029028Y011421D01*
X028901Y011294D01*
X028939Y011332D02*
X028862Y011332D01*
X028028Y011421D02*
X028011Y011438D01*
X028011Y011404D01*
X028028Y011421D01*
X028901Y012294D02*
X028774Y012421D01*
X028901Y012548D01*
X029028Y012421D01*
X028901Y012294D01*
X028878Y012525D02*
X028923Y012525D01*
X028901Y013294D02*
X028774Y013421D01*
X028901Y013548D01*
X029028Y013421D01*
X028901Y013294D01*
X028832Y013479D02*
X028969Y013479D01*
X028901Y014294D02*
X028774Y014421D01*
X028901Y014548D01*
X029028Y014421D01*
X028901Y014294D01*
X028787Y014434D02*
X029015Y014434D01*
X028901Y015294D02*
X028774Y015421D01*
X028901Y015548D01*
X029028Y015421D01*
X028901Y015294D01*
X028807Y015388D02*
X028994Y015388D01*
X028901Y016294D02*
X028774Y016421D01*
X028901Y016548D01*
X029028Y016421D01*
X028901Y016294D01*
X028853Y016342D02*
X028949Y016342D01*
X028901Y017294D02*
X029028Y017421D01*
X028901Y017548D01*
X028774Y017421D01*
X028901Y017294D01*
X028899Y017296D02*
X028903Y017296D01*
X028888Y017535D02*
X028914Y017535D01*
X028901Y018294D02*
X029028Y018421D01*
X028901Y018548D01*
X028774Y018421D01*
X028901Y018294D01*
X028842Y018489D02*
X028960Y018489D01*
X028901Y019294D02*
X029028Y019421D01*
X028901Y019548D01*
X028774Y019421D01*
X028901Y019294D01*
X028796Y019443D02*
X029006Y019443D01*
X028901Y020294D02*
X029028Y020421D01*
X028901Y020548D01*
X028774Y020421D01*
X028901Y020294D01*
X028798Y020397D02*
X029004Y020397D01*
X028901Y021294D02*
X028774Y021421D01*
X028901Y021548D01*
X029028Y021421D01*
X028901Y021294D01*
X028844Y021351D02*
X028958Y021351D01*
X026491Y020874D02*
X024111Y020874D01*
X024111Y020636D02*
X026491Y020636D01*
X026491Y020397D02*
X025776Y020397D01*
X025917Y020159D02*
X026491Y020159D01*
X026491Y019920D02*
X025917Y019920D01*
X025917Y019681D02*
X026491Y019681D01*
X026491Y019443D02*
X025834Y019443D01*
X026491Y019204D02*
X024176Y019204D01*
X024176Y018966D02*
X026491Y018966D01*
X026491Y018727D02*
X024176Y018727D01*
X024176Y018489D02*
X026491Y018489D01*
X026491Y018250D02*
X024176Y018250D01*
X024192Y018012D02*
X026491Y018012D01*
X026491Y017773D02*
X024366Y017773D01*
X024431Y017535D02*
X026491Y017535D01*
X026396Y017296D02*
X024418Y017296D01*
X024320Y017058D02*
X026158Y017058D01*
X026840Y016580D02*
X026991Y016580D01*
X026991Y016491D02*
X026722Y016222D01*
X026689Y016256D01*
X026566Y016307D01*
X026991Y016731D01*
X026991Y016491D01*
X026842Y016342D02*
X026601Y016342D01*
X024430Y016111D02*
X024393Y016022D01*
X024393Y016006D01*
X023611Y016006D01*
X023568Y016111D01*
X024430Y016111D01*
X024427Y016103D02*
X023571Y016103D01*
X023615Y015149D02*
X024402Y015149D01*
X024408Y014161D02*
X024193Y014161D01*
X023995Y014079D01*
X023843Y013927D01*
X023761Y013728D01*
X023761Y013514D01*
X023843Y013315D01*
X023995Y013163D01*
X024193Y013081D01*
X024408Y013081D01*
X024607Y013163D01*
X024759Y013315D01*
X024841Y013514D01*
X024841Y013728D01*
X024759Y013927D01*
X024607Y014079D01*
X024408Y014161D01*
X024729Y013956D02*
X025973Y013956D01*
X025861Y013718D02*
X024841Y013718D01*
X024827Y013479D02*
X025875Y013479D01*
X026017Y013241D02*
X024684Y013241D01*
X023917Y013241D02*
X023411Y013241D01*
X023411Y013479D02*
X023775Y013479D01*
X023761Y013718D02*
X023411Y013718D01*
X023411Y013956D02*
X023873Y013956D01*
X022591Y013956D02*
X021729Y013956D01*
X021759Y013927D02*
X021607Y014079D01*
X021408Y014161D01*
X021193Y014161D01*
X020995Y014079D01*
X020843Y013927D01*
X020761Y013728D01*
X020761Y013514D01*
X020843Y013315D01*
X020995Y013163D01*
X021193Y013081D01*
X021408Y013081D01*
X021607Y013163D01*
X021759Y013315D01*
X021841Y013514D01*
X021841Y013728D01*
X021759Y013927D01*
X021841Y013718D02*
X022591Y013718D01*
X022591Y013479D02*
X021827Y013479D01*
X021684Y013241D02*
X022591Y013241D01*
X022591Y014195D02*
X019402Y014195D01*
X019540Y014434D02*
X022591Y014434D01*
X021162Y015331D02*
X021111Y015331D01*
X021111Y016611D01*
X021111Y016751D01*
X021114Y016752D01*
X021251Y016889D01*
X021287Y016852D01*
X021556Y016741D01*
X021846Y016741D01*
X022008Y016808D01*
X021605Y016405D01*
X021490Y016290D01*
X021488Y016286D01*
X021451Y016286D01*
X021319Y016232D01*
X021217Y016130D01*
X021162Y015998D01*
X021162Y015331D01*
X021162Y015388D02*
X021111Y015388D01*
X021111Y015626D02*
X021162Y015626D01*
X021162Y015865D02*
X021111Y015865D01*
X021111Y016103D02*
X021206Y016103D01*
X021111Y016342D02*
X021542Y016342D01*
X021780Y016580D02*
X021111Y016580D01*
X021181Y016819D02*
X021367Y016819D01*
X020291Y016751D02*
X020291Y016700D01*
X019846Y016255D01*
X019325Y016255D01*
X019193Y016200D01*
X019161Y016168D01*
X019128Y016200D01*
X019111Y016208D01*
X019111Y016751D01*
X019114Y016752D01*
X019251Y016889D01*
X019287Y016852D01*
X019556Y016741D01*
X019846Y016741D01*
X020114Y016852D01*
X020151Y016889D01*
X020287Y016752D01*
X020291Y016751D01*
X020220Y016819D02*
X020034Y016819D01*
X020172Y016580D02*
X019111Y016580D01*
X019111Y016342D02*
X019933Y016342D01*
X019367Y016819D02*
X019181Y016819D01*
X018291Y016751D02*
X018291Y016255D01*
X018223Y016255D01*
X018091Y016200D01*
X017989Y016099D01*
X017935Y015967D01*
X017935Y015115D01*
X017989Y014983D01*
X018091Y014881D01*
X018223Y014827D01*
X018820Y014827D01*
X018764Y014731D01*
X014654Y014731D01*
X014607Y014779D01*
X014408Y014861D01*
X014211Y014861D01*
X014211Y016593D01*
X014243Y016515D01*
X014395Y016363D01*
X014593Y016281D01*
X014691Y016281D01*
X014691Y015875D01*
X014643Y015827D01*
X014561Y015628D01*
X014561Y015414D01*
X014643Y015215D01*
X014795Y015063D01*
X014993Y014981D01*
X015208Y014981D01*
X015407Y015063D01*
X015559Y015215D01*
X015641Y015414D01*
X015641Y015628D01*
X015559Y015827D01*
X015511Y015875D01*
X015511Y016181D01*
X015608Y016181D01*
X015807Y016263D01*
X015891Y016347D01*
X015891Y015775D01*
X015843Y015727D01*
X015761Y015528D01*
X015761Y015314D01*
X015843Y015115D01*
X015995Y014963D01*
X016193Y014881D01*
X016408Y014881D01*
X016607Y014963D01*
X016759Y015115D01*
X016841Y015314D01*
X016841Y015528D01*
X016759Y015727D01*
X016711Y015775D01*
X016711Y018067D01*
X016759Y018115D01*
X016841Y018314D01*
X016841Y018528D01*
X016759Y018727D01*
X016607Y018879D01*
X016408Y018961D01*
X016193Y018961D01*
X015995Y018879D01*
X015911Y018795D01*
X015911Y019467D01*
X015959Y019515D01*
X016041Y019714D01*
X016041Y019928D01*
X015959Y020127D01*
X015807Y020279D01*
X015608Y020361D01*
X015511Y020361D01*
X015511Y020473D01*
X015793Y020811D01*
X018231Y020811D01*
X018462Y020580D01*
X018436Y020569D01*
X018384Y020517D01*
X018332Y020569D01*
X018200Y020624D01*
X017584Y020624D01*
X017452Y020569D01*
X017400Y020517D01*
X017348Y020569D01*
X017216Y020624D01*
X016600Y020624D01*
X016468Y020569D01*
X016366Y020468D01*
X016312Y020336D01*
X016312Y019602D01*
X016366Y019470D01*
X016468Y019369D01*
X016600Y019314D01*
X017216Y019314D01*
X017348Y019369D01*
X017400Y019421D01*
X017452Y019369D01*
X017584Y019314D01*
X017968Y019314D01*
X018191Y019090D01*
X018191Y018013D01*
X018114Y018090D01*
X017846Y018201D01*
X017556Y018201D01*
X017287Y018090D01*
X017082Y017884D01*
X016971Y017616D01*
X016971Y017326D01*
X017082Y017057D01*
X017287Y016852D01*
X017556Y016741D01*
X017846Y016741D01*
X018114Y016852D01*
X018151Y016889D01*
X018287Y016752D01*
X018291Y016751D01*
X018220Y016819D02*
X018034Y016819D01*
X018291Y016580D02*
X016711Y016580D01*
X016711Y016342D02*
X018291Y016342D01*
X017994Y016103D02*
X016711Y016103D01*
X016711Y015865D02*
X017935Y015865D01*
X017935Y015626D02*
X016800Y015626D01*
X016841Y015388D02*
X017935Y015388D01*
X017935Y015149D02*
X016773Y015149D01*
X016480Y014911D02*
X018061Y014911D01*
X019199Y013956D02*
X019573Y013956D01*
X020229Y013956D02*
X020873Y013956D01*
X020761Y013718D02*
X020404Y013718D01*
X020441Y013479D02*
X020775Y013479D01*
X020917Y013241D02*
X020369Y013241D01*
X020570Y014672D02*
X019678Y014672D01*
X020260Y014911D02*
X020344Y014911D01*
X017367Y016819D02*
X016711Y016819D01*
X016711Y017058D02*
X017082Y017058D01*
X016983Y017296D02*
X016711Y017296D01*
X016711Y017535D02*
X016971Y017535D01*
X017036Y017773D02*
X016711Y017773D01*
X016711Y018012D02*
X017209Y018012D01*
X016815Y018250D02*
X018191Y018250D01*
X018191Y018489D02*
X016841Y018489D01*
X016758Y018727D02*
X018191Y018727D01*
X018191Y018966D02*
X015911Y018966D01*
X015911Y019204D02*
X018077Y019204D01*
X019011Y019204D02*
X019061Y019204D01*
X019011Y019255D02*
X019291Y018975D01*
X019291Y018091D01*
X019287Y018090D01*
X019151Y017953D01*
X019114Y017990D01*
X019011Y018033D01*
X019011Y019255D01*
X019011Y018966D02*
X019291Y018966D01*
X019291Y018727D02*
X019011Y018727D01*
X019011Y018489D02*
X019291Y018489D01*
X019291Y018250D02*
X019011Y018250D01*
X019061Y018012D02*
X019209Y018012D01*
X020111Y018091D02*
X020111Y019226D01*
X020074Y019314D01*
X020168Y019314D01*
X020291Y019364D01*
X020291Y017991D01*
X020287Y017990D01*
X020251Y017953D01*
X020114Y018090D01*
X020111Y018091D01*
X020192Y018012D02*
X020291Y018012D01*
X020291Y018250D02*
X020111Y018250D01*
X020111Y018489D02*
X020291Y018489D01*
X020291Y018727D02*
X020111Y018727D01*
X020111Y018966D02*
X020291Y018966D01*
X020291Y019204D02*
X020111Y019204D01*
X021111Y019204D02*
X021419Y019204D01*
X021419Y019356D02*
X021419Y018144D01*
X021287Y018090D01*
X021151Y017953D01*
X021114Y017990D01*
X021111Y017991D01*
X021111Y019314D01*
X021153Y019314D01*
X021285Y019369D01*
X021337Y019421D01*
X021389Y019369D01*
X021419Y019356D01*
X021419Y018966D02*
X021111Y018966D01*
X021111Y018727D02*
X021419Y018727D01*
X021419Y018489D02*
X021111Y018489D01*
X021111Y018250D02*
X021419Y018250D01*
X021209Y018012D02*
X021111Y018012D01*
X022239Y018012D02*
X022340Y018012D01*
X022287Y017990D02*
X022403Y018038D01*
X022403Y019356D01*
X022373Y019369D01*
X022321Y019421D01*
X022269Y019369D01*
X022239Y019356D01*
X022239Y017965D01*
X022251Y017953D01*
X022287Y017990D01*
X022239Y018250D02*
X022403Y018250D01*
X022403Y018489D02*
X022239Y018489D01*
X022239Y018727D02*
X022403Y018727D01*
X022403Y018966D02*
X022239Y018966D01*
X022239Y019204D02*
X022403Y019204D01*
X023223Y019204D02*
X023356Y019204D01*
X023356Y019356D02*
X023356Y018118D01*
X023287Y018090D01*
X023223Y018026D01*
X023223Y019356D01*
X023254Y019369D01*
X023290Y019405D01*
X023326Y019369D01*
X023356Y019356D01*
X023356Y018966D02*
X023223Y018966D01*
X023223Y018727D02*
X023356Y018727D01*
X023356Y018489D02*
X023223Y018489D01*
X023223Y018250D02*
X023356Y018250D01*
X023290Y020533D02*
X023291Y020534D01*
X023291Y020651D01*
X023131Y020811D01*
X023107Y020811D01*
X023111Y020802D01*
X023111Y020624D01*
X023121Y020624D01*
X023254Y020569D01*
X023290Y020533D01*
X023291Y020636D02*
X023111Y020636D01*
X023750Y021351D02*
X025359Y021351D01*
X025359Y021590D02*
X023481Y021590D01*
X023989Y021113D02*
X025483Y021113D01*
X025359Y021828D02*
X015331Y021828D01*
X015331Y021590D02*
X015420Y021590D01*
X015331Y022067D02*
X025359Y022067D01*
X025359Y022305D02*
X016967Y022305D01*
X016908Y022281D02*
X017107Y022363D01*
X017259Y022515D01*
X017341Y022714D01*
X017341Y022928D01*
X017259Y023127D01*
X017107Y023279D01*
X016908Y023361D01*
X016693Y023361D01*
X016495Y023279D01*
X016343Y023127D01*
X016261Y022928D01*
X016261Y022714D01*
X016343Y022515D01*
X016495Y022363D01*
X016693Y022281D01*
X016908Y022281D01*
X016634Y022305D02*
X015331Y022305D01*
X015289Y022544D02*
X016331Y022544D01*
X016261Y022783D02*
X014178Y022783D01*
X013980Y023021D02*
X016299Y023021D01*
X016476Y023260D02*
X013742Y023260D01*
X012993Y023737D02*
X025000Y023737D01*
X025000Y023975D02*
X013018Y023975D01*
X012948Y024214D02*
X025002Y024214D01*
X025184Y024452D02*
X012805Y024452D01*
X012851Y023498D02*
X020342Y023498D01*
X020295Y023479D02*
X020143Y023327D01*
X020061Y023128D01*
X020061Y022914D01*
X020143Y022715D01*
X020295Y022563D01*
X020493Y022481D01*
X020708Y022481D01*
X020907Y022563D01*
X021059Y022715D01*
X021141Y022914D01*
X021141Y023128D01*
X021059Y023327D01*
X020907Y023479D01*
X020708Y023561D01*
X020493Y023561D01*
X020295Y023479D01*
X020115Y023260D02*
X017126Y023260D01*
X017302Y023021D02*
X020061Y023021D01*
X020115Y022783D02*
X017341Y022783D01*
X017271Y022544D02*
X020341Y022544D01*
X020860Y022544D02*
X022988Y022544D01*
X022928Y022605D02*
X023085Y022448D01*
X023290Y022363D01*
X023512Y022363D01*
X023717Y022448D01*
X023874Y022605D01*
X023959Y022810D01*
X023959Y023032D01*
X023874Y023237D01*
X023717Y023394D01*
X023512Y023479D01*
X023290Y023479D01*
X023085Y023394D01*
X022928Y023237D01*
X022843Y023032D01*
X022843Y022810D01*
X022928Y022605D01*
X022854Y022783D02*
X021086Y022783D01*
X021141Y023021D02*
X022843Y023021D01*
X022950Y023260D02*
X021086Y023260D01*
X020860Y023498D02*
X025068Y023498D01*
X025401Y022544D02*
X023813Y022544D01*
X023948Y022783D02*
X026491Y022783D01*
X026421Y023021D02*
X023959Y023021D01*
X023851Y023260D02*
X026182Y023260D01*
X028774Y025421D02*
X028901Y025548D01*
X029028Y025421D01*
X028901Y025294D01*
X028774Y025421D01*
X028788Y025407D02*
X029013Y025407D01*
X028901Y026294D02*
X029028Y026421D01*
X028901Y026548D01*
X028774Y026421D01*
X028901Y026294D01*
X028834Y026361D02*
X028967Y026361D01*
X028901Y027294D02*
X029028Y027421D01*
X028901Y027548D01*
X028774Y027421D01*
X028901Y027294D01*
X028880Y027315D02*
X028922Y027315D01*
X028901Y028294D02*
X029028Y028421D01*
X028901Y028548D01*
X028774Y028421D01*
X028901Y028294D01*
X028861Y028508D02*
X028941Y028508D01*
X028901Y029294D02*
X029028Y029421D01*
X028938Y029511D01*
X028864Y029511D01*
X028774Y029421D01*
X028901Y029294D01*
X028815Y029462D02*
X028987Y029462D01*
X029023Y030416D02*
X028779Y030416D01*
X029931Y031370D02*
X037195Y031370D01*
X037045Y031132D02*
X030170Y031132D01*
X030408Y030893D02*
X036962Y030893D01*
X036931Y030654D02*
X030647Y030654D01*
X030805Y030416D02*
X036944Y030416D01*
X037008Y030177D02*
X030811Y030177D01*
X030811Y029939D02*
X037144Y029939D01*
X037367Y029700D02*
X030811Y029700D01*
X030811Y029462D02*
X037906Y029462D01*
X038295Y029462D02*
X039451Y029462D01*
X039451Y029700D02*
X038835Y029700D01*
X039058Y029939D02*
X039451Y029939D01*
X039451Y030177D02*
X039193Y030177D01*
X039257Y030416D02*
X039451Y030416D01*
X039451Y030654D02*
X039271Y030654D01*
X039239Y030893D02*
X039451Y030893D01*
X039451Y031132D02*
X039157Y031132D01*
X039006Y031370D02*
X039451Y031370D01*
X039451Y029223D02*
X030811Y029223D01*
X030811Y028985D02*
X037909Y028985D01*
X037895Y028979D02*
X037743Y028827D01*
X037661Y028628D01*
X037661Y028414D01*
X037743Y028215D01*
X037895Y028063D01*
X038093Y027981D01*
X038308Y027981D01*
X038507Y028063D01*
X038659Y028215D01*
X038741Y028414D01*
X038741Y028628D01*
X038659Y028827D01*
X038507Y028979D01*
X038308Y029061D01*
X038093Y029061D01*
X037895Y028979D01*
X037710Y028746D02*
X030811Y028746D01*
X030811Y028508D02*
X037661Y028508D01*
X037721Y028269D02*
X030811Y028269D01*
X030811Y028031D02*
X037974Y028031D01*
X038428Y028031D02*
X039451Y028031D01*
X039451Y028269D02*
X038681Y028269D01*
X038741Y028508D02*
X039451Y028508D01*
X039451Y028746D02*
X038692Y028746D01*
X038492Y028985D02*
X039451Y028985D01*
X039451Y027792D02*
X030811Y027792D01*
X030811Y027553D02*
X039451Y027553D01*
X039451Y027315D02*
X030811Y027315D01*
X030811Y027076D02*
X039451Y027076D01*
X039451Y026838D02*
X030811Y026838D01*
X030811Y026599D02*
X039451Y026599D01*
X039451Y026361D02*
X030811Y026361D01*
X030811Y026122D02*
X039451Y026122D01*
X039451Y025884D02*
X030811Y025884D01*
X030811Y025645D02*
X039451Y025645D01*
X039451Y025407D02*
X030811Y025407D01*
X030811Y025168D02*
X031484Y025168D01*
X031303Y024929D02*
X030811Y024929D01*
X030811Y024691D02*
X031261Y024691D01*
X031328Y024452D02*
X030811Y024452D01*
X030811Y024214D02*
X031391Y024214D01*
X031391Y023975D02*
X030811Y023975D01*
X030811Y023737D02*
X031187Y023737D01*
X032341Y024691D02*
X039451Y024691D01*
X039451Y024929D02*
X032299Y024929D01*
X032117Y025168D02*
X039451Y025168D01*
X038151Y024214D02*
X036650Y024214D01*
X036801Y023975D02*
X038000Y023975D01*
X037951Y023737D02*
X036851Y023737D01*
X036823Y023498D02*
X037979Y023498D01*
X038100Y023260D02*
X036702Y023260D01*
X036540Y022544D02*
X038261Y022544D01*
X038046Y022305D02*
X036756Y022305D01*
X036851Y022067D02*
X037951Y022067D01*
X037951Y021828D02*
X036851Y021828D01*
X038044Y020874D02*
X039451Y020874D01*
X039451Y020636D02*
X037905Y020636D01*
X037927Y020159D02*
X037071Y020159D01*
X037264Y019920D02*
X037735Y019920D01*
X037730Y019681D02*
X037269Y019681D01*
X037269Y019443D02*
X037730Y019443D01*
X037730Y019204D02*
X037269Y019204D01*
X037269Y017711D02*
X037282Y017711D01*
X037431Y017711D01*
X037491Y017651D01*
X037491Y017442D01*
X037274Y017442D01*
X037269Y017440D01*
X037269Y017526D01*
X037269Y017711D01*
X037269Y017535D02*
X037491Y017535D01*
X035751Y016611D02*
X035720Y016598D01*
X035619Y016497D01*
X035564Y016365D01*
X035564Y016013D01*
X035559Y016027D01*
X035407Y016179D01*
X035208Y016261D01*
X034993Y016261D01*
X034941Y016239D01*
X034941Y016428D01*
X034865Y016611D01*
X035751Y016611D01*
X035703Y016580D02*
X034878Y016580D01*
X034941Y016342D02*
X035564Y016342D01*
X035564Y016103D02*
X035482Y016103D01*
X035531Y015388D02*
X035584Y015388D01*
X035844Y015149D02*
X035043Y015149D01*
X035043Y014911D02*
X036390Y014911D01*
X036264Y014672D02*
X034979Y014672D01*
X034512Y014434D02*
X036264Y014434D01*
X036264Y014195D02*
X034613Y014195D01*
X034641Y013956D02*
X036264Y013956D01*
X036403Y013718D02*
X034560Y013718D01*
X033642Y013718D02*
X033511Y013718D01*
X033511Y013956D02*
X033561Y013956D01*
X033588Y014195D02*
X033511Y014195D01*
X032691Y014195D02*
X032367Y014195D01*
X032329Y014211D02*
X032691Y014211D01*
X032691Y013791D01*
X032641Y013741D01*
X032641Y013828D01*
X032559Y014027D01*
X032407Y014179D01*
X032329Y014211D01*
X032588Y013956D02*
X032691Y013956D01*
X031834Y014195D02*
X030811Y014195D01*
X030811Y014434D02*
X031435Y014434D01*
X031614Y013956D02*
X030811Y013956D01*
X030811Y013718D02*
X031561Y013718D01*
X031616Y013479D02*
X030811Y013479D01*
X030811Y013241D02*
X031645Y013241D01*
X031645Y013002D02*
X030811Y013002D01*
X030811Y012764D02*
X030917Y012764D01*
X030859Y012525D02*
X030811Y012525D01*
X030811Y012287D02*
X030859Y012287D01*
X030859Y012048D02*
X030811Y012048D01*
X030811Y011810D02*
X030891Y011810D01*
X030919Y011571D02*
X030811Y011571D01*
X030811Y011332D02*
X031109Y011332D01*
X031348Y011094D02*
X030811Y011094D01*
X030811Y010855D02*
X031586Y010855D01*
X031825Y010617D02*
X030811Y010617D01*
X030811Y010378D02*
X031880Y010378D01*
X031587Y010140D02*
X030811Y010140D01*
X030811Y009901D02*
X031485Y009901D01*
X031471Y009663D02*
X030811Y009663D01*
X030811Y009424D02*
X031534Y009424D01*
X031704Y009186D02*
X030811Y009186D01*
X033391Y010511D02*
X033531Y010511D01*
X033745Y010297D01*
X033651Y010203D01*
X033614Y010240D01*
X033591Y010249D01*
X033548Y010353D01*
X033433Y010469D01*
X033391Y010511D01*
X033523Y010378D02*
X033664Y010378D01*
X034991Y011810D02*
X037062Y011810D01*
X037069Y012048D02*
X035043Y012048D01*
X035043Y012287D02*
X036269Y012287D01*
X036225Y012525D02*
X035043Y012525D01*
X034985Y012764D02*
X036225Y012764D01*
X036225Y013002D02*
X033295Y013002D01*
X033341Y013241D02*
X036225Y013241D01*
X036380Y013479D02*
X033486Y013479D01*
X030923Y014672D02*
X030811Y014672D01*
X030811Y014911D02*
X030859Y014911D01*
X030859Y015149D02*
X030811Y015149D01*
X030811Y015388D02*
X030859Y015388D01*
X030811Y015626D02*
X030908Y015626D01*
X030811Y015865D02*
X031777Y015865D01*
X031539Y016103D02*
X030811Y016103D01*
X030811Y016342D02*
X031391Y016342D01*
X031391Y016580D02*
X030811Y016580D01*
X030811Y016819D02*
X031391Y016819D01*
X033745Y016012D02*
X033886Y016154D01*
X033943Y016015D01*
X033948Y016010D01*
X033948Y015795D01*
X033745Y015795D01*
X033745Y016012D01*
X033836Y016103D02*
X033906Y016103D01*
X033948Y015865D02*
X033745Y015865D01*
X033979Y018012D02*
X034595Y018012D01*
X034766Y018250D02*
X033824Y018250D01*
X034705Y019443D02*
X034991Y019443D01*
X034991Y019681D02*
X034842Y019681D01*
X034881Y019920D02*
X034991Y019920D01*
X034991Y020159D02*
X034842Y020159D01*
X034707Y020397D02*
X034991Y020397D01*
X034991Y020636D02*
X034823Y020636D01*
X034881Y020874D02*
X034991Y020874D01*
X034991Y021113D02*
X034861Y021113D01*
X034753Y021351D02*
X034991Y021351D01*
X034991Y021590D02*
X034747Y021590D01*
X034765Y021828D02*
X034991Y021828D01*
X034991Y022067D02*
X034765Y022067D01*
X034765Y022305D02*
X034991Y022305D01*
X034991Y022544D02*
X034705Y022544D01*
X034765Y022783D02*
X034991Y022783D01*
X034991Y023021D02*
X034765Y023021D01*
X034765Y023260D02*
X034991Y023260D01*
X034991Y023498D02*
X034765Y023498D01*
X034615Y023737D02*
X035137Y023737D01*
X026880Y029462D02*
X026764Y029462D01*
X026642Y029700D02*
X012978Y029700D01*
X013018Y029939D02*
X026403Y029939D01*
X026345Y027315D02*
X026727Y027315D01*
X019220Y021590D02*
X018581Y021590D01*
X018850Y021351D02*
X018951Y021351D01*
X019511Y020751D02*
X019491Y020702D01*
X019491Y020599D01*
X019420Y020569D01*
X019369Y020517D01*
X019323Y020563D01*
X019511Y020751D01*
X019491Y020636D02*
X019395Y020636D01*
X018406Y020636D02*
X015647Y020636D01*
X015511Y020397D02*
X016337Y020397D01*
X016312Y020159D02*
X015927Y020159D01*
X016041Y019920D02*
X016312Y019920D01*
X016312Y019681D02*
X016027Y019681D01*
X015911Y019443D02*
X016393Y019443D01*
X014291Y019443D02*
X014211Y019443D01*
X014211Y019681D02*
X014291Y019681D01*
X014291Y019920D02*
X014211Y019920D01*
X014211Y020159D02*
X014291Y020159D01*
X014291Y020397D02*
X014211Y020397D01*
X014291Y020567D02*
X014291Y017175D01*
X014243Y017127D01*
X014211Y017049D01*
X014211Y020693D01*
X014243Y020615D01*
X014291Y020567D01*
X014234Y020636D02*
X014211Y020636D01*
X013191Y021231D02*
X013119Y021231D01*
X012941Y021231D01*
X012924Y021271D01*
X012774Y021421D01*
X012864Y021511D01*
X013131Y021511D01*
X013191Y021451D01*
X013191Y021231D01*
X013191Y021351D02*
X012844Y021351D01*
X012784Y020411D02*
X012991Y020411D01*
X012991Y020110D01*
X012924Y020271D01*
X012784Y020411D01*
X012798Y020397D02*
X012991Y020397D01*
X012971Y020159D02*
X012991Y020159D01*
X012991Y019732D02*
X012991Y019110D01*
X012924Y019271D01*
X012774Y019421D01*
X012924Y019571D01*
X012991Y019732D01*
X012991Y019681D02*
X012970Y019681D01*
X012991Y019443D02*
X012796Y019443D01*
X012952Y019204D02*
X012991Y019204D01*
X012991Y018732D02*
X012991Y018110D01*
X012924Y018271D01*
X012774Y018421D01*
X012924Y018571D01*
X012991Y018732D01*
X012989Y018727D02*
X012991Y018727D01*
X012991Y018489D02*
X012842Y018489D01*
X012933Y018250D02*
X012991Y018250D01*
X012991Y017732D02*
X012991Y017110D01*
X012924Y017271D01*
X012774Y017421D01*
X012924Y017571D01*
X012991Y017732D01*
X012991Y017535D02*
X012888Y017535D01*
X012899Y017296D02*
X012991Y017296D01*
X012991Y016732D02*
X012991Y016110D01*
X012924Y016271D01*
X012774Y016421D01*
X012924Y016571D01*
X012991Y016732D01*
X012991Y016580D02*
X012928Y016580D01*
X012991Y016342D02*
X012853Y016342D01*
X012991Y015732D02*
X012991Y015110D01*
X012924Y015271D01*
X012774Y015421D01*
X012924Y015571D01*
X012991Y015732D01*
X012991Y015626D02*
X012947Y015626D01*
X012991Y015388D02*
X012807Y015388D01*
X012975Y015149D02*
X012991Y015149D01*
X012991Y014732D02*
X012991Y014110D01*
X012924Y014271D01*
X012774Y014421D01*
X012924Y014571D01*
X012991Y014732D01*
X012991Y014672D02*
X012966Y014672D01*
X012991Y014434D02*
X012787Y014434D01*
X012956Y014195D02*
X012991Y014195D01*
X012991Y013732D02*
X012991Y013110D01*
X012924Y013271D01*
X012774Y013421D01*
X012924Y013571D01*
X012991Y013732D01*
X012991Y013718D02*
X012985Y013718D01*
X012991Y013479D02*
X012832Y013479D01*
X012937Y013241D02*
X012991Y013241D01*
X012991Y012732D02*
X012991Y012110D01*
X012924Y012271D01*
X012774Y012421D01*
X012924Y012571D01*
X012991Y012732D01*
X012991Y012525D02*
X012878Y012525D01*
X012908Y012287D02*
X012991Y012287D01*
X012991Y011732D02*
X012991Y011110D01*
X012924Y011271D01*
X012774Y011421D01*
X012924Y011571D01*
X012991Y011571D01*
X012924Y011571D02*
X012991Y011732D01*
X012991Y011332D02*
X012862Y011332D01*
X012991Y010732D02*
X012991Y010110D01*
X012924Y010271D01*
X012774Y010421D01*
X012924Y010571D01*
X012991Y010732D01*
X012991Y010617D02*
X012943Y010617D01*
X012991Y010378D02*
X012817Y010378D01*
X012978Y010140D02*
X012991Y010140D01*
X012991Y009732D02*
X012991Y009110D01*
X012924Y009271D01*
X012774Y009421D01*
X012924Y009571D01*
X012991Y009732D01*
X012991Y009663D02*
X012962Y009663D01*
X012991Y009424D02*
X012777Y009424D01*
X012959Y009186D02*
X012991Y009186D01*
X012991Y008732D02*
X012991Y008110D01*
X012924Y008271D01*
X012774Y008421D01*
X012924Y008571D01*
X012991Y008732D01*
X012991Y008709D02*
X012981Y008709D01*
X012991Y008470D02*
X012823Y008470D01*
X012941Y008231D02*
X012991Y008231D01*
X012991Y007732D02*
X012991Y007110D01*
X012924Y007271D01*
X012774Y007421D01*
X012924Y007571D01*
X012991Y007732D01*
X012991Y007516D02*
X012869Y007516D01*
X012918Y007277D02*
X012991Y007277D01*
X012991Y006732D02*
X012991Y006316D01*
X012963Y006382D01*
X012862Y006484D01*
X012844Y006491D01*
X012924Y006571D01*
X012991Y006732D01*
X012991Y006562D02*
X012915Y006562D01*
X012988Y006323D02*
X012991Y006323D01*
X012991Y005526D02*
X012991Y002691D01*
X012731Y002431D01*
X011441Y002431D01*
X011441Y002528D01*
X011359Y002727D01*
X011207Y002879D01*
X011008Y002961D01*
X010941Y002961D01*
X010011Y003891D01*
X010011Y004711D01*
X011819Y004711D01*
X011982Y004711D01*
X012133Y004773D01*
X012633Y005273D01*
X012663Y005303D01*
X012730Y005303D01*
X012862Y005358D01*
X012963Y005460D01*
X012991Y005526D01*
X012991Y005369D02*
X012873Y005369D01*
X012991Y005130D02*
X012490Y005130D01*
X012251Y004892D02*
X012991Y004892D01*
X012991Y004653D02*
X010011Y004653D01*
X010011Y004415D02*
X012991Y004415D01*
X012991Y004176D02*
X010011Y004176D01*
X010011Y003938D02*
X012991Y003938D01*
X012991Y003699D02*
X010202Y003699D01*
X010441Y003461D02*
X012991Y003461D01*
X012991Y003222D02*
X010679Y003222D01*
X010918Y002983D02*
X012991Y002983D01*
X012991Y002745D02*
X011340Y002745D01*
X011441Y002506D02*
X012806Y002506D01*
X013435Y001075D02*
X039451Y001075D01*
X039451Y000837D02*
X000621Y000837D01*
X000621Y001075D02*
X006367Y001075D01*
X007111Y002863D02*
X007111Y002951D01*
X007225Y003065D01*
X007268Y003021D01*
X007111Y002863D01*
X007143Y002983D02*
X007231Y002983D01*
X007178Y003931D02*
X007019Y003931D01*
X006970Y003911D01*
X007171Y004111D01*
X007178Y004111D01*
X007268Y004021D01*
X007178Y003931D01*
X007185Y003938D02*
X006997Y003938D01*
X009333Y003021D02*
X009531Y002823D01*
X009531Y002431D01*
X010311Y002431D01*
X009527Y003215D01*
X009333Y003021D01*
X009371Y002983D02*
X009758Y002983D01*
X009531Y002745D02*
X009997Y002745D01*
X010236Y002506D02*
X009531Y002506D01*
X009771Y005531D02*
X009548Y005753D01*
X009531Y005771D01*
X009531Y005823D01*
X009103Y006251D01*
X008711Y006251D01*
X008711Y007491D01*
X009103Y007491D01*
X009523Y007911D01*
X010019Y007911D01*
X010182Y007911D01*
X010333Y007973D01*
X010904Y008544D01*
X011028Y008421D01*
X010877Y008271D01*
X010783Y008044D01*
X010783Y007798D01*
X010877Y007571D01*
X011028Y007421D01*
X010877Y007271D01*
X010783Y007044D01*
X010783Y006798D01*
X010877Y006571D01*
X011028Y006421D01*
X010877Y006271D01*
X010783Y006044D01*
X010783Y005798D01*
X010877Y005571D01*
X010918Y005531D01*
X009771Y005531D01*
X009694Y005607D02*
X010862Y005607D01*
X010783Y005846D02*
X009508Y005846D01*
X009269Y006085D02*
X010800Y006085D01*
X010930Y006323D02*
X008711Y006323D01*
X008711Y006562D02*
X010887Y006562D01*
X010783Y006800D02*
X008711Y006800D01*
X008711Y007039D02*
X010783Y007039D01*
X010884Y007277D02*
X008711Y007277D01*
X009128Y007516D02*
X010933Y007516D01*
X010801Y007754D02*
X009366Y007754D01*
X010352Y007993D02*
X010783Y007993D01*
X010861Y008231D02*
X010591Y008231D01*
X010830Y008470D02*
X010979Y008470D01*
X010011Y008811D02*
X009931Y008731D01*
X009343Y008731D01*
X009423Y008811D01*
X009919Y008811D01*
X010011Y008811D01*
X009831Y009631D02*
X009423Y009631D01*
X009333Y009721D01*
X009423Y009811D01*
X009819Y009811D01*
X009982Y009811D01*
X010031Y009831D01*
X009831Y009631D01*
X009863Y009663D02*
X009391Y009663D01*
X009468Y010855D02*
X009891Y010855D01*
X009891Y011094D02*
X009531Y011094D01*
X009531Y011332D02*
X009891Y011332D01*
X009891Y011571D02*
X009483Y011571D01*
X009244Y011810D02*
X009891Y011810D01*
X009891Y012048D02*
X008553Y012048D01*
X008446Y012287D02*
X009891Y012287D01*
X009891Y012525D02*
X008815Y012525D01*
X009079Y012764D02*
X009964Y012764D01*
X010202Y013002D02*
X009141Y013002D01*
X009094Y013241D02*
X010441Y013241D01*
X010969Y013479D02*
X008905Y013479D01*
X010711Y012351D02*
X010871Y012511D01*
X010938Y012511D01*
X011028Y012421D01*
X010938Y012331D01*
X010819Y012331D01*
X010711Y012286D01*
X010711Y012351D01*
X010711Y012287D02*
X010712Y012287D01*
X011004Y011444D02*
X011028Y011421D01*
X010911Y011304D01*
X010911Y011351D01*
X011004Y011444D01*
X010939Y011332D02*
X010911Y011332D01*
X007119Y011571D02*
X006831Y011571D01*
X006592Y011332D02*
X007071Y011332D01*
X007071Y011094D02*
X006354Y011094D01*
X006115Y010855D02*
X007134Y010855D01*
X007164Y010617D02*
X005876Y010617D01*
X005638Y010378D02*
X007071Y010378D01*
X007071Y010140D02*
X005352Y010140D01*
X007088Y009901D02*
X002562Y009901D01*
X002771Y010931D02*
X002770Y010934D01*
X002733Y010971D01*
X002870Y011107D01*
X002981Y011376D01*
X002981Y011411D01*
X003636Y011411D01*
X003561Y011228D01*
X003561Y011014D01*
X003595Y010931D01*
X002771Y010931D01*
X002856Y011094D02*
X003561Y011094D01*
X003604Y011332D02*
X002963Y011332D01*
X002854Y012731D02*
X002809Y012839D01*
X002825Y012846D01*
X002890Y012911D01*
X003747Y012911D01*
X003795Y012863D01*
X003993Y012781D01*
X004122Y012781D01*
X004129Y012763D01*
X004161Y012731D01*
X002854Y012731D01*
X002840Y012764D02*
X004129Y012764D01*
X007133Y016269D02*
X007133Y016269D01*
X007391Y016580D02*
X006821Y016580D01*
X006583Y016819D02*
X007391Y016819D01*
X007391Y017058D02*
X006344Y017058D01*
X006105Y017296D02*
X007391Y017296D01*
X007391Y017535D02*
X005931Y017535D01*
X005928Y017773D02*
X007391Y017773D01*
X006885Y018012D02*
X006674Y018012D01*
X012774Y022421D02*
X012864Y022511D01*
X013331Y022511D01*
X013391Y022451D01*
X013391Y022327D01*
X013382Y022331D01*
X013219Y022331D01*
X012864Y022331D01*
X012774Y022421D01*
X014211Y019204D02*
X014291Y019204D01*
X014291Y018966D02*
X014211Y018966D01*
X014211Y018727D02*
X014291Y018727D01*
X014291Y018489D02*
X014211Y018489D01*
X014211Y018250D02*
X014291Y018250D01*
X014291Y018012D02*
X014211Y018012D01*
X014211Y017773D02*
X014291Y017773D01*
X014291Y017535D02*
X014211Y017535D01*
X014211Y017296D02*
X014291Y017296D01*
X014214Y017058D02*
X014211Y017058D01*
X014211Y016580D02*
X014216Y016580D01*
X014211Y016342D02*
X014446Y016342D01*
X014211Y016103D02*
X014691Y016103D01*
X014681Y015865D02*
X014211Y015865D01*
X014211Y015626D02*
X014561Y015626D01*
X014571Y015388D02*
X014211Y015388D01*
X014211Y015149D02*
X014709Y015149D01*
X014211Y014911D02*
X016122Y014911D01*
X015829Y015149D02*
X015493Y015149D01*
X015630Y015388D02*
X015761Y015388D01*
X015801Y015626D02*
X015641Y015626D01*
X015521Y015865D02*
X015891Y015865D01*
X015891Y016103D02*
X015511Y016103D01*
X015885Y016342D02*
X015891Y016342D01*
X021275Y007516D02*
X027009Y007516D01*
X027392Y007516D02*
X027933Y007516D01*
X027884Y007277D02*
X021037Y007277D01*
X020798Y007039D02*
X022755Y007039D01*
X023447Y007039D02*
X023755Y007039D01*
X024447Y007039D02*
X024655Y007039D01*
X025347Y007039D02*
X027783Y007039D01*
X027783Y006800D02*
X025511Y006800D01*
X025541Y006562D02*
X027887Y006562D01*
X027930Y006323D02*
X025462Y006323D01*
X025117Y006085D02*
X027800Y006085D01*
X027783Y005846D02*
X023511Y005846D01*
X023511Y006085D02*
X023985Y006085D01*
X024217Y006085D02*
X024885Y006085D01*
X023511Y005607D02*
X027862Y005607D01*
X028120Y005369D02*
X023511Y005369D01*
X023511Y005130D02*
X028103Y005130D01*
X028061Y004892D02*
X023511Y004892D01*
X023511Y004653D02*
X028127Y004653D01*
X028191Y004415D02*
X023511Y004415D01*
X023511Y004176D02*
X028191Y004176D01*
X028191Y003938D02*
X023511Y003938D01*
X023511Y003699D02*
X028191Y003699D01*
X028191Y003461D02*
X023511Y003461D01*
X023511Y003222D02*
X024586Y003222D01*
X025016Y003222D02*
X026586Y003222D01*
X027016Y003222D02*
X028191Y003222D01*
X030811Y003461D02*
X037286Y003461D01*
X037382Y003557D02*
X037165Y003339D01*
X037011Y003073D01*
X036931Y002775D01*
X036931Y002467D01*
X037011Y002169D01*
X037165Y001903D01*
X037382Y001685D01*
X037649Y001531D01*
X037947Y001451D01*
X038255Y001451D01*
X038552Y001531D01*
X038819Y001685D01*
X039037Y001903D01*
X039191Y002169D01*
X039271Y002467D01*
X039271Y002775D01*
X039191Y003073D01*
X039037Y003339D01*
X038819Y003557D01*
X038552Y003711D01*
X038255Y003791D01*
X037947Y003791D01*
X037649Y003711D01*
X037382Y003557D01*
X037628Y003699D02*
X032952Y003699D01*
X032908Y003681D02*
X033107Y003763D01*
X033259Y003915D01*
X033341Y004114D01*
X033341Y004181D01*
X034171Y005011D01*
X036680Y005011D01*
X036682Y005007D01*
X036887Y004802D01*
X037156Y004691D01*
X037356Y004691D01*
X037432Y004507D01*
X037637Y004302D01*
X037906Y004191D01*
X038196Y004191D01*
X038464Y004302D01*
X038670Y004507D01*
X038781Y004776D01*
X038781Y005066D01*
X038670Y005334D01*
X038583Y005421D01*
X038670Y005507D01*
X038781Y005776D01*
X038781Y006066D01*
X038670Y006334D01*
X038464Y006540D01*
X038196Y006651D01*
X037906Y006651D01*
X037637Y006540D01*
X037432Y006334D01*
X037356Y006151D01*
X037156Y006151D01*
X036887Y006040D01*
X036682Y005834D01*
X036680Y005831D01*
X033919Y005831D01*
X033769Y005769D01*
X033653Y005653D01*
X032761Y004761D01*
X032693Y004761D01*
X032495Y004679D01*
X032343Y004527D01*
X032261Y004328D01*
X032261Y004114D01*
X032343Y003915D01*
X032495Y003763D01*
X032693Y003681D01*
X032908Y003681D01*
X032650Y003699D02*
X030811Y003699D01*
X030811Y003938D02*
X032334Y003938D01*
X032261Y004176D02*
X030811Y004176D01*
X030811Y004415D02*
X032297Y004415D01*
X032469Y004653D02*
X030811Y004653D01*
X030811Y004892D02*
X031367Y004892D01*
X031634Y004892D02*
X032892Y004892D01*
X033130Y005130D02*
X031965Y005130D01*
X032041Y005369D02*
X033369Y005369D01*
X033608Y005607D02*
X032267Y005607D01*
X032506Y005846D02*
X036693Y005846D01*
X036995Y006085D02*
X032744Y006085D01*
X032983Y006323D02*
X037427Y006323D01*
X037690Y006562D02*
X033221Y006562D01*
X033460Y006800D02*
X039451Y006800D01*
X039451Y006562D02*
X038412Y006562D01*
X038674Y006323D02*
X039451Y006323D01*
X039451Y006085D02*
X038773Y006085D01*
X038781Y005846D02*
X039451Y005846D01*
X039451Y005607D02*
X038711Y005607D01*
X038635Y005369D02*
X039451Y005369D01*
X039451Y005130D02*
X038754Y005130D01*
X038781Y004892D02*
X039451Y004892D01*
X039451Y004653D02*
X038730Y004653D01*
X038577Y004415D02*
X039451Y004415D01*
X039451Y004176D02*
X033341Y004176D01*
X033268Y003938D02*
X039451Y003938D01*
X039451Y003699D02*
X038573Y003699D01*
X038916Y003461D02*
X039451Y003461D01*
X039451Y003222D02*
X039105Y003222D01*
X039215Y002983D02*
X039451Y002983D01*
X039451Y002745D02*
X039271Y002745D01*
X039271Y002506D02*
X039451Y002506D01*
X039451Y002268D02*
X039217Y002268D01*
X039110Y002029D02*
X039451Y002029D01*
X039451Y001791D02*
X038925Y001791D01*
X038590Y001552D02*
X039451Y001552D01*
X039451Y001314D02*
X030989Y001314D01*
X031312Y001552D02*
X037612Y001552D01*
X037276Y001791D02*
X031550Y001791D01*
X031616Y003222D02*
X032186Y003222D01*
X032616Y003222D02*
X033186Y003222D01*
X033616Y003222D02*
X037097Y003222D01*
X036987Y002983D02*
X036327Y002983D01*
X036374Y002937D02*
X036217Y003094D01*
X036012Y003179D01*
X035790Y003179D01*
X035585Y003094D01*
X035428Y002937D01*
X035343Y002732D01*
X035343Y002510D01*
X035428Y002305D01*
X035585Y002148D01*
X035790Y002063D01*
X036012Y002063D01*
X036217Y002148D01*
X036374Y002305D01*
X036459Y002510D01*
X036459Y002732D01*
X036374Y002937D01*
X036454Y002745D02*
X036931Y002745D01*
X036931Y002506D02*
X036457Y002506D01*
X036337Y002268D02*
X036984Y002268D01*
X037091Y002029D02*
X033941Y002029D01*
X034086Y002268D02*
X035465Y002268D01*
X035344Y002506D02*
X034131Y002506D01*
X034098Y002745D02*
X035348Y002745D01*
X035474Y002983D02*
X033971Y002983D01*
X033574Y004415D02*
X037525Y004415D01*
X037371Y004653D02*
X033813Y004653D01*
X034051Y004892D02*
X036798Y004892D01*
X036531Y007039D02*
X039451Y007039D01*
X039451Y007277D02*
X036859Y007277D01*
X036976Y007516D02*
X039451Y007516D01*
X039451Y007754D02*
X037001Y007754D01*
X036948Y007993D02*
X039451Y007993D01*
X039451Y008231D02*
X036793Y008231D01*
X035749Y008231D02*
X035653Y008231D01*
X034542Y007277D02*
X033937Y007277D01*
X033698Y007039D02*
X034870Y007039D01*
X035391Y007039D02*
X036010Y007039D01*
X033653Y005653D02*
X033653Y005653D01*
X031037Y005130D02*
X030811Y005130D01*
X028929Y005369D02*
X028916Y005369D01*
X030912Y003222D02*
X031186Y003222D01*
X027801Y007754D02*
X027675Y007754D01*
X027741Y007993D02*
X027783Y007993D01*
X022231Y002983D02*
X021171Y002983D01*
X021357Y002745D02*
X022103Y002745D01*
X022071Y002506D02*
X021431Y002506D01*
X021427Y002268D02*
X022115Y002268D01*
X022260Y002029D02*
X021329Y002029D01*
X016776Y004176D02*
X014211Y004176D01*
X014211Y003938D02*
X016538Y003938D01*
X001128Y003699D02*
X000621Y003699D01*
X000621Y003461D02*
X000786Y003461D01*
X037310Y013526D02*
X037310Y013672D01*
X037379Y013701D01*
X037451Y013772D01*
X037522Y013701D01*
X037592Y013672D01*
X037592Y013526D01*
X037483Y013480D01*
X037451Y013448D01*
X037418Y013480D01*
X037310Y013526D01*
X037420Y013479D02*
X037482Y013479D01*
X037505Y013718D02*
X037396Y013718D01*
D34*
X037501Y021021D03*
X023401Y022921D03*
X035901Y002621D03*
M02*
