G75*
G70*
%OFA0B0*%
%FSLAX24Y24*%
%IPPOS*%
%LPD*%
%AMOC8*
5,1,8,0,0,1.08239X$1,22.5*
%
%ADD10C,0.0740*%
%ADD11R,0.0740X0.0740*%
%ADD12OC8,0.0740*%
%ADD13R,0.0515X0.0515*%
%ADD14C,0.0515*%
%ADD15R,0.0827X0.0827*%
%ADD16C,0.0554*%
%ADD17R,0.0709X0.0630*%
%ADD18R,0.0120X0.0390*%
%ADD19C,0.0100*%
%ADD20C,0.0360*%
%ADD21C,0.0160*%
%ADD22C,0.0240*%
%ADD23C,0.0396*%
D10*
X002151Y010521D03*
X002251Y011521D03*
X002151Y012521D03*
X005201Y016621D03*
X005201Y017621D03*
X005201Y018671D03*
X004201Y018571D03*
X003201Y018671D03*
X005201Y019621D03*
X005201Y020621D03*
X003201Y022121D03*
X002201Y022121D03*
X006201Y018571D03*
X007201Y018671D03*
X017701Y017471D03*
X018701Y017371D03*
X019701Y017471D03*
X020701Y017371D03*
X021701Y017471D03*
X022701Y017371D03*
X023701Y017471D03*
X031801Y019921D03*
X031801Y020921D03*
X034151Y020921D03*
X034151Y019921D03*
X033301Y017741D03*
X033301Y016601D03*
X036121Y021931D03*
X036121Y023711D03*
X038681Y023711D03*
X038681Y021931D03*
X036201Y009721D03*
X037201Y009621D03*
X035201Y009621D03*
X034201Y009721D03*
X033201Y009621D03*
X032201Y009721D03*
X035131Y007721D03*
X036271Y007721D03*
X038051Y005921D03*
X037301Y005421D03*
X038051Y004921D03*
X033401Y002521D03*
X032401Y002521D03*
X031401Y002521D03*
X027801Y002421D03*
X026801Y002521D03*
X025801Y002421D03*
X024801Y002521D03*
X023801Y002421D03*
X022801Y002521D03*
X020701Y002421D03*
X019701Y002521D03*
X018701Y002421D03*
X017701Y002521D03*
X016701Y002421D03*
X015701Y002521D03*
X008101Y030321D03*
X007101Y030321D03*
D11*
X009101Y030321D03*
X002251Y013521D03*
X030401Y002521D03*
D12*
X008801Y002521D03*
X007801Y002521D03*
X007801Y003521D03*
X008801Y003521D03*
X008801Y004521D03*
X007801Y004521D03*
X007801Y005521D03*
X008801Y005521D03*
X008801Y008221D03*
X007801Y008221D03*
X007801Y009221D03*
X008801Y009221D03*
X008801Y010221D03*
X007801Y010221D03*
X007801Y011221D03*
X008801Y011221D03*
D13*
X012401Y005921D03*
X029401Y005921D03*
D14*
X029401Y006921D03*
X029401Y007921D03*
X029401Y008921D03*
X029401Y009921D03*
X029401Y010921D03*
X029401Y011921D03*
X028401Y011921D03*
X028401Y010921D03*
X028401Y009921D03*
X028401Y008921D03*
X028401Y007921D03*
X028401Y006921D03*
X028401Y005921D03*
X028401Y012921D03*
X029401Y012921D03*
X029401Y013921D03*
X029401Y014921D03*
X029401Y015921D03*
X029401Y016921D03*
X029401Y017921D03*
X029401Y018921D03*
X029401Y019921D03*
X029401Y020921D03*
X028401Y020921D03*
X028401Y019921D03*
X028401Y018921D03*
X028401Y017921D03*
X028401Y016921D03*
X028401Y015921D03*
X028401Y014921D03*
X028401Y013921D03*
X028401Y021921D03*
X029401Y021921D03*
X029401Y022921D03*
X029401Y023921D03*
X029401Y024921D03*
X029401Y025921D03*
X029401Y026921D03*
X029401Y027921D03*
X029401Y028921D03*
X029401Y029921D03*
X028401Y029921D03*
X028401Y028921D03*
X028401Y027921D03*
X028401Y026921D03*
X028401Y025921D03*
X028401Y024921D03*
X028401Y023921D03*
X028401Y022921D03*
X012401Y022921D03*
X011401Y022921D03*
X011401Y023921D03*
X012401Y023921D03*
X012401Y024921D03*
X011401Y024921D03*
X011401Y025921D03*
X012401Y025921D03*
X012401Y026921D03*
X011401Y026921D03*
X011401Y027921D03*
X012401Y027921D03*
X012401Y028921D03*
X011401Y028921D03*
X011401Y029921D03*
X012401Y029921D03*
X012401Y021921D03*
X011401Y021921D03*
X011401Y020921D03*
X012401Y020921D03*
X012401Y019921D03*
X011401Y019921D03*
X011401Y018921D03*
X012401Y018921D03*
X012401Y017921D03*
X011401Y017921D03*
X011401Y016921D03*
X012401Y016921D03*
X012401Y015921D03*
X011401Y015921D03*
X011401Y014921D03*
X012401Y014921D03*
X012401Y013921D03*
X011401Y013921D03*
X011401Y012921D03*
X012401Y012921D03*
X012401Y011921D03*
X011401Y011921D03*
X011401Y010921D03*
X012401Y010921D03*
X012401Y009921D03*
X011401Y009921D03*
X011401Y008921D03*
X012401Y008921D03*
X012401Y007921D03*
X011401Y007921D03*
X011401Y006921D03*
X012401Y006921D03*
X011401Y005921D03*
D15*
X004728Y025238D03*
X003074Y025238D03*
X003074Y027404D03*
X004728Y027404D03*
D16*
X037401Y018537D03*
X037401Y016805D03*
D17*
X026101Y010772D03*
X026101Y009670D03*
X024701Y009670D03*
X024701Y010772D03*
X023301Y010772D03*
X023301Y009670D03*
X021901Y009670D03*
X021901Y010772D03*
X020501Y010772D03*
X020501Y009670D03*
X026601Y006972D03*
X026601Y005870D03*
D18*
X025108Y005272D03*
X024852Y005272D03*
X024596Y005272D03*
X024341Y005272D03*
X024085Y005272D03*
X023829Y005272D03*
X023573Y005272D03*
X023317Y005272D03*
X023061Y005272D03*
X022805Y005272D03*
X022549Y005272D03*
X022293Y005272D03*
X022293Y007570D03*
X022549Y007570D03*
X022805Y007570D03*
X023061Y007570D03*
X023317Y007570D03*
X023573Y007570D03*
X023829Y007570D03*
X024085Y007570D03*
X024341Y007570D03*
X024596Y007570D03*
X024852Y007570D03*
X025108Y007570D03*
D19*
X024852Y007570D01*
X024852Y006621D01*
X025001Y006621D01*
X024596Y006125D02*
X023573Y006125D01*
X023573Y007570D01*
X023801Y007598D02*
X023801Y008221D01*
X023301Y008721D01*
X022301Y008721D01*
X021901Y009121D01*
X021901Y009670D01*
X021201Y009921D02*
X021201Y010621D01*
X021301Y010721D01*
X021850Y010721D01*
X021901Y010772D01*
X023301Y010772D01*
X024701Y010772D01*
X026101Y010772D01*
X026801Y011421D02*
X030301Y011421D01*
X030351Y011471D01*
X030351Y011371D01*
X030501Y011221D01*
X030501Y009521D01*
X031001Y009021D01*
X035601Y009021D01*
X036301Y008321D01*
X036301Y007751D01*
X036271Y007721D01*
X037001Y006921D02*
X038001Y005921D01*
X038051Y005921D01*
X038051Y004921D02*
X038601Y004921D01*
X038901Y005221D01*
X038901Y010921D01*
X038501Y010921D01*
X037201Y009621D01*
X038901Y010921D02*
X037901Y011921D01*
X037601Y011921D01*
X034101Y011921D01*
X032801Y013221D01*
X032101Y013721D02*
X032401Y014021D01*
X034101Y014021D01*
X035101Y015721D02*
X035101Y017821D01*
X034401Y017421D02*
X034401Y016321D01*
X033281Y017721D02*
X030901Y017721D01*
X030901Y023021D01*
X030501Y023821D02*
X035501Y023821D01*
X035611Y023711D01*
X036121Y023711D01*
X034631Y023421D02*
X029101Y023421D01*
X028901Y023221D01*
X028901Y019321D01*
X028501Y018921D01*
X028401Y018921D01*
X030501Y017321D02*
X030501Y011621D01*
X030351Y011471D01*
X027601Y012621D02*
X018801Y012621D01*
X019401Y012021D02*
X027001Y012021D01*
X026601Y011621D02*
X020701Y011621D01*
X020501Y011421D01*
X020501Y010772D01*
X021201Y009921D02*
X020950Y009670D01*
X020501Y009670D01*
X020501Y008521D01*
X022805Y008521D01*
X022805Y007570D01*
X023061Y007570D01*
X023061Y006661D01*
X023101Y006621D01*
X023301Y007554D02*
X023317Y007570D01*
X023317Y008121D01*
X023301Y008121D01*
X023801Y007598D02*
X023829Y007570D01*
X024085Y007570D02*
X024101Y007586D01*
X024101Y008321D01*
X023301Y009121D01*
X023301Y009670D01*
X023352Y009670D01*
X024596Y009565D02*
X024596Y007570D01*
X024596Y007921D01*
X024596Y007570D02*
X024596Y006125D01*
X025101Y005621D01*
X025101Y005280D01*
X025108Y005272D01*
X025108Y004921D01*
X028601Y004921D01*
X029601Y004521D02*
X030501Y005421D01*
X031501Y005421D01*
X031701Y005921D02*
X033401Y004221D01*
X033401Y002521D01*
X035751Y004871D01*
X037851Y004871D01*
X037901Y004921D01*
X038051Y004921D01*
X037001Y006921D02*
X029401Y006921D01*
X029201Y007321D01*
X027150Y007321D01*
X026601Y006972D01*
X026501Y006972D01*
X026501Y008121D01*
X027201Y008021D02*
X027501Y007521D01*
X032501Y007521D01*
X034201Y008521D02*
X027601Y008521D01*
X026550Y009670D02*
X026101Y009670D01*
X024701Y009670D01*
X024596Y009565D01*
X026550Y009670D02*
X026801Y009921D01*
X026801Y011421D01*
X026601Y011621D01*
X022549Y008321D02*
X019401Y008321D01*
X016301Y011821D01*
X016301Y015421D01*
X015101Y015521D02*
X015101Y011821D01*
X021901Y004521D01*
X022549Y004521D01*
X022549Y005272D01*
X022801Y005268D02*
X022801Y004321D01*
X022805Y004321D02*
X021701Y004321D01*
X014701Y011821D01*
X014701Y016821D01*
X015501Y016721D02*
X015501Y011821D01*
X022101Y004721D01*
X022293Y004721D01*
X022293Y005272D01*
X022801Y005268D02*
X022805Y005272D01*
X022805Y004321D01*
X023061Y005272D02*
X023061Y003021D01*
X023801Y003021D01*
X023801Y002421D01*
X023317Y003221D02*
X024801Y003221D01*
X024801Y002521D01*
X025801Y002421D02*
X025801Y003421D01*
X023601Y003421D01*
X023601Y005244D01*
X023573Y005272D01*
X023829Y005272D02*
X023829Y003621D01*
X026801Y003621D01*
X026801Y002521D01*
X027801Y002421D02*
X027801Y003821D01*
X024085Y003821D01*
X024085Y005272D01*
X024341Y005272D02*
X024341Y004021D01*
X032401Y004021D01*
X032401Y002521D01*
X032801Y004221D02*
X024596Y004221D01*
X024596Y005272D01*
X024601Y005268D01*
X024852Y005272D02*
X024852Y004521D01*
X029601Y004521D01*
X029401Y005921D02*
X028401Y005921D01*
X026652Y005921D01*
X026601Y005870D01*
X026250Y005870D01*
X026201Y005821D01*
X025801Y005821D01*
X025501Y006121D01*
X025501Y007177D01*
X025108Y007570D01*
X024341Y007570D02*
X024341Y006621D01*
X024101Y006621D01*
X023317Y005272D02*
X023317Y003221D01*
X022801Y002521D02*
X022801Y002121D01*
X022501Y001821D01*
X017301Y001821D01*
X016701Y002421D01*
X016101Y001821D01*
X011401Y001821D01*
X010901Y002321D01*
X010901Y002421D01*
X010001Y002521D02*
X010801Y003321D01*
X010801Y007321D01*
X011401Y007921D01*
X012401Y007921D02*
X012451Y007871D01*
X013351Y007871D01*
X017601Y003621D01*
X017601Y002871D01*
X017701Y002771D01*
X017701Y002521D01*
X018601Y002121D02*
X018701Y002221D01*
X018701Y002421D01*
X018601Y002121D02*
X018601Y003621D01*
X013351Y008871D01*
X012451Y008871D01*
X012401Y008921D01*
X011401Y008921D02*
X010901Y008921D01*
X010601Y008621D01*
X010601Y004121D01*
X010001Y003521D01*
X008801Y003521D01*
X008801Y002521D02*
X010001Y002521D01*
X010001Y004521D02*
X008801Y004521D01*
X008801Y005521D02*
X008901Y005521D01*
X009401Y005921D01*
X009401Y010721D01*
X008901Y011221D01*
X008801Y011221D01*
X007801Y011221D02*
X007801Y015021D01*
X006901Y015121D02*
X009901Y018121D01*
X009901Y020721D01*
X010101Y020921D01*
X010801Y020921D01*
X011001Y020921D01*
X011401Y020921D01*
X011401Y019921D02*
X011901Y019421D01*
X016201Y019421D01*
X017001Y018621D01*
X017801Y018621D01*
X018701Y017721D01*
X017501Y016521D02*
X021401Y016521D01*
X021801Y016921D01*
X021801Y017371D01*
X021701Y017471D01*
X017501Y016521D02*
X016601Y017421D01*
X015901Y017421D01*
X015901Y011821D01*
X019401Y007921D01*
X022293Y007921D01*
X022293Y007570D01*
X022549Y007570D02*
X022549Y008321D01*
X020601Y003871D02*
X013601Y010871D01*
X012451Y010871D01*
X012401Y010921D01*
X012401Y009921D02*
X012451Y009871D01*
X013601Y009871D01*
X019701Y003771D01*
X019701Y002521D01*
X020601Y002621D02*
X020701Y002521D01*
X020701Y002421D01*
X020601Y002621D02*
X020601Y003871D01*
X014701Y005021D02*
X013401Y006321D01*
X012001Y006321D01*
X011401Y006921D01*
X012401Y006921D02*
X012701Y006621D01*
X013901Y006621D01*
X014701Y005821D01*
X010401Y004921D02*
X010401Y009521D01*
X010801Y009921D01*
X011401Y009921D01*
X007801Y010221D02*
X007101Y010221D01*
X006901Y010421D01*
X006901Y015121D01*
X006501Y015521D02*
X006501Y009721D01*
X007001Y009221D01*
X007801Y009221D01*
X007801Y008221D02*
X006501Y008221D01*
X006101Y008621D01*
X006101Y015721D01*
X009201Y018821D01*
X009201Y022421D01*
X009701Y022921D01*
X011401Y022921D01*
X011401Y021921D02*
X010401Y021921D01*
X009601Y021121D01*
X009601Y018621D01*
X006501Y015521D01*
X005201Y016621D02*
X007201Y018621D01*
X007201Y018671D01*
X008451Y018671D01*
X008801Y019021D01*
X008801Y023221D01*
X009801Y024421D01*
X011901Y024421D01*
X012401Y024921D01*
X012401Y023921D02*
X013801Y023921D01*
X014701Y023321D01*
X014701Y020921D01*
X015501Y019821D02*
X015501Y026821D01*
X014401Y027921D01*
X012401Y027921D01*
X011901Y028421D02*
X011901Y029521D01*
X012301Y029921D01*
X012401Y029921D01*
X011901Y028421D02*
X011401Y027921D01*
X011301Y027921D01*
X010701Y028521D01*
X005001Y028521D01*
X004701Y028221D01*
X004701Y027421D01*
X004710Y027421D01*
X004728Y027404D01*
X005601Y026530D01*
X005601Y022221D01*
X006201Y021621D01*
X006201Y020221D01*
X005601Y019621D01*
X005201Y019621D01*
X004201Y018621D01*
X004201Y018571D01*
X004201Y018321D01*
X003601Y017721D01*
X003601Y011121D01*
X003001Y010521D01*
X002151Y010521D01*
X004101Y011121D02*
X004101Y013321D01*
X005301Y014021D02*
X005301Y011821D01*
X008601Y013021D02*
X008601Y013921D01*
X009001Y014321D01*
X014301Y014321D01*
X012901Y017421D02*
X015901Y017421D01*
X016301Y018421D02*
X015601Y018921D01*
X012401Y018921D01*
X011901Y018421D02*
X015101Y018421D01*
X012901Y017421D02*
X012401Y017921D01*
X011901Y018421D02*
X011401Y018921D01*
X006601Y018971D02*
X006601Y025421D01*
X007101Y025921D01*
X011401Y025921D01*
X007101Y030321D02*
X007801Y031021D01*
X030201Y031021D01*
X031801Y029421D01*
X031801Y024721D01*
X030501Y023821D02*
X030001Y024321D01*
X030001Y029321D01*
X029401Y029921D01*
X034631Y023421D02*
X036121Y021931D01*
X033301Y017741D02*
X033281Y017721D01*
X030901Y017721D02*
X030501Y017321D01*
X029401Y005921D02*
X031701Y005921D01*
X010401Y004921D02*
X010001Y004521D01*
X005201Y017621D02*
X006151Y018571D01*
X006201Y018571D01*
X006601Y018971D01*
X005201Y020621D02*
X005201Y021021D01*
X004801Y021421D01*
X004801Y025165D01*
X004728Y025238D01*
X003074Y027404D02*
X002201Y026530D01*
X002201Y022121D01*
X005201Y020621D02*
X003251Y018671D01*
X003201Y018671D01*
D20*
X001301Y020421D03*
X007801Y015021D03*
X008601Y013021D03*
X005301Y014021D03*
X004101Y013321D03*
X005301Y011821D03*
X004101Y011121D03*
X005101Y006321D03*
X002101Y006321D03*
X004001Y002421D03*
X010901Y002421D03*
X014701Y005021D03*
X014701Y005821D03*
X019401Y012021D03*
X018801Y012621D03*
X019901Y013521D03*
X021301Y013621D03*
X024301Y013621D03*
X026401Y013621D03*
X027601Y012621D03*
X027001Y012021D03*
X027601Y008521D03*
X027201Y008021D03*
X026501Y008121D03*
X025001Y006621D03*
X024101Y006621D03*
X023101Y006621D03*
X023301Y008121D03*
X028601Y004921D03*
X031501Y005421D03*
X032801Y004221D03*
X032501Y007521D03*
X034201Y008521D03*
X037601Y011921D03*
X034101Y014021D03*
X032801Y013221D03*
X032101Y013721D03*
X035101Y015721D03*
X034401Y016321D03*
X034401Y017421D03*
X035101Y017821D03*
X030901Y023021D03*
X031801Y024721D03*
X038201Y028521D03*
X023401Y027421D03*
X020301Y027321D03*
X016901Y027321D03*
X020601Y023021D03*
X016801Y022821D03*
X014701Y020921D03*
X015501Y019821D03*
X015101Y018421D03*
X016301Y018421D03*
X014701Y016821D03*
X015501Y016721D03*
X015101Y015521D03*
X016301Y015421D03*
X014301Y014321D03*
D21*
X018701Y017371D02*
X018701Y017721D01*
D22*
X000621Y001978D02*
X000621Y000641D01*
X039451Y000641D01*
X039451Y031597D01*
X038750Y031597D01*
X038819Y031557D01*
X039037Y031339D01*
X039191Y031073D01*
X039271Y030775D01*
X039271Y030467D01*
X039191Y030169D01*
X039037Y029903D01*
X038819Y029685D01*
X038552Y029531D01*
X038255Y029451D01*
X037947Y029451D01*
X037649Y029531D01*
X037382Y029685D01*
X037165Y029903D01*
X037011Y030169D01*
X036931Y030467D01*
X036931Y030775D01*
X037011Y031073D01*
X037165Y031339D01*
X037382Y031557D01*
X037451Y031597D01*
X002250Y031597D01*
X002319Y031557D01*
X002537Y031339D01*
X002691Y031073D01*
X002771Y030775D01*
X002771Y030467D01*
X002691Y030169D01*
X002537Y029903D01*
X002319Y029685D01*
X002052Y029531D01*
X001755Y029451D01*
X001447Y029451D01*
X001149Y029531D01*
X000882Y029685D01*
X000665Y029903D01*
X000621Y029978D01*
X000621Y028157D01*
X000795Y028257D01*
X001077Y028333D01*
X001370Y028333D01*
X001652Y028257D01*
X001906Y028111D01*
X002112Y027904D01*
X002258Y027651D01*
X002301Y027494D01*
X002301Y027889D01*
X002355Y028021D01*
X002457Y028122D01*
X002589Y028177D01*
X003559Y028177D01*
X003691Y028122D01*
X003793Y028021D01*
X003847Y027889D01*
X003847Y026919D01*
X003793Y026786D01*
X003691Y026685D01*
X003559Y026630D01*
X002880Y026630D01*
X002611Y026361D01*
X005191Y026361D01*
X005191Y026012D01*
X004243Y026012D01*
X004110Y025957D01*
X004009Y025856D01*
X003954Y025723D01*
X003954Y024753D01*
X004009Y024621D01*
X004110Y024520D01*
X004243Y024465D01*
X004391Y024465D01*
X004391Y021502D01*
X004391Y021339D01*
X004453Y021189D01*
X004595Y021047D01*
X004582Y021034D01*
X004471Y020766D01*
X004471Y020476D01*
X004472Y020472D01*
X003385Y019385D01*
X003346Y019401D01*
X003056Y019401D01*
X002787Y019290D01*
X002582Y019084D01*
X002471Y018816D01*
X002471Y018526D01*
X002582Y018257D01*
X002787Y018052D01*
X003056Y017941D01*
X003248Y017941D01*
X003191Y017802D01*
X003191Y017639D01*
X003191Y011291D01*
X002831Y010931D01*
X002771Y010931D01*
X002770Y010934D01*
X002733Y010971D01*
X002870Y011107D01*
X002981Y011376D01*
X002981Y011666D01*
X002870Y011934D01*
X002733Y012071D01*
X002770Y012107D01*
X002881Y012376D01*
X002881Y012666D01*
X002809Y012839D01*
X002825Y012846D01*
X002926Y012947D01*
X002981Y013079D01*
X002981Y013963D01*
X002926Y014095D01*
X002825Y014196D01*
X002692Y014251D01*
X001809Y014251D01*
X001677Y014196D01*
X001576Y014095D01*
X001521Y013963D01*
X001521Y013079D01*
X001566Y012969D01*
X001532Y012934D01*
X001421Y012666D01*
X001421Y012376D01*
X001532Y012107D01*
X001668Y011971D01*
X001632Y011934D01*
X001521Y011666D01*
X001521Y011376D01*
X001632Y011107D01*
X001668Y011071D01*
X001532Y010934D01*
X001421Y010666D01*
X001421Y010376D01*
X001532Y010107D01*
X001737Y009902D01*
X002006Y009791D01*
X002296Y009791D01*
X002564Y009902D01*
X002770Y010107D01*
X002771Y010111D01*
X002919Y010111D01*
X003082Y010111D01*
X003233Y010173D01*
X003759Y010699D01*
X003795Y010663D01*
X003993Y010581D01*
X004208Y010581D01*
X004407Y010663D01*
X004559Y010815D01*
X004641Y011014D01*
X004641Y011228D01*
X004559Y011427D01*
X004511Y011475D01*
X004511Y012967D01*
X004559Y013015D01*
X004641Y013214D01*
X004641Y013428D01*
X004559Y013627D01*
X004407Y013779D01*
X004208Y013861D01*
X004011Y013861D01*
X004011Y017551D01*
X004301Y017841D01*
X004346Y017841D01*
X004534Y017919D01*
X004471Y017766D01*
X004471Y017476D01*
X004582Y017207D01*
X004668Y017121D01*
X004582Y017034D01*
X004471Y016766D01*
X004471Y016476D01*
X004582Y016207D01*
X004787Y016002D01*
X005056Y015891D01*
X005346Y015891D01*
X005614Y016002D01*
X005820Y016207D01*
X005931Y016476D01*
X005931Y016766D01*
X005929Y016770D01*
X007101Y017941D01*
X007346Y017941D01*
X007614Y018052D01*
X007820Y018257D01*
X007821Y018261D01*
X008061Y018261D01*
X005753Y015953D01*
X005691Y015802D01*
X005691Y015639D01*
X005691Y014395D01*
X005607Y014479D01*
X005408Y014561D01*
X005193Y014561D01*
X004995Y014479D01*
X004843Y014327D01*
X004761Y014128D01*
X004761Y013914D01*
X004843Y013715D01*
X004891Y013667D01*
X004891Y012175D01*
X004843Y012127D01*
X004761Y011928D01*
X004761Y011714D01*
X004843Y011515D01*
X004995Y011363D01*
X005193Y011281D01*
X005408Y011281D01*
X005607Y011363D01*
X005691Y011447D01*
X005691Y008539D01*
X005753Y008389D01*
X005869Y008273D01*
X006269Y007873D01*
X006419Y007811D01*
X006582Y007811D01*
X007178Y007811D01*
X007498Y007491D01*
X008103Y007491D01*
X008301Y007689D01*
X008498Y007491D01*
X008991Y007491D01*
X008991Y006251D01*
X008498Y006251D01*
X008301Y006053D01*
X008103Y006251D01*
X007498Y006251D01*
X007071Y005823D01*
X007071Y005219D01*
X007268Y005021D01*
X007071Y004823D01*
X007071Y004219D01*
X007268Y004021D01*
X007071Y003823D01*
X007071Y003219D01*
X007268Y003021D01*
X007071Y002823D01*
X007071Y002219D01*
X007498Y001791D01*
X008103Y001791D01*
X008301Y001989D01*
X008498Y001791D01*
X009103Y001791D01*
X009423Y002111D01*
X009919Y002111D01*
X010082Y002111D01*
X010233Y002173D01*
X010364Y002305D01*
X010443Y002115D01*
X010595Y001963D01*
X010738Y001904D01*
X011169Y001473D01*
X011319Y001411D01*
X011482Y001411D01*
X016182Y001411D01*
X016333Y001473D01*
X016448Y001589D01*
X016552Y001692D01*
X016556Y001691D01*
X016846Y001691D01*
X016849Y001692D01*
X016953Y001589D01*
X017069Y001473D01*
X017219Y001411D01*
X022419Y001411D01*
X022582Y001411D01*
X022733Y001473D01*
X023033Y001773D01*
X023125Y001865D01*
X023214Y001902D01*
X023251Y001939D01*
X023387Y001802D01*
X023656Y001691D01*
X023946Y001691D01*
X024214Y001802D01*
X024351Y001939D01*
X024387Y001902D01*
X024656Y001791D01*
X024946Y001791D01*
X025214Y001902D01*
X025251Y001939D01*
X025387Y001802D01*
X025656Y001691D01*
X025946Y001691D01*
X026214Y001802D01*
X026351Y001939D01*
X026387Y001902D01*
X026656Y001791D01*
X026946Y001791D01*
X027214Y001902D01*
X027251Y001939D01*
X027387Y001802D01*
X027656Y001691D01*
X027946Y001691D01*
X028214Y001802D01*
X028420Y002007D01*
X028531Y002276D01*
X028531Y002566D01*
X028420Y002834D01*
X028214Y003040D01*
X028211Y003041D01*
X028211Y003611D01*
X031991Y003611D01*
X031991Y003141D01*
X031987Y003140D01*
X031901Y003053D01*
X031814Y003140D01*
X031546Y003251D01*
X031256Y003251D01*
X031018Y003153D01*
X030975Y003196D01*
X030842Y003251D01*
X029959Y003251D01*
X029827Y003196D01*
X029726Y003095D01*
X029671Y002963D01*
X029671Y002079D01*
X029726Y001947D01*
X029827Y001846D01*
X029959Y001791D01*
X030842Y001791D01*
X030975Y001846D01*
X031018Y001889D01*
X031256Y001791D01*
X031546Y001791D01*
X031814Y001902D01*
X031901Y001989D01*
X031987Y001902D01*
X032256Y001791D01*
X032546Y001791D01*
X032814Y001902D01*
X032901Y001989D01*
X032987Y001902D01*
X033256Y001791D01*
X033546Y001791D01*
X033814Y001902D01*
X034020Y002107D01*
X034131Y002376D01*
X034131Y002666D01*
X034129Y002670D01*
X035921Y004461D01*
X037478Y004461D01*
X037637Y004302D01*
X037906Y004191D01*
X038196Y004191D01*
X038464Y004302D01*
X038670Y004507D01*
X038671Y004511D01*
X038682Y004511D01*
X038833Y004573D01*
X039133Y004873D01*
X039248Y004989D01*
X039311Y005139D01*
X039311Y010839D01*
X039311Y011002D01*
X039248Y011153D01*
X039133Y011269D01*
X038248Y012153D01*
X038133Y012269D01*
X037982Y012331D01*
X037954Y012331D01*
X037907Y012379D01*
X037708Y012461D01*
X037493Y012461D01*
X037295Y012379D01*
X037247Y012331D01*
X034271Y012331D01*
X033341Y013261D01*
X033341Y013328D01*
X033259Y013527D01*
X033174Y013611D01*
X033747Y013611D01*
X033795Y013563D01*
X033993Y013481D01*
X034208Y013481D01*
X034407Y013563D01*
X034559Y013715D01*
X034641Y013914D01*
X034641Y014128D01*
X034559Y014327D01*
X034407Y014479D01*
X034208Y014561D01*
X033993Y014561D01*
X033795Y014479D01*
X033747Y014431D01*
X032319Y014431D01*
X032169Y014369D01*
X032061Y014261D01*
X031993Y014261D01*
X031795Y014179D01*
X031643Y014027D01*
X031561Y013828D01*
X031561Y013614D01*
X031643Y013415D01*
X031795Y013263D01*
X031993Y013181D01*
X032208Y013181D01*
X032261Y013203D01*
X032261Y013114D01*
X032343Y012915D01*
X032495Y012763D01*
X032693Y012681D01*
X032761Y012681D01*
X033753Y011689D01*
X033869Y011573D01*
X034019Y011511D01*
X037247Y011511D01*
X037295Y011463D01*
X037493Y011381D01*
X037708Y011381D01*
X037816Y011426D01*
X038121Y011121D01*
X037349Y010349D01*
X037346Y010351D01*
X037056Y010351D01*
X036787Y010240D01*
X036751Y010203D01*
X036614Y010340D01*
X036346Y010451D01*
X036056Y010451D01*
X035787Y010340D01*
X035651Y010203D01*
X035614Y010240D01*
X035346Y010351D01*
X035056Y010351D01*
X034787Y010240D01*
X034751Y010203D01*
X034614Y010340D01*
X034346Y010451D01*
X034056Y010451D01*
X033787Y010340D01*
X033651Y010203D01*
X033614Y010240D01*
X033346Y010351D01*
X033056Y010351D01*
X032787Y010240D01*
X032751Y010203D01*
X032614Y010340D01*
X032346Y010451D01*
X032056Y010451D01*
X031787Y010340D01*
X031582Y010134D01*
X031471Y009866D01*
X031471Y009576D01*
X031531Y009431D01*
X031171Y009431D01*
X030911Y009691D01*
X030911Y011139D01*
X030911Y011302D01*
X030862Y011421D01*
X030911Y011539D01*
X030911Y011702D01*
X030911Y017151D01*
X031071Y017311D01*
X032698Y017311D01*
X032838Y017171D01*
X032682Y017014D01*
X032571Y016746D01*
X032571Y016456D01*
X032682Y016187D01*
X032887Y015982D01*
X033156Y015871D01*
X033446Y015871D01*
X033714Y015982D01*
X033886Y016154D01*
X033943Y016015D01*
X034095Y015863D01*
X034293Y015781D01*
X034508Y015781D01*
X034561Y015803D01*
X034561Y015614D01*
X034643Y015415D01*
X034795Y015263D01*
X034993Y015181D01*
X035208Y015181D01*
X035407Y015263D01*
X035559Y015415D01*
X035641Y015614D01*
X035641Y015828D01*
X035559Y016027D01*
X035511Y016075D01*
X035511Y017467D01*
X035559Y017515D01*
X035641Y017714D01*
X035641Y017928D01*
X035559Y018127D01*
X035407Y018279D01*
X035208Y018361D01*
X034993Y018361D01*
X034795Y018279D01*
X034643Y018127D01*
X034565Y017938D01*
X034508Y017961D01*
X034293Y017961D01*
X034095Y017879D01*
X034031Y017815D01*
X034031Y017886D01*
X033920Y018154D01*
X033714Y018360D01*
X033446Y018471D01*
X033156Y018471D01*
X032887Y018360D01*
X032682Y018154D01*
X032672Y018131D01*
X031311Y018131D01*
X031311Y019379D01*
X031387Y019302D01*
X031656Y019191D01*
X031946Y019191D01*
X032214Y019302D01*
X032420Y019507D01*
X032531Y019776D01*
X032531Y020066D01*
X032420Y020334D01*
X032333Y020421D01*
X032420Y020507D01*
X032531Y020776D01*
X032531Y021066D01*
X032420Y021334D01*
X032214Y021540D01*
X031946Y021651D01*
X031656Y021651D01*
X031387Y021540D01*
X031311Y021463D01*
X031311Y022667D01*
X031359Y022715D01*
X031441Y022914D01*
X031441Y023011D01*
X034461Y023011D01*
X035392Y022080D01*
X035391Y022076D01*
X035391Y021786D01*
X035502Y021517D01*
X035707Y021312D01*
X035976Y021201D01*
X036266Y021201D01*
X036534Y021312D01*
X036740Y021517D01*
X036851Y021786D01*
X036851Y022076D01*
X036740Y022344D01*
X036534Y022550D01*
X036266Y022661D01*
X035976Y022661D01*
X035972Y022659D01*
X035221Y023411D01*
X035331Y023411D01*
X035379Y023363D01*
X035495Y023315D01*
X035502Y023297D01*
X035707Y023092D01*
X035976Y022981D01*
X036266Y022981D01*
X036534Y023092D01*
X036740Y023297D01*
X036851Y023566D01*
X036851Y023856D01*
X036740Y024124D01*
X036534Y024330D01*
X036266Y024441D01*
X035976Y024441D01*
X035707Y024330D01*
X035601Y024223D01*
X035582Y024231D01*
X035419Y024231D01*
X032029Y024231D01*
X032107Y024263D01*
X032259Y024415D01*
X032341Y024614D01*
X032341Y024828D01*
X032259Y025027D01*
X032211Y025075D01*
X032211Y029502D01*
X032148Y029653D01*
X032033Y029769D01*
X030433Y031369D01*
X030282Y031431D01*
X030119Y031431D01*
X007719Y031431D01*
X007569Y031369D01*
X007453Y031253D01*
X007249Y031049D01*
X007246Y031051D01*
X006956Y031051D01*
X006687Y030940D01*
X006482Y030734D01*
X006371Y030466D01*
X006371Y030176D01*
X006482Y029907D01*
X006687Y029702D01*
X006956Y029591D01*
X007246Y029591D01*
X007514Y029702D01*
X007601Y029789D01*
X007687Y029702D01*
X007956Y029591D01*
X008246Y029591D01*
X008483Y029689D01*
X008527Y029646D01*
X008659Y029591D01*
X009542Y029591D01*
X009675Y029646D01*
X009776Y029747D01*
X009831Y029879D01*
X009831Y030611D01*
X030031Y030611D01*
X031391Y029251D01*
X031391Y025075D01*
X031343Y025027D01*
X031261Y024828D01*
X031261Y024614D01*
X031343Y024415D01*
X031495Y024263D01*
X031573Y024231D01*
X030671Y024231D01*
X030411Y024491D01*
X030411Y029402D01*
X030348Y029553D01*
X030233Y029669D01*
X030018Y029883D01*
X030018Y030044D01*
X029924Y030271D01*
X029751Y030444D01*
X029524Y030538D01*
X029278Y030538D01*
X029051Y030444D01*
X028901Y030294D01*
X028751Y030444D01*
X028524Y030538D01*
X028278Y030538D01*
X028051Y030444D01*
X027877Y030271D01*
X027783Y030044D01*
X027783Y029798D01*
X027877Y029571D01*
X028028Y029421D01*
X027877Y029271D01*
X027783Y029044D01*
X027783Y028798D01*
X027877Y028571D01*
X028028Y028421D01*
X027877Y028271D01*
X027783Y028044D01*
X027783Y027798D01*
X027877Y027571D01*
X028028Y027421D01*
X027877Y027271D01*
X027783Y027044D01*
X027783Y026798D01*
X027877Y026571D01*
X028028Y026421D01*
X027877Y026271D01*
X027783Y026044D01*
X027783Y025798D01*
X027877Y025571D01*
X028028Y025421D01*
X027877Y025271D01*
X027783Y025044D01*
X027783Y024798D01*
X027877Y024571D01*
X028028Y024421D01*
X027877Y024271D01*
X027783Y024044D01*
X027783Y023798D01*
X027877Y023571D01*
X028028Y023421D01*
X027877Y023271D01*
X027783Y023044D01*
X027783Y022798D01*
X027877Y022571D01*
X028028Y022421D01*
X027877Y022271D01*
X027783Y022044D01*
X027783Y021798D01*
X027877Y021571D01*
X028028Y021421D01*
X027877Y021271D01*
X027783Y021044D01*
X027783Y020798D01*
X027877Y020571D01*
X028028Y020421D01*
X027877Y020271D01*
X027783Y020044D01*
X027783Y019798D01*
X027877Y019571D01*
X028028Y019421D01*
X027877Y019271D01*
X027783Y019044D01*
X027783Y018798D01*
X027877Y018571D01*
X028028Y018421D01*
X027877Y018271D01*
X027783Y018044D01*
X027783Y017798D01*
X027877Y017571D01*
X028028Y017421D01*
X027877Y017271D01*
X027783Y017044D01*
X027783Y016798D01*
X027877Y016571D01*
X028028Y016421D01*
X027877Y016271D01*
X027783Y016044D01*
X027783Y015798D01*
X027877Y015571D01*
X028028Y015421D01*
X027877Y015271D01*
X027783Y015044D01*
X027783Y014798D01*
X027877Y014571D01*
X028028Y014421D01*
X027877Y014271D01*
X027783Y014044D01*
X027783Y013798D01*
X027877Y013571D01*
X028028Y013421D01*
X027877Y013271D01*
X027814Y013117D01*
X027708Y013161D01*
X027493Y013161D01*
X027295Y013079D01*
X027247Y013031D01*
X020129Y013031D01*
X020207Y013063D01*
X020359Y013215D01*
X020441Y013414D01*
X020441Y013628D01*
X020359Y013827D01*
X020207Y013979D01*
X020008Y014061D01*
X019793Y014061D01*
X019595Y013979D01*
X019443Y013827D01*
X019361Y013628D01*
X019361Y013414D01*
X019443Y013215D01*
X019595Y013063D01*
X019673Y013031D01*
X019154Y013031D01*
X019107Y013079D01*
X018908Y013161D01*
X018693Y013161D01*
X018495Y013079D01*
X018343Y012927D01*
X018261Y012728D01*
X018261Y012514D01*
X018343Y012315D01*
X018495Y012163D01*
X018693Y012081D01*
X018861Y012081D01*
X018861Y011914D01*
X018943Y011715D01*
X019095Y011563D01*
X019293Y011481D01*
X019508Y011481D01*
X019707Y011563D01*
X019754Y011611D01*
X020136Y011611D01*
X020091Y011502D01*
X020091Y011447D01*
X020075Y011447D01*
X019943Y011392D01*
X019841Y011291D01*
X019786Y011159D01*
X019786Y010386D01*
X019841Y010253D01*
X019874Y010221D01*
X019841Y010189D01*
X019786Y010056D01*
X019786Y009283D01*
X019841Y009151D01*
X019943Y009050D01*
X020075Y008995D01*
X020091Y008995D01*
X020091Y008731D01*
X019585Y008731D01*
X016711Y011976D01*
X016711Y015067D01*
X016759Y015115D01*
X016841Y015314D01*
X016841Y015528D01*
X016759Y015727D01*
X016607Y015879D01*
X016408Y015961D01*
X016311Y015961D01*
X016311Y017011D01*
X016431Y017011D01*
X017153Y016289D01*
X017269Y016173D01*
X017419Y016111D01*
X021319Y016111D01*
X021482Y016111D01*
X021633Y016173D01*
X022148Y016689D01*
X022208Y016832D01*
X022287Y016752D01*
X022556Y016641D01*
X022846Y016641D01*
X023114Y016752D01*
X023251Y016889D01*
X023287Y016852D01*
X023556Y016741D01*
X023846Y016741D01*
X024114Y016852D01*
X024320Y017057D01*
X024431Y017326D01*
X024431Y017616D01*
X024320Y017884D01*
X024114Y018090D01*
X023846Y018201D01*
X023556Y018201D01*
X023287Y018090D01*
X023151Y017953D01*
X023114Y017990D01*
X022846Y018101D01*
X022556Y018101D01*
X022287Y017990D01*
X022251Y017953D01*
X022114Y018090D01*
X021846Y018201D01*
X021556Y018201D01*
X021287Y018090D01*
X021151Y017953D01*
X021114Y017990D01*
X020846Y018101D01*
X020556Y018101D01*
X020287Y017990D01*
X020251Y017953D01*
X020114Y018090D01*
X019846Y018201D01*
X019556Y018201D01*
X019287Y018090D01*
X019151Y017953D01*
X019114Y017990D01*
X019012Y018032D01*
X018950Y018094D01*
X018878Y018124D01*
X018033Y018969D01*
X017882Y019031D01*
X017719Y019031D01*
X017171Y019031D01*
X016433Y019769D01*
X016282Y019831D01*
X016119Y019831D01*
X016041Y019831D01*
X016041Y019928D01*
X015959Y020127D01*
X015911Y020175D01*
X015911Y026739D01*
X015911Y026902D01*
X015848Y027053D01*
X014748Y028153D01*
X014633Y028269D01*
X014482Y028331D01*
X012864Y028331D01*
X012774Y028421D01*
X012924Y028571D01*
X013018Y028798D01*
X013018Y029044D01*
X012924Y029271D01*
X012774Y029421D01*
X012924Y029571D01*
X013018Y029798D01*
X013018Y030044D01*
X012924Y030271D01*
X012751Y030444D01*
X012524Y030538D01*
X012278Y030538D01*
X012051Y030444D01*
X011901Y030294D01*
X011751Y030444D01*
X011524Y030538D01*
X011278Y030538D01*
X011051Y030444D01*
X010877Y030271D01*
X010783Y030044D01*
X010783Y029798D01*
X010877Y029571D01*
X011028Y029421D01*
X010877Y029271D01*
X010783Y029044D01*
X010783Y028930D01*
X010782Y028931D01*
X010619Y028931D01*
X004919Y028931D01*
X004769Y028869D01*
X004653Y028753D01*
X004469Y028569D01*
X004353Y028453D01*
X004291Y028302D01*
X004291Y028177D01*
X004243Y028177D01*
X004110Y028122D01*
X004009Y028021D01*
X003954Y027889D01*
X003954Y026919D01*
X004009Y026786D01*
X004110Y026685D01*
X004243Y026630D01*
X004921Y026630D01*
X005191Y026361D01*
X005191Y026122D02*
X002611Y026122D01*
X002611Y026012D02*
X002611Y026361D01*
X002849Y026599D02*
X004952Y026599D01*
X004037Y025884D02*
X003764Y025884D01*
X003793Y025856D02*
X003691Y025957D01*
X003559Y026012D01*
X002611Y026012D01*
X001791Y026122D02*
X001408Y026122D01*
X001370Y026112D02*
X001652Y026188D01*
X001791Y026268D01*
X001791Y022741D01*
X001787Y022740D01*
X001582Y022534D01*
X001471Y022266D01*
X001471Y021976D01*
X001582Y021707D01*
X001787Y021502D01*
X002056Y021391D01*
X002346Y021391D01*
X002614Y021502D01*
X002701Y021589D01*
X002787Y021502D01*
X003056Y021391D01*
X003346Y021391D01*
X003614Y021502D01*
X003820Y021707D01*
X003931Y021976D01*
X003931Y022266D01*
X003820Y022534D01*
X003614Y022740D01*
X003346Y022851D01*
X003056Y022851D01*
X002787Y022740D01*
X002701Y022653D01*
X002614Y022740D01*
X002611Y022741D01*
X002611Y024465D01*
X003559Y024465D01*
X003691Y024520D01*
X003793Y024621D01*
X003847Y024753D01*
X003847Y025723D01*
X003793Y025856D01*
X003847Y025645D02*
X003954Y025645D01*
X003954Y025407D02*
X003847Y025407D01*
X003847Y025168D02*
X003954Y025168D01*
X003954Y024929D02*
X003847Y024929D01*
X003822Y024691D02*
X003980Y024691D01*
X004391Y024452D02*
X002611Y024452D01*
X002611Y024214D02*
X004391Y024214D01*
X004391Y023975D02*
X002611Y023975D01*
X002611Y023737D02*
X004391Y023737D01*
X004391Y023498D02*
X002611Y023498D01*
X002611Y023260D02*
X004391Y023260D01*
X004391Y023021D02*
X002611Y023021D01*
X002611Y022783D02*
X002891Y022783D01*
X003511Y022783D02*
X004391Y022783D01*
X004391Y022544D02*
X003810Y022544D01*
X003914Y022305D02*
X004391Y022305D01*
X004391Y022067D02*
X003931Y022067D01*
X003870Y021828D02*
X004391Y021828D01*
X004391Y021590D02*
X003702Y021590D01*
X004391Y021351D02*
X000621Y021351D01*
X000621Y021113D02*
X004529Y021113D01*
X004516Y020874D02*
X001611Y020874D01*
X001607Y020879D02*
X001408Y020961D01*
X001193Y020961D01*
X000995Y020879D01*
X000843Y020727D01*
X000761Y020528D01*
X000761Y020314D01*
X000843Y020115D01*
X000995Y019963D01*
X001193Y019881D01*
X001408Y019881D01*
X001607Y019963D01*
X001759Y020115D01*
X001841Y020314D01*
X001841Y020528D01*
X001759Y020727D01*
X001607Y020879D01*
X001796Y020636D02*
X004471Y020636D01*
X004397Y020397D02*
X001841Y020397D01*
X001777Y020159D02*
X004159Y020159D01*
X003920Y019920D02*
X001503Y019920D01*
X001099Y019920D02*
X000621Y019920D01*
X000621Y019681D02*
X003682Y019681D01*
X003443Y019443D02*
X000621Y019443D01*
X000621Y019204D02*
X002702Y019204D01*
X002533Y018966D02*
X000621Y018966D01*
X000621Y018727D02*
X002471Y018727D01*
X002486Y018489D02*
X000621Y018489D01*
X000621Y018250D02*
X002589Y018250D01*
X002885Y018012D02*
X000621Y018012D01*
X000621Y017773D02*
X003191Y017773D01*
X003191Y017535D02*
X000621Y017535D01*
X000621Y017296D02*
X003191Y017296D01*
X003191Y017058D02*
X000621Y017058D01*
X000621Y016819D02*
X003191Y016819D01*
X003191Y016580D02*
X000621Y016580D01*
X000621Y016342D02*
X003191Y016342D01*
X003191Y016103D02*
X000621Y016103D01*
X000621Y015865D02*
X003191Y015865D01*
X003191Y015626D02*
X000621Y015626D01*
X000621Y015388D02*
X003191Y015388D01*
X003191Y015149D02*
X000621Y015149D01*
X000621Y014911D02*
X003191Y014911D01*
X003191Y014672D02*
X000621Y014672D01*
X000621Y014434D02*
X003191Y014434D01*
X003191Y014195D02*
X002826Y014195D01*
X002981Y013956D02*
X003191Y013956D01*
X003191Y013718D02*
X002981Y013718D01*
X002981Y013479D02*
X003191Y013479D01*
X003191Y013241D02*
X002981Y013241D01*
X002949Y013002D02*
X003191Y013002D01*
X003191Y012764D02*
X002840Y012764D01*
X002881Y012525D02*
X003191Y012525D01*
X003191Y012287D02*
X002844Y012287D01*
X002756Y012048D02*
X003191Y012048D01*
X003191Y011810D02*
X002921Y011810D01*
X002981Y011571D02*
X003191Y011571D01*
X003191Y011332D02*
X002963Y011332D01*
X002994Y011094D02*
X002856Y011094D01*
X003438Y010378D02*
X005691Y010378D01*
X005691Y010140D02*
X003152Y010140D01*
X002562Y009901D02*
X005691Y009901D01*
X005691Y009663D02*
X000621Y009663D01*
X000621Y009901D02*
X001739Y009901D01*
X001519Y010140D02*
X000621Y010140D01*
X000621Y010378D02*
X001421Y010378D01*
X001421Y010617D02*
X000621Y010617D01*
X000621Y010855D02*
X001499Y010855D01*
X001645Y011094D02*
X000621Y011094D01*
X000621Y011332D02*
X001539Y011332D01*
X001521Y011571D02*
X000621Y011571D01*
X000621Y011810D02*
X001580Y011810D01*
X001591Y012048D02*
X000621Y012048D01*
X000621Y012287D02*
X001458Y012287D01*
X001421Y012525D02*
X000621Y012525D01*
X000621Y012764D02*
X001461Y012764D01*
X001553Y013002D02*
X000621Y013002D01*
X000621Y013241D02*
X001521Y013241D01*
X001521Y013479D02*
X000621Y013479D01*
X000621Y013718D02*
X001521Y013718D01*
X001521Y013956D02*
X000621Y013956D01*
X000621Y014195D02*
X001676Y014195D01*
X004011Y014195D02*
X004788Y014195D01*
X004761Y013956D02*
X004011Y013956D01*
X004011Y014434D02*
X004950Y014434D01*
X005652Y014434D02*
X005691Y014434D01*
X005691Y014672D02*
X004011Y014672D01*
X004011Y014911D02*
X005691Y014911D01*
X005691Y015149D02*
X004011Y015149D01*
X004011Y015388D02*
X005691Y015388D01*
X005691Y015626D02*
X004011Y015626D01*
X004011Y015865D02*
X005717Y015865D01*
X005716Y016103D02*
X005903Y016103D01*
X005875Y016342D02*
X006142Y016342D01*
X005931Y016580D02*
X006381Y016580D01*
X006619Y016819D02*
X005979Y016819D01*
X006217Y017058D02*
X006858Y017058D01*
X007096Y017296D02*
X006456Y017296D01*
X006694Y017535D02*
X007335Y017535D01*
X007573Y017773D02*
X006933Y017773D01*
X007517Y018012D02*
X007812Y018012D01*
X007812Y018250D02*
X008050Y018250D01*
X007821Y019081D02*
X007820Y019084D01*
X007614Y019290D01*
X007346Y019401D01*
X007056Y019401D01*
X007011Y019382D01*
X007011Y025251D01*
X007271Y025511D01*
X010938Y025511D01*
X011028Y025421D01*
X010877Y025271D01*
X010783Y025044D01*
X010783Y024831D01*
X009863Y024831D01*
X009845Y024837D01*
X009782Y024831D01*
X009719Y024831D01*
X009702Y024824D01*
X009682Y024822D01*
X009627Y024793D01*
X009569Y024769D01*
X009555Y024755D01*
X009538Y024746D01*
X009498Y024698D01*
X009453Y024653D01*
X009446Y024635D01*
X008498Y023498D01*
X007011Y023498D01*
X007011Y023260D02*
X008386Y023260D01*
X008385Y023265D02*
X008391Y023202D01*
X008391Y019191D01*
X008281Y019081D01*
X007821Y019081D01*
X007700Y019204D02*
X008391Y019204D01*
X008391Y019443D02*
X007011Y019443D01*
X007011Y019681D02*
X008391Y019681D01*
X008391Y019920D02*
X007011Y019920D01*
X007011Y020159D02*
X008391Y020159D01*
X008391Y020397D02*
X007011Y020397D01*
X007011Y020636D02*
X008391Y020636D01*
X008391Y020874D02*
X007011Y020874D01*
X007011Y021113D02*
X008391Y021113D01*
X008391Y021351D02*
X007011Y021351D01*
X007011Y021590D02*
X008391Y021590D01*
X008391Y021828D02*
X007011Y021828D01*
X007011Y022067D02*
X008391Y022067D01*
X008391Y022305D02*
X007011Y022305D01*
X007011Y022544D02*
X008391Y022544D01*
X008391Y022783D02*
X007011Y022783D01*
X007011Y023021D02*
X008391Y023021D01*
X008385Y023265D02*
X008391Y023283D01*
X008391Y023302D01*
X008415Y023361D01*
X008434Y023421D01*
X008446Y023435D01*
X008453Y023453D01*
X008498Y023498D01*
X008697Y023737D02*
X007011Y023737D01*
X007011Y023975D02*
X008896Y023975D01*
X009095Y024214D02*
X007011Y024214D01*
X007011Y024452D02*
X009293Y024452D01*
X009491Y024691D02*
X007011Y024691D01*
X007011Y024929D02*
X010783Y024929D01*
X010835Y025168D02*
X007011Y025168D01*
X007166Y025407D02*
X011013Y025407D01*
X011774Y025421D02*
X011901Y025548D01*
X012028Y025421D01*
X011901Y025294D01*
X011774Y025421D01*
X011788Y025407D02*
X012013Y025407D01*
X012774Y025421D02*
X012924Y025571D01*
X013018Y025798D01*
X013018Y026044D01*
X012924Y026271D01*
X012774Y026421D01*
X012924Y026571D01*
X013018Y026798D01*
X013018Y027044D01*
X012924Y027271D01*
X012774Y027421D01*
X012864Y027511D01*
X014231Y027511D01*
X015091Y026651D01*
X015091Y023461D01*
X015087Y023481D01*
X015064Y023515D01*
X015048Y023553D01*
X015019Y023582D01*
X014996Y023617D01*
X014962Y023639D01*
X014933Y023669D01*
X014895Y023684D01*
X014062Y024240D01*
X014033Y024269D01*
X013995Y024284D01*
X013960Y024307D01*
X013920Y024315D01*
X013882Y024331D01*
X013841Y024331D01*
X013800Y024339D01*
X013760Y024331D01*
X012864Y024331D01*
X012774Y024421D01*
X012924Y024571D01*
X013018Y024798D01*
X013018Y025044D01*
X012924Y025271D01*
X012774Y025421D01*
X012788Y025407D02*
X015091Y025407D01*
X015091Y025645D02*
X012955Y025645D01*
X013018Y025884D02*
X015091Y025884D01*
X015091Y026122D02*
X012986Y026122D01*
X012834Y026361D02*
X015091Y026361D01*
X015091Y026599D02*
X012936Y026599D01*
X013018Y026838D02*
X014904Y026838D01*
X014666Y027076D02*
X013005Y027076D01*
X012880Y027315D02*
X014427Y027315D01*
X015110Y027792D02*
X016627Y027792D01*
X016595Y027779D02*
X016443Y027627D01*
X016361Y027428D01*
X016361Y027214D01*
X016443Y027015D01*
X016595Y026863D01*
X016793Y026781D01*
X017008Y026781D01*
X017207Y026863D01*
X017359Y027015D01*
X017441Y027214D01*
X017441Y027428D01*
X017359Y027627D01*
X017207Y027779D01*
X017008Y027861D01*
X016793Y027861D01*
X016595Y027779D01*
X016413Y027553D02*
X015348Y027553D01*
X015587Y027315D02*
X016361Y027315D01*
X016418Y027076D02*
X015825Y027076D01*
X015911Y026838D02*
X016656Y026838D01*
X017145Y026838D02*
X020056Y026838D01*
X019995Y026863D02*
X020193Y026781D01*
X020408Y026781D01*
X020607Y026863D01*
X020759Y027015D01*
X020841Y027214D01*
X020841Y027428D01*
X020759Y027627D01*
X020607Y027779D01*
X020408Y027861D01*
X020193Y027861D01*
X019995Y027779D01*
X019843Y027627D01*
X019761Y027428D01*
X019761Y027214D01*
X019843Y027015D01*
X019995Y026863D01*
X019818Y027076D02*
X017384Y027076D01*
X017441Y027315D02*
X019761Y027315D01*
X019813Y027553D02*
X017389Y027553D01*
X017175Y027792D02*
X020027Y027792D01*
X020575Y027792D02*
X023008Y027792D01*
X022943Y027727D02*
X022861Y027528D01*
X022861Y027314D01*
X022943Y027115D01*
X023095Y026963D01*
X023293Y026881D01*
X023508Y026881D01*
X023707Y026963D01*
X023859Y027115D01*
X023941Y027314D01*
X023941Y027528D01*
X023859Y027727D01*
X023707Y027879D01*
X023508Y027961D01*
X023293Y027961D01*
X023095Y027879D01*
X022943Y027727D01*
X022871Y027553D02*
X020789Y027553D01*
X020841Y027315D02*
X022861Y027315D01*
X022982Y027076D02*
X020784Y027076D01*
X020545Y026838D02*
X027783Y026838D01*
X027797Y027076D02*
X023820Y027076D01*
X023941Y027315D02*
X027922Y027315D01*
X027895Y027553D02*
X023930Y027553D01*
X023793Y027792D02*
X027786Y027792D01*
X027783Y028031D02*
X014871Y028031D01*
X014632Y028269D02*
X027877Y028269D01*
X027941Y028508D02*
X012861Y028508D01*
X012997Y028746D02*
X027805Y028746D01*
X027783Y028985D02*
X013018Y028985D01*
X012944Y029223D02*
X027858Y029223D01*
X027987Y029462D02*
X012815Y029462D01*
X012978Y029700D02*
X027824Y029700D01*
X027783Y029939D02*
X013018Y029939D01*
X012963Y030177D02*
X027839Y030177D01*
X028023Y030416D02*
X012779Y030416D01*
X012023Y030416D02*
X011779Y030416D01*
X011023Y030416D02*
X009831Y030416D01*
X009831Y030177D02*
X010839Y030177D01*
X010783Y029939D02*
X009831Y029939D01*
X009729Y029700D02*
X010824Y029700D01*
X010987Y029462D02*
X001795Y029462D01*
X001406Y029462D02*
X000621Y029462D01*
X000621Y029700D02*
X000867Y029700D01*
X000644Y029939D02*
X000621Y029939D01*
X000621Y029223D02*
X010858Y029223D01*
X010783Y028985D02*
X000621Y028985D01*
X000621Y028746D02*
X004646Y028746D01*
X004653Y028753D02*
X004653Y028753D01*
X004469Y028569D02*
X004469Y028569D01*
X004408Y028508D02*
X000621Y028508D01*
X000621Y028269D02*
X000839Y028269D01*
X001609Y028269D02*
X004291Y028269D01*
X004019Y028031D02*
X003783Y028031D01*
X003847Y027792D02*
X003954Y027792D01*
X003954Y027553D02*
X003847Y027553D01*
X003847Y027315D02*
X003954Y027315D01*
X003954Y027076D02*
X003847Y027076D01*
X003814Y026838D02*
X003988Y026838D01*
X005501Y027494D02*
X005501Y027889D01*
X005446Y028021D01*
X005356Y028111D01*
X005896Y028111D01*
X005689Y027904D01*
X005543Y027651D01*
X005501Y027494D01*
X005501Y027553D02*
X005517Y027553D01*
X005501Y027792D02*
X005624Y027792D01*
X005436Y028031D02*
X005815Y028031D01*
X007260Y028111D02*
X007467Y027904D01*
X007613Y027651D01*
X007688Y027369D01*
X007688Y027076D01*
X007613Y026794D01*
X007467Y026541D01*
X007260Y026334D01*
X007255Y026331D01*
X010938Y026331D01*
X011028Y026421D01*
X010877Y026571D01*
X010783Y026798D01*
X010783Y027044D01*
X010877Y027271D01*
X011028Y027421D01*
X010877Y027571D01*
X010783Y027798D01*
X010783Y027859D01*
X010531Y028111D01*
X007260Y028111D01*
X007340Y028031D02*
X010611Y028031D01*
X010786Y027792D02*
X007531Y027792D01*
X007639Y027553D02*
X010895Y027553D01*
X010922Y027315D02*
X007688Y027315D01*
X007688Y027076D02*
X010797Y027076D01*
X010783Y026838D02*
X007625Y026838D01*
X007500Y026599D02*
X010866Y026599D01*
X010967Y026361D02*
X007287Y026361D01*
X006712Y026112D02*
X006253Y025653D01*
X006191Y025502D01*
X006191Y025339D01*
X006191Y022211D01*
X006011Y022391D01*
X006011Y026268D01*
X006149Y026188D01*
X006432Y026112D01*
X006712Y026112D01*
X006394Y026122D02*
X006011Y026122D01*
X006011Y025884D02*
X006484Y025884D01*
X006250Y025645D02*
X006011Y025645D01*
X006011Y025407D02*
X006191Y025407D01*
X006191Y025168D02*
X006011Y025168D01*
X006011Y024929D02*
X006191Y024929D01*
X006191Y024691D02*
X006011Y024691D01*
X006011Y024452D02*
X006191Y024452D01*
X006191Y024214D02*
X006011Y024214D01*
X006011Y023975D02*
X006191Y023975D01*
X006191Y023737D02*
X006011Y023737D01*
X006011Y023498D02*
X006191Y023498D01*
X006191Y023260D02*
X006011Y023260D01*
X006011Y023021D02*
X006191Y023021D01*
X006191Y022783D02*
X006011Y022783D01*
X006011Y022544D02*
X006191Y022544D01*
X006191Y022305D02*
X006096Y022305D01*
X005414Y021828D02*
X005211Y021828D01*
X005253Y021989D02*
X005791Y021451D01*
X005791Y021063D01*
X005614Y021240D01*
X005525Y021277D01*
X005433Y021369D01*
X005211Y021591D01*
X005211Y022091D01*
X005253Y021989D01*
X005221Y022067D02*
X005211Y022067D01*
X005212Y021590D02*
X005652Y021590D01*
X005791Y021351D02*
X005450Y021351D01*
X005741Y021113D02*
X005791Y021113D01*
X006191Y019631D02*
X005948Y019389D01*
X005857Y019297D01*
X005820Y019207D01*
X005812Y019200D01*
X006056Y019301D01*
X006191Y019301D01*
X006191Y019631D01*
X006191Y019443D02*
X006003Y019443D01*
X005823Y019204D02*
X005817Y019204D01*
X004474Y017773D02*
X004233Y017773D01*
X004011Y017535D02*
X004471Y017535D01*
X004545Y017296D02*
X004011Y017296D01*
X004011Y017058D02*
X004605Y017058D01*
X004493Y016819D02*
X004011Y016819D01*
X004011Y016580D02*
X004471Y016580D01*
X004526Y016342D02*
X004011Y016342D01*
X004011Y016103D02*
X004686Y016103D01*
X004842Y013718D02*
X004467Y013718D01*
X004620Y013479D02*
X004891Y013479D01*
X004891Y013241D02*
X004641Y013241D01*
X004546Y013002D02*
X004891Y013002D01*
X004891Y012764D02*
X004511Y012764D01*
X004511Y012525D02*
X004891Y012525D01*
X004891Y012287D02*
X004511Y012287D01*
X004511Y012048D02*
X004810Y012048D01*
X004761Y011810D02*
X004511Y011810D01*
X004511Y011571D02*
X004820Y011571D01*
X004598Y011332D02*
X005069Y011332D01*
X005533Y011332D02*
X005691Y011332D01*
X005691Y011094D02*
X004641Y011094D01*
X004575Y010855D02*
X005691Y010855D01*
X005691Y010617D02*
X004295Y010617D01*
X003907Y010617D02*
X003676Y010617D01*
X005691Y009424D02*
X000621Y009424D01*
X000621Y009186D02*
X005691Y009186D01*
X005691Y008947D02*
X000621Y008947D01*
X000621Y008709D02*
X005691Y008709D01*
X005720Y008470D02*
X000621Y008470D01*
X000621Y008231D02*
X005910Y008231D01*
X006149Y007993D02*
X000621Y007993D01*
X000621Y007754D02*
X007235Y007754D01*
X007474Y007516D02*
X000621Y007516D01*
X000621Y007277D02*
X008991Y007277D01*
X008991Y007039D02*
X000621Y007039D01*
X000621Y006800D02*
X001847Y006800D01*
X001795Y006779D02*
X001643Y006627D01*
X001561Y006428D01*
X001561Y006214D01*
X001643Y006015D01*
X001795Y005863D01*
X001993Y005781D01*
X002208Y005781D01*
X002407Y005863D01*
X002559Y006015D01*
X002641Y006214D01*
X002641Y006428D01*
X002559Y006627D01*
X002407Y006779D01*
X002208Y006861D01*
X001993Y006861D01*
X001795Y006779D01*
X001616Y006562D02*
X000621Y006562D01*
X000621Y006323D02*
X001561Y006323D01*
X001614Y006085D02*
X000621Y006085D01*
X000621Y005846D02*
X001836Y005846D01*
X002365Y005846D02*
X004836Y005846D01*
X004795Y005863D02*
X004993Y005781D01*
X005208Y005781D01*
X005407Y005863D01*
X005559Y006015D01*
X005641Y006214D01*
X005641Y006428D01*
X005559Y006627D01*
X005407Y006779D01*
X005208Y006861D01*
X004993Y006861D01*
X004795Y006779D01*
X004643Y006627D01*
X004561Y006428D01*
X004561Y006214D01*
X004643Y006015D01*
X004795Y005863D01*
X004614Y006085D02*
X002587Y006085D01*
X002641Y006323D02*
X004561Y006323D01*
X004616Y006562D02*
X002586Y006562D01*
X002355Y006800D02*
X004847Y006800D01*
X005355Y006800D02*
X008991Y006800D01*
X008991Y006562D02*
X005586Y006562D01*
X005641Y006323D02*
X008991Y006323D01*
X008332Y006085D02*
X008269Y006085D01*
X007332Y006085D02*
X005587Y006085D01*
X005365Y005846D02*
X007094Y005846D01*
X007071Y005607D02*
X000621Y005607D01*
X000621Y005369D02*
X007071Y005369D01*
X007159Y005130D02*
X000621Y005130D01*
X000621Y004892D02*
X007139Y004892D01*
X007071Y004653D02*
X000621Y004653D01*
X000621Y004415D02*
X007071Y004415D01*
X007113Y004176D02*
X000621Y004176D01*
X000621Y003938D02*
X007185Y003938D01*
X007071Y003699D02*
X002073Y003699D01*
X002052Y003711D02*
X001755Y003791D01*
X001447Y003791D01*
X001149Y003711D01*
X000882Y003557D01*
X000665Y003339D01*
X000621Y003263D01*
X000621Y026288D01*
X000795Y026188D01*
X001077Y026112D01*
X001370Y026112D01*
X001039Y026122D02*
X000621Y026122D01*
X000621Y025884D02*
X001791Y025884D01*
X001791Y025645D02*
X000621Y025645D01*
X000621Y025407D02*
X001791Y025407D01*
X001791Y025168D02*
X000621Y025168D01*
X000621Y024929D02*
X001791Y024929D01*
X001791Y024691D02*
X000621Y024691D01*
X000621Y024452D02*
X001791Y024452D01*
X001791Y024214D02*
X000621Y024214D01*
X000621Y023975D02*
X001791Y023975D01*
X001791Y023737D02*
X000621Y023737D01*
X000621Y023498D02*
X001791Y023498D01*
X001791Y023260D02*
X000621Y023260D01*
X000621Y023021D02*
X001791Y023021D01*
X001791Y022783D02*
X000621Y022783D01*
X000621Y022544D02*
X001591Y022544D01*
X001487Y022305D02*
X000621Y022305D01*
X000621Y022067D02*
X001471Y022067D01*
X001532Y021828D02*
X000621Y021828D01*
X000621Y021590D02*
X001699Y021590D01*
X000990Y020874D02*
X000621Y020874D01*
X000621Y020636D02*
X000805Y020636D01*
X000761Y020397D02*
X000621Y020397D01*
X000621Y020159D02*
X000825Y020159D01*
X007311Y014793D02*
X007343Y014715D01*
X007391Y014667D01*
X007391Y011843D01*
X007311Y011763D01*
X007311Y014793D01*
X007311Y014672D02*
X007386Y014672D01*
X007391Y014434D02*
X007311Y014434D01*
X007311Y014195D02*
X007391Y014195D01*
X007391Y013956D02*
X007311Y013956D01*
X007311Y013718D02*
X007391Y013718D01*
X007391Y013479D02*
X007311Y013479D01*
X007311Y013241D02*
X007391Y013241D01*
X007391Y013002D02*
X007311Y013002D01*
X007311Y012764D02*
X007391Y012764D01*
X007391Y012525D02*
X007311Y012525D01*
X007311Y012287D02*
X007391Y012287D01*
X007391Y012048D02*
X007311Y012048D01*
X007311Y011810D02*
X007357Y011810D01*
X008211Y011843D02*
X008211Y012647D01*
X008295Y012563D01*
X008493Y012481D01*
X008708Y012481D01*
X008907Y012563D01*
X009059Y012715D01*
X009141Y012914D01*
X009141Y013128D01*
X009059Y013327D01*
X009011Y013375D01*
X009011Y013751D01*
X009171Y013911D01*
X010783Y013911D01*
X010783Y013798D01*
X010877Y013571D01*
X011028Y013421D01*
X010877Y013271D01*
X010783Y013044D01*
X010783Y012798D01*
X010877Y012571D01*
X011028Y012421D01*
X010877Y012271D01*
X010783Y012044D01*
X010783Y011798D01*
X010877Y011571D01*
X011028Y011421D01*
X010877Y011271D01*
X010783Y011044D01*
X010783Y010798D01*
X010877Y010571D01*
X011028Y010421D01*
X010938Y010331D01*
X010719Y010331D01*
X010569Y010269D01*
X010453Y010153D01*
X010053Y009753D01*
X009991Y009602D01*
X009991Y009439D01*
X009991Y005091D01*
X009831Y004931D01*
X009423Y004931D01*
X009333Y005021D01*
X009531Y005219D01*
X009531Y005500D01*
X009611Y005564D01*
X009633Y005573D01*
X009675Y005615D01*
X009721Y005652D01*
X009732Y005672D01*
X009748Y005689D01*
X009771Y005743D01*
X009799Y005795D01*
X009802Y005818D01*
X009811Y005839D01*
X009811Y005898D01*
X009817Y005957D01*
X009811Y005979D01*
X009811Y010639D01*
X009811Y010802D01*
X009748Y010953D01*
X009531Y011171D01*
X009531Y011523D01*
X009103Y011951D01*
X008498Y011951D01*
X008301Y011753D01*
X008211Y011843D01*
X008244Y011810D02*
X008357Y011810D01*
X008211Y012048D02*
X010785Y012048D01*
X010783Y011810D02*
X009244Y011810D01*
X009483Y011571D02*
X010877Y011571D01*
X010939Y011332D02*
X009531Y011332D01*
X009608Y011094D02*
X010804Y011094D01*
X010783Y010855D02*
X009789Y010855D01*
X009811Y010617D02*
X010858Y010617D01*
X010985Y010378D02*
X009811Y010378D01*
X009811Y010140D02*
X010440Y010140D01*
X010201Y009901D02*
X009811Y009901D01*
X009811Y009663D02*
X010016Y009663D01*
X009991Y009424D02*
X009811Y009424D01*
X009811Y009186D02*
X009991Y009186D01*
X009991Y008947D02*
X009811Y008947D01*
X009811Y008709D02*
X009991Y008709D01*
X009991Y008470D02*
X009811Y008470D01*
X009811Y008231D02*
X009991Y008231D01*
X009991Y007993D02*
X009811Y007993D01*
X009811Y007754D02*
X009991Y007754D01*
X009991Y007516D02*
X009811Y007516D01*
X009811Y007277D02*
X009991Y007277D01*
X009991Y007039D02*
X009811Y007039D01*
X009811Y006800D02*
X009991Y006800D01*
X009991Y006562D02*
X009811Y006562D01*
X009811Y006323D02*
X009991Y006323D01*
X009991Y006085D02*
X009811Y006085D01*
X009811Y005846D02*
X009991Y005846D01*
X009991Y005607D02*
X009667Y005607D01*
X009531Y005369D02*
X009991Y005369D01*
X009991Y005130D02*
X009443Y005130D01*
X009423Y004111D02*
X009919Y004111D01*
X010011Y004111D01*
X009831Y003931D01*
X009423Y003931D01*
X009333Y004021D01*
X009423Y004111D01*
X009416Y003938D02*
X009838Y003938D01*
X009919Y003111D02*
X009423Y003111D01*
X009333Y003021D01*
X009423Y002931D01*
X009831Y002931D01*
X010011Y003111D01*
X009919Y003111D01*
X009884Y002983D02*
X009371Y002983D01*
X010327Y002268D02*
X010380Y002268D01*
X010529Y002029D02*
X009341Y002029D01*
X010851Y001791D02*
X002425Y001791D01*
X002319Y001685D02*
X002537Y001903D01*
X002691Y002169D01*
X002771Y002467D01*
X002771Y002775D01*
X002691Y003073D01*
X002537Y003339D01*
X002319Y003557D01*
X002052Y003711D01*
X002416Y003461D02*
X007071Y003461D01*
X007071Y003222D02*
X002605Y003222D01*
X002715Y002983D02*
X007231Y002983D01*
X007071Y002745D02*
X004440Y002745D01*
X004459Y002727D02*
X004307Y002879D01*
X004108Y002961D01*
X003893Y002961D01*
X003695Y002879D01*
X003543Y002727D01*
X003461Y002528D01*
X003461Y002314D01*
X003543Y002115D01*
X003695Y001963D01*
X003893Y001881D01*
X004108Y001881D01*
X004307Y001963D01*
X004459Y002115D01*
X004541Y002314D01*
X004541Y002528D01*
X004459Y002727D01*
X004541Y002506D02*
X007071Y002506D01*
X007071Y002268D02*
X004522Y002268D01*
X004373Y002029D02*
X007260Y002029D01*
X003629Y002029D02*
X002610Y002029D01*
X002717Y002268D02*
X003480Y002268D01*
X003461Y002506D02*
X002771Y002506D01*
X002771Y002745D02*
X003561Y002745D01*
X002319Y001685D02*
X002052Y001531D01*
X001755Y001451D01*
X001447Y001451D01*
X001149Y001531D01*
X000882Y001685D01*
X000665Y001903D01*
X000621Y001978D01*
X000621Y001791D02*
X000776Y001791D01*
X000621Y001552D02*
X001112Y001552D01*
X000621Y001314D02*
X039451Y001314D01*
X039451Y001552D02*
X038590Y001552D01*
X038552Y001531D02*
X038819Y001685D01*
X039037Y001903D01*
X039191Y002169D01*
X039271Y002467D01*
X039271Y002775D01*
X039191Y003073D01*
X039037Y003339D01*
X038819Y003557D01*
X038552Y003711D01*
X038255Y003791D01*
X037947Y003791D01*
X037649Y003711D01*
X037382Y003557D01*
X037165Y003339D01*
X037011Y003073D01*
X036931Y002775D01*
X036931Y002467D01*
X037011Y002169D01*
X037165Y001903D01*
X037382Y001685D01*
X037649Y001531D01*
X037947Y001451D01*
X038255Y001451D01*
X038552Y001531D01*
X038925Y001791D02*
X039451Y001791D01*
X039451Y002029D02*
X039110Y002029D01*
X039217Y002268D02*
X039451Y002268D01*
X039451Y002506D02*
X039271Y002506D01*
X039271Y002745D02*
X039451Y002745D01*
X039451Y002983D02*
X039215Y002983D01*
X039105Y003222D02*
X039451Y003222D01*
X039451Y003461D02*
X038916Y003461D01*
X038573Y003699D02*
X039451Y003699D01*
X039451Y003938D02*
X035397Y003938D01*
X035636Y004176D02*
X039451Y004176D01*
X039451Y004415D02*
X038577Y004415D01*
X038913Y004653D02*
X039451Y004653D01*
X039451Y004892D02*
X039151Y004892D01*
X039307Y005130D02*
X039451Y005130D01*
X039451Y005369D02*
X039311Y005369D01*
X039311Y005607D02*
X039451Y005607D01*
X039451Y005846D02*
X039311Y005846D01*
X039311Y006085D02*
X039451Y006085D01*
X039451Y006323D02*
X039311Y006323D01*
X039311Y006562D02*
X039451Y006562D01*
X039451Y006800D02*
X039311Y006800D01*
X039311Y007039D02*
X039451Y007039D01*
X039451Y007277D02*
X039311Y007277D01*
X039311Y007516D02*
X039451Y007516D01*
X039451Y007754D02*
X039311Y007754D01*
X039311Y007993D02*
X039451Y007993D01*
X039451Y008231D02*
X039311Y008231D01*
X039311Y008470D02*
X039451Y008470D01*
X039451Y008709D02*
X039311Y008709D01*
X039311Y008947D02*
X039451Y008947D01*
X039451Y009186D02*
X039311Y009186D01*
X039311Y009424D02*
X039451Y009424D01*
X039451Y009663D02*
X039311Y009663D01*
X039311Y009901D02*
X039451Y009901D01*
X039451Y010140D02*
X039311Y010140D01*
X039311Y010378D02*
X039451Y010378D01*
X039451Y010617D02*
X039311Y010617D01*
X039311Y010855D02*
X039451Y010855D01*
X039451Y011094D02*
X039273Y011094D01*
X039451Y011332D02*
X039069Y011332D01*
X038830Y011571D02*
X039451Y011571D01*
X039451Y011810D02*
X038592Y011810D01*
X038353Y012048D02*
X039451Y012048D01*
X039451Y012287D02*
X038089Y012287D01*
X037909Y011332D02*
X030898Y011332D01*
X030911Y011094D02*
X038094Y011094D01*
X037855Y010855D02*
X030911Y010855D01*
X030911Y010617D02*
X037617Y010617D01*
X037378Y010378D02*
X036521Y010378D01*
X035880Y010378D02*
X034521Y010378D01*
X033880Y010378D02*
X032521Y010378D01*
X031880Y010378D02*
X030911Y010378D01*
X030911Y010140D02*
X031587Y010140D01*
X031485Y009901D02*
X030911Y009901D01*
X030939Y009663D02*
X031471Y009663D01*
X030511Y008931D02*
X030018Y008931D01*
X030018Y009044D01*
X029924Y009271D01*
X029774Y009421D01*
X029924Y009571D01*
X030018Y009798D01*
X030018Y010044D01*
X029924Y010271D01*
X029774Y010421D01*
X029924Y010571D01*
X030018Y010798D01*
X030018Y011011D01*
X030091Y011011D01*
X030091Y009439D01*
X030153Y009289D01*
X030269Y009173D01*
X030511Y008931D01*
X030495Y008947D02*
X030018Y008947D01*
X029959Y009186D02*
X030256Y009186D01*
X030097Y009424D02*
X029777Y009424D01*
X029962Y009663D02*
X030091Y009663D01*
X030091Y009901D02*
X030018Y009901D01*
X029978Y010140D02*
X030091Y010140D01*
X030091Y010378D02*
X029817Y010378D01*
X029943Y010617D02*
X030091Y010617D01*
X030091Y010855D02*
X030018Y010855D01*
X029028Y010421D02*
X028901Y010294D01*
X028774Y010421D01*
X028901Y010548D01*
X029028Y010421D01*
X028985Y010378D02*
X028817Y010378D01*
X028028Y010421D02*
X027877Y010271D01*
X027783Y010044D01*
X027783Y009798D01*
X027877Y009571D01*
X028028Y009421D01*
X027877Y009271D01*
X027783Y009044D01*
X027783Y009030D01*
X027708Y009061D01*
X027493Y009061D01*
X027295Y008979D01*
X027143Y008827D01*
X027061Y008628D01*
X027061Y008547D01*
X026903Y008482D01*
X026807Y008579D01*
X026608Y008661D01*
X026393Y008661D01*
X026195Y008579D01*
X026043Y008427D01*
X025961Y008228D01*
X025961Y008014D01*
X026043Y007815D01*
X026091Y007767D01*
X026091Y007612D01*
X026043Y007592D01*
X025941Y007491D01*
X025886Y007359D01*
X025886Y007317D01*
X025848Y007409D01*
X025733Y007525D01*
X025528Y007729D01*
X025528Y007836D01*
X025473Y007969D01*
X025372Y008070D01*
X025240Y008125D01*
X025006Y008125D01*
X025006Y008995D01*
X025127Y008995D01*
X025259Y009050D01*
X025360Y009151D01*
X025401Y009249D01*
X025441Y009151D01*
X025543Y009050D01*
X025675Y008995D01*
X026527Y008995D01*
X026659Y009050D01*
X026760Y009151D01*
X026815Y009283D01*
X026815Y009355D01*
X026897Y009438D01*
X027148Y009689D01*
X027211Y009839D01*
X027211Y010002D01*
X027211Y011011D01*
X027783Y011011D01*
X027783Y010798D01*
X027877Y010571D01*
X028028Y010421D01*
X027985Y010378D02*
X027211Y010378D01*
X027211Y010140D02*
X027823Y010140D01*
X027783Y009901D02*
X027211Y009901D01*
X027122Y009663D02*
X027839Y009663D01*
X028024Y009424D02*
X026884Y009424D01*
X026775Y009186D02*
X027842Y009186D01*
X027263Y008947D02*
X025006Y008947D01*
X025006Y008709D02*
X027094Y008709D01*
X026086Y008470D02*
X025006Y008470D01*
X025006Y008231D02*
X025962Y008231D01*
X025969Y007993D02*
X025449Y007993D01*
X025528Y007754D02*
X026091Y007754D01*
X025966Y007516D02*
X025742Y007516D01*
X025911Y006527D02*
X025941Y006453D01*
X025974Y006421D01*
X025941Y006389D01*
X025911Y006315D01*
X025911Y006527D01*
X025911Y006323D02*
X025914Y006323D01*
X025528Y005514D02*
X025528Y005331D01*
X025961Y005331D01*
X025941Y005351D01*
X025916Y005411D01*
X025719Y005411D01*
X025569Y005473D01*
X025528Y005514D01*
X025528Y005369D02*
X025934Y005369D01*
X027240Y005331D02*
X027260Y005351D01*
X027315Y005483D01*
X027315Y005511D01*
X027938Y005511D01*
X028051Y005397D01*
X028212Y005331D01*
X027240Y005331D01*
X027268Y005369D02*
X028120Y005369D01*
X028783Y005430D02*
X028831Y005478D01*
X028838Y005460D01*
X028939Y005358D01*
X029072Y005303D01*
X029730Y005303D01*
X029856Y005356D01*
X029431Y004931D01*
X029141Y004931D01*
X029141Y005028D01*
X029059Y005227D01*
X028907Y005379D01*
X028783Y005430D01*
X028916Y005369D02*
X028929Y005369D01*
X029099Y005130D02*
X029630Y005130D01*
X029966Y005466D02*
X029985Y005511D01*
X030011Y005511D01*
X029966Y005466D01*
X030551Y004892D02*
X031367Y004892D01*
X031393Y004881D02*
X031608Y004881D01*
X031807Y004963D01*
X031943Y005099D01*
X032411Y004631D01*
X030291Y004631D01*
X030671Y005011D01*
X031147Y005011D01*
X031195Y004963D01*
X031393Y004881D01*
X031634Y004892D02*
X032150Y004892D01*
X032389Y004653D02*
X030313Y004653D01*
X031991Y003461D02*
X028211Y003461D01*
X028211Y003222D02*
X029889Y003222D01*
X029679Y002983D02*
X028271Y002983D01*
X028457Y002745D02*
X029671Y002745D01*
X029671Y002506D02*
X028531Y002506D01*
X028527Y002268D02*
X029671Y002268D01*
X029691Y002029D02*
X028429Y002029D01*
X028187Y001791D02*
X037276Y001791D01*
X037091Y002029D02*
X033941Y002029D01*
X034086Y002268D02*
X035465Y002268D01*
X035428Y002305D02*
X035585Y002148D01*
X035790Y002063D01*
X036012Y002063D01*
X036217Y002148D01*
X036374Y002305D01*
X036459Y002510D01*
X036459Y002732D01*
X036374Y002937D01*
X036217Y003094D01*
X036012Y003179D01*
X035790Y003179D01*
X035585Y003094D01*
X035428Y002937D01*
X035343Y002732D01*
X035343Y002510D01*
X035428Y002305D01*
X035344Y002506D02*
X034131Y002506D01*
X034205Y002745D02*
X035348Y002745D01*
X035474Y002983D02*
X034443Y002983D01*
X034682Y003222D02*
X037097Y003222D01*
X036987Y002983D02*
X036327Y002983D01*
X036454Y002745D02*
X036931Y002745D01*
X036931Y002506D02*
X036457Y002506D01*
X036337Y002268D02*
X036984Y002268D01*
X037612Y001552D02*
X022812Y001552D01*
X023050Y001791D02*
X023415Y001791D01*
X024187Y001791D02*
X025415Y001791D01*
X026187Y001791D02*
X027415Y001791D01*
X027351Y003003D02*
X027214Y003140D01*
X027211Y003141D01*
X027211Y003411D01*
X027391Y003411D01*
X027391Y003041D01*
X027387Y003040D01*
X027351Y003003D01*
X027391Y003222D02*
X027211Y003222D01*
X026391Y003211D02*
X026391Y003141D01*
X026387Y003140D01*
X026251Y003003D01*
X026214Y003040D01*
X026211Y003041D01*
X026211Y003211D01*
X026391Y003211D01*
X025358Y003011D02*
X025351Y003003D01*
X025343Y003011D01*
X025358Y003011D01*
X022651Y003249D02*
X022387Y003140D01*
X022182Y002934D01*
X022071Y002666D01*
X022071Y002376D01*
X022131Y002231D01*
X021412Y002231D01*
X021431Y002276D01*
X021431Y002566D01*
X021320Y002834D01*
X021114Y003040D01*
X021011Y003083D01*
X021011Y003789D01*
X021011Y003952D01*
X020948Y004103D01*
X013833Y011219D01*
X013682Y011281D01*
X013519Y011281D01*
X012914Y011281D01*
X012774Y011421D01*
X012924Y011571D01*
X014371Y011571D01*
X014353Y011589D02*
X014406Y011536D01*
X021350Y004096D01*
X021353Y004089D01*
X021406Y004036D01*
X021457Y003982D01*
X021463Y003979D01*
X021469Y003973D01*
X021538Y003945D01*
X021605Y003914D01*
X021612Y003914D01*
X021619Y003911D01*
X021694Y003911D01*
X021768Y003908D01*
X021775Y003911D01*
X022651Y003911D01*
X022651Y003249D01*
X022586Y003222D02*
X021011Y003222D01*
X021011Y003461D02*
X022651Y003461D01*
X022651Y003699D02*
X021011Y003699D01*
X021011Y003938D02*
X021553Y003938D01*
X021275Y004176D02*
X020875Y004176D01*
X021052Y004415D02*
X020637Y004415D01*
X020830Y004653D02*
X020398Y004653D01*
X020607Y004892D02*
X020160Y004892D01*
X020385Y005130D02*
X019921Y005130D01*
X019683Y005369D02*
X020162Y005369D01*
X019939Y005607D02*
X019444Y005607D01*
X019206Y005846D02*
X019717Y005846D01*
X019494Y006085D02*
X018967Y006085D01*
X018728Y006323D02*
X019271Y006323D01*
X019049Y006562D02*
X018490Y006562D01*
X018251Y006800D02*
X018826Y006800D01*
X018603Y007039D02*
X018013Y007039D01*
X017774Y007277D02*
X018381Y007277D01*
X018158Y007516D02*
X017536Y007516D01*
X017297Y007754D02*
X017935Y007754D01*
X017713Y007993D02*
X017059Y007993D01*
X016820Y008231D02*
X017490Y008231D01*
X017268Y008470D02*
X016582Y008470D01*
X016343Y008709D02*
X017045Y008709D01*
X016822Y008947D02*
X016104Y008947D01*
X015866Y009186D02*
X016600Y009186D01*
X016377Y009424D02*
X015627Y009424D01*
X015389Y009663D02*
X016154Y009663D01*
X015932Y009901D02*
X015150Y009901D01*
X014912Y010140D02*
X015709Y010140D01*
X015486Y010378D02*
X014673Y010378D01*
X014435Y010617D02*
X015264Y010617D01*
X015041Y010855D02*
X014196Y010855D01*
X013958Y011094D02*
X014818Y011094D01*
X014596Y011332D02*
X012862Y011332D01*
X012924Y011571D02*
X013018Y011798D01*
X013018Y012044D01*
X012924Y012271D01*
X012774Y012421D01*
X012924Y012571D01*
X013018Y012798D01*
X013018Y013044D01*
X012924Y013271D01*
X012774Y013421D01*
X012924Y013571D01*
X013018Y013798D01*
X013018Y013911D01*
X013947Y013911D01*
X013995Y013863D01*
X014193Y013781D01*
X014291Y013781D01*
X014291Y011828D01*
X014288Y011754D01*
X014291Y011747D01*
X014291Y011739D01*
X014319Y011671D01*
X014345Y011601D01*
X014350Y011595D01*
X014353Y011589D01*
X014290Y011810D02*
X013018Y011810D01*
X013016Y012048D02*
X014291Y012048D01*
X014291Y012287D02*
X012908Y012287D01*
X012878Y012525D02*
X014291Y012525D01*
X014291Y012764D02*
X013004Y012764D01*
X013018Y013002D02*
X014291Y013002D01*
X014291Y013241D02*
X012937Y013241D01*
X012832Y013479D02*
X014291Y013479D01*
X014291Y013718D02*
X012985Y013718D01*
X012028Y013421D02*
X011901Y013294D01*
X011774Y013421D01*
X011901Y013548D01*
X012028Y013421D01*
X011969Y013479D02*
X011832Y013479D01*
X010969Y013479D02*
X009011Y013479D01*
X009011Y013718D02*
X010816Y013718D01*
X010865Y013241D02*
X009094Y013241D01*
X009141Y013002D02*
X010783Y013002D01*
X010798Y012764D02*
X009079Y012764D01*
X008815Y012525D02*
X010923Y012525D01*
X010893Y012287D02*
X008211Y012287D01*
X008211Y012525D02*
X008386Y012525D01*
X008211Y014051D02*
X008211Y014667D01*
X008259Y014715D01*
X008341Y014914D01*
X008341Y015128D01*
X008259Y015327D01*
X008107Y015479D01*
X007917Y015557D01*
X010133Y017773D01*
X010794Y017773D01*
X010783Y017798D02*
X010877Y017571D01*
X011028Y017421D01*
X010877Y017271D01*
X010783Y017044D01*
X010783Y016798D01*
X010877Y016571D01*
X011028Y016421D01*
X010877Y016271D01*
X010783Y016044D01*
X010783Y015798D01*
X010877Y015571D01*
X011028Y015421D01*
X010877Y015271D01*
X010783Y015044D01*
X010783Y014798D01*
X010811Y014731D01*
X009082Y014731D01*
X008919Y014731D01*
X008769Y014669D01*
X008369Y014269D01*
X008253Y014153D01*
X008211Y014051D01*
X008211Y014195D02*
X008295Y014195D01*
X008211Y014434D02*
X008534Y014434D01*
X008777Y014672D02*
X008216Y014672D01*
X008340Y014911D02*
X010783Y014911D01*
X010827Y015149D02*
X008332Y015149D01*
X008198Y015388D02*
X010994Y015388D01*
X010854Y015626D02*
X007986Y015626D01*
X008224Y015865D02*
X010783Y015865D01*
X010808Y016103D02*
X008463Y016103D01*
X008701Y016342D02*
X010949Y016342D01*
X010873Y016580D02*
X008940Y016580D01*
X009179Y016819D02*
X010783Y016819D01*
X010789Y017058D02*
X009417Y017058D01*
X009656Y017296D02*
X010903Y017296D01*
X010914Y017535D02*
X009894Y017535D01*
X010133Y017773D02*
X010248Y017889D01*
X010311Y018039D01*
X010311Y020511D01*
X010719Y020511D01*
X010919Y020511D01*
X010938Y020511D01*
X011028Y020421D01*
X010877Y020271D01*
X010783Y020044D01*
X010783Y019798D01*
X010877Y019571D01*
X011028Y019421D01*
X010877Y019271D01*
X010783Y019044D01*
X010783Y018798D01*
X010877Y018571D01*
X011028Y018421D01*
X010877Y018271D01*
X010783Y018044D01*
X010783Y017798D01*
X010783Y018012D02*
X010299Y018012D01*
X010311Y018250D02*
X010869Y018250D01*
X010960Y018489D02*
X010311Y018489D01*
X010311Y018727D02*
X010813Y018727D01*
X010783Y018966D02*
X010311Y018966D01*
X010311Y019204D02*
X010850Y019204D01*
X011006Y019443D02*
X010311Y019443D01*
X010311Y019681D02*
X010832Y019681D01*
X010783Y019920D02*
X010311Y019920D01*
X010311Y020159D02*
X010831Y020159D01*
X011004Y020397D02*
X010311Y020397D01*
X010391Y021331D02*
X010571Y021511D01*
X010938Y021511D01*
X011028Y021421D01*
X010938Y021331D01*
X010919Y021331D01*
X010719Y021331D01*
X010391Y021331D01*
X010411Y021351D02*
X010958Y021351D01*
X011774Y021421D02*
X011901Y021548D01*
X012028Y021421D01*
X011901Y021294D01*
X011774Y021421D01*
X011844Y021351D02*
X011958Y021351D01*
X012774Y021421D02*
X012924Y021571D01*
X013018Y021798D01*
X013018Y022044D01*
X012924Y022271D01*
X012774Y022421D01*
X012924Y022571D01*
X013018Y022798D01*
X013018Y023044D01*
X012924Y023271D01*
X012774Y023421D01*
X012864Y023511D01*
X013677Y023511D01*
X014291Y023102D01*
X014291Y021275D01*
X014243Y021227D01*
X014161Y021028D01*
X014161Y020814D01*
X014243Y020615D01*
X014395Y020463D01*
X014593Y020381D01*
X014808Y020381D01*
X015007Y020463D01*
X015091Y020547D01*
X015091Y020175D01*
X015043Y020127D01*
X014961Y019928D01*
X014961Y019831D01*
X013018Y019831D01*
X013018Y020044D01*
X012924Y020271D01*
X012774Y020421D01*
X012924Y020571D01*
X013018Y020798D01*
X013018Y021044D01*
X012924Y021271D01*
X012774Y021421D01*
X012844Y021351D02*
X014291Y021351D01*
X014291Y021590D02*
X012932Y021590D01*
X013018Y021828D02*
X014291Y021828D01*
X014291Y022067D02*
X013009Y022067D01*
X012889Y022305D02*
X014291Y022305D01*
X014291Y022544D02*
X012897Y022544D01*
X013012Y022783D02*
X014291Y022783D01*
X014291Y023021D02*
X013018Y023021D01*
X012929Y023260D02*
X014054Y023260D01*
X013696Y023498D02*
X012851Y023498D01*
X012028Y023421D02*
X011901Y023294D01*
X011774Y023421D01*
X011901Y023548D01*
X012028Y023421D01*
X011950Y023498D02*
X011851Y023498D01*
X011028Y023421D02*
X010938Y023331D01*
X009782Y023331D01*
X009619Y023331D01*
X009469Y023269D01*
X009211Y023011D01*
X009211Y023073D01*
X009993Y024011D01*
X010783Y024011D01*
X010783Y023798D01*
X010877Y023571D01*
X011028Y023421D01*
X010950Y023498D02*
X009565Y023498D01*
X009460Y023260D02*
X009367Y023260D01*
X009221Y023021D02*
X009211Y023021D01*
X009871Y022511D02*
X009611Y022251D01*
X009611Y021711D01*
X010169Y022269D01*
X010319Y022331D01*
X010482Y022331D01*
X010938Y022331D01*
X011028Y022421D01*
X010938Y022511D01*
X009871Y022511D01*
X009665Y022305D02*
X010258Y022305D01*
X009967Y022067D02*
X009611Y022067D01*
X009611Y021828D02*
X009728Y021828D01*
X011774Y022421D02*
X011901Y022548D01*
X012028Y022421D01*
X011901Y022294D01*
X011774Y022421D01*
X011889Y022305D02*
X011912Y022305D01*
X011897Y022544D02*
X011904Y022544D01*
X010809Y023737D02*
X009764Y023737D01*
X009963Y023975D02*
X010783Y023975D01*
X012805Y024452D02*
X015091Y024452D01*
X015091Y024214D02*
X014101Y024214D01*
X014458Y023975D02*
X015091Y023975D01*
X015091Y023737D02*
X014816Y023737D01*
X015076Y023498D02*
X015091Y023498D01*
X015911Y023498D02*
X020342Y023498D01*
X020295Y023479D02*
X020143Y023327D01*
X020061Y023128D01*
X020061Y022914D01*
X020143Y022715D01*
X020295Y022563D01*
X020493Y022481D01*
X020708Y022481D01*
X020907Y022563D01*
X021059Y022715D01*
X021141Y022914D01*
X021141Y023128D01*
X021059Y023327D01*
X020907Y023479D01*
X020708Y023561D01*
X020493Y023561D01*
X020295Y023479D01*
X020115Y023260D02*
X017126Y023260D01*
X017107Y023279D02*
X016908Y023361D01*
X016693Y023361D01*
X016495Y023279D01*
X016343Y023127D01*
X016261Y022928D01*
X016261Y022714D01*
X016343Y022515D01*
X016495Y022363D01*
X016693Y022281D01*
X016908Y022281D01*
X017107Y022363D01*
X017259Y022515D01*
X017341Y022714D01*
X017341Y022928D01*
X017259Y023127D01*
X017107Y023279D01*
X017302Y023021D02*
X020061Y023021D01*
X020115Y022783D02*
X017341Y022783D01*
X017271Y022544D02*
X020341Y022544D01*
X020860Y022544D02*
X022988Y022544D01*
X022928Y022605D02*
X023085Y022448D01*
X023290Y022363D01*
X023512Y022363D01*
X023717Y022448D01*
X023874Y022605D01*
X023959Y022810D01*
X023959Y023032D01*
X023874Y023237D01*
X023717Y023394D01*
X023512Y023479D01*
X023290Y023479D01*
X023085Y023394D01*
X022928Y023237D01*
X022843Y023032D01*
X022843Y022810D01*
X022928Y022605D01*
X022854Y022783D02*
X021086Y022783D01*
X021141Y023021D02*
X022843Y023021D01*
X022950Y023260D02*
X021086Y023260D01*
X020860Y023498D02*
X027950Y023498D01*
X027873Y023260D02*
X023851Y023260D01*
X023959Y023021D02*
X027783Y023021D01*
X027790Y022783D02*
X023948Y022783D01*
X023813Y022544D02*
X027904Y022544D01*
X027912Y022305D02*
X016967Y022305D01*
X016634Y022305D02*
X015911Y022305D01*
X015911Y022067D02*
X027793Y022067D01*
X027783Y021828D02*
X015911Y021828D01*
X015911Y021590D02*
X027870Y021590D01*
X027958Y021351D02*
X015911Y021351D01*
X015911Y021113D02*
X027812Y021113D01*
X027783Y020874D02*
X015911Y020874D01*
X015911Y020636D02*
X027851Y020636D01*
X028004Y020397D02*
X015911Y020397D01*
X015927Y020159D02*
X027831Y020159D01*
X027783Y019920D02*
X016041Y019920D01*
X016520Y019681D02*
X027832Y019681D01*
X028006Y019443D02*
X016759Y019443D01*
X016997Y019204D02*
X027850Y019204D01*
X027783Y018966D02*
X018036Y018966D01*
X018274Y018727D02*
X027813Y018727D01*
X027960Y018489D02*
X018513Y018489D01*
X018751Y018250D02*
X027869Y018250D01*
X027783Y018012D02*
X024192Y018012D01*
X024366Y017773D02*
X027794Y017773D01*
X027914Y017535D02*
X024431Y017535D01*
X024418Y017296D02*
X027903Y017296D01*
X027789Y017058D02*
X024320Y017058D01*
X024034Y016819D02*
X027783Y016819D01*
X027873Y016580D02*
X022040Y016580D01*
X022202Y016819D02*
X022220Y016819D01*
X021802Y016342D02*
X027949Y016342D01*
X027808Y016103D02*
X016311Y016103D01*
X016311Y016342D02*
X017100Y016342D01*
X016861Y016580D02*
X016311Y016580D01*
X016311Y016819D02*
X016623Y016819D01*
X016975Y017626D02*
X016833Y017769D01*
X016682Y017831D01*
X016519Y017831D01*
X015982Y017831D01*
X015819Y017831D01*
X013071Y017831D01*
X013018Y017883D01*
X013018Y018011D01*
X014747Y018011D01*
X014795Y017963D01*
X014993Y017881D01*
X015208Y017881D01*
X015407Y017963D01*
X015559Y018115D01*
X015641Y018314D01*
X015641Y018389D01*
X015767Y018298D01*
X015843Y018115D01*
X015995Y017963D01*
X016193Y017881D01*
X016408Y017881D01*
X016607Y017963D01*
X016759Y018115D01*
X016816Y018254D01*
X016919Y018211D01*
X017631Y018211D01*
X017641Y018201D01*
X017556Y018201D01*
X017287Y018090D01*
X017082Y017884D01*
X016975Y017626D01*
X017036Y017773D02*
X016822Y017773D01*
X016655Y018012D02*
X017209Y018012D01*
X016824Y018250D02*
X016814Y018250D01*
X015946Y018012D02*
X015455Y018012D01*
X015615Y018250D02*
X015787Y018250D01*
X014195Y017011D02*
X014161Y016928D01*
X014161Y016714D01*
X014243Y016515D01*
X014291Y016467D01*
X014291Y014861D01*
X014193Y014861D01*
X013995Y014779D01*
X013947Y014731D01*
X012990Y014731D01*
X013018Y014798D01*
X013018Y015044D01*
X012924Y015271D01*
X012774Y015421D01*
X012924Y015571D01*
X013018Y015798D01*
X013018Y016044D01*
X012924Y016271D01*
X012774Y016421D01*
X012924Y016571D01*
X013018Y016798D01*
X013018Y017011D01*
X014195Y017011D01*
X014161Y016819D02*
X013018Y016819D01*
X012928Y016580D02*
X014216Y016580D01*
X014291Y016342D02*
X012853Y016342D01*
X012994Y016103D02*
X014291Y016103D01*
X014291Y015865D02*
X013018Y015865D01*
X012947Y015626D02*
X014291Y015626D01*
X014291Y015388D02*
X012807Y015388D01*
X012975Y015149D02*
X014291Y015149D01*
X014291Y014911D02*
X013018Y014911D01*
X012028Y015421D02*
X011901Y015294D01*
X011774Y015421D01*
X011901Y015548D01*
X012028Y015421D01*
X011994Y015388D02*
X011807Y015388D01*
X011901Y016294D02*
X012028Y016421D01*
X011901Y016548D01*
X011774Y016421D01*
X011901Y016294D01*
X011853Y016342D02*
X011949Y016342D01*
X011901Y017294D02*
X012028Y017421D01*
X011901Y017548D01*
X011774Y017421D01*
X011901Y017294D01*
X011899Y017296D02*
X011903Y017296D01*
X011888Y017535D02*
X011914Y017535D01*
X013018Y019920D02*
X014961Y019920D01*
X015075Y020159D02*
X012971Y020159D01*
X012798Y020397D02*
X014554Y020397D01*
X014847Y020397D02*
X015091Y020397D01*
X014234Y020636D02*
X012951Y020636D01*
X013018Y020874D02*
X014161Y020874D01*
X014196Y021113D02*
X012990Y021113D01*
X012028Y020421D02*
X011901Y020294D01*
X011774Y020421D01*
X011901Y020548D01*
X012028Y020421D01*
X012004Y020397D02*
X011798Y020397D01*
X015911Y022544D02*
X016331Y022544D01*
X016261Y022783D02*
X015911Y022783D01*
X015911Y023021D02*
X016299Y023021D01*
X016476Y023260D02*
X015911Y023260D01*
X015911Y023737D02*
X027809Y023737D01*
X027783Y023975D02*
X015911Y023975D01*
X015911Y024214D02*
X027854Y024214D01*
X027996Y024452D02*
X015911Y024452D01*
X015911Y024691D02*
X027828Y024691D01*
X027783Y024929D02*
X015911Y024929D01*
X015911Y025168D02*
X027835Y025168D01*
X028013Y025407D02*
X015911Y025407D01*
X015911Y025645D02*
X027847Y025645D01*
X027783Y025884D02*
X015911Y025884D01*
X015911Y026122D02*
X027816Y026122D01*
X027967Y026361D02*
X015911Y026361D01*
X015911Y026599D02*
X027866Y026599D01*
X028774Y026421D02*
X028901Y026548D01*
X029028Y026421D01*
X028901Y026294D01*
X028774Y026421D01*
X028834Y026361D02*
X028967Y026361D01*
X028901Y025548D02*
X029028Y025421D01*
X028901Y025294D01*
X028774Y025421D01*
X028901Y025548D01*
X028788Y025407D02*
X029013Y025407D01*
X028901Y024548D02*
X029028Y024421D01*
X028901Y024294D01*
X028774Y024421D01*
X028901Y024548D01*
X028805Y024452D02*
X028996Y024452D01*
X030411Y024691D02*
X031261Y024691D01*
X031303Y024929D02*
X030411Y024929D01*
X030411Y025168D02*
X031391Y025168D01*
X031391Y025407D02*
X030411Y025407D01*
X030411Y025645D02*
X031391Y025645D01*
X031391Y025884D02*
X030411Y025884D01*
X030411Y026122D02*
X031391Y026122D01*
X031391Y026361D02*
X030411Y026361D01*
X030411Y026599D02*
X031391Y026599D01*
X031391Y026838D02*
X030411Y026838D01*
X030411Y027076D02*
X031391Y027076D01*
X031391Y027315D02*
X030411Y027315D01*
X030411Y027553D02*
X031391Y027553D01*
X031391Y027792D02*
X030411Y027792D01*
X030411Y028031D02*
X031391Y028031D01*
X031391Y028269D02*
X030411Y028269D01*
X030411Y028508D02*
X031391Y028508D01*
X031391Y028746D02*
X030411Y028746D01*
X030411Y028985D02*
X031391Y028985D01*
X031391Y029223D02*
X030411Y029223D01*
X030386Y029462D02*
X031180Y029462D01*
X030942Y029700D02*
X030201Y029700D01*
X030018Y029939D02*
X030703Y029939D01*
X030464Y030177D02*
X029963Y030177D01*
X029779Y030416D02*
X030226Y030416D01*
X030908Y030893D02*
X036962Y030893D01*
X036931Y030654D02*
X031147Y030654D01*
X031386Y030416D02*
X036944Y030416D01*
X037008Y030177D02*
X031624Y030177D01*
X031863Y029939D02*
X037144Y029939D01*
X037367Y029700D02*
X032101Y029700D01*
X032211Y029462D02*
X037906Y029462D01*
X038295Y029462D02*
X039451Y029462D01*
X039451Y029700D02*
X038835Y029700D01*
X039058Y029939D02*
X039451Y029939D01*
X039451Y030177D02*
X039193Y030177D01*
X039257Y030416D02*
X039451Y030416D01*
X039451Y030654D02*
X039271Y030654D01*
X039239Y030893D02*
X039451Y030893D01*
X039451Y031132D02*
X039157Y031132D01*
X039006Y031370D02*
X039451Y031370D01*
X037195Y031370D02*
X030429Y031370D01*
X030670Y031132D02*
X037045Y031132D01*
X037895Y028979D02*
X038093Y029061D01*
X038308Y029061D01*
X038507Y028979D01*
X038659Y028827D01*
X038741Y028628D01*
X038741Y028414D01*
X038659Y028215D01*
X038507Y028063D01*
X038308Y027981D01*
X038093Y027981D01*
X037895Y028063D01*
X037743Y028215D01*
X037661Y028414D01*
X037661Y028628D01*
X037743Y028827D01*
X037895Y028979D01*
X037909Y028985D02*
X032211Y028985D01*
X032211Y029223D02*
X039451Y029223D01*
X039451Y028985D02*
X038492Y028985D01*
X038692Y028746D02*
X039451Y028746D01*
X039451Y028508D02*
X038741Y028508D01*
X038681Y028269D02*
X039451Y028269D01*
X039451Y028031D02*
X038428Y028031D01*
X037974Y028031D02*
X032211Y028031D01*
X032211Y028269D02*
X037721Y028269D01*
X037661Y028508D02*
X032211Y028508D01*
X032211Y028746D02*
X037710Y028746D01*
X039451Y027792D02*
X032211Y027792D01*
X032211Y027553D02*
X039451Y027553D01*
X039451Y027315D02*
X032211Y027315D01*
X032211Y027076D02*
X039451Y027076D01*
X039451Y026838D02*
X032211Y026838D01*
X032211Y026599D02*
X039451Y026599D01*
X039451Y026361D02*
X032211Y026361D01*
X032211Y026122D02*
X039451Y026122D01*
X039451Y025884D02*
X032211Y025884D01*
X032211Y025645D02*
X039451Y025645D01*
X039451Y025407D02*
X032211Y025407D01*
X032211Y025168D02*
X039451Y025168D01*
X039451Y024929D02*
X032299Y024929D01*
X032341Y024691D02*
X039451Y024691D01*
X039451Y024452D02*
X032274Y024452D01*
X031328Y024452D02*
X030449Y024452D01*
X030361Y023011D02*
X030018Y023011D01*
X030018Y022798D01*
X029924Y022571D01*
X029774Y022421D01*
X029924Y022271D01*
X030018Y022044D01*
X030018Y021798D01*
X029924Y021571D01*
X029774Y021421D01*
X029924Y021271D01*
X030018Y021044D01*
X030018Y020798D01*
X029924Y020571D01*
X029774Y020421D01*
X029924Y020271D01*
X030018Y020044D01*
X030018Y019798D01*
X029924Y019571D01*
X029774Y019421D01*
X029924Y019271D01*
X030018Y019044D01*
X030018Y018798D01*
X029924Y018571D01*
X029774Y018421D01*
X029924Y018271D01*
X030018Y018044D01*
X030018Y017798D01*
X029924Y017571D01*
X029774Y017421D01*
X029924Y017271D01*
X030018Y017044D01*
X030018Y016798D01*
X029924Y016571D01*
X029774Y016421D01*
X029924Y016271D01*
X030018Y016044D01*
X030018Y015798D01*
X029924Y015571D01*
X029774Y015421D01*
X029924Y015271D01*
X030018Y015044D01*
X030018Y014798D01*
X029924Y014571D01*
X029774Y014421D01*
X029924Y014271D01*
X030018Y014044D01*
X030018Y013798D01*
X029924Y013571D01*
X029774Y013421D01*
X029924Y013271D01*
X030018Y013044D01*
X030018Y012798D01*
X029924Y012571D01*
X029774Y012421D01*
X029924Y012271D01*
X030018Y012044D01*
X030018Y011831D01*
X030091Y011831D01*
X030091Y017402D01*
X030153Y017553D01*
X030269Y017669D01*
X030491Y017891D01*
X030491Y022667D01*
X030443Y022715D01*
X030361Y022914D01*
X030361Y023011D01*
X030415Y022783D02*
X030012Y022783D01*
X029897Y022544D02*
X030491Y022544D01*
X030491Y022305D02*
X029889Y022305D01*
X030009Y022067D02*
X030491Y022067D01*
X030491Y021828D02*
X030018Y021828D01*
X029932Y021590D02*
X030491Y021590D01*
X030491Y021351D02*
X029844Y021351D01*
X029990Y021113D02*
X030491Y021113D01*
X030491Y020874D02*
X030018Y020874D01*
X029951Y020636D02*
X030491Y020636D01*
X030491Y020397D02*
X029798Y020397D01*
X029971Y020159D02*
X030491Y020159D01*
X030491Y019920D02*
X030018Y019920D01*
X029970Y019681D02*
X030491Y019681D01*
X030491Y019443D02*
X029796Y019443D01*
X029952Y019204D02*
X030491Y019204D01*
X030491Y018966D02*
X030018Y018966D01*
X029989Y018727D02*
X030491Y018727D01*
X030491Y018489D02*
X029842Y018489D01*
X029933Y018250D02*
X030491Y018250D01*
X030491Y018012D02*
X030018Y018012D01*
X030008Y017773D02*
X030373Y017773D01*
X030146Y017535D02*
X029888Y017535D01*
X029899Y017296D02*
X030091Y017296D01*
X030091Y017058D02*
X030013Y017058D01*
X030018Y016819D02*
X030091Y016819D01*
X030091Y016580D02*
X029928Y016580D01*
X029853Y016342D02*
X030091Y016342D01*
X030091Y016103D02*
X029994Y016103D01*
X030018Y015865D02*
X030091Y015865D01*
X030091Y015626D02*
X029947Y015626D01*
X029807Y015388D02*
X030091Y015388D01*
X030091Y015149D02*
X029975Y015149D01*
X030018Y014911D02*
X030091Y014911D01*
X030091Y014672D02*
X029966Y014672D01*
X030091Y014434D02*
X029787Y014434D01*
X029956Y014195D02*
X030091Y014195D01*
X030091Y013956D02*
X030018Y013956D01*
X029985Y013718D02*
X030091Y013718D01*
X030091Y013479D02*
X029832Y013479D01*
X029937Y013241D02*
X030091Y013241D01*
X030091Y013002D02*
X030018Y013002D01*
X030004Y012764D02*
X030091Y012764D01*
X030091Y012525D02*
X029878Y012525D01*
X029908Y012287D02*
X030091Y012287D01*
X030091Y012048D02*
X030016Y012048D01*
X029028Y012421D02*
X028901Y012294D01*
X028774Y012421D01*
X028901Y012548D01*
X029028Y012421D01*
X028923Y012525D02*
X028878Y012525D01*
X028901Y013294D02*
X028774Y013421D01*
X028901Y013548D01*
X029028Y013421D01*
X028901Y013294D01*
X028832Y013479D02*
X028969Y013479D01*
X028901Y014294D02*
X028774Y014421D01*
X028901Y014548D01*
X029028Y014421D01*
X028901Y014294D01*
X028787Y014434D02*
X029015Y014434D01*
X028901Y015294D02*
X028774Y015421D01*
X028901Y015548D01*
X029028Y015421D01*
X028901Y015294D01*
X028807Y015388D02*
X028994Y015388D01*
X028901Y016294D02*
X028774Y016421D01*
X028901Y016548D01*
X029028Y016421D01*
X028901Y016294D01*
X028853Y016342D02*
X028949Y016342D01*
X028901Y017294D02*
X029028Y017421D01*
X028901Y017548D01*
X028774Y017421D01*
X028901Y017294D01*
X028899Y017296D02*
X028903Y017296D01*
X028888Y017535D02*
X028914Y017535D01*
X028901Y018294D02*
X029028Y018421D01*
X028901Y018548D01*
X028774Y018421D01*
X028901Y018294D01*
X028842Y018489D02*
X028960Y018489D01*
X031056Y017296D02*
X032713Y017296D01*
X032725Y017058D02*
X030911Y017058D01*
X030911Y016819D02*
X032601Y016819D01*
X032571Y016580D02*
X030911Y016580D01*
X030911Y016342D02*
X032618Y016342D01*
X032766Y016103D02*
X030911Y016103D01*
X030911Y015865D02*
X034093Y015865D01*
X033906Y016103D02*
X033836Y016103D01*
X034561Y015626D02*
X030911Y015626D01*
X030911Y015388D02*
X034670Y015388D01*
X035531Y015388D02*
X039451Y015388D01*
X039451Y015626D02*
X035641Y015626D01*
X035626Y015865D02*
X039451Y015865D01*
X039451Y016103D02*
X035511Y016103D01*
X035511Y016342D02*
X036963Y016342D01*
X037040Y016265D02*
X037274Y016168D01*
X037528Y016168D01*
X037762Y016265D01*
X037941Y016444D01*
X038038Y016678D01*
X038038Y016932D01*
X037941Y017166D01*
X037762Y017345D01*
X037528Y017442D01*
X037274Y017442D01*
X037040Y017345D01*
X036861Y017166D01*
X036764Y016932D01*
X036764Y016678D01*
X036861Y016444D01*
X037040Y016265D01*
X036804Y016580D02*
X035511Y016580D01*
X035511Y016819D02*
X036764Y016819D01*
X036816Y017058D02*
X035511Y017058D01*
X035511Y017296D02*
X036991Y017296D01*
X037274Y017900D02*
X037040Y017997D01*
X036861Y018176D01*
X036764Y018410D01*
X036764Y018664D01*
X036861Y018898D01*
X037040Y019077D01*
X037274Y019174D01*
X037528Y019174D01*
X037762Y019077D01*
X037941Y018898D01*
X038038Y018664D01*
X038038Y018410D01*
X037941Y018176D01*
X037762Y017997D01*
X037528Y017900D01*
X037274Y017900D01*
X037025Y018012D02*
X035606Y018012D01*
X035641Y017773D02*
X039451Y017773D01*
X039451Y017535D02*
X035567Y017535D01*
X035435Y018250D02*
X036830Y018250D01*
X036764Y018489D02*
X031311Y018489D01*
X031311Y018727D02*
X036790Y018727D01*
X036929Y018966D02*
X031311Y018966D01*
X031311Y019204D02*
X031623Y019204D01*
X031978Y019204D02*
X033973Y019204D01*
X034006Y019191D02*
X034296Y019191D01*
X034564Y019302D01*
X034770Y019507D01*
X034881Y019776D01*
X034881Y020066D01*
X034770Y020334D01*
X034683Y020421D01*
X034770Y020507D01*
X034881Y020776D01*
X034881Y021066D01*
X034770Y021334D01*
X034564Y021540D01*
X034296Y021651D01*
X034006Y021651D01*
X033737Y021540D01*
X033532Y021334D01*
X033421Y021066D01*
X033421Y020776D01*
X033532Y020507D01*
X033618Y020421D01*
X033532Y020334D01*
X033421Y020066D01*
X033421Y019776D01*
X033532Y019507D01*
X033737Y019302D01*
X034006Y019191D01*
X034328Y019204D02*
X039451Y019204D01*
X039451Y018966D02*
X037873Y018966D01*
X038012Y018727D02*
X039451Y018727D01*
X039451Y018489D02*
X038038Y018489D01*
X037972Y018250D02*
X039451Y018250D01*
X039451Y018012D02*
X037776Y018012D01*
X037811Y017296D02*
X039451Y017296D01*
X039451Y017058D02*
X037986Y017058D01*
X038038Y016819D02*
X039451Y016819D01*
X039451Y016580D02*
X037997Y016580D01*
X037839Y016342D02*
X039451Y016342D01*
X039451Y015149D02*
X030911Y015149D01*
X030911Y014911D02*
X039451Y014911D01*
X039451Y014672D02*
X030911Y014672D01*
X030911Y014434D02*
X033750Y014434D01*
X034452Y014434D02*
X039451Y014434D01*
X039451Y014195D02*
X034613Y014195D01*
X034641Y013956D02*
X039451Y013956D01*
X039451Y013718D02*
X034560Y013718D01*
X033838Y012764D02*
X039451Y012764D01*
X039451Y013002D02*
X033599Y013002D01*
X033361Y013241D02*
X039451Y013241D01*
X039451Y013479D02*
X033278Y013479D01*
X032494Y012764D02*
X030911Y012764D01*
X030911Y013002D02*
X032307Y013002D01*
X031849Y013241D02*
X030911Y013241D01*
X030911Y013479D02*
X031616Y013479D01*
X031561Y013718D02*
X030911Y013718D01*
X030911Y013956D02*
X031614Y013956D01*
X031834Y014195D02*
X030911Y014195D01*
X030911Y012525D02*
X032917Y012525D01*
X033155Y012287D02*
X030911Y012287D01*
X030911Y012048D02*
X033394Y012048D01*
X033632Y011810D02*
X030911Y011810D01*
X030911Y011571D02*
X033874Y011571D01*
X034076Y012525D02*
X039451Y012525D01*
X038491Y010331D02*
X038491Y006513D01*
X038464Y006540D01*
X038196Y006651D01*
X037906Y006651D01*
X037867Y006635D01*
X037233Y007269D01*
X037082Y007331D01*
X036919Y007331D01*
X036899Y007331D01*
X037001Y007576D01*
X037001Y007866D01*
X036890Y008134D01*
X036711Y008313D01*
X036711Y008402D01*
X036648Y008553D01*
X036211Y008991D01*
X036346Y008991D01*
X036614Y009102D01*
X036651Y009139D01*
X036787Y009002D01*
X037056Y008891D01*
X037346Y008891D01*
X037614Y009002D01*
X037820Y009207D01*
X037931Y009476D01*
X037931Y009766D01*
X037929Y009770D01*
X038491Y010331D01*
X038491Y010140D02*
X038299Y010140D01*
X038491Y009901D02*
X038061Y009901D01*
X037931Y009663D02*
X038491Y009663D01*
X038491Y009424D02*
X037909Y009424D01*
X037798Y009186D02*
X038491Y009186D01*
X038491Y008947D02*
X037481Y008947D01*
X036920Y008947D02*
X036254Y008947D01*
X036493Y008709D02*
X038491Y008709D01*
X038491Y008470D02*
X036683Y008470D01*
X036793Y008231D02*
X038491Y008231D01*
X038491Y007993D02*
X036948Y007993D01*
X037001Y007754D02*
X038491Y007754D01*
X038491Y007516D02*
X036976Y007516D01*
X037212Y007277D02*
X038491Y007277D01*
X038491Y007039D02*
X037463Y007039D01*
X037701Y006800D02*
X038491Y006800D01*
X038491Y006562D02*
X038412Y006562D01*
X037191Y006151D02*
X037156Y006151D01*
X036887Y006040D01*
X036682Y005834D01*
X036571Y005566D01*
X036571Y005281D01*
X035669Y005281D01*
X035519Y005219D01*
X035403Y005103D01*
X033811Y003511D01*
X033811Y004302D01*
X033748Y004453D01*
X033633Y004569D01*
X031933Y006269D01*
X031782Y006331D01*
X031619Y006331D01*
X029985Y006331D01*
X029963Y006382D01*
X029862Y006484D01*
X029844Y006491D01*
X029864Y006511D01*
X036831Y006511D01*
X037191Y006151D01*
X036995Y006085D02*
X032117Y006085D01*
X032356Y005846D02*
X036693Y005846D01*
X036588Y005607D02*
X032594Y005607D01*
X032833Y005369D02*
X036571Y005369D01*
X037019Y006323D02*
X031801Y006323D01*
X033006Y007331D02*
X033041Y007414D01*
X033041Y007628D01*
X032959Y007827D01*
X032807Y007979D01*
X032608Y008061D01*
X032393Y008061D01*
X032195Y007979D01*
X032147Y007931D01*
X030018Y007931D01*
X030018Y008044D01*
X029990Y008111D01*
X033847Y008111D01*
X033895Y008063D01*
X034093Y007981D01*
X034308Y007981D01*
X034477Y008051D01*
X034401Y007866D01*
X034401Y007576D01*
X034502Y007331D01*
X033006Y007331D01*
X033041Y007516D02*
X034426Y007516D01*
X034401Y007754D02*
X032989Y007754D01*
X032772Y007993D02*
X034065Y007993D01*
X034337Y007993D02*
X034453Y007993D01*
X034705Y008328D02*
X034741Y008414D01*
X034741Y008611D01*
X035431Y008611D01*
X035780Y008262D01*
X035701Y008183D01*
X035544Y008340D01*
X035276Y008451D01*
X034986Y008451D01*
X034717Y008340D01*
X034705Y008328D01*
X034741Y008470D02*
X035572Y008470D01*
X035653Y008231D02*
X035749Y008231D01*
X032229Y007993D02*
X030018Y007993D01*
X028901Y009294D02*
X029028Y009421D01*
X028901Y009548D01*
X028774Y009421D01*
X028901Y009294D01*
X029024Y009424D02*
X028777Y009424D01*
X027858Y010617D02*
X027211Y010617D01*
X027211Y010855D02*
X027783Y010855D01*
X027783Y011831D02*
X027506Y011831D01*
X027541Y011914D01*
X027541Y012081D01*
X027708Y012081D01*
X027817Y012126D01*
X027783Y012044D01*
X027783Y011831D01*
X027785Y012048D02*
X027541Y012048D01*
X026707Y013163D02*
X026859Y013315D01*
X026941Y013514D01*
X026941Y013728D01*
X026859Y013927D01*
X026707Y014079D01*
X026508Y014161D01*
X026293Y014161D01*
X026095Y014079D01*
X025943Y013927D01*
X025861Y013728D01*
X025861Y013514D01*
X025943Y013315D01*
X026095Y013163D01*
X026293Y013081D01*
X026508Y013081D01*
X026707Y013163D01*
X026784Y013241D02*
X027865Y013241D01*
X027969Y013479D02*
X026927Y013479D01*
X026941Y013718D02*
X027816Y013718D01*
X027783Y013956D02*
X026829Y013956D01*
X025973Y013956D02*
X024729Y013956D01*
X024759Y013927D02*
X024607Y014079D01*
X024408Y014161D01*
X024193Y014161D01*
X023995Y014079D01*
X023843Y013927D01*
X023761Y013728D01*
X023761Y013514D01*
X023843Y013315D01*
X023995Y013163D01*
X024193Y013081D01*
X024408Y013081D01*
X024607Y013163D01*
X024759Y013315D01*
X024841Y013514D01*
X024841Y013728D01*
X024759Y013927D01*
X024841Y013718D02*
X025861Y013718D01*
X025875Y013479D02*
X024827Y013479D01*
X024684Y013241D02*
X026017Y013241D01*
X027846Y014195D02*
X016711Y014195D01*
X016711Y014434D02*
X028015Y014434D01*
X027835Y014672D02*
X016711Y014672D01*
X016711Y014911D02*
X027783Y014911D01*
X027827Y015149D02*
X016773Y015149D01*
X016841Y015388D02*
X027994Y015388D01*
X027854Y015626D02*
X016800Y015626D01*
X016621Y015865D02*
X027783Y015865D01*
X031311Y018250D02*
X032778Y018250D01*
X033824Y018250D02*
X034766Y018250D01*
X034595Y018012D02*
X033979Y018012D01*
X033874Y017282D02*
X033943Y017115D01*
X033991Y017067D01*
X033991Y016843D01*
X033920Y017014D01*
X033763Y017171D01*
X033874Y017282D01*
X033877Y017058D02*
X033991Y017058D01*
X033596Y019443D02*
X032355Y019443D01*
X032492Y019681D02*
X033460Y019681D01*
X033421Y019920D02*
X032531Y019920D01*
X032492Y020159D02*
X033459Y020159D01*
X033595Y020397D02*
X032357Y020397D01*
X032473Y020636D02*
X033479Y020636D01*
X033421Y020874D02*
X032531Y020874D01*
X032511Y021113D02*
X033440Y021113D01*
X033549Y021351D02*
X032403Y021351D01*
X032093Y021590D02*
X033858Y021590D01*
X034443Y021590D02*
X035472Y021590D01*
X035391Y021828D02*
X031311Y021828D01*
X031311Y021590D02*
X031508Y021590D01*
X031311Y022067D02*
X035391Y022067D01*
X035166Y022305D02*
X031311Y022305D01*
X031311Y022544D02*
X034928Y022544D01*
X034689Y022783D02*
X031386Y022783D01*
X034753Y021351D02*
X035668Y021351D01*
X036574Y021351D02*
X037042Y021351D01*
X037028Y021337D02*
X036943Y021132D01*
X036943Y020910D01*
X037028Y020705D01*
X037185Y020548D01*
X037390Y020463D01*
X037612Y020463D01*
X037817Y020548D01*
X037974Y020705D01*
X038059Y020910D01*
X038059Y021132D01*
X037974Y021337D01*
X037817Y021494D01*
X037612Y021579D01*
X037390Y021579D01*
X037185Y021494D01*
X037028Y021337D01*
X036943Y021113D02*
X034861Y021113D01*
X034881Y020874D02*
X036957Y020874D01*
X037097Y020636D02*
X034823Y020636D01*
X034707Y020397D02*
X039451Y020397D01*
X039451Y020159D02*
X034842Y020159D01*
X034881Y019920D02*
X039451Y019920D01*
X039451Y019681D02*
X034842Y019681D01*
X034705Y019443D02*
X039451Y019443D01*
X039451Y020636D02*
X037905Y020636D01*
X038044Y020874D02*
X039451Y020874D01*
X039451Y021113D02*
X038059Y021113D01*
X037960Y021351D02*
X038228Y021351D01*
X038267Y021312D02*
X038536Y021201D01*
X038826Y021201D01*
X039094Y021312D01*
X039300Y021517D01*
X039411Y021786D01*
X039411Y022076D01*
X039300Y022344D01*
X039094Y022550D01*
X038826Y022661D01*
X038536Y022661D01*
X038267Y022550D01*
X038062Y022344D01*
X037951Y022076D01*
X037951Y021786D01*
X038062Y021517D01*
X038267Y021312D01*
X038032Y021590D02*
X036770Y021590D01*
X036851Y021828D02*
X037951Y021828D01*
X037951Y022067D02*
X036851Y022067D01*
X036756Y022305D02*
X038046Y022305D01*
X038261Y022544D02*
X036540Y022544D01*
X036363Y023021D02*
X038439Y023021D01*
X038536Y022981D02*
X038267Y023092D01*
X038062Y023297D01*
X037951Y023566D01*
X037951Y023856D01*
X038062Y024124D01*
X038267Y024330D01*
X038536Y024441D01*
X038826Y024441D01*
X039094Y024330D01*
X039300Y024124D01*
X039411Y023856D01*
X039411Y023566D01*
X039300Y023297D01*
X039094Y023092D01*
X038826Y022981D01*
X038536Y022981D01*
X038923Y023021D02*
X039451Y023021D01*
X039451Y022783D02*
X035849Y022783D01*
X035879Y023021D02*
X035610Y023021D01*
X035540Y023260D02*
X035372Y023260D01*
X036702Y023260D02*
X038100Y023260D01*
X037979Y023498D02*
X036823Y023498D01*
X036851Y023737D02*
X037951Y023737D01*
X038000Y023975D02*
X036801Y023975D01*
X036650Y024214D02*
X038151Y024214D01*
X039210Y024214D02*
X039451Y024214D01*
X039451Y023975D02*
X039361Y023975D01*
X039411Y023737D02*
X039451Y023737D01*
X039451Y023498D02*
X039383Y023498D01*
X039451Y023260D02*
X039262Y023260D01*
X039100Y022544D02*
X039451Y022544D01*
X039451Y022305D02*
X039316Y022305D01*
X039411Y022067D02*
X039451Y022067D01*
X039451Y021828D02*
X039411Y021828D01*
X039451Y021590D02*
X039330Y021590D01*
X039451Y021351D02*
X039134Y021351D01*
X029028Y027421D02*
X028901Y027294D01*
X028774Y027421D01*
X028901Y027548D01*
X029028Y027421D01*
X028922Y027315D02*
X028880Y027315D01*
X028901Y028294D02*
X029028Y028421D01*
X028901Y028548D01*
X028774Y028421D01*
X028901Y028294D01*
X028861Y028508D02*
X028941Y028508D01*
X028901Y029294D02*
X029028Y029421D01*
X028901Y029548D01*
X028774Y029421D01*
X028901Y029294D01*
X028815Y029462D02*
X028987Y029462D01*
X029023Y030416D02*
X028779Y030416D01*
X015091Y025168D02*
X012967Y025168D01*
X013018Y024929D02*
X015091Y024929D01*
X015091Y024691D02*
X012974Y024691D01*
X011901Y026294D02*
X012028Y026421D01*
X011901Y026548D01*
X011774Y026421D01*
X011901Y026294D01*
X011834Y026361D02*
X011967Y026361D01*
X011901Y027294D02*
X012028Y027421D01*
X011901Y027548D01*
X011774Y027421D01*
X011901Y027294D01*
X011880Y027315D02*
X011922Y027315D01*
X007691Y029700D02*
X007510Y029700D01*
X006691Y029700D02*
X002335Y029700D01*
X002558Y029939D02*
X006469Y029939D01*
X006371Y030177D02*
X002693Y030177D01*
X002757Y030416D02*
X006371Y030416D01*
X006449Y030654D02*
X002771Y030654D01*
X002739Y030893D02*
X006641Y030893D01*
X007332Y031132D02*
X002657Y031132D01*
X002506Y031370D02*
X007572Y031370D01*
X002365Y028031D02*
X001986Y028031D01*
X002177Y027792D02*
X002301Y027792D01*
X002285Y027553D02*
X002301Y027553D01*
X000621Y031263D02*
X000621Y031597D01*
X000951Y031597D01*
X000882Y031557D01*
X000665Y031339D01*
X000621Y031263D01*
X000621Y031370D02*
X000695Y031370D01*
X019061Y018012D02*
X019209Y018012D01*
X020192Y018012D02*
X020340Y018012D01*
X021061Y018012D02*
X021209Y018012D01*
X022192Y018012D02*
X022340Y018012D01*
X023061Y018012D02*
X023209Y018012D01*
X023181Y016819D02*
X023367Y016819D01*
X023873Y013956D02*
X021729Y013956D01*
X021759Y013927D02*
X021607Y014079D01*
X021408Y014161D01*
X021193Y014161D01*
X020995Y014079D01*
X020843Y013927D01*
X020761Y013728D01*
X020761Y013514D01*
X020843Y013315D01*
X020995Y013163D01*
X021193Y013081D01*
X021408Y013081D01*
X021607Y013163D01*
X021759Y013315D01*
X021841Y013514D01*
X021841Y013728D01*
X021759Y013927D01*
X021841Y013718D02*
X023761Y013718D01*
X023775Y013479D02*
X021827Y013479D01*
X021684Y013241D02*
X023917Y013241D01*
X023993Y011211D02*
X024008Y011211D01*
X024001Y011193D01*
X023993Y011211D01*
X024001Y010351D02*
X024041Y010253D01*
X024074Y010221D01*
X024041Y010189D01*
X024001Y010091D01*
X023960Y010189D01*
X023928Y010221D01*
X023960Y010253D01*
X024001Y010351D01*
X023981Y010140D02*
X024021Y010140D01*
X024001Y009249D02*
X024041Y009151D01*
X024143Y009050D01*
X024186Y009031D01*
X024186Y008815D01*
X023905Y009096D01*
X023960Y009151D01*
X024001Y009249D01*
X023975Y009186D02*
X024027Y009186D01*
X024054Y008947D02*
X024186Y008947D01*
X025375Y009186D02*
X025427Y009186D01*
X025401Y010091D02*
X025360Y010189D01*
X025328Y010221D01*
X025360Y010253D01*
X025401Y010351D01*
X025441Y010253D01*
X025474Y010221D01*
X025441Y010189D01*
X025401Y010091D01*
X025381Y010140D02*
X025421Y010140D01*
X025401Y011193D02*
X025408Y011211D01*
X025393Y011211D01*
X025401Y011193D01*
X022608Y011211D02*
X022601Y011193D01*
X022593Y011211D01*
X022608Y011211D01*
X022601Y010351D02*
X022641Y010253D01*
X022674Y010221D01*
X022641Y010189D01*
X022601Y010091D01*
X022560Y010189D01*
X022528Y010221D01*
X022560Y010253D01*
X022601Y010351D01*
X022581Y010140D02*
X022621Y010140D01*
X022601Y009249D02*
X022641Y009151D01*
X022661Y009131D01*
X022540Y009131D01*
X022560Y009151D01*
X022601Y009249D01*
X022575Y009186D02*
X022627Y009186D01*
X021536Y008931D02*
X020911Y008931D01*
X020911Y008995D01*
X020927Y008995D01*
X021059Y009050D01*
X021160Y009151D01*
X021201Y009249D01*
X021241Y009151D01*
X021343Y009050D01*
X021475Y008995D01*
X021509Y008995D01*
X021536Y008931D01*
X021529Y008947D02*
X020911Y008947D01*
X021175Y009186D02*
X021227Y009186D01*
X020091Y008947D02*
X019394Y008947D01*
X019183Y009186D02*
X019827Y009186D01*
X019786Y009424D02*
X018971Y009424D01*
X018760Y009663D02*
X019786Y009663D01*
X019786Y009901D02*
X018549Y009901D01*
X018337Y010140D02*
X019821Y010140D01*
X019789Y010378D02*
X018126Y010378D01*
X017915Y010617D02*
X019786Y010617D01*
X019786Y010855D02*
X017704Y010855D01*
X017492Y011094D02*
X019786Y011094D01*
X019883Y011332D02*
X017281Y011332D01*
X017070Y011571D02*
X019087Y011571D01*
X018904Y011810D02*
X016859Y011810D01*
X016711Y012048D02*
X018861Y012048D01*
X018371Y012287D02*
X016711Y012287D01*
X016711Y012525D02*
X018261Y012525D01*
X018275Y012764D02*
X016711Y012764D01*
X016711Y013002D02*
X018418Y013002D01*
X019432Y013241D02*
X016711Y013241D01*
X016711Y013479D02*
X019361Y013479D01*
X019398Y013718D02*
X016711Y013718D01*
X016711Y013956D02*
X019573Y013956D01*
X020229Y013956D02*
X020873Y013956D01*
X020761Y013718D02*
X020404Y013718D01*
X020441Y013479D02*
X020775Y013479D01*
X020917Y013241D02*
X020369Y013241D01*
X020119Y011571D02*
X019714Y011571D01*
X021193Y011211D02*
X021208Y011211D01*
X021201Y011193D01*
X021193Y011211D01*
X021873Y007511D02*
X020067Y007511D01*
X021882Y005559D01*
X021928Y005671D01*
X022029Y005772D01*
X022162Y005827D01*
X022425Y005827D01*
X022681Y005827D01*
X022937Y005827D01*
X023193Y005827D01*
X023291Y005827D01*
X023225Y005893D01*
X023163Y006044D01*
X023163Y006081D01*
X022993Y006081D01*
X022795Y006163D01*
X022643Y006315D01*
X022561Y006514D01*
X022561Y006728D01*
X022643Y006927D01*
X022651Y006935D01*
X022651Y007015D01*
X022418Y007015D01*
X022162Y007015D01*
X022029Y007069D01*
X021928Y007171D01*
X021873Y007303D01*
X021873Y007511D01*
X021884Y007277D02*
X020284Y007277D01*
X020506Y007039D02*
X022104Y007039D01*
X022591Y006800D02*
X020728Y006800D01*
X020949Y006562D02*
X022561Y006562D01*
X022640Y006323D02*
X021171Y006323D01*
X021393Y006085D02*
X022985Y006085D01*
X023272Y005846D02*
X021615Y005846D01*
X021836Y005607D02*
X021902Y005607D01*
X020111Y003781D02*
X020191Y003701D01*
X020191Y003063D01*
X020114Y003140D01*
X020111Y003141D01*
X020111Y003781D01*
X020111Y003699D02*
X020191Y003699D01*
X020191Y003461D02*
X020111Y003461D01*
X020111Y003222D02*
X020191Y003222D01*
X019291Y003222D02*
X019011Y003222D01*
X019011Y003083D02*
X019011Y003702D01*
X018948Y003853D01*
X018833Y003969D01*
X013583Y009219D01*
X013432Y009281D01*
X013269Y009281D01*
X012914Y009281D01*
X012774Y009421D01*
X012814Y009461D01*
X013431Y009461D01*
X019291Y003601D01*
X019291Y003141D01*
X019287Y003140D01*
X019151Y003003D01*
X019114Y003040D01*
X019011Y003083D01*
X019011Y003461D02*
X019291Y003461D01*
X019193Y003699D02*
X019011Y003699D01*
X018954Y003938D02*
X018864Y003938D01*
X018716Y004176D02*
X018625Y004176D01*
X018477Y004415D02*
X018387Y004415D01*
X018239Y004653D02*
X018148Y004653D01*
X018000Y004892D02*
X017910Y004892D01*
X017762Y005130D02*
X017671Y005130D01*
X017523Y005369D02*
X017433Y005369D01*
X017284Y005607D02*
X017194Y005607D01*
X017046Y005846D02*
X016956Y005846D01*
X016807Y006085D02*
X016717Y006085D01*
X016569Y006323D02*
X016478Y006323D01*
X016330Y006562D02*
X016240Y006562D01*
X016092Y006800D02*
X016001Y006800D01*
X015853Y007039D02*
X015763Y007039D01*
X015615Y007277D02*
X015524Y007277D01*
X015376Y007516D02*
X015286Y007516D01*
X015138Y007754D02*
X015047Y007754D01*
X014899Y007993D02*
X014809Y007993D01*
X014660Y008231D02*
X014570Y008231D01*
X014422Y008470D02*
X014332Y008470D01*
X014183Y008709D02*
X014093Y008709D01*
X013945Y008947D02*
X013854Y008947D01*
X013706Y009186D02*
X013616Y009186D01*
X013468Y009424D02*
X012777Y009424D01*
X012028Y009421D02*
X011901Y009294D01*
X011774Y009421D01*
X011901Y009548D01*
X012028Y009421D01*
X012024Y009424D02*
X011777Y009424D01*
X011028Y009421D02*
X010938Y009331D01*
X010819Y009331D01*
X010811Y009327D01*
X010811Y009351D01*
X010954Y009494D01*
X011028Y009421D01*
X011024Y009424D02*
X010884Y009424D01*
X011774Y010421D02*
X011901Y010294D01*
X012028Y010421D01*
X011901Y010548D01*
X011774Y010421D01*
X011817Y010378D02*
X011985Y010378D01*
X012774Y010421D02*
X012814Y010461D01*
X013431Y010461D01*
X013611Y010281D01*
X013519Y010281D01*
X012914Y010281D01*
X012774Y010421D01*
X012817Y010378D02*
X013514Y010378D01*
X012028Y011421D02*
X011901Y011294D01*
X011774Y011421D01*
X011901Y011548D01*
X012028Y011421D01*
X011939Y011332D02*
X011862Y011332D01*
X011901Y012294D02*
X012028Y012421D01*
X011901Y012548D01*
X011774Y012421D01*
X011901Y012294D01*
X011878Y012525D02*
X011923Y012525D01*
X007268Y009721D02*
X007178Y009631D01*
X007171Y009631D01*
X006970Y009831D01*
X007019Y009811D01*
X007178Y009811D01*
X007268Y009721D01*
X007210Y009663D02*
X007139Y009663D01*
X006511Y009131D02*
X006653Y008989D01*
X006769Y008873D01*
X006919Y008811D01*
X007178Y008811D01*
X007268Y008721D01*
X007178Y008631D01*
X006671Y008631D01*
X006511Y008791D01*
X006511Y009131D01*
X006511Y008947D02*
X006695Y008947D01*
X006593Y008709D02*
X007256Y008709D01*
X008128Y007516D02*
X008474Y007516D01*
X011011Y008404D02*
X011011Y008438D01*
X011028Y008421D01*
X011011Y008404D01*
X011774Y008421D02*
X011901Y008294D01*
X012028Y008421D01*
X011901Y008548D01*
X011774Y008421D01*
X011823Y008470D02*
X011979Y008470D01*
X012774Y008421D02*
X012814Y008461D01*
X013181Y008461D01*
X013361Y008281D01*
X013269Y008281D01*
X012914Y008281D01*
X012774Y008421D01*
X012814Y007461D02*
X013181Y007461D01*
X013611Y007031D01*
X013018Y007031D01*
X013018Y007044D01*
X012924Y007271D01*
X012774Y007421D01*
X012814Y007461D01*
X012918Y007277D02*
X013365Y007277D01*
X013603Y007039D02*
X013018Y007039D01*
X012028Y007421D02*
X011901Y007294D01*
X011774Y007421D01*
X011901Y007548D01*
X012028Y007421D01*
X011933Y007516D02*
X011869Y007516D01*
X013018Y005911D02*
X013231Y005911D01*
X014161Y004981D01*
X014161Y004914D01*
X014243Y004715D01*
X014395Y004563D01*
X014593Y004481D01*
X014808Y004481D01*
X015007Y004563D01*
X015159Y004715D01*
X015241Y004914D01*
X015241Y005128D01*
X015159Y005327D01*
X015064Y005421D01*
X015143Y005499D01*
X017191Y003451D01*
X017191Y003043D01*
X017151Y003003D01*
X017114Y003040D01*
X016846Y003151D01*
X016556Y003151D01*
X016287Y003040D01*
X016251Y003003D01*
X016114Y003140D01*
X015846Y003251D01*
X015556Y003251D01*
X015287Y003140D01*
X015082Y002934D01*
X014971Y002666D01*
X014971Y002376D01*
X015031Y002231D01*
X011571Y002231D01*
X011441Y002361D01*
X011441Y002528D01*
X011359Y002727D01*
X011207Y002879D01*
X011017Y002957D01*
X011148Y003089D01*
X011211Y003239D01*
X011211Y003402D01*
X011211Y005331D01*
X011278Y005303D01*
X011524Y005303D01*
X011751Y005397D01*
X011831Y005478D01*
X011838Y005460D01*
X011939Y005358D01*
X012072Y005303D01*
X012730Y005303D01*
X012862Y005358D01*
X012963Y005460D01*
X013018Y005592D01*
X013018Y005911D01*
X013018Y005846D02*
X013296Y005846D01*
X013534Y005607D02*
X013018Y005607D01*
X012873Y005369D02*
X013773Y005369D01*
X014012Y005130D02*
X011211Y005130D01*
X011211Y004892D02*
X014170Y004892D01*
X014305Y004653D02*
X011211Y004653D01*
X011211Y004415D02*
X016227Y004415D01*
X015989Y004653D02*
X015097Y004653D01*
X015232Y004892D02*
X015750Y004892D01*
X015512Y005130D02*
X015240Y005130D01*
X015273Y005369D02*
X015116Y005369D01*
X016466Y004176D02*
X011211Y004176D01*
X011211Y003938D02*
X016704Y003938D01*
X016943Y003699D02*
X011211Y003699D01*
X011211Y003461D02*
X017181Y003461D01*
X017191Y003222D02*
X015916Y003222D01*
X015486Y003222D02*
X011204Y003222D01*
X011043Y002983D02*
X015131Y002983D01*
X015003Y002745D02*
X011340Y002745D01*
X011441Y002506D02*
X014971Y002506D01*
X015015Y002268D02*
X011534Y002268D01*
X011090Y001552D02*
X002090Y001552D01*
X000621Y001075D02*
X039451Y001075D01*
X039451Y000837D02*
X000621Y000837D01*
X000621Y003461D02*
X000786Y003461D01*
X000621Y003699D02*
X001128Y003699D01*
X011682Y005369D02*
X011929Y005369D01*
X016412Y001552D02*
X016990Y001552D01*
X018011Y003183D02*
X018011Y003631D01*
X018191Y003451D01*
X018191Y003063D01*
X018114Y003140D01*
X018011Y003183D01*
X018011Y003222D02*
X018191Y003222D01*
X018181Y003461D02*
X018011Y003461D01*
X021171Y002983D02*
X022231Y002983D01*
X022103Y002745D02*
X021357Y002745D01*
X021431Y002506D02*
X022071Y002506D01*
X022115Y002268D02*
X021427Y002268D01*
X027228Y006421D02*
X027260Y006453D01*
X027315Y006586D01*
X027315Y006911D01*
X027783Y006911D01*
X027783Y006798D01*
X027877Y006571D01*
X028028Y006421D01*
X027938Y006331D01*
X027284Y006331D01*
X027260Y006389D01*
X027228Y006421D01*
X027305Y006562D02*
X027887Y006562D01*
X027783Y006800D02*
X027315Y006800D01*
X027741Y007931D02*
X027741Y007994D01*
X027783Y008012D01*
X027783Y007931D01*
X027741Y007931D01*
X027741Y007993D02*
X027783Y007993D01*
X028901Y006548D02*
X028957Y006491D01*
X028939Y006484D01*
X028838Y006382D01*
X028831Y006364D01*
X028774Y006421D01*
X028901Y006548D01*
X032811Y003681D02*
X032908Y003681D01*
X032991Y003715D01*
X032991Y003141D01*
X032987Y003140D01*
X032901Y003053D01*
X032814Y003140D01*
X032811Y003141D01*
X032811Y003681D01*
X032952Y003699D02*
X032991Y003699D01*
X032991Y003461D02*
X032811Y003461D01*
X032811Y003222D02*
X032991Y003222D01*
X033811Y003699D02*
X033999Y003699D01*
X033811Y003938D02*
X034238Y003938D01*
X034476Y004176D02*
X033811Y004176D01*
X033764Y004415D02*
X034715Y004415D01*
X034953Y004653D02*
X033548Y004653D01*
X033310Y004892D02*
X035192Y004892D01*
X035430Y005130D02*
X033071Y005130D01*
X034920Y003461D02*
X037286Y003461D01*
X037628Y003699D02*
X035159Y003699D01*
X035874Y004415D02*
X037525Y004415D01*
X031991Y003222D02*
X031616Y003222D01*
X031186Y003222D02*
X030912Y003222D01*
D23*
X035901Y002621D03*
X037501Y021021D03*
X023401Y022921D03*
M02*
