%
M48
M72
T01C0.0200
T02C0.0236
T03C0.0315
T04C0.0320
T05C0.0354
T06C0.0400
T07C0.0551
T08C0.1181
T09C0.1300
%
T01
X4001Y2421
X5101Y6321
X2101Y6321
X4101Y11121
X5301Y11821
X4101Y13321
X5301Y14021
X7801Y15021
X8601Y13021
X14301Y14321
X15101Y15521
X16301Y15421
X15501Y16721
X14701Y16821
X15101Y18421
X16301Y18421
X15501Y19821
X14701Y20921
X16801Y22821
X20601Y23021
X20301Y27321
X23401Y27421
X16901Y27321
X30901Y23021
X31801Y24721
X38201Y28521
X35101Y17821
X34401Y17421
X34401Y16321
X35101Y15721
X34101Y14021
X32801Y13221
X32101Y13721
X27601Y12621
X27001Y12021
X26401Y13621
X24301Y13621
X21301Y13621
X19901Y13521
X18801Y12621
X19401Y12021
X23301Y8121
X23101Y6621
X24101Y6621
X25001Y6621
X26501Y8121
X27201Y8021
X27601Y8521
X31501Y5421
X32801Y4221
X32501Y7521
X34201Y8521
X37601Y11921
X28601Y4921
X14701Y5021
X14701Y5821
X10901Y2421
X1301Y20421
T02
X23401Y22921
X37501Y21021
X35901Y2621
T03
X29401Y5921
X29401Y6921
X29401Y7921
X29401Y8921
X29401Y9921
X29401Y10921
X29401Y11921
X28401Y11921
X28401Y10921
X28401Y9921
X28401Y8921
X28401Y7921
X28401Y6921
X28401Y5921
X28401Y12921
X29401Y12921
X29401Y13921
X29401Y14921
X29401Y15921
X29401Y16921
X29401Y17921
X29401Y18921
X29401Y19921
X29401Y20921
X28401Y20921
X28401Y19921
X28401Y18921
X28401Y17921
X28401Y16921
X28401Y15921
X28401Y14921
X28401Y13921
X28401Y21921
X29401Y21921
X29401Y22921
X29401Y23921
X29401Y24921
X29401Y25921
X29401Y26921
X29401Y27921
X29401Y28921
X29401Y29921
X28401Y29921
X28401Y28921
X28401Y27921
X28401Y26921
X28401Y25921
X28401Y24921
X28401Y23921
X28401Y22921
X12401Y22921
X11401Y22921
X11401Y23921
X12401Y23921
X12401Y24921
X11401Y24921
X11401Y25921
X12401Y25921
X12401Y26921
X11401Y26921
X11401Y27921
X12401Y27921
X12401Y28921
X11401Y28921
X11401Y29921
X12401Y29921
X12401Y21921
X11401Y21921
X11401Y20921
X12401Y20921
X12401Y19921
X11401Y19921
X11401Y18921
X12401Y18921
X12401Y17921
X11401Y17921
X11401Y16921
X12401Y16921
X12401Y15921
X11401Y15921
X11401Y14921
X12401Y14921
X12401Y13921
X11401Y13921
X11401Y12921
X12401Y12921
X12401Y11921
X11401Y11921
X11401Y10921
X12401Y10921
X12401Y9921
X11401Y9921
X11401Y8921
X12401Y8921
X12401Y7921
X11401Y7921
X11401Y6921
X12401Y6921
X12401Y5921
X11401Y5921
T04
X3201Y22121
X2201Y22121
X31801Y20921
X31801Y19921
X34151Y19921
X34151Y20921
X38051Y5921
X37301Y5421
X38051Y4921
T05
X37401Y16805
X37401Y18537
T06
X33301Y17741
X33301Y16601
X36121Y21931
X36121Y23711
X38681Y23711
X38681Y21931
X23701Y17471
X22701Y17371
X21701Y17471
X20701Y17371
X19701Y17471
X18701Y17371
X17701Y17471
X8801Y11221
X7801Y11221
X7801Y10221
X8801Y10221
X8801Y9221
X7801Y9221
X7801Y8221
X8801Y8221
X8801Y5521
X7801Y5521
X7801Y4521
X8801Y4521
X8801Y3521
X7801Y3521
X7801Y2521
X8801Y2521
X15701Y2521
X16701Y2421
X17701Y2521
X18701Y2421
X19701Y2521
X20701Y2421
X22801Y2521
X23801Y2421
X24801Y2521
X25801Y2421
X26801Y2521
X27801Y2421
X30401Y2521
X31401Y2521
X32401Y2521
X33401Y2521
X35131Y7721
X36271Y7721
X37201Y9621
X36201Y9721
X35201Y9621
X34201Y9721
X33201Y9621
X32201Y9721
X7201Y18671
X6201Y18571
X5201Y18671
X4201Y18571
X3201Y18671
X5201Y19621
X5201Y20621
X5201Y17621
X5201Y16621
X2251Y13521
X2151Y12521
X2251Y11521
X2151Y10521
X7101Y30321
X8101Y30321
X9101Y30321
T07
X4728Y27404
X3074Y27404
X3074Y25238
X4728Y25238
T08
X6578Y27223
X1224Y27223
T09
X1601Y2621
X1601Y30621
X38101Y30621
X38101Y2621
M30
