G75*
G70*
%OFA0B0*%
%FSLAX24Y24*%
%IPPOS*%
%LPD*%
%AMOC8*
5,1,8,0,0,1.08239X$1,22.5*
%
%ADD10R,0.0591X0.0984*%
%ADD11R,0.0860X0.0420*%
%ADD12R,0.0787X0.0984*%
%ADD13R,0.0512X0.0433*%
%ADD14R,0.0472X0.0591*%
%ADD15R,0.0630X0.0709*%
%ADD16R,0.0137X0.0550*%
%ADD17R,0.0984X0.0197*%
%ADD18R,0.0984X0.0787*%
%ADD19R,0.0551X0.0630*%
%ADD20R,0.0709X0.0630*%
D10*
X014931Y027971D03*
X025758Y028729D03*
D11*
X025790Y027863D03*
X025790Y023926D03*
D12*
X026113Y021878D03*
X014577Y021878D03*
D13*
X025301Y019891D03*
D14*
X024431Y019961D03*
X023766Y019969D03*
X022813Y019969D03*
X021829Y019969D03*
X020845Y019969D03*
X019861Y019969D03*
X018876Y019969D03*
X017892Y019969D03*
X016908Y019969D03*
D15*
X004750Y013321D03*
X005852Y013321D03*
X005852Y014621D03*
X004750Y014621D03*
X005950Y023221D03*
X007052Y023221D03*
X007400Y024721D03*
X008502Y024721D03*
X008652Y026071D03*
X007550Y026071D03*
X008850Y027821D03*
X009952Y027821D03*
X018610Y015541D03*
X019712Y015541D03*
X021837Y015572D03*
X022940Y015572D03*
X025068Y015596D03*
X026171Y015596D03*
X036900Y012821D03*
X038002Y012821D03*
D16*
X034614Y012282D03*
X034358Y012282D03*
X034102Y012282D03*
X033846Y012282D03*
X033591Y012282D03*
X033335Y012282D03*
X033079Y012282D03*
X032823Y012282D03*
X032567Y012282D03*
X032311Y012282D03*
X032055Y012282D03*
X031799Y012282D03*
X031543Y012282D03*
X031287Y012282D03*
X031287Y015160D03*
X031543Y015160D03*
X031799Y015160D03*
X032055Y015160D03*
X032311Y015160D03*
X032567Y015160D03*
X032823Y015160D03*
X033079Y015160D03*
X033335Y015160D03*
X033591Y015160D03*
X033846Y015160D03*
X034102Y015160D03*
X034358Y015160D03*
X034614Y015160D03*
D17*
X036417Y017041D03*
X036417Y017356D03*
X036417Y017671D03*
X036417Y017986D03*
X036417Y018301D03*
D18*
X036417Y019443D03*
X038582Y019443D03*
X038582Y015899D03*
X036417Y015899D03*
D19*
X036900Y014321D03*
X038002Y014321D03*
D20*
X034051Y022020D03*
X034051Y023122D03*
X031801Y023172D03*
X031801Y022070D03*
M02*
