G75*
G70*
%OFA0B0*%
%FSLAX24Y24*%
%IPPOS*%
%LPD*%
%AMOC8*
5,1,8,0,0,1.08239X$1,22.5*
%
%ADD10R,0.0671X0.1064*%
%ADD11R,0.0940X0.0500*%
%ADD12R,0.0867X0.1064*%
%ADD13R,0.0592X0.0513*%
%ADD14R,0.0552X0.0671*%
%ADD15C,0.0820*%
%ADD16R,0.0710X0.0789*%
%ADD17R,0.0820X0.0820*%
%ADD18C,0.1380*%
%ADD19OC8,0.0820*%
%ADD20R,0.0595X0.0595*%
%ADD21C,0.0595*%
%ADD22R,0.0907X0.0907*%
%ADD23C,0.1261*%
%ADD24R,0.0217X0.0630*%
%ADD25R,0.1064X0.0277*%
%ADD26R,0.1064X0.0867*%
%ADD27C,0.0161*%
%ADD28R,0.0631X0.0710*%
%ADD29R,0.0789X0.0710*%
%ADD30C,0.0440*%
%ADD31C,0.0476*%
D10*
X014931Y027971D03*
X025758Y028729D03*
D11*
X025790Y027863D03*
X025790Y023926D03*
D12*
X026113Y021878D03*
X014577Y021878D03*
D13*
X025301Y019891D03*
D14*
X024431Y019961D03*
X023766Y019969D03*
X022813Y019969D03*
X021829Y019969D03*
X020845Y019969D03*
X019861Y019969D03*
X018876Y019969D03*
X017892Y019969D03*
X016908Y019969D03*
D15*
X017701Y017471D03*
X018701Y017371D03*
X019701Y017471D03*
X020701Y017371D03*
X021701Y017471D03*
X022701Y017371D03*
X023701Y017471D03*
X031801Y019921D03*
X031801Y020921D03*
X034151Y020921D03*
X034151Y019921D03*
X033301Y017741D03*
X033301Y016601D03*
X036121Y021931D03*
X036121Y023711D03*
X038681Y023711D03*
X038681Y021931D03*
X036201Y009721D03*
X037201Y009621D03*
X035201Y009621D03*
X034201Y009721D03*
X033201Y009621D03*
X032201Y009721D03*
X035131Y007721D03*
X036271Y007721D03*
X038051Y005921D03*
X037301Y005421D03*
X038051Y004921D03*
X033401Y002521D03*
X032401Y002521D03*
X031401Y002521D03*
X027801Y002421D03*
X026801Y002521D03*
X025801Y002421D03*
X024801Y002521D03*
X023801Y002421D03*
X022801Y002521D03*
X020701Y002421D03*
X019701Y002521D03*
X018701Y002421D03*
X017701Y002521D03*
X016701Y002421D03*
X015701Y002521D03*
X002151Y010521D03*
X002251Y011521D03*
X002151Y012521D03*
X005201Y016621D03*
X005201Y017621D03*
X005201Y018671D03*
X004201Y018571D03*
X003201Y018671D03*
X005201Y019621D03*
X005201Y020621D03*
X003201Y022121D03*
X002201Y022121D03*
X006201Y018571D03*
X007201Y018671D03*
X007101Y030321D03*
X008101Y030321D03*
D16*
X008850Y027821D03*
X009952Y027821D03*
X008652Y026071D03*
X007550Y026071D03*
X007400Y024721D03*
X008502Y024721D03*
X007052Y023221D03*
X005950Y023221D03*
X005852Y014621D03*
X004750Y014621D03*
X004750Y013321D03*
X005852Y013321D03*
X018610Y015541D03*
X019712Y015541D03*
X021837Y015572D03*
X022940Y015572D03*
X025068Y015596D03*
X026171Y015596D03*
X036900Y012821D03*
X038002Y012821D03*
D17*
X030401Y002521D03*
X002251Y013521D03*
X009101Y030321D03*
D18*
X001601Y002621D03*
X001601Y030621D03*
X038101Y030621D03*
X038101Y002621D03*
D19*
X008801Y002521D03*
X007801Y002521D03*
X007801Y003521D03*
X008801Y003521D03*
X008801Y004521D03*
X007801Y004521D03*
X007801Y005521D03*
X008801Y005521D03*
X008801Y008221D03*
X007801Y008221D03*
X007801Y009221D03*
X008801Y009221D03*
X008801Y010221D03*
X007801Y010221D03*
X007801Y011221D03*
X008801Y011221D03*
D20*
X012401Y005921D03*
X029401Y005921D03*
D21*
X029401Y006921D03*
X029401Y007921D03*
X029401Y008921D03*
X029401Y009921D03*
X029401Y010921D03*
X029401Y011921D03*
X028401Y011921D03*
X028401Y010921D03*
X028401Y009921D03*
X028401Y008921D03*
X028401Y007921D03*
X028401Y006921D03*
X028401Y005921D03*
X028401Y012921D03*
X029401Y012921D03*
X029401Y013921D03*
X029401Y014921D03*
X029401Y015921D03*
X029401Y016921D03*
X029401Y017921D03*
X029401Y018921D03*
X029401Y019921D03*
X029401Y020921D03*
X028401Y020921D03*
X028401Y019921D03*
X028401Y018921D03*
X028401Y017921D03*
X028401Y016921D03*
X028401Y015921D03*
X028401Y014921D03*
X028401Y013921D03*
X028401Y021921D03*
X029401Y021921D03*
X029401Y022921D03*
X029401Y023921D03*
X029401Y024921D03*
X029401Y025921D03*
X029401Y026921D03*
X029401Y027921D03*
X029401Y028921D03*
X029401Y029921D03*
X028401Y029921D03*
X028401Y028921D03*
X028401Y027921D03*
X028401Y026921D03*
X028401Y025921D03*
X028401Y024921D03*
X028401Y023921D03*
X028401Y022921D03*
X012401Y022921D03*
X011401Y022921D03*
X011401Y023921D03*
X012401Y023921D03*
X012401Y024921D03*
X011401Y024921D03*
X011401Y025921D03*
X012401Y025921D03*
X012401Y026921D03*
X011401Y026921D03*
X011401Y027921D03*
X012401Y027921D03*
X012401Y028921D03*
X011401Y028921D03*
X011401Y029921D03*
X012401Y029921D03*
X012401Y021921D03*
X011401Y021921D03*
X011401Y020921D03*
X012401Y020921D03*
X012401Y019921D03*
X011401Y019921D03*
X011401Y018921D03*
X012401Y018921D03*
X012401Y017921D03*
X011401Y017921D03*
X011401Y016921D03*
X012401Y016921D03*
X012401Y015921D03*
X011401Y015921D03*
X011401Y014921D03*
X012401Y014921D03*
X012401Y013921D03*
X011401Y013921D03*
X011401Y012921D03*
X012401Y012921D03*
X012401Y011921D03*
X011401Y011921D03*
X011401Y010921D03*
X012401Y010921D03*
X012401Y009921D03*
X011401Y009921D03*
X011401Y008921D03*
X012401Y008921D03*
X012401Y007921D03*
X011401Y007921D03*
X011401Y006921D03*
X012401Y006921D03*
X011401Y005921D03*
D22*
X004728Y025238D03*
X003074Y025238D03*
X003074Y027404D03*
X004728Y027404D03*
D23*
X006578Y027223D03*
X001224Y027223D03*
D24*
X031287Y015160D03*
X031543Y015160D03*
X031799Y015160D03*
X032055Y015160D03*
X032311Y015160D03*
X032567Y015160D03*
X032823Y015160D03*
X033079Y015160D03*
X033335Y015160D03*
X033591Y015160D03*
X033846Y015160D03*
X034102Y015160D03*
X034358Y015160D03*
X034614Y015160D03*
X034614Y012282D03*
X034358Y012282D03*
X034102Y012282D03*
X033846Y012282D03*
X033591Y012282D03*
X033335Y012282D03*
X033079Y012282D03*
X032823Y012282D03*
X032567Y012282D03*
X032311Y012282D03*
X032055Y012282D03*
X031799Y012282D03*
X031543Y012282D03*
X031287Y012282D03*
D25*
X036417Y017041D03*
X036417Y017356D03*
X036417Y017671D03*
X036417Y017986D03*
X036417Y018301D03*
D26*
X036417Y019443D03*
X038582Y019443D03*
X038582Y015899D03*
X036417Y015899D03*
D27*
X037263Y016805D02*
X037265Y016828D01*
X037271Y016851D01*
X037281Y016872D01*
X037294Y016892D01*
X037310Y016909D01*
X037329Y016923D01*
X037350Y016933D01*
X037372Y016940D01*
X037395Y016943D01*
X037419Y016942D01*
X037441Y016937D01*
X037463Y016928D01*
X037483Y016916D01*
X037501Y016900D01*
X037515Y016882D01*
X037527Y016862D01*
X037535Y016840D01*
X037539Y016817D01*
X037539Y016793D01*
X037535Y016770D01*
X037527Y016748D01*
X037515Y016728D01*
X037501Y016710D01*
X037483Y016694D01*
X037463Y016682D01*
X037441Y016673D01*
X037419Y016668D01*
X037395Y016667D01*
X037372Y016670D01*
X037350Y016677D01*
X037329Y016687D01*
X037310Y016701D01*
X037294Y016718D01*
X037281Y016738D01*
X037271Y016759D01*
X037265Y016782D01*
X037263Y016805D01*
X037263Y018537D02*
X037265Y018560D01*
X037271Y018583D01*
X037281Y018604D01*
X037294Y018624D01*
X037310Y018641D01*
X037329Y018655D01*
X037350Y018665D01*
X037372Y018672D01*
X037395Y018675D01*
X037419Y018674D01*
X037441Y018669D01*
X037463Y018660D01*
X037483Y018648D01*
X037501Y018632D01*
X037515Y018614D01*
X037527Y018594D01*
X037535Y018572D01*
X037539Y018549D01*
X037539Y018525D01*
X037535Y018502D01*
X037527Y018480D01*
X037515Y018460D01*
X037501Y018442D01*
X037483Y018426D01*
X037463Y018414D01*
X037441Y018405D01*
X037419Y018400D01*
X037395Y018399D01*
X037372Y018402D01*
X037350Y018409D01*
X037329Y018419D01*
X037310Y018433D01*
X037294Y018450D01*
X037281Y018470D01*
X037271Y018491D01*
X037265Y018514D01*
X037263Y018537D01*
D28*
X036900Y014321D03*
X038002Y014321D03*
D29*
X034051Y022020D03*
X034051Y023122D03*
X031801Y023172D03*
X031801Y022070D03*
D30*
X030901Y023021D03*
X031801Y024721D03*
X038201Y028521D03*
X035101Y017821D03*
X034401Y017421D03*
X034401Y016321D03*
X035101Y015721D03*
X034101Y014021D03*
X032801Y013221D03*
X032101Y013721D03*
X027601Y012621D03*
X027001Y012021D03*
X026401Y013621D03*
X024301Y013621D03*
X021301Y013621D03*
X019901Y013521D03*
X018801Y012621D03*
X019401Y012021D03*
X016301Y015421D03*
X015101Y015521D03*
X015501Y016721D03*
X014701Y016821D03*
X015101Y018421D03*
X016301Y018421D03*
X015501Y019821D03*
X014701Y020921D03*
X016801Y022821D03*
X020601Y023021D03*
X020301Y027321D03*
X023401Y027421D03*
X016901Y027321D03*
X007801Y015021D03*
X008601Y013021D03*
X005301Y014021D03*
X004101Y013321D03*
X005301Y011821D03*
X004101Y011121D03*
X005101Y006321D03*
X002101Y006321D03*
X004001Y002421D03*
X010901Y002421D03*
X014701Y005021D03*
X014701Y005821D03*
X023101Y006621D03*
X024101Y006621D03*
X025001Y006621D03*
X026501Y008121D03*
X027201Y008021D03*
X027601Y008521D03*
X023301Y008121D03*
X028601Y004921D03*
X031501Y005421D03*
X032801Y004221D03*
X032501Y007521D03*
X034201Y008521D03*
X037601Y011921D03*
X014301Y014321D03*
X001301Y020421D03*
D31*
X023401Y022921D03*
X037501Y021021D03*
X035901Y002621D03*
M02*
