G75*
G70*
%OFA0B0*%
%FSLAX24Y24*%
%IPPOS*%
%LPD*%
%AMOC8*
5,1,8,0,0,1.08239X$1,22.5*
%
%ADD10C,0.0000*%
%ADD11C,0.0030*%
%ADD12C,0.0020*%
%ADD13C,0.0080*%
%ADD14C,0.0050*%
%ADD15C,0.0040*%
%ADD16C,0.0060*%
%ADD17C,0.0100*%
%ADD18C,0.0010*%
D10*
X000101Y000121D02*
X000101Y032117D01*
X039971Y032117D01*
X039971Y000121D01*
X000101Y000121D01*
X000951Y002621D02*
X000953Y002671D01*
X000959Y002721D01*
X000969Y002771D01*
X000982Y002819D01*
X000999Y002867D01*
X001020Y002913D01*
X001044Y002957D01*
X001072Y002999D01*
X001103Y003039D01*
X001137Y003076D01*
X001174Y003111D01*
X001213Y003142D01*
X001254Y003171D01*
X001298Y003196D01*
X001344Y003218D01*
X001391Y003236D01*
X001439Y003250D01*
X001488Y003261D01*
X001538Y003268D01*
X001588Y003271D01*
X001639Y003270D01*
X001689Y003265D01*
X001739Y003256D01*
X001787Y003244D01*
X001835Y003227D01*
X001881Y003207D01*
X001926Y003184D01*
X001969Y003157D01*
X002009Y003127D01*
X002047Y003094D01*
X002082Y003058D01*
X002115Y003019D01*
X002144Y002978D01*
X002170Y002935D01*
X002193Y002890D01*
X002212Y002843D01*
X002227Y002795D01*
X002239Y002746D01*
X002247Y002696D01*
X002251Y002646D01*
X002251Y002596D01*
X002247Y002546D01*
X002239Y002496D01*
X002227Y002447D01*
X002212Y002399D01*
X002193Y002352D01*
X002170Y002307D01*
X002144Y002264D01*
X002115Y002223D01*
X002082Y002184D01*
X002047Y002148D01*
X002009Y002115D01*
X001969Y002085D01*
X001926Y002058D01*
X001881Y002035D01*
X001835Y002015D01*
X001787Y001998D01*
X001739Y001986D01*
X001689Y001977D01*
X001639Y001972D01*
X001588Y001971D01*
X001538Y001974D01*
X001488Y001981D01*
X001439Y001992D01*
X001391Y002006D01*
X001344Y002024D01*
X001298Y002046D01*
X001254Y002071D01*
X001213Y002100D01*
X001174Y002131D01*
X001137Y002166D01*
X001103Y002203D01*
X001072Y002243D01*
X001044Y002285D01*
X001020Y002329D01*
X000999Y002375D01*
X000982Y002423D01*
X000969Y002471D01*
X000959Y002521D01*
X000953Y002571D01*
X000951Y002621D01*
X000633Y027223D02*
X000635Y027271D01*
X000641Y027319D01*
X000651Y027366D01*
X000664Y027412D01*
X000682Y027457D01*
X000702Y027501D01*
X000727Y027543D01*
X000755Y027582D01*
X000785Y027619D01*
X000819Y027653D01*
X000856Y027685D01*
X000894Y027714D01*
X000935Y027739D01*
X000978Y027761D01*
X001023Y027779D01*
X001069Y027793D01*
X001116Y027804D01*
X001164Y027811D01*
X001212Y027814D01*
X001260Y027813D01*
X001308Y027808D01*
X001356Y027799D01*
X001402Y027787D01*
X001447Y027770D01*
X001491Y027750D01*
X001533Y027727D01*
X001573Y027700D01*
X001611Y027670D01*
X001646Y027637D01*
X001678Y027601D01*
X001708Y027563D01*
X001734Y027522D01*
X001756Y027479D01*
X001776Y027435D01*
X001791Y027390D01*
X001803Y027343D01*
X001811Y027295D01*
X001815Y027247D01*
X001815Y027199D01*
X001811Y027151D01*
X001803Y027103D01*
X001791Y027056D01*
X001776Y027011D01*
X001756Y026967D01*
X001734Y026924D01*
X001708Y026883D01*
X001678Y026845D01*
X001646Y026809D01*
X001611Y026776D01*
X001573Y026746D01*
X001533Y026719D01*
X001491Y026696D01*
X001447Y026676D01*
X001402Y026659D01*
X001356Y026647D01*
X001308Y026638D01*
X001260Y026633D01*
X001212Y026632D01*
X001164Y026635D01*
X001116Y026642D01*
X001069Y026653D01*
X001023Y026667D01*
X000978Y026685D01*
X000935Y026707D01*
X000894Y026732D01*
X000856Y026761D01*
X000819Y026793D01*
X000785Y026827D01*
X000755Y026864D01*
X000727Y026903D01*
X000702Y026945D01*
X000682Y026989D01*
X000664Y027034D01*
X000651Y027080D01*
X000641Y027127D01*
X000635Y027175D01*
X000633Y027223D01*
X000951Y030621D02*
X000953Y030671D01*
X000959Y030721D01*
X000969Y030771D01*
X000982Y030819D01*
X000999Y030867D01*
X001020Y030913D01*
X001044Y030957D01*
X001072Y030999D01*
X001103Y031039D01*
X001137Y031076D01*
X001174Y031111D01*
X001213Y031142D01*
X001254Y031171D01*
X001298Y031196D01*
X001344Y031218D01*
X001391Y031236D01*
X001439Y031250D01*
X001488Y031261D01*
X001538Y031268D01*
X001588Y031271D01*
X001639Y031270D01*
X001689Y031265D01*
X001739Y031256D01*
X001787Y031244D01*
X001835Y031227D01*
X001881Y031207D01*
X001926Y031184D01*
X001969Y031157D01*
X002009Y031127D01*
X002047Y031094D01*
X002082Y031058D01*
X002115Y031019D01*
X002144Y030978D01*
X002170Y030935D01*
X002193Y030890D01*
X002212Y030843D01*
X002227Y030795D01*
X002239Y030746D01*
X002247Y030696D01*
X002251Y030646D01*
X002251Y030596D01*
X002247Y030546D01*
X002239Y030496D01*
X002227Y030447D01*
X002212Y030399D01*
X002193Y030352D01*
X002170Y030307D01*
X002144Y030264D01*
X002115Y030223D01*
X002082Y030184D01*
X002047Y030148D01*
X002009Y030115D01*
X001969Y030085D01*
X001926Y030058D01*
X001881Y030035D01*
X001835Y030015D01*
X001787Y029998D01*
X001739Y029986D01*
X001689Y029977D01*
X001639Y029972D01*
X001588Y029971D01*
X001538Y029974D01*
X001488Y029981D01*
X001439Y029992D01*
X001391Y030006D01*
X001344Y030024D01*
X001298Y030046D01*
X001254Y030071D01*
X001213Y030100D01*
X001174Y030131D01*
X001137Y030166D01*
X001103Y030203D01*
X001072Y030243D01*
X001044Y030285D01*
X001020Y030329D01*
X000999Y030375D01*
X000982Y030423D01*
X000969Y030471D01*
X000959Y030521D01*
X000953Y030571D01*
X000951Y030621D01*
X005987Y027223D02*
X005989Y027271D01*
X005995Y027319D01*
X006005Y027366D01*
X006018Y027412D01*
X006036Y027457D01*
X006056Y027501D01*
X006081Y027543D01*
X006109Y027582D01*
X006139Y027619D01*
X006173Y027653D01*
X006210Y027685D01*
X006248Y027714D01*
X006289Y027739D01*
X006332Y027761D01*
X006377Y027779D01*
X006423Y027793D01*
X006470Y027804D01*
X006518Y027811D01*
X006566Y027814D01*
X006614Y027813D01*
X006662Y027808D01*
X006710Y027799D01*
X006756Y027787D01*
X006801Y027770D01*
X006845Y027750D01*
X006887Y027727D01*
X006927Y027700D01*
X006965Y027670D01*
X007000Y027637D01*
X007032Y027601D01*
X007062Y027563D01*
X007088Y027522D01*
X007110Y027479D01*
X007130Y027435D01*
X007145Y027390D01*
X007157Y027343D01*
X007165Y027295D01*
X007169Y027247D01*
X007169Y027199D01*
X007165Y027151D01*
X007157Y027103D01*
X007145Y027056D01*
X007130Y027011D01*
X007110Y026967D01*
X007088Y026924D01*
X007062Y026883D01*
X007032Y026845D01*
X007000Y026809D01*
X006965Y026776D01*
X006927Y026746D01*
X006887Y026719D01*
X006845Y026696D01*
X006801Y026676D01*
X006756Y026659D01*
X006710Y026647D01*
X006662Y026638D01*
X006614Y026633D01*
X006566Y026632D01*
X006518Y026635D01*
X006470Y026642D01*
X006423Y026653D01*
X006377Y026667D01*
X006332Y026685D01*
X006289Y026707D01*
X006248Y026732D01*
X006210Y026761D01*
X006173Y026793D01*
X006139Y026827D01*
X006109Y026864D01*
X006081Y026903D01*
X006056Y026945D01*
X006036Y026989D01*
X006018Y027034D01*
X006005Y027080D01*
X005995Y027127D01*
X005989Y027175D01*
X005987Y027223D01*
X037451Y030621D02*
X037453Y030671D01*
X037459Y030721D01*
X037469Y030771D01*
X037482Y030819D01*
X037499Y030867D01*
X037520Y030913D01*
X037544Y030957D01*
X037572Y030999D01*
X037603Y031039D01*
X037637Y031076D01*
X037674Y031111D01*
X037713Y031142D01*
X037754Y031171D01*
X037798Y031196D01*
X037844Y031218D01*
X037891Y031236D01*
X037939Y031250D01*
X037988Y031261D01*
X038038Y031268D01*
X038088Y031271D01*
X038139Y031270D01*
X038189Y031265D01*
X038239Y031256D01*
X038287Y031244D01*
X038335Y031227D01*
X038381Y031207D01*
X038426Y031184D01*
X038469Y031157D01*
X038509Y031127D01*
X038547Y031094D01*
X038582Y031058D01*
X038615Y031019D01*
X038644Y030978D01*
X038670Y030935D01*
X038693Y030890D01*
X038712Y030843D01*
X038727Y030795D01*
X038739Y030746D01*
X038747Y030696D01*
X038751Y030646D01*
X038751Y030596D01*
X038747Y030546D01*
X038739Y030496D01*
X038727Y030447D01*
X038712Y030399D01*
X038693Y030352D01*
X038670Y030307D01*
X038644Y030264D01*
X038615Y030223D01*
X038582Y030184D01*
X038547Y030148D01*
X038509Y030115D01*
X038469Y030085D01*
X038426Y030058D01*
X038381Y030035D01*
X038335Y030015D01*
X038287Y029998D01*
X038239Y029986D01*
X038189Y029977D01*
X038139Y029972D01*
X038088Y029971D01*
X038038Y029974D01*
X037988Y029981D01*
X037939Y029992D01*
X037891Y030006D01*
X037844Y030024D01*
X037798Y030046D01*
X037754Y030071D01*
X037713Y030100D01*
X037674Y030131D01*
X037637Y030166D01*
X037603Y030203D01*
X037572Y030243D01*
X037544Y030285D01*
X037520Y030329D01*
X037499Y030375D01*
X037482Y030423D01*
X037469Y030471D01*
X037459Y030521D01*
X037453Y030571D01*
X037451Y030621D01*
X037451Y002621D02*
X037453Y002671D01*
X037459Y002721D01*
X037469Y002771D01*
X037482Y002819D01*
X037499Y002867D01*
X037520Y002913D01*
X037544Y002957D01*
X037572Y002999D01*
X037603Y003039D01*
X037637Y003076D01*
X037674Y003111D01*
X037713Y003142D01*
X037754Y003171D01*
X037798Y003196D01*
X037844Y003218D01*
X037891Y003236D01*
X037939Y003250D01*
X037988Y003261D01*
X038038Y003268D01*
X038088Y003271D01*
X038139Y003270D01*
X038189Y003265D01*
X038239Y003256D01*
X038287Y003244D01*
X038335Y003227D01*
X038381Y003207D01*
X038426Y003184D01*
X038469Y003157D01*
X038509Y003127D01*
X038547Y003094D01*
X038582Y003058D01*
X038615Y003019D01*
X038644Y002978D01*
X038670Y002935D01*
X038693Y002890D01*
X038712Y002843D01*
X038727Y002795D01*
X038739Y002746D01*
X038747Y002696D01*
X038751Y002646D01*
X038751Y002596D01*
X038747Y002546D01*
X038739Y002496D01*
X038727Y002447D01*
X038712Y002399D01*
X038693Y002352D01*
X038670Y002307D01*
X038644Y002264D01*
X038615Y002223D01*
X038582Y002184D01*
X038547Y002148D01*
X038509Y002115D01*
X038469Y002085D01*
X038426Y002058D01*
X038381Y002035D01*
X038335Y002015D01*
X038287Y001998D01*
X038239Y001986D01*
X038189Y001977D01*
X038139Y001972D01*
X038088Y001971D01*
X038038Y001974D01*
X037988Y001981D01*
X037939Y001992D01*
X037891Y002006D01*
X037844Y002024D01*
X037798Y002046D01*
X037754Y002071D01*
X037713Y002100D01*
X037674Y002131D01*
X037637Y002166D01*
X037603Y002203D01*
X037572Y002243D01*
X037544Y002285D01*
X037520Y002329D01*
X037499Y002375D01*
X037482Y002423D01*
X037469Y002471D01*
X037459Y002521D01*
X037453Y002571D01*
X037451Y002621D01*
D11*
X032694Y001406D02*
X032694Y001036D01*
X032694Y001221D02*
X032447Y001221D01*
X032447Y001036D02*
X032447Y001406D01*
X032326Y001406D02*
X032079Y001406D01*
X032203Y001406D02*
X032203Y001036D01*
X031958Y001221D02*
X031958Y001345D01*
X031896Y001406D01*
X031711Y001406D01*
X031711Y001036D01*
X031589Y001036D02*
X031343Y001036D01*
X031343Y001406D01*
X031589Y001406D01*
X031466Y001221D02*
X031343Y001221D01*
X031221Y001098D02*
X031221Y001345D01*
X031159Y001406D01*
X030974Y001406D01*
X030974Y001036D01*
X031159Y001036D01*
X031221Y001098D01*
X031711Y001159D02*
X031896Y001159D01*
X031958Y001221D01*
X000986Y010898D02*
X000986Y011021D01*
X000924Y011083D01*
X000924Y011204D02*
X000986Y011266D01*
X000986Y011389D01*
X000924Y011451D01*
X000677Y011451D01*
X000615Y011389D01*
X000615Y011266D01*
X000677Y011204D01*
X000924Y011204D01*
X000677Y011083D02*
X000615Y011021D01*
X000615Y010898D01*
X000677Y010836D01*
X000924Y010836D01*
X000986Y010898D01*
X000986Y011573D02*
X000615Y011573D01*
X000739Y011696D01*
X000615Y011819D01*
X000986Y011819D01*
X000986Y011941D02*
X000615Y011941D01*
X000615Y012126D01*
X000677Y012188D01*
X000801Y012188D01*
X000862Y012126D01*
X000862Y011941D01*
X000801Y012309D02*
X000801Y012556D01*
X000739Y012556D02*
X000986Y012556D01*
X000924Y012677D02*
X000986Y012739D01*
X000986Y012863D01*
X000924Y012924D01*
X000862Y012924D01*
X000801Y012863D01*
X000801Y012739D01*
X000739Y012677D01*
X000677Y012677D01*
X000615Y012739D01*
X000615Y012863D01*
X000677Y012924D01*
X000677Y013046D02*
X000739Y013046D01*
X000801Y013107D01*
X000801Y013231D01*
X000862Y013293D01*
X000924Y013293D01*
X000986Y013231D01*
X000986Y013107D01*
X000924Y013046D01*
X000677Y013046D02*
X000615Y013107D01*
X000615Y013231D01*
X000677Y013293D01*
X000739Y012556D02*
X000615Y012433D01*
X000739Y012309D01*
X000986Y012309D01*
X007316Y028536D02*
X007563Y028536D01*
X007684Y028598D02*
X007746Y028536D01*
X007869Y028536D01*
X007931Y028598D01*
X007931Y028659D01*
X007869Y028721D01*
X007746Y028721D01*
X007684Y028783D01*
X007684Y028845D01*
X007746Y028906D01*
X007869Y028906D01*
X007931Y028845D01*
X008052Y028906D02*
X008299Y028906D01*
X008176Y028906D02*
X008176Y028536D01*
X008421Y028598D02*
X008421Y028845D01*
X008482Y028906D01*
X008606Y028906D01*
X008668Y028845D01*
X008668Y028598D01*
X008606Y028536D01*
X008482Y028536D01*
X008421Y028598D01*
X008789Y028659D02*
X008974Y028659D01*
X009036Y028721D01*
X009036Y028845D01*
X008974Y028906D01*
X008789Y028906D01*
X008789Y028536D01*
X007563Y028906D02*
X007316Y028906D01*
X007316Y028536D01*
X007316Y028721D02*
X007439Y028721D01*
X031216Y027545D02*
X031216Y027483D01*
X031277Y027421D01*
X031401Y027421D01*
X031463Y027359D01*
X031463Y027298D01*
X031401Y027236D01*
X031277Y027236D01*
X031216Y027298D01*
X031216Y027545D02*
X031277Y027606D01*
X031401Y027606D01*
X031463Y027545D01*
X031584Y027606D02*
X031584Y027298D01*
X031646Y027236D01*
X031769Y027236D01*
X031831Y027298D01*
X031831Y027606D01*
X031952Y027606D02*
X032138Y027606D01*
X032199Y027545D01*
X032199Y027483D01*
X032138Y027421D01*
X031952Y027421D01*
X031952Y027236D02*
X031952Y027606D01*
X032138Y027421D02*
X032199Y027359D01*
X032199Y027298D01*
X032138Y027236D01*
X031952Y027236D01*
X032321Y027236D02*
X032321Y027606D01*
X032444Y027483D01*
X032568Y027606D01*
X032568Y027236D01*
X032689Y027298D02*
X032751Y027236D01*
X032874Y027236D01*
X032936Y027298D01*
X032936Y027606D01*
X033057Y027606D02*
X033242Y027606D01*
X033304Y027545D01*
X033304Y027421D01*
X033242Y027359D01*
X033057Y027359D01*
X033057Y027236D02*
X033057Y027606D01*
X033181Y027359D02*
X033304Y027236D01*
X033426Y027298D02*
X033487Y027236D01*
X033611Y027236D01*
X033672Y027298D01*
X033672Y027359D01*
X033611Y027421D01*
X033487Y027421D01*
X033426Y027483D01*
X033426Y027545D01*
X033487Y027606D01*
X033611Y027606D01*
X033672Y027545D01*
X033794Y027483D02*
X033917Y027606D01*
X034041Y027483D01*
X034041Y027236D01*
X034041Y027421D02*
X033794Y027421D01*
X033794Y027483D02*
X033794Y027236D01*
X033912Y026806D02*
X034036Y026806D01*
X033974Y026806D02*
X033974Y026498D01*
X033912Y026436D01*
X033851Y026436D01*
X033789Y026498D01*
X033668Y026498D02*
X033668Y026806D01*
X033421Y026806D02*
X033421Y026498D01*
X033482Y026436D01*
X033606Y026436D01*
X033668Y026498D01*
X033299Y026498D02*
X033238Y026436D01*
X033052Y026436D01*
X033052Y026806D01*
X033238Y026806D01*
X033299Y026745D01*
X033299Y026683D01*
X033238Y026621D01*
X033052Y026621D01*
X033238Y026621D02*
X033299Y026559D01*
X033299Y026498D01*
X032563Y026436D02*
X032563Y026806D01*
X032439Y026683D01*
X032316Y026806D01*
X032316Y026436D01*
X032689Y027298D02*
X032689Y027606D01*
X034157Y026745D02*
X034157Y026498D01*
X034219Y026436D01*
X034342Y026436D01*
X034404Y026498D01*
X034404Y026745D01*
X034342Y026806D01*
X034219Y026806D01*
X034157Y026745D01*
X034526Y026806D02*
X034526Y026436D01*
X034772Y026436D01*
X034894Y026436D02*
X034894Y026806D01*
X035079Y026806D01*
X035141Y026745D01*
X035141Y026498D01*
X035079Y026436D01*
X034894Y026436D01*
X035631Y026436D02*
X035877Y026683D01*
X035877Y026745D01*
X035816Y026806D01*
X035692Y026806D01*
X035631Y026745D01*
X035631Y026436D02*
X035877Y026436D01*
X035999Y026498D02*
X036246Y026745D01*
X036246Y026498D01*
X036184Y026436D01*
X036061Y026436D01*
X035999Y026498D01*
X035999Y026745D01*
X036061Y026806D01*
X036184Y026806D01*
X036246Y026745D01*
X036367Y026683D02*
X036491Y026806D01*
X036491Y026436D01*
X036614Y026436D02*
X036367Y026436D01*
X036735Y026436D02*
X036982Y026683D01*
X036982Y026745D01*
X036921Y026806D01*
X036797Y026806D01*
X036735Y026745D01*
X036735Y026436D02*
X036982Y026436D01*
X036925Y027236D02*
X036740Y027236D01*
X036740Y027606D01*
X036925Y027606D01*
X036987Y027545D01*
X036987Y027483D01*
X036925Y027421D01*
X036740Y027421D01*
X036925Y027421D02*
X036987Y027359D01*
X036987Y027298D01*
X036925Y027236D01*
X037109Y027298D02*
X037170Y027236D01*
X037294Y027236D01*
X037355Y027298D01*
X037355Y027545D01*
X037294Y027606D01*
X037170Y027606D01*
X037109Y027545D01*
X037109Y027298D01*
X037477Y027236D02*
X037477Y027483D01*
X037600Y027606D01*
X037724Y027483D01*
X037724Y027236D01*
X037845Y027236D02*
X037845Y027606D01*
X038030Y027606D01*
X038092Y027545D01*
X038092Y027421D01*
X038030Y027359D01*
X037845Y027359D01*
X037969Y027359D02*
X038092Y027236D01*
X038214Y027236D02*
X038399Y027236D01*
X038460Y027298D01*
X038460Y027545D01*
X038399Y027606D01*
X038214Y027606D01*
X038214Y027236D01*
X037724Y027421D02*
X037477Y027421D01*
X036619Y027236D02*
X036619Y027606D01*
X036372Y027606D02*
X036372Y027236D01*
X036250Y027236D02*
X036126Y027236D01*
X036188Y027236D02*
X036188Y027606D01*
X036126Y027606D02*
X036250Y027606D01*
X036372Y027606D02*
X036619Y027236D01*
X036005Y027236D02*
X036005Y027483D01*
X035882Y027606D01*
X035758Y027483D01*
X035758Y027236D01*
X035637Y027236D02*
X035637Y027606D01*
X035513Y027483D01*
X035390Y027606D01*
X035390Y027236D01*
X035758Y027421D02*
X036005Y027421D01*
X034899Y027236D02*
X034776Y027236D01*
X034838Y027236D02*
X034838Y027606D01*
X034899Y027606D02*
X034776Y027606D01*
X034654Y027606D02*
X034531Y027606D01*
X034592Y027606D02*
X034592Y027236D01*
X034531Y027236D02*
X034654Y027236D01*
D12*
X034656Y028031D02*
X034746Y028031D01*
X034656Y028031D02*
X034626Y028061D01*
X034626Y028121D01*
X034656Y028151D01*
X034746Y028151D01*
X034533Y028151D02*
X034533Y028031D01*
X034503Y028031D02*
X034564Y028031D01*
X034441Y028031D02*
X034411Y028061D01*
X034411Y028181D01*
X034381Y028151D02*
X034441Y028151D01*
X034503Y028151D02*
X034533Y028151D01*
X034533Y028211D02*
X034533Y028241D01*
X034317Y028121D02*
X034287Y028151D01*
X034227Y028151D01*
X034197Y028121D01*
X034197Y028061D01*
X034227Y028031D01*
X034287Y028031D01*
X034317Y028061D01*
X034317Y028121D01*
X034133Y028121D02*
X034102Y028151D01*
X034012Y028151D01*
X034012Y028211D02*
X034012Y028031D01*
X034102Y028031D01*
X034133Y028061D01*
X034133Y028121D01*
X033948Y028121D02*
X033918Y028151D01*
X033858Y028151D01*
X033828Y028121D01*
X033828Y028061D01*
X033858Y028031D01*
X033918Y028031D01*
X033948Y028061D01*
X033948Y028121D01*
X033765Y028151D02*
X033735Y028151D01*
X033675Y028091D01*
X033675Y028031D02*
X033675Y028151D01*
X033427Y028151D02*
X033337Y028151D01*
X033307Y028121D01*
X033337Y028091D01*
X033397Y028091D01*
X033427Y028061D01*
X033397Y028031D01*
X033307Y028031D01*
X033243Y028031D02*
X033243Y028151D01*
X033243Y028031D02*
X033152Y028031D01*
X033122Y028061D01*
X033122Y028151D01*
X033058Y028121D02*
X033028Y028151D01*
X032968Y028151D01*
X032938Y028121D01*
X032938Y028061D01*
X032968Y028031D01*
X033028Y028031D01*
X033058Y028061D01*
X033058Y028121D01*
X032874Y028121D02*
X032874Y028031D01*
X032814Y028031D02*
X032814Y028121D01*
X032844Y028151D01*
X032874Y028121D01*
X032814Y028121D02*
X032784Y028151D01*
X032754Y028151D01*
X032754Y028031D01*
X032690Y028061D02*
X032660Y028031D01*
X032600Y028031D01*
X032570Y028061D01*
X032570Y028121D01*
X032600Y028151D01*
X032660Y028151D01*
X032690Y028121D01*
X032690Y028061D01*
X032506Y028031D02*
X032506Y028121D01*
X032476Y028151D01*
X032386Y028151D01*
X032386Y028031D01*
X032322Y028061D02*
X032292Y028031D01*
X032232Y028031D01*
X032202Y028061D01*
X032202Y028121D01*
X032232Y028151D01*
X032292Y028151D01*
X032322Y028121D01*
X032322Y028061D01*
X032139Y028031D02*
X032109Y028061D01*
X032109Y028181D01*
X032079Y028151D02*
X032139Y028151D01*
X032015Y028151D02*
X032015Y028031D01*
X031925Y028031D01*
X031895Y028061D01*
X031895Y028151D01*
X031831Y028121D02*
X031831Y028031D01*
X031741Y028031D01*
X031711Y028061D01*
X031741Y028091D01*
X031831Y028091D01*
X031831Y028121D02*
X031801Y028151D01*
X031741Y028151D01*
X031771Y028391D02*
X031651Y028481D01*
X031701Y028501D01*
X031671Y028571D01*
X031751Y028551D01*
X031761Y028601D01*
X031841Y028531D01*
X031801Y028691D01*
X031871Y028661D01*
X031921Y028771D01*
X031971Y028661D01*
X032031Y028691D01*
X031991Y028531D01*
X034994Y028151D02*
X035055Y028031D01*
X035115Y028151D01*
X035179Y028121D02*
X035209Y028151D01*
X035269Y028151D01*
X035299Y028121D01*
X035299Y028091D01*
X035179Y028091D01*
X035179Y028061D02*
X035179Y028121D01*
X035179Y028061D02*
X035209Y028031D01*
X035269Y028031D01*
X035363Y028031D02*
X035363Y028211D01*
X035393Y028151D02*
X035453Y028151D01*
X035483Y028121D01*
X035483Y028031D01*
X035547Y028031D02*
X035607Y028031D01*
X035577Y028031D02*
X035577Y028151D01*
X035547Y028151D01*
X035577Y028211D02*
X035577Y028241D01*
X035670Y028121D02*
X035670Y028061D01*
X035700Y028031D01*
X035790Y028031D01*
X035854Y028031D02*
X035914Y028031D01*
X035884Y028031D02*
X035884Y028211D01*
X035854Y028211D01*
X035790Y028151D02*
X035700Y028151D01*
X035670Y028121D01*
X035393Y028151D02*
X035363Y028121D01*
X035977Y028121D02*
X036007Y028151D01*
X036067Y028151D01*
X036097Y028121D01*
X036097Y028091D01*
X035977Y028091D01*
X035977Y028061D02*
X035977Y028121D01*
X035977Y028061D02*
X036007Y028031D01*
X036067Y028031D01*
X036345Y028031D02*
X036435Y028031D01*
X036465Y028061D01*
X036465Y028121D01*
X036435Y028151D01*
X036345Y028151D01*
X036345Y027971D01*
X036529Y028031D02*
X036529Y028151D01*
X036589Y028151D02*
X036619Y028151D01*
X036589Y028151D02*
X036529Y028091D01*
X036682Y028121D02*
X036682Y028061D01*
X036712Y028031D01*
X036772Y028031D01*
X036802Y028061D01*
X036802Y028121D01*
X036772Y028151D01*
X036712Y028151D01*
X036682Y028121D01*
X036866Y027971D02*
X036896Y027971D01*
X036927Y028001D01*
X036927Y028151D01*
X036927Y028211D02*
X036927Y028241D01*
X037019Y028151D02*
X037079Y028151D01*
X037109Y028121D01*
X037109Y028091D01*
X036989Y028091D01*
X036989Y028121D02*
X037019Y028151D01*
X036989Y028121D02*
X036989Y028061D01*
X037019Y028031D01*
X037079Y028031D01*
X037173Y028061D02*
X037203Y028031D01*
X037293Y028031D01*
X037388Y028061D02*
X037418Y028031D01*
X037388Y028061D02*
X037388Y028181D01*
X037358Y028151D02*
X037418Y028151D01*
X037293Y028151D02*
X037203Y028151D01*
X037173Y028121D01*
X037173Y028061D01*
X037132Y010551D02*
X037279Y010331D01*
X037279Y010551D01*
X037353Y010551D02*
X037463Y010551D01*
X037500Y010514D01*
X037500Y010368D01*
X037463Y010331D01*
X037353Y010331D01*
X037353Y010551D01*
X037132Y010551D02*
X037132Y010331D01*
X037058Y010368D02*
X037058Y010441D01*
X036984Y010441D01*
X036911Y010368D02*
X036947Y010331D01*
X037021Y010331D01*
X037058Y010368D01*
X037058Y010514D02*
X037021Y010551D01*
X036947Y010551D01*
X036911Y010514D01*
X036911Y010368D01*
X034379Y010331D02*
X034232Y010551D01*
X034158Y010514D02*
X034158Y010441D01*
X034121Y010404D01*
X034011Y010404D01*
X034011Y010331D02*
X034011Y010551D01*
X034121Y010551D01*
X034158Y010514D01*
X034084Y010404D02*
X034158Y010331D01*
X034232Y010331D02*
X034379Y010551D01*
X033379Y010551D02*
X033232Y010331D01*
X033379Y010331D02*
X033232Y010551D01*
X033158Y010551D02*
X033011Y010551D01*
X033084Y010551D02*
X033084Y010331D01*
X023100Y003414D02*
X023063Y003451D01*
X022953Y003451D01*
X022953Y003231D01*
X023063Y003231D01*
X023100Y003268D01*
X023100Y003414D01*
X022879Y003451D02*
X022879Y003231D01*
X022732Y003451D01*
X022732Y003231D01*
X022658Y003268D02*
X022658Y003341D01*
X022584Y003341D01*
X022511Y003268D02*
X022547Y003231D01*
X022621Y003231D01*
X022658Y003268D01*
X022658Y003414D02*
X022621Y003451D01*
X022547Y003451D01*
X022511Y003414D01*
X022511Y003268D01*
X017000Y003268D02*
X017000Y003414D01*
X016963Y003451D01*
X016853Y003451D01*
X016853Y003231D01*
X016963Y003231D01*
X017000Y003268D01*
X016779Y003231D02*
X016779Y003451D01*
X016632Y003451D02*
X016779Y003231D01*
X016632Y003231D02*
X016632Y003451D01*
X016558Y003414D02*
X016521Y003451D01*
X016447Y003451D01*
X016411Y003414D01*
X016411Y003268D01*
X016447Y003231D01*
X016521Y003231D01*
X016558Y003268D01*
X016558Y003341D01*
X016484Y003341D01*
X016000Y003304D02*
X016000Y003268D01*
X015963Y003231D01*
X015889Y003231D01*
X015853Y003268D01*
X015779Y003304D02*
X015779Y003451D01*
X015853Y003414D02*
X015889Y003451D01*
X015963Y003451D01*
X016000Y003414D01*
X016000Y003378D01*
X015963Y003341D01*
X016000Y003304D01*
X015963Y003341D02*
X015926Y003341D01*
X015779Y003304D02*
X015705Y003231D01*
X015632Y003304D01*
X015632Y003451D01*
X015558Y003414D02*
X015558Y003378D01*
X015521Y003341D01*
X015558Y003304D01*
X015558Y003268D01*
X015521Y003231D01*
X015447Y003231D01*
X015411Y003268D01*
X015484Y003341D02*
X015521Y003341D01*
X015558Y003414D02*
X015521Y003451D01*
X015447Y003451D01*
X015411Y003414D01*
X012674Y005031D02*
X012487Y005031D01*
X012674Y005218D01*
X012674Y005264D01*
X012627Y005311D01*
X012534Y005311D01*
X012487Y005264D01*
X012398Y005311D02*
X012304Y005311D01*
X012351Y005311D02*
X012351Y005078D01*
X012304Y005031D01*
X012257Y005031D01*
X012211Y005078D01*
X012861Y005681D02*
X013048Y005681D01*
X012954Y005681D02*
X012954Y005961D01*
X012861Y005868D01*
X012907Y006681D02*
X012861Y006728D01*
X012907Y006681D02*
X013001Y006681D01*
X013048Y006728D01*
X013048Y006774D01*
X013001Y006821D01*
X012954Y006821D01*
X013001Y006821D02*
X013048Y006868D01*
X013048Y006914D01*
X013001Y006961D01*
X012907Y006961D01*
X012861Y006914D01*
X012907Y007681D02*
X012861Y007728D01*
X012907Y007681D02*
X013001Y007681D01*
X013048Y007728D01*
X013048Y007821D01*
X013001Y007868D01*
X012954Y007868D01*
X012861Y007821D01*
X012861Y007961D01*
X013048Y007961D01*
X012861Y008681D02*
X012861Y008728D01*
X013048Y008914D01*
X013048Y008961D01*
X012861Y008961D01*
X012907Y009681D02*
X013001Y009681D01*
X013048Y009728D01*
X013048Y009914D01*
X013001Y009961D01*
X012907Y009961D01*
X012861Y009914D01*
X012861Y009868D01*
X012907Y009821D01*
X013048Y009821D01*
X012907Y009681D02*
X012861Y009728D01*
X012861Y010681D02*
X013048Y010681D01*
X013137Y010681D02*
X013324Y010681D01*
X013230Y010681D02*
X013230Y010961D01*
X013137Y010868D01*
X012954Y010961D02*
X012954Y010681D01*
X012861Y010868D02*
X012954Y010961D01*
X012954Y011681D02*
X012954Y011961D01*
X012861Y011868D01*
X012861Y011681D02*
X013048Y011681D01*
X013137Y011728D02*
X013184Y011681D01*
X013277Y011681D01*
X013324Y011728D01*
X013324Y011774D01*
X013277Y011821D01*
X013230Y011821D01*
X013277Y011821D02*
X013324Y011868D01*
X013324Y011914D01*
X013277Y011961D01*
X013184Y011961D01*
X013137Y011914D01*
X013184Y012681D02*
X013137Y012728D01*
X013184Y012681D02*
X013277Y012681D01*
X013324Y012728D01*
X013324Y012821D01*
X013277Y012868D01*
X013230Y012868D01*
X013137Y012821D01*
X013137Y012961D01*
X013324Y012961D01*
X012954Y012961D02*
X012954Y012681D01*
X012861Y012681D02*
X013048Y012681D01*
X012861Y012868D02*
X012954Y012961D01*
X012954Y013681D02*
X012954Y013961D01*
X012861Y013868D01*
X012861Y013681D02*
X013048Y013681D01*
X013137Y013681D02*
X013137Y013728D01*
X013324Y013914D01*
X013324Y013961D01*
X013137Y013961D01*
X013184Y014681D02*
X013277Y014681D01*
X013324Y014728D01*
X013324Y014914D01*
X013277Y014961D01*
X013184Y014961D01*
X013137Y014914D01*
X013137Y014868D01*
X013184Y014821D01*
X013324Y014821D01*
X013184Y014681D02*
X013137Y014728D01*
X013048Y014681D02*
X012861Y014681D01*
X012954Y014681D02*
X012954Y014961D01*
X012861Y014868D01*
X012861Y015681D02*
X013048Y015868D01*
X013048Y015914D01*
X013001Y015961D01*
X012907Y015961D01*
X012861Y015914D01*
X012861Y015681D02*
X013048Y015681D01*
X013137Y015681D02*
X013324Y015681D01*
X013230Y015681D02*
X013230Y015961D01*
X013137Y015868D01*
X013184Y016681D02*
X013137Y016728D01*
X013184Y016681D02*
X013277Y016681D01*
X013324Y016728D01*
X013324Y016774D01*
X013277Y016821D01*
X013230Y016821D01*
X013277Y016821D02*
X013324Y016868D01*
X013324Y016914D01*
X013277Y016961D01*
X013184Y016961D01*
X013137Y016914D01*
X013048Y016914D02*
X013001Y016961D01*
X012907Y016961D01*
X012861Y016914D01*
X013048Y016914D02*
X013048Y016868D01*
X012861Y016681D01*
X013048Y016681D01*
X013048Y017681D02*
X012861Y017681D01*
X013048Y017868D01*
X013048Y017914D01*
X013001Y017961D01*
X012907Y017961D01*
X012861Y017914D01*
X013137Y017961D02*
X013137Y017821D01*
X013230Y017868D01*
X013277Y017868D01*
X013324Y017821D01*
X013324Y017728D01*
X013277Y017681D01*
X013184Y017681D01*
X013137Y017728D01*
X013137Y017961D02*
X013324Y017961D01*
X013137Y018681D02*
X013137Y018728D01*
X013324Y018914D01*
X013324Y018961D01*
X013137Y018961D01*
X013048Y018914D02*
X013001Y018961D01*
X012907Y018961D01*
X012861Y018914D01*
X013048Y018914D02*
X013048Y018868D01*
X012861Y018681D01*
X013048Y018681D01*
X013048Y019681D02*
X012861Y019681D01*
X013048Y019868D01*
X013048Y019914D01*
X013001Y019961D01*
X012907Y019961D01*
X012861Y019914D01*
X013137Y019914D02*
X013137Y019868D01*
X013184Y019821D01*
X013324Y019821D01*
X013324Y019728D02*
X013324Y019914D01*
X013277Y019961D01*
X013184Y019961D01*
X013137Y019914D01*
X013137Y019728D02*
X013184Y019681D01*
X013277Y019681D01*
X013324Y019728D01*
X013324Y020681D02*
X013137Y020681D01*
X013230Y020681D02*
X013230Y020961D01*
X013137Y020868D01*
X013048Y020868D02*
X013001Y020821D01*
X013048Y020774D01*
X013048Y020728D01*
X013001Y020681D01*
X012907Y020681D01*
X012861Y020728D01*
X012954Y020821D02*
X013001Y020821D01*
X013048Y020868D02*
X013048Y020914D01*
X013001Y020961D01*
X012907Y020961D01*
X012861Y020914D01*
X012907Y021681D02*
X012861Y021728D01*
X012907Y021681D02*
X013001Y021681D01*
X013048Y021728D01*
X013048Y021774D01*
X013001Y021821D01*
X012954Y021821D01*
X013001Y021821D02*
X013048Y021868D01*
X013048Y021914D01*
X013001Y021961D01*
X012907Y021961D01*
X012861Y021914D01*
X013137Y021914D02*
X013184Y021961D01*
X013277Y021961D01*
X013324Y021914D01*
X013324Y021868D01*
X013277Y021821D01*
X013324Y021774D01*
X013324Y021728D01*
X013277Y021681D01*
X013184Y021681D01*
X013137Y021728D01*
X013230Y021821D02*
X013277Y021821D01*
X013277Y022681D02*
X013184Y022681D01*
X013137Y022728D01*
X013048Y022728D02*
X013001Y022681D01*
X012907Y022681D01*
X012861Y022728D01*
X012954Y022821D02*
X013001Y022821D01*
X013048Y022774D01*
X013048Y022728D01*
X013001Y022821D02*
X013048Y022868D01*
X013048Y022914D01*
X013001Y022961D01*
X012907Y022961D01*
X012861Y022914D01*
X013137Y022961D02*
X013137Y022821D01*
X013230Y022868D01*
X013277Y022868D01*
X013324Y022821D01*
X013324Y022728D01*
X013277Y022681D01*
X013324Y022961D02*
X013137Y022961D01*
X013137Y023681D02*
X013137Y023728D01*
X013324Y023914D01*
X013324Y023961D01*
X013137Y023961D01*
X013048Y023914D02*
X013048Y023868D01*
X013001Y023821D01*
X013048Y023774D01*
X013048Y023728D01*
X013001Y023681D01*
X012907Y023681D01*
X012861Y023728D01*
X012954Y023821D02*
X013001Y023821D01*
X013048Y023914D02*
X013001Y023961D01*
X012907Y023961D01*
X012861Y023914D01*
X012907Y024681D02*
X012861Y024728D01*
X012907Y024681D02*
X013001Y024681D01*
X013048Y024728D01*
X013048Y024774D01*
X013001Y024821D01*
X012954Y024821D01*
X013001Y024821D02*
X013048Y024868D01*
X013048Y024914D01*
X013001Y024961D01*
X012907Y024961D01*
X012861Y024914D01*
X013137Y024914D02*
X013137Y024868D01*
X013184Y024821D01*
X013324Y024821D01*
X013324Y024728D02*
X013324Y024914D01*
X013277Y024961D01*
X013184Y024961D01*
X013137Y024914D01*
X013137Y024728D02*
X013184Y024681D01*
X013277Y024681D01*
X013324Y024728D01*
X013324Y025681D02*
X013137Y025681D01*
X013230Y025681D02*
X013230Y025961D01*
X013137Y025868D01*
X013048Y025821D02*
X012861Y025821D01*
X013001Y025961D01*
X013001Y025681D01*
X013001Y026681D02*
X013001Y026961D01*
X012861Y026821D01*
X013048Y026821D01*
X013137Y026728D02*
X013184Y026681D01*
X013277Y026681D01*
X013324Y026728D01*
X013324Y026774D01*
X013277Y026821D01*
X013230Y026821D01*
X013277Y026821D02*
X013324Y026868D01*
X013324Y026914D01*
X013277Y026961D01*
X013184Y026961D01*
X013137Y026914D01*
X013184Y027681D02*
X013137Y027728D01*
X013184Y027681D02*
X013277Y027681D01*
X013324Y027728D01*
X013324Y027821D01*
X013277Y027868D01*
X013230Y027868D01*
X013137Y027821D01*
X013137Y027961D01*
X013324Y027961D01*
X013048Y027821D02*
X012861Y027821D01*
X013001Y027961D01*
X013001Y027681D01*
X013001Y028681D02*
X013001Y028961D01*
X012861Y028821D01*
X013048Y028821D01*
X013137Y028728D02*
X013137Y028681D01*
X013137Y028728D02*
X013324Y028914D01*
X013324Y028961D01*
X013137Y028961D01*
X013184Y029681D02*
X013277Y029681D01*
X013324Y029728D01*
X013324Y029914D01*
X013277Y029961D01*
X013184Y029961D01*
X013137Y029914D01*
X013137Y029868D01*
X013184Y029821D01*
X013324Y029821D01*
X013184Y029681D02*
X013137Y029728D01*
X013048Y029821D02*
X012861Y029821D01*
X013001Y029961D01*
X013001Y029681D01*
X005463Y021551D02*
X005500Y021514D01*
X005500Y021478D01*
X005463Y021441D01*
X005500Y021404D01*
X005500Y021368D01*
X005463Y021331D01*
X005389Y021331D01*
X005353Y021368D01*
X005279Y021404D02*
X005279Y021551D01*
X005353Y021514D02*
X005389Y021551D01*
X005463Y021551D01*
X005463Y021441D02*
X005426Y021441D01*
X005279Y021404D02*
X005205Y021331D01*
X005132Y021404D01*
X005132Y021551D01*
X005058Y021514D02*
X005058Y021478D01*
X005021Y021441D01*
X005058Y021404D01*
X005058Y021368D01*
X005021Y021331D01*
X004947Y021331D01*
X004911Y021368D01*
X004984Y021441D02*
X005021Y021441D01*
X005058Y021514D02*
X005021Y021551D01*
X004947Y021551D01*
X004911Y021514D01*
X003463Y019551D02*
X003500Y019514D01*
X003500Y019478D01*
X003463Y019441D01*
X003500Y019404D01*
X003500Y019368D01*
X003463Y019331D01*
X003389Y019331D01*
X003353Y019368D01*
X003279Y019404D02*
X003279Y019551D01*
X003353Y019514D02*
X003389Y019551D01*
X003463Y019551D01*
X003463Y019441D02*
X003426Y019441D01*
X003279Y019404D02*
X003205Y019331D01*
X003132Y019404D01*
X003132Y019551D01*
X003058Y019514D02*
X003058Y019478D01*
X003021Y019441D01*
X003058Y019404D01*
X003058Y019368D01*
X003021Y019331D01*
X002947Y019331D01*
X002911Y019368D01*
X002984Y019441D02*
X003021Y019441D01*
X003058Y019514D02*
X003021Y019551D01*
X002947Y019551D01*
X002911Y019514D01*
D13*
X002951Y019121D02*
X002701Y018871D01*
X002701Y018371D01*
X002951Y018121D01*
X003451Y018121D01*
X003701Y018371D01*
X003951Y018121D01*
X004451Y018121D01*
X004701Y018371D01*
X004951Y018121D01*
X004701Y017871D01*
X004701Y017371D01*
X004951Y017121D01*
X004701Y016871D01*
X004701Y016371D01*
X004951Y016121D01*
X005451Y016121D01*
X005701Y016371D01*
X005701Y016871D01*
X005451Y017121D01*
X005701Y017371D01*
X005701Y017871D01*
X005451Y018121D01*
X004951Y018121D01*
X005451Y018121D01*
X005701Y018371D01*
X005951Y018121D01*
X006451Y018121D01*
X006701Y018371D01*
X006951Y018121D01*
X007451Y018121D01*
X007701Y018371D01*
X007701Y018871D01*
X007451Y019121D01*
X006951Y019121D01*
X006701Y018871D01*
X006451Y019121D01*
X005951Y019121D01*
X005701Y018871D01*
X005451Y019121D01*
X004951Y019121D01*
X004701Y019371D01*
X004701Y019871D01*
X004951Y020121D01*
X004701Y020371D01*
X004701Y020871D01*
X004951Y021121D01*
X005451Y021121D01*
X005701Y020871D01*
X005701Y020371D01*
X005451Y020121D01*
X005701Y019871D01*
X005701Y019371D01*
X005451Y019121D01*
X004951Y019121D01*
X004701Y018871D01*
X004451Y019121D01*
X003951Y019121D01*
X003701Y018871D01*
X003451Y019121D01*
X002951Y019121D01*
X014794Y020264D02*
X014794Y021288D01*
X014794Y022469D02*
X014794Y027321D01*
X014794Y028521D02*
X014794Y031721D01*
X016475Y031721D01*
X016485Y031530D01*
X016505Y031340D01*
X016534Y031152D01*
X016572Y030965D01*
X016619Y030780D01*
X016675Y030597D01*
X016741Y030418D01*
X016814Y030242D01*
X016897Y030070D01*
X016987Y029902D01*
X017086Y029738D01*
X017193Y029580D01*
X017307Y029427D01*
X017428Y029280D01*
X017557Y029139D01*
X017692Y029004D01*
X017834Y028876D01*
X017982Y028755D01*
X018136Y028642D01*
X018294Y028536D01*
X018458Y028439D01*
X018627Y028349D01*
X018800Y028268D01*
X018976Y028195D01*
X019156Y028131D01*
X019339Y028075D01*
X019524Y028029D01*
X019711Y027992D01*
X019900Y027964D01*
X020090Y027946D01*
X020281Y027936D01*
X020471Y027936D01*
X020662Y027946D01*
X020852Y027964D01*
X021041Y027992D01*
X021228Y028029D01*
X021413Y028075D01*
X021596Y028131D01*
X021776Y028195D01*
X021952Y028268D01*
X022125Y028349D01*
X022294Y028439D01*
X022458Y028536D01*
X022616Y028642D01*
X022770Y028755D01*
X022918Y028876D01*
X023060Y029004D01*
X023195Y029139D01*
X023324Y029280D01*
X023445Y029427D01*
X023559Y029580D01*
X023666Y029738D01*
X023765Y029902D01*
X023855Y030070D01*
X023938Y030242D01*
X024011Y030418D01*
X024077Y030597D01*
X024133Y030780D01*
X024180Y030965D01*
X024218Y031152D01*
X024247Y031340D01*
X024267Y031530D01*
X024277Y031721D01*
X024278Y031721D02*
X025955Y031721D01*
X025955Y029359D01*
X025955Y027587D02*
X025955Y024241D01*
X025955Y023650D02*
X025955Y022469D01*
X025955Y021288D02*
X025955Y020264D01*
X014794Y020264D01*
X017201Y017671D02*
X017451Y017921D01*
X017951Y017921D01*
X018201Y017671D01*
X018451Y017921D01*
X018951Y017921D01*
X019201Y017671D01*
X019451Y017921D01*
X019951Y017921D01*
X020201Y017671D01*
X020451Y017921D01*
X020951Y017921D01*
X021201Y017671D01*
X021451Y017921D01*
X021951Y017921D01*
X022201Y017671D01*
X022451Y017921D01*
X022951Y017921D01*
X023201Y017671D01*
X023451Y017921D01*
X023951Y017921D01*
X024201Y017671D01*
X024201Y017171D01*
X023951Y016921D01*
X023451Y016921D01*
X023201Y017171D01*
X022951Y016921D01*
X022451Y016921D01*
X022201Y017171D01*
X021951Y016921D01*
X021451Y016921D01*
X021201Y017171D01*
X020951Y016921D01*
X020451Y016921D01*
X020201Y017171D01*
X019951Y016921D01*
X019451Y016921D01*
X019201Y017171D01*
X018951Y016921D01*
X018451Y016921D01*
X018201Y017171D01*
X017951Y016921D01*
X017451Y016921D01*
X017201Y017171D01*
X017201Y017671D01*
X031701Y009921D02*
X031701Y009421D01*
X031951Y009171D01*
X032451Y009171D01*
X032701Y009421D01*
X032701Y009921D01*
X032951Y010171D01*
X033451Y010171D01*
X033701Y009921D01*
X033701Y009421D01*
X033451Y009171D01*
X032951Y009171D01*
X032701Y009421D01*
X032701Y009921D02*
X032451Y010171D01*
X031951Y010171D01*
X031701Y009921D01*
X033701Y009921D02*
X033951Y010171D01*
X034451Y010171D01*
X034701Y009921D01*
X034701Y009421D01*
X034451Y009171D01*
X033951Y009171D01*
X033701Y009421D01*
X034701Y009421D02*
X034951Y009171D01*
X035451Y009171D01*
X035701Y009421D01*
X035701Y009921D01*
X035951Y010171D01*
X036451Y010171D01*
X036701Y009921D01*
X036701Y009421D01*
X036451Y009171D01*
X035951Y009171D01*
X035701Y009421D01*
X035701Y009921D02*
X035451Y010171D01*
X034951Y010171D01*
X034701Y009921D01*
X034951Y008221D02*
X035451Y008221D01*
X035701Y007971D01*
X035951Y008221D01*
X036451Y008221D01*
X036701Y007971D01*
X036701Y007471D01*
X036451Y007221D01*
X035951Y007221D01*
X035701Y007471D01*
X035451Y007221D01*
X034951Y007221D01*
X034701Y007471D01*
X034701Y007971D01*
X034951Y008221D01*
X036701Y009421D02*
X036951Y009171D01*
X037451Y009171D01*
X037701Y009421D01*
X037701Y009921D01*
X037451Y010171D01*
X036951Y010171D01*
X036701Y009921D01*
X038151Y006466D02*
X038151Y006308D01*
X038701Y006246D02*
X038701Y004596D01*
X038151Y004534D02*
X038151Y004376D01*
X038151Y005308D02*
X038151Y005534D01*
X038435Y013849D02*
X037844Y013849D01*
X038435Y013849D02*
X038435Y014793D01*
X037844Y014793D01*
X037057Y014793D02*
X036624Y014793D01*
X036467Y014636D01*
X036467Y014006D01*
X036624Y013849D01*
X037057Y013849D01*
X037086Y016175D02*
X037913Y016175D01*
X036102Y016450D02*
X036102Y016805D01*
X036102Y018537D02*
X036102Y018891D01*
X037086Y019167D02*
X037913Y019167D01*
X038251Y021621D02*
X036551Y021621D01*
X036201Y022421D02*
X036201Y023226D01*
X036551Y024021D02*
X038251Y024021D01*
X038601Y023214D02*
X038601Y022421D01*
X036701Y022821D02*
X036703Y022873D01*
X036709Y022925D01*
X036719Y022977D01*
X036732Y023027D01*
X036749Y023077D01*
X036770Y023125D01*
X036795Y023171D01*
X036823Y023215D01*
X036854Y023257D01*
X036888Y023297D01*
X036925Y023334D01*
X036965Y023368D01*
X037007Y023399D01*
X037051Y023427D01*
X037097Y023452D01*
X037145Y023473D01*
X037195Y023490D01*
X037245Y023503D01*
X037297Y023513D01*
X037349Y023519D01*
X037401Y023521D01*
X037453Y023519D01*
X037505Y023513D01*
X037557Y023503D01*
X037607Y023490D01*
X037657Y023473D01*
X037705Y023452D01*
X037751Y023427D01*
X037795Y023399D01*
X037837Y023368D01*
X037877Y023334D01*
X037914Y023297D01*
X037948Y023257D01*
X037979Y023215D01*
X038007Y023171D01*
X038032Y023125D01*
X038053Y023077D01*
X038070Y023027D01*
X038083Y022977D01*
X038093Y022925D01*
X038099Y022873D01*
X038101Y022821D01*
X038099Y022769D01*
X038093Y022717D01*
X038083Y022665D01*
X038070Y022615D01*
X038053Y022565D01*
X038032Y022517D01*
X038007Y022471D01*
X037979Y022427D01*
X037948Y022385D01*
X037914Y022345D01*
X037877Y022308D01*
X037837Y022274D01*
X037795Y022243D01*
X037751Y022215D01*
X037705Y022190D01*
X037657Y022169D01*
X037607Y022152D01*
X037557Y022139D01*
X037505Y022129D01*
X037453Y022123D01*
X037401Y022121D01*
X037349Y022123D01*
X037297Y022129D01*
X037245Y022139D01*
X037195Y022152D01*
X037145Y022169D01*
X037097Y022190D01*
X037051Y022215D01*
X037007Y022243D01*
X036965Y022274D01*
X036925Y022308D01*
X036888Y022345D01*
X036854Y022385D01*
X036823Y022427D01*
X036795Y022471D01*
X036770Y022517D01*
X036749Y022565D01*
X036732Y022615D01*
X036719Y022665D01*
X036709Y022717D01*
X036703Y022769D01*
X036701Y022821D01*
X033551Y018171D02*
X033051Y018171D01*
X032801Y017921D01*
X032801Y017421D01*
X033051Y017171D01*
X032801Y016921D01*
X032801Y016421D01*
X033051Y016171D01*
X033551Y016171D01*
X033801Y016421D01*
X033801Y016921D01*
X033551Y017171D01*
X033801Y017421D01*
X033801Y017921D01*
X033551Y018171D01*
X028051Y002971D02*
X027551Y002971D01*
X027301Y002721D01*
X027301Y002221D01*
X027051Y001971D01*
X026551Y001971D01*
X026301Y002221D01*
X026301Y002721D01*
X026551Y002971D01*
X027051Y002971D01*
X027301Y002721D01*
X027301Y002221D02*
X027551Y001971D01*
X028051Y001971D01*
X028301Y002221D01*
X028301Y002721D01*
X028051Y002971D01*
X026301Y002721D02*
X026051Y002971D01*
X025551Y002971D01*
X025301Y002721D01*
X025301Y002221D01*
X025051Y001971D01*
X024551Y001971D01*
X024301Y002221D01*
X024301Y002721D01*
X024551Y002971D01*
X025051Y002971D01*
X025301Y002721D01*
X025301Y002221D02*
X025551Y001971D01*
X026051Y001971D01*
X026301Y002221D01*
X024301Y002221D02*
X024051Y001971D01*
X023551Y001971D01*
X023301Y002221D01*
X023301Y002721D01*
X023551Y002971D01*
X024051Y002971D01*
X024301Y002721D01*
X023301Y002721D02*
X023051Y002971D01*
X022551Y002971D01*
X022301Y002721D01*
X022301Y002221D01*
X022551Y001971D01*
X023051Y001971D01*
X023301Y002221D01*
X021201Y002221D02*
X020951Y001971D01*
X020451Y001971D01*
X020201Y002221D01*
X020201Y002721D01*
X020451Y002971D01*
X020951Y002971D01*
X021201Y002721D01*
X021201Y002221D01*
X020201Y002221D02*
X019951Y001971D01*
X019451Y001971D01*
X019201Y002221D01*
X019201Y002721D01*
X019451Y002971D01*
X019951Y002971D01*
X020201Y002721D01*
X019201Y002721D02*
X018951Y002971D01*
X018451Y002971D01*
X018201Y002721D01*
X018201Y002221D01*
X017951Y001971D01*
X017451Y001971D01*
X017201Y002221D01*
X017201Y002721D01*
X017451Y002971D01*
X017951Y002971D01*
X018201Y002721D01*
X018201Y002221D02*
X018451Y001971D01*
X018951Y001971D01*
X019201Y002221D01*
X017201Y002221D02*
X016951Y001971D01*
X016451Y001971D01*
X016201Y002221D01*
X016201Y002721D01*
X016451Y002971D01*
X016951Y002971D01*
X017201Y002721D01*
X016201Y002721D02*
X015951Y002971D01*
X015451Y002971D01*
X015201Y002721D01*
X015201Y002221D01*
X015451Y001971D01*
X015951Y001971D01*
X016201Y002221D01*
D14*
X003401Y010021D02*
X003401Y014021D01*
X001201Y014021D01*
X001201Y013521D01*
X001701Y013521D01*
X001701Y010521D01*
X001201Y010521D01*
X001201Y013521D01*
X001201Y010521D02*
X001201Y010021D01*
X003401Y010021D01*
X017196Y018241D02*
X017271Y018166D01*
X017346Y018166D01*
X017421Y018241D01*
X017421Y018616D01*
X017346Y018616D02*
X017496Y018616D01*
X017656Y018616D02*
X017656Y018166D01*
X017656Y018316D02*
X017881Y018316D01*
X017956Y018391D01*
X017956Y018541D01*
X017881Y018616D01*
X017656Y018616D01*
X018116Y018091D02*
X018417Y018091D01*
X018577Y018241D02*
X018652Y018166D01*
X018802Y018166D01*
X018877Y018241D01*
X018877Y018316D01*
X018802Y018391D01*
X018652Y018391D01*
X018577Y018466D01*
X018577Y018541D01*
X018652Y018616D01*
X018802Y018616D01*
X018877Y018541D01*
X019037Y018616D02*
X019262Y018616D01*
X019337Y018541D01*
X019337Y018241D01*
X019262Y018166D01*
X019037Y018166D01*
X019037Y018616D01*
X031791Y028311D02*
X033021Y028971D01*
X033041Y028981D02*
X033041Y028311D01*
X033171Y028311D02*
X033171Y028501D01*
X034401Y028501D01*
X034411Y028501D01*
X034420Y028502D02*
X034434Y028505D01*
X034447Y028511D01*
X034458Y028520D01*
X034468Y028531D01*
X034475Y028543D01*
X034479Y028557D01*
X034480Y028571D01*
X034481Y028571D02*
X034481Y028561D01*
X034481Y028571D02*
X034481Y028911D01*
X034480Y028911D02*
X034477Y028925D01*
X034471Y028938D01*
X034462Y028949D01*
X034451Y028959D01*
X034439Y028966D01*
X034425Y028970D01*
X034411Y028971D01*
X033171Y028971D01*
X033171Y028501D01*
X033021Y028501D02*
X032151Y028501D01*
X034401Y028501D02*
X034415Y028500D01*
X034429Y028496D01*
X034441Y028489D01*
X034452Y028479D01*
X034461Y028468D01*
X034467Y028455D01*
X034470Y028441D01*
X034471Y028451D02*
X034471Y028311D01*
X034641Y028331D02*
X035921Y028971D01*
X036071Y028971D02*
X036071Y028501D01*
X037311Y028501D01*
X037320Y028502D02*
X037334Y028505D01*
X037347Y028511D01*
X037358Y028520D01*
X037368Y028531D01*
X037375Y028543D01*
X037379Y028557D01*
X037380Y028571D01*
X037381Y028571D02*
X037381Y028561D01*
X037381Y028571D02*
X037381Y028911D01*
X037380Y028911D02*
X037377Y028925D01*
X037371Y028938D01*
X037362Y028949D01*
X037351Y028959D01*
X037339Y028966D01*
X037325Y028970D01*
X037311Y028971D01*
X036071Y028971D01*
X036071Y028501D02*
X036071Y028311D01*
X034641Y028331D02*
X034641Y028981D01*
X036426Y024796D02*
X036651Y024796D01*
X036726Y024721D01*
X036726Y024571D01*
X036651Y024496D01*
X036426Y024496D01*
X036576Y024496D02*
X036726Y024346D01*
X036886Y024346D02*
X036886Y024796D01*
X037186Y024796D01*
X037346Y024721D02*
X037346Y024646D01*
X037422Y024571D01*
X037572Y024571D01*
X037647Y024496D01*
X037647Y024421D01*
X037572Y024346D01*
X037422Y024346D01*
X037346Y024421D01*
X037186Y024346D02*
X036886Y024346D01*
X036886Y024571D02*
X037036Y024571D01*
X037346Y024721D02*
X037422Y024796D01*
X037572Y024796D01*
X037647Y024721D01*
X037807Y024796D02*
X037807Y024346D01*
X038107Y024346D01*
X037957Y024571D02*
X037807Y024571D01*
X037807Y024796D02*
X038107Y024796D01*
X038267Y024796D02*
X038567Y024796D01*
X038417Y024796D02*
X038417Y024346D01*
X036426Y024346D02*
X036426Y024796D01*
X035576Y020736D02*
X035125Y020436D01*
X035200Y020275D02*
X035351Y020275D01*
X035426Y020200D01*
X035426Y019975D01*
X035576Y019975D02*
X035125Y019975D01*
X035125Y020200D01*
X035200Y020275D01*
X035426Y020125D02*
X035576Y020275D01*
X035576Y020436D02*
X035125Y020736D01*
X033226Y020736D02*
X032775Y020436D01*
X032775Y020275D02*
X032775Y019975D01*
X032775Y020125D02*
X033226Y020125D01*
X033226Y020436D02*
X032775Y020736D01*
X037301Y014721D02*
X037301Y013921D01*
X033901Y003721D02*
X029901Y003721D01*
X029901Y001521D01*
X030401Y001521D01*
X030401Y002021D01*
X033401Y002021D01*
X033401Y001521D01*
X030401Y001521D01*
X033401Y001521D02*
X033901Y001521D01*
X033901Y003721D01*
X009601Y029121D02*
X006601Y029121D01*
X006601Y031321D01*
X007101Y031321D01*
X007101Y030821D01*
X009101Y030821D01*
X009101Y031321D01*
X009601Y031321D01*
X009601Y029121D01*
X009101Y031321D02*
X007101Y031321D01*
D15*
X004992Y023951D02*
X004762Y023951D01*
X004762Y023491D01*
X004609Y023491D02*
X004302Y023491D01*
X004302Y023951D01*
X004609Y023951D01*
X004455Y023721D02*
X004302Y023721D01*
X004148Y023491D02*
X004148Y023951D01*
X003841Y023951D02*
X003841Y023491D01*
X003995Y023644D01*
X004148Y023491D01*
X003688Y023568D02*
X003688Y023875D01*
X003611Y023951D01*
X003458Y023951D01*
X003381Y023875D01*
X003381Y023568D01*
X003458Y023491D01*
X003611Y023491D01*
X003688Y023568D01*
X003228Y023721D02*
X003228Y023875D01*
X003151Y023951D01*
X002921Y023951D01*
X002921Y023491D01*
X002921Y023644D02*
X003151Y023644D01*
X003228Y023721D01*
X004762Y023644D02*
X004992Y023644D01*
X005069Y023721D01*
X005069Y023875D01*
X004992Y023951D01*
X004916Y023644D02*
X005069Y023491D01*
X005997Y020951D02*
X005921Y020875D01*
X005921Y020568D01*
X005997Y020491D01*
X006151Y020491D01*
X006228Y020568D01*
X006228Y020721D01*
X006074Y020721D01*
X006228Y020875D02*
X006151Y020951D01*
X005997Y020951D01*
X006381Y020951D02*
X006381Y020875D01*
X006535Y020721D01*
X006535Y020491D01*
X006535Y020721D02*
X006688Y020875D01*
X006688Y020951D01*
X006841Y020951D02*
X007072Y020951D01*
X007148Y020875D01*
X007148Y020721D01*
X007072Y020644D01*
X006841Y020644D01*
X006841Y020491D02*
X006841Y020951D01*
X006995Y020644D02*
X007148Y020491D01*
X007302Y020568D02*
X007302Y020875D01*
X007379Y020951D01*
X007532Y020951D01*
X007609Y020875D01*
X007609Y020568D01*
X007532Y020491D01*
X007379Y020491D01*
X007302Y020568D01*
X007762Y020491D02*
X008069Y020798D01*
X008069Y020875D01*
X007992Y020951D01*
X007839Y020951D01*
X007762Y020875D01*
X007762Y020491D02*
X008069Y020491D01*
X003431Y017989D02*
X003431Y017682D01*
X003431Y017836D02*
X002970Y017836D01*
X003124Y017682D01*
X003047Y017529D02*
X002970Y017452D01*
X002970Y017299D01*
X003047Y017222D01*
X003354Y017222D01*
X003431Y017299D01*
X003431Y017452D01*
X003354Y017529D01*
X003047Y017529D01*
X003047Y017069D02*
X003201Y017069D01*
X003277Y016992D01*
X003277Y016762D01*
X003277Y016915D02*
X003431Y017069D01*
X003431Y016762D02*
X002970Y016762D01*
X002970Y016992D01*
X003047Y017069D01*
X003047Y016608D02*
X002970Y016608D01*
X003047Y016608D02*
X003201Y016455D01*
X003431Y016455D01*
X003201Y016455D02*
X003047Y016301D01*
X002970Y016301D01*
X003047Y016148D02*
X002970Y016071D01*
X002970Y015918D01*
X003047Y015841D01*
X003354Y015841D01*
X003431Y015918D01*
X003431Y016071D01*
X003354Y016148D01*
X003201Y016148D01*
X003201Y015994D01*
X006570Y011987D02*
X006570Y011680D01*
X006570Y011834D02*
X007031Y011834D01*
X007031Y011527D02*
X006877Y011373D01*
X006877Y011450D02*
X006877Y011220D01*
X007031Y011220D02*
X006570Y011220D01*
X006570Y011450D01*
X006647Y011527D01*
X006801Y011527D01*
X006877Y011450D01*
X006954Y011066D02*
X006647Y011066D01*
X006570Y010990D01*
X006570Y010836D01*
X006647Y010759D01*
X006954Y010759D01*
X007031Y010836D01*
X007031Y010990D01*
X006954Y011066D01*
X006801Y010606D02*
X006877Y010529D01*
X006877Y010299D01*
X007031Y010299D02*
X006570Y010299D01*
X006570Y010529D01*
X006647Y010606D01*
X006801Y010606D01*
X007107Y010146D02*
X007107Y009839D01*
X007031Y009685D02*
X006877Y009532D01*
X006877Y009609D02*
X006877Y009378D01*
X007031Y009378D02*
X006570Y009378D01*
X006570Y009609D01*
X006647Y009685D01*
X006801Y009685D01*
X006877Y009609D01*
X007031Y009225D02*
X007031Y008918D01*
X006570Y008918D01*
X006570Y009225D01*
X006801Y009071D02*
X006801Y008918D01*
X006570Y008765D02*
X006570Y008458D01*
X006570Y008611D02*
X007031Y008611D01*
X006954Y008304D02*
X007031Y008227D01*
X007031Y008074D01*
X006954Y007997D01*
X006954Y007844D02*
X006570Y007844D01*
X006647Y007997D02*
X006724Y007997D01*
X006801Y008074D01*
X006801Y008227D01*
X006877Y008304D01*
X006954Y008304D01*
X006647Y008304D02*
X006570Y008227D01*
X006570Y008074D01*
X006647Y007997D01*
X006954Y007844D02*
X007031Y007767D01*
X007031Y007614D01*
X006954Y007537D01*
X006570Y007537D01*
X006647Y007383D02*
X006801Y007383D01*
X006877Y007307D01*
X006877Y007077D01*
X006877Y007230D02*
X007031Y007383D01*
X007031Y007077D02*
X006570Y007077D01*
X006570Y007307D01*
X006647Y007383D01*
X006570Y006923D02*
X007031Y006923D01*
X006801Y006923D02*
X006801Y006616D01*
X007031Y006616D02*
X006570Y006616D01*
X006570Y006463D02*
X006570Y006156D01*
X006570Y006309D02*
X007031Y006309D01*
X009670Y006280D02*
X009670Y006510D01*
X009747Y006587D01*
X010054Y006587D01*
X010131Y006510D01*
X010131Y006280D01*
X009670Y006280D01*
X009747Y006127D02*
X009824Y006127D01*
X009901Y006050D01*
X009901Y005820D01*
X009977Y005666D02*
X010054Y005666D01*
X010131Y005590D01*
X010131Y005436D01*
X010054Y005359D01*
X009901Y005436D02*
X009901Y005590D01*
X009977Y005666D01*
X010131Y005820D02*
X009670Y005820D01*
X009670Y006050D01*
X009747Y006127D01*
X009901Y006050D02*
X009977Y006127D01*
X010054Y006127D01*
X010131Y006050D01*
X010131Y005820D01*
X009747Y005666D02*
X009670Y005590D01*
X009670Y005436D01*
X009747Y005359D01*
X009824Y005359D01*
X009901Y005436D01*
X010207Y005206D02*
X010207Y004899D01*
X010131Y004746D02*
X009977Y004592D01*
X009977Y004669D02*
X009977Y004439D01*
X010131Y004439D02*
X009670Y004439D01*
X009670Y004669D01*
X009747Y004746D01*
X009901Y004746D01*
X009977Y004669D01*
X010131Y004285D02*
X010131Y003978D01*
X009670Y003978D01*
X009670Y004285D01*
X009901Y004132D02*
X009901Y003978D01*
X009670Y003825D02*
X009670Y003518D01*
X009670Y003671D02*
X010131Y003671D01*
X010054Y003365D02*
X009977Y003365D01*
X009901Y003288D01*
X009901Y003134D01*
X009824Y003058D01*
X009747Y003058D01*
X009670Y003134D01*
X009670Y003288D01*
X009747Y003365D01*
X010054Y003365D02*
X010131Y003288D01*
X010131Y003134D01*
X010054Y003058D01*
X010054Y002904D02*
X009670Y002904D01*
X009670Y002597D02*
X010054Y002597D01*
X010131Y002674D01*
X010131Y002827D01*
X010054Y002904D01*
X010131Y002444D02*
X009977Y002290D01*
X009977Y002367D02*
X009977Y002137D01*
X010131Y002137D02*
X009670Y002137D01*
X009670Y002367D01*
X009747Y002444D01*
X009901Y002444D01*
X009977Y002367D01*
X009901Y001984D02*
X009901Y001677D01*
X010131Y001677D02*
X009670Y001677D01*
X009670Y001523D02*
X009670Y001216D01*
X009670Y001370D02*
X010131Y001370D01*
X010131Y001984D02*
X009670Y001984D01*
X015221Y001625D02*
X015221Y001548D01*
X015297Y001471D01*
X015451Y001471D01*
X015528Y001394D01*
X015528Y001318D01*
X015451Y001241D01*
X015297Y001241D01*
X015221Y001318D01*
X015221Y001625D02*
X015297Y001701D01*
X015451Y001701D01*
X015528Y001625D01*
X015681Y001625D02*
X015681Y001318D01*
X015758Y001241D01*
X015911Y001241D01*
X015988Y001318D01*
X015988Y001625D01*
X015911Y001701D01*
X015758Y001701D01*
X015681Y001625D01*
X016141Y001701D02*
X016448Y001241D01*
X016448Y001701D01*
X016602Y001548D02*
X016755Y001701D01*
X016909Y001548D01*
X016909Y001241D01*
X017062Y001241D02*
X017062Y001701D01*
X017292Y001701D01*
X017369Y001625D01*
X017369Y001471D01*
X017292Y001394D01*
X017062Y001394D01*
X017216Y001394D02*
X017369Y001241D01*
X016909Y001471D02*
X016602Y001471D01*
X016602Y001548D02*
X016602Y001241D01*
X016141Y001241D02*
X016141Y001701D01*
X022321Y001548D02*
X022321Y001241D01*
X022321Y001471D02*
X022628Y001471D01*
X022628Y001548D02*
X022628Y001241D01*
X022781Y001241D02*
X023011Y001241D01*
X023088Y001318D01*
X023088Y001625D01*
X023011Y001701D01*
X022781Y001701D01*
X022781Y001241D01*
X022628Y001548D02*
X022474Y001701D01*
X022321Y001548D01*
X023241Y001625D02*
X023241Y001318D01*
X023318Y001241D01*
X023472Y001241D01*
X023548Y001318D01*
X023702Y001164D02*
X024009Y001164D01*
X024162Y001241D02*
X024469Y001241D01*
X024623Y001241D02*
X024929Y001701D01*
X025083Y001701D02*
X025313Y001701D01*
X025390Y001625D01*
X025390Y001471D01*
X025313Y001394D01*
X025083Y001394D01*
X025083Y001241D02*
X025083Y001701D01*
X024623Y001701D02*
X024929Y001241D01*
X024469Y001701D02*
X024162Y001701D01*
X024162Y001241D01*
X024162Y001471D02*
X024316Y001471D01*
X023548Y001625D02*
X023472Y001701D01*
X023318Y001701D01*
X023241Y001625D01*
X031721Y008441D02*
X031721Y008901D01*
X031951Y008901D01*
X032028Y008825D01*
X032028Y008671D01*
X031951Y008594D01*
X031721Y008594D01*
X032181Y008594D02*
X032411Y008594D01*
X032488Y008671D01*
X032488Y008825D01*
X032411Y008901D01*
X032181Y008901D01*
X032181Y008441D01*
X032335Y008594D02*
X032488Y008441D01*
X032641Y008518D02*
X032718Y008441D01*
X032872Y008441D01*
X032948Y008518D01*
X032948Y008825D01*
X032872Y008901D01*
X032718Y008901D01*
X032641Y008825D01*
X032641Y008518D01*
X033102Y008518D02*
X033102Y008825D01*
X033179Y008901D01*
X033332Y008901D01*
X033409Y008825D01*
X033409Y008671D02*
X033255Y008671D01*
X033409Y008671D02*
X033409Y008518D01*
X033332Y008441D01*
X033179Y008441D01*
X033102Y008518D01*
X034458Y007051D02*
X034458Y006821D01*
X034612Y006898D01*
X034689Y006898D01*
X034765Y006821D01*
X034765Y006668D01*
X034689Y006591D01*
X034535Y006591D01*
X034458Y006668D01*
X034458Y007051D02*
X034765Y007051D01*
X034919Y007051D02*
X034919Y006744D01*
X035072Y006591D01*
X035226Y006744D01*
X035226Y007051D01*
X035379Y006514D02*
X035686Y006514D01*
X035840Y006591D02*
X035840Y007051D01*
X035993Y006898D01*
X036146Y007051D01*
X036146Y006591D01*
X036300Y006668D02*
X036377Y006591D01*
X036530Y006591D01*
X036607Y006668D01*
X036607Y006975D01*
X036530Y007051D01*
X036377Y007051D01*
X036300Y006975D01*
X036300Y006668D01*
X036760Y006591D02*
X036760Y007051D01*
X037067Y006591D01*
X037067Y007051D01*
X032454Y015791D02*
X032531Y015868D01*
X032531Y016021D01*
X032454Y016098D01*
X032070Y016098D01*
X032147Y016251D02*
X032224Y016251D01*
X032301Y016328D01*
X032301Y016481D01*
X032377Y016558D01*
X032454Y016558D01*
X032531Y016481D01*
X032531Y016328D01*
X032454Y016251D01*
X032147Y016251D02*
X032070Y016328D01*
X032070Y016481D01*
X032147Y016558D01*
X032070Y016712D02*
X032070Y016942D01*
X032147Y017019D01*
X032224Y017019D01*
X032301Y016942D01*
X032301Y016712D01*
X032531Y016712D02*
X032070Y016712D01*
X032301Y016942D02*
X032377Y017019D01*
X032454Y017019D01*
X032531Y016942D01*
X032531Y016712D01*
X032607Y017172D02*
X032607Y017479D01*
X032454Y017632D02*
X032531Y017709D01*
X032531Y017863D01*
X032454Y017939D01*
X032301Y017939D01*
X032224Y017863D01*
X032224Y017786D01*
X032301Y017632D01*
X032070Y017632D01*
X032070Y017939D01*
X032070Y018093D02*
X032377Y018093D01*
X032531Y018246D01*
X032377Y018400D01*
X032070Y018400D01*
X032070Y015791D02*
X032454Y015791D01*
D16*
X030904Y014873D02*
X030904Y012569D01*
X034998Y012569D01*
X034998Y014873D01*
X030904Y014873D01*
X031106Y012953D02*
X031108Y012979D01*
X031114Y013005D01*
X031123Y013030D01*
X031136Y013053D01*
X031152Y013074D01*
X031171Y013092D01*
X031193Y013108D01*
X031216Y013120D01*
X031241Y013128D01*
X031267Y013133D01*
X031294Y013134D01*
X031320Y013131D01*
X031345Y013124D01*
X031370Y013114D01*
X031392Y013100D01*
X031413Y013083D01*
X031430Y013064D01*
X031445Y013042D01*
X031456Y013018D01*
X031464Y012992D01*
X031468Y012966D01*
X031468Y012940D01*
X031464Y012914D01*
X031456Y012888D01*
X031445Y012864D01*
X031430Y012842D01*
X031413Y012823D01*
X031392Y012806D01*
X031370Y012792D01*
X031345Y012782D01*
X031320Y012775D01*
X031294Y012772D01*
X031267Y012773D01*
X031241Y012778D01*
X031216Y012786D01*
X031193Y012798D01*
X031171Y012814D01*
X031152Y012832D01*
X031136Y012853D01*
X031123Y012876D01*
X031114Y012901D01*
X031108Y012927D01*
X031106Y012953D01*
X009301Y011471D02*
X009301Y010971D01*
X009051Y010721D01*
X009301Y010471D01*
X009301Y009971D01*
X009051Y009721D01*
X009301Y009471D01*
X009301Y008971D01*
X009051Y008721D01*
X009301Y008471D01*
X009301Y007971D01*
X009051Y007721D01*
X007551Y007721D01*
X007301Y007971D01*
X007301Y008471D01*
X007551Y008721D01*
X007301Y008971D01*
X007301Y009471D01*
X007551Y009721D01*
X007301Y009971D01*
X007301Y010471D01*
X007551Y010721D01*
X007301Y010971D01*
X007301Y011471D01*
X007551Y011721D01*
X009051Y011721D01*
X009301Y011471D01*
X009051Y006021D02*
X007551Y006021D01*
X007301Y005771D01*
X007301Y005271D01*
X007551Y005021D01*
X007301Y004771D01*
X007301Y004271D01*
X007551Y004021D01*
X007301Y003771D01*
X007301Y003271D01*
X007551Y003021D01*
X007301Y002771D01*
X007301Y002271D01*
X007551Y002021D01*
X009051Y002021D01*
X009301Y002271D01*
X009301Y002771D01*
X009051Y003021D01*
X009301Y003271D01*
X009301Y003771D01*
X009051Y004021D01*
X009301Y004271D01*
X009301Y004771D01*
X009051Y005021D01*
X009301Y005271D01*
X009301Y005771D01*
X009051Y006021D01*
D17*
X003321Y021611D02*
X003321Y021791D01*
X003321Y022431D02*
X003321Y022631D01*
X002050Y024392D02*
X002050Y028093D01*
X005751Y028093D01*
X005751Y025455D01*
X005779Y025453D01*
X005807Y025448D01*
X005834Y025438D01*
X005860Y025426D01*
X005883Y025410D01*
X005904Y025391D01*
X005923Y025370D01*
X005939Y025346D01*
X005951Y025321D01*
X005961Y025294D01*
X005966Y025266D01*
X005968Y025238D01*
X005966Y025210D01*
X005961Y025182D01*
X005951Y025155D01*
X005939Y025129D01*
X005923Y025106D01*
X005904Y025085D01*
X005883Y025066D01*
X005859Y025050D01*
X005834Y025038D01*
X005807Y025028D01*
X005779Y025023D01*
X005751Y025021D01*
X005751Y025022D02*
X005751Y024392D01*
X002050Y024392D01*
X002011Y026833D02*
X001735Y026833D01*
X001775Y026872D02*
X001746Y026831D01*
X001714Y026792D01*
X001679Y026755D01*
X001642Y026722D01*
X001602Y026691D01*
X001560Y026664D01*
X001516Y026639D01*
X001470Y026619D01*
X001422Y026602D01*
X001374Y026588D01*
X001324Y026579D01*
X001274Y026573D01*
X001224Y026571D01*
X001174Y026573D01*
X001124Y026579D01*
X001074Y026588D01*
X001026Y026602D01*
X000978Y026619D01*
X000932Y026639D01*
X000888Y026664D01*
X000846Y026691D01*
X000806Y026722D01*
X000769Y026755D01*
X000734Y026792D01*
X000702Y026831D01*
X000673Y026872D01*
X000672Y026872D02*
X000672Y027581D01*
X000673Y027580D02*
X000702Y027621D01*
X000734Y027660D01*
X000769Y027697D01*
X000806Y027730D01*
X000846Y027761D01*
X000888Y027788D01*
X000932Y027813D01*
X000978Y027833D01*
X001026Y027850D01*
X001074Y027864D01*
X001124Y027873D01*
X001174Y027879D01*
X001224Y027881D01*
X001274Y027879D01*
X001324Y027873D01*
X001374Y027864D01*
X001422Y027850D01*
X001470Y027833D01*
X001516Y027813D01*
X001560Y027788D01*
X001602Y027761D01*
X001642Y027730D01*
X001679Y027697D01*
X001714Y027660D01*
X001746Y027621D01*
X001775Y027580D01*
X001735Y027620D02*
X002011Y027620D01*
X005791Y027620D02*
X006066Y027620D01*
X006027Y027580D02*
X006056Y027621D01*
X006088Y027660D01*
X006123Y027697D01*
X006160Y027730D01*
X006200Y027761D01*
X006242Y027788D01*
X006286Y027813D01*
X006332Y027833D01*
X006380Y027850D01*
X006428Y027864D01*
X006478Y027873D01*
X006528Y027879D01*
X006578Y027881D01*
X006628Y027879D01*
X006678Y027873D01*
X006728Y027864D01*
X006776Y027850D01*
X006824Y027833D01*
X006870Y027813D01*
X006914Y027788D01*
X006956Y027761D01*
X006996Y027730D01*
X007033Y027697D01*
X007068Y027660D01*
X007100Y027621D01*
X007129Y027580D01*
X007129Y027581D02*
X007129Y026872D01*
X007100Y026831D01*
X007068Y026792D01*
X007033Y026755D01*
X006996Y026722D01*
X006956Y026691D01*
X006914Y026664D01*
X006870Y026639D01*
X006824Y026619D01*
X006776Y026602D01*
X006728Y026588D01*
X006678Y026579D01*
X006628Y026573D01*
X006578Y026571D01*
X006528Y026573D01*
X006478Y026579D01*
X006428Y026588D01*
X006380Y026602D01*
X006332Y026619D01*
X006286Y026639D01*
X006242Y026664D01*
X006200Y026691D01*
X006160Y026722D01*
X006123Y026755D01*
X006088Y026792D01*
X006056Y026831D01*
X006027Y026872D01*
X006066Y026833D02*
X005791Y026833D01*
X031291Y019801D02*
X031471Y019801D01*
X032111Y019801D02*
X032311Y019801D01*
X033641Y019801D02*
X033821Y019801D01*
X034461Y019801D02*
X034661Y019801D01*
D18*
X034995Y020426D02*
X034905Y020426D01*
X034906Y020426D02*
X034904Y020480D01*
X034898Y020533D01*
X034888Y020586D01*
X034874Y020638D01*
X034857Y020689D01*
X034836Y020738D01*
X034812Y020786D01*
X034784Y020832D01*
X034753Y020876D01*
X034719Y020918D01*
X034683Y020957D01*
X034643Y020994D01*
X034601Y021027D01*
X034557Y021058D01*
X034511Y021085D01*
X034553Y021164D01*
X034602Y021136D01*
X034648Y021104D01*
X034693Y021069D01*
X034735Y021032D01*
X034774Y020991D01*
X034811Y020948D01*
X034845Y020903D01*
X034876Y020856D01*
X034903Y020806D01*
X034927Y020755D01*
X034948Y020703D01*
X034965Y020649D01*
X034978Y020594D01*
X034988Y020539D01*
X034994Y020482D01*
X034996Y020426D01*
X034987Y020426D01*
X034985Y020482D01*
X034979Y020537D01*
X034969Y020592D01*
X034956Y020647D01*
X034939Y020700D01*
X034919Y020752D01*
X034895Y020802D01*
X034868Y020851D01*
X034838Y020898D01*
X034804Y020943D01*
X034768Y020985D01*
X034729Y021025D01*
X034687Y021062D01*
X034643Y021097D01*
X034597Y021128D01*
X034549Y021156D01*
X034545Y021148D01*
X034592Y021120D01*
X034638Y021089D01*
X034681Y021055D01*
X034723Y021019D01*
X034761Y020979D01*
X034797Y020937D01*
X034830Y020893D01*
X034860Y020847D01*
X034887Y020798D01*
X034910Y020748D01*
X034931Y020697D01*
X034947Y020644D01*
X034960Y020591D01*
X034970Y020536D01*
X034976Y020481D01*
X034978Y020426D01*
X034969Y020426D01*
X034967Y020481D01*
X034961Y020535D01*
X034952Y020589D01*
X034939Y020642D01*
X034922Y020694D01*
X034902Y020745D01*
X034879Y020794D01*
X034852Y020842D01*
X034823Y020888D01*
X034790Y020932D01*
X034755Y020973D01*
X034716Y021012D01*
X034676Y021049D01*
X034633Y021082D01*
X034587Y021113D01*
X034540Y021140D01*
X034536Y021132D01*
X034583Y021105D01*
X034627Y021075D01*
X034670Y021042D01*
X034710Y021006D01*
X034748Y020967D01*
X034783Y020926D01*
X034815Y020883D01*
X034845Y020837D01*
X034871Y020790D01*
X034894Y020741D01*
X034914Y020691D01*
X034930Y020639D01*
X034943Y020587D01*
X034952Y020534D01*
X034958Y020480D01*
X034960Y020426D01*
X034951Y020426D01*
X034949Y020479D01*
X034943Y020533D01*
X034934Y020585D01*
X034921Y020637D01*
X034905Y020688D01*
X034886Y020738D01*
X034863Y020786D01*
X034837Y020833D01*
X034808Y020877D01*
X034776Y020920D01*
X034741Y020961D01*
X034704Y020999D01*
X034664Y021035D01*
X034622Y021068D01*
X034578Y021098D01*
X034532Y021125D01*
X034528Y021117D01*
X034573Y021090D01*
X034617Y021060D01*
X034658Y021028D01*
X034698Y020993D01*
X034735Y020955D01*
X034769Y020915D01*
X034801Y020872D01*
X034829Y020828D01*
X034855Y020782D01*
X034877Y020734D01*
X034897Y020685D01*
X034913Y020635D01*
X034925Y020583D01*
X034934Y020531D01*
X034940Y020479D01*
X034942Y020426D01*
X034933Y020426D01*
X034931Y020482D01*
X034924Y020537D01*
X034914Y020592D01*
X034900Y020646D01*
X034882Y020698D01*
X034861Y020750D01*
X034835Y020799D01*
X034807Y020847D01*
X034775Y020893D01*
X034740Y020936D01*
X034702Y020976D01*
X034661Y021014D01*
X034617Y021049D01*
X034571Y021080D01*
X034523Y021109D01*
X034519Y021101D01*
X034567Y021073D01*
X034612Y021042D01*
X034655Y021007D01*
X034695Y020970D01*
X034733Y020930D01*
X034768Y020887D01*
X034799Y020842D01*
X034828Y020795D01*
X034852Y020746D01*
X034874Y020695D01*
X034891Y020643D01*
X034905Y020590D01*
X034915Y020536D01*
X034922Y020481D01*
X034924Y020426D01*
X034915Y020426D01*
X034913Y020480D01*
X034907Y020534D01*
X034897Y020588D01*
X034883Y020640D01*
X034865Y020692D01*
X034844Y020742D01*
X034820Y020791D01*
X034792Y020837D01*
X034760Y020882D01*
X034726Y020924D01*
X034689Y020963D01*
X034649Y021000D01*
X034607Y021034D01*
X034562Y021065D01*
X034515Y021093D01*
X033728Y021152D02*
X033773Y021074D01*
X033772Y021074D02*
X033728Y021046D01*
X033686Y021015D01*
X033646Y020982D01*
X033608Y020946D01*
X033573Y020907D01*
X033541Y020866D01*
X033511Y020822D01*
X033485Y020777D01*
X033462Y020730D01*
X033442Y020682D01*
X033426Y020632D01*
X033413Y020582D01*
X033404Y020530D01*
X033398Y020478D01*
X033396Y020426D01*
X033307Y020425D01*
X033306Y020426D01*
X033308Y020481D01*
X033314Y020535D01*
X033323Y020590D01*
X033336Y020643D01*
X033352Y020695D01*
X033371Y020747D01*
X033394Y020797D01*
X033420Y020845D01*
X033449Y020892D01*
X033481Y020936D01*
X033516Y020979D01*
X033554Y021019D01*
X033594Y021056D01*
X033636Y021091D01*
X033681Y021123D01*
X033727Y021152D01*
X033732Y021144D01*
X033686Y021116D01*
X033642Y021084D01*
X033600Y021049D01*
X033560Y021012D01*
X033523Y020973D01*
X033488Y020931D01*
X033457Y020887D01*
X033428Y020841D01*
X033402Y020793D01*
X033380Y020743D01*
X033360Y020693D01*
X033344Y020641D01*
X033332Y020588D01*
X033323Y020534D01*
X033317Y020480D01*
X033315Y020426D01*
X033324Y020426D01*
X033326Y020480D01*
X033332Y020533D01*
X033341Y020586D01*
X033353Y020638D01*
X033369Y020690D01*
X033388Y020740D01*
X033410Y020789D01*
X033436Y020836D01*
X033464Y020882D01*
X033496Y020925D01*
X033530Y020967D01*
X033566Y021006D01*
X033606Y021043D01*
X033647Y021077D01*
X033691Y021108D01*
X033736Y021137D01*
X033741Y021129D01*
X033693Y021099D01*
X033647Y021065D01*
X033604Y021029D01*
X033563Y020989D01*
X033525Y020947D01*
X033490Y020903D01*
X033458Y020856D01*
X033430Y020807D01*
X033405Y020756D01*
X033383Y020703D01*
X033366Y020650D01*
X033352Y020595D01*
X033342Y020539D01*
X033335Y020483D01*
X033333Y020426D01*
X033342Y020426D01*
X033344Y020482D01*
X033350Y020538D01*
X033360Y020593D01*
X033374Y020647D01*
X033392Y020700D01*
X033413Y020752D01*
X033438Y020803D01*
X033466Y020851D01*
X033497Y020897D01*
X033532Y020942D01*
X033569Y020983D01*
X033610Y021022D01*
X033652Y021058D01*
X033698Y021091D01*
X033745Y021121D01*
X033750Y021113D01*
X033703Y021084D01*
X033658Y021051D01*
X033616Y021015D01*
X033576Y020977D01*
X033539Y020936D01*
X033504Y020892D01*
X033473Y020846D01*
X033446Y020798D01*
X033421Y020749D01*
X033400Y020697D01*
X033383Y020645D01*
X033369Y020591D01*
X033359Y020536D01*
X033353Y020481D01*
X033351Y020426D01*
X033360Y020426D01*
X033362Y020481D01*
X033368Y020535D01*
X033378Y020589D01*
X033392Y020642D01*
X033409Y020694D01*
X033429Y020745D01*
X033454Y020794D01*
X033481Y020841D01*
X033512Y020887D01*
X033545Y020930D01*
X033582Y020971D01*
X033622Y021009D01*
X033664Y021044D01*
X033708Y021076D01*
X033754Y021105D01*
X033759Y021097D01*
X033713Y021069D01*
X033669Y021037D01*
X033628Y021002D01*
X033589Y020964D01*
X033552Y020924D01*
X033519Y020882D01*
X033489Y020837D01*
X033461Y020790D01*
X033438Y020741D01*
X033417Y020691D01*
X033400Y020640D01*
X033387Y020587D01*
X033377Y020534D01*
X033371Y020480D01*
X033369Y020426D01*
X033378Y020426D01*
X033380Y020479D01*
X033386Y020533D01*
X033396Y020585D01*
X033409Y020637D01*
X033426Y020688D01*
X033446Y020738D01*
X033469Y020786D01*
X033496Y020832D01*
X033526Y020876D01*
X033559Y020918D01*
X033595Y020958D01*
X033634Y020995D01*
X033675Y021030D01*
X033718Y021061D01*
X033763Y021090D01*
X033768Y021082D01*
X033723Y021054D01*
X033680Y021023D01*
X033640Y020989D01*
X033602Y020952D01*
X033566Y020913D01*
X033534Y020871D01*
X033504Y020827D01*
X033477Y020781D01*
X033454Y020734D01*
X033434Y020685D01*
X033417Y020635D01*
X033404Y020583D01*
X033395Y020531D01*
X033389Y020479D01*
X033387Y020426D01*
X033307Y020417D02*
X033397Y020417D01*
X033396Y020416D02*
X033398Y020362D01*
X033404Y020309D01*
X033414Y020256D01*
X033428Y020204D01*
X033445Y020153D01*
X033466Y020103D01*
X033490Y020055D01*
X033518Y020009D01*
X033549Y019965D01*
X033583Y019924D01*
X033620Y019884D01*
X033659Y019848D01*
X033602Y019780D01*
X033601Y019779D01*
X033560Y019817D01*
X033522Y019857D01*
X033486Y019900D01*
X033453Y019945D01*
X033423Y019992D01*
X033397Y020040D01*
X033373Y020091D01*
X033353Y020143D01*
X033337Y020196D01*
X033323Y020250D01*
X033314Y020305D01*
X033308Y020360D01*
X033306Y020416D01*
X033315Y020416D01*
X033317Y020361D01*
X033323Y020306D01*
X033332Y020252D01*
X033345Y020198D01*
X033362Y020146D01*
X033381Y020094D01*
X033405Y020044D01*
X033431Y019996D01*
X033461Y019950D01*
X033493Y019905D01*
X033528Y019863D01*
X033567Y019823D01*
X033607Y019786D01*
X033613Y019793D01*
X033573Y019830D01*
X033535Y019869D01*
X033500Y019911D01*
X033468Y019955D01*
X033439Y020001D01*
X033413Y020049D01*
X033390Y020098D01*
X033370Y020149D01*
X033354Y020201D01*
X033341Y020254D01*
X033332Y020307D01*
X033326Y020362D01*
X033324Y020416D01*
X033333Y020416D01*
X033335Y020362D01*
X033341Y020309D01*
X033350Y020256D01*
X033363Y020203D01*
X033379Y020152D01*
X033398Y020101D01*
X033421Y020053D01*
X033446Y020005D01*
X033475Y019960D01*
X033507Y019916D01*
X033542Y019875D01*
X033579Y019836D01*
X033619Y019800D01*
X033625Y019807D01*
X033585Y019843D01*
X033548Y019881D01*
X033514Y019922D01*
X033483Y019965D01*
X033454Y020010D01*
X033429Y020057D01*
X033406Y020105D01*
X033387Y020155D01*
X033371Y020206D01*
X033359Y020257D01*
X033350Y020310D01*
X033344Y020363D01*
X033342Y020416D01*
X033351Y020416D01*
X033353Y020363D01*
X033359Y020311D01*
X033368Y020259D01*
X033380Y020208D01*
X033396Y020158D01*
X033415Y020108D01*
X033437Y020061D01*
X033462Y020014D01*
X033490Y019970D01*
X033521Y019928D01*
X033555Y019887D01*
X033592Y019849D01*
X033630Y019814D01*
X033636Y019820D01*
X033598Y019856D01*
X033562Y019893D01*
X033528Y019933D01*
X033498Y019975D01*
X033470Y020019D01*
X033445Y020065D01*
X033423Y020112D01*
X033404Y020161D01*
X033389Y020210D01*
X033376Y020261D01*
X033368Y020312D01*
X033362Y020364D01*
X033360Y020416D01*
X033369Y020416D01*
X033371Y020360D01*
X033378Y020305D01*
X033388Y020250D01*
X033402Y020196D01*
X033420Y020143D01*
X033442Y020092D01*
X033467Y020042D01*
X033496Y019994D01*
X033528Y019949D01*
X033563Y019906D01*
X033601Y019865D01*
X033642Y019827D01*
X033648Y019834D01*
X033607Y019871D01*
X033570Y019912D01*
X033535Y019954D01*
X033503Y019999D01*
X033475Y020047D01*
X033450Y020096D01*
X033428Y020147D01*
X033411Y020199D01*
X033397Y020252D01*
X033387Y020306D01*
X033380Y020361D01*
X033378Y020416D01*
X033387Y020416D01*
X033389Y020362D01*
X033395Y020307D01*
X033405Y020254D01*
X033419Y020201D01*
X033437Y020150D01*
X033458Y020100D01*
X033483Y020051D01*
X033511Y020004D01*
X033542Y019960D01*
X033576Y019918D01*
X033614Y019878D01*
X033654Y019841D01*
X034695Y019776D02*
X034638Y019845D01*
X034638Y019844D02*
X034678Y019881D01*
X034716Y019920D01*
X034750Y019962D01*
X034782Y020006D01*
X034810Y020052D01*
X034835Y020101D01*
X034856Y020151D01*
X034874Y020202D01*
X034887Y020255D01*
X034897Y020308D01*
X034904Y020362D01*
X034906Y020416D01*
X034995Y020417D01*
X034996Y020416D01*
X034994Y020360D01*
X034988Y020304D01*
X034978Y020249D01*
X034965Y020194D01*
X034948Y020141D01*
X034928Y020088D01*
X034904Y020037D01*
X034877Y019988D01*
X034846Y019941D01*
X034813Y019896D01*
X034777Y019853D01*
X034738Y019813D01*
X034696Y019775D01*
X034690Y019782D01*
X034731Y019819D01*
X034770Y019859D01*
X034806Y019901D01*
X034839Y019946D01*
X034869Y019993D01*
X034896Y020041D01*
X034919Y020092D01*
X034940Y020144D01*
X034956Y020197D01*
X034969Y020251D01*
X034979Y020305D01*
X034985Y020360D01*
X034987Y020416D01*
X034978Y020416D01*
X034976Y020361D01*
X034970Y020306D01*
X034961Y020252D01*
X034948Y020199D01*
X034931Y020147D01*
X034911Y020095D01*
X034888Y020046D01*
X034861Y019997D01*
X034832Y019951D01*
X034799Y019907D01*
X034763Y019865D01*
X034725Y019826D01*
X034684Y019789D01*
X034679Y019796D01*
X034719Y019832D01*
X034757Y019871D01*
X034792Y019913D01*
X034824Y019956D01*
X034854Y020002D01*
X034880Y020050D01*
X034903Y020099D01*
X034923Y020149D01*
X034939Y020201D01*
X034952Y020254D01*
X034961Y020308D01*
X034967Y020362D01*
X034969Y020416D01*
X034960Y020416D01*
X034958Y020362D01*
X034952Y020309D01*
X034943Y020256D01*
X034930Y020204D01*
X034914Y020152D01*
X034895Y020102D01*
X034872Y020054D01*
X034846Y020007D01*
X034817Y019961D01*
X034785Y019918D01*
X034750Y019877D01*
X034713Y019839D01*
X034673Y019803D01*
X034667Y019810D01*
X034706Y019845D01*
X034743Y019883D01*
X034778Y019924D01*
X034809Y019967D01*
X034838Y020011D01*
X034864Y020058D01*
X034886Y020106D01*
X034906Y020155D01*
X034922Y020206D01*
X034934Y020258D01*
X034943Y020310D01*
X034949Y020363D01*
X034951Y020416D01*
X034942Y020416D01*
X034940Y020364D01*
X034934Y020311D01*
X034925Y020260D01*
X034913Y020209D01*
X034897Y020158D01*
X034878Y020109D01*
X034856Y020062D01*
X034830Y020016D01*
X034802Y019972D01*
X034771Y019930D01*
X034737Y019889D01*
X034700Y019852D01*
X034661Y019817D01*
X034655Y019823D01*
X034694Y019858D01*
X034730Y019896D01*
X034764Y019935D01*
X034795Y019977D01*
X034823Y020021D01*
X034848Y020066D01*
X034870Y020113D01*
X034889Y020161D01*
X034904Y020211D01*
X034917Y020261D01*
X034925Y020312D01*
X034931Y020364D01*
X034933Y020416D01*
X034924Y020416D01*
X034922Y020365D01*
X034917Y020314D01*
X034908Y020263D01*
X034896Y020213D01*
X034880Y020164D01*
X034862Y020117D01*
X034840Y020070D01*
X034815Y020025D01*
X034787Y019982D01*
X034757Y019941D01*
X034724Y019902D01*
X034688Y019865D01*
X034650Y019830D01*
X034644Y019837D01*
X034685Y019874D01*
X034723Y019914D01*
X034757Y019956D01*
X034789Y020001D01*
X034818Y020048D01*
X034843Y020097D01*
X034864Y020148D01*
X034882Y020199D01*
X034896Y020253D01*
X034906Y020307D01*
X034913Y020361D01*
X034915Y020416D01*
X031378Y021152D02*
X031423Y021074D01*
X031422Y021074D02*
X031378Y021046D01*
X031336Y021015D01*
X031296Y020982D01*
X031258Y020946D01*
X031223Y020907D01*
X031191Y020866D01*
X031161Y020822D01*
X031135Y020777D01*
X031112Y020730D01*
X031092Y020682D01*
X031076Y020632D01*
X031063Y020582D01*
X031054Y020530D01*
X031048Y020478D01*
X031046Y020426D01*
X030957Y020425D01*
X030956Y020426D01*
X030958Y020481D01*
X030964Y020535D01*
X030973Y020590D01*
X030986Y020643D01*
X031002Y020695D01*
X031021Y020747D01*
X031044Y020797D01*
X031070Y020845D01*
X031099Y020892D01*
X031131Y020936D01*
X031166Y020979D01*
X031204Y021019D01*
X031244Y021056D01*
X031286Y021091D01*
X031331Y021123D01*
X031377Y021152D01*
X031382Y021144D01*
X031336Y021116D01*
X031292Y021084D01*
X031250Y021049D01*
X031210Y021012D01*
X031173Y020973D01*
X031138Y020931D01*
X031107Y020887D01*
X031078Y020841D01*
X031052Y020793D01*
X031030Y020743D01*
X031010Y020693D01*
X030994Y020641D01*
X030982Y020588D01*
X030973Y020534D01*
X030967Y020480D01*
X030965Y020426D01*
X030974Y020426D01*
X030976Y020480D01*
X030982Y020533D01*
X030991Y020586D01*
X031003Y020638D01*
X031019Y020690D01*
X031038Y020740D01*
X031060Y020789D01*
X031086Y020836D01*
X031114Y020882D01*
X031146Y020925D01*
X031180Y020967D01*
X031216Y021006D01*
X031256Y021043D01*
X031297Y021077D01*
X031341Y021108D01*
X031386Y021137D01*
X031391Y021129D01*
X031343Y021099D01*
X031297Y021065D01*
X031254Y021029D01*
X031213Y020989D01*
X031175Y020947D01*
X031140Y020903D01*
X031108Y020856D01*
X031080Y020807D01*
X031055Y020756D01*
X031033Y020703D01*
X031016Y020650D01*
X031002Y020595D01*
X030992Y020539D01*
X030985Y020483D01*
X030983Y020426D01*
X030992Y020426D01*
X030994Y020482D01*
X031000Y020538D01*
X031010Y020593D01*
X031024Y020647D01*
X031042Y020700D01*
X031063Y020752D01*
X031088Y020803D01*
X031116Y020851D01*
X031147Y020897D01*
X031182Y020942D01*
X031219Y020983D01*
X031260Y021022D01*
X031302Y021058D01*
X031348Y021091D01*
X031395Y021121D01*
X031400Y021113D01*
X031353Y021084D01*
X031308Y021051D01*
X031266Y021015D01*
X031226Y020977D01*
X031189Y020936D01*
X031154Y020892D01*
X031123Y020846D01*
X031096Y020798D01*
X031071Y020749D01*
X031050Y020697D01*
X031033Y020645D01*
X031019Y020591D01*
X031009Y020536D01*
X031003Y020481D01*
X031001Y020426D01*
X031010Y020426D01*
X031012Y020481D01*
X031018Y020535D01*
X031028Y020589D01*
X031042Y020642D01*
X031059Y020694D01*
X031079Y020745D01*
X031104Y020794D01*
X031131Y020841D01*
X031162Y020887D01*
X031195Y020930D01*
X031232Y020971D01*
X031272Y021009D01*
X031314Y021044D01*
X031358Y021076D01*
X031404Y021105D01*
X031409Y021097D01*
X031363Y021069D01*
X031319Y021037D01*
X031278Y021002D01*
X031239Y020964D01*
X031202Y020924D01*
X031169Y020882D01*
X031139Y020837D01*
X031111Y020790D01*
X031088Y020741D01*
X031067Y020691D01*
X031050Y020640D01*
X031037Y020587D01*
X031027Y020534D01*
X031021Y020480D01*
X031019Y020426D01*
X031028Y020426D01*
X031030Y020479D01*
X031036Y020533D01*
X031046Y020585D01*
X031059Y020637D01*
X031076Y020688D01*
X031096Y020738D01*
X031119Y020786D01*
X031146Y020832D01*
X031176Y020876D01*
X031209Y020918D01*
X031245Y020958D01*
X031284Y020995D01*
X031325Y021030D01*
X031368Y021061D01*
X031413Y021090D01*
X031418Y021082D01*
X031373Y021054D01*
X031330Y021023D01*
X031290Y020989D01*
X031252Y020952D01*
X031216Y020913D01*
X031184Y020871D01*
X031154Y020827D01*
X031127Y020781D01*
X031104Y020734D01*
X031084Y020685D01*
X031067Y020635D01*
X031054Y020583D01*
X031045Y020531D01*
X031039Y020479D01*
X031037Y020426D01*
X030957Y020417D02*
X031047Y020417D01*
X031046Y020416D02*
X031048Y020362D01*
X031054Y020309D01*
X031064Y020256D01*
X031078Y020204D01*
X031095Y020153D01*
X031116Y020103D01*
X031140Y020055D01*
X031168Y020009D01*
X031199Y019965D01*
X031233Y019924D01*
X031270Y019884D01*
X031309Y019848D01*
X031252Y019780D01*
X031251Y019779D01*
X031210Y019817D01*
X031172Y019857D01*
X031136Y019900D01*
X031103Y019945D01*
X031073Y019992D01*
X031047Y020040D01*
X031023Y020091D01*
X031003Y020143D01*
X030987Y020196D01*
X030973Y020250D01*
X030964Y020305D01*
X030958Y020360D01*
X030956Y020416D01*
X030965Y020416D01*
X030967Y020361D01*
X030973Y020306D01*
X030982Y020252D01*
X030995Y020198D01*
X031012Y020146D01*
X031031Y020094D01*
X031055Y020044D01*
X031081Y019996D01*
X031111Y019950D01*
X031143Y019905D01*
X031178Y019863D01*
X031217Y019823D01*
X031257Y019786D01*
X031263Y019793D01*
X031223Y019830D01*
X031185Y019869D01*
X031150Y019911D01*
X031118Y019955D01*
X031089Y020001D01*
X031063Y020049D01*
X031040Y020098D01*
X031020Y020149D01*
X031004Y020201D01*
X030991Y020254D01*
X030982Y020307D01*
X030976Y020362D01*
X030974Y020416D01*
X030983Y020416D01*
X030985Y020362D01*
X030991Y020309D01*
X031000Y020256D01*
X031013Y020203D01*
X031029Y020152D01*
X031048Y020101D01*
X031071Y020053D01*
X031096Y020005D01*
X031125Y019960D01*
X031157Y019916D01*
X031192Y019875D01*
X031229Y019836D01*
X031269Y019800D01*
X031275Y019807D01*
X031235Y019843D01*
X031198Y019881D01*
X031164Y019922D01*
X031133Y019965D01*
X031104Y020010D01*
X031079Y020057D01*
X031056Y020105D01*
X031037Y020155D01*
X031021Y020206D01*
X031009Y020257D01*
X031000Y020310D01*
X030994Y020363D01*
X030992Y020416D01*
X031001Y020416D01*
X031003Y020363D01*
X031009Y020311D01*
X031018Y020259D01*
X031030Y020208D01*
X031046Y020158D01*
X031065Y020108D01*
X031087Y020061D01*
X031112Y020014D01*
X031140Y019970D01*
X031171Y019928D01*
X031205Y019887D01*
X031242Y019849D01*
X031280Y019814D01*
X031286Y019820D01*
X031248Y019856D01*
X031212Y019893D01*
X031178Y019933D01*
X031148Y019975D01*
X031120Y020019D01*
X031095Y020065D01*
X031073Y020112D01*
X031054Y020161D01*
X031039Y020210D01*
X031026Y020261D01*
X031018Y020312D01*
X031012Y020364D01*
X031010Y020416D01*
X031019Y020416D01*
X031021Y020360D01*
X031028Y020305D01*
X031038Y020250D01*
X031052Y020196D01*
X031070Y020143D01*
X031092Y020092D01*
X031117Y020042D01*
X031146Y019994D01*
X031178Y019949D01*
X031213Y019906D01*
X031251Y019865D01*
X031292Y019827D01*
X031298Y019834D01*
X031257Y019871D01*
X031220Y019912D01*
X031185Y019954D01*
X031153Y019999D01*
X031125Y020047D01*
X031100Y020096D01*
X031078Y020147D01*
X031061Y020199D01*
X031047Y020252D01*
X031037Y020306D01*
X031030Y020361D01*
X031028Y020416D01*
X031037Y020416D01*
X031039Y020362D01*
X031045Y020307D01*
X031055Y020254D01*
X031069Y020201D01*
X031087Y020150D01*
X031108Y020100D01*
X031133Y020051D01*
X031161Y020004D01*
X031192Y019960D01*
X031226Y019918D01*
X031264Y019878D01*
X031304Y019841D01*
X032645Y020426D02*
X032555Y020426D01*
X032556Y020426D02*
X032554Y020480D01*
X032548Y020533D01*
X032538Y020586D01*
X032524Y020638D01*
X032507Y020689D01*
X032486Y020738D01*
X032462Y020786D01*
X032434Y020832D01*
X032403Y020876D01*
X032369Y020918D01*
X032333Y020957D01*
X032293Y020994D01*
X032251Y021027D01*
X032207Y021058D01*
X032161Y021085D01*
X032203Y021164D01*
X032252Y021136D01*
X032298Y021104D01*
X032343Y021069D01*
X032385Y021032D01*
X032424Y020991D01*
X032461Y020948D01*
X032495Y020903D01*
X032526Y020856D01*
X032553Y020806D01*
X032577Y020755D01*
X032598Y020703D01*
X032615Y020649D01*
X032628Y020594D01*
X032638Y020539D01*
X032644Y020482D01*
X032646Y020426D01*
X032637Y020426D01*
X032635Y020482D01*
X032629Y020537D01*
X032619Y020592D01*
X032606Y020647D01*
X032589Y020700D01*
X032569Y020752D01*
X032545Y020802D01*
X032518Y020851D01*
X032488Y020898D01*
X032454Y020943D01*
X032418Y020985D01*
X032379Y021025D01*
X032337Y021062D01*
X032293Y021097D01*
X032247Y021128D01*
X032199Y021156D01*
X032195Y021148D01*
X032242Y021120D01*
X032288Y021089D01*
X032331Y021055D01*
X032373Y021019D01*
X032411Y020979D01*
X032447Y020937D01*
X032480Y020893D01*
X032510Y020847D01*
X032537Y020798D01*
X032560Y020748D01*
X032581Y020697D01*
X032597Y020644D01*
X032610Y020591D01*
X032620Y020536D01*
X032626Y020481D01*
X032628Y020426D01*
X032619Y020426D01*
X032617Y020481D01*
X032611Y020535D01*
X032602Y020589D01*
X032589Y020642D01*
X032572Y020694D01*
X032552Y020745D01*
X032529Y020794D01*
X032502Y020842D01*
X032473Y020888D01*
X032440Y020932D01*
X032405Y020973D01*
X032366Y021012D01*
X032326Y021049D01*
X032283Y021082D01*
X032237Y021113D01*
X032190Y021140D01*
X032186Y021132D01*
X032233Y021105D01*
X032277Y021075D01*
X032320Y021042D01*
X032360Y021006D01*
X032398Y020967D01*
X032433Y020926D01*
X032465Y020883D01*
X032495Y020837D01*
X032521Y020790D01*
X032544Y020741D01*
X032564Y020691D01*
X032580Y020639D01*
X032593Y020587D01*
X032602Y020534D01*
X032608Y020480D01*
X032610Y020426D01*
X032601Y020426D01*
X032599Y020479D01*
X032593Y020533D01*
X032584Y020585D01*
X032571Y020637D01*
X032555Y020688D01*
X032536Y020738D01*
X032513Y020786D01*
X032487Y020833D01*
X032458Y020877D01*
X032426Y020920D01*
X032391Y020961D01*
X032354Y020999D01*
X032314Y021035D01*
X032272Y021068D01*
X032228Y021098D01*
X032182Y021125D01*
X032178Y021117D01*
X032223Y021090D01*
X032267Y021060D01*
X032308Y021028D01*
X032348Y020993D01*
X032385Y020955D01*
X032419Y020915D01*
X032451Y020872D01*
X032479Y020828D01*
X032505Y020782D01*
X032527Y020734D01*
X032547Y020685D01*
X032563Y020635D01*
X032575Y020583D01*
X032584Y020531D01*
X032590Y020479D01*
X032592Y020426D01*
X032583Y020426D01*
X032581Y020482D01*
X032574Y020537D01*
X032564Y020592D01*
X032550Y020646D01*
X032532Y020698D01*
X032511Y020750D01*
X032485Y020799D01*
X032457Y020847D01*
X032425Y020893D01*
X032390Y020936D01*
X032352Y020976D01*
X032311Y021014D01*
X032267Y021049D01*
X032221Y021080D01*
X032173Y021109D01*
X032169Y021101D01*
X032217Y021073D01*
X032262Y021042D01*
X032305Y021007D01*
X032345Y020970D01*
X032383Y020930D01*
X032418Y020887D01*
X032449Y020842D01*
X032478Y020795D01*
X032502Y020746D01*
X032524Y020695D01*
X032541Y020643D01*
X032555Y020590D01*
X032565Y020536D01*
X032572Y020481D01*
X032574Y020426D01*
X032565Y020426D01*
X032563Y020480D01*
X032557Y020534D01*
X032547Y020588D01*
X032533Y020640D01*
X032515Y020692D01*
X032494Y020742D01*
X032470Y020791D01*
X032442Y020837D01*
X032410Y020882D01*
X032376Y020924D01*
X032339Y020963D01*
X032299Y021000D01*
X032257Y021034D01*
X032212Y021065D01*
X032165Y021093D01*
X032345Y019776D02*
X032288Y019845D01*
X032288Y019844D02*
X032328Y019881D01*
X032366Y019920D01*
X032400Y019962D01*
X032432Y020006D01*
X032460Y020052D01*
X032485Y020101D01*
X032506Y020151D01*
X032524Y020202D01*
X032537Y020255D01*
X032547Y020308D01*
X032554Y020362D01*
X032556Y020416D01*
X032645Y020417D01*
X032646Y020416D01*
X032644Y020360D01*
X032638Y020304D01*
X032628Y020249D01*
X032615Y020194D01*
X032598Y020141D01*
X032578Y020088D01*
X032554Y020037D01*
X032527Y019988D01*
X032496Y019941D01*
X032463Y019896D01*
X032427Y019853D01*
X032388Y019813D01*
X032346Y019775D01*
X032340Y019782D01*
X032381Y019819D01*
X032420Y019859D01*
X032456Y019901D01*
X032489Y019946D01*
X032519Y019993D01*
X032546Y020041D01*
X032569Y020092D01*
X032590Y020144D01*
X032606Y020197D01*
X032619Y020251D01*
X032629Y020305D01*
X032635Y020360D01*
X032637Y020416D01*
X032628Y020416D01*
X032626Y020361D01*
X032620Y020306D01*
X032611Y020252D01*
X032598Y020199D01*
X032581Y020147D01*
X032561Y020095D01*
X032538Y020046D01*
X032511Y019997D01*
X032482Y019951D01*
X032449Y019907D01*
X032413Y019865D01*
X032375Y019826D01*
X032334Y019789D01*
X032329Y019796D01*
X032369Y019832D01*
X032407Y019871D01*
X032442Y019913D01*
X032474Y019956D01*
X032504Y020002D01*
X032530Y020050D01*
X032553Y020099D01*
X032573Y020149D01*
X032589Y020201D01*
X032602Y020254D01*
X032611Y020308D01*
X032617Y020362D01*
X032619Y020416D01*
X032610Y020416D01*
X032608Y020362D01*
X032602Y020309D01*
X032593Y020256D01*
X032580Y020204D01*
X032564Y020152D01*
X032545Y020102D01*
X032522Y020054D01*
X032496Y020007D01*
X032467Y019961D01*
X032435Y019918D01*
X032400Y019877D01*
X032363Y019839D01*
X032323Y019803D01*
X032317Y019810D01*
X032356Y019845D01*
X032393Y019883D01*
X032428Y019924D01*
X032459Y019967D01*
X032488Y020011D01*
X032514Y020058D01*
X032536Y020106D01*
X032556Y020155D01*
X032572Y020206D01*
X032584Y020258D01*
X032593Y020310D01*
X032599Y020363D01*
X032601Y020416D01*
X032592Y020416D01*
X032590Y020364D01*
X032584Y020311D01*
X032575Y020260D01*
X032563Y020209D01*
X032547Y020158D01*
X032528Y020109D01*
X032506Y020062D01*
X032480Y020016D01*
X032452Y019972D01*
X032421Y019930D01*
X032387Y019889D01*
X032350Y019852D01*
X032311Y019817D01*
X032305Y019823D01*
X032344Y019858D01*
X032380Y019896D01*
X032414Y019935D01*
X032445Y019977D01*
X032473Y020021D01*
X032498Y020066D01*
X032520Y020113D01*
X032539Y020161D01*
X032554Y020211D01*
X032567Y020261D01*
X032575Y020312D01*
X032581Y020364D01*
X032583Y020416D01*
X032574Y020416D01*
X032572Y020365D01*
X032567Y020314D01*
X032558Y020263D01*
X032546Y020213D01*
X032530Y020164D01*
X032512Y020117D01*
X032490Y020070D01*
X032465Y020025D01*
X032437Y019982D01*
X032407Y019941D01*
X032374Y019902D01*
X032338Y019865D01*
X032300Y019830D01*
X032294Y019837D01*
X032335Y019874D01*
X032373Y019914D01*
X032407Y019956D01*
X032439Y020001D01*
X032468Y020048D01*
X032493Y020097D01*
X032514Y020148D01*
X032532Y020199D01*
X032546Y020253D01*
X032556Y020307D01*
X032563Y020361D01*
X032565Y020416D01*
X038718Y006276D02*
X038675Y006221D01*
X038626Y006257D01*
X038575Y006291D01*
X038521Y006320D01*
X038466Y006347D01*
X038410Y006371D01*
X038352Y006390D01*
X038293Y006407D01*
X038233Y006420D01*
X038173Y006429D01*
X038112Y006434D01*
X038050Y006436D01*
X037989Y006434D01*
X037928Y006429D01*
X037868Y006419D01*
X037808Y006406D01*
X037749Y006390D01*
X037691Y006370D01*
X037635Y006347D01*
X037580Y006320D01*
X037526Y006290D01*
X037475Y006257D01*
X037426Y006221D01*
X037379Y006181D01*
X037334Y006140D01*
X037292Y006095D01*
X037253Y006048D01*
X037217Y005999D01*
X037183Y005948D01*
X037153Y005894D01*
X037126Y005839D01*
X037103Y005783D01*
X037083Y005725D01*
X037016Y005745D01*
X037016Y005746D01*
X037037Y005807D01*
X037062Y005868D01*
X037091Y005927D01*
X037123Y005984D01*
X037159Y006038D01*
X037198Y006091D01*
X037240Y006141D01*
X037285Y006189D01*
X037332Y006234D01*
X037382Y006276D01*
X037435Y006314D01*
X037490Y006350D01*
X037547Y006382D01*
X037606Y006411D01*
X037666Y006436D01*
X037728Y006457D01*
X037791Y006474D01*
X037855Y006488D01*
X037920Y006498D01*
X037985Y006504D01*
X038051Y006506D01*
X038116Y006504D01*
X038181Y006498D01*
X038246Y006488D01*
X038310Y006475D01*
X038373Y006457D01*
X038435Y006436D01*
X038495Y006411D01*
X038554Y006382D01*
X038611Y006350D01*
X038666Y006315D01*
X038719Y006276D01*
X038713Y006269D01*
X038661Y006307D01*
X038606Y006343D01*
X038550Y006374D01*
X038491Y006403D01*
X038431Y006428D01*
X038370Y006449D01*
X038308Y006466D01*
X038244Y006480D01*
X038180Y006489D01*
X038115Y006495D01*
X038051Y006497D01*
X037986Y006495D01*
X037921Y006489D01*
X037857Y006479D01*
X037793Y006466D01*
X037731Y006448D01*
X037670Y006427D01*
X037610Y006402D01*
X037551Y006374D01*
X037495Y006342D01*
X037440Y006307D01*
X037388Y006269D01*
X037338Y006227D01*
X037291Y006183D01*
X037246Y006135D01*
X037205Y006086D01*
X037166Y006033D01*
X037131Y005979D01*
X037099Y005922D01*
X037071Y005864D01*
X037046Y005804D01*
X037024Y005743D01*
X037033Y005740D01*
X037054Y005801D01*
X037079Y005861D01*
X037107Y005918D01*
X037139Y005974D01*
X037174Y006028D01*
X037212Y006080D01*
X037253Y006129D01*
X037297Y006176D01*
X037344Y006220D01*
X037394Y006261D01*
X037445Y006300D01*
X037499Y006334D01*
X037556Y006366D01*
X037613Y006394D01*
X037673Y006419D01*
X037734Y006440D01*
X037796Y006457D01*
X037859Y006470D01*
X037922Y006480D01*
X037986Y006486D01*
X038050Y006488D01*
X038115Y006486D01*
X038179Y006480D01*
X038242Y006471D01*
X038305Y006457D01*
X038367Y006440D01*
X038428Y006419D01*
X038488Y006395D01*
X038546Y006366D01*
X038602Y006335D01*
X038656Y006300D01*
X038708Y006262D01*
X038702Y006255D01*
X038651Y006293D01*
X038597Y006327D01*
X038541Y006359D01*
X038484Y006386D01*
X038425Y006411D01*
X038365Y006431D01*
X038303Y006448D01*
X038241Y006462D01*
X038178Y006471D01*
X038114Y006477D01*
X038050Y006479D01*
X037987Y006477D01*
X037923Y006471D01*
X037860Y006462D01*
X037798Y006448D01*
X037736Y006431D01*
X037676Y006410D01*
X037617Y006386D01*
X037560Y006358D01*
X037504Y006327D01*
X037451Y006292D01*
X037399Y006254D01*
X037350Y006214D01*
X037304Y006170D01*
X037260Y006123D01*
X037219Y006075D01*
X037181Y006023D01*
X037146Y005970D01*
X037115Y005914D01*
X037087Y005857D01*
X037062Y005798D01*
X037042Y005738D01*
X037050Y005735D01*
X037071Y005795D01*
X037095Y005853D01*
X037123Y005910D01*
X037154Y005965D01*
X037189Y006018D01*
X037226Y006069D01*
X037267Y006118D01*
X037310Y006164D01*
X037356Y006207D01*
X037405Y006247D01*
X037456Y006285D01*
X037509Y006319D01*
X037564Y006350D01*
X037621Y006378D01*
X037679Y006402D01*
X037739Y006423D01*
X037800Y006440D01*
X037862Y006453D01*
X037924Y006462D01*
X037987Y006468D01*
X038050Y006470D01*
X038114Y006468D01*
X038177Y006462D01*
X038239Y006453D01*
X038301Y006440D01*
X038362Y006423D01*
X038422Y006402D01*
X038480Y006378D01*
X038537Y006351D01*
X038592Y006320D01*
X038645Y006285D01*
X038696Y006248D01*
X038691Y006241D01*
X038640Y006278D01*
X038588Y006312D01*
X038533Y006343D01*
X038477Y006370D01*
X038419Y006394D01*
X038359Y006414D01*
X038299Y006431D01*
X038238Y006444D01*
X038176Y006454D01*
X038113Y006459D01*
X038050Y006461D01*
X037988Y006459D01*
X037925Y006453D01*
X037863Y006444D01*
X037802Y006431D01*
X037742Y006414D01*
X037682Y006393D01*
X037624Y006370D01*
X037568Y006342D01*
X037513Y006311D01*
X037461Y006277D01*
X037410Y006240D01*
X037362Y006200D01*
X037316Y006157D01*
X037273Y006112D01*
X037233Y006063D01*
X037196Y006013D01*
X037162Y005960D01*
X037131Y005906D01*
X037103Y005850D01*
X037079Y005792D01*
X037059Y005732D01*
X037067Y005730D01*
X037088Y005788D01*
X037112Y005846D01*
X037139Y005902D01*
X037170Y005956D01*
X037203Y006008D01*
X037240Y006058D01*
X037280Y006106D01*
X037323Y006151D01*
X037368Y006193D01*
X037416Y006233D01*
X037466Y006270D01*
X037518Y006304D01*
X037572Y006334D01*
X037628Y006361D01*
X037686Y006385D01*
X037744Y006405D01*
X037804Y006422D01*
X037865Y006435D01*
X037926Y006444D01*
X037988Y006450D01*
X038050Y006452D01*
X038113Y006450D01*
X038174Y006445D01*
X038236Y006435D01*
X038297Y006422D01*
X038357Y006406D01*
X038415Y006385D01*
X038473Y006362D01*
X038529Y006335D01*
X038583Y006304D01*
X038635Y006271D01*
X038685Y006234D01*
X038680Y006227D01*
X038630Y006263D01*
X038578Y006296D01*
X038525Y006327D01*
X038469Y006354D01*
X038412Y006377D01*
X038354Y006397D01*
X038295Y006414D01*
X038234Y006426D01*
X038173Y006436D01*
X038112Y006441D01*
X038050Y006443D01*
X037989Y006441D01*
X037928Y006436D01*
X037867Y006426D01*
X037806Y006413D01*
X037747Y006397D01*
X037689Y006377D01*
X037632Y006353D01*
X037576Y006326D01*
X037523Y006296D01*
X037471Y006263D01*
X037421Y006226D01*
X037374Y006187D01*
X037329Y006144D01*
X037287Y006100D01*
X037247Y006052D01*
X037211Y006003D01*
X037177Y005951D01*
X037147Y005898D01*
X037120Y005842D01*
X037096Y005785D01*
X037076Y005727D01*
X037016Y005097D02*
X037083Y005117D01*
X037103Y005059D01*
X037126Y005003D01*
X037153Y004948D01*
X037183Y004895D01*
X037217Y004843D01*
X037253Y004794D01*
X037292Y004747D01*
X037334Y004703D01*
X037379Y004661D01*
X037426Y004621D01*
X037475Y004585D01*
X037526Y004552D01*
X037580Y004522D01*
X037635Y004495D01*
X037691Y004472D01*
X037749Y004452D01*
X037808Y004436D01*
X037868Y004423D01*
X037928Y004413D01*
X037989Y004408D01*
X038050Y004406D01*
X038112Y004408D01*
X038173Y004413D01*
X038233Y004422D01*
X038293Y004435D01*
X038352Y004452D01*
X038410Y004471D01*
X038466Y004495D01*
X038521Y004522D01*
X038575Y004551D01*
X038626Y004585D01*
X038675Y004621D01*
X038718Y004566D01*
X038719Y004566D01*
X038666Y004527D01*
X038611Y004492D01*
X038554Y004460D01*
X038495Y004431D01*
X038435Y004406D01*
X038373Y004385D01*
X038310Y004367D01*
X038246Y004354D01*
X038181Y004344D01*
X038116Y004338D01*
X038050Y004336D01*
X037985Y004338D01*
X037920Y004344D01*
X037855Y004354D01*
X037791Y004368D01*
X037728Y004385D01*
X037666Y004406D01*
X037606Y004431D01*
X037547Y004460D01*
X037490Y004492D01*
X037435Y004528D01*
X037382Y004566D01*
X037332Y004608D01*
X037285Y004653D01*
X037240Y004701D01*
X037198Y004751D01*
X037159Y004804D01*
X037123Y004858D01*
X037091Y004915D01*
X037062Y004974D01*
X037037Y005035D01*
X037016Y005096D01*
X037024Y005099D01*
X037046Y005038D01*
X037071Y004978D01*
X037099Y004920D01*
X037131Y004863D01*
X037166Y004809D01*
X037205Y004756D01*
X037246Y004707D01*
X037291Y004659D01*
X037338Y004615D01*
X037388Y004574D01*
X037440Y004535D01*
X037495Y004500D01*
X037551Y004468D01*
X037610Y004440D01*
X037670Y004415D01*
X037731Y004394D01*
X037793Y004376D01*
X037857Y004363D01*
X037921Y004353D01*
X037986Y004347D01*
X038050Y004345D01*
X038115Y004347D01*
X038180Y004353D01*
X038244Y004362D01*
X038308Y004376D01*
X038370Y004393D01*
X038431Y004414D01*
X038491Y004439D01*
X038550Y004468D01*
X038606Y004499D01*
X038661Y004534D01*
X038713Y004573D01*
X038708Y004580D01*
X038656Y004542D01*
X038602Y004507D01*
X038546Y004476D01*
X038488Y004447D01*
X038428Y004423D01*
X038367Y004402D01*
X038305Y004385D01*
X038242Y004371D01*
X038179Y004362D01*
X038115Y004356D01*
X038050Y004354D01*
X037986Y004356D01*
X037922Y004362D01*
X037859Y004372D01*
X037796Y004385D01*
X037734Y004402D01*
X037673Y004423D01*
X037613Y004448D01*
X037556Y004476D01*
X037499Y004508D01*
X037445Y004542D01*
X037394Y004581D01*
X037344Y004622D01*
X037297Y004666D01*
X037253Y004713D01*
X037212Y004762D01*
X037174Y004814D01*
X037139Y004868D01*
X037107Y004924D01*
X037079Y004981D01*
X037054Y005041D01*
X037033Y005102D01*
X037042Y005104D01*
X037062Y005044D01*
X037087Y004985D01*
X037115Y004928D01*
X037146Y004872D01*
X037181Y004819D01*
X037219Y004767D01*
X037260Y004719D01*
X037304Y004672D01*
X037350Y004628D01*
X037399Y004588D01*
X037451Y004550D01*
X037504Y004515D01*
X037560Y004484D01*
X037617Y004456D01*
X037676Y004432D01*
X037736Y004411D01*
X037798Y004394D01*
X037860Y004380D01*
X037923Y004371D01*
X037987Y004365D01*
X038050Y004363D01*
X038114Y004365D01*
X038178Y004371D01*
X038241Y004380D01*
X038303Y004393D01*
X038365Y004411D01*
X038425Y004431D01*
X038484Y004456D01*
X038541Y004483D01*
X038597Y004515D01*
X038651Y004549D01*
X038702Y004587D01*
X038696Y004594D01*
X038645Y004557D01*
X038592Y004522D01*
X038537Y004491D01*
X038480Y004464D01*
X038422Y004440D01*
X038362Y004419D01*
X038301Y004402D01*
X038239Y004389D01*
X038177Y004380D01*
X038114Y004374D01*
X038050Y004372D01*
X037987Y004374D01*
X037924Y004380D01*
X037862Y004389D01*
X037800Y004402D01*
X037739Y004419D01*
X037679Y004440D01*
X037621Y004464D01*
X037564Y004492D01*
X037509Y004523D01*
X037456Y004557D01*
X037405Y004595D01*
X037356Y004635D01*
X037310Y004678D01*
X037267Y004724D01*
X037226Y004773D01*
X037189Y004824D01*
X037154Y004877D01*
X037123Y004932D01*
X037095Y004989D01*
X037071Y005047D01*
X037050Y005107D01*
X037059Y005110D01*
X037079Y005050D01*
X037103Y004993D01*
X037131Y004936D01*
X037162Y004882D01*
X037196Y004829D01*
X037233Y004779D01*
X037273Y004730D01*
X037316Y004685D01*
X037362Y004642D01*
X037410Y004602D01*
X037461Y004565D01*
X037513Y004531D01*
X037568Y004500D01*
X037624Y004472D01*
X037682Y004449D01*
X037742Y004428D01*
X037802Y004411D01*
X037863Y004398D01*
X037925Y004389D01*
X037988Y004383D01*
X038050Y004381D01*
X038113Y004383D01*
X038176Y004388D01*
X038238Y004398D01*
X038299Y004411D01*
X038359Y004428D01*
X038419Y004448D01*
X038477Y004472D01*
X038533Y004499D01*
X038588Y004530D01*
X038640Y004564D01*
X038691Y004601D01*
X038685Y004608D01*
X038635Y004571D01*
X038583Y004538D01*
X038529Y004507D01*
X038473Y004480D01*
X038415Y004457D01*
X038357Y004436D01*
X038297Y004420D01*
X038236Y004407D01*
X038174Y004397D01*
X038113Y004392D01*
X038050Y004390D01*
X037988Y004392D01*
X037926Y004398D01*
X037865Y004407D01*
X037804Y004420D01*
X037744Y004437D01*
X037686Y004457D01*
X037628Y004481D01*
X037572Y004508D01*
X037518Y004538D01*
X037466Y004572D01*
X037416Y004609D01*
X037368Y004649D01*
X037323Y004691D01*
X037280Y004736D01*
X037240Y004784D01*
X037203Y004834D01*
X037170Y004886D01*
X037139Y004940D01*
X037112Y004996D01*
X037088Y005054D01*
X037067Y005112D01*
X037076Y005115D01*
X037096Y005057D01*
X037120Y005000D01*
X037147Y004945D01*
X037177Y004891D01*
X037211Y004839D01*
X037247Y004790D01*
X037287Y004742D01*
X037329Y004698D01*
X037374Y004655D01*
X037421Y004616D01*
X037471Y004580D01*
X037523Y004546D01*
X037576Y004516D01*
X037632Y004489D01*
X037689Y004465D01*
X037747Y004445D01*
X037806Y004429D01*
X037867Y004416D01*
X037927Y004406D01*
X037989Y004401D01*
X038050Y004399D01*
X038112Y004401D01*
X038173Y004406D01*
X038234Y004416D01*
X038295Y004428D01*
X038354Y004445D01*
X038412Y004465D01*
X038469Y004488D01*
X038525Y004515D01*
X038578Y004545D01*
X038630Y004579D01*
X038680Y004615D01*
X002696Y022965D02*
X002696Y022875D01*
X002696Y022876D02*
X002642Y022874D01*
X002589Y022868D01*
X002536Y022858D01*
X002484Y022844D01*
X002433Y022827D01*
X002384Y022806D01*
X002336Y022782D01*
X002290Y022754D01*
X002246Y022723D01*
X002204Y022689D01*
X002165Y022653D01*
X002128Y022613D01*
X002095Y022571D01*
X002064Y022527D01*
X002037Y022481D01*
X001958Y022523D01*
X001986Y022572D01*
X002018Y022618D01*
X002053Y022663D01*
X002090Y022705D01*
X002131Y022744D01*
X002174Y022781D01*
X002219Y022815D01*
X002266Y022846D01*
X002316Y022873D01*
X002367Y022897D01*
X002419Y022918D01*
X002473Y022935D01*
X002528Y022948D01*
X002583Y022958D01*
X002640Y022964D01*
X002696Y022966D01*
X002696Y022957D01*
X002640Y022955D01*
X002585Y022949D01*
X002530Y022939D01*
X002475Y022926D01*
X002422Y022909D01*
X002370Y022889D01*
X002320Y022865D01*
X002271Y022838D01*
X002224Y022808D01*
X002179Y022774D01*
X002137Y022738D01*
X002097Y022699D01*
X002060Y022657D01*
X002025Y022613D01*
X001994Y022567D01*
X001966Y022519D01*
X001974Y022515D01*
X002002Y022562D01*
X002033Y022608D01*
X002067Y022651D01*
X002103Y022693D01*
X002143Y022731D01*
X002185Y022767D01*
X002229Y022800D01*
X002275Y022830D01*
X002324Y022857D01*
X002374Y022880D01*
X002425Y022901D01*
X002478Y022917D01*
X002531Y022930D01*
X002586Y022940D01*
X002641Y022946D01*
X002696Y022948D01*
X002696Y022939D01*
X002641Y022937D01*
X002587Y022931D01*
X002533Y022922D01*
X002480Y022909D01*
X002428Y022892D01*
X002377Y022872D01*
X002328Y022849D01*
X002280Y022822D01*
X002234Y022793D01*
X002190Y022760D01*
X002149Y022725D01*
X002110Y022686D01*
X002073Y022646D01*
X002040Y022603D01*
X002009Y022557D01*
X001982Y022510D01*
X001990Y022506D01*
X002017Y022553D01*
X002047Y022597D01*
X002080Y022640D01*
X002116Y022680D01*
X002155Y022718D01*
X002196Y022753D01*
X002239Y022785D01*
X002285Y022815D01*
X002332Y022841D01*
X002381Y022864D01*
X002431Y022884D01*
X002483Y022900D01*
X002535Y022913D01*
X002588Y022922D01*
X002642Y022928D01*
X002696Y022930D01*
X002696Y022921D01*
X002643Y022919D01*
X002589Y022913D01*
X002537Y022904D01*
X002485Y022891D01*
X002434Y022875D01*
X002384Y022856D01*
X002336Y022833D01*
X002289Y022807D01*
X002245Y022778D01*
X002202Y022746D01*
X002161Y022711D01*
X002123Y022674D01*
X002087Y022634D01*
X002054Y022592D01*
X002024Y022548D01*
X001997Y022502D01*
X002005Y022498D01*
X002032Y022543D01*
X002062Y022587D01*
X002094Y022628D01*
X002129Y022668D01*
X002167Y022705D01*
X002207Y022739D01*
X002250Y022771D01*
X002294Y022799D01*
X002340Y022825D01*
X002388Y022847D01*
X002437Y022867D01*
X002487Y022883D01*
X002539Y022895D01*
X002591Y022904D01*
X002643Y022910D01*
X002696Y022912D01*
X002696Y022903D01*
X002640Y022901D01*
X002585Y022894D01*
X002530Y022884D01*
X002476Y022870D01*
X002424Y022852D01*
X002372Y022831D01*
X002323Y022805D01*
X002275Y022777D01*
X002229Y022745D01*
X002186Y022710D01*
X002146Y022672D01*
X002108Y022631D01*
X002073Y022587D01*
X002042Y022541D01*
X002013Y022493D01*
X002021Y022489D01*
X002049Y022537D01*
X002080Y022582D01*
X002115Y022625D01*
X002152Y022665D01*
X002192Y022703D01*
X002235Y022738D01*
X002280Y022769D01*
X002327Y022798D01*
X002376Y022822D01*
X002427Y022844D01*
X002479Y022861D01*
X002532Y022875D01*
X002586Y022885D01*
X002641Y022892D01*
X002696Y022894D01*
X002696Y022885D01*
X002642Y022883D01*
X002588Y022877D01*
X002534Y022867D01*
X002482Y022853D01*
X002430Y022835D01*
X002380Y022814D01*
X002331Y022790D01*
X002285Y022762D01*
X002240Y022730D01*
X002198Y022696D01*
X002159Y022659D01*
X002122Y022619D01*
X002088Y022577D01*
X002057Y022532D01*
X002029Y022485D01*
X001970Y021698D02*
X002048Y021743D01*
X002048Y021742D02*
X002076Y021698D01*
X002107Y021656D01*
X002140Y021616D01*
X002176Y021578D01*
X002215Y021543D01*
X002256Y021511D01*
X002300Y021481D01*
X002345Y021455D01*
X002392Y021432D01*
X002440Y021412D01*
X002490Y021396D01*
X002540Y021383D01*
X002592Y021374D01*
X002644Y021368D01*
X002696Y021366D01*
X002697Y021277D01*
X002696Y021276D01*
X002641Y021278D01*
X002587Y021284D01*
X002532Y021293D01*
X002479Y021306D01*
X002427Y021322D01*
X002375Y021341D01*
X002325Y021364D01*
X002277Y021390D01*
X002230Y021419D01*
X002186Y021451D01*
X002143Y021486D01*
X002103Y021524D01*
X002066Y021564D01*
X002031Y021606D01*
X001999Y021651D01*
X001970Y021697D01*
X001978Y021702D01*
X002006Y021656D01*
X002038Y021612D01*
X002073Y021570D01*
X002110Y021530D01*
X002149Y021493D01*
X002191Y021458D01*
X002235Y021427D01*
X002281Y021398D01*
X002329Y021372D01*
X002379Y021350D01*
X002429Y021330D01*
X002481Y021314D01*
X002534Y021302D01*
X002588Y021293D01*
X002642Y021287D01*
X002696Y021285D01*
X002696Y021294D01*
X002642Y021296D01*
X002589Y021302D01*
X002536Y021311D01*
X002484Y021323D01*
X002432Y021339D01*
X002382Y021358D01*
X002333Y021380D01*
X002286Y021406D01*
X002240Y021434D01*
X002197Y021466D01*
X002155Y021500D01*
X002116Y021536D01*
X002079Y021576D01*
X002045Y021617D01*
X002014Y021661D01*
X001985Y021706D01*
X001993Y021711D01*
X002023Y021663D01*
X002057Y021617D01*
X002093Y021574D01*
X002133Y021533D01*
X002175Y021495D01*
X002219Y021460D01*
X002266Y021428D01*
X002315Y021400D01*
X002366Y021375D01*
X002419Y021353D01*
X002472Y021336D01*
X002527Y021322D01*
X002583Y021312D01*
X002639Y021305D01*
X002696Y021303D01*
X002696Y021312D01*
X002640Y021314D01*
X002584Y021320D01*
X002529Y021330D01*
X002475Y021344D01*
X002422Y021362D01*
X002370Y021383D01*
X002319Y021408D01*
X002271Y021436D01*
X002225Y021467D01*
X002180Y021502D01*
X002139Y021539D01*
X002100Y021580D01*
X002064Y021622D01*
X002031Y021668D01*
X002001Y021715D01*
X002009Y021720D01*
X002038Y021673D01*
X002071Y021628D01*
X002107Y021586D01*
X002145Y021546D01*
X002186Y021509D01*
X002230Y021474D01*
X002276Y021443D01*
X002324Y021416D01*
X002373Y021391D01*
X002425Y021370D01*
X002477Y021353D01*
X002531Y021339D01*
X002586Y021329D01*
X002641Y021323D01*
X002696Y021321D01*
X002696Y021330D01*
X002641Y021332D01*
X002587Y021338D01*
X002533Y021348D01*
X002480Y021362D01*
X002428Y021379D01*
X002377Y021399D01*
X002328Y021424D01*
X002281Y021451D01*
X002235Y021482D01*
X002192Y021515D01*
X002151Y021552D01*
X002113Y021592D01*
X002078Y021634D01*
X002046Y021678D01*
X002017Y021724D01*
X002025Y021729D01*
X002053Y021683D01*
X002085Y021639D01*
X002120Y021598D01*
X002158Y021559D01*
X002198Y021522D01*
X002240Y021489D01*
X002285Y021459D01*
X002332Y021431D01*
X002381Y021408D01*
X002431Y021387D01*
X002482Y021370D01*
X002535Y021357D01*
X002588Y021347D01*
X002642Y021341D01*
X002696Y021339D01*
X002696Y021348D01*
X002643Y021350D01*
X002589Y021356D01*
X002537Y021366D01*
X002485Y021379D01*
X002434Y021396D01*
X002384Y021416D01*
X002336Y021439D01*
X002290Y021466D01*
X002246Y021496D01*
X002204Y021529D01*
X002164Y021565D01*
X002127Y021604D01*
X002092Y021645D01*
X002061Y021688D01*
X002032Y021733D01*
X002040Y021738D01*
X002068Y021693D01*
X002099Y021650D01*
X002133Y021610D01*
X002170Y021572D01*
X002209Y021536D01*
X002251Y021504D01*
X002295Y021474D01*
X002341Y021447D01*
X002388Y021424D01*
X002437Y021404D01*
X002487Y021387D01*
X002539Y021374D01*
X002591Y021365D01*
X002643Y021359D01*
X002696Y021357D01*
X002705Y021277D02*
X002705Y021367D01*
X002706Y021366D02*
X002760Y021368D01*
X002813Y021374D01*
X002866Y021384D01*
X002918Y021398D01*
X002969Y021415D01*
X003019Y021436D01*
X003067Y021460D01*
X003113Y021488D01*
X003157Y021519D01*
X003198Y021553D01*
X003238Y021590D01*
X003274Y021629D01*
X003342Y021572D01*
X003343Y021571D01*
X003305Y021530D01*
X003265Y021492D01*
X003222Y021456D01*
X003177Y021423D01*
X003130Y021393D01*
X003082Y021367D01*
X003031Y021343D01*
X002979Y021323D01*
X002926Y021307D01*
X002872Y021293D01*
X002817Y021284D01*
X002762Y021278D01*
X002706Y021276D01*
X002706Y021285D01*
X002761Y021287D01*
X002816Y021293D01*
X002870Y021302D01*
X002924Y021315D01*
X002976Y021332D01*
X003028Y021351D01*
X003078Y021375D01*
X003126Y021401D01*
X003172Y021431D01*
X003217Y021463D01*
X003259Y021498D01*
X003299Y021537D01*
X003336Y021577D01*
X003329Y021583D01*
X003292Y021543D01*
X003253Y021505D01*
X003211Y021470D01*
X003167Y021438D01*
X003121Y021409D01*
X003073Y021383D01*
X003024Y021360D01*
X002973Y021340D01*
X002921Y021324D01*
X002868Y021311D01*
X002815Y021302D01*
X002760Y021296D01*
X002706Y021294D01*
X002706Y021303D01*
X002760Y021305D01*
X002813Y021311D01*
X002866Y021320D01*
X002919Y021333D01*
X002970Y021349D01*
X003021Y021368D01*
X003069Y021391D01*
X003117Y021416D01*
X003162Y021445D01*
X003206Y021477D01*
X003247Y021512D01*
X003286Y021549D01*
X003322Y021589D01*
X003315Y021595D01*
X003279Y021555D01*
X003241Y021518D01*
X003200Y021484D01*
X003157Y021453D01*
X003112Y021424D01*
X003065Y021399D01*
X003017Y021376D01*
X002967Y021357D01*
X002916Y021341D01*
X002865Y021329D01*
X002812Y021320D01*
X002759Y021314D01*
X002706Y021312D01*
X002706Y021321D01*
X002759Y021323D01*
X002811Y021329D01*
X002863Y021338D01*
X002914Y021350D01*
X002964Y021366D01*
X003014Y021385D01*
X003061Y021407D01*
X003108Y021432D01*
X003152Y021460D01*
X003194Y021491D01*
X003235Y021525D01*
X003273Y021562D01*
X003308Y021600D01*
X003302Y021606D01*
X003266Y021568D01*
X003229Y021532D01*
X003189Y021498D01*
X003147Y021468D01*
X003103Y021440D01*
X003057Y021415D01*
X003010Y021393D01*
X002961Y021374D01*
X002912Y021359D01*
X002861Y021346D01*
X002810Y021338D01*
X002758Y021332D01*
X002706Y021330D01*
X002706Y021339D01*
X002762Y021341D01*
X002817Y021348D01*
X002872Y021358D01*
X002926Y021372D01*
X002979Y021390D01*
X003030Y021412D01*
X003080Y021437D01*
X003128Y021466D01*
X003173Y021498D01*
X003216Y021533D01*
X003257Y021571D01*
X003295Y021612D01*
X003288Y021618D01*
X003251Y021577D01*
X003210Y021540D01*
X003168Y021505D01*
X003123Y021473D01*
X003075Y021445D01*
X003026Y021420D01*
X002975Y021398D01*
X002923Y021381D01*
X002870Y021367D01*
X002816Y021357D01*
X002761Y021350D01*
X002706Y021348D01*
X002706Y021357D01*
X002760Y021359D01*
X002815Y021365D01*
X002868Y021375D01*
X002921Y021389D01*
X002972Y021407D01*
X003022Y021428D01*
X003071Y021453D01*
X003118Y021481D01*
X003162Y021512D01*
X003204Y021546D01*
X003244Y021584D01*
X003281Y021624D01*
X003346Y022665D02*
X003277Y022608D01*
X003278Y022608D02*
X003241Y022648D01*
X003202Y022686D01*
X003160Y022720D01*
X003116Y022752D01*
X003070Y022780D01*
X003021Y022805D01*
X002971Y022826D01*
X002920Y022844D01*
X002867Y022857D01*
X002814Y022867D01*
X002760Y022874D01*
X002706Y022876D01*
X002705Y022965D01*
X002706Y022966D01*
X002762Y022964D01*
X002818Y022958D01*
X002873Y022948D01*
X002928Y022935D01*
X002981Y022918D01*
X003034Y022898D01*
X003085Y022874D01*
X003134Y022847D01*
X003181Y022816D01*
X003226Y022783D01*
X003269Y022747D01*
X003309Y022708D01*
X003347Y022666D01*
X003340Y022660D01*
X003303Y022701D01*
X003263Y022740D01*
X003221Y022776D01*
X003176Y022809D01*
X003129Y022839D01*
X003081Y022866D01*
X003030Y022889D01*
X002978Y022910D01*
X002925Y022926D01*
X002871Y022939D01*
X002817Y022949D01*
X002762Y022955D01*
X002706Y022957D01*
X002706Y022948D01*
X002761Y022946D01*
X002816Y022940D01*
X002870Y022931D01*
X002923Y022918D01*
X002975Y022901D01*
X003027Y022881D01*
X003076Y022858D01*
X003125Y022831D01*
X003171Y022802D01*
X003215Y022769D01*
X003257Y022733D01*
X003296Y022695D01*
X003333Y022654D01*
X003326Y022649D01*
X003290Y022689D01*
X003251Y022727D01*
X003209Y022762D01*
X003166Y022794D01*
X003120Y022824D01*
X003072Y022850D01*
X003023Y022873D01*
X002973Y022893D01*
X002921Y022909D01*
X002868Y022922D01*
X002814Y022931D01*
X002760Y022937D01*
X002706Y022939D01*
X002706Y022930D01*
X002760Y022928D01*
X002813Y022922D01*
X002866Y022913D01*
X002918Y022900D01*
X002970Y022884D01*
X003020Y022865D01*
X003068Y022842D01*
X003115Y022816D01*
X003161Y022787D01*
X003204Y022755D01*
X003245Y022720D01*
X003283Y022683D01*
X003319Y022643D01*
X003312Y022637D01*
X003277Y022676D01*
X003239Y022713D01*
X003198Y022748D01*
X003155Y022779D01*
X003111Y022808D01*
X003064Y022834D01*
X003016Y022856D01*
X002967Y022876D01*
X002916Y022892D01*
X002864Y022904D01*
X002812Y022913D01*
X002759Y022919D01*
X002706Y022921D01*
X002706Y022912D01*
X002758Y022910D01*
X002811Y022904D01*
X002862Y022895D01*
X002913Y022883D01*
X002964Y022867D01*
X003013Y022848D01*
X003060Y022826D01*
X003106Y022800D01*
X003150Y022772D01*
X003192Y022741D01*
X003233Y022707D01*
X003270Y022670D01*
X003305Y022631D01*
X003299Y022625D01*
X003264Y022664D01*
X003226Y022700D01*
X003187Y022734D01*
X003145Y022765D01*
X003101Y022793D01*
X003056Y022818D01*
X003009Y022840D01*
X002961Y022859D01*
X002911Y022874D01*
X002861Y022887D01*
X002810Y022895D01*
X002758Y022901D01*
X002706Y022903D01*
X002706Y022894D01*
X002757Y022892D01*
X002808Y022887D01*
X002859Y022878D01*
X002909Y022866D01*
X002958Y022850D01*
X003005Y022832D01*
X003052Y022810D01*
X003097Y022785D01*
X003140Y022757D01*
X003181Y022727D01*
X003220Y022694D01*
X003257Y022658D01*
X003292Y022620D01*
X003285Y022614D01*
X003248Y022655D01*
X003208Y022693D01*
X003166Y022727D01*
X003121Y022759D01*
X003074Y022788D01*
X003025Y022813D01*
X002974Y022834D01*
X002923Y022852D01*
X002869Y022866D01*
X002815Y022876D01*
X002761Y022883D01*
X002706Y022885D01*
M02*
