G75*
G70*
%OFA0B0*%
%FSLAX24Y24*%
%IPPOS*%
%LPD*%
%AMOC8*
5,1,8,0,0,1.08239X$1,22.5*
%
%ADD10C,0.0740*%
%ADD11R,0.0630X0.0709*%
%ADD12C,0.0600*%
%ADD13R,0.0984X0.0197*%
%ADD14R,0.0984X0.0787*%
%ADD15C,0.0554*%
%ADD16R,0.1260X0.0906*%
%ADD17R,0.0787X0.0236*%
%ADD18R,0.1181X0.1890*%
%ADD19R,0.2550X0.0600*%
%ADD20C,0.0945*%
%ADD21C,0.0591*%
%ADD22C,0.0600*%
%ADD23R,0.0236X0.0866*%
%ADD24R,0.0630X0.0551*%
%ADD25R,0.0709X0.0630*%
%ADD26C,0.0669*%
%ADD27R,0.0515X0.0515*%
%ADD28C,0.0515*%
%ADD29C,0.0100*%
%ADD30C,0.0357*%
%ADD31C,0.0160*%
%ADD32C,0.0120*%
%ADD33C,0.0240*%
%ADD34C,0.0396*%
%ADD35OC8,0.0396*%
D10*
X014641Y012955D03*
X014641Y014095D03*
X017844Y014095D03*
X017844Y012955D03*
X021111Y012955D03*
X021111Y014095D03*
X022118Y011778D03*
X022868Y011278D03*
X022118Y010778D03*
X025594Y011245D03*
X027374Y011245D03*
X027374Y013805D03*
X025594Y013805D03*
X027863Y008542D03*
X027863Y007542D03*
X027863Y006592D03*
X028863Y006492D03*
X029863Y006592D03*
X027863Y005542D03*
X027863Y004542D03*
X026863Y006492D03*
X025863Y006592D03*
X022484Y004946D03*
X021484Y004946D03*
X020484Y004946D03*
X003854Y017764D03*
X002854Y017764D03*
X002854Y020592D03*
X003854Y020592D03*
X003354Y022704D03*
X003454Y023704D03*
X003354Y024704D03*
X003454Y025704D03*
X003354Y026704D03*
X003454Y027704D03*
X019162Y028410D03*
X019262Y027410D03*
X019162Y026410D03*
X019262Y025410D03*
X019162Y024410D03*
X019262Y029410D03*
X019162Y030410D03*
X032723Y029860D03*
X032723Y028860D03*
D11*
X029912Y029978D03*
X028810Y029978D03*
X022140Y029652D03*
X021038Y029652D03*
X021038Y028192D03*
X022140Y028192D03*
X022145Y026730D03*
X021042Y026730D03*
X024956Y009565D03*
X026058Y009565D03*
X026058Y008257D03*
X024956Y008257D03*
X019083Y007103D03*
X017980Y007103D03*
X032048Y006099D03*
X033151Y006099D03*
X033150Y004598D03*
X032047Y004598D03*
D12*
X032594Y002956D02*
X032594Y002356D01*
X031594Y002256D02*
X031594Y002856D01*
X033594Y002856D02*
X033594Y002256D01*
X028939Y002256D02*
X028939Y002856D01*
X027939Y002956D02*
X027939Y002356D01*
X026939Y002256D02*
X026939Y002856D01*
X025939Y002956D02*
X025939Y002356D01*
X023344Y002256D02*
X023344Y002856D01*
X022344Y002956D02*
X022344Y002356D01*
X021344Y002256D02*
X021344Y002856D01*
X020344Y002956D02*
X020344Y002356D01*
X019344Y002256D02*
X019344Y002856D01*
X016594Y002856D02*
X016594Y002256D01*
X015594Y002356D02*
X015594Y002956D01*
X014594Y002856D02*
X014594Y002256D01*
X013594Y002356D02*
X013594Y002956D01*
X038024Y004756D02*
X038624Y004756D01*
X038724Y005756D02*
X038124Y005756D01*
X038024Y006756D02*
X038624Y006756D01*
X038724Y007756D02*
X038124Y007756D01*
D13*
X005515Y012477D03*
X005515Y012792D03*
X005515Y013107D03*
X005515Y013422D03*
X005515Y013737D03*
D14*
X005515Y014879D03*
X003350Y014879D03*
X003350Y011336D03*
X005515Y011336D03*
D15*
X004531Y012241D03*
X004531Y013974D03*
D16*
X027840Y015748D03*
X027840Y027303D03*
D17*
X028076Y026024D03*
X028076Y025709D03*
X028076Y025394D03*
X028076Y025079D03*
X028076Y024764D03*
X028076Y024449D03*
X028076Y024134D03*
X028076Y023819D03*
X028076Y023504D03*
X028076Y023189D03*
X028076Y022874D03*
X028076Y022559D03*
X028076Y022244D03*
X028076Y021929D03*
X028076Y021614D03*
X028076Y021299D03*
X028076Y020984D03*
X028076Y020669D03*
X028076Y018976D03*
X028076Y018661D03*
X028076Y018346D03*
X028076Y018031D03*
X028076Y017716D03*
X028076Y017401D03*
X028076Y017087D03*
X028076Y016772D03*
X024848Y017047D03*
X024848Y017362D03*
X024848Y017677D03*
X024848Y017992D03*
X024848Y018307D03*
X024848Y018622D03*
X024848Y018937D03*
X024848Y019252D03*
X024848Y020827D03*
X024848Y021142D03*
X024848Y021457D03*
X024848Y021772D03*
X024848Y022087D03*
X024848Y022401D03*
X024848Y022716D03*
X024848Y023031D03*
X024848Y023346D03*
X024848Y023661D03*
X024848Y023976D03*
X024848Y024291D03*
X024848Y024606D03*
X024848Y024921D03*
X024848Y025236D03*
X024848Y025551D03*
X024848Y025866D03*
X024848Y026181D03*
D18*
X007859Y026299D03*
X005379Y026299D03*
X005379Y016772D03*
X007859Y016772D03*
D19*
X041844Y016796D03*
X041844Y015796D03*
X041844Y014796D03*
X041844Y013796D03*
X041844Y012796D03*
X041844Y011796D03*
X041844Y010796D03*
X041844Y009796D03*
X041844Y008796D03*
X041844Y007796D03*
X041844Y006796D03*
X041844Y005796D03*
X041844Y004796D03*
X041844Y003796D03*
X041844Y017796D03*
X041844Y018796D03*
X041844Y019796D03*
X041844Y020796D03*
X041844Y021796D03*
X041844Y022796D03*
X041844Y023796D03*
X041844Y024796D03*
X041844Y025796D03*
X041844Y026796D03*
X041844Y027796D03*
D20*
X005564Y003896D03*
X005564Y009996D03*
D21*
X006864Y008696D03*
X007864Y008196D03*
X006864Y007696D03*
X007864Y007196D03*
X006864Y006696D03*
X007864Y006196D03*
X006864Y005696D03*
X007864Y005196D03*
D22*
X009764Y004796D03*
X009764Y005796D03*
X009764Y008096D03*
X009764Y009096D03*
D23*
X017542Y008835D03*
X018042Y008835D03*
X018542Y008835D03*
X019042Y008835D03*
X019042Y010882D03*
X018542Y010882D03*
X018042Y010882D03*
X017542Y010882D03*
D24*
X015739Y011260D03*
X015739Y010158D03*
X015685Y008929D03*
X015685Y007826D03*
D25*
X020652Y009925D03*
X020652Y011028D03*
X021486Y007913D03*
X021486Y006811D03*
D26*
X014266Y008027D03*
X014266Y011027D03*
D27*
X034784Y007096D03*
D28*
X033784Y007096D03*
X033784Y008096D03*
X034784Y008096D03*
X034784Y009096D03*
X033784Y009096D03*
X033784Y010096D03*
X034784Y010096D03*
X034784Y011096D03*
X033784Y011096D03*
X033784Y012096D03*
X034784Y012096D03*
X034784Y013096D03*
X033784Y013096D03*
X033784Y014096D03*
X034784Y014096D03*
X034784Y015096D03*
X033784Y015096D03*
X033784Y016096D03*
X034784Y016096D03*
X034784Y017096D03*
X033784Y017096D03*
X033784Y018096D03*
X034784Y018096D03*
X034784Y019096D03*
X033784Y019096D03*
X033784Y020096D03*
X034784Y020096D03*
X034784Y021096D03*
X033784Y021096D03*
X033784Y022096D03*
X034784Y022096D03*
X034784Y023096D03*
X033784Y023096D03*
X033784Y024096D03*
X034784Y024096D03*
X034784Y025096D03*
X033784Y025096D03*
X033784Y026096D03*
X034784Y026096D03*
X034784Y027096D03*
X033784Y027096D03*
D29*
X029244Y027096D01*
X028784Y026576D02*
X034264Y026576D01*
X034784Y027096D01*
X034831Y026143D02*
X034784Y026096D01*
X034241Y025553D01*
X034241Y025536D01*
X029724Y025536D01*
X029024Y024134D01*
X028076Y024134D01*
X028076Y024449D02*
X026884Y024449D01*
X026884Y019996D01*
X013774Y019996D01*
X013774Y019976D01*
X013254Y019456D01*
X013254Y007796D01*
X012624Y007166D01*
X007894Y007166D01*
X007864Y007196D01*
X007824Y007196D01*
X007374Y006746D01*
X007374Y006206D01*
X006864Y005696D01*
X007864Y005196D02*
X009394Y006726D01*
X012847Y006726D01*
X013588Y007467D01*
X013588Y008296D01*
X013590Y008299D01*
X013590Y019338D01*
X014006Y019754D01*
X024870Y019693D01*
X024848Y019252D02*
X023864Y019252D01*
X023864Y019236D01*
X024848Y018937D02*
X022715Y018937D01*
X022704Y018926D01*
X022247Y018622D02*
X022142Y018518D01*
X022247Y018622D02*
X024848Y018622D01*
X024848Y018307D02*
X023345Y018342D01*
X023324Y018313D01*
X024024Y017666D02*
X024837Y017666D01*
X024848Y017677D01*
X024848Y017362D02*
X024064Y017362D01*
X024064Y014516D01*
X022868Y013320D01*
X022868Y011278D01*
X022583Y010778D02*
X022118Y010778D01*
X022583Y010778D02*
X023435Y009925D01*
X020864Y009925D01*
X020864Y009926D01*
X017561Y009926D01*
X017565Y009929D02*
X017565Y008858D01*
X017542Y008835D01*
X017542Y007898D01*
X017551Y007889D01*
X016725Y007889D01*
X015685Y008929D01*
X015685Y007826D02*
X015613Y007754D01*
X015012Y007754D01*
X014999Y007767D01*
X014999Y010159D01*
X015000Y010158D01*
X015739Y010158D01*
X015776Y010121D01*
X015358Y011260D02*
X014283Y010186D01*
X014283Y008043D01*
X014266Y008027D01*
X012904Y007936D02*
X012624Y007656D01*
X007654Y007656D01*
X007374Y007376D01*
X007374Y007206D01*
X006864Y006696D01*
X006864Y007696D02*
X006924Y007696D01*
X007374Y008146D01*
X007374Y008916D01*
X008074Y009616D01*
X011294Y009616D01*
X011644Y009966D01*
X011644Y020746D01*
X012164Y021266D01*
X020349Y021266D01*
X020349Y024376D01*
X020894Y024921D01*
X024848Y024921D01*
X024848Y024606D02*
X021029Y024606D01*
X020579Y024156D01*
X020579Y021066D01*
X012624Y021066D01*
X012064Y020506D01*
X012064Y009686D01*
X011474Y009096D01*
X009764Y009096D01*
X008951Y010110D02*
X005678Y010110D01*
X005564Y009996D01*
X006250Y010682D01*
X006250Y012322D01*
X006095Y012477D01*
X005515Y012477D01*
X005515Y013107D02*
X006574Y013107D01*
X006668Y013013D01*
X006668Y011160D01*
X006658Y011150D01*
X007146Y011454D02*
X006906Y011694D01*
X006906Y013394D01*
X006860Y013420D01*
X005515Y013422D01*
X005520Y013732D02*
X007211Y013750D01*
X007211Y012479D01*
X007211Y012198D01*
X008133Y011275D01*
X008552Y010850D01*
X009111Y011282D02*
X009111Y010269D01*
X008951Y010110D01*
X009111Y011282D02*
X008436Y011957D01*
X008436Y012731D01*
X009148Y011987D02*
X009148Y013756D01*
X005520Y013732D02*
X005515Y013737D01*
X003335Y014029D02*
X003335Y012219D01*
X005564Y009996D02*
X006864Y008696D01*
X005564Y009996D02*
X005564Y003896D01*
X008864Y003896D01*
X009764Y004796D01*
X009848Y004880D01*
X013176Y004880D01*
X013571Y004484D01*
X013594Y004484D01*
X013594Y002656D01*
X013594Y002656D01*
X014594Y002556D02*
X014594Y001801D01*
X015366Y001030D01*
X033964Y001030D01*
X034012Y001078D01*
X034210Y001513D02*
X035082Y000640D01*
X038850Y000640D01*
X039200Y000991D01*
X039200Y003385D01*
X039611Y003796D01*
X041844Y003796D01*
X041844Y004796D02*
X039802Y004796D01*
X039325Y005273D01*
X038424Y005756D02*
X041804Y005756D01*
X041844Y005796D01*
X041844Y006796D02*
X040184Y006796D01*
X039224Y007756D01*
X038424Y007756D01*
X036276Y007507D02*
X036276Y010027D01*
X036380Y010132D01*
X037764Y010416D02*
X039744Y010436D01*
X040384Y009796D01*
X041844Y009796D01*
X041844Y012756D02*
X038064Y012756D01*
X038064Y018536D01*
X035224Y018536D01*
X034784Y018096D01*
X034284Y017596D01*
X031844Y017596D01*
X031464Y017976D01*
X031464Y021614D01*
X028076Y021614D01*
X028089Y021916D02*
X031673Y021906D01*
X031683Y018916D01*
X032084Y018556D01*
X034244Y018556D01*
X034784Y019096D01*
X034784Y019091D01*
X038304Y019091D01*
X038299Y012950D01*
X039951Y012944D01*
X040176Y013797D01*
X041844Y013796D01*
X041844Y012796D02*
X041844Y012756D01*
X039649Y013592D02*
X039347Y013600D01*
X038516Y014060D01*
X038516Y015748D01*
X038564Y015796D01*
X041844Y015796D01*
X041844Y016796D02*
X038804Y016796D01*
X038804Y021146D01*
X034784Y021146D01*
X034784Y021096D01*
X034324Y020636D01*
X032612Y020636D01*
X032611Y020076D01*
X032244Y019596D02*
X034284Y019596D01*
X034784Y020096D01*
X034784Y020118D01*
X038564Y020118D01*
X038564Y015796D01*
X039344Y015496D02*
X040276Y015496D01*
X039924Y017116D02*
X039924Y019196D01*
X040364Y019336D02*
X040364Y019036D01*
X040604Y018796D01*
X041844Y018796D01*
X041844Y019796D02*
X040424Y019796D01*
X039724Y020496D01*
X039612Y020520D01*
X039864Y020796D02*
X039624Y021036D01*
X039864Y020796D02*
X041844Y020796D01*
X041844Y021796D02*
X040004Y021796D01*
X039284Y021256D01*
X039304Y017116D01*
X037764Y018156D02*
X035844Y018156D01*
X034784Y017096D01*
X034764Y017116D01*
X034404Y017116D01*
X033924Y016636D01*
X032060Y016636D01*
X032060Y016197D01*
X031604Y015596D02*
X034284Y015596D01*
X034784Y016096D01*
X036397Y016112D01*
X036680Y015840D01*
X036824Y016796D02*
X035664Y016796D01*
X035284Y016796D02*
X035284Y017116D01*
X035544Y017376D01*
X035664Y017376D01*
X036824Y017376D01*
X037764Y018156D02*
X037764Y010416D01*
X036404Y011916D02*
X036164Y011676D01*
X034204Y011676D01*
X033784Y012096D01*
X033350Y011899D01*
X032804Y011902D01*
X032614Y011712D01*
X031395Y011712D01*
X031220Y011711D01*
X030250Y011711D01*
X030580Y011407D02*
X033014Y011450D01*
X033706Y011018D02*
X033784Y011096D01*
X033706Y011018D02*
X030798Y011018D01*
X030258Y010477D01*
X029947Y010075D02*
X030281Y009742D01*
X030318Y009705D01*
X034420Y009705D01*
X034784Y010069D01*
X034784Y010096D01*
X034444Y009516D02*
X034784Y009096D01*
X034444Y009516D02*
X030164Y009516D01*
X029774Y009906D01*
X029774Y017401D01*
X028076Y017401D01*
X028076Y017087D02*
X029574Y017087D01*
X029574Y009226D01*
X030244Y008556D01*
X034324Y008556D01*
X034784Y008096D01*
X034204Y007676D02*
X034784Y007096D01*
X034412Y006377D02*
X035672Y006371D01*
X036430Y006677D02*
X036447Y006660D01*
X036430Y006677D02*
X032248Y006677D01*
X032048Y006478D01*
X032048Y006099D01*
X031082Y006056D02*
X031082Y006478D01*
X031082Y006056D02*
X030902Y005875D01*
X029480Y005875D01*
X028863Y006492D01*
X027913Y005542D01*
X027863Y005542D01*
X028644Y004760D01*
X028644Y004236D01*
X027939Y003531D01*
X027939Y002656D01*
X026939Y002556D02*
X026939Y003618D01*
X027863Y004542D01*
X027837Y005516D02*
X027863Y005542D01*
X027837Y005516D02*
X025524Y005516D01*
X024956Y006085D01*
X024956Y008257D01*
X026030Y008229D02*
X026030Y007202D01*
X025863Y007035D01*
X025863Y006592D01*
X026863Y006542D02*
X027863Y007542D01*
X027262Y008256D02*
X027548Y008542D01*
X027863Y008542D01*
X027262Y008256D02*
X026059Y008256D01*
X026058Y008257D01*
X026030Y008229D01*
X026058Y008257D02*
X024956Y009359D01*
X024956Y009565D01*
X024907Y009516D01*
X023844Y009516D01*
X023435Y009925D01*
X023846Y010015D02*
X024358Y010443D01*
X024358Y011801D01*
X023902Y011866D02*
X023903Y010593D01*
X024317Y009982D02*
X024631Y010291D01*
X024687Y011415D01*
X023902Y011866D02*
X024246Y012280D01*
X025076Y012280D01*
X025081Y012286D01*
X028712Y012286D01*
X028706Y012974D02*
X027135Y012974D01*
X027029Y012868D01*
X026506Y012969D02*
X026506Y013847D01*
X026977Y014319D01*
X026977Y017716D01*
X028076Y017716D01*
X029953Y017720D01*
X029953Y012195D01*
X029947Y010075D01*
X030255Y011082D02*
X030580Y011407D01*
X030567Y012029D02*
X030259Y012276D01*
X030567Y012029D02*
X032044Y012027D01*
X032403Y012298D02*
X032765Y012298D01*
X032403Y012298D02*
X032310Y012390D01*
X030925Y012392D01*
X030269Y012926D01*
X030298Y013492D02*
X030298Y018661D01*
X028076Y018661D01*
X028076Y018346D02*
X025914Y018297D01*
X025914Y015100D01*
X025914Y014212D01*
X025594Y013805D01*
X024900Y013836D02*
X023340Y012275D01*
X023340Y011961D01*
X024900Y013836D02*
X025667Y014605D01*
X025667Y019365D01*
X026586Y019365D01*
X027043Y019695D02*
X025599Y019695D01*
X025458Y019545D01*
X025458Y014872D01*
X024685Y014099D01*
X024524Y014980D02*
X024284Y015298D01*
X024284Y017047D01*
X024848Y017047D01*
X024848Y017992D02*
X024837Y018003D01*
X018499Y018003D01*
X017844Y017348D01*
X017844Y014095D01*
X016300Y012206D02*
X016589Y011918D01*
X016300Y012206D02*
X016300Y018706D01*
X016296Y018706D01*
X014189Y018807D02*
X014189Y017866D01*
X014211Y017843D01*
X014173Y017767D01*
X012904Y019576D02*
X012904Y007936D01*
X012484Y008356D02*
X012484Y019526D01*
X013844Y020886D01*
X020789Y020886D01*
X020789Y023936D01*
X021144Y024291D01*
X024848Y024291D01*
X024848Y023976D02*
X022908Y023978D01*
X023072Y023346D02*
X024848Y023346D01*
X024817Y023316D01*
X024848Y023031D02*
X021734Y023031D01*
X021734Y022796D01*
X022185Y022698D02*
X022185Y022368D01*
X022185Y022698D02*
X024848Y022716D01*
X024848Y022401D02*
X022645Y022383D01*
X022640Y022058D01*
X023272Y022086D02*
X023272Y021577D01*
X022160Y021577D01*
X022160Y020907D02*
X023460Y020907D01*
X023460Y021772D01*
X024848Y021772D01*
X024843Y021776D01*
X024847Y022086D02*
X023272Y022086D01*
X023831Y021468D02*
X023824Y021457D01*
X024848Y021457D01*
X024848Y021142D02*
X024864Y021126D01*
X025443Y021126D01*
X025514Y021055D01*
X025514Y020633D01*
X026002Y021058D02*
X026004Y025709D01*
X028076Y025709D01*
X028067Y025403D02*
X028076Y025394D01*
X028076Y025356D01*
X028076Y025366D02*
X028076Y025394D01*
X028067Y025403D02*
X027286Y025403D01*
X028076Y025079D02*
X026368Y025079D01*
X026325Y020660D01*
X026644Y020236D02*
X024484Y020236D01*
X013534Y020206D01*
X012904Y019576D01*
X013774Y019976D02*
X013774Y019986D01*
X011744Y021446D02*
X011084Y020786D01*
X011084Y010246D01*
X014266Y011027D02*
X014641Y011401D01*
X014641Y012955D01*
X015358Y011260D02*
X015739Y011260D01*
X015944Y011260D01*
X017164Y011260D01*
X017542Y010882D01*
X017542Y011645D01*
X018542Y011645D01*
X018542Y010882D01*
X019037Y010882D02*
X019042Y010882D01*
X019037Y010882D02*
X019037Y011564D01*
X020652Y011564D01*
X020652Y011028D01*
X020652Y009925D02*
X020864Y009925D01*
X021509Y008713D02*
X021509Y007936D01*
X021486Y007913D01*
X021486Y006811D02*
X021484Y006061D01*
X021484Y004946D01*
X022129Y003989D02*
X022599Y003989D01*
X023062Y004452D01*
X023062Y008617D01*
X023065Y008620D01*
X023065Y009030D01*
X023443Y008772D02*
X023305Y008635D01*
X023305Y004186D01*
X022916Y003797D01*
X022681Y003797D01*
X022344Y003460D01*
X022344Y002656D01*
X021344Y002556D02*
X021344Y003204D01*
X022129Y003989D01*
X020484Y004946D02*
X020421Y004883D01*
X018265Y004883D01*
X017980Y005168D01*
X017702Y004890D01*
X014000Y004890D01*
X013594Y004484D01*
X016594Y002556D02*
X017638Y001513D01*
X034210Y001513D01*
X034788Y001742D02*
X034788Y004651D01*
X034787Y004652D01*
X033973Y004707D02*
X033863Y004598D01*
X033150Y004598D01*
X033594Y004153D01*
X033594Y002556D01*
X031594Y002556D02*
X031594Y004145D01*
X032047Y004598D01*
X033800Y006099D02*
X033964Y005936D01*
X033800Y006099D02*
X033151Y006099D01*
X033784Y007096D02*
X033784Y007104D01*
X033521Y007367D01*
X029958Y007367D01*
X029197Y008127D01*
X029197Y014572D01*
X028789Y014980D01*
X030554Y014566D02*
X030554Y018976D01*
X028076Y018976D01*
X028045Y019703D02*
X029749Y019703D01*
X030171Y019281D01*
X030774Y020669D02*
X030774Y015386D01*
X031444Y014716D01*
X034404Y014716D01*
X034784Y015096D01*
X035304Y014096D02*
X036004Y014796D01*
X036404Y014236D02*
X036404Y011916D01*
X034784Y011096D02*
X034369Y010681D01*
X032966Y010681D01*
X034324Y012636D02*
X031044Y012636D01*
X030298Y013492D01*
X030554Y014566D02*
X031524Y013596D01*
X034284Y013596D01*
X034784Y014096D01*
X035304Y014096D01*
X035924Y013516D02*
X034644Y013516D01*
X034224Y013096D01*
X033784Y013096D01*
X034324Y012636D02*
X034784Y013096D01*
X035924Y013516D02*
X036024Y013416D01*
X033784Y014096D02*
X031504Y014096D01*
X031604Y015596D02*
X030984Y016216D01*
X030984Y020956D01*
X028104Y020956D01*
X028076Y020984D01*
X028076Y020669D02*
X027284Y020669D01*
X027284Y019937D01*
X027043Y019695D01*
X026644Y020236D02*
X026644Y024764D01*
X028076Y024764D01*
X027284Y023996D02*
X027284Y020669D01*
X028076Y020669D02*
X030774Y020669D01*
X031224Y021299D02*
X031224Y016936D01*
X031524Y016636D01*
X032060Y016636D01*
X031684Y017036D02*
X033724Y017036D01*
X033784Y017096D01*
X034324Y016636D02*
X033784Y016096D01*
X034324Y016636D02*
X035124Y016636D01*
X035284Y016796D01*
X033079Y019272D02*
X033073Y019278D01*
X031986Y019278D01*
X032244Y019596D02*
X032004Y019836D01*
X032004Y022244D01*
X028076Y022244D01*
X028013Y022496D02*
X028076Y022559D01*
X032204Y022559D01*
X032204Y020996D01*
X032612Y020636D01*
X032724Y021596D02*
X034284Y021596D01*
X034784Y022096D01*
X034784Y022136D01*
X035204Y022556D01*
X038804Y022556D01*
X039044Y022796D01*
X041844Y022796D01*
X041844Y023776D02*
X040804Y023776D01*
X040304Y023276D01*
X040124Y023096D01*
X034784Y023096D01*
X034324Y022636D01*
X033524Y022636D01*
X032964Y023196D01*
X028076Y023196D01*
X028076Y023189D01*
X028076Y023504D02*
X029384Y023504D01*
X029384Y023676D01*
X034256Y023676D01*
X034676Y024096D01*
X034784Y024096D01*
X035776Y024096D01*
X035804Y024068D01*
X035804Y023456D01*
X040084Y023456D01*
X040084Y024336D01*
X040544Y024796D01*
X041844Y024796D01*
X041844Y025696D02*
X041844Y025796D01*
X035484Y025796D01*
X034784Y025096D01*
X034664Y025096D01*
X034144Y024576D01*
X029604Y024576D01*
X029204Y023819D01*
X028076Y023819D01*
X028076Y022874D02*
X032384Y022874D01*
X032384Y021936D01*
X032724Y021596D01*
X031224Y021299D02*
X028076Y021299D01*
X028089Y021916D02*
X028076Y021929D01*
X025604Y023976D02*
X025604Y024316D01*
X025604Y023976D02*
X024848Y023976D01*
X024863Y023676D02*
X022328Y023676D01*
X023072Y023346D02*
X023085Y023347D01*
X024848Y023661D02*
X024863Y023676D01*
X024848Y025236D02*
X020719Y025236D01*
X020069Y024586D01*
X020069Y021446D01*
X011744Y021446D01*
X011659Y022698D02*
X016309Y022698D01*
X016309Y021940D01*
X013612Y021984D02*
X008771Y021984D01*
X008967Y018816D02*
X010415Y018803D01*
X010405Y018155D02*
X010386Y018135D01*
X008946Y018135D01*
X019262Y025410D02*
X019723Y025410D01*
X021042Y026730D01*
X021882Y027402D02*
X019270Y027402D01*
X019262Y027410D01*
X020255Y028195D02*
X020305Y028145D01*
X020255Y028195D02*
X020255Y029097D01*
X019941Y029410D01*
X019262Y029410D01*
X020455Y028896D02*
X020455Y030633D01*
X020038Y031059D01*
X010590Y031050D01*
X010140Y031351D02*
X020538Y031351D01*
X021038Y030851D01*
X021038Y029652D01*
X020455Y028896D02*
X021038Y028313D01*
X021038Y028192D01*
X021038Y028361D01*
X022140Y028192D02*
X022140Y028192D01*
X022140Y029652D01*
X022140Y028192D02*
X022140Y026734D01*
X022145Y026730D01*
X022145Y027139D01*
X021882Y027402D01*
X023344Y026996D02*
X023344Y026296D01*
X023775Y025866D01*
X024848Y025866D01*
X024848Y025551D02*
X025282Y025551D01*
X025597Y025867D01*
X025597Y027732D01*
X026321Y028455D01*
X028481Y028455D01*
X028874Y028848D01*
X028874Y029914D01*
X028810Y029978D01*
X029912Y029978D02*
X032604Y029978D01*
X032723Y029860D01*
X032723Y028860D02*
X032715Y028852D01*
X030294Y028852D01*
X029784Y028343D01*
X029784Y027756D01*
X028784Y026576D02*
X028784Y026024D01*
X028076Y026024D01*
X030244Y026096D02*
X033784Y026096D01*
X034831Y026143D02*
X035984Y026143D01*
X035984Y026796D01*
X041844Y026796D01*
X041844Y025796D02*
X042044Y025796D01*
X042044Y025696D01*
X041844Y025696D01*
X039624Y024976D02*
X039624Y023816D01*
X039024Y023836D02*
X036624Y023836D01*
X036544Y023916D01*
X036584Y025256D02*
X039344Y025256D01*
X039624Y024976D01*
X040300Y023281D02*
X040304Y023276D01*
X041844Y023776D02*
X041844Y023796D01*
X038564Y022056D02*
X038544Y022076D01*
X036324Y022076D01*
X039624Y020076D02*
X040364Y019336D01*
X029374Y016772D02*
X029374Y008466D01*
X030164Y007676D01*
X034204Y007676D01*
X034412Y006377D02*
X034405Y006364D01*
X036440Y005643D02*
X036447Y005635D01*
X036447Y004383D01*
X037164Y003665D01*
X037164Y003654D01*
X029863Y006592D02*
X029863Y006638D01*
X028788Y007713D01*
X028788Y011090D01*
X027551Y010561D02*
X026833Y010561D01*
X025457Y010468D01*
X026058Y009565D02*
X026471Y009565D01*
X026831Y009205D01*
X028300Y009229D02*
X028300Y009812D01*
X027551Y010561D01*
X026863Y006542D02*
X026863Y006492D01*
X026857Y005065D02*
X025939Y004148D01*
X025939Y002656D01*
X019083Y007103D02*
X019042Y007144D01*
X019042Y008835D01*
X018042Y008835D02*
X018042Y007165D01*
X017980Y007103D01*
X017980Y005168D01*
X017980Y007103D02*
X016408Y007103D01*
X015685Y007826D01*
X028076Y016772D02*
X029374Y016772D01*
X028837Y018027D02*
X028824Y018031D01*
X028076Y018031D01*
X024848Y020827D02*
X024848Y020834D01*
X024178Y020834D01*
X024191Y020827D02*
X024191Y020828D01*
X024847Y022086D02*
X024848Y022087D01*
X024833Y025536D02*
X021854Y025536D01*
X023744Y026596D02*
X024160Y026181D01*
X024848Y026181D01*
X024848Y025551D02*
X024833Y025536D01*
D30*
X023744Y026596D03*
X023344Y026996D03*
X021854Y025536D03*
X022908Y023978D03*
X022328Y023676D03*
X023085Y023347D03*
X022185Y022368D03*
X022640Y022058D03*
X022160Y021577D03*
X022160Y020907D03*
X023831Y021468D03*
X024178Y020834D03*
X024870Y019693D03*
X023864Y019236D03*
X023324Y018313D03*
X022704Y018926D03*
X022142Y018518D03*
X024024Y017666D03*
X026586Y019365D03*
X028045Y019703D03*
X026325Y020660D03*
X026002Y021058D03*
X025514Y020633D03*
X028837Y018027D03*
X030171Y019281D03*
X031986Y019278D03*
X032611Y020076D03*
X033079Y019272D03*
X035664Y017376D03*
X035664Y016796D03*
X036824Y016796D03*
X036824Y017376D03*
X036680Y015840D03*
X036844Y014896D03*
X036404Y014236D03*
X036004Y014796D03*
X035191Y015571D03*
X036024Y013416D03*
X037192Y013256D03*
X038869Y014916D03*
X039344Y015496D03*
X040276Y015496D03*
X039924Y017116D03*
X039304Y017116D03*
X039924Y019196D03*
X039624Y020076D03*
X039612Y020520D03*
X039624Y021036D03*
X038564Y022056D03*
X036324Y022076D03*
X030244Y026096D03*
X029504Y026216D03*
X029244Y027096D03*
X029784Y027756D03*
X028874Y028848D03*
X027286Y025403D03*
X025604Y024316D03*
X027284Y023996D03*
X021734Y022796D03*
X016309Y021940D03*
X013612Y021984D03*
X011659Y022698D03*
X008771Y021984D03*
X008967Y018816D03*
X008946Y018135D03*
X010405Y018155D03*
X010415Y018803D03*
X014189Y018807D03*
X014173Y017767D03*
X016296Y018706D03*
X009148Y013756D03*
X008436Y012731D03*
X009148Y011987D03*
X008552Y010850D03*
X007146Y011454D03*
X006658Y011150D03*
X007211Y012479D03*
X007211Y013750D03*
X003335Y014029D03*
X003335Y012219D03*
X016589Y011918D03*
X017561Y009926D03*
X021509Y008713D03*
X023065Y009030D03*
X023443Y008772D03*
X023846Y010015D03*
X024317Y009982D03*
X023903Y010593D03*
X024687Y011415D03*
X024358Y011801D03*
X023340Y011961D03*
X025457Y010468D03*
X026831Y009205D03*
X028300Y009229D03*
X030258Y010477D03*
X030255Y011082D03*
X030250Y011711D03*
X030259Y012276D03*
X030269Y012926D03*
X031504Y014096D03*
X032765Y012298D03*
X032044Y012027D03*
X033014Y011450D03*
X032966Y010681D03*
X036380Y010132D03*
X037164Y010516D03*
X036276Y007507D03*
X036430Y006677D03*
X035672Y006371D03*
X036440Y005643D03*
X034787Y004652D03*
X033973Y004707D03*
X033964Y005936D03*
X034405Y006364D03*
X031082Y006478D03*
X026857Y005065D03*
X034012Y001078D03*
X034788Y001742D03*
X037174Y003644D03*
X039325Y005273D03*
X028788Y011090D03*
X028712Y012286D03*
X028706Y012974D03*
X027029Y012868D03*
X026506Y012969D03*
X024685Y014099D03*
X024524Y014980D03*
X028789Y014980D03*
X031684Y017036D03*
X032060Y016197D03*
X039649Y013592D03*
X035579Y028238D03*
X020305Y028145D03*
X010590Y031050D03*
X010140Y031351D03*
D31*
X035191Y015571D02*
X035392Y015370D01*
X037289Y015370D01*
X037324Y015334D01*
X037324Y013389D01*
X037192Y013256D01*
X036844Y014896D02*
X036824Y014896D01*
X036816Y006040D01*
X035004Y006042D01*
X034469Y005340D01*
X032253Y005340D01*
X032047Y005134D01*
X032047Y004598D01*
X037164Y003654D02*
X037174Y003644D01*
X037164Y003654D02*
X037164Y010516D01*
X041844Y014796D02*
X041844Y014916D01*
X038869Y014916D01*
D32*
X028784Y025394D02*
X028076Y025394D01*
X028089Y025406D01*
X028784Y025394D02*
X029504Y026216D01*
D33*
X029784Y027756D02*
X041804Y027756D01*
X041844Y027796D01*
D34*
X036584Y025256D03*
X036544Y023916D03*
X039024Y023836D03*
X039624Y023816D03*
D35*
X012484Y008356D03*
X011084Y010246D03*
M02*
