%
M48
M72
T01C0.0200
T02C0.0280
T03C0.0350
T04C0.0380
T05C0.0420
T07C0.0600
T09C0.1250
T10C0.1520
%
T01
X8552Y10850
X7146Y11454
X6658Y11150
X7211Y12479
X8436Y12731
X9148Y11987
X9148Y13756
X7211Y13750
X3335Y14029
X3335Y12219
X8946Y18135
X8967Y18816
X10415Y18803
X10405Y18155
X14173Y17767
X14189Y18807
X16296Y18706
X16309Y21940
X13612Y21984
X11659Y22698
X8771Y21984
X20305Y28145
X23344Y26996
X23744Y26596
X21854Y25536
X22908Y23978
X22328Y23676
X23085Y23347
X22185Y22368
X22640Y22058
X22160Y21577
X22160Y20907
X23831Y21468
X24178Y20834
X24870Y19693
X23864Y19236
X23324Y18313
X22704Y18926
X22142Y18518
X24024Y17666
X26586Y19365
X28045Y19703
X26325Y20660
X26002Y21058
X25514Y20633
X28837Y18027
X30171Y19281
X31986Y19278
X32611Y20076
X33079Y19272
X35664Y17376
X35664Y16796
X36824Y16796
X36824Y17376
X36680Y15840
X36844Y14896
X36404Y14236
X36004Y14796
X35191Y15571
X36024Y13416
X37192Y13256
X38869Y14916
X39344Y15496
X40276Y15496
X39924Y17116
X39304Y17116
X39924Y19196
X39624Y20076
X39612Y20520
X39624Y21036
X38564Y22056
X36324Y22076
X30244Y26096
X29504Y26216
X29244Y27096
X29784Y27756
X28874Y28848
X27286Y25403
X25604Y24316
X27284Y23996
X21734Y22796
X31684Y17036
X32060Y16197
X31504Y14096
X30269Y12926
X30259Y12276
X30250Y11711
X30255Y11082
X30258Y10477
X28788Y11090
X28712Y12286
X28706Y12974
X27029Y12868
X26506Y12969
X24685Y14099
X24524Y14980
X23340Y11961
X24358Y11801
X24687Y11415
X23903Y10593
X23846Y10015
X24317Y9982
X25457Y10468
X26831Y9205
X28300Y9229
X31082Y6478
X33964Y5936
X34405Y6364
X35672Y6371
X36430Y6677
X36276Y7507
X36440Y5643
X34787Y4652
X33973Y4707
X37174Y3644
X39325Y5273
X34788Y1742
X34012Y1078
X26857Y5065
X23443Y8772
X23065Y9030
X21509Y8713
X17561Y9926
X16589Y11918
X28789Y14980
X32765Y12298
X32044Y12027
X33014Y11450
X32966Y10681
X36380Y10132
X37164Y10516
X39649Y13592
X35579Y28238
X10590Y31050
X10140Y31351
T02
X36584Y25256
X36544Y23916
X39024Y23836
X39624Y23816
X12484Y8356
X11084Y10246
T03
X7864Y8196
X6864Y7696
X7864Y7196
X6864Y6696
X7864Y6196
X6864Y5696
X7864Y5196
X6864Y8696
X4531Y12241
X4531Y13974
X3854Y17764
X2854Y17764
X2854Y20592
X3854Y20592
X22118Y11778
X22868Y11278
X22118Y10778
X22484Y4946
X21484Y4946
X20484Y4946
X33784Y7096
X34784Y7096
X34784Y8096
X33784Y8096
X33784Y9096
X34784Y9096
X34784Y10096
X33784Y10096
X33784Y11096
X34784Y11096
X34784Y12096
X33784Y12096
X33784Y13096
X34784Y13096
X34784Y14096
X33784Y14096
X33784Y15096
X34784Y15096
X34784Y16096
X33784Y16096
X33784Y17096
X34784Y17096
X34784Y18096
X33784Y18096
X33784Y19096
X34784Y19096
X34784Y20096
X33784Y20096
X33784Y21096
X34784Y21096
X34784Y22096
X33784Y22096
X33784Y23096
X34784Y23096
X34784Y24096
X33784Y24096
X33784Y25096
X34784Y25096
X34784Y26096
X33784Y26096
X33784Y27096
X34784Y27096
X32723Y28860
X32723Y29860
T04
X19262Y29410
X19162Y28410
X19262Y27410
X19162Y26410
X19262Y25410
X19162Y24410
X19162Y30410
X3454Y27704
X3354Y26704
X3454Y25704
X3354Y24704
X3454Y23704
X3354Y22704
X14641Y14095
X14641Y12955
X17844Y12955
X17844Y14095
X21111Y14095
X21111Y12955
X25594Y13805
X27374Y13805
X27374Y11245
X25594Y11245
X27863Y8542
X27863Y7542
X27863Y6592
X28863Y6492
X29863Y6592
X27863Y5542
X27863Y4542
X27939Y2656
X26939Y2556
X25939Y2656
X23344Y2556
X22344Y2656
X21344Y2556
X20344Y2656
X19344Y2556
X16594Y2556
X15594Y2656
X14594Y2556
X13594Y2656
X9764Y4796
X9764Y5796
X9764Y8096
X9764Y9096
X25863Y6592
X26863Y6492
X28939Y2556
X31594Y2556
X32594Y2656
X33594Y2556
X38324Y4756
X38424Y5756
X38324Y6756
X38424Y7756
T05
X14266Y8027
X14266Y11027
X6619Y26299
X26462Y26457
T07
X26462Y16614
X6619Y16772
X5564Y9996
X5564Y3896
T09
X4364Y4696
X4364Y9196
T10
X3094Y1796
X37724Y1796
X37724Y31596
X3094Y31596
M30
