G75*
G70*
%OFA0B0*%
%FSLAX24Y24*%
%IPPOS*%
%LPD*%
%AMOC8*
5,1,8,0,0,1.08239X$1,22.5*
%
%ADD10C,0.0789*%
%ADD11C,0.1084*%
%ADD12C,0.0749*%
%ADD13OC8,0.0600*%
%ADD14C,0.0820*%
%ADD15OC8,0.0680*%
%ADD16C,0.0730*%
%ADD17R,0.0730X0.0730*%
%ADD18R,0.1580X0.1580*%
%ADD19C,0.1580*%
%ADD20R,0.0880X0.0340*%
%ADD21C,0.1380*%
%ADD22R,0.0200X0.0470*%
%ADD23C,0.0600*%
%ADD24R,0.2630X0.0680*%
%ADD25C,0.0437*%
%ADD26C,0.0476*%
%ADD27OC8,0.0476*%
D10*
X004571Y033168D02*
X004571Y033877D01*
X005571Y033877D02*
X005571Y033168D01*
X006571Y033168D02*
X006571Y033877D01*
X007571Y033877D02*
X007571Y033168D01*
X008571Y033168D02*
X008571Y033877D01*
X009571Y033877D02*
X009571Y033168D01*
X010571Y033168D02*
X010571Y033877D01*
X011571Y033877D02*
X011571Y033168D01*
X011071Y035168D02*
X011071Y035877D01*
X010071Y035877D02*
X010071Y035168D01*
X009071Y035168D02*
X009071Y035877D01*
X008071Y035877D02*
X008071Y035168D01*
X007071Y035168D02*
X007071Y035877D01*
X006071Y035877D02*
X006071Y035168D01*
X005071Y035168D02*
X005071Y035877D01*
X016382Y033877D02*
X016382Y033168D01*
X017382Y033168D02*
X017382Y033877D01*
X018382Y033877D02*
X018382Y033168D01*
X019382Y033168D02*
X019382Y033877D01*
X020382Y033877D02*
X020382Y033168D01*
X021382Y033168D02*
X021382Y033877D01*
X022382Y033877D02*
X022382Y033168D01*
X023382Y033168D02*
X023382Y033877D01*
X022882Y035168D02*
X022882Y035877D01*
X021882Y035877D02*
X021882Y035168D01*
X020882Y035168D02*
X020882Y035877D01*
X019882Y035877D02*
X019882Y035168D01*
X018882Y035168D02*
X018882Y035877D01*
X017882Y035877D02*
X017882Y035168D01*
X016882Y035168D02*
X016882Y035877D01*
X028193Y033877D02*
X028193Y033168D01*
X029193Y033168D02*
X029193Y033877D01*
X030193Y033877D02*
X030193Y033168D01*
X031193Y033168D02*
X031193Y033877D01*
X032193Y033877D02*
X032193Y033168D01*
X033193Y033168D02*
X033193Y033877D01*
X034193Y033877D02*
X034193Y033168D01*
X035193Y033168D02*
X035193Y033877D01*
X034693Y035168D02*
X034693Y035877D01*
X033693Y035877D02*
X033693Y035168D01*
X032693Y035168D02*
X032693Y035877D01*
X031693Y035877D02*
X031693Y035168D01*
X030693Y035168D02*
X030693Y035877D01*
X029693Y035877D02*
X029693Y035168D01*
X028693Y035168D02*
X028693Y035877D01*
D11*
X032094Y024150D02*
X032094Y023147D01*
X033653Y023147D02*
X033653Y024150D01*
X021842Y024150D02*
X021842Y023147D01*
X020283Y023147D02*
X020283Y024150D01*
X010031Y024150D02*
X010031Y023147D01*
X008472Y023147D02*
X008472Y024150D01*
D12*
X006496Y023802D03*
X006496Y022865D03*
X006496Y019865D03*
X012008Y019865D03*
X012008Y022865D03*
X012008Y023802D03*
X012008Y026802D03*
X006496Y026802D03*
X018307Y026802D03*
X018307Y023802D03*
X018307Y022865D03*
X018307Y019865D03*
X023819Y019865D03*
X023819Y022865D03*
X023819Y023802D03*
X023819Y026802D03*
X030118Y026802D03*
X030118Y023802D03*
X030118Y022865D03*
X030118Y019865D03*
X035630Y019865D03*
X035630Y022865D03*
X035630Y023802D03*
X035630Y026802D03*
D13*
X028649Y018609D03*
X027649Y018609D03*
X016838Y018609D03*
X015838Y018609D03*
X005027Y018609D03*
X004027Y018609D03*
X028911Y007215D03*
X028911Y006215D03*
X035299Y008747D03*
X035799Y007997D03*
X036299Y008747D03*
X036612Y006923D03*
X036112Y006173D03*
X037112Y006173D03*
D14*
X036990Y007741D03*
X034792Y007357D03*
X034797Y006088D03*
X030797Y006088D03*
X030792Y007357D03*
X040990Y007741D03*
X034874Y018609D03*
X030874Y018609D03*
X023063Y018609D03*
X019063Y018609D03*
X009024Y016714D03*
X005024Y016714D03*
X005018Y010630D03*
X004978Y008961D03*
X008978Y008961D03*
X009018Y010630D03*
D15*
X003346Y020408D03*
X003346Y029408D03*
X015157Y029408D03*
X015157Y020408D03*
X026968Y020408D03*
X026968Y029408D03*
D16*
X024031Y030026D03*
X019488Y030026D03*
X018488Y030026D03*
X012220Y030026D03*
X007677Y030026D03*
X006677Y030026D03*
X030299Y030026D03*
X031299Y030026D03*
X035842Y030026D03*
D17*
X033842Y030026D03*
X022031Y030026D03*
X010220Y030026D03*
D18*
X008539Y006337D03*
D19*
X005434Y006337D03*
D20*
X014568Y006774D03*
X014568Y007274D03*
X014568Y007774D03*
X014568Y008274D03*
X014568Y008774D03*
X014568Y009274D03*
X014568Y009774D03*
X016988Y009774D03*
X016988Y009274D03*
X016988Y008774D03*
X016988Y008274D03*
X016988Y007774D03*
X016988Y007274D03*
X016988Y006774D03*
X019686Y006774D03*
X019686Y007274D03*
X019686Y007774D03*
X019686Y008274D03*
X019686Y008774D03*
X019686Y009274D03*
X019686Y009774D03*
X022106Y009774D03*
X022106Y009274D03*
X022106Y008774D03*
X022106Y008274D03*
X022106Y007774D03*
X022106Y007274D03*
X022106Y006774D03*
X024213Y006774D03*
X024213Y007274D03*
X024213Y007774D03*
X024213Y008274D03*
X024213Y008774D03*
X024213Y009274D03*
X024213Y009774D03*
X026633Y009774D03*
X026633Y009274D03*
X026633Y008774D03*
X026633Y008274D03*
X026633Y007774D03*
X026633Y007274D03*
X026633Y006774D03*
D21*
X002686Y005649D03*
X002686Y036198D03*
D22*
X014894Y014246D03*
X015150Y014246D03*
X015406Y014246D03*
X015661Y014246D03*
X015917Y014246D03*
X016173Y014246D03*
X016429Y014246D03*
X016685Y014246D03*
X016685Y011949D03*
X016429Y011949D03*
X016173Y011949D03*
X015917Y011949D03*
X015661Y011949D03*
X015406Y011949D03*
X015150Y011949D03*
X014894Y011949D03*
X020110Y011949D03*
X020366Y011949D03*
X020622Y011949D03*
X020878Y011949D03*
X021134Y011949D03*
X021390Y011949D03*
X021646Y011949D03*
X021902Y011949D03*
X021902Y014246D03*
X021646Y014246D03*
X021390Y014246D03*
X021134Y014246D03*
X020878Y014246D03*
X020622Y014246D03*
X020366Y014246D03*
X020110Y014246D03*
X025327Y014246D03*
X025583Y014246D03*
X025839Y014246D03*
X026095Y014246D03*
X026350Y014246D03*
X026606Y014246D03*
X026862Y014246D03*
X027118Y014246D03*
X027118Y011949D03*
X026862Y011949D03*
X026606Y011949D03*
X026350Y011949D03*
X026095Y011949D03*
X025839Y011949D03*
X025583Y011949D03*
X025327Y011949D03*
D23*
X030741Y010716D02*
X030741Y010196D01*
X031741Y010196D02*
X031741Y010716D01*
X032741Y010716D02*
X032741Y010196D01*
X033741Y010196D02*
X033741Y010716D01*
X033741Y013196D02*
X033741Y013716D01*
X032741Y013716D02*
X032741Y013196D01*
X031741Y013196D02*
X031741Y013716D01*
X030741Y013716D02*
X030741Y013196D01*
D24*
X043224Y012814D03*
X043224Y013814D03*
X043224Y014814D03*
X043224Y015814D03*
X043224Y016814D03*
X043224Y017814D03*
X043224Y018814D03*
X043224Y019814D03*
X043224Y020814D03*
X043224Y021814D03*
X043224Y022814D03*
X043224Y023814D03*
X043224Y024814D03*
X043224Y025814D03*
X043224Y026814D03*
X043224Y027814D03*
X043224Y028814D03*
X043224Y029814D03*
X043224Y030814D03*
X043224Y011814D03*
X043224Y010814D03*
X043224Y009814D03*
X043224Y008814D03*
X043224Y007814D03*
X043224Y006814D03*
D25*
X041703Y009291D03*
X039254Y009990D03*
X037626Y009969D03*
X035946Y011149D03*
X037186Y012369D03*
X038136Y012324D03*
X038531Y012670D03*
X038244Y011760D03*
X037444Y013289D03*
X036205Y013711D03*
X036046Y012549D03*
X039941Y014593D03*
X040484Y014590D03*
X040186Y013684D03*
X040175Y013230D03*
X040156Y012768D03*
X041264Y011926D03*
X040799Y016343D03*
X040731Y017372D03*
X040616Y018121D03*
X041069Y018121D03*
X041523Y018108D03*
X041484Y017229D03*
X039878Y018749D03*
X039448Y018038D03*
X039061Y016415D03*
X038778Y020056D03*
X036508Y019920D03*
X040954Y022803D03*
X041380Y023579D03*
X041691Y021833D03*
X039724Y027518D03*
X039093Y028279D03*
X038676Y030241D03*
X036506Y028809D03*
X034362Y029037D03*
X030046Y027749D03*
X025746Y031249D03*
X024246Y027749D03*
X018246Y027949D03*
X012346Y027949D03*
X003346Y023749D03*
X002346Y023049D03*
X001846Y022249D03*
X001846Y027649D03*
X007071Y036570D03*
X009570Y036560D03*
X016246Y037509D03*
X018886Y037509D03*
X018903Y036467D03*
X021388Y036492D03*
X027846Y037509D03*
X030706Y037509D03*
X030693Y036432D03*
X033146Y036409D03*
X035796Y036392D03*
X037249Y036392D03*
X016689Y016031D03*
X016685Y015542D03*
X017046Y014749D03*
X015246Y013449D03*
X017046Y013149D03*
X017046Y012049D03*
X018246Y010149D03*
X018829Y009751D03*
X019646Y010189D03*
X020546Y009249D03*
X021146Y008549D03*
X021146Y007749D03*
X018446Y006749D03*
X017846Y008249D03*
X013646Y008249D03*
X013746Y009249D03*
X013789Y009810D03*
X012446Y006749D03*
X012046Y006449D03*
X011666Y006849D03*
X011346Y006149D03*
X009546Y008049D03*
X010046Y010649D03*
X009046Y011949D03*
X007846Y012549D03*
X019646Y011849D03*
X020546Y013449D03*
X021146Y013549D03*
X022246Y012649D03*
X024946Y012649D03*
X025646Y013549D03*
X026346Y013549D03*
X026862Y012861D03*
X027746Y013449D03*
X027445Y011938D03*
X027546Y009773D03*
X027346Y008249D03*
X025646Y008749D03*
X025288Y007366D03*
X027079Y005614D03*
X025284Y005263D03*
X028746Y014749D03*
X026626Y015329D03*
X021893Y015213D03*
X021881Y015727D03*
X038221Y005067D03*
X038922Y005582D03*
D26*
X013646Y031149D03*
D27*
X036903Y009172D03*
M02*
