%
M48
M72
T01C0.0200
T02C0.0280
T03C0.0350
T04C0.0380
T05C0.0420
T06C0.0520
T07C0.0600
T09C0.1250
%
T01
X9546Y8049
X11666Y6849
X12046Y6449
X12446Y6749
X11346Y6149
X13646Y8249
X13746Y9249
X13789Y9810
X17046Y12049
X17046Y13149
X15246Y13449
X17046Y14749
X16685Y15542
X16689Y16031
X20546Y13449
X21146Y13549
X22246Y12649
X24946Y12649
X25646Y13549
X26346Y13549
X26862Y12861
X27746Y13449
X27445Y11938
X27546Y9773
X27346Y8249
X25646Y8749
X25288Y7366
X27079Y5614
X25284Y5263
X21146Y7749
X21146Y8549
X20546Y9249
X19646Y10189
X18829Y9751
X18246Y10149
X19646Y11849
X17846Y8249
X18446Y6749
X10046Y10649
X9046Y11949
X7846Y12549
X1846Y22249
X2346Y23049
X3346Y23749
X1846Y27649
X7071Y36570
X9570Y36560
X16246Y37509
X18886Y37509
X18903Y36467
X21388Y36492
X27846Y37509
X30706Y37509
X30693Y36432
X33146Y36409
X35796Y36392
X37249Y36392
X38676Y30241
X36506Y28809
X34362Y29037
X30046Y27749
X25746Y31249
X24246Y27749
X18246Y27949
X12346Y27949
X21881Y15727
X21893Y15213
X26626Y15329
X28746Y14749
X36205Y13711
X36046Y12549
X37186Y12369
X38136Y12324
X38531Y12670
X38244Y11760
X37444Y13289
X39941Y14593
X40484Y14590
X40186Y13684
X40175Y13230
X40156Y12768
X41264Y11926
X39254Y9990
X37626Y9969
X35946Y11149
X41703Y9291
X38922Y5582
X38221Y5067
X39061Y16415
X40799Y16343
X40731Y17372
X40616Y18121
X41069Y18121
X41523Y18108
X41484Y17229
X39878Y18749
X39448Y18038
X38778Y20056
X36508Y19920
X40954Y22803
X41380Y23579
X41691Y21833
X39724Y27518
X39093Y28279
T02
X35842Y30026
X33842Y30026
X31299Y30026
X30299Y30026
X24031Y30026
X22031Y30026
X19488Y30026
X18488Y30026
X13646Y31149
X12220Y30026
X10220Y30026
X7677Y30026
X6677Y30026
X36903Y9172
T03
X36299Y8747
X35799Y7997
X35299Y8747
X36990Y7741
X36612Y6923
X36112Y6173
X37112Y6173
X34797Y6088
X34792Y7357
X33741Y10456
X32741Y10456
X31741Y10456
X30741Y10456
X30741Y13456
X31741Y13456
X32741Y13456
X33741Y13456
X34874Y18609
X30874Y18609
X28649Y18609
X27649Y18609
X23063Y18609
X19063Y18609
X16838Y18609
X15838Y18609
X9024Y16714
X5024Y16714
X5027Y18609
X4027Y18609
X5018Y10630
X4978Y8961
X8978Y8961
X9018Y10630
X28911Y7215
X28911Y6215
X30797Y6088
X30792Y7357
X40990Y7741
T04
X26968Y20408
X26968Y29408
X15157Y29408
X15157Y20408
X3346Y20408
X3346Y29408
T05
X6496Y26802
X6496Y23802
X6496Y22865
X6496Y19865
X12008Y19865
X12008Y22865
X12008Y23802
X12008Y26802
X18307Y26802
X18307Y23802
X18307Y22865
X18307Y19865
X23819Y19865
X23819Y22865
X23819Y23802
X23819Y26802
X30118Y26802
X30118Y23802
X30118Y22865
X30118Y19865
X35630Y19865
X35630Y22865
X35630Y23802
X35630Y26802
T06
X35193Y33523
X34193Y33523
X33193Y33523
X32193Y33523
X31193Y33523
X30193Y33523
X29193Y33523
X28193Y33523
X28693Y35523
X29693Y35523
X30693Y35523
X31693Y35523
X32693Y35523
X33693Y35523
X34693Y35523
X23382Y33523
X22382Y33523
X21382Y33523
X20382Y33523
X19382Y33523
X18382Y33523
X17382Y33523
X16382Y33523
X16882Y35523
X17882Y35523
X18882Y35523
X19882Y35523
X20882Y35523
X21882Y35523
X22882Y35523
X11571Y33523
X10571Y33523
X9571Y33523
X8571Y33523
X7571Y33523
X6571Y33523
X5571Y33523
X4571Y33523
X5071Y35523
X6071Y35523
X7071Y35523
X8071Y35523
X9071Y35523
X10071Y35523
X11071Y35523
T07
X10031Y23649
X8472Y23649
X20283Y23649
X21842Y23649
X32094Y23649
X33653Y23649
X8539Y6337
X5434Y6337
T09
X2686Y5649
X2686Y36198
M30
