G75*
G70*
%OFA0B0*%
%FSLAX24Y24*%
%IPPOS*%
%LPD*%
%AMOC8*
5,1,8,0,0,1.08239X$1,22.5*
%
%ADD10C,0.0000*%
%ADD11C,0.0030*%
%ADD12C,0.0060*%
%ADD13C,0.0040*%
%ADD14R,0.7461X0.0659*%
%ADD15C,0.0080*%
%ADD16R,0.0736X0.0200*%
%ADD17R,0.0335X0.0250*%
%ADD18C,0.0050*%
%ADD19C,0.0100*%
%ADD20R,0.0320X0.0060*%
%ADD21C,0.0010*%
%ADD22C,0.0020*%
%ADD23R,0.0400X0.0150*%
D10*
X000106Y003089D02*
X000106Y038649D01*
X041224Y038649D01*
X041224Y032730D01*
X041224Y032814D02*
X041224Y031814D01*
X044724Y031814D01*
X045024Y031514D01*
X045024Y006114D01*
X044724Y005814D01*
X041224Y005814D01*
X041224Y004814D01*
X041224Y004822D02*
X041224Y003089D01*
X000106Y003089D01*
X002036Y005649D02*
X002038Y005699D01*
X002044Y005749D01*
X002054Y005799D01*
X002067Y005847D01*
X002084Y005895D01*
X002105Y005941D01*
X002129Y005985D01*
X002157Y006027D01*
X002188Y006067D01*
X002222Y006104D01*
X002259Y006139D01*
X002298Y006170D01*
X002339Y006199D01*
X002383Y006224D01*
X002429Y006246D01*
X002476Y006264D01*
X002524Y006278D01*
X002573Y006289D01*
X002623Y006296D01*
X002673Y006299D01*
X002724Y006298D01*
X002774Y006293D01*
X002824Y006284D01*
X002872Y006272D01*
X002920Y006255D01*
X002966Y006235D01*
X003011Y006212D01*
X003054Y006185D01*
X003094Y006155D01*
X003132Y006122D01*
X003167Y006086D01*
X003200Y006047D01*
X003229Y006006D01*
X003255Y005963D01*
X003278Y005918D01*
X003297Y005871D01*
X003312Y005823D01*
X003324Y005774D01*
X003332Y005724D01*
X003336Y005674D01*
X003336Y005624D01*
X003332Y005574D01*
X003324Y005524D01*
X003312Y005475D01*
X003297Y005427D01*
X003278Y005380D01*
X003255Y005335D01*
X003229Y005292D01*
X003200Y005251D01*
X003167Y005212D01*
X003132Y005176D01*
X003094Y005143D01*
X003054Y005113D01*
X003011Y005086D01*
X002966Y005063D01*
X002920Y005043D01*
X002872Y005026D01*
X002824Y005014D01*
X002774Y005005D01*
X002724Y005000D01*
X002673Y004999D01*
X002623Y005002D01*
X002573Y005009D01*
X002524Y005020D01*
X002476Y005034D01*
X002429Y005052D01*
X002383Y005074D01*
X002339Y005099D01*
X002298Y005128D01*
X002259Y005159D01*
X002222Y005194D01*
X002188Y005231D01*
X002157Y005271D01*
X002129Y005313D01*
X002105Y005357D01*
X002084Y005403D01*
X002067Y005451D01*
X002054Y005499D01*
X002044Y005549D01*
X002038Y005599D01*
X002036Y005649D01*
X002036Y036198D02*
X002038Y036248D01*
X002044Y036298D01*
X002054Y036348D01*
X002067Y036396D01*
X002084Y036444D01*
X002105Y036490D01*
X002129Y036534D01*
X002157Y036576D01*
X002188Y036616D01*
X002222Y036653D01*
X002259Y036688D01*
X002298Y036719D01*
X002339Y036748D01*
X002383Y036773D01*
X002429Y036795D01*
X002476Y036813D01*
X002524Y036827D01*
X002573Y036838D01*
X002623Y036845D01*
X002673Y036848D01*
X002724Y036847D01*
X002774Y036842D01*
X002824Y036833D01*
X002872Y036821D01*
X002920Y036804D01*
X002966Y036784D01*
X003011Y036761D01*
X003054Y036734D01*
X003094Y036704D01*
X003132Y036671D01*
X003167Y036635D01*
X003200Y036596D01*
X003229Y036555D01*
X003255Y036512D01*
X003278Y036467D01*
X003297Y036420D01*
X003312Y036372D01*
X003324Y036323D01*
X003332Y036273D01*
X003336Y036223D01*
X003336Y036173D01*
X003332Y036123D01*
X003324Y036073D01*
X003312Y036024D01*
X003297Y035976D01*
X003278Y035929D01*
X003255Y035884D01*
X003229Y035841D01*
X003200Y035800D01*
X003167Y035761D01*
X003132Y035725D01*
X003094Y035692D01*
X003054Y035662D01*
X003011Y035635D01*
X002966Y035612D01*
X002920Y035592D01*
X002872Y035575D01*
X002824Y035563D01*
X002774Y035554D01*
X002724Y035549D01*
X002673Y035548D01*
X002623Y035551D01*
X002573Y035558D01*
X002524Y035569D01*
X002476Y035583D01*
X002429Y035601D01*
X002383Y035623D01*
X002339Y035648D01*
X002298Y035677D01*
X002259Y035708D01*
X002222Y035743D01*
X002188Y035780D01*
X002157Y035820D01*
X002129Y035862D01*
X002105Y035906D01*
X002084Y035952D01*
X002067Y036000D01*
X002054Y036048D01*
X002044Y036098D01*
X002038Y036148D01*
X002036Y036198D01*
D11*
X010512Y031567D02*
X010705Y031567D01*
X010807Y031470D02*
X010807Y031421D01*
X010807Y031470D02*
X011000Y031663D01*
X011000Y031712D01*
X010807Y031712D01*
X010657Y031712D02*
X010512Y031567D01*
X010657Y031421D02*
X010657Y031712D01*
X011101Y031663D02*
X011150Y031712D01*
X011246Y031712D01*
X011295Y031663D01*
X011101Y031470D01*
X011150Y031421D01*
X011246Y031421D01*
X011295Y031470D01*
X011295Y031663D01*
X011396Y031615D02*
X011396Y031470D01*
X011444Y031421D01*
X011589Y031421D01*
X011589Y031615D01*
X011691Y031567D02*
X011787Y031567D01*
X011691Y031712D02*
X011884Y031712D01*
X011691Y031712D02*
X011691Y031421D01*
X011101Y031470D02*
X011101Y031663D01*
X022323Y031567D02*
X022516Y031567D01*
X022618Y031470D02*
X022618Y031421D01*
X022618Y031470D02*
X022811Y031663D01*
X022811Y031712D01*
X022618Y031712D01*
X022468Y031712D02*
X022323Y031567D01*
X022468Y031421D02*
X022468Y031712D01*
X022912Y031663D02*
X022961Y031712D01*
X023057Y031712D01*
X023106Y031663D01*
X022912Y031470D01*
X022961Y031421D01*
X023057Y031421D01*
X023106Y031470D01*
X023106Y031663D01*
X023207Y031615D02*
X023207Y031470D01*
X023255Y031421D01*
X023400Y031421D01*
X023400Y031615D01*
X023502Y031567D02*
X023598Y031567D01*
X023502Y031712D02*
X023695Y031712D01*
X023502Y031712D02*
X023502Y031421D01*
X022912Y031470D02*
X022912Y031663D01*
X034134Y031567D02*
X034327Y031567D01*
X034429Y031470D02*
X034429Y031421D01*
X034429Y031470D02*
X034622Y031663D01*
X034622Y031712D01*
X034429Y031712D01*
X034279Y031712D02*
X034134Y031567D01*
X034279Y031421D02*
X034279Y031712D01*
X034723Y031663D02*
X034772Y031712D01*
X034868Y031712D01*
X034917Y031663D01*
X034723Y031470D01*
X034772Y031421D01*
X034868Y031421D01*
X034917Y031470D01*
X034917Y031663D01*
X035018Y031615D02*
X035018Y031470D01*
X035066Y031421D01*
X035211Y031421D01*
X035211Y031615D01*
X035313Y031567D02*
X035409Y031567D01*
X035313Y031712D02*
X035506Y031712D01*
X035313Y031712D02*
X035313Y031421D01*
X034723Y031470D02*
X034723Y031663D01*
X032971Y016664D02*
X032971Y016417D01*
X032909Y016417D01*
X032663Y016664D01*
X032601Y016664D01*
X032601Y016417D01*
X032971Y015927D02*
X032971Y015680D01*
X032601Y015680D01*
X032601Y015559D02*
X032601Y015312D01*
X032971Y015312D01*
X032971Y015559D01*
X032786Y015435D02*
X032786Y015312D01*
X032848Y015190D02*
X032909Y015190D01*
X032971Y015129D01*
X032971Y015005D01*
X032909Y014944D01*
X032786Y015005D02*
X032786Y015129D01*
X032848Y015190D01*
X032663Y015190D02*
X032601Y015129D01*
X032601Y015005D01*
X032663Y014944D01*
X032724Y014944D01*
X032786Y015005D01*
X033561Y015005D02*
X033623Y014944D01*
X033684Y014944D01*
X033746Y015005D01*
X033746Y015129D01*
X033808Y015190D01*
X033869Y015190D01*
X033931Y015129D01*
X033931Y015005D01*
X033869Y014944D01*
X033561Y015005D02*
X033561Y015129D01*
X033623Y015190D01*
X033561Y015312D02*
X033561Y015435D01*
X033561Y015374D02*
X033931Y015374D01*
X033931Y015435D02*
X033931Y015312D01*
X033931Y015557D02*
X033561Y015557D01*
X033561Y015742D01*
X033623Y015804D01*
X033869Y015804D01*
X033931Y015742D01*
X033931Y015557D01*
X033931Y015926D02*
X033561Y015926D01*
X033561Y016172D01*
X033746Y016049D02*
X033746Y015926D01*
X033931Y015926D02*
X033931Y016172D01*
X031891Y015927D02*
X031891Y015680D01*
X031521Y015680D01*
X031521Y015559D02*
X031521Y015312D01*
X031891Y015312D01*
X031891Y015559D01*
X031706Y015435D02*
X031706Y015312D01*
X031768Y015190D02*
X031829Y015190D01*
X031891Y015129D01*
X031891Y015005D01*
X031829Y014944D01*
X031706Y015005D02*
X031706Y015129D01*
X031768Y015190D01*
X031583Y015190D02*
X031521Y015129D01*
X031521Y015005D01*
X031583Y014944D01*
X031644Y014944D01*
X031706Y015005D01*
X030891Y015005D02*
X030829Y014944D01*
X030891Y015005D02*
X030891Y015129D01*
X030829Y015190D01*
X030768Y015190D01*
X030706Y015129D01*
X030706Y015005D01*
X030644Y014944D01*
X030583Y014944D01*
X030521Y015005D01*
X030521Y015129D01*
X030583Y015190D01*
X030521Y015312D02*
X030891Y015312D01*
X030891Y015559D01*
X030891Y015680D02*
X030891Y015927D01*
X030891Y015680D02*
X030521Y015680D01*
X030521Y015559D02*
X030521Y015312D01*
X030706Y015312D02*
X030706Y015435D01*
X030521Y016417D02*
X030891Y016664D01*
X030891Y016417D02*
X030521Y016664D01*
X031521Y016664D02*
X031583Y016664D01*
X031706Y016540D01*
X031891Y016540D01*
X031706Y016540D02*
X031583Y016417D01*
X031521Y016417D01*
X023111Y005594D02*
X022926Y005594D01*
X022926Y005224D01*
X022805Y005224D02*
X022558Y005224D01*
X022558Y005594D01*
X022805Y005594D01*
X022681Y005409D02*
X022558Y005409D01*
X022436Y005224D02*
X022189Y005224D01*
X022189Y005594D01*
X021821Y005594D02*
X021821Y005224D01*
X022068Y005224D01*
X021700Y005285D02*
X021700Y005532D01*
X021638Y005594D01*
X021514Y005594D01*
X021453Y005532D01*
X021453Y005285D01*
X021514Y005224D01*
X021638Y005224D01*
X021700Y005285D01*
X021331Y005224D02*
X021208Y005347D01*
X021270Y005347D02*
X021084Y005347D01*
X021084Y005224D02*
X021084Y005594D01*
X021270Y005594D01*
X021331Y005532D01*
X021331Y005409D01*
X021270Y005347D01*
X020963Y005594D02*
X020716Y005594D01*
X020595Y005594D02*
X020595Y005224D01*
X020348Y005594D01*
X020348Y005224D01*
X020226Y005285D02*
X020226Y005532D01*
X020165Y005594D01*
X020041Y005594D01*
X019980Y005532D01*
X019980Y005285D01*
X020041Y005224D01*
X020165Y005224D01*
X020226Y005285D01*
X019858Y005285D02*
X019796Y005224D01*
X019673Y005224D01*
X019611Y005285D01*
X019611Y005532D01*
X019673Y005594D01*
X019796Y005594D01*
X019858Y005532D01*
X019121Y005532D02*
X019121Y005409D01*
X019060Y005347D01*
X018875Y005347D01*
X018998Y005347D02*
X019121Y005224D01*
X018875Y005224D02*
X018875Y005594D01*
X019060Y005594D01*
X019121Y005532D01*
X018753Y005594D02*
X018506Y005594D01*
X018506Y005224D01*
X018753Y005224D01*
X018630Y005409D02*
X018506Y005409D01*
X018385Y005594D02*
X018138Y005594D01*
X018261Y005594D02*
X018261Y005224D01*
X018017Y005285D02*
X017955Y005224D01*
X017831Y005224D01*
X017770Y005285D01*
X017648Y005285D02*
X017648Y005594D01*
X017770Y005532D02*
X017770Y005470D01*
X017831Y005409D01*
X017955Y005409D01*
X018017Y005347D01*
X018017Y005285D01*
X018017Y005532D02*
X017955Y005594D01*
X017831Y005594D01*
X017770Y005532D01*
X017648Y005285D02*
X017587Y005224D01*
X017463Y005224D01*
X017401Y005285D01*
X017401Y005594D01*
X017280Y005532D02*
X017280Y005409D01*
X017218Y005347D01*
X017033Y005347D01*
X017033Y005224D02*
X017033Y005594D01*
X017218Y005594D01*
X017280Y005532D01*
X017157Y005347D02*
X017280Y005224D01*
X016912Y005224D02*
X016912Y005594D01*
X016912Y005409D02*
X016665Y005409D01*
X016665Y005224D02*
X016665Y005594D01*
X016543Y005594D02*
X016296Y005594D01*
X016420Y005594D02*
X016420Y005224D01*
X016419Y004834D02*
X016604Y004834D01*
X016666Y004772D01*
X016666Y004525D01*
X016604Y004464D01*
X016419Y004464D01*
X016419Y004834D01*
X016051Y004834D02*
X016051Y004464D01*
X016298Y004464D01*
X015930Y004525D02*
X015930Y004772D01*
X015868Y004834D01*
X015744Y004834D01*
X015683Y004772D01*
X015683Y004525D01*
X015744Y004464D01*
X015868Y004464D01*
X015930Y004525D01*
X015500Y004525D02*
X015500Y004834D01*
X015561Y004834D02*
X015438Y004834D01*
X015193Y004834D02*
X015193Y004525D01*
X015131Y004464D01*
X015008Y004464D01*
X014946Y004525D01*
X014946Y004834D01*
X014825Y004772D02*
X014825Y004710D01*
X014763Y004649D01*
X014578Y004649D01*
X014578Y004464D02*
X014578Y004834D01*
X014763Y004834D01*
X014825Y004772D01*
X014763Y004649D02*
X014825Y004587D01*
X014825Y004525D01*
X014763Y004464D01*
X014578Y004464D01*
X014088Y004464D02*
X014088Y004834D01*
X013965Y004710D01*
X013841Y004834D01*
X013841Y004464D01*
X013903Y005224D02*
X013841Y005285D01*
X013903Y005224D02*
X014026Y005224D01*
X014088Y005285D01*
X014088Y005347D01*
X014026Y005409D01*
X013965Y005409D01*
X014026Y005409D02*
X014088Y005470D01*
X014088Y005532D01*
X014026Y005594D01*
X013903Y005594D01*
X013841Y005532D01*
X014209Y005409D02*
X014456Y005409D01*
X014578Y005409D02*
X014825Y005409D01*
X014825Y005470D02*
X014825Y005224D01*
X014946Y005224D02*
X015193Y005594D01*
X015314Y005594D02*
X015438Y005594D01*
X015376Y005594D02*
X015376Y005224D01*
X015314Y005224D02*
X015438Y005224D01*
X015560Y005285D02*
X015622Y005224D01*
X015745Y005224D01*
X015807Y005285D01*
X015807Y005347D01*
X015745Y005409D01*
X015622Y005409D01*
X015560Y005470D01*
X015560Y005532D01*
X015622Y005594D01*
X015745Y005594D01*
X015807Y005532D01*
X015193Y005224D02*
X014946Y005594D01*
X014825Y005470D02*
X014701Y005594D01*
X014578Y005470D01*
X014578Y005224D01*
X015314Y004525D02*
X015376Y004464D01*
X015438Y004464D01*
X015500Y004525D01*
X017156Y004464D02*
X017403Y004710D01*
X017403Y004772D01*
X017341Y004834D01*
X017218Y004834D01*
X017156Y004772D01*
X017156Y004464D02*
X017403Y004464D01*
X017524Y004525D02*
X017771Y004772D01*
X017771Y004525D01*
X017709Y004464D01*
X017586Y004464D01*
X017524Y004525D01*
X017524Y004772D01*
X017586Y004834D01*
X017709Y004834D01*
X017771Y004772D01*
X017893Y004710D02*
X018016Y004834D01*
X018016Y004464D01*
X017893Y004464D02*
X018139Y004464D01*
X018261Y004525D02*
X018323Y004464D01*
X018446Y004464D01*
X018508Y004525D01*
X018508Y004587D01*
X018446Y004649D01*
X018384Y004649D01*
X018446Y004649D02*
X018508Y004710D01*
X018508Y004772D01*
X018446Y004834D01*
X018323Y004834D01*
X018261Y004772D01*
X020840Y005224D02*
X020840Y005594D01*
X022926Y005347D02*
X023111Y005347D01*
X023173Y005409D01*
X023173Y005532D01*
X023111Y005594D01*
X023049Y005347D02*
X023173Y005224D01*
D12*
X024803Y006524D02*
X025223Y006524D01*
X025623Y006524D01*
X026043Y006524D01*
X026066Y006526D01*
X026089Y006531D01*
X026111Y006540D01*
X026131Y006553D01*
X026149Y006568D01*
X026164Y006586D01*
X026177Y006606D01*
X026186Y006628D01*
X026191Y006651D01*
X026193Y006674D01*
X026193Y009874D01*
X026191Y009897D01*
X026186Y009920D01*
X026177Y009942D01*
X026164Y009962D01*
X026149Y009980D01*
X026131Y009995D01*
X026111Y010008D01*
X026089Y010017D01*
X026066Y010022D01*
X026043Y010024D01*
X024803Y010024D01*
X024780Y010022D01*
X024757Y010017D01*
X024735Y010008D01*
X024715Y009995D01*
X024697Y009980D01*
X024682Y009962D01*
X024669Y009942D01*
X024660Y009920D01*
X024655Y009897D01*
X024653Y009874D01*
X024653Y006674D01*
X024655Y006651D01*
X024660Y006628D01*
X024669Y006606D01*
X024682Y006586D01*
X024697Y006568D01*
X024715Y006553D01*
X024735Y006540D01*
X024757Y006531D01*
X024780Y006526D01*
X024803Y006524D01*
X025223Y006524D02*
X025225Y006551D01*
X025230Y006578D01*
X025240Y006604D01*
X025252Y006628D01*
X025268Y006650D01*
X025286Y006670D01*
X025308Y006687D01*
X025331Y006702D01*
X025356Y006712D01*
X025382Y006720D01*
X025409Y006724D01*
X025437Y006724D01*
X025464Y006720D01*
X025490Y006712D01*
X025515Y006702D01*
X025538Y006687D01*
X025560Y006670D01*
X025578Y006650D01*
X025594Y006628D01*
X025606Y006604D01*
X025616Y006578D01*
X025621Y006551D01*
X025623Y006524D01*
X027911Y006715D02*
X027913Y006778D01*
X027919Y006840D01*
X027929Y006902D01*
X027942Y006964D01*
X027960Y007024D01*
X027981Y007083D01*
X028006Y007141D01*
X028035Y007197D01*
X028067Y007251D01*
X028102Y007303D01*
X028140Y007352D01*
X028182Y007400D01*
X028226Y007444D01*
X028274Y007486D01*
X028323Y007524D01*
X028375Y007559D01*
X028429Y007591D01*
X028485Y007620D01*
X028543Y007645D01*
X028602Y007666D01*
X028662Y007684D01*
X028724Y007697D01*
X028786Y007707D01*
X028848Y007713D01*
X028911Y007715D01*
X028974Y007713D01*
X029036Y007707D01*
X029098Y007697D01*
X029160Y007684D01*
X029220Y007666D01*
X029279Y007645D01*
X029337Y007620D01*
X029393Y007591D01*
X029447Y007559D01*
X029499Y007524D01*
X029548Y007486D01*
X029596Y007444D01*
X029640Y007400D01*
X029682Y007352D01*
X029720Y007303D01*
X029755Y007251D01*
X029787Y007197D01*
X029816Y007141D01*
X029841Y007083D01*
X029862Y007024D01*
X029880Y006964D01*
X029893Y006902D01*
X029903Y006840D01*
X029909Y006778D01*
X029911Y006715D01*
X029909Y006652D01*
X029903Y006590D01*
X029893Y006528D01*
X029880Y006466D01*
X029862Y006406D01*
X029841Y006347D01*
X029816Y006289D01*
X029787Y006233D01*
X029755Y006179D01*
X029720Y006127D01*
X029682Y006078D01*
X029640Y006030D01*
X029596Y005986D01*
X029548Y005944D01*
X029499Y005906D01*
X029447Y005871D01*
X029393Y005839D01*
X029337Y005810D01*
X029279Y005785D01*
X029220Y005764D01*
X029160Y005746D01*
X029098Y005733D01*
X029036Y005723D01*
X028974Y005717D01*
X028911Y005715D01*
X028848Y005717D01*
X028786Y005723D01*
X028724Y005733D01*
X028662Y005746D01*
X028602Y005764D01*
X028543Y005785D01*
X028485Y005810D01*
X028429Y005839D01*
X028375Y005871D01*
X028323Y005906D01*
X028274Y005944D01*
X028226Y005986D01*
X028182Y006030D01*
X028140Y006078D01*
X028102Y006127D01*
X028067Y006179D01*
X028035Y006233D01*
X028006Y006289D01*
X027981Y006347D01*
X027960Y006406D01*
X027942Y006466D01*
X027929Y006528D01*
X027919Y006590D01*
X027913Y006652D01*
X027911Y006715D01*
X029941Y010006D02*
X029941Y011306D01*
X029941Y012606D01*
X030141Y012606D01*
X030141Y011306D01*
X029941Y011306D01*
X030441Y011206D02*
X031041Y011206D01*
X031041Y012706D01*
X030441Y012706D01*
X030441Y011206D01*
X031441Y011206D02*
X032041Y011206D01*
X032041Y012706D01*
X031441Y012706D01*
X031441Y011206D01*
X032441Y011206D02*
X033041Y011206D01*
X033041Y012706D01*
X032441Y012706D01*
X032441Y011206D01*
X033441Y011206D02*
X034041Y011206D01*
X034041Y012706D01*
X033441Y012706D01*
X033441Y011206D01*
X034341Y011306D02*
X034541Y011306D01*
X034541Y012606D01*
X034541Y013906D01*
X029941Y013906D01*
X029941Y012606D01*
X027213Y012199D02*
X027213Y013996D01*
X025209Y013996D01*
X025209Y012199D01*
X027213Y012199D01*
X026683Y013577D02*
X026685Y013603D01*
X026691Y013629D01*
X026700Y013653D01*
X026713Y013676D01*
X026729Y013697D01*
X026748Y013715D01*
X026769Y013731D01*
X026793Y013743D01*
X026817Y013751D01*
X026843Y013756D01*
X026870Y013757D01*
X026896Y013754D01*
X026921Y013747D01*
X026945Y013737D01*
X026968Y013723D01*
X026988Y013707D01*
X027005Y013687D01*
X027020Y013665D01*
X027031Y013641D01*
X027039Y013616D01*
X027043Y013590D01*
X027043Y013564D01*
X027039Y013538D01*
X027031Y013513D01*
X027020Y013489D01*
X027005Y013467D01*
X026988Y013447D01*
X026968Y013431D01*
X026945Y013417D01*
X026921Y013407D01*
X026896Y013400D01*
X026870Y013397D01*
X026843Y013398D01*
X026817Y013403D01*
X026793Y013411D01*
X026769Y013423D01*
X026748Y013439D01*
X026729Y013457D01*
X026713Y013478D01*
X026700Y013501D01*
X026691Y013525D01*
X026685Y013551D01*
X026683Y013577D01*
X021996Y013996D02*
X021996Y012199D01*
X019992Y012199D01*
X019992Y013996D01*
X021996Y013996D01*
X021466Y013577D02*
X021468Y013603D01*
X021474Y013629D01*
X021483Y013653D01*
X021496Y013676D01*
X021512Y013697D01*
X021531Y013715D01*
X021552Y013731D01*
X021576Y013743D01*
X021600Y013751D01*
X021626Y013756D01*
X021653Y013757D01*
X021679Y013754D01*
X021704Y013747D01*
X021728Y013737D01*
X021751Y013723D01*
X021771Y013707D01*
X021788Y013687D01*
X021803Y013665D01*
X021814Y013641D01*
X021822Y013616D01*
X021826Y013590D01*
X021826Y013564D01*
X021822Y013538D01*
X021814Y013513D01*
X021803Y013489D01*
X021788Y013467D01*
X021771Y013447D01*
X021751Y013431D01*
X021728Y013417D01*
X021704Y013407D01*
X021679Y013400D01*
X021653Y013397D01*
X021626Y013398D01*
X021600Y013403D01*
X021576Y013411D01*
X021552Y013423D01*
X021531Y013439D01*
X021512Y013457D01*
X021496Y013478D01*
X021483Y013501D01*
X021474Y013525D01*
X021468Y013551D01*
X021466Y013577D01*
X021516Y010024D02*
X021096Y010024D01*
X020696Y010024D01*
X020276Y010024D01*
X020253Y010022D01*
X020230Y010017D01*
X020208Y010008D01*
X020188Y009995D01*
X020170Y009980D01*
X020155Y009962D01*
X020142Y009942D01*
X020133Y009920D01*
X020128Y009897D01*
X020126Y009874D01*
X020126Y006674D01*
X020128Y006651D01*
X020133Y006628D01*
X020142Y006606D01*
X020155Y006586D01*
X020170Y006568D01*
X020188Y006553D01*
X020208Y006540D01*
X020230Y006531D01*
X020253Y006526D01*
X020276Y006524D01*
X021516Y006524D01*
X021539Y006526D01*
X021562Y006531D01*
X021584Y006540D01*
X021604Y006553D01*
X021622Y006568D01*
X021637Y006586D01*
X021650Y006606D01*
X021659Y006628D01*
X021664Y006651D01*
X021666Y006674D01*
X021666Y009874D01*
X021664Y009897D01*
X021659Y009920D01*
X021650Y009942D01*
X021637Y009962D01*
X021622Y009980D01*
X021604Y009995D01*
X021584Y010008D01*
X021562Y010017D01*
X021539Y010022D01*
X021516Y010024D01*
X021096Y010024D02*
X021094Y009997D01*
X021089Y009970D01*
X021079Y009944D01*
X021067Y009920D01*
X021051Y009898D01*
X021033Y009878D01*
X021011Y009861D01*
X020988Y009846D01*
X020963Y009836D01*
X020937Y009828D01*
X020910Y009824D01*
X020882Y009824D01*
X020855Y009828D01*
X020829Y009836D01*
X020804Y009846D01*
X020781Y009861D01*
X020759Y009878D01*
X020741Y009898D01*
X020725Y009920D01*
X020713Y009944D01*
X020703Y009970D01*
X020698Y009997D01*
X020696Y010024D01*
X016548Y009874D02*
X016548Y006674D01*
X016546Y006651D01*
X016541Y006628D01*
X016532Y006606D01*
X016519Y006586D01*
X016504Y006568D01*
X016486Y006553D01*
X016466Y006540D01*
X016444Y006531D01*
X016421Y006526D01*
X016398Y006524D01*
X015158Y006524D01*
X015135Y006526D01*
X015112Y006531D01*
X015090Y006540D01*
X015070Y006553D01*
X015052Y006568D01*
X015037Y006586D01*
X015024Y006606D01*
X015015Y006628D01*
X015010Y006651D01*
X015008Y006674D01*
X015008Y009874D01*
X015010Y009897D01*
X015015Y009920D01*
X015024Y009942D01*
X015037Y009962D01*
X015052Y009980D01*
X015070Y009995D01*
X015090Y010008D01*
X015112Y010017D01*
X015135Y010022D01*
X015158Y010024D01*
X015578Y010024D01*
X015978Y010024D01*
X016398Y010024D01*
X016421Y010022D01*
X016444Y010017D01*
X016466Y010008D01*
X016486Y009995D01*
X016504Y009980D01*
X016519Y009962D01*
X016532Y009942D01*
X016541Y009920D01*
X016546Y009897D01*
X016548Y009874D01*
X015978Y010024D02*
X015976Y009997D01*
X015971Y009970D01*
X015961Y009944D01*
X015949Y009920D01*
X015933Y009898D01*
X015915Y009878D01*
X015893Y009861D01*
X015870Y009846D01*
X015845Y009836D01*
X015819Y009828D01*
X015792Y009824D01*
X015764Y009824D01*
X015737Y009828D01*
X015711Y009836D01*
X015686Y009846D01*
X015663Y009861D01*
X015641Y009878D01*
X015623Y009898D01*
X015607Y009920D01*
X015595Y009944D01*
X015585Y009970D01*
X015580Y009997D01*
X015578Y010024D01*
X014776Y012199D02*
X016779Y012199D01*
X016779Y013996D01*
X014776Y013996D01*
X014776Y012199D01*
X016249Y013577D02*
X016251Y013603D01*
X016257Y013629D01*
X016266Y013653D01*
X016279Y013676D01*
X016295Y013697D01*
X016314Y013715D01*
X016335Y013731D01*
X016359Y013743D01*
X016383Y013751D01*
X016409Y013756D01*
X016436Y013757D01*
X016462Y013754D01*
X016487Y013747D01*
X016511Y013737D01*
X016534Y013723D01*
X016554Y013707D01*
X016571Y013687D01*
X016586Y013665D01*
X016597Y013641D01*
X016605Y013616D01*
X016609Y013590D01*
X016609Y013564D01*
X016605Y013538D01*
X016597Y013513D01*
X016586Y013489D01*
X016571Y013467D01*
X016554Y013447D01*
X016534Y013431D01*
X016511Y013417D01*
X016487Y013407D01*
X016462Y013400D01*
X016436Y013397D01*
X016409Y013398D01*
X016383Y013403D01*
X016359Y013411D01*
X016335Y013423D01*
X016314Y013439D01*
X016295Y013457D01*
X016279Y013478D01*
X016266Y013501D01*
X016257Y013525D01*
X016251Y013551D01*
X016249Y013577D01*
X015338Y018609D02*
X015340Y018672D01*
X015346Y018734D01*
X015356Y018796D01*
X015369Y018858D01*
X015387Y018918D01*
X015408Y018977D01*
X015433Y019035D01*
X015462Y019091D01*
X015494Y019145D01*
X015529Y019197D01*
X015567Y019246D01*
X015609Y019294D01*
X015653Y019338D01*
X015701Y019380D01*
X015750Y019418D01*
X015802Y019453D01*
X015856Y019485D01*
X015912Y019514D01*
X015970Y019539D01*
X016029Y019560D01*
X016089Y019578D01*
X016151Y019591D01*
X016213Y019601D01*
X016275Y019607D01*
X016338Y019609D01*
X016401Y019607D01*
X016463Y019601D01*
X016525Y019591D01*
X016587Y019578D01*
X016647Y019560D01*
X016706Y019539D01*
X016764Y019514D01*
X016820Y019485D01*
X016874Y019453D01*
X016926Y019418D01*
X016975Y019380D01*
X017023Y019338D01*
X017067Y019294D01*
X017109Y019246D01*
X017147Y019197D01*
X017182Y019145D01*
X017214Y019091D01*
X017243Y019035D01*
X017268Y018977D01*
X017289Y018918D01*
X017307Y018858D01*
X017320Y018796D01*
X017330Y018734D01*
X017336Y018672D01*
X017338Y018609D01*
X017336Y018546D01*
X017330Y018484D01*
X017320Y018422D01*
X017307Y018360D01*
X017289Y018300D01*
X017268Y018241D01*
X017243Y018183D01*
X017214Y018127D01*
X017182Y018073D01*
X017147Y018021D01*
X017109Y017972D01*
X017067Y017924D01*
X017023Y017880D01*
X016975Y017838D01*
X016926Y017800D01*
X016874Y017765D01*
X016820Y017733D01*
X016764Y017704D01*
X016706Y017679D01*
X016647Y017658D01*
X016587Y017640D01*
X016525Y017627D01*
X016463Y017617D01*
X016401Y017611D01*
X016338Y017609D01*
X016275Y017611D01*
X016213Y017617D01*
X016151Y017627D01*
X016089Y017640D01*
X016029Y017658D01*
X015970Y017679D01*
X015912Y017704D01*
X015856Y017733D01*
X015802Y017765D01*
X015750Y017800D01*
X015701Y017838D01*
X015653Y017880D01*
X015609Y017924D01*
X015567Y017972D01*
X015529Y018021D01*
X015494Y018073D01*
X015462Y018127D01*
X015433Y018183D01*
X015408Y018241D01*
X015387Y018300D01*
X015369Y018360D01*
X015356Y018422D01*
X015346Y018484D01*
X015340Y018546D01*
X015338Y018609D01*
X016807Y020908D02*
X013507Y020908D01*
X013484Y020910D01*
X013461Y020915D01*
X013439Y020924D01*
X013419Y020937D01*
X013401Y020952D01*
X013386Y020970D01*
X013373Y020990D01*
X013364Y021012D01*
X013359Y021035D01*
X013357Y021058D01*
X013357Y021408D01*
X013457Y021508D01*
X013457Y028308D01*
X013357Y028408D01*
X013357Y028758D01*
X013359Y028781D01*
X013364Y028804D01*
X013373Y028826D01*
X013386Y028846D01*
X013401Y028864D01*
X013419Y028879D01*
X013439Y028892D01*
X013461Y028901D01*
X013484Y028906D01*
X013507Y028908D01*
X016807Y028908D01*
X016830Y028906D01*
X016853Y028901D01*
X016875Y028892D01*
X016895Y028879D01*
X016913Y028864D01*
X016928Y028846D01*
X016941Y028826D01*
X016950Y028804D01*
X016955Y028781D01*
X016957Y028758D01*
X016957Y028408D01*
X016857Y028308D01*
X016857Y021508D01*
X016957Y021408D01*
X016957Y021058D01*
X016955Y021035D01*
X016950Y021012D01*
X016941Y020990D01*
X016928Y020970D01*
X016913Y020952D01*
X016895Y020937D01*
X016875Y020924D01*
X016853Y020915D01*
X016830Y020910D01*
X016807Y020908D01*
X017945Y020545D02*
X018669Y020545D01*
X018669Y022185D01*
X017945Y022185D01*
X017945Y020545D01*
X018307Y020765D02*
X018307Y021365D01*
X018057Y021365D01*
X018307Y021365D02*
X018557Y021365D01*
X018307Y021365D02*
X018057Y020965D01*
X018557Y020965D01*
X018307Y021365D01*
X018307Y021615D01*
X017945Y024482D02*
X018669Y024482D01*
X018669Y026122D01*
X017945Y026122D01*
X017945Y024482D01*
X018307Y024702D02*
X018307Y025302D01*
X018057Y025302D01*
X018307Y025302D02*
X018557Y025302D01*
X018307Y025302D02*
X018057Y024902D01*
X018557Y024902D01*
X018307Y025302D01*
X018307Y025552D01*
X023456Y026122D02*
X023456Y024482D01*
X024181Y024482D01*
X024181Y026122D01*
X023456Y026122D01*
X023819Y025552D02*
X023819Y025302D01*
X023569Y025302D01*
X023819Y025302D02*
X024069Y025302D01*
X023819Y025302D02*
X023569Y024902D01*
X024069Y024902D01*
X023819Y025302D01*
X023819Y024702D01*
X024181Y022185D02*
X023456Y022185D01*
X023456Y020545D01*
X024181Y020545D01*
X024181Y022185D01*
X023819Y021615D02*
X023819Y021365D01*
X023569Y021365D01*
X023819Y021365D02*
X024069Y021365D01*
X023819Y021365D02*
X023569Y020965D01*
X024069Y020965D01*
X023819Y021365D01*
X023819Y020765D01*
X025168Y021058D02*
X025168Y021408D01*
X025268Y021508D01*
X025268Y028308D01*
X025168Y028408D01*
X025168Y028758D01*
X025170Y028781D01*
X025175Y028804D01*
X025184Y028826D01*
X025197Y028846D01*
X025212Y028864D01*
X025230Y028879D01*
X025250Y028892D01*
X025272Y028901D01*
X025295Y028906D01*
X025318Y028908D01*
X028618Y028908D01*
X028641Y028906D01*
X028664Y028901D01*
X028686Y028892D01*
X028706Y028879D01*
X028724Y028864D01*
X028739Y028846D01*
X028752Y028826D01*
X028761Y028804D01*
X028766Y028781D01*
X028768Y028758D01*
X028768Y028408D01*
X028668Y028308D01*
X028668Y021508D01*
X028768Y021408D01*
X028768Y021058D01*
X028766Y021035D01*
X028761Y021012D01*
X028752Y020990D01*
X028739Y020970D01*
X028724Y020952D01*
X028706Y020937D01*
X028686Y020924D01*
X028664Y020915D01*
X028641Y020910D01*
X028618Y020908D01*
X025318Y020908D01*
X025295Y020910D01*
X025272Y020915D01*
X025250Y020924D01*
X025230Y020937D01*
X025212Y020952D01*
X025197Y020970D01*
X025184Y020990D01*
X025175Y021012D01*
X025170Y021035D01*
X025168Y021058D01*
X027149Y018609D02*
X027151Y018672D01*
X027157Y018734D01*
X027167Y018796D01*
X027180Y018858D01*
X027198Y018918D01*
X027219Y018977D01*
X027244Y019035D01*
X027273Y019091D01*
X027305Y019145D01*
X027340Y019197D01*
X027378Y019246D01*
X027420Y019294D01*
X027464Y019338D01*
X027512Y019380D01*
X027561Y019418D01*
X027613Y019453D01*
X027667Y019485D01*
X027723Y019514D01*
X027781Y019539D01*
X027840Y019560D01*
X027900Y019578D01*
X027962Y019591D01*
X028024Y019601D01*
X028086Y019607D01*
X028149Y019609D01*
X028212Y019607D01*
X028274Y019601D01*
X028336Y019591D01*
X028398Y019578D01*
X028458Y019560D01*
X028517Y019539D01*
X028575Y019514D01*
X028631Y019485D01*
X028685Y019453D01*
X028737Y019418D01*
X028786Y019380D01*
X028834Y019338D01*
X028878Y019294D01*
X028920Y019246D01*
X028958Y019197D01*
X028993Y019145D01*
X029025Y019091D01*
X029054Y019035D01*
X029079Y018977D01*
X029100Y018918D01*
X029118Y018858D01*
X029131Y018796D01*
X029141Y018734D01*
X029147Y018672D01*
X029149Y018609D01*
X029147Y018546D01*
X029141Y018484D01*
X029131Y018422D01*
X029118Y018360D01*
X029100Y018300D01*
X029079Y018241D01*
X029054Y018183D01*
X029025Y018127D01*
X028993Y018073D01*
X028958Y018021D01*
X028920Y017972D01*
X028878Y017924D01*
X028834Y017880D01*
X028786Y017838D01*
X028737Y017800D01*
X028685Y017765D01*
X028631Y017733D01*
X028575Y017704D01*
X028517Y017679D01*
X028458Y017658D01*
X028398Y017640D01*
X028336Y017627D01*
X028274Y017617D01*
X028212Y017611D01*
X028149Y017609D01*
X028086Y017611D01*
X028024Y017617D01*
X027962Y017627D01*
X027900Y017640D01*
X027840Y017658D01*
X027781Y017679D01*
X027723Y017704D01*
X027667Y017733D01*
X027613Y017765D01*
X027561Y017800D01*
X027512Y017838D01*
X027464Y017880D01*
X027420Y017924D01*
X027378Y017972D01*
X027340Y018021D01*
X027305Y018073D01*
X027273Y018127D01*
X027244Y018183D01*
X027219Y018241D01*
X027198Y018300D01*
X027180Y018360D01*
X027167Y018422D01*
X027157Y018484D01*
X027151Y018546D01*
X027149Y018609D01*
X029756Y020545D02*
X030480Y020545D01*
X030480Y022185D01*
X029756Y022185D01*
X029756Y020545D01*
X030118Y020765D02*
X030118Y021365D01*
X029868Y021365D01*
X030118Y021365D02*
X029868Y020965D01*
X030368Y020965D01*
X030118Y021365D01*
X030368Y021365D01*
X030118Y021365D02*
X030118Y021615D01*
X029756Y024482D02*
X030480Y024482D01*
X030480Y026122D01*
X029756Y026122D01*
X029756Y024482D01*
X030118Y024702D02*
X030118Y025302D01*
X029868Y025302D01*
X030118Y025302D02*
X029868Y024902D01*
X030368Y024902D01*
X030118Y025302D01*
X030368Y025302D01*
X030118Y025302D02*
X030118Y025552D01*
X035267Y026122D02*
X035267Y024482D01*
X035992Y024482D01*
X035992Y026122D01*
X035267Y026122D01*
X035630Y025552D02*
X035630Y025302D01*
X035380Y025302D01*
X035630Y025302D02*
X035880Y025302D01*
X035630Y025302D02*
X035380Y024902D01*
X035880Y024902D01*
X035630Y025302D01*
X035630Y024702D01*
X035992Y022185D02*
X035267Y022185D01*
X035267Y020545D01*
X035992Y020545D01*
X035992Y022185D01*
X035630Y021615D02*
X035630Y021365D01*
X035380Y021365D01*
X035630Y021365D02*
X035880Y021365D01*
X035630Y021365D02*
X035380Y020965D01*
X035880Y020965D01*
X035630Y021365D01*
X035630Y020765D01*
X034541Y012606D02*
X034341Y012606D01*
X034341Y011306D01*
X034541Y011306D02*
X034541Y010006D01*
X029941Y010006D01*
X012370Y020545D02*
X012370Y022185D01*
X011645Y022185D01*
X011645Y020545D01*
X012370Y020545D01*
X012008Y020765D02*
X012008Y021365D01*
X011758Y021365D01*
X012008Y021365D02*
X011758Y020965D01*
X012258Y020965D01*
X012008Y021365D01*
X012258Y021365D01*
X012008Y021365D02*
X012008Y021615D01*
X011645Y024482D02*
X012370Y024482D01*
X012370Y026122D01*
X011645Y026122D01*
X011645Y024482D01*
X012008Y024702D02*
X012008Y025302D01*
X011758Y025302D01*
X012008Y025302D02*
X011758Y024902D01*
X012258Y024902D01*
X012008Y025302D01*
X012258Y025302D01*
X012008Y025302D02*
X012008Y025552D01*
X006858Y026122D02*
X006858Y024482D01*
X006134Y024482D01*
X006134Y026122D01*
X006858Y026122D01*
X006496Y025552D02*
X006496Y025302D01*
X006246Y025302D01*
X006496Y025302D02*
X006746Y025302D01*
X006496Y025302D02*
X006246Y024902D01*
X006746Y024902D01*
X006496Y025302D01*
X006496Y024702D01*
X006858Y022185D02*
X006134Y022185D01*
X006134Y020545D01*
X006858Y020545D01*
X006858Y022185D01*
X006496Y021615D02*
X006496Y021365D01*
X006246Y021365D01*
X006496Y021365D02*
X006746Y021365D01*
X006496Y021365D02*
X006246Y020965D01*
X006746Y020965D01*
X006496Y021365D01*
X006496Y020765D01*
X005146Y021058D02*
X005146Y021408D01*
X005046Y021508D01*
X005046Y028308D01*
X005146Y028408D01*
X005146Y028758D01*
X005144Y028781D01*
X005139Y028804D01*
X005130Y028826D01*
X005117Y028846D01*
X005102Y028864D01*
X005084Y028879D01*
X005064Y028892D01*
X005042Y028901D01*
X005019Y028906D01*
X004996Y028908D01*
X001696Y028908D01*
X001673Y028906D01*
X001650Y028901D01*
X001628Y028892D01*
X001608Y028879D01*
X001590Y028864D01*
X001575Y028846D01*
X001562Y028826D01*
X001553Y028804D01*
X001548Y028781D01*
X001546Y028758D01*
X001546Y028408D01*
X001646Y028308D01*
X001646Y021508D01*
X001546Y021408D01*
X001546Y021058D01*
X001548Y021035D01*
X001553Y021012D01*
X001562Y020990D01*
X001575Y020970D01*
X001590Y020952D01*
X001608Y020937D01*
X001628Y020924D01*
X001650Y020915D01*
X001673Y020910D01*
X001696Y020908D01*
X004996Y020908D01*
X005019Y020910D01*
X005042Y020915D01*
X005064Y020924D01*
X005084Y020937D01*
X005102Y020952D01*
X005117Y020970D01*
X005130Y020990D01*
X005139Y021012D01*
X005144Y021035D01*
X005146Y021058D01*
X003527Y018609D02*
X003529Y018672D01*
X003535Y018734D01*
X003545Y018796D01*
X003558Y018858D01*
X003576Y018918D01*
X003597Y018977D01*
X003622Y019035D01*
X003651Y019091D01*
X003683Y019145D01*
X003718Y019197D01*
X003756Y019246D01*
X003798Y019294D01*
X003842Y019338D01*
X003890Y019380D01*
X003939Y019418D01*
X003991Y019453D01*
X004045Y019485D01*
X004101Y019514D01*
X004159Y019539D01*
X004218Y019560D01*
X004278Y019578D01*
X004340Y019591D01*
X004402Y019601D01*
X004464Y019607D01*
X004527Y019609D01*
X004590Y019607D01*
X004652Y019601D01*
X004714Y019591D01*
X004776Y019578D01*
X004836Y019560D01*
X004895Y019539D01*
X004953Y019514D01*
X005009Y019485D01*
X005063Y019453D01*
X005115Y019418D01*
X005164Y019380D01*
X005212Y019338D01*
X005256Y019294D01*
X005298Y019246D01*
X005336Y019197D01*
X005371Y019145D01*
X005403Y019091D01*
X005432Y019035D01*
X005457Y018977D01*
X005478Y018918D01*
X005496Y018858D01*
X005509Y018796D01*
X005519Y018734D01*
X005525Y018672D01*
X005527Y018609D01*
X005525Y018546D01*
X005519Y018484D01*
X005509Y018422D01*
X005496Y018360D01*
X005478Y018300D01*
X005457Y018241D01*
X005432Y018183D01*
X005403Y018127D01*
X005371Y018073D01*
X005336Y018021D01*
X005298Y017972D01*
X005256Y017924D01*
X005212Y017880D01*
X005164Y017838D01*
X005115Y017800D01*
X005063Y017765D01*
X005009Y017733D01*
X004953Y017704D01*
X004895Y017679D01*
X004836Y017658D01*
X004776Y017640D01*
X004714Y017627D01*
X004652Y017617D01*
X004590Y017611D01*
X004527Y017609D01*
X004464Y017611D01*
X004402Y017617D01*
X004340Y017627D01*
X004278Y017640D01*
X004218Y017658D01*
X004159Y017679D01*
X004101Y017704D01*
X004045Y017733D01*
X003991Y017765D01*
X003939Y017800D01*
X003890Y017838D01*
X003842Y017880D01*
X003798Y017924D01*
X003756Y017972D01*
X003718Y018021D01*
X003683Y018073D01*
X003651Y018127D01*
X003622Y018183D01*
X003597Y018241D01*
X003576Y018300D01*
X003558Y018360D01*
X003545Y018422D01*
X003535Y018484D01*
X003529Y018546D01*
X003527Y018609D01*
X004371Y035223D02*
X004371Y036623D01*
X004371Y035223D02*
X004471Y035223D01*
X011671Y035223D02*
X011771Y035223D01*
X011771Y036623D01*
X016182Y036623D02*
X016182Y035223D01*
X016282Y035223D01*
X023482Y035223D02*
X023582Y035223D01*
X023582Y036623D01*
X027993Y036623D02*
X027993Y035223D01*
X028093Y035223D01*
X035293Y035223D02*
X035393Y035223D01*
X035393Y036623D01*
D13*
X035029Y036503D02*
X035029Y036043D01*
X035105Y036273D02*
X034798Y036273D01*
X035029Y036503D01*
X034491Y036503D02*
X034491Y036043D01*
X034338Y036043D02*
X034645Y036043D01*
X034338Y036349D02*
X034491Y036503D01*
X035038Y032956D02*
X035038Y032496D01*
X034885Y032496D02*
X035192Y032496D01*
X035345Y032572D02*
X035422Y032496D01*
X035575Y032496D01*
X035652Y032572D01*
X035652Y032726D01*
X035575Y032803D01*
X035499Y032803D01*
X035345Y032726D01*
X035345Y032956D01*
X035652Y032956D01*
X035038Y032956D02*
X034885Y032803D01*
X034324Y032003D02*
X034401Y031926D01*
X034401Y031849D01*
X034324Y031773D01*
X034170Y031773D01*
X034094Y031849D01*
X034094Y031926D01*
X034170Y032003D01*
X034324Y032003D01*
X034324Y031773D02*
X034401Y031696D01*
X034401Y031619D01*
X034324Y031543D01*
X034170Y031543D01*
X034094Y031619D01*
X034094Y031696D01*
X034170Y031773D01*
X033940Y031773D02*
X033710Y031773D01*
X033633Y031849D01*
X033633Y031926D01*
X033710Y032003D01*
X033863Y032003D01*
X033940Y031926D01*
X033940Y031619D01*
X033863Y031543D01*
X033710Y031543D01*
X033633Y031619D01*
X033480Y031543D02*
X033173Y031543D01*
X033480Y031849D01*
X033480Y031926D01*
X033403Y032003D01*
X033250Y032003D01*
X033173Y031926D01*
X033019Y031543D02*
X032713Y031543D01*
X032713Y032003D01*
X029287Y031926D02*
X029287Y031849D01*
X029210Y031773D01*
X029287Y031696D01*
X029287Y031619D01*
X029210Y031543D01*
X029057Y031543D01*
X028980Y031619D01*
X028826Y031619D02*
X028750Y031543D01*
X028596Y031543D01*
X028519Y031619D01*
X028519Y031926D01*
X028596Y032003D01*
X028750Y032003D01*
X028826Y031926D01*
X028980Y031926D02*
X029057Y032003D01*
X029210Y032003D01*
X029287Y031926D01*
X029210Y031773D02*
X029133Y031773D01*
X028366Y032003D02*
X028213Y032003D01*
X028289Y032003D02*
X028289Y031543D01*
X028213Y031543D02*
X028366Y031543D01*
X028347Y032472D02*
X028040Y032472D01*
X028194Y032472D02*
X028194Y032933D01*
X028040Y032779D01*
X028494Y036043D02*
X028800Y036349D01*
X028800Y036426D01*
X028724Y036503D01*
X028570Y036503D01*
X028494Y036426D01*
X028494Y036043D02*
X028800Y036043D01*
X023841Y032956D02*
X023534Y032956D01*
X023534Y032726D01*
X023688Y032803D01*
X023764Y032803D01*
X023841Y032726D01*
X023841Y032572D01*
X023764Y032496D01*
X023611Y032496D01*
X023534Y032572D01*
X023381Y032496D02*
X023074Y032496D01*
X023227Y032496D02*
X023227Y032956D01*
X023074Y032803D01*
X022513Y032003D02*
X022590Y031926D01*
X022590Y031849D01*
X022513Y031773D01*
X022359Y031773D01*
X022283Y031849D01*
X022283Y031926D01*
X022359Y032003D01*
X022513Y032003D01*
X022513Y031773D02*
X022590Y031696D01*
X022590Y031619D01*
X022513Y031543D01*
X022359Y031543D01*
X022283Y031619D01*
X022283Y031696D01*
X022359Y031773D01*
X022129Y031773D02*
X021899Y031773D01*
X021822Y031849D01*
X021822Y031926D01*
X021899Y032003D01*
X022052Y032003D01*
X022129Y031926D01*
X022129Y031619D01*
X022052Y031543D01*
X021899Y031543D01*
X021822Y031619D01*
X021669Y031543D02*
X021362Y031543D01*
X021669Y031849D01*
X021669Y031926D01*
X021592Y032003D01*
X021439Y032003D01*
X021362Y031926D01*
X021208Y031543D02*
X020902Y031543D01*
X020902Y032003D01*
X017476Y031926D02*
X017399Y032003D01*
X017246Y032003D01*
X017169Y031926D01*
X017015Y031926D02*
X016939Y032003D01*
X016785Y032003D01*
X016708Y031926D01*
X016708Y031619D01*
X016785Y031543D01*
X016939Y031543D01*
X017015Y031619D01*
X017169Y031543D02*
X017476Y031849D01*
X017476Y031926D01*
X017476Y031543D02*
X017169Y031543D01*
X016555Y031543D02*
X016402Y031543D01*
X016478Y031543D02*
X016478Y032003D01*
X016402Y032003D02*
X016555Y032003D01*
X016536Y032472D02*
X016229Y032472D01*
X016383Y032472D02*
X016383Y032933D01*
X016229Y032779D01*
X016682Y036043D02*
X016989Y036349D01*
X016989Y036426D01*
X016913Y036503D01*
X016759Y036503D01*
X016682Y036426D01*
X016682Y036043D02*
X016989Y036043D01*
X022527Y036043D02*
X022834Y036043D01*
X022680Y036043D02*
X022680Y036503D01*
X022527Y036349D01*
X022987Y036273D02*
X023294Y036273D01*
X023217Y036043D02*
X023217Y036503D01*
X022987Y036273D01*
X012030Y032956D02*
X011723Y032956D01*
X011723Y032726D01*
X011877Y032803D01*
X011953Y032803D01*
X012030Y032726D01*
X012030Y032572D01*
X011953Y032496D01*
X011800Y032496D01*
X011723Y032572D01*
X011570Y032496D02*
X011263Y032496D01*
X011416Y032496D02*
X011416Y032956D01*
X011263Y032803D01*
X010702Y032003D02*
X010779Y031926D01*
X010779Y031849D01*
X010702Y031773D01*
X010548Y031773D01*
X010472Y031849D01*
X010472Y031926D01*
X010548Y032003D01*
X010702Y032003D01*
X010702Y031773D02*
X010779Y031696D01*
X010779Y031619D01*
X010702Y031543D01*
X010548Y031543D01*
X010472Y031619D01*
X010472Y031696D01*
X010548Y031773D01*
X010318Y031773D02*
X010088Y031773D01*
X010011Y031849D01*
X010011Y031926D01*
X010088Y032003D01*
X010241Y032003D01*
X010318Y031926D01*
X010318Y031619D01*
X010241Y031543D01*
X010088Y031543D01*
X010011Y031619D01*
X009858Y031543D02*
X009551Y031543D01*
X009858Y031849D01*
X009858Y031926D01*
X009781Y032003D01*
X009628Y032003D01*
X009551Y031926D01*
X009397Y031543D02*
X009091Y031543D01*
X009091Y032003D01*
X005665Y031543D02*
X005358Y031543D01*
X005511Y031543D02*
X005511Y032003D01*
X005358Y031849D01*
X005204Y031926D02*
X005128Y032003D01*
X004974Y032003D01*
X004897Y031926D01*
X004897Y031619D01*
X004974Y031543D01*
X005128Y031543D01*
X005204Y031619D01*
X004744Y031543D02*
X004591Y031543D01*
X004667Y031543D02*
X004667Y032003D01*
X004591Y032003D02*
X004744Y032003D01*
X004725Y032472D02*
X004418Y032472D01*
X004572Y032472D02*
X004572Y032933D01*
X004418Y032779D01*
X004871Y036043D02*
X005178Y036349D01*
X005178Y036426D01*
X005102Y036503D01*
X004948Y036503D01*
X004871Y036426D01*
X004871Y036043D02*
X005178Y036043D01*
X010716Y036043D02*
X011023Y036043D01*
X010869Y036043D02*
X010869Y036503D01*
X010716Y036349D01*
X011176Y036273D02*
X011483Y036273D01*
X011406Y036043D02*
X011406Y036503D01*
X011176Y036273D01*
X011495Y025265D02*
X011495Y024958D01*
X011495Y024805D02*
X011035Y024498D01*
X011035Y024805D02*
X011495Y024498D01*
X011189Y024958D02*
X011035Y025112D01*
X011495Y025112D01*
X007545Y024804D02*
X007545Y024498D01*
X007468Y024344D02*
X007314Y024191D01*
X007314Y024267D02*
X007314Y024037D01*
X007468Y024037D02*
X007008Y024037D01*
X007008Y024267D01*
X007084Y024344D01*
X007238Y024344D01*
X007314Y024267D01*
X007391Y023884D02*
X007084Y023884D01*
X007008Y023807D01*
X007008Y023654D01*
X007084Y023577D01*
X007391Y023577D01*
X007468Y023654D01*
X007468Y023807D01*
X007391Y023884D01*
X007008Y023423D02*
X007008Y023116D01*
X007008Y023270D02*
X007468Y023270D01*
X007391Y022963D02*
X007084Y022963D01*
X007008Y022886D01*
X007008Y022733D01*
X007084Y022656D01*
X007391Y022656D01*
X007468Y022733D01*
X007468Y022886D01*
X007391Y022963D01*
X007468Y022503D02*
X007008Y022503D01*
X007161Y022349D01*
X007008Y022196D01*
X007468Y022196D01*
X007468Y024958D02*
X007008Y025265D01*
X007008Y024958D02*
X007468Y025265D01*
X018819Y025265D02*
X018895Y025265D01*
X019049Y025111D01*
X019279Y025111D01*
X019049Y025111D02*
X018895Y024958D01*
X018819Y024958D01*
X019356Y024804D02*
X019356Y024498D01*
X019279Y024344D02*
X019125Y024191D01*
X019125Y024267D02*
X019125Y024037D01*
X019279Y024037D02*
X018819Y024037D01*
X018819Y024267D01*
X018895Y024344D01*
X019049Y024344D01*
X019125Y024267D01*
X019202Y023884D02*
X018895Y023884D01*
X018819Y023807D01*
X018819Y023654D01*
X018895Y023577D01*
X019202Y023577D01*
X019279Y023654D01*
X019279Y023807D01*
X019202Y023884D01*
X018819Y023423D02*
X018819Y023116D01*
X018819Y023270D02*
X019279Y023270D01*
X019202Y022963D02*
X018895Y022963D01*
X018819Y022886D01*
X018819Y022733D01*
X018895Y022656D01*
X019202Y022656D01*
X019279Y022733D01*
X019279Y022886D01*
X019202Y022963D01*
X019279Y022503D02*
X018819Y022503D01*
X018972Y022349D01*
X018819Y022196D01*
X019279Y022196D01*
X022846Y024498D02*
X023306Y024805D01*
X023230Y024958D02*
X023306Y025035D01*
X023306Y025188D01*
X023230Y025265D01*
X023153Y025265D01*
X023076Y025188D01*
X023076Y025112D01*
X023076Y025188D02*
X023000Y025265D01*
X022923Y025265D01*
X022846Y025188D01*
X022846Y025035D01*
X022923Y024958D01*
X022846Y024805D02*
X023306Y024498D01*
X030630Y024267D02*
X030706Y024344D01*
X030860Y024344D01*
X030936Y024267D01*
X030936Y024037D01*
X030936Y024191D02*
X031090Y024344D01*
X031167Y024498D02*
X031167Y024804D01*
X031090Y024958D02*
X031090Y025265D01*
X031090Y024958D02*
X031013Y024958D01*
X030706Y025265D01*
X030630Y025265D01*
X030630Y024958D01*
X030630Y024267D02*
X030630Y024037D01*
X031090Y024037D01*
X031013Y023884D02*
X030706Y023884D01*
X030630Y023807D01*
X030630Y023654D01*
X030706Y023577D01*
X031013Y023577D01*
X031090Y023654D01*
X031090Y023807D01*
X031013Y023884D01*
X030630Y023423D02*
X030630Y023116D01*
X030630Y023270D02*
X031090Y023270D01*
X031013Y022963D02*
X030706Y022963D01*
X030630Y022886D01*
X030630Y022733D01*
X030706Y022656D01*
X031013Y022656D01*
X031090Y022733D01*
X031090Y022886D01*
X031013Y022963D01*
X031090Y022503D02*
X030630Y022503D01*
X030783Y022349D01*
X030630Y022196D01*
X031090Y022196D01*
X034657Y024498D02*
X035117Y024805D01*
X034887Y024958D02*
X034887Y025265D01*
X034657Y025188D02*
X034887Y024958D01*
X034657Y024805D02*
X035117Y024498D01*
X035117Y025188D02*
X034657Y025188D01*
X027442Y013809D02*
X027682Y013569D01*
X027743Y013569D01*
X027743Y013441D02*
X027743Y013201D01*
X027743Y013321D02*
X027382Y013321D01*
X027502Y013201D01*
X027442Y013073D02*
X027382Y013013D01*
X027382Y012892D01*
X027442Y012832D01*
X027502Y012832D01*
X027562Y012892D01*
X027562Y013013D01*
X027622Y013073D01*
X027682Y013073D01*
X027743Y013013D01*
X027743Y012892D01*
X027682Y012832D01*
X027682Y012704D02*
X027382Y012704D01*
X027382Y012464D02*
X027682Y012464D01*
X027743Y012524D01*
X027743Y012644D01*
X027682Y012704D01*
X027803Y012952D02*
X027322Y012952D01*
X027382Y013569D02*
X027382Y013809D01*
X027442Y013809D01*
X025049Y013569D02*
X024989Y013569D01*
X024749Y013809D01*
X024689Y013809D01*
X024689Y013569D01*
X024689Y013441D02*
X024689Y013201D01*
X024869Y013201D01*
X024809Y013321D01*
X024809Y013381D01*
X024869Y013441D01*
X024989Y013441D01*
X025049Y013381D01*
X025049Y013261D01*
X024989Y013201D01*
X025049Y013073D02*
X025049Y012832D01*
X025049Y012952D02*
X024689Y012952D01*
X024809Y012832D01*
X024749Y012704D02*
X024689Y012644D01*
X024689Y012524D01*
X024749Y012464D01*
X024989Y012464D01*
X025049Y012524D01*
X025049Y012644D01*
X024989Y012704D01*
X025049Y012336D02*
X024689Y012336D01*
X024869Y012336D02*
X024869Y012096D01*
X024869Y011968D02*
X024869Y011727D01*
X024809Y011727D02*
X024689Y011848D01*
X024809Y011968D01*
X025049Y011968D01*
X025049Y012096D02*
X024689Y012096D01*
X024809Y011727D02*
X025049Y011727D01*
X025049Y011539D02*
X024689Y011539D01*
X024869Y011359D01*
X024869Y011599D01*
X024749Y011231D02*
X024989Y010991D01*
X025049Y010991D01*
X024689Y010991D02*
X024689Y011231D01*
X024749Y011231D01*
X022526Y012524D02*
X022526Y012644D01*
X022466Y012704D01*
X022166Y012704D01*
X022226Y012832D02*
X022166Y012892D01*
X022166Y013013D01*
X022226Y013073D01*
X022346Y013013D02*
X022346Y012892D01*
X022286Y012832D01*
X022226Y012832D01*
X022106Y012952D02*
X022586Y012952D01*
X022526Y012892D02*
X022526Y013013D01*
X022466Y013073D01*
X022406Y013073D01*
X022346Y013013D01*
X022286Y013201D02*
X022166Y013321D01*
X022526Y013321D01*
X022526Y013201D02*
X022526Y013441D01*
X022466Y013569D02*
X022406Y013569D01*
X022346Y013629D01*
X022346Y013749D01*
X022406Y013809D01*
X022466Y013809D01*
X022526Y013749D01*
X022526Y013629D01*
X022466Y013569D01*
X022346Y013629D02*
X022286Y013569D01*
X022226Y013569D01*
X022166Y013629D01*
X022166Y013749D01*
X022226Y013809D01*
X022286Y013809D01*
X022346Y013749D01*
X022526Y012892D02*
X022466Y012832D01*
X022526Y012524D02*
X022466Y012464D01*
X022166Y012464D01*
X019832Y012524D02*
X019832Y012644D01*
X019772Y012704D01*
X019832Y012832D02*
X019832Y013073D01*
X019832Y012952D02*
X019472Y012952D01*
X019592Y012832D01*
X019532Y012704D02*
X019472Y012644D01*
X019472Y012524D01*
X019532Y012464D01*
X019772Y012464D01*
X019832Y012524D01*
X019832Y012336D02*
X019472Y012336D01*
X019652Y012336D02*
X019652Y012096D01*
X019652Y011968D02*
X019652Y011727D01*
X019592Y011727D02*
X019472Y011848D01*
X019592Y011968D01*
X019832Y011968D01*
X019832Y012096D02*
X019472Y012096D01*
X019592Y011727D02*
X019832Y011727D01*
X019832Y011539D02*
X019472Y011539D01*
X019652Y011359D01*
X019652Y011599D01*
X019532Y011231D02*
X019772Y010991D01*
X019832Y010991D01*
X019472Y010991D02*
X019472Y011231D01*
X019532Y011231D01*
X017309Y012524D02*
X017309Y012644D01*
X017249Y012704D01*
X016949Y012704D01*
X017009Y012832D02*
X016949Y012892D01*
X016949Y013013D01*
X017009Y013073D01*
X017129Y013013D02*
X017129Y012892D01*
X017069Y012832D01*
X017009Y012832D01*
X016889Y012952D02*
X017369Y012952D01*
X017309Y012892D02*
X017309Y013013D01*
X017249Y013073D01*
X017189Y013073D01*
X017129Y013013D01*
X017069Y013201D02*
X016949Y013321D01*
X017309Y013321D01*
X017309Y013201D02*
X017309Y013441D01*
X017249Y013569D02*
X017309Y013629D01*
X017309Y013749D01*
X017249Y013809D01*
X017189Y013809D01*
X017129Y013749D01*
X017129Y013569D01*
X017249Y013569D01*
X017129Y013569D02*
X017009Y013689D01*
X016949Y013809D01*
X017309Y012892D02*
X017249Y012832D01*
X017309Y012524D02*
X017249Y012464D01*
X016949Y012464D01*
X014616Y012524D02*
X014616Y012644D01*
X014556Y012704D01*
X014616Y012832D02*
X014616Y013073D01*
X014616Y012952D02*
X014256Y012952D01*
X014376Y012832D01*
X014316Y012704D02*
X014256Y012644D01*
X014256Y012524D01*
X014316Y012464D01*
X014556Y012464D01*
X014616Y012524D01*
X014616Y012336D02*
X014256Y012336D01*
X014436Y012336D02*
X014436Y012096D01*
X014436Y011968D02*
X014436Y011727D01*
X014376Y011727D02*
X014256Y011848D01*
X014376Y011968D01*
X014616Y011968D01*
X014616Y012096D02*
X014256Y012096D01*
X014376Y011727D02*
X014616Y011727D01*
X014616Y011539D02*
X014256Y011539D01*
X014436Y011359D01*
X014436Y011599D01*
X014316Y011231D02*
X014556Y010991D01*
X014616Y010991D01*
X014256Y010991D02*
X014256Y011231D01*
X014316Y011231D01*
X014256Y013201D02*
X014436Y013201D01*
X014376Y013321D01*
X014376Y013381D01*
X014436Y013441D01*
X014556Y013441D01*
X014616Y013381D01*
X014616Y013261D01*
X014556Y013201D01*
X014256Y013201D02*
X014256Y013441D01*
X014256Y013569D02*
X014256Y013809D01*
X014316Y013809D01*
X014556Y013569D01*
X014616Y013569D01*
X019472Y013569D02*
X019472Y013809D01*
X019532Y013809D01*
X019772Y013569D01*
X019832Y013569D01*
X019772Y013441D02*
X019652Y013441D01*
X019592Y013381D01*
X019592Y013321D01*
X019652Y013201D01*
X019472Y013201D01*
X019472Y013441D01*
X019772Y013441D02*
X019832Y013381D01*
X019832Y013261D01*
X019772Y013201D01*
D14*
X019882Y036921D03*
X031693Y036921D03*
X008071Y036921D03*
D15*
X007177Y030276D02*
X007177Y029776D01*
X009070Y030026D02*
X009073Y030131D01*
X009080Y030237D01*
X009093Y030341D01*
X009111Y030445D01*
X009134Y030548D01*
X009163Y030650D01*
X009196Y030750D01*
X009234Y030849D01*
X009276Y030945D01*
X009324Y031040D01*
X009376Y031131D01*
X009432Y031220D01*
X009493Y031307D01*
X009558Y031390D01*
X009627Y031470D01*
X009700Y031546D01*
X009776Y031619D01*
X009856Y031688D01*
X009939Y031753D01*
X010026Y031814D01*
X010115Y031870D01*
X010206Y031922D01*
X010301Y031970D01*
X010397Y032012D01*
X010496Y032050D01*
X010596Y032083D01*
X010698Y032112D01*
X010801Y032135D01*
X010905Y032153D01*
X011009Y032166D01*
X011115Y032173D01*
X011220Y032176D01*
X011325Y032173D01*
X011431Y032166D01*
X011535Y032153D01*
X011639Y032135D01*
X011742Y032112D01*
X011844Y032083D01*
X011944Y032050D01*
X012043Y032012D01*
X012139Y031970D01*
X012234Y031922D01*
X012325Y031870D01*
X012414Y031814D01*
X012501Y031753D01*
X012584Y031688D01*
X012664Y031619D01*
X012740Y031546D01*
X012813Y031470D01*
X012882Y031390D01*
X012947Y031307D01*
X013008Y031220D01*
X013064Y031131D01*
X013116Y031040D01*
X013164Y030945D01*
X013206Y030849D01*
X013244Y030750D01*
X013277Y030650D01*
X013306Y030548D01*
X013329Y030445D01*
X013347Y030341D01*
X013360Y030237D01*
X013367Y030131D01*
X013370Y030026D01*
X013367Y029921D01*
X013360Y029815D01*
X013347Y029711D01*
X013329Y029607D01*
X013306Y029504D01*
X013277Y029402D01*
X013244Y029302D01*
X013206Y029203D01*
X013164Y029107D01*
X013116Y029012D01*
X013064Y028921D01*
X013008Y028832D01*
X012947Y028745D01*
X012882Y028662D01*
X012813Y028582D01*
X012740Y028506D01*
X012664Y028433D01*
X012584Y028364D01*
X012501Y028299D01*
X012414Y028238D01*
X012325Y028182D01*
X012234Y028130D01*
X012139Y028082D01*
X012043Y028040D01*
X011944Y028002D01*
X011844Y027969D01*
X011742Y027940D01*
X011639Y027917D01*
X011535Y027899D01*
X011431Y027886D01*
X011325Y027879D01*
X011220Y027876D01*
X011115Y027879D01*
X011009Y027886D01*
X010905Y027899D01*
X010801Y027917D01*
X010698Y027940D01*
X010596Y027969D01*
X010496Y028002D01*
X010397Y028040D01*
X010301Y028082D01*
X010206Y028130D01*
X010115Y028182D01*
X010026Y028238D01*
X009939Y028299D01*
X009856Y028364D01*
X009776Y028433D01*
X009700Y028506D01*
X009627Y028582D01*
X009558Y028662D01*
X009493Y028745D01*
X009432Y028832D01*
X009376Y028921D01*
X009324Y029012D01*
X009276Y029107D01*
X009234Y029203D01*
X009196Y029302D01*
X009163Y029402D01*
X009134Y029504D01*
X009111Y029607D01*
X009093Y029711D01*
X009080Y029815D01*
X009073Y029921D01*
X009070Y030026D01*
X011970Y029526D02*
X012470Y029526D01*
X010742Y025548D02*
X007752Y025548D01*
X007752Y021700D01*
X008460Y021700D01*
X008460Y022654D01*
X010033Y022654D01*
X010033Y021700D01*
X010742Y021700D01*
X010742Y025548D01*
X010033Y021700D02*
X008460Y021700D01*
X005527Y019359D02*
X005527Y017859D01*
X005784Y017186D02*
X008264Y017186D01*
X008264Y016241D01*
X005784Y016241D01*
X005784Y017186D01*
X005778Y011103D02*
X008258Y011103D01*
X008258Y010158D01*
X005778Y010158D01*
X005778Y011103D01*
X005738Y009434D02*
X008219Y009434D01*
X008219Y008489D01*
X005738Y008489D01*
X005738Y009434D01*
X017338Y017859D02*
X017338Y019359D01*
X019823Y019082D02*
X019823Y018137D01*
X022303Y018137D01*
X022303Y019082D01*
X019823Y019082D01*
X019563Y021700D02*
X019563Y025548D01*
X022553Y025548D01*
X022553Y021700D01*
X021844Y021700D01*
X021844Y022654D01*
X020271Y022654D01*
X020271Y021700D01*
X021844Y021700D01*
X020271Y021700D02*
X019563Y021700D01*
X029149Y019359D02*
X029149Y017859D01*
X031634Y018137D02*
X031634Y019082D01*
X034114Y019082D01*
X034114Y018137D01*
X031634Y018137D01*
X031374Y021700D02*
X031374Y025548D01*
X034364Y025548D01*
X034364Y021700D01*
X033655Y021700D01*
X033655Y022654D01*
X032082Y022654D01*
X032082Y021700D01*
X033655Y021700D01*
X032082Y021700D02*
X031374Y021700D01*
X030799Y029776D02*
X030799Y030276D01*
X032692Y030026D02*
X032695Y030131D01*
X032702Y030237D01*
X032715Y030341D01*
X032733Y030445D01*
X032756Y030548D01*
X032785Y030650D01*
X032818Y030750D01*
X032856Y030849D01*
X032898Y030945D01*
X032946Y031040D01*
X032998Y031131D01*
X033054Y031220D01*
X033115Y031307D01*
X033180Y031390D01*
X033249Y031470D01*
X033322Y031546D01*
X033398Y031619D01*
X033478Y031688D01*
X033561Y031753D01*
X033648Y031814D01*
X033737Y031870D01*
X033828Y031922D01*
X033923Y031970D01*
X034019Y032012D01*
X034118Y032050D01*
X034218Y032083D01*
X034320Y032112D01*
X034423Y032135D01*
X034527Y032153D01*
X034631Y032166D01*
X034737Y032173D01*
X034842Y032176D01*
X034947Y032173D01*
X035053Y032166D01*
X035157Y032153D01*
X035261Y032135D01*
X035364Y032112D01*
X035466Y032083D01*
X035566Y032050D01*
X035665Y032012D01*
X035761Y031970D01*
X035856Y031922D01*
X035947Y031870D01*
X036036Y031814D01*
X036123Y031753D01*
X036206Y031688D01*
X036286Y031619D01*
X036362Y031546D01*
X036435Y031470D01*
X036504Y031390D01*
X036569Y031307D01*
X036630Y031220D01*
X036686Y031131D01*
X036738Y031040D01*
X036786Y030945D01*
X036828Y030849D01*
X036866Y030750D01*
X036899Y030650D01*
X036928Y030548D01*
X036951Y030445D01*
X036969Y030341D01*
X036982Y030237D01*
X036989Y030131D01*
X036992Y030026D01*
X036989Y029921D01*
X036982Y029815D01*
X036969Y029711D01*
X036951Y029607D01*
X036928Y029504D01*
X036899Y029402D01*
X036866Y029302D01*
X036828Y029203D01*
X036786Y029107D01*
X036738Y029012D01*
X036686Y028921D01*
X036630Y028832D01*
X036569Y028745D01*
X036504Y028662D01*
X036435Y028582D01*
X036362Y028506D01*
X036286Y028433D01*
X036206Y028364D01*
X036123Y028299D01*
X036036Y028238D01*
X035947Y028182D01*
X035856Y028130D01*
X035761Y028082D01*
X035665Y028040D01*
X035566Y028002D01*
X035466Y027969D01*
X035364Y027940D01*
X035261Y027917D01*
X035157Y027899D01*
X035053Y027886D01*
X034947Y027879D01*
X034842Y027876D01*
X034737Y027879D01*
X034631Y027886D01*
X034527Y027899D01*
X034423Y027917D01*
X034320Y027940D01*
X034218Y027969D01*
X034118Y028002D01*
X034019Y028040D01*
X033923Y028082D01*
X033828Y028130D01*
X033737Y028182D01*
X033648Y028238D01*
X033561Y028299D01*
X033478Y028364D01*
X033398Y028433D01*
X033322Y028506D01*
X033249Y028582D01*
X033180Y028662D01*
X033115Y028745D01*
X033054Y028832D01*
X032998Y028921D01*
X032946Y029012D01*
X032898Y029107D01*
X032856Y029203D01*
X032818Y029302D01*
X032785Y029402D01*
X032756Y029504D01*
X032733Y029607D01*
X032715Y029711D01*
X032702Y029815D01*
X032695Y029921D01*
X032692Y030026D01*
X035592Y029526D02*
X036092Y029526D01*
X024281Y029526D02*
X023781Y029526D01*
X020881Y030026D02*
X020884Y030131D01*
X020891Y030237D01*
X020904Y030341D01*
X020922Y030445D01*
X020945Y030548D01*
X020974Y030650D01*
X021007Y030750D01*
X021045Y030849D01*
X021087Y030945D01*
X021135Y031040D01*
X021187Y031131D01*
X021243Y031220D01*
X021304Y031307D01*
X021369Y031390D01*
X021438Y031470D01*
X021511Y031546D01*
X021587Y031619D01*
X021667Y031688D01*
X021750Y031753D01*
X021837Y031814D01*
X021926Y031870D01*
X022017Y031922D01*
X022112Y031970D01*
X022208Y032012D01*
X022307Y032050D01*
X022407Y032083D01*
X022509Y032112D01*
X022612Y032135D01*
X022716Y032153D01*
X022820Y032166D01*
X022926Y032173D01*
X023031Y032176D01*
X023136Y032173D01*
X023242Y032166D01*
X023346Y032153D01*
X023450Y032135D01*
X023553Y032112D01*
X023655Y032083D01*
X023755Y032050D01*
X023854Y032012D01*
X023950Y031970D01*
X024045Y031922D01*
X024136Y031870D01*
X024225Y031814D01*
X024312Y031753D01*
X024395Y031688D01*
X024475Y031619D01*
X024551Y031546D01*
X024624Y031470D01*
X024693Y031390D01*
X024758Y031307D01*
X024819Y031220D01*
X024875Y031131D01*
X024927Y031040D01*
X024975Y030945D01*
X025017Y030849D01*
X025055Y030750D01*
X025088Y030650D01*
X025117Y030548D01*
X025140Y030445D01*
X025158Y030341D01*
X025171Y030237D01*
X025178Y030131D01*
X025181Y030026D01*
X025178Y029921D01*
X025171Y029815D01*
X025158Y029711D01*
X025140Y029607D01*
X025117Y029504D01*
X025088Y029402D01*
X025055Y029302D01*
X025017Y029203D01*
X024975Y029107D01*
X024927Y029012D01*
X024875Y028921D01*
X024819Y028832D01*
X024758Y028745D01*
X024693Y028662D01*
X024624Y028582D01*
X024551Y028506D01*
X024475Y028433D01*
X024395Y028364D01*
X024312Y028299D01*
X024225Y028238D01*
X024136Y028182D01*
X024045Y028130D01*
X023950Y028082D01*
X023854Y028040D01*
X023755Y028002D01*
X023655Y027969D01*
X023553Y027940D01*
X023450Y027917D01*
X023346Y027899D01*
X023242Y027886D01*
X023136Y027879D01*
X023031Y027876D01*
X022926Y027879D01*
X022820Y027886D01*
X022716Y027899D01*
X022612Y027917D01*
X022509Y027940D01*
X022407Y027969D01*
X022307Y028002D01*
X022208Y028040D01*
X022112Y028082D01*
X022017Y028130D01*
X021926Y028182D01*
X021837Y028238D01*
X021750Y028299D01*
X021667Y028364D01*
X021587Y028433D01*
X021511Y028506D01*
X021438Y028582D01*
X021369Y028662D01*
X021304Y028745D01*
X021243Y028832D01*
X021187Y028921D01*
X021135Y029012D01*
X021087Y029107D01*
X021045Y029203D01*
X021007Y029302D01*
X020974Y029402D01*
X020945Y029504D01*
X020922Y029607D01*
X020904Y029711D01*
X020891Y029815D01*
X020884Y029921D01*
X020881Y030026D01*
X018988Y029776D02*
X018988Y030276D01*
X037750Y008214D02*
X040230Y008214D01*
X040230Y007269D01*
X037750Y007269D01*
X037750Y008214D01*
X034032Y007830D02*
X034032Y006885D01*
X031552Y006885D01*
X031552Y007830D01*
X034032Y007830D01*
X034038Y006560D02*
X031557Y006560D01*
X031557Y005615D01*
X034038Y005615D01*
X034038Y006560D01*
X029661Y007715D02*
X028161Y007715D01*
D16*
X030112Y021915D03*
X030112Y025852D03*
X035624Y025852D03*
X035624Y021915D03*
X023813Y021915D03*
X023813Y025852D03*
X018301Y025852D03*
X018301Y021915D03*
X012002Y021915D03*
X012002Y025852D03*
X006490Y025852D03*
X006490Y021915D03*
D17*
X006496Y022310D03*
X006496Y020420D03*
X006496Y024357D03*
X006496Y026247D03*
X012008Y026247D03*
X012008Y024357D03*
X012008Y022310D03*
X012008Y020420D03*
X018307Y020420D03*
X018307Y022310D03*
X018307Y024357D03*
X018307Y026247D03*
X023819Y026247D03*
X023819Y024357D03*
X023819Y022310D03*
X023819Y020420D03*
X030118Y020420D03*
X030118Y022310D03*
X030118Y024357D03*
X030118Y026247D03*
X035630Y026247D03*
X035630Y024357D03*
X035630Y022310D03*
X035630Y020420D03*
D18*
X035081Y021565D02*
X034631Y021565D01*
X034631Y021790D01*
X034706Y021865D01*
X035006Y021865D01*
X035081Y021790D01*
X035081Y021565D01*
X035006Y022025D02*
X035081Y022100D01*
X035081Y022250D01*
X035006Y022325D01*
X034706Y022325D01*
X034631Y022250D01*
X034631Y022100D01*
X034706Y022025D01*
X034781Y022025D01*
X034856Y022100D01*
X034856Y022325D01*
X034631Y025533D02*
X034631Y025758D01*
X034706Y025834D01*
X035006Y025834D01*
X035081Y025758D01*
X035081Y025533D01*
X034631Y025533D01*
X034781Y025994D02*
X034631Y026144D01*
X035081Y026144D01*
X035081Y025994D02*
X035081Y026294D01*
X035006Y026454D02*
X034706Y026454D01*
X034631Y026529D01*
X034631Y026679D01*
X034706Y026754D01*
X035006Y026454D01*
X035081Y026529D01*
X035081Y026679D01*
X035006Y026754D01*
X034706Y026754D01*
X029570Y026754D02*
X029570Y026454D01*
X029269Y026754D01*
X029194Y026754D01*
X029119Y026679D01*
X029119Y026529D01*
X029194Y026454D01*
X029119Y026144D02*
X029570Y026144D01*
X029570Y025994D02*
X029570Y026294D01*
X029269Y025994D02*
X029119Y026144D01*
X029194Y025834D02*
X029119Y025758D01*
X029119Y025533D01*
X029570Y025533D01*
X029570Y025758D01*
X029495Y025834D01*
X029194Y025834D01*
X027173Y025216D02*
X027023Y025065D01*
X027173Y024915D01*
X026723Y024915D01*
X026723Y024755D02*
X026723Y024455D01*
X026948Y024455D01*
X026873Y024605D01*
X026873Y024680D01*
X026948Y024755D01*
X027098Y024755D01*
X027173Y024680D01*
X027173Y024530D01*
X027098Y024455D01*
X027098Y023834D02*
X027173Y023759D01*
X027173Y023609D01*
X027098Y023534D01*
X026948Y023534D02*
X026873Y023684D01*
X026873Y023759D01*
X026948Y023834D01*
X027098Y023834D01*
X026948Y023534D02*
X026723Y023534D01*
X026723Y023834D01*
X026798Y023374D02*
X026723Y023299D01*
X026723Y023149D01*
X026798Y023074D01*
X026798Y023374D02*
X026873Y023374D01*
X027173Y023074D01*
X027173Y023374D01*
X027173Y022919D02*
X027173Y022844D01*
X027098Y022844D01*
X027098Y022919D01*
X027173Y022919D01*
X027098Y022684D02*
X026798Y022684D01*
X027098Y022383D01*
X027173Y022458D01*
X027173Y022609D01*
X027098Y022684D01*
X026798Y022684D02*
X026723Y022609D01*
X026723Y022458D01*
X026798Y022383D01*
X027098Y022383D01*
X029119Y022207D02*
X029570Y022207D01*
X029570Y022057D02*
X029570Y022357D01*
X029570Y022517D02*
X029570Y022817D01*
X029570Y022667D02*
X029119Y022667D01*
X029269Y022517D01*
X029119Y022207D02*
X029269Y022057D01*
X029194Y021897D02*
X029119Y021821D01*
X029119Y021596D01*
X029570Y021596D01*
X029570Y021821D01*
X029495Y021897D01*
X029194Y021897D01*
X029424Y019294D02*
X029424Y018844D01*
X029725Y018844D01*
X029885Y018844D02*
X030185Y018844D01*
X030345Y018844D02*
X030570Y018844D01*
X030645Y018919D01*
X030645Y019219D01*
X030570Y019294D01*
X030345Y019294D01*
X030345Y018844D01*
X030035Y019069D02*
X029885Y019069D01*
X029885Y019294D02*
X029885Y018844D01*
X029885Y019294D02*
X030185Y019294D01*
X030805Y019069D02*
X031106Y019069D01*
X031031Y018844D02*
X031031Y019294D01*
X030805Y019069D01*
X031122Y018374D02*
X031422Y018374D01*
X031422Y018299D01*
X031122Y017999D01*
X031122Y017924D01*
X031422Y017924D01*
X030962Y017849D02*
X030662Y017849D01*
X030502Y017924D02*
X030352Y018074D01*
X030427Y018074D02*
X030202Y018074D01*
X030202Y017924D02*
X030202Y018374D01*
X030427Y018374D01*
X030502Y018299D01*
X030502Y018149D01*
X030427Y018074D01*
X030045Y017924D02*
X029895Y017924D01*
X029970Y017924D02*
X029970Y018374D01*
X029895Y018374D02*
X030045Y018374D01*
X029735Y018299D02*
X029659Y018374D01*
X029434Y018374D01*
X029434Y017924D01*
X029659Y017924D01*
X029735Y017999D01*
X029735Y018299D01*
X032915Y018509D02*
X032960Y018464D01*
X033050Y018464D01*
X033095Y018509D01*
X033095Y018554D01*
X033050Y018599D01*
X032915Y018599D01*
X032915Y018509D01*
X032915Y018599D02*
X033005Y018689D01*
X033095Y018734D01*
X033209Y018689D02*
X033209Y018644D01*
X033254Y018599D01*
X033344Y018599D01*
X033390Y018554D01*
X033390Y018509D01*
X033344Y018464D01*
X033254Y018464D01*
X033209Y018509D01*
X033209Y018554D01*
X033254Y018599D01*
X033344Y018599D02*
X033390Y018644D01*
X033390Y018689D01*
X033344Y018734D01*
X033254Y018734D01*
X033209Y018689D01*
X033504Y018689D02*
X033504Y018509D01*
X033684Y018689D01*
X033684Y018509D01*
X033639Y018464D01*
X033549Y018464D01*
X033504Y018509D01*
X033504Y018689D02*
X033549Y018734D01*
X033639Y018734D01*
X033684Y018689D01*
X033694Y017834D02*
X033740Y017789D01*
X033740Y017699D01*
X033694Y017654D01*
X033559Y017654D01*
X033559Y017564D02*
X033559Y017834D01*
X033694Y017834D01*
X033854Y017789D02*
X033854Y017744D01*
X033899Y017699D01*
X033989Y017699D01*
X034034Y017654D01*
X034034Y017609D01*
X033989Y017564D01*
X033899Y017564D01*
X033854Y017609D01*
X033854Y017654D01*
X033899Y017699D01*
X033989Y017699D02*
X034034Y017744D01*
X034034Y017789D01*
X033989Y017834D01*
X033899Y017834D01*
X033854Y017789D01*
X033649Y017654D02*
X033740Y017564D01*
X031037Y014532D02*
X031037Y014081D01*
X030887Y014081D02*
X031187Y014081D01*
X030887Y014382D02*
X031037Y014532D01*
X030727Y014532D02*
X030727Y014081D01*
X030577Y014231D01*
X030427Y014081D01*
X030427Y014532D01*
X030267Y014457D02*
X030192Y014532D01*
X030041Y014532D01*
X029966Y014457D01*
X029966Y014382D01*
X030041Y014307D01*
X030192Y014307D01*
X030267Y014231D01*
X030267Y014156D01*
X030192Y014081D01*
X030041Y014081D01*
X029966Y014156D01*
X029596Y010909D02*
X029146Y010909D01*
X029146Y010609D02*
X029596Y010909D01*
X029596Y010609D02*
X029146Y010609D01*
X029221Y010448D02*
X029146Y010373D01*
X029146Y010223D01*
X029221Y010148D01*
X029521Y010148D01*
X029596Y010223D01*
X029596Y010373D01*
X029521Y010448D01*
X029221Y010448D01*
X029671Y009988D02*
X029671Y009688D01*
X029596Y009528D02*
X029596Y009227D01*
X029146Y009227D01*
X029146Y008767D02*
X029596Y008767D01*
X029596Y009067D01*
X029596Y008610D02*
X029596Y008460D01*
X029596Y008535D02*
X029146Y008535D01*
X029146Y008460D02*
X029146Y008610D01*
X029146Y008300D02*
X029446Y008000D01*
X029371Y008075D02*
X029596Y008300D01*
X029596Y008000D02*
X029146Y008000D01*
X028676Y007990D02*
X028676Y008290D01*
X028676Y008450D02*
X028676Y008750D01*
X028676Y008911D02*
X028676Y009136D01*
X028601Y009211D01*
X028301Y009211D01*
X028226Y009136D01*
X028226Y008911D01*
X028676Y008911D01*
X028451Y008600D02*
X028451Y008450D01*
X028226Y008450D02*
X028676Y008450D01*
X028226Y008450D02*
X028226Y008750D01*
X028301Y009371D02*
X028226Y009446D01*
X028226Y009596D01*
X028301Y009671D01*
X028376Y009671D01*
X028676Y009371D01*
X028676Y009671D01*
X028676Y007990D02*
X028226Y007990D01*
X025988Y006400D02*
X025838Y006325D01*
X025688Y006175D01*
X025913Y006175D01*
X025988Y006100D01*
X025988Y006025D01*
X025913Y005949D01*
X025763Y005949D01*
X025688Y006025D01*
X025688Y006175D01*
X025528Y006325D02*
X025453Y006400D01*
X025303Y006400D01*
X025228Y006325D01*
X025228Y006025D01*
X025303Y005949D01*
X025453Y005949D01*
X025528Y006025D01*
X025071Y005949D02*
X024921Y005949D01*
X024996Y005949D02*
X024996Y006400D01*
X024921Y006400D02*
X025071Y006400D01*
X025148Y006899D02*
X025148Y007200D01*
X025223Y007200D01*
X025523Y006899D01*
X025598Y006899D01*
X025373Y007360D02*
X025373Y007660D01*
X025373Y007820D02*
X025373Y008120D01*
X025298Y008120D02*
X025598Y008120D01*
X025598Y008281D02*
X025148Y008281D01*
X025298Y008120D02*
X025148Y007970D01*
X025298Y007820D01*
X025598Y007820D01*
X025598Y007585D02*
X025148Y007585D01*
X025373Y007360D01*
X025598Y008281D02*
X025598Y008581D01*
X025523Y008741D02*
X025598Y008816D01*
X025598Y008966D01*
X025523Y009041D01*
X025448Y009041D01*
X025373Y008966D01*
X025373Y008816D01*
X025298Y008741D01*
X025223Y008741D01*
X025148Y008816D01*
X025148Y008966D01*
X025223Y009041D01*
X025223Y009201D02*
X025148Y009276D01*
X025148Y009426D01*
X025223Y009501D01*
X025523Y009201D01*
X025598Y009276D01*
X025598Y009426D01*
X025523Y009501D01*
X025223Y009501D01*
X025223Y009662D02*
X025298Y009662D01*
X025373Y009737D01*
X025373Y009887D01*
X025448Y009962D01*
X025523Y009962D01*
X025598Y009887D01*
X025598Y009737D01*
X025523Y009662D01*
X025448Y009662D01*
X025373Y009737D01*
X025373Y009887D02*
X025298Y009962D01*
X025223Y009962D01*
X025148Y009887D01*
X025148Y009737D01*
X025223Y009662D01*
X025223Y009201D02*
X025523Y009201D01*
X025598Y010122D02*
X025148Y010122D01*
X025148Y010347D01*
X025223Y010422D01*
X025523Y010422D01*
X025598Y010347D01*
X025598Y010122D01*
X021288Y010375D02*
X020988Y010375D01*
X021213Y010600D01*
X021213Y010149D01*
X020828Y010225D02*
X020753Y010149D01*
X020603Y010149D01*
X020528Y010225D01*
X020528Y010525D01*
X020603Y010600D01*
X020753Y010600D01*
X020828Y010525D01*
X020371Y010600D02*
X020221Y010600D01*
X020296Y010600D02*
X020296Y010149D01*
X020221Y010149D02*
X020371Y010149D01*
X020795Y009539D02*
X020720Y009464D01*
X020720Y009239D01*
X021171Y009239D01*
X021171Y009464D01*
X021096Y009539D01*
X020795Y009539D01*
X020795Y009079D02*
X021096Y008779D01*
X021171Y008854D01*
X021171Y009004D01*
X021096Y009079D01*
X020795Y009079D01*
X020720Y009004D01*
X020720Y008854D01*
X020795Y008779D01*
X021096Y008779D01*
X021096Y008618D02*
X021171Y008543D01*
X021171Y008393D01*
X021096Y008318D01*
X020795Y008618D01*
X021096Y008618D01*
X021096Y008318D02*
X020795Y008318D01*
X020720Y008393D01*
X020720Y008543D01*
X020795Y008618D01*
X020795Y008158D02*
X020720Y008083D01*
X020720Y007933D01*
X020795Y007858D01*
X020871Y007858D01*
X020946Y007933D01*
X020946Y008083D01*
X021021Y008158D01*
X021096Y008158D01*
X021171Y008083D01*
X021171Y007933D01*
X021096Y007858D01*
X021171Y007698D02*
X021171Y007397D01*
X020720Y007397D01*
X020720Y007162D02*
X020946Y006937D01*
X020946Y007237D01*
X021171Y007162D02*
X020720Y007162D01*
X020720Y006777D02*
X020795Y006777D01*
X021096Y006477D01*
X021171Y006477D01*
X020720Y006477D02*
X020720Y006777D01*
X016053Y006702D02*
X015602Y006702D01*
X015827Y006477D01*
X015827Y006777D01*
X015827Y006937D02*
X015827Y007237D01*
X015752Y007237D02*
X016053Y007237D01*
X016053Y007397D02*
X015602Y007397D01*
X015752Y007237D02*
X015602Y007087D01*
X015752Y006937D01*
X016053Y006937D01*
X015677Y006317D02*
X015978Y006016D01*
X016053Y006016D01*
X015602Y006016D02*
X015602Y006317D01*
X015677Y006317D01*
X016053Y007397D02*
X016053Y007698D01*
X015978Y007858D02*
X016053Y007933D01*
X016053Y008083D01*
X015978Y008158D01*
X015903Y008158D01*
X015827Y008083D01*
X015827Y007933D01*
X015752Y007858D01*
X015677Y007858D01*
X015602Y007933D01*
X015602Y008083D01*
X015677Y008158D01*
X015677Y008318D02*
X015602Y008393D01*
X015602Y008543D01*
X015677Y008618D01*
X015978Y008318D01*
X016053Y008393D01*
X016053Y008543D01*
X015978Y008618D01*
X015677Y008618D01*
X015677Y008779D02*
X015752Y008779D01*
X015827Y008854D01*
X015827Y009004D01*
X015903Y009079D01*
X015978Y009079D01*
X016053Y009004D01*
X016053Y008854D01*
X015978Y008779D01*
X015903Y008779D01*
X015827Y008854D01*
X015827Y009004D02*
X015752Y009079D01*
X015677Y009079D01*
X015602Y009004D01*
X015602Y008854D01*
X015677Y008779D01*
X015677Y008318D02*
X015978Y008318D01*
X016053Y009239D02*
X015602Y009239D01*
X015602Y009464D01*
X015677Y009539D01*
X015978Y009539D01*
X016053Y009464D01*
X016053Y009239D01*
X016095Y010149D02*
X015945Y010149D01*
X015870Y010225D01*
X015870Y010375D02*
X016020Y010450D01*
X016095Y010450D01*
X016170Y010375D01*
X016170Y010225D01*
X016095Y010149D01*
X015870Y010375D02*
X015870Y010600D01*
X016170Y010600D01*
X015710Y010525D02*
X015635Y010600D01*
X015485Y010600D01*
X015410Y010525D01*
X015410Y010225D01*
X015485Y010149D01*
X015635Y010149D01*
X015710Y010225D01*
X015253Y010149D02*
X015103Y010149D01*
X015178Y010149D02*
X015178Y010600D01*
X015103Y010600D02*
X015253Y010600D01*
X010139Y007337D02*
X007012Y007337D01*
X007012Y005137D01*
X003884Y005137D01*
X003884Y007337D02*
X007012Y007337D01*
X006680Y008836D02*
X006680Y009106D01*
X006545Y008971D01*
X006726Y008971D01*
X006443Y008881D02*
X006443Y008836D01*
X006398Y008836D01*
X006398Y008881D01*
X006443Y008881D01*
X006284Y008881D02*
X006284Y008926D01*
X006239Y008971D01*
X006103Y008971D01*
X006103Y008881D01*
X006148Y008836D01*
X006239Y008836D01*
X006284Y008881D01*
X006193Y009061D02*
X006103Y008971D01*
X006193Y009061D02*
X006284Y009106D01*
X006183Y009736D02*
X006093Y009736D01*
X006048Y009781D01*
X006093Y009871D02*
X006228Y009871D01*
X006228Y009781D02*
X006228Y009961D01*
X006183Y010006D01*
X006093Y010006D01*
X006048Y009961D01*
X006048Y009916D01*
X006093Y009871D01*
X005934Y009871D02*
X005889Y009826D01*
X005753Y009826D01*
X005753Y009736D02*
X005753Y010006D01*
X005889Y010006D01*
X005934Y009961D01*
X005934Y009871D01*
X005843Y009826D02*
X005934Y009736D01*
X006183Y009736D02*
X006228Y009781D01*
X007704Y009856D02*
X007704Y009585D01*
X007704Y009675D02*
X007839Y009675D01*
X007884Y009720D01*
X007884Y009811D01*
X007839Y009856D01*
X007704Y009856D01*
X007794Y009675D02*
X007884Y009585D01*
X007998Y009630D02*
X007998Y009720D01*
X008133Y009720D01*
X008178Y009675D01*
X008178Y009630D01*
X008133Y009585D01*
X008043Y009585D01*
X007998Y009630D01*
X007998Y009720D02*
X008088Y009811D01*
X008178Y009856D01*
X007828Y010485D02*
X007648Y010485D01*
X007738Y010485D02*
X007738Y010756D01*
X007648Y010666D01*
X008347Y014270D02*
X008347Y014460D01*
X009587Y014460D01*
X009597Y014461D02*
X009611Y014464D01*
X009624Y014470D01*
X009635Y014479D01*
X009645Y014490D01*
X009652Y014502D01*
X009656Y014516D01*
X009657Y014530D01*
X009657Y014520D01*
X009657Y014530D02*
X009657Y014870D01*
X009656Y014870D02*
X009653Y014884D01*
X009647Y014897D01*
X009638Y014908D01*
X009627Y014918D01*
X009615Y014925D01*
X009601Y014929D01*
X009587Y014930D01*
X008347Y014930D01*
X008347Y014460D01*
X008197Y014930D02*
X006917Y014290D01*
X006917Y014940D01*
X006757Y014870D02*
X006757Y014530D01*
X006757Y014520D01*
X006757Y014530D02*
X006756Y014516D01*
X006752Y014502D01*
X006745Y014490D01*
X006735Y014479D01*
X006724Y014470D01*
X006711Y014464D01*
X006697Y014461D01*
X006687Y014460D02*
X006677Y014460D01*
X005447Y014460D01*
X005447Y014270D01*
X005317Y014270D02*
X005317Y014940D01*
X005297Y014930D02*
X004067Y014270D01*
X004427Y014460D02*
X005297Y014460D01*
X005447Y014460D02*
X005447Y014930D01*
X006687Y014930D01*
X006701Y014929D01*
X006715Y014925D01*
X006727Y014918D01*
X006738Y014908D01*
X006747Y014897D01*
X006753Y014884D01*
X006756Y014870D01*
X006747Y014410D02*
X006747Y014270D01*
X006747Y014400D02*
X006744Y014414D01*
X006738Y014427D01*
X006729Y014438D01*
X006718Y014448D01*
X006706Y014455D01*
X006692Y014459D01*
X006678Y014460D01*
X007710Y015669D02*
X007710Y015939D01*
X007845Y015939D01*
X007890Y015894D01*
X007890Y015804D01*
X007845Y015759D01*
X007710Y015759D01*
X007800Y015759D02*
X007890Y015669D01*
X008005Y015669D02*
X008185Y015669D01*
X008095Y015669D02*
X008095Y015939D01*
X008005Y015849D01*
X007790Y016569D02*
X007700Y016569D01*
X007655Y016614D01*
X007835Y016794D01*
X007835Y016614D01*
X007790Y016569D01*
X007655Y016614D02*
X007655Y016794D01*
X007700Y016839D01*
X007790Y016839D01*
X007835Y016794D01*
X007540Y016794D02*
X007540Y016749D01*
X007495Y016704D01*
X007405Y016704D01*
X007360Y016749D01*
X007360Y016794D01*
X007405Y016839D01*
X007495Y016839D01*
X007540Y016794D01*
X007495Y016704D02*
X007540Y016659D01*
X007540Y016614D01*
X007495Y016569D01*
X007405Y016569D01*
X007360Y016614D01*
X007360Y016659D01*
X007405Y016704D01*
X007245Y016659D02*
X007200Y016704D01*
X007065Y016704D01*
X007065Y016614D01*
X007110Y016569D01*
X007200Y016569D01*
X007245Y016614D01*
X007245Y016659D01*
X007155Y016794D02*
X007065Y016704D01*
X007155Y016794D02*
X007245Y016839D01*
X007340Y017849D02*
X007040Y017849D01*
X006880Y017924D02*
X006730Y018074D01*
X006805Y018074D02*
X006579Y018074D01*
X006579Y017924D02*
X006579Y018374D01*
X006805Y018374D01*
X006880Y018299D01*
X006880Y018149D01*
X006805Y018074D01*
X006423Y017924D02*
X006273Y017924D01*
X006348Y017924D02*
X006348Y018374D01*
X006273Y018374D02*
X006423Y018374D01*
X006112Y018299D02*
X006112Y017999D01*
X006037Y017924D01*
X005812Y017924D01*
X005812Y018374D01*
X006037Y018374D01*
X006112Y018299D01*
X006102Y018844D02*
X005802Y018844D01*
X005802Y019294D01*
X006263Y019294D02*
X006263Y018844D01*
X006563Y018844D01*
X006723Y018844D02*
X006723Y019294D01*
X006948Y019294D01*
X007023Y019219D01*
X007023Y018919D01*
X006948Y018844D01*
X006723Y018844D01*
X006413Y019069D02*
X006263Y019069D01*
X006263Y019294D02*
X006563Y019294D01*
X007183Y019144D02*
X007333Y019294D01*
X007333Y018844D01*
X007183Y018844D02*
X007484Y018844D01*
X007500Y018374D02*
X007800Y017924D01*
X007500Y017924D02*
X007800Y018374D01*
X005948Y021663D02*
X005497Y021663D01*
X005497Y021888D01*
X005572Y021963D01*
X005872Y021963D01*
X005948Y021888D01*
X005948Y021663D01*
X005872Y022123D02*
X005948Y022198D01*
X005948Y022349D01*
X005872Y022424D01*
X005797Y022424D01*
X005722Y022349D01*
X005722Y022273D01*
X005722Y022349D02*
X005647Y022424D01*
X005572Y022424D01*
X005497Y022349D01*
X005497Y022198D01*
X005572Y022123D01*
X003551Y022458D02*
X003476Y022383D01*
X003176Y022684D01*
X003476Y022684D01*
X003551Y022609D01*
X003551Y022458D01*
X003476Y022383D02*
X003176Y022383D01*
X003101Y022458D01*
X003101Y022609D01*
X003176Y022684D01*
X003476Y022844D02*
X003476Y022919D01*
X003551Y022919D01*
X003551Y022844D01*
X003476Y022844D01*
X003551Y023074D02*
X003251Y023374D01*
X003176Y023374D01*
X003101Y023299D01*
X003101Y023149D01*
X003176Y023074D01*
X003551Y023074D02*
X003551Y023374D01*
X003476Y023534D02*
X003551Y023609D01*
X003551Y023759D01*
X003476Y023834D01*
X003326Y023834D01*
X003251Y023759D01*
X003251Y023684D01*
X003326Y023534D01*
X003101Y023534D01*
X003101Y023834D01*
X003101Y024455D02*
X003326Y024455D01*
X003251Y024605D01*
X003251Y024680D01*
X003326Y024755D01*
X003476Y024755D01*
X003551Y024680D01*
X003551Y024530D01*
X003476Y024455D01*
X003101Y024455D02*
X003101Y024755D01*
X003101Y024915D02*
X003551Y024915D01*
X003401Y025065D01*
X003551Y025216D01*
X003101Y025216D01*
X005497Y025502D02*
X005497Y025727D01*
X005572Y025802D01*
X005872Y025802D01*
X005948Y025727D01*
X005948Y025502D01*
X005497Y025502D01*
X005722Y025962D02*
X005722Y026262D01*
X005497Y026187D02*
X005948Y026187D01*
X005722Y025962D02*
X005497Y026187D01*
X011009Y026135D02*
X011084Y026060D01*
X011009Y026135D02*
X011009Y026286D01*
X011084Y026361D01*
X011159Y026361D01*
X011459Y026060D01*
X011459Y026361D01*
X011384Y025900D02*
X011084Y025900D01*
X011009Y025825D01*
X011009Y025600D01*
X011459Y025600D01*
X011459Y025825D01*
X011384Y025900D01*
X014912Y025216D02*
X015362Y025216D01*
X015212Y025065D01*
X015362Y024915D01*
X014912Y024915D01*
X014912Y024755D02*
X014912Y024455D01*
X015137Y024455D01*
X015062Y024605D01*
X015062Y024680D01*
X015137Y024755D01*
X015287Y024755D01*
X015362Y024680D01*
X015362Y024530D01*
X015287Y024455D01*
X015287Y023834D02*
X015362Y023759D01*
X015362Y023609D01*
X015287Y023534D01*
X015137Y023534D02*
X015062Y023684D01*
X015062Y023759D01*
X015137Y023834D01*
X015287Y023834D01*
X015137Y023534D02*
X014912Y023534D01*
X014912Y023834D01*
X014987Y023374D02*
X014912Y023299D01*
X014912Y023149D01*
X014987Y023074D01*
X014987Y023374D02*
X015062Y023374D01*
X015362Y023074D01*
X015362Y023374D01*
X015362Y022919D02*
X015362Y022844D01*
X015287Y022844D01*
X015287Y022919D01*
X015362Y022919D01*
X015287Y022684D02*
X014987Y022684D01*
X015287Y022383D01*
X015362Y022458D01*
X015362Y022609D01*
X015287Y022684D01*
X014987Y022684D02*
X014912Y022609D01*
X014912Y022458D01*
X014987Y022383D01*
X015287Y022383D01*
X017308Y022424D02*
X017383Y022424D01*
X017684Y022123D01*
X017759Y022123D01*
X017684Y021963D02*
X017383Y021963D01*
X017308Y021888D01*
X017308Y021663D01*
X017759Y021663D01*
X017759Y021888D01*
X017684Y021963D01*
X017308Y022123D02*
X017308Y022424D01*
X017613Y019294D02*
X017613Y018844D01*
X017914Y018844D01*
X018074Y018844D02*
X018374Y018844D01*
X018534Y018844D02*
X018759Y018844D01*
X018834Y018919D01*
X018834Y019219D01*
X018759Y019294D01*
X018534Y019294D01*
X018534Y018844D01*
X018224Y019069D02*
X018074Y019069D01*
X018074Y019294D02*
X018074Y018844D01*
X018074Y019294D02*
X018374Y019294D01*
X018994Y019219D02*
X019069Y019294D01*
X019219Y019294D01*
X019295Y019219D01*
X019295Y019144D01*
X019219Y019069D01*
X019295Y018994D01*
X019295Y018919D01*
X019219Y018844D01*
X019069Y018844D01*
X018994Y018919D01*
X019144Y019069D02*
X019219Y019069D01*
X019311Y018374D02*
X019311Y018299D01*
X019461Y018149D01*
X019461Y017924D01*
X019461Y018149D02*
X019611Y018299D01*
X019611Y018374D01*
X019151Y017849D02*
X018851Y017849D01*
X018691Y017924D02*
X018541Y018074D01*
X018616Y018074D02*
X018391Y018074D01*
X018391Y017924D02*
X018391Y018374D01*
X018616Y018374D01*
X018691Y018299D01*
X018691Y018149D01*
X018616Y018074D01*
X018234Y017924D02*
X018084Y017924D01*
X018159Y017924D02*
X018159Y018374D01*
X018084Y018374D02*
X018234Y018374D01*
X017924Y018299D02*
X017848Y018374D01*
X017623Y018374D01*
X017623Y017924D01*
X017848Y017924D01*
X017924Y017999D01*
X017924Y018299D01*
X021104Y018509D02*
X021149Y018464D01*
X021239Y018464D01*
X021284Y018509D01*
X021284Y018554D01*
X021239Y018599D01*
X021104Y018599D01*
X021104Y018509D01*
X021104Y018599D02*
X021194Y018689D01*
X021284Y018734D01*
X021398Y018689D02*
X021398Y018644D01*
X021443Y018599D01*
X021533Y018599D01*
X021579Y018554D01*
X021579Y018509D01*
X021533Y018464D01*
X021443Y018464D01*
X021398Y018509D01*
X021398Y018554D01*
X021443Y018599D01*
X021533Y018599D02*
X021579Y018644D01*
X021579Y018689D01*
X021533Y018734D01*
X021443Y018734D01*
X021398Y018689D01*
X021693Y018689D02*
X021693Y018509D01*
X021873Y018689D01*
X021873Y018509D01*
X021828Y018464D01*
X021738Y018464D01*
X021693Y018509D01*
X021693Y018689D02*
X021738Y018734D01*
X021828Y018734D01*
X021873Y018689D01*
X021883Y017834D02*
X021929Y017789D01*
X021929Y017699D01*
X021883Y017654D01*
X021748Y017654D01*
X021748Y017564D02*
X021748Y017834D01*
X021883Y017834D01*
X022043Y017834D02*
X022043Y017699D01*
X022133Y017744D01*
X022178Y017744D01*
X022223Y017699D01*
X022223Y017609D01*
X022178Y017564D01*
X022088Y017564D01*
X022043Y017609D01*
X021929Y017564D02*
X021838Y017654D01*
X022043Y017834D02*
X022223Y017834D01*
X024483Y020933D02*
X024483Y021159D01*
X024558Y021234D01*
X024708Y021234D01*
X024783Y021159D01*
X024783Y020933D01*
X024933Y020933D02*
X024483Y020933D01*
X024783Y021083D02*
X024933Y021234D01*
X024933Y021394D02*
X024933Y021694D01*
X024933Y021544D02*
X024483Y021544D01*
X024633Y021394D01*
X024558Y021854D02*
X024483Y021929D01*
X024483Y022079D01*
X024558Y022154D01*
X024858Y021854D01*
X024933Y021929D01*
X024933Y022079D01*
X024858Y022154D01*
X024558Y022154D01*
X024558Y021854D02*
X024858Y021854D01*
X023270Y021790D02*
X023270Y021565D01*
X022820Y021565D01*
X022820Y021790D01*
X022895Y021865D01*
X023195Y021865D01*
X023270Y021790D01*
X023195Y022025D02*
X023270Y022100D01*
X023270Y022250D01*
X023195Y022325D01*
X023045Y022325D01*
X022970Y022250D01*
X022970Y022175D01*
X023045Y022025D01*
X022820Y022025D01*
X022820Y022325D01*
X026723Y025216D02*
X027173Y025216D01*
X023270Y025600D02*
X023270Y025825D01*
X023195Y025900D01*
X022895Y025900D01*
X022820Y025825D01*
X022820Y025600D01*
X023270Y025600D01*
X023195Y026060D02*
X023045Y026060D01*
X023045Y026286D01*
X023120Y026361D01*
X023195Y026361D01*
X023270Y026286D01*
X023270Y026135D01*
X023195Y026060D01*
X023045Y026060D02*
X022895Y026210D01*
X022820Y026361D01*
X017759Y026286D02*
X017759Y026135D01*
X017684Y026060D01*
X017608Y026060D01*
X017533Y026135D01*
X017533Y026286D01*
X017608Y026361D01*
X017684Y026361D01*
X017759Y026286D01*
X017533Y026286D02*
X017458Y026361D01*
X017383Y026361D01*
X017308Y026286D01*
X017308Y026135D01*
X017383Y026060D01*
X017458Y026060D01*
X017533Y026135D01*
X017383Y025900D02*
X017308Y025825D01*
X017308Y025600D01*
X017759Y025600D01*
X017759Y025825D01*
X017684Y025900D01*
X017383Y025900D01*
X013122Y021394D02*
X013047Y021394D01*
X012747Y021694D01*
X012672Y021694D01*
X012672Y021394D01*
X012747Y021234D02*
X012672Y021159D01*
X012672Y020933D01*
X013122Y020933D01*
X012972Y020933D02*
X012972Y021159D01*
X012897Y021234D01*
X012747Y021234D01*
X012972Y021083D02*
X013122Y021234D01*
X011459Y021663D02*
X011459Y021888D01*
X011384Y021963D01*
X011084Y021963D01*
X011009Y021888D01*
X011009Y021663D01*
X011459Y021663D01*
X011459Y022123D02*
X011459Y022424D01*
X011459Y022273D02*
X011009Y022273D01*
X011159Y022123D01*
X001311Y021619D02*
X000861Y021619D01*
X001086Y021394D01*
X001086Y021694D01*
X001086Y021234D02*
X000936Y021234D01*
X000861Y021159D01*
X000861Y020933D01*
X001311Y020933D01*
X001161Y020933D02*
X001161Y021159D01*
X001086Y021234D01*
X001161Y021083D02*
X001311Y021234D01*
X003884Y007337D02*
X003884Y000137D01*
X007012Y000137D01*
X007012Y005137D01*
X010139Y005137D01*
X010139Y000137D01*
X007012Y000137D01*
X010139Y005137D02*
X010139Y007337D01*
X031811Y008772D02*
X032112Y009072D01*
X032112Y009147D01*
X032037Y009223D01*
X031886Y009223D01*
X031811Y009147D01*
X031811Y008772D02*
X032112Y008772D01*
X032272Y008772D02*
X032272Y009223D01*
X032572Y008772D01*
X032572Y009223D01*
X032732Y009147D02*
X032807Y009223D01*
X032957Y009223D01*
X033032Y009147D01*
X033032Y009072D01*
X032957Y008997D01*
X033032Y008922D01*
X033032Y008847D01*
X032957Y008772D01*
X032807Y008772D01*
X032732Y008847D01*
X032882Y008997D02*
X032957Y008997D01*
X033193Y009072D02*
X033268Y008997D01*
X033493Y008997D01*
X033493Y008847D02*
X033493Y009147D01*
X033418Y009223D01*
X033268Y009223D01*
X033193Y009147D01*
X033193Y009072D01*
X033193Y008847D02*
X033268Y008772D01*
X033418Y008772D01*
X033493Y008847D01*
X033653Y008847D02*
X033953Y009147D01*
X033953Y008847D01*
X033878Y008772D01*
X033728Y008772D01*
X033653Y008847D01*
X033653Y009147D01*
X033728Y009223D01*
X033878Y009223D01*
X033953Y009147D01*
X034113Y008997D02*
X034413Y008997D01*
X034338Y008772D02*
X034338Y009223D01*
X034113Y008997D01*
X034754Y008847D02*
X034911Y008847D01*
X035686Y008847D02*
X035911Y008847D01*
X034974Y009397D02*
X034937Y009346D01*
X034902Y009293D01*
X034870Y009237D01*
X034842Y009180D01*
X034818Y009121D01*
X034797Y009061D01*
X034780Y009000D01*
X034766Y008938D01*
X034757Y008875D01*
X034751Y008812D01*
X034749Y008748D01*
X034751Y008684D01*
X034757Y008621D01*
X034766Y008558D01*
X034779Y008496D01*
X034797Y008435D01*
X034817Y008375D01*
X034842Y008316D01*
X034869Y008259D01*
X034901Y008203D01*
X034935Y008150D01*
X034973Y008099D01*
X035014Y008050D01*
X035058Y008004D01*
X035104Y007960D01*
X035153Y007919D01*
X035204Y007882D01*
X035258Y007847D01*
X035313Y007816D01*
X035370Y007788D01*
X035429Y007764D01*
X035489Y007744D01*
X034414Y008022D02*
X034113Y008022D01*
X034264Y008022D02*
X034264Y008473D01*
X034113Y008322D01*
X033953Y008397D02*
X033953Y008097D01*
X033878Y008022D01*
X033728Y008022D01*
X033653Y008097D01*
X033653Y008397D01*
X033728Y008473D01*
X033878Y008473D01*
X033953Y008397D01*
X033803Y008172D02*
X033953Y008022D01*
X033607Y007393D02*
X033472Y007303D01*
X033607Y007212D01*
X033472Y007212D02*
X033472Y007483D01*
X033267Y007483D02*
X033267Y007212D01*
X033177Y007212D02*
X033357Y007212D01*
X033177Y007393D02*
X033267Y007483D01*
X033478Y006583D02*
X033613Y006583D01*
X033658Y006538D01*
X033658Y006448D01*
X033613Y006403D01*
X033478Y006403D01*
X033568Y006403D02*
X033658Y006312D01*
X033773Y006312D02*
X033953Y006493D01*
X033953Y006538D01*
X033908Y006583D01*
X033818Y006583D01*
X033773Y006538D01*
X033773Y006312D02*
X033953Y006312D01*
X033612Y006123D02*
X033477Y006033D01*
X033612Y005943D01*
X033477Y005943D02*
X033477Y006213D01*
X033478Y006312D02*
X033478Y006583D01*
X033317Y006213D02*
X033362Y006168D01*
X033362Y006123D01*
X033182Y005943D01*
X033362Y005943D01*
X033317Y006213D02*
X033227Y006213D01*
X033182Y006168D01*
X033080Y005988D02*
X033080Y005943D01*
X033035Y005943D01*
X033035Y005988D01*
X033080Y005988D01*
X032920Y005943D02*
X032740Y005943D01*
X032920Y006123D01*
X032920Y006168D01*
X032875Y006213D01*
X032785Y006213D01*
X032740Y006168D01*
X033188Y005313D02*
X033324Y005313D01*
X033369Y005268D01*
X033369Y005178D01*
X033324Y005133D01*
X033188Y005133D01*
X033188Y005043D02*
X033188Y005313D01*
X033279Y005133D02*
X033369Y005043D01*
X033483Y005043D02*
X033663Y005043D01*
X033573Y005043D02*
X033573Y005313D01*
X033483Y005223D01*
X033778Y005223D02*
X033868Y005313D01*
X033868Y005043D01*
X033778Y005043D02*
X033958Y005043D01*
X035567Y006073D02*
X035725Y006073D01*
X035788Y005523D02*
X037437Y005523D01*
X037887Y005698D02*
X038187Y005999D01*
X038187Y006074D01*
X038112Y006149D01*
X037962Y006149D01*
X037887Y006074D01*
X037657Y006073D02*
X037499Y006073D01*
X037887Y005698D02*
X038187Y005698D01*
X038348Y005698D02*
X038348Y006149D01*
X038648Y005698D01*
X038648Y006149D01*
X038808Y006074D02*
X038883Y006149D01*
X039033Y006149D01*
X039108Y006074D01*
X039108Y005999D01*
X039033Y005923D01*
X039108Y005848D01*
X039108Y005773D01*
X039033Y005698D01*
X038883Y005698D01*
X038808Y005773D01*
X038958Y005923D02*
X039033Y005923D01*
X039268Y005999D02*
X039343Y005923D01*
X039569Y005923D01*
X039569Y005773D02*
X039569Y006074D01*
X039493Y006149D01*
X039343Y006149D01*
X039268Y006074D01*
X039268Y005999D01*
X039268Y005773D02*
X039343Y005698D01*
X039493Y005698D01*
X039569Y005773D01*
X039729Y005773D02*
X040029Y006074D01*
X040029Y005773D01*
X039954Y005698D01*
X039804Y005698D01*
X039729Y005773D01*
X039729Y006074D01*
X039804Y006149D01*
X039954Y006149D01*
X040029Y006074D01*
X040189Y005923D02*
X040489Y005923D01*
X040414Y005698D02*
X040414Y006149D01*
X040189Y005923D01*
X038648Y006448D02*
X038348Y006448D01*
X038648Y006749D01*
X038648Y006824D01*
X038573Y006899D01*
X038423Y006899D01*
X038348Y006824D01*
X038187Y006824D02*
X038187Y006523D01*
X038112Y006448D01*
X037962Y006448D01*
X037887Y006523D01*
X037887Y006824D01*
X037962Y006899D01*
X038112Y006899D01*
X038187Y006824D01*
X038037Y006598D02*
X038187Y006448D01*
X038205Y007616D02*
X038205Y007887D01*
X038115Y007797D01*
X038115Y007616D02*
X038295Y007616D01*
X038410Y007616D02*
X038410Y007887D01*
X038545Y007797D02*
X038410Y007706D01*
X038545Y007616D01*
X038195Y008516D02*
X038105Y008516D01*
X038060Y008561D01*
X037945Y008516D02*
X037855Y008606D01*
X037900Y008606D02*
X037765Y008606D01*
X037765Y008516D02*
X037765Y008787D01*
X037900Y008787D01*
X037945Y008742D01*
X037945Y008651D01*
X037900Y008606D01*
X038060Y008742D02*
X038105Y008787D01*
X038195Y008787D01*
X038240Y008742D01*
X038240Y008697D01*
X038195Y008651D01*
X038240Y008606D01*
X038240Y008561D01*
X038195Y008516D01*
X038195Y008651D02*
X038150Y008651D01*
X036844Y008847D02*
X036686Y008847D01*
X036844Y008847D02*
X036848Y008785D01*
X036849Y008722D01*
X036845Y008660D01*
X036838Y008598D01*
X036828Y008537D01*
X036813Y008476D01*
X036795Y008416D01*
X036774Y008357D01*
X036749Y008300D01*
X036721Y008245D01*
X036690Y008191D01*
X036655Y008139D01*
X036617Y008089D01*
X036577Y008042D01*
X036533Y007997D01*
X036488Y007954D01*
X036439Y007915D01*
X036389Y007878D01*
X036336Y007845D01*
X036282Y007814D01*
X036225Y007787D01*
X036168Y007764D01*
X036109Y007744D01*
X036844Y008847D02*
X036837Y008907D01*
X036826Y008966D01*
X036812Y009024D01*
X036794Y009081D01*
X036774Y009138D01*
X036750Y009193D01*
X036723Y009247D01*
X036692Y009299D01*
X036659Y009349D01*
X036624Y009397D01*
X036623Y009397D02*
X034974Y009397D01*
X036922Y007176D02*
X036982Y007156D01*
X037041Y007132D01*
X037098Y007104D01*
X037153Y007073D01*
X037207Y007038D01*
X037258Y007001D01*
X037307Y006960D01*
X037353Y006916D01*
X037397Y006870D01*
X037438Y006821D01*
X037476Y006770D01*
X037510Y006717D01*
X037542Y006661D01*
X037569Y006604D01*
X037594Y006545D01*
X037614Y006485D01*
X037632Y006424D01*
X037645Y006362D01*
X037654Y006299D01*
X037660Y006236D01*
X037662Y006172D01*
X037660Y006108D01*
X037654Y006045D01*
X037645Y005982D01*
X037631Y005920D01*
X037614Y005859D01*
X037593Y005799D01*
X037569Y005740D01*
X037541Y005683D01*
X037509Y005627D01*
X037474Y005574D01*
X037437Y005523D01*
X036725Y006073D02*
X036499Y006073D01*
X035567Y006073D02*
X035563Y006135D01*
X035562Y006198D01*
X035566Y006260D01*
X035573Y006322D01*
X035583Y006383D01*
X035598Y006444D01*
X035616Y006504D01*
X035637Y006563D01*
X035662Y006620D01*
X035690Y006675D01*
X035721Y006729D01*
X035756Y006781D01*
X035794Y006831D01*
X035834Y006878D01*
X035878Y006923D01*
X035923Y006966D01*
X035972Y007005D01*
X036022Y007042D01*
X036075Y007075D01*
X036129Y007106D01*
X036186Y007133D01*
X036243Y007156D01*
X036302Y007176D01*
X035567Y006073D02*
X035574Y006013D01*
X035585Y005954D01*
X035599Y005896D01*
X035617Y005839D01*
X035637Y005782D01*
X035661Y005727D01*
X035688Y005673D01*
X035719Y005621D01*
X035752Y005571D01*
X035787Y005523D01*
D19*
X029661Y007715D02*
X029715Y007672D01*
X029767Y007626D01*
X029816Y007577D01*
X029863Y007525D01*
X029906Y007471D01*
X029947Y007415D01*
X029984Y007356D01*
X030018Y007296D01*
X030048Y007233D01*
X030075Y007170D01*
X030099Y007104D01*
X030119Y007038D01*
X030135Y006970D01*
X030147Y006902D01*
X030155Y006833D01*
X030160Y006764D01*
X030161Y006694D01*
X030158Y006625D01*
X030151Y006556D01*
X030140Y006488D01*
X030126Y006420D01*
X030107Y006353D01*
X030085Y006287D01*
X030060Y006222D01*
X030031Y006159D01*
X029998Y006098D01*
X029962Y006039D01*
X029923Y005982D01*
X029881Y005926D01*
X029836Y005874D01*
X029788Y005824D01*
X029737Y005777D01*
X029683Y005732D01*
X029628Y005691D01*
X029570Y005653D01*
X029510Y005618D01*
X029448Y005586D01*
X029385Y005558D01*
X029320Y005534D01*
X029254Y005513D01*
X029186Y005496D01*
X029118Y005482D01*
X029049Y005473D01*
X028980Y005467D01*
X028911Y005465D01*
X028842Y005467D01*
X028773Y005473D01*
X028704Y005482D01*
X028636Y005496D01*
X028568Y005513D01*
X028502Y005534D01*
X028437Y005558D01*
X028374Y005586D01*
X028312Y005618D01*
X028252Y005653D01*
X028194Y005691D01*
X028139Y005732D01*
X028085Y005777D01*
X028034Y005824D01*
X027986Y005874D01*
X027941Y005926D01*
X027899Y005982D01*
X027860Y006039D01*
X027824Y006098D01*
X027791Y006159D01*
X027762Y006222D01*
X027737Y006287D01*
X027715Y006353D01*
X027696Y006420D01*
X027682Y006488D01*
X027671Y006556D01*
X027664Y006625D01*
X027661Y006694D01*
X027662Y006764D01*
X027667Y006833D01*
X027675Y006902D01*
X027687Y006970D01*
X027703Y007038D01*
X027723Y007104D01*
X027747Y007170D01*
X027774Y007233D01*
X027804Y007296D01*
X027838Y007356D01*
X027875Y007415D01*
X027916Y007471D01*
X027959Y007525D01*
X028006Y007577D01*
X028055Y007626D01*
X028107Y007672D01*
X028161Y007715D01*
X029149Y017859D02*
X029106Y017805D01*
X029060Y017753D01*
X029011Y017704D01*
X028959Y017657D01*
X028905Y017614D01*
X028849Y017573D01*
X028790Y017536D01*
X028730Y017502D01*
X028667Y017472D01*
X028604Y017445D01*
X028538Y017421D01*
X028472Y017401D01*
X028404Y017385D01*
X028336Y017373D01*
X028267Y017365D01*
X028198Y017360D01*
X028128Y017359D01*
X028059Y017362D01*
X027990Y017369D01*
X027922Y017380D01*
X027854Y017394D01*
X027787Y017413D01*
X027721Y017435D01*
X027656Y017460D01*
X027593Y017489D01*
X027532Y017522D01*
X027473Y017558D01*
X027416Y017597D01*
X027360Y017639D01*
X027308Y017684D01*
X027258Y017732D01*
X027211Y017783D01*
X027166Y017837D01*
X027125Y017892D01*
X027087Y017950D01*
X027052Y018010D01*
X027020Y018072D01*
X026992Y018135D01*
X026968Y018200D01*
X026947Y018266D01*
X026930Y018334D01*
X026916Y018402D01*
X026907Y018471D01*
X026901Y018540D01*
X026899Y018609D01*
X026901Y018678D01*
X026907Y018747D01*
X026916Y018816D01*
X026930Y018884D01*
X026947Y018952D01*
X026968Y019018D01*
X026992Y019083D01*
X027020Y019146D01*
X027052Y019208D01*
X027087Y019268D01*
X027125Y019326D01*
X027166Y019381D01*
X027211Y019435D01*
X027258Y019486D01*
X027308Y019534D01*
X027360Y019579D01*
X027416Y019621D01*
X027473Y019660D01*
X027532Y019696D01*
X027593Y019729D01*
X027656Y019758D01*
X027721Y019783D01*
X027787Y019805D01*
X027854Y019824D01*
X027922Y019838D01*
X027990Y019849D01*
X028059Y019856D01*
X028128Y019859D01*
X028198Y019858D01*
X028267Y019853D01*
X028336Y019845D01*
X028404Y019833D01*
X028472Y019817D01*
X028538Y019797D01*
X028604Y019773D01*
X028667Y019746D01*
X028730Y019716D01*
X028790Y019682D01*
X028849Y019645D01*
X028905Y019604D01*
X028959Y019561D01*
X029011Y019514D01*
X029060Y019465D01*
X029106Y019413D01*
X029149Y019359D01*
X017338Y019359D02*
X017295Y019413D01*
X017249Y019465D01*
X017200Y019514D01*
X017148Y019561D01*
X017094Y019604D01*
X017038Y019645D01*
X016979Y019682D01*
X016919Y019716D01*
X016856Y019746D01*
X016793Y019773D01*
X016727Y019797D01*
X016661Y019817D01*
X016593Y019833D01*
X016525Y019845D01*
X016456Y019853D01*
X016387Y019858D01*
X016317Y019859D01*
X016248Y019856D01*
X016179Y019849D01*
X016111Y019838D01*
X016043Y019824D01*
X015976Y019805D01*
X015910Y019783D01*
X015845Y019758D01*
X015782Y019729D01*
X015721Y019696D01*
X015662Y019660D01*
X015605Y019621D01*
X015549Y019579D01*
X015497Y019534D01*
X015447Y019486D01*
X015400Y019435D01*
X015355Y019381D01*
X015314Y019326D01*
X015276Y019268D01*
X015241Y019208D01*
X015209Y019146D01*
X015181Y019083D01*
X015157Y019018D01*
X015136Y018952D01*
X015119Y018884D01*
X015105Y018816D01*
X015096Y018747D01*
X015090Y018678D01*
X015088Y018609D01*
X015090Y018540D01*
X015096Y018471D01*
X015105Y018402D01*
X015119Y018334D01*
X015136Y018266D01*
X015157Y018200D01*
X015181Y018135D01*
X015209Y018072D01*
X015241Y018010D01*
X015276Y017950D01*
X015314Y017892D01*
X015355Y017837D01*
X015400Y017783D01*
X015447Y017732D01*
X015497Y017684D01*
X015549Y017639D01*
X015605Y017597D01*
X015662Y017558D01*
X015721Y017522D01*
X015782Y017489D01*
X015845Y017460D01*
X015910Y017435D01*
X015976Y017413D01*
X016043Y017394D01*
X016111Y017380D01*
X016179Y017369D01*
X016248Y017362D01*
X016317Y017359D01*
X016387Y017360D01*
X016456Y017365D01*
X016525Y017373D01*
X016593Y017385D01*
X016661Y017401D01*
X016727Y017421D01*
X016793Y017445D01*
X016856Y017472D01*
X016919Y017502D01*
X016979Y017536D01*
X017038Y017573D01*
X017094Y017614D01*
X017148Y017657D01*
X017200Y017704D01*
X017249Y017753D01*
X017295Y017805D01*
X017338Y017859D01*
X005527Y017859D02*
X005484Y017805D01*
X005438Y017753D01*
X005389Y017704D01*
X005337Y017657D01*
X005283Y017614D01*
X005227Y017573D01*
X005168Y017536D01*
X005108Y017502D01*
X005045Y017472D01*
X004982Y017445D01*
X004916Y017421D01*
X004850Y017401D01*
X004782Y017385D01*
X004714Y017373D01*
X004645Y017365D01*
X004576Y017360D01*
X004506Y017359D01*
X004437Y017362D01*
X004368Y017369D01*
X004300Y017380D01*
X004232Y017394D01*
X004165Y017413D01*
X004099Y017435D01*
X004034Y017460D01*
X003971Y017489D01*
X003910Y017522D01*
X003851Y017558D01*
X003794Y017597D01*
X003738Y017639D01*
X003686Y017684D01*
X003636Y017732D01*
X003589Y017783D01*
X003544Y017837D01*
X003503Y017892D01*
X003465Y017950D01*
X003430Y018010D01*
X003398Y018072D01*
X003370Y018135D01*
X003346Y018200D01*
X003325Y018266D01*
X003308Y018334D01*
X003294Y018402D01*
X003285Y018471D01*
X003279Y018540D01*
X003277Y018609D01*
X003279Y018678D01*
X003285Y018747D01*
X003294Y018816D01*
X003308Y018884D01*
X003325Y018952D01*
X003346Y019018D01*
X003370Y019083D01*
X003398Y019146D01*
X003430Y019208D01*
X003465Y019268D01*
X003503Y019326D01*
X003544Y019381D01*
X003589Y019435D01*
X003636Y019486D01*
X003686Y019534D01*
X003738Y019579D01*
X003794Y019621D01*
X003851Y019660D01*
X003910Y019696D01*
X003971Y019729D01*
X004034Y019758D01*
X004099Y019783D01*
X004165Y019805D01*
X004232Y019824D01*
X004300Y019838D01*
X004368Y019849D01*
X004437Y019856D01*
X004506Y019859D01*
X004576Y019858D01*
X004645Y019853D01*
X004714Y019845D01*
X004782Y019833D01*
X004850Y019817D01*
X004916Y019797D01*
X004982Y019773D01*
X005045Y019746D01*
X005108Y019716D01*
X005168Y019682D01*
X005227Y019645D01*
X005283Y019604D01*
X005337Y019561D01*
X005389Y019514D01*
X005438Y019465D01*
X005484Y019413D01*
X005527Y019359D01*
D20*
X003346Y020878D03*
X003346Y028938D03*
X015157Y028938D03*
X015157Y020878D03*
X026968Y020878D03*
X026968Y028938D03*
D21*
X030467Y030471D02*
X030567Y030471D01*
X030517Y030471D02*
X030517Y030622D01*
X030467Y030572D01*
X030615Y030597D02*
X030640Y030622D01*
X030690Y030622D01*
X030715Y030597D01*
X030615Y030496D01*
X030640Y030471D01*
X030690Y030471D01*
X030715Y030496D01*
X030715Y030597D01*
X030762Y030597D02*
X030787Y030622D01*
X030837Y030622D01*
X030862Y030597D01*
X030762Y030496D01*
X030787Y030471D01*
X030837Y030471D01*
X030862Y030496D01*
X030862Y030597D01*
X030909Y030572D02*
X030984Y030572D01*
X031009Y030546D01*
X031009Y030471D01*
X031057Y030471D02*
X031057Y030622D01*
X031157Y030622D01*
X031107Y030546D02*
X031057Y030546D01*
X030909Y030572D02*
X030909Y030471D01*
X030762Y030496D02*
X030762Y030597D01*
X030615Y030597D02*
X030615Y030496D01*
X030834Y029522D02*
X030809Y029497D01*
X030809Y029396D01*
X030834Y029371D01*
X030884Y029371D01*
X030909Y029396D01*
X030957Y029396D02*
X030982Y029371D01*
X031032Y029371D01*
X031057Y029396D01*
X031057Y029446D01*
X031032Y029472D01*
X031007Y029472D01*
X030957Y029446D01*
X030957Y029522D01*
X031057Y029522D01*
X030909Y029497D02*
X030884Y029522D01*
X030834Y029522D01*
X034853Y028847D02*
X034853Y028746D01*
X034878Y028721D01*
X034928Y028721D01*
X034953Y028746D01*
X035000Y028721D02*
X035100Y028721D01*
X035050Y028721D02*
X035050Y028872D01*
X035000Y028822D01*
X034953Y028847D02*
X034928Y028872D01*
X034878Y028872D01*
X034853Y028847D01*
X023289Y028796D02*
X023189Y028796D01*
X023264Y028872D01*
X023264Y028721D01*
X023142Y028746D02*
X023117Y028721D01*
X023067Y028721D01*
X023042Y028746D01*
X023042Y028847D01*
X023067Y028872D01*
X023117Y028872D01*
X023142Y028847D01*
X019346Y030622D02*
X019246Y030622D01*
X019246Y030471D01*
X019198Y030471D02*
X019198Y030546D01*
X019173Y030572D01*
X019098Y030572D01*
X019098Y030471D01*
X019051Y030496D02*
X019026Y030471D01*
X018976Y030471D01*
X018951Y030496D01*
X019051Y030597D01*
X019051Y030496D01*
X018951Y030496D02*
X018951Y030597D01*
X018976Y030622D01*
X019026Y030622D01*
X019051Y030597D01*
X018904Y030597D02*
X018804Y030496D01*
X018829Y030471D01*
X018879Y030471D01*
X018904Y030496D01*
X018904Y030597D01*
X018879Y030622D01*
X018829Y030622D01*
X018804Y030597D01*
X018804Y030496D01*
X018756Y030471D02*
X018656Y030471D01*
X018706Y030471D02*
X018706Y030622D01*
X018656Y030572D01*
X019246Y030546D02*
X019296Y030546D01*
X019221Y029522D02*
X019246Y029497D01*
X019246Y029472D01*
X019221Y029446D01*
X019246Y029421D01*
X019246Y029396D01*
X019221Y029371D01*
X019171Y029371D01*
X019146Y029396D01*
X019098Y029396D02*
X019073Y029371D01*
X019023Y029371D01*
X018998Y029396D01*
X018998Y029497D01*
X019023Y029522D01*
X019073Y029522D01*
X019098Y029497D01*
X019146Y029497D02*
X019171Y029522D01*
X019221Y029522D01*
X019221Y029446D02*
X019196Y029446D01*
X011478Y028872D02*
X011428Y028847D01*
X011378Y028796D01*
X011453Y028796D01*
X011478Y028771D01*
X011478Y028746D01*
X011453Y028721D01*
X011403Y028721D01*
X011378Y028746D01*
X011378Y028796D01*
X011331Y028746D02*
X011306Y028721D01*
X011256Y028721D01*
X011231Y028746D01*
X011231Y028847D01*
X011256Y028872D01*
X011306Y028872D01*
X011331Y028847D01*
X007535Y030622D02*
X007435Y030622D01*
X007435Y030471D01*
X007387Y030471D02*
X007387Y030546D01*
X007362Y030572D01*
X007287Y030572D01*
X007287Y030471D01*
X007240Y030496D02*
X007215Y030471D01*
X007165Y030471D01*
X007140Y030496D01*
X007240Y030597D01*
X007240Y030496D01*
X007140Y030496D02*
X007140Y030597D01*
X007165Y030622D01*
X007215Y030622D01*
X007240Y030597D01*
X007093Y030597D02*
X006993Y030496D01*
X007018Y030471D01*
X007068Y030471D01*
X007093Y030496D01*
X007093Y030597D01*
X007068Y030622D01*
X007018Y030622D01*
X006993Y030597D01*
X006993Y030496D01*
X006945Y030471D02*
X006845Y030471D01*
X006895Y030471D02*
X006895Y030622D01*
X006845Y030572D01*
X007435Y030546D02*
X007485Y030546D01*
X007410Y029522D02*
X007360Y029522D01*
X007335Y029497D01*
X007287Y029497D02*
X007262Y029522D01*
X007212Y029522D01*
X007187Y029497D01*
X007187Y029396D01*
X007212Y029371D01*
X007262Y029371D01*
X007287Y029396D01*
X007335Y029371D02*
X007435Y029472D01*
X007435Y029497D01*
X007410Y029522D01*
X007435Y029371D02*
X007335Y029371D01*
D22*
X004197Y014730D02*
X004147Y014620D01*
X004077Y014650D01*
X004117Y014490D01*
X004037Y014560D01*
X004027Y014510D01*
X003947Y014530D01*
X003977Y014460D01*
X003927Y014440D01*
X004047Y014350D01*
X004017Y014110D02*
X004077Y014110D01*
X004107Y014080D01*
X004107Y013990D01*
X004017Y013990D01*
X003987Y014020D01*
X004017Y014050D01*
X004107Y014050D01*
X004171Y014020D02*
X004201Y013990D01*
X004291Y013990D01*
X004291Y014110D01*
X004355Y014110D02*
X004415Y014110D01*
X004385Y014140D02*
X004385Y014020D01*
X004415Y013990D01*
X004478Y014020D02*
X004508Y013990D01*
X004568Y013990D01*
X004598Y014020D01*
X004598Y014080D01*
X004568Y014110D01*
X004508Y014110D01*
X004478Y014080D01*
X004478Y014020D01*
X004662Y013990D02*
X004662Y014110D01*
X004752Y014110D01*
X004782Y014080D01*
X004782Y013990D01*
X004846Y014020D02*
X004876Y013990D01*
X004936Y013990D01*
X004967Y014020D01*
X004967Y014080D01*
X004936Y014110D01*
X004876Y014110D01*
X004846Y014080D01*
X004846Y014020D01*
X005031Y013990D02*
X005031Y014110D01*
X005061Y014110D01*
X005091Y014080D01*
X005121Y014110D01*
X005151Y014080D01*
X005151Y013990D01*
X005091Y013990D02*
X005091Y014080D01*
X005215Y014080D02*
X005215Y014020D01*
X005245Y013990D01*
X005305Y013990D01*
X005335Y014020D01*
X005335Y014080D01*
X005305Y014110D01*
X005245Y014110D01*
X005215Y014080D01*
X005399Y014110D02*
X005399Y014020D01*
X005429Y013990D01*
X005519Y013990D01*
X005519Y014110D01*
X005583Y014080D02*
X005613Y014110D01*
X005703Y014110D01*
X005673Y014050D02*
X005613Y014050D01*
X005583Y014080D01*
X005583Y013990D02*
X005673Y013990D01*
X005703Y014020D01*
X005673Y014050D01*
X005951Y014050D02*
X006011Y014110D01*
X006041Y014110D01*
X006105Y014080D02*
X006105Y014020D01*
X006135Y013990D01*
X006195Y013990D01*
X006225Y014020D01*
X006225Y014080D01*
X006195Y014110D01*
X006135Y014110D01*
X006105Y014080D01*
X005951Y014110D02*
X005951Y013990D01*
X006289Y013990D02*
X006379Y013990D01*
X006409Y014020D01*
X006409Y014080D01*
X006379Y014110D01*
X006289Y014110D01*
X006289Y014170D02*
X006289Y013990D01*
X006473Y014020D02*
X006503Y013990D01*
X006563Y013990D01*
X006593Y014020D01*
X006593Y014080D01*
X006563Y014110D01*
X006503Y014110D01*
X006473Y014080D01*
X006473Y014020D01*
X006657Y014110D02*
X006717Y014110D01*
X006687Y014140D02*
X006687Y014020D01*
X006717Y013990D01*
X006780Y013990D02*
X006840Y013990D01*
X006810Y013990D02*
X006810Y014110D01*
X006780Y014110D01*
X006810Y014170D02*
X006810Y014200D01*
X006903Y014080D02*
X006903Y014020D01*
X006933Y013990D01*
X007023Y013990D01*
X007023Y014110D02*
X006933Y014110D01*
X006903Y014080D01*
X007271Y014110D02*
X007331Y013990D01*
X007391Y014110D01*
X007455Y014080D02*
X007485Y014110D01*
X007545Y014110D01*
X007575Y014080D01*
X007575Y014050D01*
X007455Y014050D01*
X007455Y014020D02*
X007455Y014080D01*
X007455Y014020D02*
X007485Y013990D01*
X007545Y013990D01*
X007639Y013990D02*
X007639Y014170D01*
X007669Y014110D02*
X007729Y014110D01*
X007759Y014080D01*
X007759Y013990D01*
X007823Y013990D02*
X007883Y013990D01*
X007853Y013990D02*
X007853Y014110D01*
X007823Y014110D01*
X007853Y014170D02*
X007853Y014200D01*
X007946Y014080D02*
X007946Y014020D01*
X007976Y013990D01*
X008066Y013990D01*
X008130Y013990D02*
X008190Y013990D01*
X008160Y013990D02*
X008160Y014170D01*
X008130Y014170D01*
X008066Y014110D02*
X007976Y014110D01*
X007946Y014080D01*
X007669Y014110D02*
X007639Y014080D01*
X008253Y014080D02*
X008283Y014110D01*
X008343Y014110D01*
X008373Y014080D01*
X008373Y014050D01*
X008253Y014050D01*
X008253Y014020D02*
X008253Y014080D01*
X008253Y014020D02*
X008283Y013990D01*
X008343Y013990D01*
X008621Y013990D02*
X008711Y013990D01*
X008741Y014020D01*
X008741Y014080D01*
X008711Y014110D01*
X008621Y014110D01*
X008621Y013930D01*
X008805Y013990D02*
X008805Y014110D01*
X008805Y014050D02*
X008865Y014110D01*
X008895Y014110D01*
X008959Y014080D02*
X008959Y014020D01*
X008989Y013990D01*
X009049Y013990D01*
X009079Y014020D01*
X009079Y014080D01*
X009049Y014110D01*
X008989Y014110D01*
X008959Y014080D01*
X009143Y013930D02*
X009173Y013930D01*
X009203Y013960D01*
X009203Y014110D01*
X009203Y014170D02*
X009203Y014200D01*
X009296Y014110D02*
X009356Y014110D01*
X009386Y014080D01*
X009386Y014050D01*
X009266Y014050D01*
X009266Y014020D02*
X009266Y014080D01*
X009296Y014110D01*
X009266Y014020D02*
X009296Y013990D01*
X009356Y013990D01*
X009450Y014020D02*
X009480Y013990D01*
X009570Y013990D01*
X009664Y014020D02*
X009694Y013990D01*
X009664Y014020D02*
X009664Y014140D01*
X009634Y014110D02*
X009694Y014110D01*
X009570Y014110D02*
X009480Y014110D01*
X009450Y014080D01*
X009450Y014020D01*
X004307Y014650D02*
X004247Y014620D01*
X004197Y014730D01*
X004307Y014650D02*
X004267Y014490D01*
X004171Y014110D02*
X004171Y014020D01*
X014866Y013906D02*
X014866Y012289D01*
X016689Y012289D01*
X016689Y013906D01*
X014866Y013906D01*
X015148Y010024D02*
X015148Y006524D01*
X020266Y006524D02*
X020266Y010024D01*
X020082Y012289D02*
X021906Y012289D01*
X021906Y013906D01*
X020082Y013906D01*
X020082Y012289D01*
X025299Y012289D02*
X027123Y012289D01*
X027123Y013906D01*
X025299Y013906D01*
X025299Y012289D01*
X026053Y010024D02*
X026053Y006524D01*
D23*
X030741Y011381D03*
X030741Y011631D03*
X030741Y011881D03*
X031741Y011881D03*
X031741Y011631D03*
X031741Y011381D03*
X032741Y011381D03*
X032741Y011631D03*
X032741Y011881D03*
X033741Y011881D03*
X033741Y011631D03*
X033741Y011381D03*
M02*
