G75*
G70*
%OFA0B0*%
%FSLAX24Y24*%
%IPPOS*%
%LPD*%
%AMOC8*
5,1,8,0,0,1.08239X$1,22.5*
%
%ADD10C,0.1600*%
%ADD11C,0.0820*%
%ADD12R,0.0710X0.0789*%
%ADD13C,0.0680*%
%ADD14R,0.1064X0.0277*%
%ADD15R,0.1064X0.0867*%
%ADD16C,0.0161*%
%ADD17C,0.0710*%
%ADD18C,0.0513*%
%ADD19R,0.1340X0.0986*%
%ADD20R,0.0867X0.0316*%
%ADD21R,0.1261X0.1970*%
%ADD22R,0.2630X0.0680*%
%ADD23C,0.1025*%
%ADD24C,0.1360*%
%ADD25C,0.0671*%
%ADD26C,0.0680*%
%ADD27R,0.0316X0.0946*%
%ADD28R,0.0710X0.0631*%
%ADD29R,0.0789X0.0710*%
%ADD30C,0.0749*%
%ADD31R,0.0595X0.0595*%
%ADD32C,0.0595*%
%ADD33C,0.0437*%
%ADD34C,0.0476*%
%ADD35OC8,0.0476*%
D10*
X003094Y001796D03*
X037724Y001796D03*
X037724Y031596D03*
X003094Y031596D03*
D11*
X003454Y027704D03*
X003354Y026704D03*
X003454Y025704D03*
X003354Y024704D03*
X003454Y023704D03*
X003354Y022704D03*
X002854Y020592D03*
X003854Y020592D03*
X003854Y017764D03*
X002854Y017764D03*
X014641Y014095D03*
X014641Y012955D03*
X017844Y012955D03*
X017844Y014095D03*
X021111Y014095D03*
X021111Y012955D03*
X022118Y011778D03*
X022868Y011278D03*
X022118Y010778D03*
X025594Y011245D03*
X027374Y011245D03*
X027374Y013805D03*
X025594Y013805D03*
X027863Y008542D03*
X027863Y007542D03*
X027863Y006592D03*
X028863Y006492D03*
X029863Y006592D03*
X027863Y005542D03*
X027863Y004542D03*
X026863Y006492D03*
X025863Y006592D03*
X022484Y004946D03*
X021484Y004946D03*
X020484Y004946D03*
X019162Y024410D03*
X019262Y025410D03*
X019162Y026410D03*
X019262Y027410D03*
X019162Y028410D03*
X019262Y029410D03*
X019162Y030410D03*
X032723Y029860D03*
X032723Y028860D03*
D12*
X029912Y029978D03*
X028810Y029978D03*
X022140Y029652D03*
X021038Y029652D03*
X021038Y028192D03*
X022140Y028192D03*
X022145Y026730D03*
X021042Y026730D03*
X024956Y009565D03*
X026058Y009565D03*
X026058Y008257D03*
X024956Y008257D03*
X019083Y007103D03*
X017980Y007103D03*
X032048Y006099D03*
X033151Y006099D03*
X033150Y004598D03*
X032047Y004598D03*
D13*
X032594Y002956D02*
X032594Y002356D01*
X031594Y002256D02*
X031594Y002856D01*
X033594Y002856D02*
X033594Y002256D01*
X028939Y002256D02*
X028939Y002856D01*
X027939Y002956D02*
X027939Y002356D01*
X026939Y002256D02*
X026939Y002856D01*
X025939Y002956D02*
X025939Y002356D01*
X023344Y002256D02*
X023344Y002856D01*
X022344Y002956D02*
X022344Y002356D01*
X021344Y002256D02*
X021344Y002856D01*
X020344Y002956D02*
X020344Y002356D01*
X019344Y002256D02*
X019344Y002856D01*
X016594Y002856D02*
X016594Y002256D01*
X015594Y002356D02*
X015594Y002956D01*
X014594Y002856D02*
X014594Y002256D01*
X013594Y002356D02*
X013594Y002956D01*
X038024Y004756D02*
X038624Y004756D01*
X038724Y005756D02*
X038124Y005756D01*
X038024Y006756D02*
X038624Y006756D01*
X038724Y007756D02*
X038124Y007756D01*
D14*
X005515Y012477D03*
X005515Y012792D03*
X005515Y013107D03*
X005515Y013422D03*
X005515Y013737D03*
D15*
X005515Y014879D03*
X003350Y014879D03*
X003350Y011336D03*
X005515Y011336D03*
D16*
X004393Y012241D02*
X004395Y012264D01*
X004401Y012287D01*
X004411Y012308D01*
X004424Y012328D01*
X004440Y012345D01*
X004459Y012359D01*
X004480Y012369D01*
X004502Y012376D01*
X004525Y012379D01*
X004549Y012378D01*
X004571Y012373D01*
X004593Y012364D01*
X004613Y012352D01*
X004631Y012336D01*
X004645Y012318D01*
X004657Y012298D01*
X004665Y012276D01*
X004669Y012253D01*
X004669Y012229D01*
X004665Y012206D01*
X004657Y012184D01*
X004645Y012164D01*
X004631Y012146D01*
X004613Y012130D01*
X004593Y012118D01*
X004571Y012109D01*
X004549Y012104D01*
X004525Y012103D01*
X004502Y012106D01*
X004480Y012113D01*
X004459Y012123D01*
X004440Y012137D01*
X004424Y012154D01*
X004411Y012174D01*
X004401Y012195D01*
X004395Y012218D01*
X004393Y012241D01*
X004393Y013974D02*
X004395Y013997D01*
X004401Y014020D01*
X004411Y014041D01*
X004424Y014061D01*
X004440Y014078D01*
X004459Y014092D01*
X004480Y014102D01*
X004502Y014109D01*
X004525Y014112D01*
X004549Y014111D01*
X004571Y014106D01*
X004593Y014097D01*
X004613Y014085D01*
X004631Y014069D01*
X004645Y014051D01*
X004657Y014031D01*
X004665Y014009D01*
X004669Y013986D01*
X004669Y013962D01*
X004665Y013939D01*
X004657Y013917D01*
X004645Y013897D01*
X004631Y013879D01*
X004613Y013863D01*
X004593Y013851D01*
X004571Y013842D01*
X004549Y013837D01*
X004525Y013836D01*
X004502Y013839D01*
X004480Y013846D01*
X004459Y013856D01*
X004440Y013870D01*
X004424Y013887D01*
X004411Y013907D01*
X004401Y013928D01*
X004395Y013951D01*
X004393Y013974D01*
D17*
X006619Y016772D03*
X026462Y016614D03*
D18*
X026462Y026457D03*
X006619Y026299D03*
D19*
X027840Y027303D03*
X027840Y015748D03*
D20*
X028076Y016772D03*
X028076Y017087D03*
X028076Y017401D03*
X028076Y017716D03*
X028076Y018031D03*
X028076Y018346D03*
X028076Y018661D03*
X028076Y018976D03*
X028076Y020669D03*
X028076Y020984D03*
X028076Y021299D03*
X028076Y021614D03*
X028076Y021929D03*
X028076Y022244D03*
X028076Y022559D03*
X028076Y022874D03*
X028076Y023189D03*
X028076Y023504D03*
X028076Y023819D03*
X028076Y024134D03*
X028076Y024449D03*
X028076Y024764D03*
X028076Y025079D03*
X028076Y025394D03*
X028076Y025709D03*
X028076Y026024D03*
X024848Y026181D03*
X024848Y025866D03*
X024848Y025551D03*
X024848Y025236D03*
X024848Y024921D03*
X024848Y024606D03*
X024848Y024291D03*
X024848Y023976D03*
X024848Y023661D03*
X024848Y023346D03*
X024848Y023031D03*
X024848Y022716D03*
X024848Y022401D03*
X024848Y022087D03*
X024848Y021772D03*
X024848Y021457D03*
X024848Y021142D03*
X024848Y020827D03*
X024848Y019252D03*
X024848Y018937D03*
X024848Y018622D03*
X024848Y018307D03*
X024848Y017992D03*
X024848Y017677D03*
X024848Y017362D03*
X024848Y017047D03*
D21*
X007859Y016772D03*
X005379Y016772D03*
X005379Y026299D03*
X007859Y026299D03*
D22*
X041844Y026796D03*
X041844Y025796D03*
X041844Y024796D03*
X041844Y023796D03*
X041844Y022796D03*
X041844Y021796D03*
X041844Y020796D03*
X041844Y019796D03*
X041844Y018796D03*
X041844Y017796D03*
X041844Y016796D03*
X041844Y015796D03*
X041844Y014796D03*
X041844Y013796D03*
X041844Y012796D03*
X041844Y011796D03*
X041844Y010796D03*
X041844Y009796D03*
X041844Y008796D03*
X041844Y007796D03*
X041844Y006796D03*
X041844Y005796D03*
X041844Y004796D03*
X041844Y003796D03*
X041844Y027796D03*
D23*
X005564Y009996D03*
X005564Y003896D03*
D24*
X004364Y004696D03*
X004364Y009196D03*
D25*
X006864Y008696D03*
X007864Y008196D03*
X006864Y007696D03*
X007864Y007196D03*
X006864Y006696D03*
X007864Y006196D03*
X006864Y005696D03*
X007864Y005196D03*
D26*
X009764Y004796D03*
X009764Y005796D03*
X009764Y008096D03*
X009764Y009096D03*
D27*
X017542Y008835D03*
X018042Y008835D03*
X018542Y008835D03*
X019042Y008835D03*
X019042Y010882D03*
X018542Y010882D03*
X018042Y010882D03*
X017542Y010882D03*
D28*
X015739Y011260D03*
X015739Y010158D03*
X015685Y008929D03*
X015685Y007826D03*
D29*
X020652Y009925D03*
X020652Y011028D03*
X021486Y007913D03*
X021486Y006811D03*
D30*
X014266Y008027D03*
X014266Y011027D03*
D31*
X034784Y007096D03*
D32*
X033784Y007096D03*
X033784Y008096D03*
X034784Y008096D03*
X034784Y009096D03*
X033784Y009096D03*
X033784Y010096D03*
X034784Y010096D03*
X034784Y011096D03*
X033784Y011096D03*
X033784Y012096D03*
X034784Y012096D03*
X034784Y013096D03*
X033784Y013096D03*
X033784Y014096D03*
X034784Y014096D03*
X034784Y015096D03*
X033784Y015096D03*
X033784Y016096D03*
X034784Y016096D03*
X034784Y017096D03*
X033784Y017096D03*
X033784Y018096D03*
X034784Y018096D03*
X034784Y019096D03*
X033784Y019096D03*
X033784Y020096D03*
X034784Y020096D03*
X034784Y021096D03*
X033784Y021096D03*
X033784Y022096D03*
X034784Y022096D03*
X034784Y023096D03*
X033784Y023096D03*
X033784Y024096D03*
X034784Y024096D03*
X034784Y025096D03*
X033784Y025096D03*
X033784Y026096D03*
X034784Y026096D03*
X034784Y027096D03*
X033784Y027096D03*
D33*
X035579Y028238D03*
X030244Y026096D03*
X029504Y026216D03*
X029244Y027096D03*
X029784Y027756D03*
X028874Y028848D03*
X027286Y025403D03*
X025604Y024316D03*
X027284Y023996D03*
X023831Y021468D03*
X024178Y020834D03*
X024866Y019700D03*
X023864Y019236D03*
X023324Y018324D03*
X022704Y018926D03*
X022142Y018518D03*
X024024Y017666D03*
X026586Y019365D03*
X028045Y019703D03*
X026325Y020660D03*
X026002Y021058D03*
X025514Y020633D03*
X022640Y022058D03*
X022185Y022368D03*
X021734Y022796D03*
X022328Y023676D03*
X022908Y023978D03*
X023049Y023323D03*
X022160Y021577D03*
X022160Y020907D03*
X016309Y021940D03*
X013612Y021984D03*
X011659Y022698D03*
X008771Y021984D03*
X008967Y018816D03*
X008946Y018135D03*
X010405Y018155D03*
X010415Y018803D03*
X014189Y018807D03*
X014173Y017767D03*
X016296Y018706D03*
X009148Y013756D03*
X008436Y012731D03*
X009148Y011987D03*
X008552Y010850D03*
X007146Y011454D03*
X006658Y011150D03*
X007211Y012479D03*
X007211Y013750D03*
X003335Y014029D03*
X003335Y012219D03*
X016589Y011918D03*
X017561Y009926D03*
X021509Y008713D03*
X023065Y009030D03*
X023443Y008772D03*
X023846Y010015D03*
X024317Y009982D03*
X023903Y010593D03*
X024687Y011415D03*
X024358Y011801D03*
X023340Y011961D03*
X025457Y010468D03*
X026831Y009205D03*
X028300Y009229D03*
X030258Y010477D03*
X030255Y011082D03*
X030250Y011711D03*
X030259Y012276D03*
X030244Y012944D03*
X031504Y014096D03*
X032765Y012298D03*
X032060Y012006D03*
X032448Y011407D03*
X032966Y010681D03*
X036380Y010132D03*
X037164Y010516D03*
X037192Y013256D03*
X036024Y013416D03*
X036404Y014236D03*
X036004Y014796D03*
X036844Y014896D03*
X036680Y015840D03*
X036824Y016796D03*
X036824Y017376D03*
X035664Y017376D03*
X035664Y016796D03*
X035191Y015571D03*
X032060Y016197D03*
X031684Y017036D03*
X028837Y018033D03*
X030171Y019281D03*
X032020Y019282D03*
X032611Y020076D03*
X033079Y019272D03*
X036324Y022076D03*
X038564Y022056D03*
X039624Y021036D03*
X039624Y020496D03*
X039624Y020076D03*
X039924Y019196D03*
X039924Y017116D03*
X039304Y017116D03*
X039344Y015496D03*
X038804Y014916D03*
X040324Y015496D03*
X039657Y013316D03*
X036276Y007507D03*
X036430Y006677D03*
X035666Y006297D03*
X036440Y005643D03*
X034787Y004652D03*
X033973Y004707D03*
X033964Y005936D03*
X034400Y006309D03*
X031082Y006478D03*
X026857Y005065D03*
X034012Y001078D03*
X034788Y001742D03*
X037174Y003644D03*
X039325Y005273D03*
X028788Y011090D03*
X028712Y012286D03*
X028706Y012974D03*
X027029Y012868D03*
X026506Y012969D03*
X024685Y014099D03*
X024524Y014980D03*
X028789Y014980D03*
X021854Y025536D03*
X023344Y026996D03*
X023744Y026596D03*
X020305Y028145D03*
X010590Y031050D03*
X010140Y031351D03*
D34*
X036584Y025256D03*
X036544Y023916D03*
X039024Y023836D03*
X039624Y023816D03*
D35*
X012484Y008356D03*
X011084Y010246D03*
M02*
