G75*
G70*
%OFA0B0*%
%FSLAX24Y24*%
%IPPOS*%
%LPD*%
%AMOC8*
5,1,8,0,0,1.08239X$1,22.5*
%
%ADD10R,0.0630X0.0709*%
%ADD11R,0.0984X0.0197*%
%ADD12R,0.0984X0.0787*%
%ADD13R,0.1260X0.0906*%
%ADD14R,0.0787X0.0236*%
%ADD15R,0.1181X0.1890*%
%ADD16R,0.0236X0.0866*%
%ADD17R,0.0630X0.0551*%
%ADD18R,0.0709X0.0630*%
D10*
X017980Y007103D03*
X019083Y007103D03*
X024956Y008257D03*
X026058Y008257D03*
X026058Y009565D03*
X024956Y009565D03*
X032048Y006099D03*
X033151Y006099D03*
X033150Y004598D03*
X032047Y004598D03*
X022145Y026730D03*
X021042Y026730D03*
X021038Y028192D03*
X022140Y028192D03*
X022140Y029652D03*
X021038Y029652D03*
X028810Y029978D03*
X029912Y029978D03*
D11*
X005515Y013737D03*
X005515Y013422D03*
X005515Y013107D03*
X005515Y012792D03*
X005515Y012477D03*
D12*
X003350Y011336D03*
X005515Y011336D03*
X005515Y014879D03*
X003350Y014879D03*
D13*
X027840Y015748D03*
X027840Y027303D03*
D14*
X028076Y026024D03*
X028076Y025709D03*
X028076Y025394D03*
X028076Y025079D03*
X028076Y024764D03*
X028076Y024449D03*
X028076Y024134D03*
X028076Y023819D03*
X028076Y023504D03*
X028076Y023189D03*
X028076Y022874D03*
X028076Y022559D03*
X028076Y022244D03*
X028076Y021929D03*
X028076Y021614D03*
X028076Y021299D03*
X028076Y020984D03*
X028076Y020669D03*
X028076Y018976D03*
X028076Y018661D03*
X028076Y018346D03*
X028076Y018031D03*
X028076Y017716D03*
X028076Y017401D03*
X028076Y017087D03*
X028076Y016772D03*
X024848Y017047D03*
X024848Y017362D03*
X024848Y017677D03*
X024848Y017992D03*
X024848Y018307D03*
X024848Y018622D03*
X024848Y018937D03*
X024848Y019252D03*
X024848Y020827D03*
X024848Y021142D03*
X024848Y021457D03*
X024848Y021772D03*
X024848Y022087D03*
X024848Y022401D03*
X024848Y022716D03*
X024848Y023031D03*
X024848Y023346D03*
X024848Y023661D03*
X024848Y023976D03*
X024848Y024291D03*
X024848Y024606D03*
X024848Y024921D03*
X024848Y025236D03*
X024848Y025551D03*
X024848Y025866D03*
X024848Y026181D03*
D15*
X007859Y026299D03*
X005379Y026299D03*
X005379Y016772D03*
X007859Y016772D03*
D16*
X017542Y010882D03*
X018042Y010882D03*
X018542Y010882D03*
X019042Y010882D03*
X019042Y008835D03*
X018542Y008835D03*
X018042Y008835D03*
X017542Y008835D03*
D17*
X015685Y008929D03*
X015685Y007826D03*
X015739Y010158D03*
X015739Y011260D03*
D18*
X020652Y011028D03*
X020652Y009925D03*
X021486Y007913D03*
X021486Y006811D03*
M02*
