G75*
G70*
%OFA0B0*%
%FSLAX24Y24*%
%IPPOS*%
%LPD*%
%AMOC8*
5,1,8,0,0,1.08239X$1,22.5*
%
%ADD10C,0.1600*%
%ADD11R,0.0671X0.1064*%
%ADD12R,0.0940X0.0500*%
%ADD13R,0.0867X0.1064*%
%ADD14R,0.0592X0.0513*%
%ADD15R,0.0552X0.0671*%
%ADD16C,0.0820*%
%ADD17C,0.0680*%
%ADD18R,0.0630X0.0217*%
%ADD19R,0.0710X0.0789*%
%ADD20R,0.0710X0.0631*%
%ADD21C,0.0710*%
%ADD22C,0.0513*%
%ADD23R,0.2630X0.0680*%
%ADD24C,0.1025*%
%ADD25C,0.1360*%
%ADD26C,0.0671*%
%ADD27C,0.0680*%
%ADD28C,0.0749*%
%ADD29R,0.0595X0.0595*%
%ADD30C,0.0595*%
%ADD31C,0.0437*%
%ADD32C,0.0476*%
%ADD33OC8,0.0476*%
D10*
X003094Y001796D03*
X037724Y001796D03*
X037724Y031596D03*
X003094Y031596D03*
D11*
X006742Y029211D03*
X017569Y028453D03*
D12*
X006710Y028345D03*
X006710Y024408D03*
D13*
X006387Y022361D03*
X017923Y022361D03*
D14*
X007199Y020373D03*
D15*
X008069Y020443D03*
X008734Y020451D03*
X009686Y020451D03*
X010671Y020451D03*
X011655Y020451D03*
X012639Y020451D03*
X013623Y020451D03*
X014608Y020451D03*
X015592Y020451D03*
D16*
X019162Y024410D03*
X019262Y025410D03*
X019162Y026410D03*
X019262Y027410D03*
X019162Y028410D03*
X019262Y029410D03*
X019162Y030410D03*
X032723Y029860D03*
X032723Y028860D03*
X021111Y014095D03*
X021111Y012955D03*
X022118Y011778D03*
X022868Y011278D03*
X022118Y010778D03*
X025594Y011245D03*
X027374Y011245D03*
X027374Y013805D03*
X025594Y013805D03*
X027863Y008542D03*
X027863Y007542D03*
X027863Y006592D03*
X028863Y006492D03*
X029863Y006592D03*
X027863Y005542D03*
X027863Y004542D03*
X026863Y006492D03*
X025863Y006592D03*
X022484Y004946D03*
X021484Y004946D03*
X020484Y004946D03*
X017844Y012955D03*
X017844Y014095D03*
X014641Y014095D03*
X014641Y012955D03*
X003854Y017764D03*
X002854Y017764D03*
X002854Y020592D03*
X003854Y020592D03*
X003354Y022704D03*
X003454Y023704D03*
X003354Y024704D03*
X003454Y025704D03*
X003354Y026704D03*
X003454Y027704D03*
D17*
X013594Y002956D02*
X013594Y002356D01*
X014594Y002256D02*
X014594Y002856D01*
X015594Y002956D02*
X015594Y002356D01*
X016594Y002256D02*
X016594Y002856D01*
X019344Y002856D02*
X019344Y002256D01*
X020344Y002356D02*
X020344Y002956D01*
X021344Y002856D02*
X021344Y002256D01*
X022344Y002356D02*
X022344Y002956D01*
X023344Y002856D02*
X023344Y002256D01*
X025939Y002356D02*
X025939Y002956D01*
X026939Y002856D02*
X026939Y002256D01*
X027939Y002356D02*
X027939Y002956D01*
X028939Y002856D02*
X028939Y002256D01*
X031594Y002256D02*
X031594Y002856D01*
X032594Y002956D02*
X032594Y002356D01*
X033594Y002256D02*
X033594Y002856D01*
X038024Y004756D02*
X038624Y004756D01*
X038724Y005756D02*
X038124Y005756D01*
X038024Y006756D02*
X038624Y006756D01*
X038724Y007756D02*
X038124Y007756D01*
D18*
X010675Y011196D03*
X010675Y011452D03*
X010675Y011708D03*
X010675Y011964D03*
X010675Y012220D03*
X010675Y012476D03*
X010675Y012731D03*
X010675Y012987D03*
X010675Y013243D03*
X010675Y013499D03*
X010675Y013755D03*
X010675Y014011D03*
X010675Y014267D03*
X010675Y014523D03*
X007796Y014523D03*
X007796Y014267D03*
X007796Y014011D03*
X007796Y013755D03*
X007796Y013499D03*
X007796Y013243D03*
X007796Y012987D03*
X007796Y012731D03*
X007796Y012476D03*
X007796Y012220D03*
X007796Y011964D03*
X007796Y011708D03*
X007796Y011452D03*
X007796Y011196D03*
D19*
X008661Y015662D03*
X009764Y015662D03*
X006234Y017966D03*
X005132Y017966D03*
X005135Y019250D03*
X006237Y019250D03*
D20*
X012136Y012408D03*
X012136Y011305D03*
D21*
X006619Y016772D03*
X026462Y016614D03*
D22*
X026462Y026457D03*
X006619Y026299D03*
D23*
X041844Y026796D03*
X041844Y025796D03*
X041844Y024796D03*
X041844Y023796D03*
X041844Y022796D03*
X041844Y021796D03*
X041844Y020796D03*
X041844Y019796D03*
X041844Y018796D03*
X041844Y017796D03*
X041844Y016796D03*
X041844Y015796D03*
X041844Y014796D03*
X041844Y013796D03*
X041844Y012796D03*
X041844Y011796D03*
X041844Y010796D03*
X041844Y009796D03*
X041844Y008796D03*
X041844Y007796D03*
X041844Y006796D03*
X041844Y005796D03*
X041844Y004796D03*
X041844Y003796D03*
X041844Y027796D03*
D24*
X005564Y009996D03*
X005564Y003896D03*
D25*
X004364Y004696D03*
X004364Y009196D03*
D26*
X006864Y008696D03*
X007864Y008196D03*
X006864Y007696D03*
X007864Y007196D03*
X006864Y006696D03*
X007864Y006196D03*
X006864Y005696D03*
X007864Y005196D03*
D27*
X009764Y004796D03*
X009764Y005796D03*
X009764Y008096D03*
X009764Y009096D03*
D28*
X014266Y008027D03*
X014266Y011027D03*
D29*
X034784Y007096D03*
D30*
X033784Y007096D03*
X033784Y008096D03*
X034784Y008096D03*
X034784Y009096D03*
X033784Y009096D03*
X033784Y010096D03*
X034784Y010096D03*
X034784Y011096D03*
X033784Y011096D03*
X033784Y012096D03*
X034784Y012096D03*
X034784Y013096D03*
X033784Y013096D03*
X033784Y014096D03*
X034784Y014096D03*
X034784Y015096D03*
X033784Y015096D03*
X033784Y016096D03*
X034784Y016096D03*
X034784Y017096D03*
X033784Y017096D03*
X033784Y018096D03*
X034784Y018096D03*
X034784Y019096D03*
X033784Y019096D03*
X033784Y020096D03*
X034784Y020096D03*
X034784Y021096D03*
X033784Y021096D03*
X033784Y022096D03*
X034784Y022096D03*
X034784Y023096D03*
X033784Y023096D03*
X033784Y024096D03*
X034784Y024096D03*
X034784Y025096D03*
X033784Y025096D03*
X033784Y026096D03*
X034784Y026096D03*
X034784Y027096D03*
X033784Y027096D03*
D31*
X035579Y028238D03*
X030244Y026096D03*
X029504Y026216D03*
X029244Y027096D03*
X029784Y027756D03*
X028874Y028848D03*
X027286Y025403D03*
X025604Y024316D03*
X027284Y023996D03*
X023831Y021468D03*
X024178Y020834D03*
X024866Y019700D03*
X023864Y019236D03*
X023324Y018324D03*
X022704Y018926D03*
X022142Y018518D03*
X024024Y017666D03*
X026586Y019365D03*
X028045Y019703D03*
X026325Y020660D03*
X026002Y021058D03*
X025514Y020633D03*
X022640Y022058D03*
X022185Y022368D03*
X021734Y022796D03*
X022328Y023676D03*
X022908Y023978D03*
X023049Y023323D03*
X022160Y021577D03*
X022160Y020907D03*
X016309Y021940D03*
X013612Y021984D03*
X011659Y022698D03*
X008771Y021984D03*
X008967Y018816D03*
X008946Y018135D03*
X010405Y018155D03*
X010415Y018803D03*
X014189Y018807D03*
X014173Y017767D03*
X016296Y018706D03*
X009148Y013756D03*
X008436Y012731D03*
X009148Y011987D03*
X008552Y010850D03*
X007146Y011454D03*
X006658Y011150D03*
X007211Y012479D03*
X007211Y013750D03*
X003335Y014029D03*
X003335Y012219D03*
X016589Y011918D03*
X017561Y009926D03*
X021509Y008713D03*
X023065Y009030D03*
X023443Y008772D03*
X023846Y010015D03*
X024317Y009982D03*
X023903Y010593D03*
X024687Y011415D03*
X024358Y011801D03*
X023340Y011961D03*
X025457Y010468D03*
X026831Y009205D03*
X028300Y009229D03*
X030258Y010477D03*
X030255Y011082D03*
X030250Y011711D03*
X030259Y012276D03*
X030244Y012944D03*
X031504Y014096D03*
X032765Y012298D03*
X032060Y012006D03*
X032448Y011407D03*
X032966Y010681D03*
X036380Y010132D03*
X037164Y010516D03*
X037192Y013256D03*
X036024Y013416D03*
X036404Y014236D03*
X036004Y014796D03*
X036844Y014896D03*
X036680Y015840D03*
X036824Y016796D03*
X036824Y017376D03*
X035664Y017376D03*
X035664Y016796D03*
X035191Y015571D03*
X032060Y016197D03*
X031684Y017036D03*
X028837Y018033D03*
X030171Y019281D03*
X032020Y019282D03*
X032611Y020076D03*
X033079Y019272D03*
X036324Y022076D03*
X038564Y022056D03*
X039624Y021036D03*
X039624Y020496D03*
X039624Y020076D03*
X039924Y019196D03*
X039924Y017116D03*
X039304Y017116D03*
X039344Y015496D03*
X038804Y014916D03*
X040324Y015496D03*
X039657Y013316D03*
X036276Y007507D03*
X036430Y006677D03*
X035666Y006297D03*
X036440Y005643D03*
X034787Y004652D03*
X033973Y004707D03*
X033964Y005936D03*
X034400Y006309D03*
X031082Y006478D03*
X026857Y005065D03*
X034012Y001078D03*
X034788Y001742D03*
X037174Y003644D03*
X039325Y005273D03*
X028788Y011090D03*
X028712Y012286D03*
X028706Y012974D03*
X027029Y012868D03*
X026506Y012969D03*
X024685Y014099D03*
X024524Y014980D03*
X028789Y014980D03*
X021854Y025536D03*
X023344Y026996D03*
X023744Y026596D03*
X020305Y028145D03*
X010590Y031050D03*
X010140Y031351D03*
D32*
X036584Y025256D03*
X036544Y023916D03*
X039024Y023836D03*
X039624Y023816D03*
D33*
X012484Y008356D03*
X011084Y010246D03*
M02*
