G75*
G70*
%OFA0B0*%
%FSLAX24Y24*%
%IPPOS*%
%LPD*%
%AMOC8*
5,1,8,0,0,1.08239X$1,22.5*
%
%ADD10C,0.0080*%
%ADD11C,0.0060*%
D10*
X011663Y011030D02*
X011821Y010872D01*
X012451Y010872D01*
X012608Y011030D01*
X012608Y011463D01*
X011663Y011463D02*
X011663Y011030D01*
X011663Y012250D02*
X011663Y012841D01*
X012608Y012841D01*
X012608Y012250D01*
X017706Y020746D02*
X006545Y020746D01*
X006545Y021770D01*
X006545Y022951D02*
X006545Y024132D01*
X006545Y024723D02*
X006545Y028069D01*
X006545Y029841D02*
X006545Y032203D01*
X008222Y032203D01*
X008232Y032012D01*
X008252Y031822D01*
X008281Y031634D01*
X008319Y031447D01*
X008366Y031262D01*
X008422Y031079D01*
X008488Y030900D01*
X008561Y030724D01*
X008644Y030552D01*
X008734Y030384D01*
X008833Y030220D01*
X008940Y030062D01*
X009054Y029909D01*
X009175Y029762D01*
X009304Y029621D01*
X009439Y029486D01*
X009581Y029358D01*
X009729Y029237D01*
X009883Y029124D01*
X010041Y029018D01*
X010205Y028921D01*
X010374Y028831D01*
X010547Y028750D01*
X010723Y028677D01*
X010903Y028613D01*
X011086Y028557D01*
X011271Y028511D01*
X011458Y028474D01*
X011647Y028446D01*
X011837Y028428D01*
X012028Y028418D01*
X012218Y028418D01*
X012409Y028428D01*
X012599Y028446D01*
X012788Y028474D01*
X012975Y028511D01*
X013160Y028557D01*
X013343Y028613D01*
X013523Y028677D01*
X013699Y028750D01*
X013872Y028831D01*
X014041Y028921D01*
X014205Y029018D01*
X014363Y029124D01*
X014517Y029237D01*
X014665Y029358D01*
X014807Y029486D01*
X014942Y029621D01*
X015071Y029762D01*
X015192Y029909D01*
X015306Y030062D01*
X015413Y030220D01*
X015512Y030384D01*
X015602Y030552D01*
X015685Y030724D01*
X015758Y030900D01*
X015824Y031079D01*
X015880Y031262D01*
X015927Y031447D01*
X015965Y031634D01*
X015994Y031822D01*
X016014Y032012D01*
X016024Y032203D01*
X016025Y032203D02*
X017706Y032203D01*
X017706Y029003D01*
X017706Y027803D02*
X017706Y022951D01*
X017706Y021770D02*
X017706Y020746D01*
D11*
X010387Y010812D02*
X008084Y010812D01*
X008084Y014907D01*
X010387Y014907D01*
X010387Y010812D01*
X009822Y014523D02*
X009824Y014549D01*
X009830Y014575D01*
X009839Y014600D01*
X009852Y014623D01*
X009868Y014644D01*
X009887Y014662D01*
X009909Y014678D01*
X009932Y014690D01*
X009957Y014698D01*
X009983Y014703D01*
X010010Y014704D01*
X010036Y014701D01*
X010061Y014694D01*
X010086Y014684D01*
X010108Y014670D01*
X010129Y014653D01*
X010146Y014634D01*
X010161Y014612D01*
X010172Y014588D01*
X010180Y014562D01*
X010184Y014536D01*
X010184Y014510D01*
X010180Y014484D01*
X010172Y014458D01*
X010161Y014434D01*
X010146Y014412D01*
X010129Y014393D01*
X010108Y014376D01*
X010086Y014362D01*
X010061Y014352D01*
X010036Y014345D01*
X010010Y014342D01*
X009983Y014343D01*
X009957Y014348D01*
X009932Y014356D01*
X009909Y014368D01*
X009887Y014384D01*
X009868Y014402D01*
X009852Y014423D01*
X009839Y014446D01*
X009830Y014471D01*
X009824Y014497D01*
X009822Y014523D01*
M02*
