%
M48
M72
T01C0.0320
T02C0.0400
T03C0.0440
T04C0.0472
T05C0.0520
T06C0.0710
T07C0.0800
T08C0.1000
T09C0.1200
T10C0.1800
T11C0.2500
%
T01
X10101Y8101
X10101Y9101
X10601Y12101
X10601Y17101
T02
X7601Y19851
X7601Y21851
T03
X13601Y27601
X16601Y27601
X29601Y27601
X32601Y27601
X32601Y2601
X29601Y2601
X16601Y2601
X13601Y2601
T04
X37845Y11097
X37845Y15097
X37845Y17097
X55845Y18097
X55845Y22097
X55845Y14097
X55845Y10097
T05
X4351Y21751
X2351Y21751
X2351Y29951
X4351Y29951
T06
X7601Y16951
X7601Y15101
X7601Y13251
T07
X26601Y30351
X26601Y32351
X26601Y34351
X29601Y34351
X32601Y34351
X35601Y34351
X38601Y34351
X41601Y34351
X44601Y34351
X47601Y34351
X50601Y34351
X53601Y34351
X56601Y34351
X56601Y32351
X56601Y30351
X56601Y28351
X53601Y28351
X53601Y30351
X53601Y32351
X50601Y32351
X50601Y30351
X50601Y28351
X47601Y28351
X47601Y30351
X47601Y32351
X44601Y32351
X44601Y30351
X44601Y28351
X41601Y28351
X41601Y30351
X41601Y32351
X38601Y32351
X38601Y30351
X38601Y28351
X35601Y28351
X35601Y30351
X35601Y32351
X32601Y32351
X32601Y30351
X29601Y30351
X29601Y32351
T08
X6205Y8851
X3101Y8851
T09
X16601Y5101
X23101Y5101
X29601Y5101
X29601Y25101
X23101Y25101
X16601Y25101
T10
X13601Y22101
X13601Y18101
X13601Y12101
X13601Y8101
X32601Y12101
X32601Y15101
X32601Y18101
T11
X32601Y22101
X32601Y8101
M30
