%
M48
M72
T01C0.0200
T03C0.0350
T04C0.0380
T05C0.0420
T06C0.0520
T07C0.0600
T09C0.1250
T10C0.1520
T11C0.2500
%
T01
X24101Y29601
X23601Y30101
X22851Y30351
X21891Y30601
X21351Y30601
X19971Y31301
X22101Y32011
X17601Y31101
T03
X12101Y30851
X12101Y32101
X12101Y29601
X8101Y29601
X8101Y30851
X8101Y32101
X10351Y15351
X10351Y14351
X12351Y14351
X12351Y10351
T04
X8351Y10101
X8351Y8101
T05
X15101Y3851
X18101Y3851
X30351Y3851
X33351Y3851
X34101Y28351
X31101Y28351
X19101Y31901
X18101Y31851
X17101Y31901
X16101Y31851
X15101Y31901
X14101Y31851
X15101Y28351
X18101Y28351
T06
X1851Y4001
X3851Y4001
X3851Y12201
X1851Y12201
X5951Y15812
X5951Y28410
X38595Y26855
X38595Y22855
X38595Y20855
X56595Y19855
X56595Y23855
X56595Y27855
X56595Y15855
T07
X11101Y17251
X11101Y19101
X11101Y20951
X5971Y26271
X5955Y30351
X2851Y30351
T09
X18101Y26101
X24601Y26101
X31101Y26101
X31101Y6101
X24601Y6101
X18101Y6101
T10
X15101Y9101
X15101Y13101
X15101Y19101
X15101Y23101
X34101Y19101
X34101Y16101
X34101Y13101
T11
X34101Y9101
X34101Y23101
M30
