G75*
G70*
%OFA0B0*%
%FSLAX24Y24*%
%IPPOS*%
%LPD*%
%AMOC8*
5,1,8,0,0,1.08239X$1,22.5*
%
%ADD10C,0.0000*%
%ADD11C,0.0030*%
%ADD12C,0.0060*%
%ADD13C,0.0040*%
%ADD14C,0.0050*%
%ADD15R,0.0240X0.0340*%
%ADD16C,0.0080*%
%ADD17C,0.0100*%
%ADD18R,0.0900X0.0250*%
%ADD19C,0.0160*%
%ADD20C,0.0020*%
%ADD21C,0.0070*%
%ADD22R,0.0450X0.0450*%
%ADD23R,0.0250X0.1100*%
%ADD24R,0.0200X0.4000*%
%ADD25R,0.0700X0.0150*%
%ADD26R,0.2500X0.0350*%
%ADD27R,0.0340X0.0240*%
D10*
X000101Y000101D02*
X000101Y033351D01*
X059101Y033351D01*
X059101Y000101D01*
X000101Y000101D01*
X016601Y007601D02*
X016601Y024601D01*
X016603Y024645D01*
X016609Y024688D01*
X016618Y024730D01*
X016631Y024772D01*
X016648Y024812D01*
X016668Y024851D01*
X016691Y024888D01*
X016718Y024922D01*
X016747Y024955D01*
X016780Y024984D01*
X016814Y025011D01*
X016851Y025034D01*
X016890Y025054D01*
X016930Y025071D01*
X016972Y025084D01*
X017014Y025093D01*
X017057Y025099D01*
X017101Y025101D01*
X032101Y025101D01*
X032145Y025099D01*
X032188Y025093D01*
X032230Y025084D01*
X032272Y025071D01*
X032312Y025054D01*
X032351Y025034D01*
X032388Y025011D01*
X032422Y024984D01*
X032455Y024955D01*
X032484Y024922D01*
X032511Y024888D01*
X032534Y024851D01*
X032554Y024812D01*
X032571Y024772D01*
X032584Y024730D01*
X032593Y024688D01*
X032599Y024645D01*
X032601Y024601D01*
X032601Y007601D01*
X032599Y007557D01*
X032593Y007514D01*
X032584Y007472D01*
X032571Y007430D01*
X032554Y007390D01*
X032534Y007351D01*
X032511Y007314D01*
X032484Y007280D01*
X032455Y007247D01*
X032422Y007218D01*
X032388Y007191D01*
X032351Y007168D01*
X032312Y007148D01*
X032272Y007131D01*
X032230Y007118D01*
X032188Y007109D01*
X032145Y007103D01*
X032101Y007101D01*
X017101Y007101D01*
X017057Y007103D01*
X017014Y007109D01*
X016972Y007118D01*
X016930Y007131D01*
X016890Y007148D01*
X016851Y007168D01*
X016814Y007191D01*
X016780Y007218D01*
X016747Y007247D01*
X016718Y007280D01*
X016691Y007314D01*
X016668Y007351D01*
X016648Y007390D01*
X016631Y007430D01*
X016618Y007472D01*
X016609Y007514D01*
X016603Y007557D01*
X016601Y007601D01*
D11*
X010401Y002424D02*
X010401Y002363D01*
X010339Y002301D01*
X010401Y002239D01*
X010401Y002177D01*
X010339Y002116D01*
X010215Y002116D01*
X010154Y002177D01*
X010032Y002116D02*
X009785Y002116D01*
X009909Y002116D02*
X009909Y002486D01*
X009785Y002363D01*
X009664Y002424D02*
X009417Y002177D01*
X009479Y002116D01*
X009602Y002116D01*
X009664Y002177D01*
X009664Y002424D01*
X009602Y002486D01*
X009479Y002486D01*
X009417Y002424D01*
X009417Y002177D01*
X009296Y002116D02*
X009049Y002116D01*
X009296Y002363D01*
X009296Y002424D01*
X009234Y002486D01*
X009111Y002486D01*
X009049Y002424D01*
X009049Y001986D02*
X009234Y001986D01*
X009296Y001924D01*
X009296Y001677D01*
X009234Y001616D01*
X009049Y001616D01*
X009049Y001986D01*
X008927Y001924D02*
X008927Y001801D01*
X008866Y001739D01*
X008681Y001739D01*
X008804Y001739D02*
X008927Y001616D01*
X008681Y001616D02*
X008681Y001986D01*
X008866Y001986D01*
X008927Y001924D01*
X008559Y001863D02*
X008559Y001616D01*
X008559Y001801D02*
X008312Y001801D01*
X008312Y001863D02*
X008312Y001616D01*
X008191Y001677D02*
X008191Y001924D01*
X008129Y001986D01*
X008006Y001986D01*
X007944Y001924D01*
X007944Y001677D01*
X008006Y001616D01*
X008129Y001616D01*
X008191Y001677D01*
X008312Y001863D02*
X008436Y001986D01*
X008559Y001863D01*
X008559Y002116D02*
X008559Y002363D01*
X008436Y002486D01*
X008312Y002363D01*
X008312Y002116D01*
X008191Y002177D02*
X008191Y002239D01*
X008129Y002301D01*
X008006Y002301D01*
X007944Y002363D01*
X007944Y002424D01*
X008006Y002486D01*
X008129Y002486D01*
X008191Y002424D01*
X008312Y002301D02*
X008559Y002301D01*
X008191Y002177D02*
X008129Y002116D01*
X008006Y002116D01*
X007944Y002177D01*
X007822Y002116D02*
X007699Y002239D01*
X007761Y002239D02*
X007576Y002239D01*
X007576Y002116D02*
X007576Y002486D01*
X007761Y002486D01*
X007822Y002424D01*
X007822Y002301D01*
X007761Y002239D01*
X007761Y001986D02*
X007576Y001986D01*
X007576Y001616D01*
X007761Y001616D01*
X007822Y001677D01*
X007822Y001739D01*
X007761Y001801D01*
X007576Y001801D01*
X007761Y001801D02*
X007822Y001863D01*
X007822Y001924D01*
X007761Y001986D01*
X007454Y002177D02*
X007454Y002486D01*
X007207Y002486D02*
X007207Y002177D01*
X007269Y002116D01*
X007392Y002116D01*
X007454Y002177D01*
X007086Y001924D02*
X007086Y001801D01*
X007024Y001739D01*
X006839Y001739D01*
X006839Y001616D02*
X006839Y001986D01*
X007024Y001986D01*
X007086Y001924D01*
X006962Y001739D02*
X007086Y001616D01*
X006718Y001616D02*
X006471Y001616D01*
X006471Y001986D01*
X006718Y001986D01*
X006718Y002116D02*
X006718Y002363D01*
X006594Y002486D01*
X006471Y002363D01*
X006471Y002116D01*
X006349Y002177D02*
X006349Y002486D01*
X006471Y002301D02*
X006718Y002301D01*
X006349Y002177D02*
X006288Y002116D01*
X006164Y002116D01*
X006102Y002177D01*
X006102Y002486D01*
X005981Y002424D02*
X005981Y002177D01*
X005919Y002116D01*
X005796Y002116D01*
X005734Y002177D01*
X005734Y002424D01*
X005796Y002486D01*
X005919Y002486D01*
X005981Y002424D01*
X005858Y002239D02*
X005981Y002116D01*
X005919Y001986D02*
X005981Y001924D01*
X005981Y001677D01*
X005919Y001616D01*
X005796Y001616D01*
X005734Y001677D01*
X005734Y001924D01*
X005796Y001986D01*
X005919Y001986D01*
X006102Y001986D02*
X006102Y001616D01*
X006226Y001739D01*
X006349Y001616D01*
X006349Y001986D01*
X006471Y001801D02*
X006594Y001801D01*
X005613Y001801D02*
X005551Y001739D01*
X005366Y001739D01*
X005366Y001616D02*
X005366Y001986D01*
X005551Y001986D01*
X005613Y001924D01*
X005613Y001801D01*
X005613Y002116D02*
X005613Y002363D01*
X005489Y002486D01*
X005366Y002363D01*
X005366Y002116D01*
X005366Y002301D02*
X005613Y002301D01*
X005613Y003116D02*
X005366Y003116D01*
X005366Y003486D01*
X005366Y003866D02*
X005613Y004236D01*
X005366Y004236D02*
X005613Y003866D01*
X006102Y003927D02*
X006102Y004174D01*
X006164Y004236D01*
X006288Y004236D01*
X006349Y004174D01*
X006471Y004236D02*
X006471Y003866D01*
X006349Y003927D02*
X006288Y003866D01*
X006164Y003866D01*
X006102Y003927D01*
X006471Y004051D02*
X006718Y004051D01*
X006839Y004051D02*
X006962Y004051D01*
X006839Y004236D02*
X006839Y003866D01*
X007086Y003866D01*
X007207Y003866D02*
X007207Y004236D01*
X007454Y003866D01*
X007454Y004236D01*
X007086Y004236D02*
X006839Y004236D01*
X006718Y004236D02*
X006718Y003866D01*
X006778Y003486D02*
X006716Y003424D01*
X006716Y003363D01*
X006778Y003301D01*
X006901Y003301D01*
X006963Y003239D01*
X006963Y003177D01*
X006901Y003116D01*
X006778Y003116D01*
X006716Y003177D01*
X006594Y003116D02*
X006471Y003116D01*
X006532Y003116D02*
X006532Y003486D01*
X006471Y003486D02*
X006594Y003486D01*
X006778Y003486D02*
X006901Y003486D01*
X006963Y003424D01*
X007085Y003486D02*
X007085Y003116D01*
X007331Y003116D01*
X007453Y003116D02*
X007700Y003116D01*
X007821Y003116D02*
X008068Y003116D01*
X007945Y003301D02*
X007821Y003301D01*
X007821Y003486D02*
X007821Y003116D01*
X007453Y003116D02*
X007453Y003486D01*
X007331Y003486D02*
X007085Y003486D01*
X007085Y003301D02*
X007208Y003301D01*
X007821Y003486D02*
X008068Y003486D01*
X008189Y003486D02*
X008189Y003424D01*
X008313Y003301D01*
X008313Y003116D01*
X008313Y003301D02*
X008436Y003424D01*
X008436Y003486D01*
X010154Y002424D02*
X010215Y002486D01*
X010339Y002486D01*
X010401Y002424D01*
X010339Y002301D02*
X010277Y002301D01*
X010301Y001986D02*
X010363Y001924D01*
X010363Y001801D01*
X010301Y001739D01*
X010116Y001739D01*
X010239Y001739D02*
X010363Y001616D01*
X010484Y001616D02*
X010731Y001616D01*
X010852Y001739D02*
X010976Y001616D01*
X011099Y001739D01*
X011099Y001986D01*
X010852Y001986D02*
X010852Y001739D01*
X010608Y001801D02*
X010484Y001801D01*
X010484Y001986D02*
X010484Y001616D01*
X010116Y001616D02*
X010116Y001986D01*
X010301Y001986D01*
X010484Y001986D02*
X010731Y001986D01*
X011221Y001677D02*
X011282Y001677D01*
X011282Y001616D01*
X011221Y001616D01*
X011221Y001677D01*
X011773Y001616D02*
X012020Y001616D01*
X012141Y001616D02*
X012203Y001616D01*
X012203Y001677D01*
X012141Y001677D01*
X012141Y001616D01*
X012326Y001677D02*
X012572Y001924D01*
X012572Y001677D01*
X012511Y001616D01*
X012387Y001616D01*
X012326Y001677D01*
X012326Y001924D01*
X012387Y001986D01*
X012511Y001986D01*
X012572Y001924D01*
X011897Y001986D02*
X011897Y001616D01*
X011773Y001863D02*
X011897Y001986D01*
X006349Y003116D02*
X006349Y003486D01*
X006102Y003486D02*
X006102Y003116D01*
X006226Y003239D01*
X006349Y003116D01*
D12*
X004301Y003301D02*
X004301Y003501D01*
X004301Y003301D02*
X003401Y003301D01*
X003401Y003501D01*
X003851Y003301D02*
X003851Y001101D01*
X001851Y001101D01*
X001401Y001101D01*
X001401Y003301D01*
X001401Y003501D01*
X001401Y003301D02*
X002301Y003301D01*
X002301Y003501D01*
X001851Y003301D02*
X001851Y001101D01*
X003851Y001101D02*
X004301Y001101D01*
X004301Y003301D01*
X004301Y004501D02*
X004301Y005751D01*
X003851Y005751D01*
X003851Y004701D01*
X001851Y004701D02*
X001851Y005751D01*
X001401Y005751D01*
X001401Y004501D01*
X004001Y006101D02*
X004001Y010101D01*
X003851Y010451D02*
X003851Y011501D01*
X004301Y011701D02*
X004301Y010451D01*
X003851Y010451D01*
X001851Y010451D02*
X001851Y011501D01*
X001401Y011701D02*
X001401Y010451D01*
X001851Y010451D01*
X002301Y012701D02*
X002301Y012901D01*
X001401Y012901D01*
X001401Y012701D01*
X001401Y012901D02*
X001401Y015101D01*
X001851Y015101D01*
X003851Y015101D01*
X004301Y015101D01*
X004301Y012901D01*
X004301Y012701D01*
X004301Y012901D02*
X003401Y012901D01*
X003401Y012701D01*
X003851Y012901D02*
X003851Y015101D01*
X001851Y015101D02*
X001851Y012901D01*
X007901Y009001D02*
X007901Y008751D01*
X008351Y008751D01*
X008801Y008751D01*
X008801Y009001D01*
X007901Y009001D01*
X006351Y009101D02*
X006353Y009199D01*
X006361Y009297D01*
X006373Y009394D01*
X006389Y009491D01*
X006411Y009587D01*
X006437Y009682D01*
X006468Y009775D01*
X006503Y009866D01*
X006543Y009956D01*
X006587Y010044D01*
X006636Y010129D01*
X006688Y010212D01*
X006745Y010292D01*
X006805Y010370D01*
X006869Y010444D01*
X006937Y010515D01*
X007008Y010583D01*
X007082Y010647D01*
X007160Y010707D01*
X007240Y010764D01*
X007323Y010816D01*
X007408Y010865D01*
X007496Y010909D01*
X007586Y010949D01*
X007677Y010984D01*
X007770Y011015D01*
X007865Y011041D01*
X007961Y011063D01*
X008058Y011079D01*
X008155Y011091D01*
X008253Y011099D01*
X008351Y011101D01*
X008449Y011099D01*
X008547Y011091D01*
X008644Y011079D01*
X008741Y011063D01*
X008837Y011041D01*
X008932Y011015D01*
X009025Y010984D01*
X009116Y010949D01*
X009206Y010909D01*
X009294Y010865D01*
X009379Y010816D01*
X009462Y010764D01*
X009542Y010707D01*
X009620Y010647D01*
X009694Y010583D01*
X009765Y010515D01*
X009833Y010444D01*
X009897Y010370D01*
X009957Y010292D01*
X010014Y010212D01*
X010066Y010129D01*
X010115Y010044D01*
X010159Y009956D01*
X010199Y009866D01*
X010234Y009775D01*
X010265Y009682D01*
X010291Y009587D01*
X010313Y009491D01*
X010329Y009394D01*
X010341Y009297D01*
X010349Y009199D01*
X010351Y009101D01*
X010349Y009003D01*
X010341Y008905D01*
X010329Y008808D01*
X010313Y008711D01*
X010291Y008615D01*
X010265Y008520D01*
X010234Y008427D01*
X010199Y008336D01*
X010159Y008246D01*
X010115Y008158D01*
X010066Y008073D01*
X010014Y007990D01*
X009957Y007910D01*
X009897Y007832D01*
X009833Y007758D01*
X009765Y007687D01*
X009694Y007619D01*
X009620Y007555D01*
X009542Y007495D01*
X009462Y007438D01*
X009379Y007386D01*
X009294Y007337D01*
X009206Y007293D01*
X009116Y007253D01*
X009025Y007218D01*
X008932Y007187D01*
X008837Y007161D01*
X008741Y007139D01*
X008644Y007123D01*
X008547Y007111D01*
X008449Y007103D01*
X008351Y007101D01*
X008253Y007103D01*
X008155Y007111D01*
X008058Y007123D01*
X007961Y007139D01*
X007865Y007161D01*
X007770Y007187D01*
X007677Y007218D01*
X007586Y007253D01*
X007496Y007293D01*
X007408Y007337D01*
X007323Y007386D01*
X007240Y007438D01*
X007160Y007495D01*
X007082Y007555D01*
X007008Y007619D01*
X006937Y007687D01*
X006869Y007758D01*
X006805Y007832D01*
X006745Y007910D01*
X006688Y007990D01*
X006636Y008073D01*
X006587Y008158D01*
X006543Y008246D01*
X006503Y008336D01*
X006468Y008427D01*
X006437Y008520D01*
X006411Y008615D01*
X006389Y008711D01*
X006373Y008808D01*
X006361Y008905D01*
X006353Y009003D01*
X006351Y009101D01*
X007851Y007751D02*
X007851Y007451D01*
X007701Y007601D02*
X008001Y007601D01*
X008351Y008651D02*
X008351Y008751D01*
X008351Y009351D02*
X008351Y009551D01*
X011901Y011201D02*
X011901Y011351D01*
X011951Y011401D01*
X011951Y013301D01*
X011901Y013351D01*
X011901Y013501D01*
X011903Y013518D01*
X011907Y013535D01*
X011914Y013551D01*
X011924Y013565D01*
X011937Y013578D01*
X011951Y013588D01*
X011967Y013595D01*
X011984Y013599D01*
X012001Y013601D01*
X012701Y013601D01*
X012718Y013599D01*
X012735Y013595D01*
X012751Y013588D01*
X012765Y013578D01*
X012778Y013565D01*
X012788Y013551D01*
X012795Y013535D01*
X012799Y013518D01*
X012801Y013501D01*
X012801Y013351D01*
X012751Y013301D01*
X012751Y011401D01*
X012801Y011351D01*
X012801Y011201D01*
X012799Y011184D01*
X012795Y011167D01*
X012788Y011151D01*
X012778Y011137D01*
X012765Y011124D01*
X012751Y011114D01*
X012735Y011107D01*
X012718Y011103D01*
X012701Y011101D01*
X012001Y011101D01*
X011984Y011103D01*
X011967Y011107D01*
X011951Y011114D01*
X011937Y011124D01*
X011924Y011137D01*
X011914Y011151D01*
X011907Y011167D01*
X011903Y011184D01*
X011901Y011201D01*
X009351Y014851D02*
X009353Y014914D01*
X009359Y014976D01*
X009369Y015038D01*
X009382Y015100D01*
X009400Y015160D01*
X009421Y015219D01*
X009446Y015277D01*
X009475Y015333D01*
X009507Y015387D01*
X009542Y015439D01*
X009580Y015488D01*
X009622Y015536D01*
X009666Y015580D01*
X009714Y015622D01*
X009763Y015660D01*
X009815Y015695D01*
X009869Y015727D01*
X009925Y015756D01*
X009983Y015781D01*
X010042Y015802D01*
X010102Y015820D01*
X010164Y015833D01*
X010226Y015843D01*
X010288Y015849D01*
X010351Y015851D01*
X010414Y015849D01*
X010476Y015843D01*
X010538Y015833D01*
X010600Y015820D01*
X010660Y015802D01*
X010719Y015781D01*
X010777Y015756D01*
X010833Y015727D01*
X010887Y015695D01*
X010939Y015660D01*
X010988Y015622D01*
X011036Y015580D01*
X011080Y015536D01*
X011122Y015488D01*
X011160Y015439D01*
X011195Y015387D01*
X011227Y015333D01*
X011256Y015277D01*
X011281Y015219D01*
X011302Y015160D01*
X011320Y015100D01*
X011333Y015038D01*
X011343Y014976D01*
X011349Y014914D01*
X011351Y014851D01*
X011349Y014788D01*
X011343Y014726D01*
X011333Y014664D01*
X011320Y014602D01*
X011302Y014542D01*
X011281Y014483D01*
X011256Y014425D01*
X011227Y014369D01*
X011195Y014315D01*
X011160Y014263D01*
X011122Y014214D01*
X011080Y014166D01*
X011036Y014122D01*
X010988Y014080D01*
X010939Y014042D01*
X010887Y014007D01*
X010833Y013975D01*
X010777Y013946D01*
X010719Y013921D01*
X010660Y013900D01*
X010600Y013882D01*
X010538Y013869D01*
X010476Y013859D01*
X010414Y013853D01*
X010351Y013851D01*
X010288Y013853D01*
X010226Y013859D01*
X010164Y013869D01*
X010102Y013882D01*
X010042Y013900D01*
X009983Y013921D01*
X009925Y013946D01*
X009869Y013975D01*
X009815Y014007D01*
X009763Y014042D01*
X009714Y014080D01*
X009666Y014122D01*
X009622Y014166D01*
X009580Y014214D01*
X009542Y014263D01*
X009507Y014315D01*
X009475Y014369D01*
X009446Y014425D01*
X009421Y014483D01*
X009400Y014542D01*
X009382Y014602D01*
X009369Y014664D01*
X009359Y014726D01*
X009353Y014788D01*
X009351Y014851D01*
X009781Y016471D02*
X009531Y016721D01*
X009531Y018111D01*
X009401Y018201D01*
X009401Y020001D01*
X009521Y020081D01*
X009521Y021481D01*
X009771Y021731D01*
X012431Y021731D01*
X012681Y021481D01*
X012681Y020081D01*
X012801Y020001D01*
X012801Y018201D01*
X012671Y018121D01*
X012671Y016721D01*
X012421Y016471D01*
X009781Y016471D01*
X008920Y017881D02*
X008920Y018521D01*
X009347Y018521D01*
X009133Y018201D02*
X008920Y018201D01*
X008702Y018521D02*
X008275Y018521D01*
X008275Y017881D01*
X008058Y017988D02*
X007951Y017881D01*
X007738Y017881D01*
X007631Y017988D01*
X007631Y018415D01*
X007738Y018521D01*
X007951Y018521D01*
X008058Y018415D01*
X008058Y017988D01*
X008275Y018201D02*
X008489Y018201D01*
X008525Y019631D02*
X008525Y020271D01*
X008952Y019631D01*
X008952Y020271D01*
X008308Y020165D02*
X008201Y020271D01*
X007988Y020271D01*
X007881Y020165D01*
X007881Y019738D01*
X007988Y019631D01*
X008201Y019631D01*
X008308Y019738D01*
X008308Y020165D01*
X015101Y027351D02*
X018101Y027351D01*
X018163Y027353D01*
X018224Y027359D01*
X018285Y027368D01*
X018345Y027381D01*
X018404Y027398D01*
X018462Y027419D01*
X018519Y027443D01*
X018574Y027470D01*
X018627Y027501D01*
X018679Y027535D01*
X018728Y027572D01*
X018775Y027612D01*
X018819Y027655D01*
X018860Y027700D01*
X018899Y027748D01*
X018935Y027799D01*
X018967Y027851D01*
X018996Y027905D01*
X019022Y027961D01*
X019044Y028019D01*
X019063Y028077D01*
X019078Y028137D01*
X019089Y028198D01*
X019097Y028259D01*
X019101Y028320D01*
X019101Y028382D01*
X019097Y028443D01*
X019089Y028504D01*
X019078Y028565D01*
X019063Y028625D01*
X019044Y028683D01*
X019022Y028741D01*
X018996Y028797D01*
X018967Y028851D01*
X018935Y028903D01*
X018899Y028954D01*
X018860Y029002D01*
X018819Y029047D01*
X018775Y029090D01*
X018728Y029130D01*
X018679Y029167D01*
X018627Y029201D01*
X018574Y029232D01*
X018519Y029259D01*
X018462Y029283D01*
X018404Y029304D01*
X018345Y029321D01*
X018285Y029334D01*
X018224Y029343D01*
X018163Y029349D01*
X018101Y029351D01*
X015101Y029351D01*
X015881Y028971D02*
X015881Y028881D01*
X016041Y028721D01*
X016201Y028881D01*
X016201Y028971D01*
X016041Y028721D02*
X016041Y028481D01*
X015701Y028351D02*
X016401Y028351D01*
X016801Y028351D02*
X017501Y028351D01*
X015101Y029351D02*
X015039Y029349D01*
X014978Y029343D01*
X014917Y029334D01*
X014857Y029321D01*
X014798Y029304D01*
X014740Y029283D01*
X014683Y029259D01*
X014628Y029232D01*
X014575Y029201D01*
X014523Y029167D01*
X014474Y029130D01*
X014427Y029090D01*
X014383Y029047D01*
X014342Y029002D01*
X014303Y028954D01*
X014267Y028903D01*
X014235Y028851D01*
X014206Y028797D01*
X014180Y028741D01*
X014158Y028683D01*
X014139Y028625D01*
X014124Y028565D01*
X014113Y028504D01*
X014105Y028443D01*
X014101Y028382D01*
X014101Y028320D01*
X014105Y028259D01*
X014113Y028198D01*
X014124Y028137D01*
X014139Y028077D01*
X014158Y028019D01*
X014180Y027961D01*
X014206Y027905D01*
X014235Y027851D01*
X014267Y027799D01*
X014303Y027748D01*
X014342Y027700D01*
X014383Y027655D01*
X014427Y027612D01*
X014474Y027572D01*
X014523Y027535D01*
X014575Y027501D01*
X014628Y027470D01*
X014683Y027443D01*
X014740Y027419D01*
X014798Y027398D01*
X014857Y027381D01*
X014917Y027368D01*
X014978Y027359D01*
X015039Y027353D01*
X015101Y027351D01*
X011351Y029251D02*
X011351Y029951D01*
X011349Y029968D01*
X011345Y029985D01*
X011338Y030001D01*
X011328Y030015D01*
X011315Y030028D01*
X011301Y030038D01*
X011285Y030045D01*
X011268Y030049D01*
X011251Y030051D01*
X011101Y030051D01*
X011051Y030001D01*
X009151Y030001D01*
X009101Y030051D01*
X008951Y030051D01*
X008934Y030049D01*
X008917Y030045D01*
X008901Y030038D01*
X008887Y030028D01*
X008874Y030015D01*
X008864Y030001D01*
X008857Y029985D01*
X008853Y029968D01*
X008851Y029951D01*
X008851Y029251D01*
X008853Y029234D01*
X008857Y029217D01*
X008864Y029201D01*
X008874Y029187D01*
X008887Y029174D01*
X008901Y029164D01*
X008917Y029157D01*
X008934Y029153D01*
X008951Y029151D01*
X009101Y029151D01*
X009151Y029201D01*
X011051Y029201D01*
X011101Y029151D01*
X011251Y029151D01*
X011268Y029153D01*
X011285Y029157D01*
X011301Y029164D01*
X011315Y029174D01*
X011328Y029187D01*
X011338Y029201D01*
X011345Y029217D01*
X011349Y029234D01*
X011351Y029251D01*
X011251Y030401D02*
X011101Y030401D01*
X011051Y030451D01*
X009151Y030451D01*
X009101Y030401D01*
X008951Y030401D01*
X008934Y030403D01*
X008917Y030407D01*
X008901Y030414D01*
X008887Y030424D01*
X008874Y030437D01*
X008864Y030451D01*
X008857Y030467D01*
X008853Y030484D01*
X008851Y030501D01*
X008851Y031201D01*
X008853Y031218D01*
X008857Y031235D01*
X008864Y031251D01*
X008874Y031265D01*
X008887Y031278D01*
X008901Y031288D01*
X008917Y031295D01*
X008934Y031299D01*
X008951Y031301D01*
X009101Y031301D01*
X009151Y031251D01*
X011051Y031251D01*
X011101Y031301D01*
X011251Y031301D01*
X011268Y031299D01*
X011285Y031295D01*
X011301Y031288D01*
X011315Y031278D01*
X011328Y031265D01*
X011338Y031251D01*
X011345Y031235D01*
X011349Y031218D01*
X011351Y031201D01*
X011351Y030501D01*
X011349Y030484D01*
X011345Y030467D01*
X011338Y030451D01*
X011328Y030437D01*
X011315Y030424D01*
X011301Y030414D01*
X011285Y030407D01*
X011268Y030403D01*
X011251Y030401D01*
X011251Y031651D02*
X011101Y031651D01*
X011051Y031701D01*
X009151Y031701D01*
X009101Y031651D01*
X008951Y031651D01*
X008934Y031653D01*
X008917Y031657D01*
X008901Y031664D01*
X008887Y031674D01*
X008874Y031687D01*
X008864Y031701D01*
X008857Y031717D01*
X008853Y031734D01*
X008851Y031751D01*
X008851Y032451D01*
X008853Y032468D01*
X008857Y032485D01*
X008864Y032501D01*
X008874Y032515D01*
X008887Y032528D01*
X008901Y032538D01*
X008917Y032545D01*
X008934Y032549D01*
X008951Y032551D01*
X009101Y032551D01*
X009151Y032501D01*
X011051Y032501D01*
X011101Y032551D01*
X011251Y032551D01*
X011268Y032549D01*
X011285Y032545D01*
X011301Y032538D01*
X011315Y032528D01*
X011328Y032515D01*
X011338Y032501D01*
X011345Y032485D01*
X011349Y032468D01*
X011351Y032451D01*
X011351Y031751D01*
X011349Y031734D01*
X011345Y031717D01*
X011338Y031701D01*
X011328Y031687D01*
X011315Y031674D01*
X011301Y031664D01*
X011285Y031657D01*
X011268Y031653D01*
X011251Y031651D01*
X031101Y029351D02*
X034101Y029351D01*
X034163Y029349D01*
X034224Y029343D01*
X034285Y029334D01*
X034345Y029321D01*
X034404Y029304D01*
X034462Y029283D01*
X034519Y029259D01*
X034574Y029232D01*
X034627Y029201D01*
X034679Y029167D01*
X034728Y029130D01*
X034775Y029090D01*
X034819Y029047D01*
X034860Y029002D01*
X034899Y028954D01*
X034935Y028903D01*
X034967Y028851D01*
X034996Y028797D01*
X035022Y028741D01*
X035044Y028683D01*
X035063Y028625D01*
X035078Y028565D01*
X035089Y028504D01*
X035097Y028443D01*
X035101Y028382D01*
X035101Y028320D01*
X035097Y028259D01*
X035089Y028198D01*
X035078Y028137D01*
X035063Y028077D01*
X035044Y028019D01*
X035022Y027961D01*
X034996Y027905D01*
X034967Y027851D01*
X034935Y027799D01*
X034899Y027748D01*
X034860Y027700D01*
X034819Y027655D01*
X034775Y027612D01*
X034728Y027572D01*
X034679Y027535D01*
X034627Y027501D01*
X034574Y027470D01*
X034519Y027443D01*
X034462Y027419D01*
X034404Y027398D01*
X034345Y027381D01*
X034285Y027368D01*
X034224Y027359D01*
X034163Y027353D01*
X034101Y027351D01*
X031101Y027351D01*
X031039Y027353D01*
X030978Y027359D01*
X030917Y027368D01*
X030857Y027381D01*
X030798Y027398D01*
X030740Y027419D01*
X030683Y027443D01*
X030628Y027470D01*
X030575Y027501D01*
X030523Y027535D01*
X030474Y027572D01*
X030427Y027612D01*
X030383Y027655D01*
X030342Y027700D01*
X030303Y027748D01*
X030267Y027799D01*
X030235Y027851D01*
X030206Y027905D01*
X030180Y027961D01*
X030158Y028019D01*
X030139Y028077D01*
X030124Y028137D01*
X030113Y028198D01*
X030105Y028259D01*
X030101Y028320D01*
X030101Y028382D01*
X030105Y028443D01*
X030113Y028504D01*
X030124Y028565D01*
X030139Y028625D01*
X030158Y028683D01*
X030180Y028741D01*
X030206Y028797D01*
X030235Y028851D01*
X030267Y028903D01*
X030303Y028954D01*
X030342Y029002D01*
X030383Y029047D01*
X030427Y029090D01*
X030474Y029130D01*
X030523Y029167D01*
X030575Y029201D01*
X030628Y029232D01*
X030683Y029259D01*
X030740Y029283D01*
X030798Y029304D01*
X030857Y029321D01*
X030917Y029334D01*
X030978Y029343D01*
X031039Y029349D01*
X031101Y029351D01*
X031701Y028351D02*
X032401Y028351D01*
X032801Y028351D02*
X033501Y028351D01*
X033161Y028221D02*
X033161Y027981D01*
X033001Y027821D01*
X033001Y027731D01*
X033161Y027981D02*
X033321Y027821D01*
X033321Y027731D01*
X036180Y027721D02*
X036821Y028148D01*
X036180Y028148D01*
X036180Y027721D02*
X036821Y027721D01*
X036714Y027503D02*
X036607Y027503D01*
X036501Y027396D01*
X036501Y027076D01*
X036287Y026859D02*
X036714Y026859D01*
X036821Y026752D01*
X036821Y026538D01*
X036714Y026432D01*
X036287Y026859D01*
X036180Y026752D01*
X036180Y026538D01*
X036287Y026432D01*
X036714Y026432D01*
X036714Y026214D02*
X036287Y026214D01*
X036714Y025787D01*
X036821Y025894D01*
X036821Y026107D01*
X036714Y026214D01*
X036714Y025787D02*
X036287Y025787D01*
X036180Y025894D01*
X036180Y026107D01*
X036287Y026214D01*
X036287Y025569D02*
X036180Y025463D01*
X036180Y025249D01*
X036287Y025142D01*
X036287Y024925D02*
X036180Y024818D01*
X036180Y024605D01*
X036287Y024498D01*
X036714Y024498D01*
X036821Y024605D01*
X036821Y024818D01*
X036714Y024925D01*
X036821Y025142D02*
X036394Y025569D01*
X036287Y025569D01*
X036821Y025569D02*
X036821Y025142D01*
X036821Y024280D02*
X036821Y023853D01*
X036394Y024280D01*
X036287Y024280D01*
X036180Y024174D01*
X036180Y023960D01*
X036287Y023853D01*
X036821Y023636D02*
X036821Y023209D01*
X036821Y023422D02*
X036180Y023422D01*
X036394Y023209D01*
X036394Y022991D02*
X036501Y022885D01*
X036501Y022564D01*
X036501Y022347D02*
X036501Y021920D01*
X036180Y022240D01*
X036821Y022240D01*
X036821Y022564D02*
X036180Y022564D01*
X036180Y022885D01*
X036287Y022991D01*
X036394Y022991D01*
X036501Y022885D02*
X036607Y022991D01*
X036714Y022991D01*
X036821Y022885D01*
X036821Y022564D01*
X036821Y021702D02*
X036821Y021275D01*
X036394Y021702D01*
X036287Y021702D01*
X036180Y021596D01*
X036180Y021382D01*
X036287Y021275D01*
X036180Y021058D02*
X036607Y021058D01*
X036821Y020844D01*
X036607Y020631D01*
X036180Y020631D01*
X036180Y027076D02*
X036180Y027396D01*
X036287Y027503D01*
X036394Y027503D01*
X036501Y027396D01*
X036714Y027503D02*
X036821Y027396D01*
X036821Y027076D01*
X036180Y027076D01*
X045631Y031951D02*
X045951Y031951D01*
X046058Y032058D01*
X046058Y032164D01*
X045951Y032271D01*
X045631Y032271D01*
X045951Y032271D02*
X046058Y032378D01*
X046058Y032485D01*
X045951Y032591D01*
X045631Y032591D01*
X045631Y031951D01*
X046275Y031951D02*
X046275Y032591D01*
X046702Y032591D02*
X046702Y031951D01*
X046489Y032164D01*
X046275Y031951D01*
X046920Y031951D02*
X046920Y032591D01*
X047240Y032591D01*
X047347Y032485D01*
X047347Y032271D01*
X047240Y032164D01*
X046920Y032164D01*
X047133Y032164D02*
X047347Y031951D01*
X047564Y032271D02*
X047991Y032271D01*
X048209Y032271D02*
X048422Y032378D01*
X048529Y032378D01*
X048636Y032271D01*
X048636Y032058D01*
X048529Y031951D01*
X048316Y031951D01*
X048209Y032058D01*
X048209Y032271D02*
X048209Y032591D01*
X048636Y032591D01*
X049280Y032591D02*
X048853Y031951D01*
X049498Y032058D02*
X049605Y031951D01*
X049818Y031951D01*
X049925Y032058D01*
X049925Y032164D01*
X049818Y032271D01*
X049498Y032271D01*
X049498Y032058D01*
X049498Y032271D02*
X049711Y032485D01*
X049925Y032591D01*
X050142Y032271D02*
X050569Y032271D01*
X050787Y032058D02*
X050894Y031951D01*
X051107Y031951D01*
X051214Y032058D01*
X051214Y032164D01*
X051107Y032271D01*
X051001Y032271D01*
X051107Y032271D02*
X051214Y032378D01*
X051214Y032485D01*
X051107Y032591D01*
X050894Y032591D01*
X050787Y032485D01*
X051432Y032058D02*
X051538Y032058D01*
X051538Y031951D01*
X051432Y031951D01*
X051432Y032058D01*
X051754Y032058D02*
X051861Y031951D01*
X052074Y031951D01*
X052181Y032058D01*
X052181Y032164D01*
X052074Y032271D01*
X051967Y032271D01*
X052074Y032271D02*
X052181Y032378D01*
X052181Y032485D01*
X052074Y032591D01*
X051861Y032591D01*
X051754Y032485D01*
X052398Y031951D02*
X052825Y032591D01*
X053043Y032591D02*
X053470Y032591D01*
X053470Y032485D01*
X053043Y032058D01*
X053043Y031951D01*
X053687Y032271D02*
X054114Y032271D01*
X054332Y031951D02*
X054652Y031951D01*
X054759Y032058D01*
X054759Y032485D01*
X054652Y032591D01*
X054332Y032591D01*
X054332Y031951D01*
X054976Y031951D02*
X055403Y031951D01*
X055190Y031951D02*
X055190Y032591D01*
X054976Y032378D01*
X055621Y032485D02*
X055728Y032591D01*
X055941Y032591D01*
X056048Y032485D01*
X056048Y032378D01*
X055621Y031951D01*
X056048Y031951D01*
X056265Y032271D02*
X056692Y032271D01*
X056910Y032058D02*
X056910Y032485D01*
X057017Y032591D01*
X057230Y032591D01*
X057337Y032485D01*
X057337Y032058D02*
X057230Y031951D01*
X057017Y031951D01*
X056910Y032058D01*
X033351Y004851D02*
X030351Y004851D01*
X031131Y004471D02*
X031131Y004381D01*
X031291Y004221D01*
X031451Y004381D01*
X031451Y004471D01*
X031291Y004221D02*
X031291Y003981D01*
X030951Y003851D02*
X031651Y003851D01*
X032051Y003851D02*
X032751Y003851D01*
X033351Y002851D02*
X033413Y002853D01*
X033474Y002859D01*
X033535Y002868D01*
X033595Y002881D01*
X033654Y002898D01*
X033712Y002919D01*
X033769Y002943D01*
X033824Y002970D01*
X033877Y003001D01*
X033929Y003035D01*
X033978Y003072D01*
X034025Y003112D01*
X034069Y003155D01*
X034110Y003200D01*
X034149Y003248D01*
X034185Y003299D01*
X034217Y003351D01*
X034246Y003405D01*
X034272Y003461D01*
X034294Y003519D01*
X034313Y003577D01*
X034328Y003637D01*
X034339Y003698D01*
X034347Y003759D01*
X034351Y003820D01*
X034351Y003882D01*
X034347Y003943D01*
X034339Y004004D01*
X034328Y004065D01*
X034313Y004125D01*
X034294Y004183D01*
X034272Y004241D01*
X034246Y004297D01*
X034217Y004351D01*
X034185Y004403D01*
X034149Y004454D01*
X034110Y004502D01*
X034069Y004547D01*
X034025Y004590D01*
X033978Y004630D01*
X033929Y004667D01*
X033877Y004701D01*
X033824Y004732D01*
X033769Y004759D01*
X033712Y004783D01*
X033654Y004804D01*
X033595Y004821D01*
X033535Y004834D01*
X033474Y004843D01*
X033413Y004849D01*
X033351Y004851D01*
X030351Y004851D02*
X030289Y004849D01*
X030228Y004843D01*
X030167Y004834D01*
X030107Y004821D01*
X030048Y004804D01*
X029990Y004783D01*
X029933Y004759D01*
X029878Y004732D01*
X029825Y004701D01*
X029773Y004667D01*
X029724Y004630D01*
X029677Y004590D01*
X029633Y004547D01*
X029592Y004502D01*
X029553Y004454D01*
X029517Y004403D01*
X029485Y004351D01*
X029456Y004297D01*
X029430Y004241D01*
X029408Y004183D01*
X029389Y004125D01*
X029374Y004065D01*
X029363Y004004D01*
X029355Y003943D01*
X029351Y003882D01*
X029351Y003820D01*
X029355Y003759D01*
X029363Y003698D01*
X029374Y003637D01*
X029389Y003577D01*
X029408Y003519D01*
X029430Y003461D01*
X029456Y003405D01*
X029485Y003351D01*
X029517Y003299D01*
X029553Y003248D01*
X029592Y003200D01*
X029633Y003155D01*
X029677Y003112D01*
X029724Y003072D01*
X029773Y003035D01*
X029825Y003001D01*
X029878Y002970D01*
X029933Y002943D01*
X029990Y002919D01*
X030048Y002898D01*
X030107Y002881D01*
X030167Y002868D01*
X030228Y002859D01*
X030289Y002853D01*
X030351Y002851D01*
X033351Y002851D01*
X018101Y002851D02*
X015101Y002851D01*
X015039Y002853D01*
X014978Y002859D01*
X014917Y002868D01*
X014857Y002881D01*
X014798Y002898D01*
X014740Y002919D01*
X014683Y002943D01*
X014628Y002970D01*
X014575Y003001D01*
X014523Y003035D01*
X014474Y003072D01*
X014427Y003112D01*
X014383Y003155D01*
X014342Y003200D01*
X014303Y003248D01*
X014267Y003299D01*
X014235Y003351D01*
X014206Y003405D01*
X014180Y003461D01*
X014158Y003519D01*
X014139Y003577D01*
X014124Y003637D01*
X014113Y003698D01*
X014105Y003759D01*
X014101Y003820D01*
X014101Y003882D01*
X014105Y003943D01*
X014113Y004004D01*
X014124Y004065D01*
X014139Y004125D01*
X014158Y004183D01*
X014180Y004241D01*
X014206Y004297D01*
X014235Y004351D01*
X014267Y004403D01*
X014303Y004454D01*
X014342Y004502D01*
X014383Y004547D01*
X014427Y004590D01*
X014474Y004630D01*
X014523Y004667D01*
X014575Y004701D01*
X014628Y004732D01*
X014683Y004759D01*
X014740Y004783D01*
X014798Y004804D01*
X014857Y004821D01*
X014917Y004834D01*
X014978Y004843D01*
X015039Y004849D01*
X015101Y004851D01*
X018101Y004851D01*
X018163Y004849D01*
X018224Y004843D01*
X018285Y004834D01*
X018345Y004821D01*
X018404Y004804D01*
X018462Y004783D01*
X018519Y004759D01*
X018574Y004732D01*
X018627Y004701D01*
X018679Y004667D01*
X018728Y004630D01*
X018775Y004590D01*
X018819Y004547D01*
X018860Y004502D01*
X018899Y004454D01*
X018935Y004403D01*
X018967Y004351D01*
X018996Y004297D01*
X019022Y004241D01*
X019044Y004183D01*
X019063Y004125D01*
X019078Y004065D01*
X019089Y004004D01*
X019097Y003943D01*
X019101Y003882D01*
X019101Y003820D01*
X019097Y003759D01*
X019089Y003698D01*
X019078Y003637D01*
X019063Y003577D01*
X019044Y003519D01*
X019022Y003461D01*
X018996Y003405D01*
X018967Y003351D01*
X018935Y003299D01*
X018899Y003248D01*
X018860Y003200D01*
X018819Y003155D01*
X018775Y003112D01*
X018728Y003072D01*
X018679Y003035D01*
X018627Y003001D01*
X018574Y002970D01*
X018519Y002943D01*
X018462Y002919D01*
X018404Y002898D01*
X018345Y002881D01*
X018285Y002868D01*
X018224Y002859D01*
X018163Y002853D01*
X018101Y002851D01*
X017321Y003231D02*
X017321Y003321D01*
X017161Y003481D01*
X017001Y003321D01*
X017001Y003231D01*
X017161Y003481D02*
X017161Y003721D01*
X017501Y003851D02*
X016801Y003851D01*
X016401Y003851D02*
X015701Y003851D01*
D13*
X025197Y026371D02*
X025504Y026371D01*
X025581Y026447D01*
X025581Y026601D01*
X025504Y026678D01*
X025197Y026678D01*
X025120Y026601D01*
X025120Y026447D01*
X025197Y026371D01*
X025120Y026831D02*
X025504Y026831D01*
X025581Y026908D01*
X025581Y027061D01*
X025504Y027138D01*
X025120Y027138D01*
X025120Y027291D02*
X025120Y027598D01*
X025120Y027445D02*
X025581Y027445D01*
X025581Y027752D02*
X025120Y027752D01*
X025120Y027982D01*
X025197Y028059D01*
X025351Y028059D01*
X025427Y027982D01*
X025427Y027752D01*
X025504Y028212D02*
X025120Y028212D01*
X025120Y028519D02*
X025504Y028519D01*
X025581Y028442D01*
X025581Y028289D01*
X025504Y028212D01*
X025120Y028673D02*
X025120Y028979D01*
X025120Y028826D02*
X025581Y028826D01*
X025504Y029133D02*
X025581Y029210D01*
X025581Y029363D01*
X025504Y029440D01*
X025427Y029440D01*
X025351Y029363D01*
X025351Y029210D01*
X025274Y029133D01*
X025197Y029133D01*
X025120Y029210D01*
X025120Y029363D01*
X025197Y029440D01*
X019331Y030180D02*
X019331Y030410D01*
X018871Y030410D01*
X018871Y030180D01*
X018947Y030103D01*
X019254Y030103D01*
X019331Y030180D01*
X019331Y030564D02*
X018871Y030564D01*
X019331Y030870D01*
X018871Y030870D01*
X018947Y031024D02*
X018871Y031101D01*
X018871Y031254D01*
X018947Y031331D01*
X019254Y031331D01*
X019331Y031254D01*
X019331Y031101D01*
X019254Y031024D01*
X019101Y031024D02*
X019101Y031177D01*
X019101Y031024D02*
X018947Y031024D01*
X018331Y031101D02*
X018331Y031254D01*
X018254Y031331D01*
X018178Y031331D01*
X018101Y031254D01*
X018101Y031101D01*
X018024Y031024D01*
X017947Y031024D01*
X017871Y031101D01*
X017871Y031254D01*
X017947Y031331D01*
X018254Y031024D02*
X018331Y031101D01*
X018331Y030870D02*
X018331Y030564D01*
X018331Y030717D02*
X017871Y030717D01*
X017871Y030410D02*
X018331Y030410D01*
X018331Y030180D01*
X018254Y030103D01*
X018101Y030103D01*
X018024Y030180D01*
X018024Y030410D01*
X018024Y030257D02*
X017871Y030103D01*
X017871Y029950D02*
X017871Y029720D01*
X017947Y029643D01*
X018024Y029643D01*
X018101Y029720D01*
X018101Y029950D01*
X018331Y029950D02*
X018331Y029720D01*
X018254Y029643D01*
X018178Y029643D01*
X018101Y029720D01*
X017871Y029950D02*
X018331Y029950D01*
X017331Y030026D02*
X017254Y030103D01*
X016947Y030103D01*
X016871Y030026D01*
X016871Y029873D01*
X016947Y029796D01*
X017254Y029796D01*
X017331Y029873D01*
X017331Y030026D01*
X017254Y030257D02*
X017331Y030333D01*
X017331Y030487D01*
X017254Y030564D01*
X017178Y030564D01*
X017101Y030487D01*
X017101Y030333D01*
X017024Y030257D01*
X016947Y030257D01*
X016871Y030333D01*
X016871Y030487D01*
X016947Y030564D01*
X016871Y030717D02*
X016871Y030870D01*
X016871Y030794D02*
X017331Y030794D01*
X017331Y030870D02*
X017331Y030717D01*
X017331Y031024D02*
X016871Y031024D01*
X016871Y031331D02*
X017331Y031331D01*
X017178Y031177D01*
X017331Y031024D01*
X016331Y031101D02*
X016331Y031254D01*
X016254Y031331D01*
X016178Y031331D01*
X016101Y031254D01*
X016101Y031101D01*
X016024Y031024D01*
X015947Y031024D01*
X015871Y031101D01*
X015871Y031254D01*
X015947Y031331D01*
X016254Y031024D02*
X016331Y031101D01*
X016254Y030870D02*
X015947Y030870D01*
X015871Y030794D01*
X015871Y030640D01*
X015947Y030564D01*
X015871Y030410D02*
X015871Y030103D01*
X015871Y029950D02*
X016331Y029950D01*
X016101Y029873D02*
X015871Y029643D01*
X016024Y029950D02*
X016331Y029643D01*
X016331Y030410D02*
X015871Y030410D01*
X016254Y030564D02*
X016331Y030640D01*
X016331Y030794D01*
X016254Y030870D01*
X015411Y030430D02*
X015411Y031351D01*
X015331Y031254D02*
X015331Y031101D01*
X015254Y031024D01*
X015254Y030870D02*
X015178Y030870D01*
X015101Y030794D01*
X015101Y030640D01*
X015024Y030564D01*
X014947Y030564D01*
X014871Y030640D01*
X014871Y030794D01*
X014947Y030870D01*
X014947Y031024D02*
X014871Y031101D01*
X014871Y031254D01*
X014947Y031331D01*
X015254Y031331D01*
X015331Y031254D01*
X015254Y030870D02*
X015331Y030794D01*
X015331Y030640D01*
X015254Y030564D01*
X014331Y030640D02*
X014254Y030564D01*
X013947Y030564D01*
X013871Y030640D01*
X013871Y030794D01*
X013947Y030870D01*
X014254Y030870D01*
X014331Y030794D01*
X014331Y030640D01*
X014254Y030410D02*
X014178Y030410D01*
X014101Y030333D01*
X014101Y030180D01*
X014024Y030103D01*
X013947Y030103D01*
X013871Y030180D01*
X013871Y030333D01*
X013947Y030410D01*
X014254Y030410D02*
X014331Y030333D01*
X014331Y030180D01*
X014254Y030103D01*
X014331Y029950D02*
X014331Y029796D01*
X014331Y029873D02*
X013871Y029873D01*
X013871Y029950D02*
X013871Y029796D01*
X013871Y031024D02*
X014331Y031024D01*
X014178Y031177D01*
X014331Y031331D01*
X013871Y031331D01*
X005467Y029081D02*
X005467Y028621D01*
X005160Y029081D01*
X005160Y028621D01*
X005007Y028621D02*
X004853Y028621D01*
X004930Y028621D02*
X004930Y029081D01*
X004853Y029081D02*
X005007Y029081D01*
X004239Y029081D02*
X004239Y028774D01*
X004086Y028621D01*
X003932Y028774D01*
X003932Y029081D01*
X003779Y029081D02*
X003626Y029004D01*
X003472Y028851D01*
X003702Y028851D01*
X003779Y028774D01*
X003779Y028697D01*
X003702Y028621D01*
X003549Y028621D01*
X003472Y028697D01*
X003472Y028851D01*
X003319Y028928D02*
X003242Y028851D01*
X003319Y028774D01*
X003319Y028697D01*
X003242Y028621D01*
X003088Y028621D01*
X003012Y028697D01*
X003165Y028851D02*
X003242Y028851D01*
X003319Y028928D02*
X003319Y029004D01*
X003242Y029081D01*
X003088Y029081D01*
X003012Y029004D01*
X002858Y028851D02*
X002551Y028851D01*
X002398Y028774D02*
X002398Y029081D01*
X002398Y028774D02*
X002244Y028621D01*
X002091Y028774D01*
X002091Y029081D01*
X001938Y029004D02*
X001938Y028928D01*
X001861Y028851D01*
X001707Y028851D01*
X001631Y028928D01*
X001631Y029004D01*
X001707Y029081D01*
X001861Y029081D01*
X001938Y029004D01*
X001861Y028851D02*
X001938Y028774D01*
X001938Y028697D01*
X001861Y028621D01*
X001707Y028621D01*
X001631Y028697D01*
X001631Y028774D01*
X001707Y028851D01*
X001477Y028621D02*
X001170Y028621D01*
X001324Y028621D02*
X001324Y029081D01*
X001170Y028928D01*
D14*
X001251Y029351D02*
X004378Y029351D01*
X004378Y031551D01*
X007505Y031551D01*
X004378Y031551D02*
X001251Y031551D01*
X001251Y036551D01*
X004378Y036551D01*
X004378Y031551D01*
X001251Y031551D02*
X001251Y029351D01*
X004378Y029351D02*
X007505Y029351D01*
X007505Y036551D01*
X004378Y036551D01*
X012405Y032226D02*
X012405Y031776D01*
X012405Y031926D02*
X012630Y031926D01*
X012705Y032001D01*
X012705Y032151D01*
X012630Y032226D01*
X012405Y032226D01*
X012555Y031926D02*
X012705Y031776D01*
X012865Y032001D02*
X013166Y032001D01*
X013091Y032226D02*
X012865Y032001D01*
X013091Y031776D02*
X013091Y032226D01*
X013091Y030976D02*
X012940Y030976D01*
X012865Y030901D01*
X012705Y030901D02*
X012705Y030751D01*
X012630Y030676D01*
X012405Y030676D01*
X012555Y030676D02*
X012705Y030526D01*
X012865Y030526D02*
X013166Y030826D01*
X013166Y030901D01*
X013091Y030976D01*
X012705Y030901D02*
X012630Y030976D01*
X012405Y030976D01*
X012405Y030526D01*
X012865Y030526D02*
X013166Y030526D01*
X013111Y029926D02*
X012961Y029926D01*
X012886Y029851D01*
X012726Y029851D02*
X012726Y029701D01*
X012651Y029626D01*
X012426Y029626D01*
X012576Y029626D02*
X012726Y029476D01*
X012886Y029551D02*
X012961Y029476D01*
X013111Y029476D01*
X013186Y029551D01*
X013186Y029626D01*
X013111Y029701D01*
X013036Y029701D01*
X013111Y029701D02*
X013186Y029776D01*
X013186Y029851D01*
X013111Y029926D01*
X012726Y029851D02*
X012651Y029926D01*
X012426Y029926D01*
X012426Y029476D01*
X013201Y027101D02*
X036001Y027101D01*
X036001Y005101D01*
X015201Y005101D01*
X013201Y007101D01*
X013201Y027101D01*
X016501Y024601D02*
X016501Y024301D01*
X016501Y024601D02*
X016503Y024648D01*
X016508Y024695D01*
X016518Y024741D01*
X016530Y024786D01*
X016547Y024831D01*
X016566Y024873D01*
X016589Y024914D01*
X016616Y024954D01*
X016645Y024991D01*
X016677Y025025D01*
X016711Y025057D01*
X016748Y025086D01*
X016788Y025113D01*
X016829Y025136D01*
X016871Y025155D01*
X016916Y025172D01*
X016961Y025184D01*
X017007Y025194D01*
X017054Y025199D01*
X017101Y025201D01*
X017501Y025201D01*
X018701Y025201D02*
X024001Y025201D01*
X025201Y025201D02*
X030501Y025201D01*
X031701Y025201D02*
X032101Y025201D01*
X032148Y025199D01*
X032195Y025194D01*
X032241Y025184D01*
X032286Y025172D01*
X032331Y025155D01*
X032373Y025136D01*
X032414Y025113D01*
X032454Y025086D01*
X032491Y025057D01*
X032525Y025025D01*
X032557Y024991D01*
X032586Y024954D01*
X032613Y024914D01*
X032636Y024873D01*
X032655Y024831D01*
X032672Y024786D01*
X032684Y024741D01*
X032694Y024695D01*
X032699Y024648D01*
X032701Y024601D01*
X032701Y024301D01*
X032701Y021501D02*
X032701Y020451D01*
X032701Y017751D02*
X032701Y017451D01*
X032701Y014751D02*
X032701Y014451D01*
X032701Y011651D02*
X032701Y010701D01*
X032701Y007901D02*
X032701Y007601D01*
X032699Y007554D01*
X032694Y007507D01*
X032684Y007461D01*
X032672Y007416D01*
X032655Y007371D01*
X032636Y007329D01*
X032613Y007288D01*
X032586Y007248D01*
X032557Y007211D01*
X032525Y007177D01*
X032491Y007145D01*
X032454Y007116D01*
X032414Y007089D01*
X032373Y007066D01*
X032331Y007047D01*
X032286Y007030D01*
X032241Y007018D01*
X032195Y007008D01*
X032148Y007003D01*
X032101Y007001D01*
X031701Y007001D01*
X030501Y007001D02*
X025201Y007001D01*
X024001Y007001D02*
X018701Y007001D01*
X017501Y007001D02*
X017101Y007001D01*
X017054Y007003D01*
X017007Y007008D01*
X016961Y007018D01*
X016916Y007030D01*
X016871Y007047D01*
X016829Y007066D01*
X016788Y007089D01*
X016748Y007116D01*
X016711Y007145D01*
X016677Y007177D01*
X016645Y007211D01*
X016616Y007248D01*
X016589Y007288D01*
X016566Y007329D01*
X016547Y007371D01*
X016530Y007416D01*
X016518Y007461D01*
X016508Y007507D01*
X016503Y007554D01*
X016501Y007601D01*
X016501Y007901D01*
X016501Y010701D02*
X016501Y011751D01*
X016501Y014451D02*
X016501Y017751D01*
X016501Y020451D02*
X016501Y021501D01*
X007604Y017426D02*
X007604Y026796D01*
X004297Y026796D01*
X004297Y017426D01*
X007604Y017426D01*
X009534Y013366D02*
X009534Y012916D01*
X009834Y012916D01*
X009995Y012916D02*
X010295Y012916D01*
X010455Y012916D02*
X010680Y012916D01*
X010755Y012991D01*
X010755Y013291D01*
X010680Y013366D01*
X010455Y013366D01*
X010455Y012916D01*
X010145Y013141D02*
X009995Y013141D01*
X009995Y013366D02*
X009995Y012916D01*
X009995Y013366D02*
X010295Y013366D01*
X010915Y013216D02*
X011065Y013366D01*
X011065Y012916D01*
X010915Y012916D02*
X011216Y012916D01*
X011826Y011866D02*
X011826Y011565D01*
X011826Y011716D02*
X011375Y011716D01*
X011526Y011565D01*
X011601Y011405D02*
X011676Y011330D01*
X011676Y011105D01*
X011826Y011105D02*
X011375Y011105D01*
X011375Y011330D01*
X011450Y011405D01*
X011601Y011405D01*
X011676Y011255D02*
X011826Y011405D01*
X007246Y011436D02*
X007246Y011736D01*
X007246Y011586D02*
X006795Y011586D01*
X006946Y011436D01*
X006870Y011276D02*
X006795Y011201D01*
X006795Y011051D01*
X006870Y010976D01*
X007171Y010976D01*
X007246Y011051D01*
X007246Y011201D01*
X007171Y011276D01*
X019205Y004001D02*
X019205Y003701D01*
X019280Y003626D01*
X019430Y003626D01*
X019505Y003701D01*
X019665Y003626D02*
X019966Y003926D01*
X019966Y004001D01*
X019891Y004076D01*
X019740Y004076D01*
X019665Y004001D01*
X019505Y004001D02*
X019430Y004076D01*
X019280Y004076D01*
X019205Y004001D01*
X019665Y003626D02*
X019966Y003626D01*
X021941Y002891D02*
X023171Y003551D01*
X023191Y003561D02*
X023191Y002891D01*
X023321Y002891D02*
X023321Y003081D01*
X024551Y003081D01*
X024561Y003081D01*
X024570Y003081D02*
X024584Y003084D01*
X024597Y003090D01*
X024608Y003099D01*
X024618Y003110D01*
X024625Y003122D01*
X024629Y003136D01*
X024630Y003150D01*
X024631Y003151D02*
X024631Y003141D01*
X024631Y003151D02*
X024631Y003491D01*
X024630Y003490D02*
X024627Y003504D01*
X024621Y003517D01*
X024612Y003528D01*
X024601Y003538D01*
X024589Y003545D01*
X024575Y003549D01*
X024561Y003550D01*
X024561Y003551D02*
X023321Y003551D01*
X023321Y003081D01*
X023171Y003081D02*
X022301Y003081D01*
X024551Y003080D02*
X024565Y003079D01*
X024579Y003075D01*
X024591Y003068D01*
X024602Y003058D01*
X024611Y003047D01*
X024617Y003034D01*
X024620Y003020D01*
X024621Y003031D02*
X024621Y002891D01*
X024791Y002911D02*
X026071Y003551D01*
X026221Y003551D02*
X027461Y003551D01*
X027461Y003550D02*
X027475Y003549D01*
X027489Y003545D01*
X027501Y003538D01*
X027512Y003528D01*
X027521Y003517D01*
X027527Y003504D01*
X027530Y003490D01*
X027531Y003491D02*
X027531Y003151D01*
X027531Y003141D01*
X027530Y003150D02*
X027529Y003136D01*
X027525Y003122D01*
X027518Y003110D01*
X027508Y003099D01*
X027497Y003090D01*
X027484Y003084D01*
X027470Y003081D01*
X027461Y003081D02*
X026221Y003081D01*
X026221Y002891D01*
X026221Y003081D02*
X026221Y003551D01*
X024791Y003561D02*
X024791Y002911D01*
X028376Y003701D02*
X028451Y003626D01*
X028601Y003626D01*
X028676Y003701D01*
X028836Y003851D02*
X029136Y003851D01*
X029061Y003626D02*
X029061Y004076D01*
X028836Y003851D01*
X028676Y004001D02*
X028601Y004076D01*
X028451Y004076D01*
X028376Y004001D01*
X028376Y003701D01*
X038595Y011855D02*
X056595Y011855D01*
X056655Y011857D01*
X056716Y011862D01*
X056775Y011871D01*
X056834Y011884D01*
X056893Y011900D01*
X056950Y011920D01*
X057005Y011943D01*
X057060Y011970D01*
X057112Y011999D01*
X057163Y012032D01*
X057212Y012068D01*
X057258Y012106D01*
X057302Y012148D01*
X057344Y012192D01*
X057382Y012238D01*
X057418Y012287D01*
X057451Y012338D01*
X057480Y012390D01*
X057507Y012445D01*
X057530Y012500D01*
X057550Y012557D01*
X057566Y012616D01*
X057579Y012675D01*
X057588Y012734D01*
X057593Y012795D01*
X057595Y012855D01*
X057595Y030855D01*
X057593Y030915D01*
X057588Y030976D01*
X057579Y031035D01*
X057566Y031094D01*
X057550Y031153D01*
X057530Y031210D01*
X057507Y031265D01*
X057480Y031320D01*
X057451Y031372D01*
X057418Y031423D01*
X057382Y031472D01*
X057344Y031518D01*
X057302Y031562D01*
X057258Y031604D01*
X057212Y031642D01*
X057163Y031678D01*
X057112Y031711D01*
X057060Y031740D01*
X057005Y031767D01*
X056950Y031790D01*
X056893Y031810D01*
X056834Y031826D01*
X056775Y031839D01*
X056716Y031848D01*
X056655Y031853D01*
X056595Y031855D01*
X038595Y031855D01*
X038535Y031853D01*
X038474Y031848D01*
X038415Y031839D01*
X038356Y031826D01*
X038297Y031810D01*
X038240Y031790D01*
X038185Y031767D01*
X038130Y031740D01*
X038078Y031711D01*
X038027Y031678D01*
X037978Y031642D01*
X037932Y031604D01*
X037888Y031562D01*
X037846Y031518D01*
X037808Y031472D01*
X037772Y031423D01*
X037739Y031372D01*
X037710Y031320D01*
X037683Y031265D01*
X037660Y031210D01*
X037640Y031153D01*
X037624Y031094D01*
X037611Y031035D01*
X037602Y030976D01*
X037597Y030915D01*
X037595Y030855D01*
X037595Y012855D01*
X037597Y012795D01*
X037602Y012734D01*
X037611Y012675D01*
X037624Y012616D01*
X037640Y012557D01*
X037660Y012500D01*
X037683Y012445D01*
X037710Y012390D01*
X037739Y012338D01*
X037772Y012287D01*
X037808Y012238D01*
X037846Y012192D01*
X037888Y012148D01*
X037932Y012106D01*
X037978Y012068D01*
X038027Y012032D01*
X038078Y011999D01*
X038130Y011970D01*
X038185Y011943D01*
X038240Y011920D01*
X038297Y011900D01*
X038356Y011884D01*
X038415Y011871D01*
X038474Y011862D01*
X038535Y011857D01*
X038595Y011855D01*
X019886Y027451D02*
X019811Y027376D01*
X019661Y027376D01*
X019586Y027451D01*
X019426Y027451D02*
X019351Y027376D01*
X019201Y027376D01*
X019126Y027451D01*
X019126Y027751D01*
X019201Y027826D01*
X019351Y027826D01*
X019426Y027751D01*
X019586Y027751D02*
X019661Y027826D01*
X019811Y027826D01*
X019886Y027751D01*
X019886Y027676D01*
X019811Y027601D01*
X019886Y027526D01*
X019886Y027451D01*
X019811Y027601D02*
X019736Y027601D01*
X028955Y028201D02*
X029030Y028126D01*
X029180Y028126D01*
X029255Y028201D01*
X029415Y028201D02*
X029490Y028126D01*
X029641Y028126D01*
X029716Y028201D01*
X029716Y028351D01*
X029641Y028426D01*
X029566Y028426D01*
X029415Y028351D01*
X029415Y028576D01*
X029716Y028576D01*
X029255Y028501D02*
X029180Y028576D01*
X029030Y028576D01*
X028955Y028501D01*
X028955Y028201D01*
D15*
X012351Y013771D03*
X012351Y010931D03*
D16*
X011101Y015851D02*
X009601Y015851D01*
D17*
X009547Y015808D01*
X009495Y015762D01*
X009446Y015713D01*
X009399Y015661D01*
X009356Y015607D01*
X009315Y015551D01*
X009278Y015492D01*
X009244Y015432D01*
X009214Y015369D01*
X009187Y015306D01*
X009163Y015240D01*
X009143Y015174D01*
X009127Y015106D01*
X009115Y015038D01*
X009107Y014969D01*
X009102Y014900D01*
X009101Y014830D01*
X009104Y014761D01*
X009111Y014692D01*
X009122Y014624D01*
X009136Y014556D01*
X009155Y014489D01*
X009177Y014423D01*
X009202Y014358D01*
X009231Y014295D01*
X009264Y014234D01*
X009300Y014175D01*
X009339Y014118D01*
X009381Y014062D01*
X009426Y014010D01*
X009474Y013960D01*
X009525Y013913D01*
X009579Y013868D01*
X009634Y013827D01*
X009692Y013789D01*
X009752Y013754D01*
X009814Y013722D01*
X009877Y013694D01*
X009942Y013670D01*
X010008Y013649D01*
X010076Y013632D01*
X010144Y013618D01*
X010213Y013609D01*
X010282Y013603D01*
X010351Y013601D01*
X010420Y013603D01*
X010489Y013609D01*
X010558Y013618D01*
X010626Y013632D01*
X010694Y013649D01*
X010760Y013670D01*
X010825Y013694D01*
X010888Y013722D01*
X010950Y013754D01*
X011010Y013789D01*
X011068Y013827D01*
X011123Y013868D01*
X011177Y013913D01*
X011228Y013960D01*
X011276Y014010D01*
X011321Y014062D01*
X011363Y014118D01*
X011402Y014175D01*
X011438Y014234D01*
X011471Y014295D01*
X011500Y014358D01*
X011525Y014423D01*
X011547Y014489D01*
X011566Y014556D01*
X011580Y014624D01*
X011591Y014692D01*
X011598Y014761D01*
X011601Y014830D01*
X011600Y014900D01*
X011595Y014969D01*
X011587Y015038D01*
X011575Y015106D01*
X011559Y015174D01*
X011539Y015240D01*
X011515Y015306D01*
X011488Y015369D01*
X011458Y015432D01*
X011424Y015492D01*
X011387Y015551D01*
X011346Y015607D01*
X011303Y015661D01*
X011256Y015713D01*
X011207Y015762D01*
X011155Y015808D01*
X011101Y015851D01*
D18*
X008351Y009326D03*
D19*
X016401Y004351D02*
X016401Y003851D01*
X016401Y003351D01*
X016801Y003351D02*
X016801Y003851D01*
X016801Y004351D01*
X031651Y004351D02*
X031651Y003851D01*
X031651Y003351D01*
X032051Y003351D02*
X032051Y003851D01*
X032051Y004351D01*
X032401Y027851D02*
X032401Y028351D01*
X032401Y028851D01*
X032801Y028851D02*
X032801Y028351D01*
X032801Y027851D01*
X016801Y027851D02*
X016801Y028351D01*
X016801Y028851D01*
X016401Y028851D02*
X016401Y028351D01*
X016401Y027851D01*
D20*
X002851Y010101D02*
X002851Y006101D01*
X001701Y006101D02*
X001701Y010101D01*
X021821Y003151D02*
X021901Y003131D01*
X021911Y003181D01*
X021991Y003111D01*
X021951Y003271D01*
X022021Y003241D01*
X022071Y003351D01*
X022121Y003241D01*
X022181Y003271D01*
X022141Y003111D01*
X021921Y002971D02*
X021801Y003061D01*
X021851Y003081D01*
X021821Y003151D01*
X021891Y002731D02*
X021951Y002731D01*
X021981Y002701D01*
X021981Y002611D01*
X021891Y002611D01*
X021861Y002641D01*
X021891Y002671D01*
X021981Y002671D01*
X022045Y002641D02*
X022075Y002611D01*
X022165Y002611D01*
X022165Y002731D01*
X022229Y002731D02*
X022289Y002731D01*
X022259Y002761D02*
X022259Y002641D01*
X022289Y002611D01*
X022352Y002641D02*
X022382Y002611D01*
X022442Y002611D01*
X022472Y002641D01*
X022472Y002701D01*
X022442Y002731D01*
X022382Y002731D01*
X022352Y002701D01*
X022352Y002641D01*
X022536Y002611D02*
X022536Y002731D01*
X022626Y002731D01*
X022656Y002701D01*
X022656Y002611D01*
X022720Y002641D02*
X022750Y002611D01*
X022810Y002611D01*
X022840Y002641D01*
X022840Y002701D01*
X022810Y002731D01*
X022750Y002731D01*
X022720Y002701D01*
X022720Y002641D01*
X022904Y002611D02*
X022904Y002731D01*
X022934Y002731D01*
X022964Y002701D01*
X022994Y002731D01*
X023024Y002701D01*
X023024Y002611D01*
X022964Y002611D02*
X022964Y002701D01*
X023088Y002701D02*
X023088Y002641D01*
X023118Y002611D01*
X023178Y002611D01*
X023208Y002641D01*
X023208Y002701D01*
X023178Y002731D01*
X023118Y002731D01*
X023088Y002701D01*
X023272Y002731D02*
X023272Y002641D01*
X023302Y002611D01*
X023393Y002611D01*
X023393Y002731D01*
X023457Y002701D02*
X023487Y002731D01*
X023577Y002731D01*
X023547Y002671D02*
X023487Y002671D01*
X023457Y002701D01*
X023457Y002611D02*
X023547Y002611D01*
X023577Y002641D01*
X023547Y002671D01*
X023825Y002671D02*
X023885Y002731D01*
X023915Y002731D01*
X023978Y002701D02*
X023978Y002641D01*
X024008Y002611D01*
X024068Y002611D01*
X024098Y002641D01*
X024098Y002701D01*
X024068Y002731D01*
X024008Y002731D01*
X023978Y002701D01*
X023825Y002731D02*
X023825Y002611D01*
X024162Y002611D02*
X024252Y002611D01*
X024283Y002641D01*
X024283Y002701D01*
X024252Y002731D01*
X024162Y002731D01*
X024162Y002791D02*
X024162Y002611D01*
X024347Y002641D02*
X024377Y002611D01*
X024437Y002611D01*
X024467Y002641D01*
X024467Y002701D01*
X024437Y002731D01*
X024377Y002731D01*
X024347Y002701D01*
X024347Y002641D01*
X024531Y002731D02*
X024591Y002731D01*
X024561Y002761D02*
X024561Y002641D01*
X024591Y002611D01*
X024653Y002611D02*
X024714Y002611D01*
X024683Y002611D02*
X024683Y002731D01*
X024653Y002731D01*
X024683Y002791D02*
X024683Y002821D01*
X024776Y002701D02*
X024776Y002641D01*
X024806Y002611D01*
X024896Y002611D01*
X024896Y002731D02*
X024806Y002731D01*
X024776Y002701D01*
X025144Y002731D02*
X025205Y002611D01*
X025265Y002731D01*
X025329Y002701D02*
X025359Y002731D01*
X025419Y002731D01*
X025449Y002701D01*
X025449Y002671D01*
X025329Y002671D01*
X025329Y002641D02*
X025329Y002701D01*
X025329Y002641D02*
X025359Y002611D01*
X025419Y002611D01*
X025513Y002611D02*
X025513Y002791D01*
X025543Y002731D02*
X025603Y002731D01*
X025633Y002701D01*
X025633Y002611D01*
X025697Y002611D02*
X025757Y002611D01*
X025727Y002611D02*
X025727Y002731D01*
X025697Y002731D01*
X025727Y002791D02*
X025727Y002821D01*
X025820Y002701D02*
X025820Y002641D01*
X025850Y002611D01*
X025940Y002611D01*
X026004Y002611D02*
X026064Y002611D01*
X026034Y002611D02*
X026034Y002791D01*
X026004Y002791D01*
X025940Y002731D02*
X025850Y002731D01*
X025820Y002701D01*
X025543Y002731D02*
X025513Y002701D01*
X026127Y002701D02*
X026157Y002731D01*
X026217Y002731D01*
X026247Y002701D01*
X026247Y002671D01*
X026127Y002671D01*
X026127Y002641D02*
X026127Y002701D01*
X026127Y002641D02*
X026157Y002611D01*
X026217Y002611D01*
X026495Y002611D02*
X026585Y002611D01*
X026615Y002641D01*
X026615Y002701D01*
X026585Y002731D01*
X026495Y002731D01*
X026495Y002551D01*
X026679Y002611D02*
X026679Y002731D01*
X026739Y002731D02*
X026769Y002731D01*
X026739Y002731D02*
X026679Y002671D01*
X026832Y002701D02*
X026832Y002641D01*
X026862Y002611D01*
X026922Y002611D01*
X026952Y002641D01*
X026952Y002701D01*
X026922Y002731D01*
X026862Y002731D01*
X026832Y002701D01*
X027016Y002551D02*
X027046Y002551D01*
X027077Y002581D01*
X027077Y002731D01*
X027077Y002791D02*
X027077Y002821D01*
X027169Y002731D02*
X027229Y002731D01*
X027259Y002701D01*
X027259Y002671D01*
X027139Y002671D01*
X027139Y002701D02*
X027169Y002731D01*
X027139Y002701D02*
X027139Y002641D01*
X027169Y002611D01*
X027229Y002611D01*
X027323Y002641D02*
X027353Y002611D01*
X027443Y002611D01*
X027538Y002641D02*
X027568Y002611D01*
X027538Y002641D02*
X027538Y002761D01*
X027508Y002731D02*
X027568Y002731D01*
X027443Y002731D02*
X027353Y002731D01*
X027323Y002701D01*
X027323Y002641D01*
X022045Y002731D02*
X022045Y002641D01*
D21*
X004766Y008347D02*
X004135Y008347D01*
X004135Y008767D01*
X004345Y008991D02*
X004135Y009201D01*
X004766Y009201D01*
X004766Y008991D02*
X004766Y009412D01*
X004451Y008557D02*
X004451Y008347D01*
X011702Y021936D02*
X011597Y022041D01*
X011702Y021936D02*
X011912Y021936D01*
X012017Y022041D01*
X012017Y022146D01*
X011912Y022251D01*
X011702Y022251D01*
X011597Y022356D01*
X011597Y022461D01*
X011702Y022566D01*
X011912Y022566D01*
X012017Y022461D01*
X012241Y022356D02*
X012451Y022566D01*
X012451Y021936D01*
X012241Y021936D02*
X012662Y021936D01*
D22*
X003626Y014876D03*
X002076Y014876D03*
X002076Y001326D03*
X003626Y001326D03*
D23*
X003726Y005301D03*
X001976Y005301D03*
X001976Y010901D03*
X003726Y010901D03*
D24*
X003601Y008101D03*
X003601Y008101D03*
X002101Y008101D03*
X002101Y008101D03*
D25*
X002851Y012026D03*
X002851Y004176D03*
D26*
X002851Y005926D03*
X002851Y010276D03*
D27*
X008681Y029601D03*
X008681Y030851D03*
X008681Y032101D03*
X011521Y032101D03*
X011521Y030851D03*
X011521Y029601D03*
M02*
