G75*
G70*
%OFA0B0*%
%FSLAX24Y24*%
%IPPOS*%
%LPD*%
%AMOC8*
5,1,8,0,0,1.08239X$1,22.5*
%
%ADD10C,0.0050*%
%ADD11C,0.0060*%
%ADD12C,0.0020*%
D10*
X013201Y007101D02*
X015201Y005101D01*
X036001Y005101D01*
X036001Y027101D01*
X013201Y027101D01*
X013201Y007101D01*
X016501Y007601D02*
X016501Y007901D01*
X016501Y007601D02*
X016503Y007554D01*
X016508Y007507D01*
X016518Y007461D01*
X016530Y007416D01*
X016547Y007371D01*
X016566Y007329D01*
X016589Y007288D01*
X016616Y007248D01*
X016645Y007211D01*
X016677Y007177D01*
X016711Y007145D01*
X016748Y007116D01*
X016788Y007089D01*
X016829Y007066D01*
X016871Y007047D01*
X016916Y007030D01*
X016961Y007018D01*
X017007Y007008D01*
X017054Y007003D01*
X017101Y007001D01*
X017501Y007001D01*
X018701Y007001D02*
X024001Y007001D01*
X025201Y007001D02*
X030501Y007001D01*
X031701Y007001D02*
X032101Y007001D01*
X032148Y007003D01*
X032195Y007008D01*
X032241Y007018D01*
X032286Y007030D01*
X032331Y007047D01*
X032373Y007066D01*
X032414Y007089D01*
X032454Y007116D01*
X032491Y007145D01*
X032525Y007177D01*
X032557Y007211D01*
X032586Y007248D01*
X032613Y007288D01*
X032636Y007329D01*
X032655Y007371D01*
X032672Y007416D01*
X032684Y007461D01*
X032694Y007507D01*
X032699Y007554D01*
X032701Y007601D01*
X032701Y007901D01*
X032701Y010701D02*
X032701Y011651D01*
X032701Y014451D02*
X032701Y014751D01*
X032701Y017451D02*
X032701Y017751D01*
X032701Y020451D02*
X032701Y021501D01*
X032701Y024301D02*
X032701Y024601D01*
X032699Y024648D01*
X032694Y024695D01*
X032684Y024741D01*
X032672Y024786D01*
X032655Y024831D01*
X032636Y024873D01*
X032613Y024914D01*
X032586Y024954D01*
X032557Y024991D01*
X032525Y025025D01*
X032491Y025057D01*
X032454Y025086D01*
X032414Y025113D01*
X032373Y025136D01*
X032331Y025155D01*
X032286Y025172D01*
X032241Y025184D01*
X032195Y025194D01*
X032148Y025199D01*
X032101Y025201D01*
X031701Y025201D01*
X030501Y025201D02*
X025201Y025201D01*
X024001Y025201D02*
X018701Y025201D01*
X017501Y025201D02*
X017101Y025201D01*
X017054Y025199D01*
X017007Y025194D01*
X016961Y025184D01*
X016916Y025172D01*
X016871Y025155D01*
X016829Y025136D01*
X016788Y025113D01*
X016748Y025086D01*
X016711Y025057D01*
X016677Y025025D01*
X016645Y024991D01*
X016616Y024954D01*
X016589Y024914D01*
X016566Y024873D01*
X016547Y024831D01*
X016530Y024786D01*
X016518Y024741D01*
X016508Y024695D01*
X016503Y024648D01*
X016501Y024601D01*
X016501Y024301D01*
X016501Y021501D02*
X016501Y020451D01*
X016501Y017751D02*
X016501Y014451D01*
X016501Y011751D02*
X016501Y010701D01*
X037595Y012855D02*
X037595Y030855D01*
X037597Y030915D01*
X037602Y030976D01*
X037611Y031035D01*
X037624Y031094D01*
X037640Y031153D01*
X037660Y031210D01*
X037683Y031265D01*
X037710Y031320D01*
X037739Y031372D01*
X037772Y031423D01*
X037808Y031472D01*
X037846Y031518D01*
X037888Y031562D01*
X037932Y031604D01*
X037978Y031642D01*
X038027Y031678D01*
X038078Y031711D01*
X038130Y031740D01*
X038185Y031767D01*
X038240Y031790D01*
X038297Y031810D01*
X038356Y031826D01*
X038415Y031839D01*
X038474Y031848D01*
X038535Y031853D01*
X038595Y031855D01*
X056595Y031855D01*
X056655Y031853D01*
X056716Y031848D01*
X056775Y031839D01*
X056834Y031826D01*
X056893Y031810D01*
X056950Y031790D01*
X057005Y031767D01*
X057060Y031740D01*
X057112Y031711D01*
X057163Y031678D01*
X057212Y031642D01*
X057258Y031604D01*
X057302Y031562D01*
X057344Y031518D01*
X057382Y031472D01*
X057418Y031423D01*
X057451Y031372D01*
X057480Y031320D01*
X057507Y031265D01*
X057530Y031210D01*
X057550Y031153D01*
X057566Y031094D01*
X057579Y031035D01*
X057588Y030976D01*
X057593Y030915D01*
X057595Y030855D01*
X057595Y012855D01*
X057593Y012795D01*
X057588Y012734D01*
X057579Y012675D01*
X057566Y012616D01*
X057550Y012557D01*
X057530Y012500D01*
X057507Y012445D01*
X057480Y012390D01*
X057451Y012338D01*
X057418Y012287D01*
X057382Y012238D01*
X057344Y012192D01*
X057302Y012148D01*
X057258Y012106D01*
X057212Y012068D01*
X057163Y012032D01*
X057112Y011999D01*
X057060Y011970D01*
X057005Y011943D01*
X056950Y011920D01*
X056893Y011900D01*
X056834Y011884D01*
X056775Y011871D01*
X056716Y011862D01*
X056655Y011857D01*
X056595Y011855D01*
X038595Y011855D01*
X038535Y011857D01*
X038474Y011862D01*
X038415Y011871D01*
X038356Y011884D01*
X038297Y011900D01*
X038240Y011920D01*
X038185Y011943D01*
X038130Y011970D01*
X038078Y011999D01*
X038027Y012032D01*
X037978Y012068D01*
X037932Y012106D01*
X037888Y012148D01*
X037846Y012192D01*
X037808Y012238D01*
X037772Y012287D01*
X037739Y012338D01*
X037710Y012390D01*
X037683Y012445D01*
X037660Y012500D01*
X037640Y012557D01*
X037624Y012616D01*
X037611Y012675D01*
X037602Y012734D01*
X037597Y012795D01*
X037595Y012855D01*
D11*
X023603Y029452D02*
X020599Y029452D01*
X020599Y031250D01*
X023603Y031250D01*
X023603Y029452D01*
X020769Y030831D02*
X020771Y030857D01*
X020777Y030883D01*
X020786Y030907D01*
X020799Y030930D01*
X020815Y030951D01*
X020834Y030969D01*
X020855Y030985D01*
X020879Y030997D01*
X020903Y031005D01*
X020929Y031010D01*
X020956Y031011D01*
X020982Y031008D01*
X021007Y031001D01*
X021031Y030991D01*
X021054Y030977D01*
X021074Y030961D01*
X021091Y030941D01*
X021106Y030919D01*
X021117Y030895D01*
X021125Y030870D01*
X021129Y030844D01*
X021129Y030818D01*
X021125Y030792D01*
X021117Y030767D01*
X021106Y030743D01*
X021091Y030721D01*
X021074Y030701D01*
X021054Y030685D01*
X021031Y030671D01*
X021007Y030661D01*
X020982Y030654D01*
X020956Y030651D01*
X020929Y030652D01*
X020903Y030657D01*
X020879Y030665D01*
X020855Y030677D01*
X020834Y030693D01*
X020815Y030711D01*
X020799Y030732D01*
X020786Y030755D01*
X020777Y030779D01*
X020771Y030805D01*
X020769Y030831D01*
D12*
X020689Y031160D02*
X020689Y029542D01*
X023513Y029542D01*
X023513Y031160D01*
X020689Y031160D01*
M02*
