G75*
G70*
%OFA0B0*%
%FSLAX24Y24*%
%IPPOS*%
%LPD*%
%AMOC8*
5,1,8,0,0,1.08239X$1,22.5*
%
%ADD10C,0.0060*%
%ADD11C,0.0040*%
%ADD12C,0.0050*%
%ADD13R,0.0240X0.0340*%
%ADD14C,0.0080*%
%ADD15C,0.0100*%
%ADD16R,0.0900X0.0250*%
%ADD17C,0.0160*%
%ADD18C,0.0020*%
%ADD19R,0.0450X0.0450*%
%ADD20R,0.0250X0.1100*%
%ADD21R,0.0200X0.4000*%
%ADD22R,0.0700X0.0150*%
%ADD23R,0.2500X0.0350*%
D10*
X013601Y001601D02*
X016601Y001601D01*
X016663Y001603D01*
X016724Y001609D01*
X016785Y001618D01*
X016845Y001631D01*
X016904Y001648D01*
X016962Y001669D01*
X017019Y001693D01*
X017074Y001720D01*
X017127Y001751D01*
X017179Y001785D01*
X017228Y001822D01*
X017275Y001862D01*
X017319Y001905D01*
X017360Y001950D01*
X017399Y001998D01*
X017435Y002049D01*
X017467Y002101D01*
X017496Y002155D01*
X017522Y002211D01*
X017544Y002269D01*
X017563Y002327D01*
X017578Y002387D01*
X017589Y002448D01*
X017597Y002509D01*
X017601Y002570D01*
X017601Y002632D01*
X017597Y002693D01*
X017589Y002754D01*
X017578Y002815D01*
X017563Y002875D01*
X017544Y002933D01*
X017522Y002991D01*
X017496Y003047D01*
X017467Y003101D01*
X017435Y003153D01*
X017399Y003204D01*
X017360Y003252D01*
X017319Y003297D01*
X017275Y003340D01*
X017228Y003380D01*
X017179Y003417D01*
X017127Y003451D01*
X017074Y003482D01*
X017019Y003509D01*
X016962Y003533D01*
X016904Y003554D01*
X016845Y003571D01*
X016785Y003584D01*
X016724Y003593D01*
X016663Y003599D01*
X016601Y003601D01*
X013601Y003601D01*
X014381Y003221D02*
X014381Y003131D01*
X014541Y002971D01*
X014701Y003131D01*
X014701Y003221D01*
X014541Y002971D02*
X014541Y002731D01*
X014201Y002601D02*
X014901Y002601D01*
X015301Y002601D02*
X016001Y002601D01*
X013601Y003601D02*
X013539Y003599D01*
X013478Y003593D01*
X013417Y003584D01*
X013357Y003571D01*
X013298Y003554D01*
X013240Y003533D01*
X013183Y003509D01*
X013128Y003482D01*
X013075Y003451D01*
X013023Y003417D01*
X012974Y003380D01*
X012927Y003340D01*
X012883Y003297D01*
X012842Y003252D01*
X012803Y003204D01*
X012767Y003153D01*
X012735Y003101D01*
X012706Y003047D01*
X012680Y002991D01*
X012658Y002933D01*
X012639Y002875D01*
X012624Y002815D01*
X012613Y002754D01*
X012605Y002693D01*
X012601Y002632D01*
X012601Y002570D01*
X012605Y002509D01*
X012613Y002448D01*
X012624Y002387D01*
X012639Y002327D01*
X012658Y002269D01*
X012680Y002211D01*
X012706Y002155D01*
X012735Y002101D01*
X012767Y002049D01*
X012803Y001998D01*
X012842Y001950D01*
X012883Y001905D01*
X012927Y001862D01*
X012974Y001822D01*
X013023Y001785D01*
X013075Y001751D01*
X013128Y001720D01*
X013183Y001693D01*
X013240Y001669D01*
X013298Y001648D01*
X013357Y001631D01*
X013417Y001618D01*
X013478Y001609D01*
X013539Y001603D01*
X013601Y001601D01*
X009101Y008601D02*
X009103Y008664D01*
X009109Y008726D01*
X009119Y008788D01*
X009132Y008850D01*
X009150Y008910D01*
X009171Y008969D01*
X009196Y009027D01*
X009225Y009083D01*
X009257Y009137D01*
X009292Y009189D01*
X009330Y009238D01*
X009372Y009286D01*
X009416Y009330D01*
X009464Y009372D01*
X009513Y009410D01*
X009565Y009445D01*
X009619Y009477D01*
X009675Y009506D01*
X009733Y009531D01*
X009792Y009552D01*
X009852Y009570D01*
X009914Y009583D01*
X009976Y009593D01*
X010038Y009599D01*
X010101Y009601D01*
X010164Y009599D01*
X010226Y009593D01*
X010288Y009583D01*
X010350Y009570D01*
X010410Y009552D01*
X010469Y009531D01*
X010527Y009506D01*
X010583Y009477D01*
X010637Y009445D01*
X010689Y009410D01*
X010738Y009372D01*
X010786Y009330D01*
X010830Y009286D01*
X010872Y009238D01*
X010910Y009189D01*
X010945Y009137D01*
X010977Y009083D01*
X011006Y009027D01*
X011031Y008969D01*
X011052Y008910D01*
X011070Y008850D01*
X011083Y008788D01*
X011093Y008726D01*
X011099Y008664D01*
X011101Y008601D01*
X011099Y008538D01*
X011093Y008476D01*
X011083Y008414D01*
X011070Y008352D01*
X011052Y008292D01*
X011031Y008233D01*
X011006Y008175D01*
X010977Y008119D01*
X010945Y008065D01*
X010910Y008013D01*
X010872Y007964D01*
X010830Y007916D01*
X010786Y007872D01*
X010738Y007830D01*
X010689Y007792D01*
X010637Y007757D01*
X010583Y007725D01*
X010527Y007696D01*
X010469Y007671D01*
X010410Y007650D01*
X010350Y007632D01*
X010288Y007619D01*
X010226Y007609D01*
X010164Y007603D01*
X010101Y007601D01*
X010038Y007603D01*
X009976Y007609D01*
X009914Y007619D01*
X009852Y007632D01*
X009792Y007650D01*
X009733Y007671D01*
X009675Y007696D01*
X009619Y007725D01*
X009565Y007757D01*
X009513Y007792D01*
X009464Y007830D01*
X009416Y007872D01*
X009372Y007916D01*
X009330Y007964D01*
X009292Y008013D01*
X009257Y008065D01*
X009225Y008119D01*
X009196Y008175D01*
X009171Y008233D01*
X009150Y008292D01*
X009132Y008352D01*
X009119Y008414D01*
X009109Y008476D01*
X009103Y008538D01*
X009101Y008601D01*
X008931Y012471D02*
X006271Y012471D01*
X006021Y012721D01*
X006021Y014121D01*
X005901Y014201D01*
X005901Y016001D01*
X006031Y016081D01*
X006031Y017481D01*
X006281Y017731D01*
X008921Y017731D01*
X009171Y017481D01*
X009171Y016091D01*
X009301Y016001D01*
X009301Y014201D01*
X009181Y014121D01*
X009181Y012721D01*
X008931Y012471D01*
X010001Y013001D02*
X010001Y013251D01*
X010051Y013301D01*
X010051Y015901D01*
X010001Y015951D01*
X010001Y016201D01*
X010003Y016218D01*
X010007Y016235D01*
X010014Y016251D01*
X010024Y016265D01*
X010037Y016278D01*
X010051Y016288D01*
X010067Y016295D01*
X010084Y016299D01*
X010101Y016301D01*
X011101Y016301D01*
X011118Y016299D01*
X011135Y016295D01*
X011151Y016288D01*
X011165Y016278D01*
X011178Y016265D01*
X011188Y016251D01*
X011195Y016235D01*
X011199Y016218D01*
X011201Y016201D01*
X011201Y015951D01*
X011151Y015901D01*
X011151Y013301D01*
X011201Y013251D01*
X011201Y013001D01*
X011199Y012984D01*
X011195Y012967D01*
X011188Y012951D01*
X011178Y012937D01*
X011165Y012924D01*
X011151Y012914D01*
X011135Y012907D01*
X011118Y012903D01*
X011101Y012901D01*
X010101Y012901D01*
X010084Y012903D01*
X010067Y012907D01*
X010051Y012914D01*
X010037Y012924D01*
X010024Y012937D01*
X010014Y012951D01*
X010007Y012967D01*
X010003Y012984D01*
X010001Y013001D01*
X005202Y013631D02*
X005202Y014271D01*
X004775Y014271D02*
X005202Y013631D01*
X004775Y013631D02*
X004775Y014271D01*
X004558Y014165D02*
X004558Y013738D01*
X004451Y013631D01*
X004238Y013631D01*
X004131Y013738D01*
X004131Y014165D01*
X004238Y014271D01*
X004451Y014271D01*
X004558Y014165D01*
X004451Y015881D02*
X004558Y015988D01*
X004558Y016415D01*
X004451Y016521D01*
X004238Y016521D01*
X004131Y016415D01*
X004131Y015988D01*
X004238Y015881D01*
X004451Y015881D01*
X004775Y015881D02*
X004775Y016521D01*
X005202Y016521D01*
X005420Y016521D02*
X005420Y015881D01*
X005420Y016201D02*
X005633Y016201D01*
X005420Y016521D02*
X005847Y016521D01*
X004989Y016201D02*
X004775Y016201D01*
X004801Y018851D02*
X004351Y018851D01*
X002351Y018851D01*
X001901Y018851D01*
X001901Y021051D01*
X001901Y021251D01*
X001901Y021051D02*
X002801Y021051D01*
X002801Y021251D01*
X002351Y021051D02*
X002351Y018851D01*
X004351Y018851D02*
X004351Y021051D01*
X004801Y021051D02*
X004801Y021251D01*
X004801Y021051D02*
X003901Y021051D01*
X003901Y021251D01*
X004801Y021051D02*
X004801Y018851D01*
X007601Y020401D02*
X007601Y020601D01*
X005601Y020851D02*
X005603Y020949D01*
X005611Y021047D01*
X005623Y021144D01*
X005639Y021241D01*
X005661Y021337D01*
X005687Y021432D01*
X005718Y021525D01*
X005753Y021616D01*
X005793Y021706D01*
X005837Y021794D01*
X005886Y021879D01*
X005938Y021962D01*
X005995Y022042D01*
X006055Y022120D01*
X006119Y022194D01*
X006187Y022265D01*
X006258Y022333D01*
X006332Y022397D01*
X006410Y022457D01*
X006490Y022514D01*
X006573Y022566D01*
X006658Y022615D01*
X006746Y022659D01*
X006836Y022699D01*
X006927Y022734D01*
X007020Y022765D01*
X007115Y022791D01*
X007211Y022813D01*
X007308Y022829D01*
X007405Y022841D01*
X007503Y022849D01*
X007601Y022851D01*
X007699Y022849D01*
X007797Y022841D01*
X007894Y022829D01*
X007991Y022813D01*
X008087Y022791D01*
X008182Y022765D01*
X008275Y022734D01*
X008366Y022699D01*
X008456Y022659D01*
X008544Y022615D01*
X008629Y022566D01*
X008712Y022514D01*
X008792Y022457D01*
X008870Y022397D01*
X008944Y022333D01*
X009015Y022265D01*
X009083Y022194D01*
X009147Y022120D01*
X009207Y022042D01*
X009264Y021962D01*
X009316Y021879D01*
X009365Y021794D01*
X009409Y021706D01*
X009449Y021616D01*
X009484Y021525D01*
X009515Y021432D01*
X009541Y021337D01*
X009563Y021241D01*
X009579Y021144D01*
X009591Y021047D01*
X009599Y020949D01*
X009601Y020851D01*
X009599Y020753D01*
X009591Y020655D01*
X009579Y020558D01*
X009563Y020461D01*
X009541Y020365D01*
X009515Y020270D01*
X009484Y020177D01*
X009449Y020086D01*
X009409Y019996D01*
X009365Y019908D01*
X009316Y019823D01*
X009264Y019740D01*
X009207Y019660D01*
X009147Y019582D01*
X009083Y019508D01*
X009015Y019437D01*
X008944Y019369D01*
X008870Y019305D01*
X008792Y019245D01*
X008712Y019188D01*
X008629Y019136D01*
X008544Y019087D01*
X008456Y019043D01*
X008366Y019003D01*
X008275Y018968D01*
X008182Y018937D01*
X008087Y018911D01*
X007991Y018889D01*
X007894Y018873D01*
X007797Y018861D01*
X007699Y018853D01*
X007601Y018851D01*
X007503Y018853D01*
X007405Y018861D01*
X007308Y018873D01*
X007211Y018889D01*
X007115Y018911D01*
X007020Y018937D01*
X006927Y018968D01*
X006836Y019003D01*
X006746Y019043D01*
X006658Y019087D01*
X006573Y019136D01*
X006490Y019188D01*
X006410Y019245D01*
X006332Y019305D01*
X006258Y019369D01*
X006187Y019437D01*
X006119Y019508D01*
X006055Y019582D01*
X005995Y019660D01*
X005938Y019740D01*
X005886Y019823D01*
X005837Y019908D01*
X005793Y019996D01*
X005753Y020086D01*
X005718Y020177D01*
X005687Y020270D01*
X005661Y020365D01*
X005639Y020461D01*
X005623Y020558D01*
X005611Y020655D01*
X005603Y020753D01*
X005601Y020851D01*
X007151Y020951D02*
X008051Y020951D01*
X008051Y021201D01*
X007601Y021201D01*
X007151Y021201D01*
X007151Y020951D01*
X007601Y021201D02*
X007601Y021301D01*
X008101Y022201D02*
X008101Y022501D01*
X008251Y022351D02*
X007951Y022351D01*
X004801Y022251D02*
X004801Y023501D01*
X004351Y023501D01*
X004351Y022451D01*
X002351Y022451D02*
X002351Y023501D01*
X001901Y023501D01*
X001901Y022251D01*
X002201Y023851D02*
X002201Y027851D01*
X002351Y028201D02*
X002351Y029251D01*
X001901Y029451D02*
X001901Y028201D01*
X002351Y028201D01*
X004351Y028201D02*
X004351Y029251D01*
X004801Y029451D02*
X004801Y028201D01*
X004351Y028201D01*
X004801Y030451D02*
X004801Y030651D01*
X003901Y030651D01*
X003901Y030451D01*
X004351Y030651D02*
X004351Y032851D01*
X002351Y032851D01*
X002351Y030651D01*
X002801Y030651D02*
X001901Y030651D01*
X001901Y030451D01*
X001901Y030651D02*
X001901Y032851D01*
X002351Y032851D01*
X004351Y032851D02*
X004801Y032851D01*
X004801Y030651D01*
X002801Y030651D02*
X002801Y030451D01*
X013601Y028601D02*
X016601Y028601D01*
X016663Y028599D01*
X016724Y028593D01*
X016785Y028584D01*
X016845Y028571D01*
X016904Y028554D01*
X016962Y028533D01*
X017019Y028509D01*
X017074Y028482D01*
X017127Y028451D01*
X017179Y028417D01*
X017228Y028380D01*
X017275Y028340D01*
X017319Y028297D01*
X017360Y028252D01*
X017399Y028204D01*
X017435Y028153D01*
X017467Y028101D01*
X017496Y028047D01*
X017522Y027991D01*
X017544Y027933D01*
X017563Y027875D01*
X017578Y027815D01*
X017589Y027754D01*
X017597Y027693D01*
X017601Y027632D01*
X017601Y027570D01*
X017597Y027509D01*
X017589Y027448D01*
X017578Y027387D01*
X017563Y027327D01*
X017544Y027269D01*
X017522Y027211D01*
X017496Y027155D01*
X017467Y027101D01*
X017435Y027049D01*
X017399Y026998D01*
X017360Y026950D01*
X017319Y026905D01*
X017275Y026862D01*
X017228Y026822D01*
X017179Y026785D01*
X017127Y026751D01*
X017074Y026720D01*
X017019Y026693D01*
X016962Y026669D01*
X016904Y026648D01*
X016845Y026631D01*
X016785Y026618D01*
X016724Y026609D01*
X016663Y026603D01*
X016601Y026601D01*
X013601Y026601D01*
X013539Y026603D01*
X013478Y026609D01*
X013417Y026618D01*
X013357Y026631D01*
X013298Y026648D01*
X013240Y026669D01*
X013183Y026693D01*
X013128Y026720D01*
X013075Y026751D01*
X013023Y026785D01*
X012974Y026822D01*
X012927Y026862D01*
X012883Y026905D01*
X012842Y026950D01*
X012803Y026998D01*
X012767Y027049D01*
X012735Y027101D01*
X012706Y027155D01*
X012680Y027211D01*
X012658Y027269D01*
X012639Y027327D01*
X012624Y027387D01*
X012613Y027448D01*
X012605Y027509D01*
X012601Y027570D01*
X012601Y027632D01*
X012605Y027693D01*
X012613Y027754D01*
X012624Y027815D01*
X012639Y027875D01*
X012658Y027933D01*
X012680Y027991D01*
X012706Y028047D01*
X012735Y028101D01*
X012767Y028153D01*
X012803Y028204D01*
X012842Y028252D01*
X012883Y028297D01*
X012927Y028340D01*
X012974Y028380D01*
X013023Y028417D01*
X013075Y028451D01*
X013128Y028482D01*
X013183Y028509D01*
X013240Y028533D01*
X013298Y028554D01*
X013357Y028571D01*
X013417Y028584D01*
X013478Y028593D01*
X013539Y028599D01*
X013601Y028601D01*
X014201Y027601D02*
X014901Y027601D01*
X015301Y027601D02*
X016001Y027601D01*
X015661Y027471D02*
X015661Y027231D01*
X015501Y027071D01*
X015501Y026981D01*
X015661Y027231D02*
X015821Y027071D01*
X015821Y026981D01*
X015952Y031381D02*
X015525Y031381D01*
X015525Y032021D01*
X015952Y032021D01*
X016170Y032021D02*
X016170Y031594D01*
X016383Y031381D01*
X016597Y031594D01*
X016597Y032021D01*
X016490Y032417D02*
X016383Y032417D01*
X016490Y032417D02*
X016597Y032524D01*
X016597Y033058D01*
X016170Y033058D02*
X016170Y032738D01*
X016277Y032631D01*
X016597Y032631D01*
X016814Y032417D02*
X017028Y032631D01*
X016921Y032631D01*
X016921Y032738D01*
X017028Y032738D01*
X017028Y032631D01*
X017889Y032631D02*
X018316Y033058D01*
X018316Y033165D01*
X018209Y033271D01*
X017995Y033271D01*
X017889Y033165D01*
X017889Y032631D02*
X018316Y032631D01*
X018533Y032738D02*
X018533Y033165D01*
X018640Y033271D01*
X018853Y033271D01*
X018960Y033165D01*
X018533Y032738D01*
X018640Y032631D01*
X018853Y032631D01*
X018960Y032738D01*
X018960Y033165D01*
X019178Y033058D02*
X019391Y033271D01*
X019391Y032631D01*
X019178Y032631D02*
X019605Y032631D01*
X019822Y032738D02*
X019929Y032631D01*
X020142Y032631D01*
X020249Y032738D01*
X020249Y032844D01*
X020142Y032951D01*
X020036Y032951D01*
X020142Y032951D02*
X020249Y033058D01*
X020249Y033165D01*
X020142Y033271D01*
X019929Y033271D01*
X019822Y033165D01*
X019822Y033881D02*
X019822Y034521D01*
X020249Y033881D01*
X020249Y034521D01*
X019605Y034308D02*
X019605Y033881D01*
X019605Y034201D02*
X019178Y034201D01*
X019178Y034308D02*
X019178Y033881D01*
X018960Y033988D02*
X018960Y034521D01*
X019178Y034308D02*
X019391Y034521D01*
X019605Y034308D01*
X018960Y033988D02*
X018853Y033881D01*
X018640Y033881D01*
X018533Y033988D01*
X018533Y034521D01*
X018316Y034521D02*
X018316Y033881D01*
X018316Y034201D02*
X017889Y034201D01*
X017671Y033988D02*
X017564Y033881D01*
X017351Y033881D01*
X017244Y033988D01*
X017244Y034415D01*
X017351Y034521D01*
X017564Y034521D01*
X017671Y034415D01*
X017889Y034521D02*
X017889Y033881D01*
X017027Y033988D02*
X017027Y034415D01*
X016920Y034521D01*
X016706Y034521D01*
X016600Y034415D01*
X016600Y033988D01*
X016706Y033881D01*
X016920Y033881D01*
X017027Y033988D01*
X016382Y033881D02*
X016382Y034308D01*
X016169Y034521D01*
X015955Y034308D01*
X015955Y033881D01*
X015739Y033881D02*
X015525Y033881D01*
X015632Y033881D02*
X015632Y034521D01*
X015525Y034521D02*
X015739Y034521D01*
X015955Y034201D02*
X016382Y034201D01*
X015308Y033881D02*
X014881Y034521D01*
X015308Y034521D02*
X014881Y033881D01*
X014881Y033271D02*
X015094Y033058D01*
X015308Y033271D01*
X015308Y032631D01*
X015525Y032738D02*
X015632Y032844D01*
X015952Y032844D01*
X015952Y032951D02*
X015952Y032631D01*
X015632Y032631D01*
X015525Y032738D01*
X015632Y033058D02*
X015846Y033058D01*
X015952Y032951D01*
X014881Y032631D02*
X014881Y033271D01*
X014881Y032021D02*
X015201Y032021D01*
X015308Y031915D01*
X015308Y031701D01*
X015201Y031594D01*
X014881Y031594D01*
X014881Y031381D02*
X014881Y032021D01*
X015094Y031594D02*
X015308Y031381D01*
X015525Y031701D02*
X015739Y031701D01*
X016814Y031488D02*
X016921Y031488D01*
X016921Y031381D01*
X016814Y031381D01*
X016814Y031488D01*
X017781Y031488D02*
X018208Y031915D01*
X018208Y031488D01*
X018101Y031381D01*
X017888Y031381D01*
X017781Y031488D01*
X017781Y031915D01*
X017888Y032021D01*
X018101Y032021D01*
X018208Y031915D01*
X018426Y031488D02*
X018532Y031488D01*
X018532Y031381D01*
X018426Y031381D01*
X018426Y031488D01*
X018748Y031488D02*
X019175Y031915D01*
X019175Y031488D01*
X019068Y031381D01*
X018855Y031381D01*
X018748Y031488D01*
X018748Y031915D01*
X018855Y032021D01*
X019068Y032021D01*
X019175Y031915D01*
X021218Y033881D02*
X021431Y033881D01*
X021538Y033988D01*
X021756Y033881D02*
X021756Y034521D01*
X021538Y034415D02*
X021431Y034521D01*
X021218Y034521D01*
X021111Y034415D01*
X021111Y033988D01*
X021218Y033881D01*
X021756Y034201D02*
X022183Y034201D01*
X022400Y034201D02*
X022614Y034201D01*
X022400Y033881D02*
X022827Y033881D01*
X023045Y033881D02*
X023045Y034521D01*
X023472Y033881D01*
X023472Y034521D01*
X022827Y034521D02*
X022400Y034521D01*
X022400Y033881D01*
X022183Y033881D02*
X022183Y034521D01*
X021646Y035131D02*
X021753Y035238D01*
X021753Y035665D01*
X021646Y035771D01*
X021326Y035771D01*
X021326Y035131D01*
X021646Y035131D01*
X021109Y035131D02*
X020895Y035344D01*
X021002Y035344D02*
X020682Y035344D01*
X020682Y035131D02*
X020682Y035771D01*
X021002Y035771D01*
X021109Y035665D01*
X021109Y035451D01*
X021002Y035344D01*
X020464Y035451D02*
X020037Y035451D01*
X020037Y035558D02*
X020251Y035771D01*
X020464Y035558D01*
X020464Y035131D01*
X020037Y035131D02*
X020037Y035558D01*
X019819Y035665D02*
X019713Y035771D01*
X019499Y035771D01*
X019392Y035665D01*
X019392Y035238D01*
X019499Y035131D01*
X019713Y035131D01*
X019819Y035238D01*
X019819Y035665D01*
X019175Y035665D02*
X019175Y035558D01*
X019068Y035451D01*
X018748Y035451D01*
X018748Y035131D02*
X018748Y035771D01*
X019068Y035771D01*
X019175Y035665D01*
X019068Y035451D02*
X019175Y035344D01*
X019175Y035238D01*
X019068Y035131D01*
X018748Y035131D01*
X017886Y035131D02*
X017672Y035344D01*
X017779Y035344D02*
X017459Y035344D01*
X017459Y035131D02*
X017459Y035771D01*
X017779Y035771D01*
X017886Y035665D01*
X017886Y035451D01*
X017779Y035344D01*
X017241Y035131D02*
X016814Y035131D01*
X016814Y035771D01*
X017241Y035771D01*
X017028Y035451D02*
X016814Y035451D01*
X016597Y035131D02*
X016597Y035771D01*
X016170Y035771D02*
X016170Y035131D01*
X016383Y035344D01*
X016597Y035131D01*
X015952Y035238D02*
X015952Y035665D01*
X015846Y035771D01*
X015632Y035771D01*
X015525Y035665D01*
X015525Y035238D01*
X015632Y035131D01*
X015846Y035131D01*
X015952Y035238D01*
X015308Y035451D02*
X015201Y035344D01*
X014881Y035344D01*
X014881Y035131D02*
X014881Y035771D01*
X015201Y035771D01*
X015308Y035665D01*
X015308Y035451D01*
X029601Y028601D02*
X032601Y028601D01*
X032663Y028599D01*
X032724Y028593D01*
X032785Y028584D01*
X032845Y028571D01*
X032904Y028554D01*
X032962Y028533D01*
X033019Y028509D01*
X033074Y028482D01*
X033127Y028451D01*
X033179Y028417D01*
X033228Y028380D01*
X033275Y028340D01*
X033319Y028297D01*
X033360Y028252D01*
X033399Y028204D01*
X033435Y028153D01*
X033467Y028101D01*
X033496Y028047D01*
X033522Y027991D01*
X033544Y027933D01*
X033563Y027875D01*
X033578Y027815D01*
X033589Y027754D01*
X033597Y027693D01*
X033601Y027632D01*
X033601Y027570D01*
X033597Y027509D01*
X033589Y027448D01*
X033578Y027387D01*
X033563Y027327D01*
X033544Y027269D01*
X033522Y027211D01*
X033496Y027155D01*
X033467Y027101D01*
X033435Y027049D01*
X033399Y026998D01*
X033360Y026950D01*
X033319Y026905D01*
X033275Y026862D01*
X033228Y026822D01*
X033179Y026785D01*
X033127Y026751D01*
X033074Y026720D01*
X033019Y026693D01*
X032962Y026669D01*
X032904Y026648D01*
X032845Y026631D01*
X032785Y026618D01*
X032724Y026609D01*
X032663Y026603D01*
X032601Y026601D01*
X029601Y026601D01*
X029539Y026603D01*
X029478Y026609D01*
X029417Y026618D01*
X029357Y026631D01*
X029298Y026648D01*
X029240Y026669D01*
X029183Y026693D01*
X029128Y026720D01*
X029075Y026751D01*
X029023Y026785D01*
X028974Y026822D01*
X028927Y026862D01*
X028883Y026905D01*
X028842Y026950D01*
X028803Y026998D01*
X028767Y027049D01*
X028735Y027101D01*
X028706Y027155D01*
X028680Y027211D01*
X028658Y027269D01*
X028639Y027327D01*
X028624Y027387D01*
X028613Y027448D01*
X028605Y027509D01*
X028601Y027570D01*
X028601Y027632D01*
X028605Y027693D01*
X028613Y027754D01*
X028624Y027815D01*
X028639Y027875D01*
X028658Y027933D01*
X028680Y027991D01*
X028706Y028047D01*
X028735Y028101D01*
X028767Y028153D01*
X028803Y028204D01*
X028842Y028252D01*
X028883Y028297D01*
X028927Y028340D01*
X028974Y028380D01*
X029023Y028417D01*
X029075Y028451D01*
X029128Y028482D01*
X029183Y028509D01*
X029240Y028533D01*
X029298Y028554D01*
X029357Y028571D01*
X029417Y028584D01*
X029478Y028593D01*
X029539Y028599D01*
X029601Y028601D01*
X030381Y028221D02*
X030381Y028131D01*
X030541Y027971D01*
X030701Y028131D01*
X030701Y028221D01*
X030541Y027971D02*
X030541Y027731D01*
X030201Y027601D02*
X030901Y027601D01*
X031301Y027601D02*
X032001Y027601D01*
X032601Y003601D02*
X029601Y003601D01*
X029539Y003599D01*
X029478Y003593D01*
X029417Y003584D01*
X029357Y003571D01*
X029298Y003554D01*
X029240Y003533D01*
X029183Y003509D01*
X029128Y003482D01*
X029075Y003451D01*
X029023Y003417D01*
X028974Y003380D01*
X028927Y003340D01*
X028883Y003297D01*
X028842Y003252D01*
X028803Y003204D01*
X028767Y003153D01*
X028735Y003101D01*
X028706Y003047D01*
X028680Y002991D01*
X028658Y002933D01*
X028639Y002875D01*
X028624Y002815D01*
X028613Y002754D01*
X028605Y002693D01*
X028601Y002632D01*
X028601Y002570D01*
X028605Y002509D01*
X028613Y002448D01*
X028624Y002387D01*
X028639Y002327D01*
X028658Y002269D01*
X028680Y002211D01*
X028706Y002155D01*
X028735Y002101D01*
X028767Y002049D01*
X028803Y001998D01*
X028842Y001950D01*
X028883Y001905D01*
X028927Y001862D01*
X028974Y001822D01*
X029023Y001785D01*
X029075Y001751D01*
X029128Y001720D01*
X029183Y001693D01*
X029240Y001669D01*
X029298Y001648D01*
X029357Y001631D01*
X029417Y001618D01*
X029478Y001609D01*
X029539Y001603D01*
X029601Y001601D01*
X032601Y001601D01*
X031821Y001981D02*
X031821Y002071D01*
X031661Y002231D01*
X031501Y002071D01*
X031501Y001981D01*
X031661Y002231D02*
X031661Y002471D01*
X032001Y002601D02*
X031301Y002601D01*
X030901Y002601D02*
X030201Y002601D01*
X032601Y001601D02*
X032663Y001603D01*
X032724Y001609D01*
X032785Y001618D01*
X032845Y001631D01*
X032904Y001648D01*
X032962Y001669D01*
X033019Y001693D01*
X033074Y001720D01*
X033127Y001751D01*
X033179Y001785D01*
X033228Y001822D01*
X033275Y001862D01*
X033319Y001905D01*
X033360Y001950D01*
X033399Y001998D01*
X033435Y002049D01*
X033467Y002101D01*
X033496Y002155D01*
X033522Y002211D01*
X033544Y002269D01*
X033563Y002327D01*
X033578Y002387D01*
X033589Y002448D01*
X033597Y002509D01*
X033601Y002570D01*
X033601Y002632D01*
X033597Y002693D01*
X033589Y002754D01*
X033578Y002815D01*
X033563Y002875D01*
X033544Y002933D01*
X033522Y002991D01*
X033496Y003047D01*
X033467Y003101D01*
X033435Y003153D01*
X033399Y003204D01*
X033360Y003252D01*
X033319Y003297D01*
X033275Y003340D01*
X033228Y003380D01*
X033179Y003417D01*
X033127Y003451D01*
X033074Y003482D01*
X033019Y003509D01*
X032962Y003533D01*
X032904Y003554D01*
X032845Y003571D01*
X032785Y003584D01*
X032724Y003593D01*
X032663Y003599D01*
X032601Y003601D01*
D11*
X007217Y010371D02*
X007217Y010831D01*
X006910Y010831D02*
X006910Y010371D01*
X006757Y010371D02*
X006603Y010371D01*
X006680Y010371D02*
X006680Y010831D01*
X006603Y010831D02*
X006757Y010831D01*
X006910Y010831D02*
X007217Y010371D01*
X005989Y010524D02*
X005989Y010831D01*
X005682Y010831D02*
X005682Y010524D01*
X005836Y010371D01*
X005989Y010524D01*
X005529Y010524D02*
X005452Y010601D01*
X005222Y010601D01*
X005222Y010447D01*
X005299Y010371D01*
X005452Y010371D01*
X005529Y010447D01*
X005529Y010524D01*
X005376Y010754D02*
X005222Y010601D01*
X005069Y010678D02*
X004992Y010601D01*
X005069Y010524D01*
X005069Y010447D01*
X004992Y010371D01*
X004838Y010371D01*
X004762Y010447D01*
X004915Y010601D02*
X004992Y010601D01*
X005069Y010678D02*
X005069Y010754D01*
X004992Y010831D01*
X004838Y010831D01*
X004762Y010754D01*
X004608Y010601D02*
X004301Y010601D01*
X004148Y010524D02*
X004148Y010831D01*
X004148Y010524D02*
X003994Y010371D01*
X003841Y010524D01*
X003841Y010831D01*
X003688Y010754D02*
X003688Y010678D01*
X003611Y010601D01*
X003457Y010601D01*
X003381Y010678D01*
X003381Y010754D01*
X003457Y010831D01*
X003611Y010831D01*
X003688Y010754D01*
X003611Y010601D02*
X003688Y010524D01*
X003688Y010447D01*
X003611Y010371D01*
X003457Y010371D01*
X003381Y010447D01*
X003381Y010524D01*
X003457Y010601D01*
X003227Y010371D02*
X002920Y010371D01*
X003074Y010371D02*
X003074Y010831D01*
X002920Y010678D01*
X005376Y010754D02*
X005529Y010831D01*
X025197Y030621D02*
X025504Y030621D01*
X025581Y030697D01*
X025581Y030851D01*
X025504Y030928D01*
X025197Y030928D01*
X025120Y030851D01*
X025120Y030697D01*
X025197Y030621D01*
X025120Y031081D02*
X025504Y031081D01*
X025581Y031158D01*
X025581Y031311D01*
X025504Y031388D01*
X025120Y031388D01*
X025120Y031541D02*
X025120Y031848D01*
X025120Y031695D02*
X025581Y031695D01*
X025581Y032002D02*
X025120Y032002D01*
X025120Y032232D01*
X025197Y032309D01*
X025351Y032309D01*
X025427Y032232D01*
X025427Y032002D01*
X025504Y032462D02*
X025120Y032462D01*
X025120Y032769D02*
X025504Y032769D01*
X025581Y032692D01*
X025581Y032539D01*
X025504Y032462D01*
X025120Y032923D02*
X025120Y033229D01*
X025120Y033076D02*
X025581Y033076D01*
X025504Y033383D02*
X025581Y033460D01*
X025581Y033613D01*
X025504Y033690D01*
X025427Y033690D01*
X025351Y033613D01*
X025351Y033460D01*
X025274Y033383D01*
X025197Y033383D01*
X025120Y033460D01*
X025120Y033613D01*
X025197Y033690D01*
X026274Y035371D02*
X026120Y035524D01*
X026581Y035524D01*
X026581Y035371D02*
X026581Y035678D01*
X026581Y035831D02*
X026274Y036138D01*
X026197Y036138D01*
X026120Y036061D01*
X026120Y035908D01*
X026197Y035831D01*
X026581Y035831D02*
X026581Y036138D01*
X026427Y036291D02*
X026581Y036445D01*
X026427Y036598D01*
X026120Y036598D01*
X026120Y036291D02*
X026427Y036291D01*
X029120Y036291D02*
X029427Y036291D01*
X029581Y036445D01*
X029427Y036598D01*
X029120Y036598D01*
X029197Y036138D02*
X029120Y036061D01*
X029120Y035908D01*
X029197Y035831D01*
X029197Y036138D02*
X029274Y036138D01*
X029581Y035831D01*
X029581Y036138D01*
X029581Y035678D02*
X029581Y035371D01*
X029581Y035524D02*
X029120Y035524D01*
X029274Y035371D01*
X032120Y035524D02*
X032274Y035371D01*
X032120Y035524D02*
X032581Y035524D01*
X032581Y035371D02*
X032581Y035678D01*
X032581Y035831D02*
X032274Y036138D01*
X032197Y036138D01*
X032120Y036061D01*
X032120Y035908D01*
X032197Y035831D01*
X032581Y035831D02*
X032581Y036138D01*
X032427Y036291D02*
X032581Y036445D01*
X032427Y036598D01*
X032120Y036598D01*
X032120Y036291D02*
X032427Y036291D01*
X035120Y036291D02*
X035120Y036522D01*
X035197Y036598D01*
X035504Y036598D01*
X035581Y036522D01*
X035581Y036291D01*
X035120Y036291D01*
X035120Y036138D02*
X035581Y036138D01*
X035120Y035831D01*
X035581Y035831D01*
X035504Y035678D02*
X035351Y035678D01*
X035351Y035524D01*
X035504Y035371D02*
X035581Y035447D01*
X035581Y035601D01*
X035504Y035678D01*
X035197Y035678D02*
X035120Y035601D01*
X035120Y035447D01*
X035197Y035371D01*
X035504Y035371D01*
X038120Y035447D02*
X038197Y035371D01*
X038504Y035371D01*
X038581Y035447D01*
X038581Y035601D01*
X038504Y035678D01*
X038351Y035678D01*
X038351Y035524D01*
X038197Y035678D02*
X038120Y035601D01*
X038120Y035447D01*
X038120Y035831D02*
X038581Y036138D01*
X038120Y036138D01*
X038120Y036291D02*
X038120Y036522D01*
X038197Y036598D01*
X038504Y036598D01*
X038581Y036522D01*
X038581Y036291D01*
X038120Y036291D01*
X038120Y035831D02*
X038581Y035831D01*
X041120Y035831D02*
X041581Y036138D01*
X041120Y036138D01*
X041120Y036291D02*
X041120Y036522D01*
X041197Y036598D01*
X041504Y036598D01*
X041581Y036522D01*
X041581Y036291D01*
X041120Y036291D01*
X041120Y035831D02*
X041581Y035831D01*
X041504Y035678D02*
X041351Y035678D01*
X041351Y035524D01*
X041504Y035371D02*
X041197Y035371D01*
X041120Y035447D01*
X041120Y035601D01*
X041197Y035678D01*
X041504Y035678D02*
X041581Y035601D01*
X041581Y035447D01*
X041504Y035371D01*
X044120Y035447D02*
X044197Y035371D01*
X044504Y035371D01*
X044581Y035447D01*
X044581Y035601D01*
X044504Y035678D01*
X044351Y035678D01*
X044351Y035524D01*
X044197Y035678D02*
X044120Y035601D01*
X044120Y035447D01*
X044120Y035831D02*
X044581Y036138D01*
X044120Y036138D01*
X044120Y036291D02*
X044120Y036522D01*
X044197Y036598D01*
X044504Y036598D01*
X044581Y036522D01*
X044581Y036291D01*
X044120Y036291D01*
X044120Y035831D02*
X044581Y035831D01*
X047120Y035831D02*
X047427Y035831D01*
X047581Y035985D01*
X047427Y036138D01*
X047120Y036138D01*
X047120Y035678D02*
X047120Y035371D01*
X047351Y035371D01*
X047274Y035524D01*
X047274Y035601D01*
X047351Y035678D01*
X047504Y035678D01*
X047581Y035601D01*
X047581Y035447D01*
X047504Y035371D01*
X050120Y035371D02*
X050351Y035371D01*
X050274Y035524D01*
X050274Y035601D01*
X050351Y035678D01*
X050504Y035678D01*
X050581Y035601D01*
X050581Y035447D01*
X050504Y035371D01*
X050120Y035371D02*
X050120Y035678D01*
X050120Y035831D02*
X050427Y035831D01*
X050581Y035985D01*
X050427Y036138D01*
X050120Y036138D01*
X053120Y036138D02*
X053120Y036291D01*
X053197Y036368D01*
X053274Y036368D01*
X053351Y036291D01*
X053427Y036368D01*
X053504Y036368D01*
X053581Y036291D01*
X053581Y036138D01*
X053504Y036061D01*
X053504Y035908D02*
X053581Y035908D01*
X053581Y035831D01*
X053504Y035831D01*
X053504Y035908D01*
X053504Y035678D02*
X053581Y035601D01*
X053581Y035447D01*
X053504Y035371D01*
X053351Y035524D02*
X053351Y035601D01*
X053427Y035678D01*
X053504Y035678D01*
X053351Y035601D02*
X053274Y035678D01*
X053197Y035678D01*
X053120Y035601D01*
X053120Y035447D01*
X053197Y035371D01*
X053197Y036061D02*
X053120Y036138D01*
X053351Y036215D02*
X053351Y036291D01*
X053427Y036522D02*
X053581Y036675D01*
X053427Y036829D01*
X053120Y036829D01*
X053120Y036522D02*
X053427Y036522D01*
X056120Y036522D02*
X056427Y036522D01*
X056581Y036675D01*
X056427Y036829D01*
X056120Y036829D01*
X056197Y036368D02*
X056274Y036368D01*
X056351Y036291D01*
X056427Y036368D01*
X056504Y036368D01*
X056581Y036291D01*
X056581Y036138D01*
X056504Y036061D01*
X056504Y035908D02*
X056581Y035908D01*
X056581Y035831D01*
X056504Y035831D01*
X056504Y035908D01*
X056504Y035678D02*
X056581Y035601D01*
X056581Y035447D01*
X056504Y035371D01*
X056351Y035524D02*
X056351Y035601D01*
X056427Y035678D01*
X056504Y035678D01*
X056351Y035601D02*
X056274Y035678D01*
X056197Y035678D01*
X056120Y035601D01*
X056120Y035447D01*
X056197Y035371D01*
X056197Y036061D02*
X056120Y036138D01*
X056120Y036291D01*
X056197Y036368D01*
X056351Y036291D02*
X056351Y036215D01*
D12*
X001101Y010351D02*
X001101Y007351D01*
X004601Y007351D01*
X004601Y010351D01*
X008101Y010351D01*
X008101Y007351D01*
X004601Y007351D01*
X004601Y010351D02*
X001101Y010351D01*
X011701Y004101D02*
X011701Y024101D01*
X013701Y026101D01*
X034501Y026101D01*
X034501Y004101D01*
X011701Y004101D01*
X015001Y006601D02*
X015001Y006901D01*
X015001Y006601D02*
X015003Y006554D01*
X015008Y006507D01*
X015018Y006461D01*
X015030Y006416D01*
X015047Y006371D01*
X015066Y006329D01*
X015089Y006288D01*
X015116Y006248D01*
X015145Y006211D01*
X015177Y006177D01*
X015211Y006145D01*
X015248Y006116D01*
X015288Y006089D01*
X015329Y006066D01*
X015371Y006047D01*
X015416Y006030D01*
X015461Y006018D01*
X015507Y006008D01*
X015554Y006003D01*
X015601Y006001D01*
X016001Y006001D01*
X017201Y006001D02*
X022501Y006001D01*
X023701Y006001D02*
X029001Y006001D01*
X030201Y006001D02*
X030601Y006001D01*
X030648Y006003D01*
X030695Y006008D01*
X030741Y006018D01*
X030786Y006030D01*
X030831Y006047D01*
X030873Y006066D01*
X030914Y006089D01*
X030954Y006116D01*
X030991Y006145D01*
X031025Y006177D01*
X031057Y006211D01*
X031086Y006248D01*
X031113Y006288D01*
X031136Y006329D01*
X031155Y006371D01*
X031172Y006416D01*
X031184Y006461D01*
X031194Y006507D01*
X031199Y006554D01*
X031201Y006601D01*
X031201Y006901D01*
X031201Y009701D02*
X031201Y010751D01*
X031201Y013451D02*
X031201Y013751D01*
X031201Y016451D02*
X031201Y016751D01*
X031201Y019551D02*
X031201Y020501D01*
X031201Y023301D02*
X031201Y023601D01*
X031199Y023648D01*
X031194Y023695D01*
X031184Y023741D01*
X031172Y023786D01*
X031155Y023831D01*
X031136Y023873D01*
X031113Y023914D01*
X031086Y023954D01*
X031057Y023991D01*
X031025Y024025D01*
X030991Y024057D01*
X030954Y024086D01*
X030914Y024113D01*
X030873Y024136D01*
X030831Y024155D01*
X030786Y024172D01*
X030741Y024184D01*
X030695Y024194D01*
X030648Y024199D01*
X030601Y024201D01*
X030201Y024201D01*
X029001Y024201D02*
X023701Y024201D01*
X022501Y024201D02*
X017201Y024201D01*
X016001Y024201D02*
X015601Y024201D01*
X015554Y024199D01*
X015507Y024194D01*
X015461Y024184D01*
X015416Y024172D01*
X015371Y024155D01*
X015329Y024136D01*
X015288Y024113D01*
X015248Y024086D01*
X015211Y024057D01*
X015177Y024025D01*
X015145Y023991D01*
X015116Y023954D01*
X015089Y023914D01*
X015066Y023873D01*
X015047Y023831D01*
X015030Y023786D01*
X015018Y023741D01*
X015008Y023695D01*
X015003Y023648D01*
X015001Y023601D01*
X015001Y023301D01*
X015001Y020501D02*
X015001Y019451D01*
X015001Y016751D02*
X015001Y013451D01*
X015001Y010751D02*
X015001Y009701D01*
X036845Y007097D02*
X036845Y025097D01*
X036847Y025157D01*
X036852Y025218D01*
X036861Y025277D01*
X036874Y025336D01*
X036890Y025395D01*
X036910Y025452D01*
X036933Y025507D01*
X036960Y025562D01*
X036989Y025614D01*
X037022Y025665D01*
X037058Y025714D01*
X037096Y025760D01*
X037138Y025804D01*
X037182Y025846D01*
X037228Y025884D01*
X037277Y025920D01*
X037328Y025953D01*
X037380Y025982D01*
X037435Y026009D01*
X037490Y026032D01*
X037547Y026052D01*
X037606Y026068D01*
X037665Y026081D01*
X037724Y026090D01*
X037785Y026095D01*
X037845Y026097D01*
X055845Y026097D01*
X055905Y026095D01*
X055966Y026090D01*
X056025Y026081D01*
X056084Y026068D01*
X056143Y026052D01*
X056200Y026032D01*
X056255Y026009D01*
X056310Y025982D01*
X056362Y025953D01*
X056413Y025920D01*
X056462Y025884D01*
X056508Y025846D01*
X056552Y025804D01*
X056594Y025760D01*
X056632Y025714D01*
X056668Y025665D01*
X056701Y025614D01*
X056730Y025562D01*
X056757Y025507D01*
X056780Y025452D01*
X056800Y025395D01*
X056816Y025336D01*
X056829Y025277D01*
X056838Y025218D01*
X056843Y025157D01*
X056845Y025097D01*
X056845Y007097D01*
X056843Y007037D01*
X056838Y006976D01*
X056829Y006917D01*
X056816Y006858D01*
X056800Y006799D01*
X056780Y006742D01*
X056757Y006687D01*
X056730Y006632D01*
X056701Y006580D01*
X056668Y006529D01*
X056632Y006480D01*
X056594Y006434D01*
X056552Y006390D01*
X056508Y006348D01*
X056462Y006310D01*
X056413Y006274D01*
X056362Y006241D01*
X056310Y006212D01*
X056255Y006185D01*
X056200Y006162D01*
X056143Y006142D01*
X056084Y006126D01*
X056025Y006113D01*
X055966Y006104D01*
X055905Y006099D01*
X055845Y006097D01*
X037845Y006097D01*
X037785Y006099D01*
X037724Y006104D01*
X037665Y006113D01*
X037606Y006126D01*
X037547Y006142D01*
X037490Y006162D01*
X037435Y006185D01*
X037380Y006212D01*
X037328Y006241D01*
X037277Y006274D01*
X037228Y006310D01*
X037182Y006348D01*
X037138Y006390D01*
X037096Y006434D01*
X037058Y006480D01*
X037022Y006529D01*
X036989Y006580D01*
X036960Y006632D01*
X036933Y006687D01*
X036910Y006742D01*
X036890Y006799D01*
X036874Y006858D01*
X036861Y006917D01*
X036852Y006976D01*
X036847Y007037D01*
X036845Y007097D01*
X011721Y033141D02*
X011721Y033331D01*
X012961Y033331D01*
X012970Y033331D02*
X012984Y033334D01*
X012997Y033340D01*
X013008Y033349D01*
X013018Y033360D01*
X013025Y033372D01*
X013029Y033386D01*
X013030Y033400D01*
X013031Y033401D02*
X013031Y033391D01*
X013031Y033401D02*
X013031Y033741D01*
X013030Y033740D02*
X013027Y033754D01*
X013021Y033767D01*
X013012Y033778D01*
X013001Y033788D01*
X012989Y033795D01*
X012975Y033799D01*
X012961Y033800D01*
X012961Y033801D02*
X011721Y033801D01*
X011721Y033331D01*
X011571Y033801D02*
X010291Y033161D01*
X010291Y033811D01*
X010131Y033741D02*
X010131Y033401D01*
X010131Y033391D01*
X010130Y033400D02*
X010129Y033386D01*
X010125Y033372D01*
X010118Y033360D01*
X010108Y033349D01*
X010097Y033340D01*
X010084Y033334D01*
X010070Y033331D01*
X010061Y033331D02*
X010051Y033331D01*
X008821Y033331D01*
X008821Y033141D01*
X008691Y033141D02*
X008691Y033811D01*
X008671Y033801D02*
X007441Y033141D01*
X007801Y033331D02*
X008671Y033331D01*
X008821Y033331D02*
X008821Y033801D01*
X010061Y033801D01*
X010061Y033800D02*
X010075Y033799D01*
X010089Y033795D01*
X010101Y033788D01*
X010112Y033778D01*
X010121Y033767D01*
X010127Y033754D01*
X010130Y033740D01*
X010121Y033281D02*
X010121Y033141D01*
X010120Y033270D02*
X010117Y033284D01*
X010111Y033297D01*
X010102Y033308D01*
X010091Y033318D01*
X010079Y033325D01*
X010065Y033329D01*
X010051Y033330D01*
D13*
X010601Y016471D03*
X010601Y012731D03*
D14*
X010851Y007601D02*
X009351Y007601D01*
D15*
X009297Y007644D01*
X009245Y007690D01*
X009196Y007739D01*
X009149Y007791D01*
X009106Y007845D01*
X009065Y007901D01*
X009028Y007960D01*
X008994Y008020D01*
X008964Y008083D01*
X008937Y008146D01*
X008913Y008212D01*
X008893Y008278D01*
X008877Y008346D01*
X008865Y008414D01*
X008857Y008483D01*
X008852Y008552D01*
X008851Y008622D01*
X008854Y008691D01*
X008861Y008760D01*
X008872Y008828D01*
X008886Y008896D01*
X008905Y008963D01*
X008927Y009029D01*
X008952Y009094D01*
X008981Y009157D01*
X009014Y009218D01*
X009050Y009277D01*
X009089Y009334D01*
X009131Y009390D01*
X009176Y009442D01*
X009224Y009492D01*
X009275Y009539D01*
X009329Y009584D01*
X009384Y009625D01*
X009442Y009663D01*
X009502Y009698D01*
X009564Y009730D01*
X009627Y009758D01*
X009692Y009782D01*
X009758Y009803D01*
X009826Y009820D01*
X009894Y009834D01*
X009963Y009843D01*
X010032Y009849D01*
X010101Y009851D01*
X010170Y009849D01*
X010239Y009843D01*
X010308Y009834D01*
X010376Y009820D01*
X010444Y009803D01*
X010510Y009782D01*
X010575Y009758D01*
X010638Y009730D01*
X010700Y009698D01*
X010760Y009663D01*
X010818Y009625D01*
X010873Y009584D01*
X010927Y009539D01*
X010978Y009492D01*
X011026Y009442D01*
X011071Y009390D01*
X011113Y009334D01*
X011152Y009277D01*
X011188Y009218D01*
X011221Y009157D01*
X011250Y009094D01*
X011275Y009029D01*
X011297Y008963D01*
X011316Y008896D01*
X011330Y008828D01*
X011341Y008760D01*
X011348Y008691D01*
X011351Y008622D01*
X011350Y008552D01*
X011345Y008483D01*
X011337Y008414D01*
X011325Y008346D01*
X011309Y008278D01*
X011289Y008212D01*
X011265Y008146D01*
X011238Y008083D01*
X011208Y008020D01*
X011174Y007960D01*
X011137Y007901D01*
X011096Y007845D01*
X011053Y007791D01*
X011006Y007739D01*
X010957Y007690D01*
X010905Y007644D01*
X010851Y007601D01*
D16*
X007601Y020626D03*
D17*
X014901Y027101D02*
X014901Y027601D01*
X014901Y028101D01*
X015301Y028101D02*
X015301Y027601D01*
X015301Y027101D01*
X030901Y027101D02*
X030901Y027601D01*
X030901Y028101D01*
X031301Y028101D02*
X031301Y027601D01*
X031301Y027101D01*
X031301Y003101D02*
X031301Y002601D01*
X031301Y002101D01*
X030901Y002101D02*
X030901Y002601D01*
X030901Y003101D01*
X015301Y003101D02*
X015301Y002601D01*
X015301Y002101D01*
X014901Y002101D02*
X014901Y002601D01*
X014901Y003101D01*
D18*
X004501Y023851D02*
X004501Y027851D01*
X003351Y027851D02*
X003351Y023851D01*
X007391Y032861D02*
X007361Y032891D01*
X007391Y032921D01*
X007481Y032921D01*
X007481Y032951D02*
X007481Y032861D01*
X007391Y032861D01*
X007391Y032981D02*
X007451Y032981D01*
X007481Y032951D01*
X007545Y032981D02*
X007545Y032891D01*
X007575Y032861D01*
X007665Y032861D01*
X007665Y032981D01*
X007729Y032981D02*
X007789Y032981D01*
X007759Y033011D02*
X007759Y032891D01*
X007789Y032861D01*
X007852Y032891D02*
X007882Y032861D01*
X007942Y032861D01*
X007972Y032891D01*
X007972Y032951D01*
X007942Y032981D01*
X007882Y032981D01*
X007852Y032951D01*
X007852Y032891D01*
X008036Y032861D02*
X008036Y032981D01*
X008126Y032981D01*
X008156Y032951D01*
X008156Y032861D01*
X008220Y032891D02*
X008250Y032861D01*
X008310Y032861D01*
X008340Y032891D01*
X008340Y032951D01*
X008310Y032981D01*
X008250Y032981D01*
X008220Y032951D01*
X008220Y032891D01*
X008404Y032861D02*
X008404Y032981D01*
X008434Y032981D01*
X008464Y032951D01*
X008494Y032981D01*
X008524Y032951D01*
X008524Y032861D01*
X008464Y032861D02*
X008464Y032951D01*
X008588Y032951D02*
X008588Y032891D01*
X008618Y032861D01*
X008678Y032861D01*
X008708Y032891D01*
X008708Y032951D01*
X008678Y032981D01*
X008618Y032981D01*
X008588Y032951D01*
X008772Y032981D02*
X008772Y032891D01*
X008802Y032861D01*
X008893Y032861D01*
X008893Y032981D01*
X008957Y032951D02*
X008987Y032981D01*
X009077Y032981D01*
X009047Y032921D02*
X008987Y032921D01*
X008957Y032951D01*
X008957Y032861D02*
X009047Y032861D01*
X009077Y032891D01*
X009047Y032921D01*
X009325Y032921D02*
X009385Y032981D01*
X009415Y032981D01*
X009478Y032951D02*
X009478Y032891D01*
X009508Y032861D01*
X009568Y032861D01*
X009598Y032891D01*
X009598Y032951D01*
X009568Y032981D01*
X009508Y032981D01*
X009478Y032951D01*
X009325Y032981D02*
X009325Y032861D01*
X009662Y032861D02*
X009752Y032861D01*
X009783Y032891D01*
X009783Y032951D01*
X009752Y032981D01*
X009662Y032981D01*
X009662Y033041D02*
X009662Y032861D01*
X009847Y032891D02*
X009877Y032861D01*
X009937Y032861D01*
X009967Y032891D01*
X009967Y032951D01*
X009937Y032981D01*
X009877Y032981D01*
X009847Y032951D01*
X009847Y032891D01*
X010031Y032981D02*
X010091Y032981D01*
X010061Y033011D02*
X010061Y032891D01*
X010091Y032861D01*
X010153Y032861D02*
X010214Y032861D01*
X010183Y032861D02*
X010183Y032981D01*
X010153Y032981D01*
X010183Y033041D02*
X010183Y033071D01*
X010276Y032951D02*
X010276Y032891D01*
X010306Y032861D01*
X010396Y032861D01*
X010396Y032981D02*
X010306Y032981D01*
X010276Y032951D01*
X010644Y032981D02*
X010705Y032861D01*
X010765Y032981D01*
X010829Y032951D02*
X010859Y032981D01*
X010919Y032981D01*
X010949Y032951D01*
X010949Y032921D01*
X010829Y032921D01*
X010829Y032891D02*
X010829Y032951D01*
X010829Y032891D02*
X010859Y032861D01*
X010919Y032861D01*
X011013Y032861D02*
X011013Y033041D01*
X011043Y032981D02*
X011103Y032981D01*
X011133Y032951D01*
X011133Y032861D01*
X011197Y032861D02*
X011257Y032861D01*
X011227Y032861D02*
X011227Y032981D01*
X011197Y032981D01*
X011227Y033041D02*
X011227Y033071D01*
X011320Y032951D02*
X011320Y032891D01*
X011350Y032861D01*
X011440Y032861D01*
X011504Y032861D02*
X011564Y032861D01*
X011534Y032861D02*
X011534Y033041D01*
X011504Y033041D01*
X011440Y032981D02*
X011350Y032981D01*
X011320Y032951D01*
X011043Y032981D02*
X011013Y032951D01*
X011627Y032951D02*
X011657Y032981D01*
X011717Y032981D01*
X011747Y032951D01*
X011747Y032921D01*
X011627Y032921D01*
X011627Y032891D02*
X011627Y032951D01*
X011627Y032891D02*
X011657Y032861D01*
X011717Y032861D01*
X011995Y032861D02*
X012085Y032861D01*
X012115Y032891D01*
X012115Y032951D01*
X012085Y032981D01*
X011995Y032981D01*
X011995Y032801D01*
X012179Y032861D02*
X012179Y032981D01*
X012239Y032981D02*
X012269Y032981D01*
X012239Y032981D02*
X012179Y032921D01*
X012332Y032951D02*
X012332Y032891D01*
X012362Y032861D01*
X012422Y032861D01*
X012452Y032891D01*
X012452Y032951D01*
X012422Y032981D01*
X012362Y032981D01*
X012332Y032951D01*
X012516Y032801D02*
X012546Y032801D01*
X012577Y032831D01*
X012577Y032981D01*
X012577Y033041D02*
X012577Y033071D01*
X012669Y032981D02*
X012729Y032981D01*
X012759Y032951D01*
X012759Y032921D01*
X012639Y032921D01*
X012639Y032951D02*
X012669Y032981D01*
X012639Y032951D02*
X012639Y032891D01*
X012669Y032861D01*
X012729Y032861D01*
X012823Y032891D02*
X012853Y032861D01*
X012943Y032861D01*
X013038Y032891D02*
X013068Y032861D01*
X013038Y032891D02*
X013038Y033011D01*
X013008Y032981D02*
X013068Y032981D01*
X012943Y032981D02*
X012853Y032981D01*
X012823Y032951D01*
X012823Y032891D01*
X007681Y033521D02*
X007621Y033491D01*
X007571Y033601D01*
X007521Y033491D01*
X007451Y033521D01*
X007491Y033361D01*
X007411Y033431D01*
X007401Y033381D01*
X007321Y033401D01*
X007351Y033331D01*
X007301Y033311D01*
X007421Y033221D01*
X007641Y033361D02*
X007681Y033521D01*
D19*
X004126Y032626D03*
X002576Y032626D03*
X002576Y019076D03*
X004126Y019076D03*
D20*
X004226Y023051D03*
X002476Y023051D03*
X002476Y028651D03*
X004226Y028651D03*
D21*
X004101Y025851D03*
X004101Y025851D03*
X002601Y025851D03*
X002601Y025851D03*
D22*
X003351Y029776D03*
X003351Y021926D03*
D23*
X003351Y023676D03*
X003351Y028026D03*
M02*
