G75*
G70*
%OFA0B0*%
%FSLAX24Y24*%
%IPPOS*%
%LPD*%
%AMOC8*
5,1,8,0,0,1.08239X$1,22.5*
%
%ADD10R,0.0800X0.0260*%
%ADD11R,0.0630X0.0709*%
%ADD12R,0.0709X0.0630*%
D10*
X012891Y006105D03*
X012891Y006605D03*
X012891Y007105D03*
X012891Y007605D03*
X012891Y008105D03*
X012891Y008605D03*
X012891Y009105D03*
X015311Y009105D03*
X015311Y008605D03*
X015311Y008105D03*
X015311Y007605D03*
X015311Y007105D03*
X015311Y006605D03*
X015311Y006105D03*
X017891Y006105D03*
X017891Y006605D03*
X017891Y007105D03*
X017891Y007605D03*
X017891Y008105D03*
X017891Y008605D03*
X017891Y009105D03*
X020311Y009105D03*
X020311Y008605D03*
X020311Y008105D03*
X020311Y007605D03*
X020311Y007105D03*
X020311Y006605D03*
X020311Y006105D03*
X022891Y006105D03*
X022891Y006605D03*
X022891Y007105D03*
X022891Y007605D03*
X022891Y008105D03*
X022891Y008605D03*
X022891Y009105D03*
X025311Y009105D03*
X025311Y008605D03*
X025311Y008105D03*
X025311Y007605D03*
X025311Y007105D03*
X025311Y006605D03*
X025311Y006105D03*
D11*
X029550Y006605D03*
X030652Y006605D03*
X030652Y008105D03*
X029550Y008105D03*
X029550Y005105D03*
X030652Y005105D03*
D12*
X021101Y002656D03*
X021101Y001554D03*
X019101Y001554D03*
X019101Y002656D03*
X017101Y002656D03*
X017101Y001554D03*
M02*
