%
M48
M72
T01C0.0200
T02C0.0236
T03C0.0276
T04C0.0320
T05C0.0354
T06C0.0400
T07C0.0433
T08C0.0472
T09C0.0551
T10C0.0600
T11C0.0669
T12C0.1181
T13C0.1300
%
T01
X12101Y7605
X13601Y7105
X12101Y9105
X16101Y8105
X17101Y7605
X16601Y7105
X17101Y9105
X19101Y8605
X21101Y9105
X21101Y7105
X19101Y5105
X18101Y3105
X20101Y2105
X16101Y3105
X16101Y5105
X13101Y4605
X24601Y4105
X26101Y7605
X28601Y8105
X26601Y14605
X26101Y14605
X14601Y14605
X14101Y14605
X14101Y21105
X8601Y29605
X6101Y30605
X18101Y30605
X20601Y29605
X26601Y30605
X30101Y30605
X2601Y21105
X2101Y18605
X2601Y14605
T02
X26601Y21105
X36601Y27105
X32601Y29605
T03
X32601Y23105
X31601Y23105
X35101Y23105
X37101Y23105
X25101Y23105
X23101Y23105
X20601Y23105
X19601Y23105
X13101Y23105
X11101Y23105
X8601Y23105
X7601Y23105
T04
X3601Y11605
X3601Y10605
X9101Y4605
X10101Y4605
X15601Y10605
X15601Y11605
X27601Y11605
X27601Y10605
T05
X29601Y10605
X33601Y10605
X21601Y10605
X17601Y10605
X10101Y7605
X9601Y10605
X5601Y10605
X6101Y7605
X9101Y1605
X13101Y1605
T06
X26101Y2105
X27101Y2105
X28101Y2105
X28101Y3105
X27101Y3105
X26101Y3105
X29101Y3105
X29101Y2105
T07
X30101Y13105
X30101Y16105
X30101Y17105
X30101Y20105
X35101Y20105
X35101Y17105
X35101Y16105
X35101Y13105
X23101Y13105
X23101Y16105
X23101Y17105
X23101Y20105
X18101Y20105
X18101Y17105
X18101Y16105
X18101Y13105
X11101Y13105
X11101Y16105
X11101Y17105
X11101Y20105
X6101Y20105
X6101Y17105
X6101Y16105
X6101Y13105
T08
X3601Y13105
X3601Y21105
X3601Y26605
X4601Y26605
X5601Y26605
X6601Y26605
X7601Y26605
X8601Y26605
X9601Y26605
X10601Y26605
X10101Y28605
X9101Y28605
X8101Y28605
X7101Y28605
X6101Y28605
X5101Y28605
X4101Y28605
X15601Y26605
X16601Y26605
X17601Y26605
X18601Y26605
X19601Y26605
X20601Y26605
X21601Y26605
X22601Y26605
X22101Y28605
X21101Y28605
X20101Y28605
X19101Y28605
X18101Y28605
X17101Y28605
X16101Y28605
X15601Y21105
X15601Y13105
X27601Y13105
X27601Y21105
X27601Y26605
X28601Y26605
X29601Y26605
X30601Y26605
X31601Y26605
X32601Y26605
X33601Y26605
X34601Y26605
X34101Y28605
X33101Y28605
X32101Y28605
X31101Y28605
X30101Y28605
X29101Y28605
X28101Y28605
T09
X5428Y5187
X3774Y5187
X3774Y3022
X5428Y3022
T10
X34101Y5105
X34101Y8209
T11
X33380Y16605
X31821Y16605
X21380Y16605
X19821Y16605
X9380Y16605
X7821Y16605
T12
X7278Y3203
X1924Y3203
T13
X1601Y1605
X1601Y29605
X40101Y29605
X40101Y1605
M30
