G75*
G70*
%OFA0B0*%
%FSLAX24Y24*%
%IPPOS*%
%LPD*%
%AMOC8*
5,1,8,0,0,1.08239X$1,22.5*
%
%ADD10C,0.0709*%
%ADD11C,0.1004*%
%ADD12C,0.0669*%
%ADD13OC8,0.0520*%
%ADD14C,0.0740*%
%ADD15C,0.0650*%
%ADD16R,0.0650X0.0650*%
%ADD17R,0.1500X0.1500*%
%ADD18C,0.1500*%
%ADD19OC8,0.0740*%
%ADD20R,0.0827X0.0827*%
%ADD21R,0.0800X0.0260*%
%ADD22R,0.0630X0.0709*%
%ADD23R,0.0709X0.0630*%
%ADD24C,0.0500*%
%ADD25C,0.0100*%
%ADD26C,0.0400*%
%ADD27C,0.0360*%
%ADD28C,0.0240*%
%ADD29C,0.0396*%
D10*
X003601Y026250D02*
X003601Y026959D01*
X004601Y026959D02*
X004601Y026250D01*
X005601Y026250D02*
X005601Y026959D01*
X006601Y026959D02*
X006601Y026250D01*
X007601Y026250D02*
X007601Y026959D01*
X008601Y026959D02*
X008601Y026250D01*
X009601Y026250D02*
X009601Y026959D01*
X010601Y026959D02*
X010601Y026250D01*
X010101Y028250D02*
X010101Y028959D01*
X009101Y028959D02*
X009101Y028250D01*
X008101Y028250D02*
X008101Y028959D01*
X007101Y028959D02*
X007101Y028250D01*
X006101Y028250D02*
X006101Y028959D01*
X005101Y028959D02*
X005101Y028250D01*
X004101Y028250D02*
X004101Y028959D01*
X015601Y026959D02*
X015601Y026250D01*
X016601Y026250D02*
X016601Y026959D01*
X017601Y026959D02*
X017601Y026250D01*
X018601Y026250D02*
X018601Y026959D01*
X019601Y026959D02*
X019601Y026250D01*
X020601Y026250D02*
X020601Y026959D01*
X021601Y026959D02*
X021601Y026250D01*
X022601Y026250D02*
X022601Y026959D01*
X022101Y028250D02*
X022101Y028959D01*
X021101Y028959D02*
X021101Y028250D01*
X020101Y028250D02*
X020101Y028959D01*
X019101Y028959D02*
X019101Y028250D01*
X018101Y028250D02*
X018101Y028959D01*
X017101Y028959D02*
X017101Y028250D01*
X016101Y028250D02*
X016101Y028959D01*
X027601Y026959D02*
X027601Y026250D01*
X028601Y026250D02*
X028601Y026959D01*
X029601Y026959D02*
X029601Y026250D01*
X030601Y026250D02*
X030601Y026959D01*
X031601Y026959D02*
X031601Y026250D01*
X032601Y026250D02*
X032601Y026959D01*
X033601Y026959D02*
X033601Y026250D01*
X034601Y026250D02*
X034601Y026959D01*
X034101Y028250D02*
X034101Y028959D01*
X033101Y028959D02*
X033101Y028250D01*
X032101Y028250D02*
X032101Y028959D01*
X031101Y028959D02*
X031101Y028250D01*
X030101Y028250D02*
X030101Y028959D01*
X029101Y028959D02*
X029101Y028250D01*
X028101Y028250D02*
X028101Y028959D01*
D11*
X031821Y017107D02*
X031821Y016103D01*
X033380Y016103D02*
X033380Y017107D01*
X021380Y017107D02*
X021380Y016103D01*
X019821Y016103D02*
X019821Y017107D01*
X009380Y017107D02*
X009380Y016103D01*
X007821Y016103D02*
X007821Y017107D01*
D12*
X006101Y017105D03*
X006101Y016105D03*
X006101Y013105D03*
X011101Y013105D03*
X011101Y016105D03*
X011101Y017105D03*
X011101Y020105D03*
X006101Y020105D03*
X018101Y020105D03*
X018101Y017105D03*
X018101Y016105D03*
X018101Y013105D03*
X023101Y013105D03*
X023101Y016105D03*
X023101Y017105D03*
X023101Y020105D03*
X030101Y020105D03*
X030101Y017105D03*
X030101Y016105D03*
X030101Y013105D03*
X035101Y013105D03*
X035101Y016105D03*
X035101Y017105D03*
X035101Y020105D03*
D13*
X027601Y011605D03*
X027601Y010605D03*
X015601Y010605D03*
X015601Y011605D03*
X010101Y004605D03*
X009101Y004605D03*
X003601Y010605D03*
X003601Y011605D03*
D14*
X003601Y013105D03*
X005601Y010605D03*
X006101Y007605D03*
X009601Y010605D03*
X010101Y007605D03*
X015601Y013105D03*
X017601Y010605D03*
X021601Y010605D03*
X027601Y013105D03*
X029601Y010605D03*
X033601Y010605D03*
X027601Y021105D03*
X015601Y021105D03*
X003601Y021105D03*
X009101Y001605D03*
X013101Y001605D03*
D15*
X013101Y023105D03*
X008601Y023105D03*
X007601Y023105D03*
X019601Y023105D03*
X020601Y023105D03*
X025101Y023105D03*
X031601Y023105D03*
X032601Y023105D03*
X037101Y023105D03*
D16*
X035101Y023105D03*
X023101Y023105D03*
X011101Y023105D03*
D17*
X034101Y005105D03*
D18*
X034101Y008209D03*
D19*
X029101Y003105D03*
X028101Y003105D03*
X027101Y003105D03*
X026101Y003105D03*
X026101Y002105D03*
X027101Y002105D03*
X028101Y002105D03*
X029101Y002105D03*
D20*
X005428Y003022D03*
X003774Y003022D03*
X003774Y005187D03*
X005428Y005187D03*
D21*
X012891Y006105D03*
X012891Y006605D03*
X012891Y007105D03*
X012891Y007605D03*
X012891Y008105D03*
X012891Y008605D03*
X012891Y009105D03*
X015311Y009105D03*
X015311Y008605D03*
X015311Y008105D03*
X015311Y007605D03*
X015311Y007105D03*
X015311Y006605D03*
X015311Y006105D03*
X017891Y006105D03*
X017891Y006605D03*
X017891Y007105D03*
X017891Y007605D03*
X017891Y008105D03*
X017891Y008605D03*
X017891Y009105D03*
X020311Y009105D03*
X020311Y008605D03*
X020311Y008105D03*
X020311Y007605D03*
X020311Y007105D03*
X020311Y006605D03*
X020311Y006105D03*
X022891Y006105D03*
X022891Y006605D03*
X022891Y007105D03*
X022891Y007605D03*
X022891Y008105D03*
X022891Y008605D03*
X022891Y009105D03*
X025311Y009105D03*
X025311Y008605D03*
X025311Y008105D03*
X025311Y007605D03*
X025311Y007105D03*
X025311Y006605D03*
X025311Y006105D03*
D22*
X029550Y006605D03*
X030652Y006605D03*
X030652Y008105D03*
X029550Y008105D03*
X029550Y005105D03*
X030652Y005105D03*
D23*
X021101Y002656D03*
X021101Y001554D03*
X019101Y001554D03*
X019101Y002656D03*
X017101Y002656D03*
X017101Y001554D03*
D24*
X002901Y001434D02*
X002813Y001105D01*
X008385Y001105D01*
X008372Y001118D01*
X008241Y001434D01*
X008241Y001749D01*
X008003Y001847D01*
X007814Y002037D01*
X007799Y002072D01*
X007757Y002047D01*
X007441Y001963D01*
X007115Y001963D01*
X006799Y002047D01*
X006516Y002210D01*
X006297Y002430D01*
X006256Y002331D01*
X006119Y002193D01*
X005938Y002119D01*
X004917Y002119D01*
X004737Y002193D01*
X004601Y002329D01*
X004465Y002193D01*
X004285Y002119D01*
X003263Y002119D01*
X003083Y002193D01*
X002945Y002331D01*
X002904Y002430D01*
X002728Y002253D01*
X002812Y002106D01*
X002901Y001776D01*
X002901Y001434D01*
X002901Y001602D02*
X008241Y001602D01*
X006707Y002100D02*
X002814Y002100D01*
X003019Y003787D02*
X002916Y003965D01*
X002816Y004065D01*
X003877Y004065D01*
X004016Y003925D01*
X003263Y003925D01*
X003083Y003851D01*
X003019Y003787D01*
X002871Y005145D02*
X002141Y005145D01*
X002141Y008301D01*
X002143Y008299D01*
X002295Y008147D01*
X002493Y008065D01*
X005360Y008065D01*
X005241Y007776D01*
X005241Y007434D01*
X005250Y007411D01*
X005024Y007505D01*
X004757Y007505D01*
X004527Y007505D01*
X004333Y007505D01*
X004067Y007505D01*
X003913Y007505D01*
X003893Y007497D01*
X003873Y007505D01*
X003606Y007505D01*
X003489Y007505D01*
X003354Y007505D01*
X003223Y007505D01*
X003223Y007505D01*
X003222Y007505D01*
X003202Y007497D01*
X003182Y007505D01*
X002916Y007505D01*
X002686Y007505D01*
X002439Y007403D01*
X002251Y007215D01*
X002149Y006968D01*
X002149Y006702D01*
X002149Y006661D01*
X002149Y006395D01*
X002149Y006241D01*
X002251Y005995D01*
X002439Y005807D01*
X002686Y005705D01*
X002873Y005705D01*
X002871Y005698D01*
X002871Y005145D01*
X002871Y005590D02*
X002141Y005590D01*
X002141Y006089D02*
X002212Y006089D01*
X002149Y006587D02*
X002141Y006587D01*
X002141Y007086D02*
X002198Y007086D01*
X002141Y007584D02*
X005241Y007584D01*
X005637Y006866D02*
X005930Y006745D01*
X006197Y006745D01*
X007295Y005647D01*
X007493Y005565D01*
X007708Y005565D01*
X012208Y005565D01*
X012213Y005559D01*
X012393Y005485D01*
X012457Y005485D01*
X012585Y005357D01*
X012755Y005187D01*
X012721Y005173D01*
X012533Y004984D01*
X012431Y004738D01*
X012431Y004471D01*
X012533Y004225D01*
X012721Y004037D01*
X012967Y003935D01*
X013234Y003935D01*
X013480Y004037D01*
X013508Y004065D01*
X016797Y004065D01*
X016643Y003911D01*
X016561Y003712D01*
X016561Y003592D01*
X016480Y003673D01*
X016234Y003775D01*
X015967Y003775D01*
X015721Y003673D01*
X015533Y003484D01*
X015431Y003238D01*
X015431Y002971D01*
X015533Y002725D01*
X015561Y002697D01*
X015561Y002212D01*
X015561Y001997D01*
X015643Y001799D01*
X016194Y001248D01*
X016256Y001185D01*
X016256Y001141D01*
X016272Y001105D01*
X013817Y001105D01*
X013830Y001118D01*
X013961Y001434D01*
X013961Y001776D01*
X013830Y002092D01*
X013588Y002334D01*
X013272Y002465D01*
X012930Y002465D01*
X012614Y002334D01*
X012372Y002092D01*
X012241Y001776D01*
X012241Y001434D01*
X012372Y001118D01*
X012385Y001105D01*
X009817Y001105D01*
X009830Y001118D01*
X009961Y001434D01*
X009961Y001670D01*
X010508Y001670D01*
X010689Y001745D01*
X010758Y001745D01*
X010893Y001745D01*
X010893Y001745D01*
X010894Y001745D01*
X011129Y001745D01*
X011145Y001751D01*
X011160Y001745D01*
X011228Y001745D01*
X011294Y001731D01*
X011361Y001745D01*
X011429Y001745D01*
X011491Y001771D01*
X011557Y001784D01*
X011614Y001821D01*
X011677Y001847D01*
X011725Y001895D01*
X011781Y001933D01*
X011819Y001989D01*
X011867Y002037D01*
X011893Y002100D01*
X012380Y002100D01*
X011970Y002285D02*
X011970Y002353D01*
X011983Y002419D01*
X011970Y002486D01*
X011970Y003004D01*
X011867Y003252D01*
X011677Y003442D01*
X011429Y003545D01*
X011160Y003545D01*
X011145Y003538D01*
X011129Y003545D01*
X011061Y003545D01*
X010995Y003558D01*
X010928Y003545D01*
X010894Y003545D01*
X010893Y003545D01*
X010801Y003545D01*
X010743Y003545D01*
X010475Y003545D01*
X010227Y003442D01*
X010152Y003367D01*
X010111Y003327D01*
X009996Y003442D01*
X009748Y003545D01*
X009479Y003545D01*
X009383Y003505D01*
X009287Y003545D01*
X009019Y003545D01*
X008712Y003545D01*
X008552Y003545D01*
X008536Y003538D01*
X008520Y003545D01*
X008471Y003545D01*
X008434Y003682D01*
X008271Y003965D01*
X008040Y004196D01*
X007757Y004359D01*
X007441Y004444D01*
X007115Y004444D01*
X006799Y004359D01*
X006516Y004196D01*
X006285Y003965D01*
X006182Y003787D01*
X006119Y003851D01*
X005938Y003925D01*
X005288Y003925D01*
X005141Y004072D01*
X005141Y004212D01*
X005111Y004284D01*
X005938Y004284D01*
X006119Y004359D01*
X006256Y004496D01*
X006331Y004677D01*
X006331Y005698D01*
X006256Y005878D01*
X006119Y006016D01*
X005938Y006091D01*
X005575Y006091D01*
X005637Y006241D01*
X005637Y006508D01*
X005637Y006738D01*
X005637Y006866D01*
X005637Y006587D02*
X006355Y006587D01*
X005943Y006089D02*
X006853Y006089D01*
X006331Y005590D02*
X007432Y005590D01*
X008351Y004915D02*
X008351Y004294D01*
X008790Y003855D01*
X009411Y003855D01*
X009601Y004044D01*
X009790Y003855D01*
X010411Y003855D01*
X010851Y004294D01*
X010851Y004915D01*
X010411Y005355D01*
X009790Y005355D01*
X009601Y005165D01*
X009411Y005355D01*
X008790Y005355D01*
X008351Y004915D01*
X008527Y005092D02*
X006331Y005092D01*
X006296Y004593D02*
X008351Y004593D01*
X008550Y004095D02*
X008141Y004095D01*
X008457Y003596D02*
X015645Y003596D01*
X015431Y003097D02*
X011931Y003097D01*
X011970Y002599D02*
X015561Y002599D01*
X015561Y002100D02*
X013821Y002100D01*
X013961Y001602D02*
X015840Y001602D01*
X017888Y002105D02*
X017945Y002243D01*
X017945Y002444D01*
X017967Y002435D01*
X018234Y002435D01*
X018256Y002444D01*
X018256Y002243D01*
X018314Y002105D01*
X018309Y002094D01*
X017892Y002094D01*
X017888Y002105D01*
X017889Y002100D02*
X018312Y002100D01*
X019945Y002765D02*
X019945Y003065D01*
X020256Y003065D01*
X020256Y003024D01*
X020194Y002962D01*
X020007Y002775D01*
X019967Y002775D01*
X019945Y002765D01*
X021945Y002645D02*
X023297Y002645D01*
X022877Y003065D01*
X021945Y003065D01*
X021945Y002645D01*
X021945Y001565D02*
X023377Y001565D01*
X023837Y001105D01*
X021930Y001105D01*
X021945Y001141D01*
X021945Y001565D01*
X019797Y004645D02*
X019588Y004645D01*
X019669Y004725D01*
X019683Y004759D01*
X019797Y004645D01*
X018755Y005687D02*
X018721Y005673D01*
X018533Y005484D01*
X018431Y005238D01*
X018431Y005198D01*
X018377Y005145D01*
X016904Y005145D01*
X017288Y005528D01*
X017393Y005485D01*
X018388Y005485D01*
X018568Y005559D01*
X018706Y005697D01*
X018717Y005724D01*
X018755Y005687D01*
X018639Y005590D02*
X018599Y005590D01*
X019421Y007048D02*
X019407Y007062D01*
X018907Y007562D01*
X018781Y007615D01*
X018781Y007832D01*
X018771Y007855D01*
X018781Y007877D01*
X018781Y008012D01*
X018967Y007935D01*
X019234Y007935D01*
X019421Y008012D01*
X019421Y007877D01*
X019430Y007855D01*
X019421Y007832D01*
X019421Y007377D01*
X019430Y007355D01*
X019421Y007332D01*
X019421Y007048D01*
X019407Y007062D02*
X019407Y007062D01*
X019421Y007086D02*
X019383Y007086D01*
X019421Y007584D02*
X018854Y007584D01*
X021201Y006241D02*
X021201Y005978D01*
X021534Y005645D01*
X021800Y005645D01*
X021795Y005647D01*
X021643Y005799D01*
X021201Y006241D01*
X021201Y006089D02*
X021353Y006089D01*
X023654Y005645D02*
X023706Y005697D01*
X023781Y005877D01*
X023781Y006332D01*
X023771Y006355D01*
X023781Y006377D01*
X023781Y006832D01*
X023771Y006855D01*
X023781Y006877D01*
X023781Y007332D01*
X023771Y007355D01*
X023781Y007377D01*
X023781Y007832D01*
X023771Y007855D01*
X023781Y007877D01*
X023781Y008332D01*
X023771Y008355D01*
X023781Y008377D01*
X023781Y008832D01*
X023771Y008855D01*
X023781Y008877D01*
X023781Y009332D01*
X023706Y009512D01*
X023568Y009650D01*
X023388Y009725D01*
X022393Y009725D01*
X022213Y009650D01*
X022075Y009512D01*
X022001Y009332D01*
X022001Y008968D01*
X021907Y009062D01*
X021771Y009198D01*
X021771Y009238D01*
X021669Y009484D01*
X021480Y009673D01*
X021234Y009775D01*
X020967Y009775D01*
X020828Y009717D01*
X020808Y009725D01*
X020744Y009725D01*
X020559Y009911D01*
X020407Y010062D01*
X020208Y010145D01*
X018341Y010145D01*
X018461Y010434D01*
X018461Y010776D01*
X018330Y011092D01*
X018088Y011334D01*
X017772Y011465D01*
X017430Y011465D01*
X017114Y011334D01*
X016872Y011092D01*
X016741Y010776D01*
X016741Y010434D01*
X016860Y010145D01*
X016201Y010145D01*
X016351Y010294D01*
X016351Y010915D01*
X016257Y011009D01*
X016446Y011088D01*
X017446Y012088D01*
X017618Y012259D01*
X017672Y012390D01*
X017937Y012280D01*
X018265Y012280D01*
X018568Y012406D01*
X018800Y012638D01*
X018925Y012941D01*
X018925Y013191D01*
X019004Y013191D01*
X019024Y013199D01*
X019044Y013191D01*
X019275Y013191D01*
X019560Y013191D01*
X019694Y013191D01*
X019694Y013191D01*
X019695Y013191D01*
X019753Y013215D01*
X019812Y013191D01*
X020078Y013191D01*
X020137Y013215D01*
X020195Y013191D01*
X020480Y013191D01*
X020615Y013191D01*
X020615Y013191D01*
X020845Y013191D01*
X020850Y013193D01*
X020991Y013134D01*
X020991Y011211D01*
X020872Y011092D01*
X020741Y010776D01*
X020741Y010434D01*
X020872Y010118D01*
X021114Y009876D01*
X021430Y009745D01*
X021772Y009745D01*
X022088Y009876D01*
X022330Y010118D01*
X022461Y010434D01*
X022461Y010776D01*
X022330Y011092D01*
X022211Y011211D01*
X022211Y013338D01*
X022354Y013481D01*
X022456Y013728D01*
X022456Y013814D01*
X022508Y013865D01*
X022610Y014111D01*
X022610Y014455D01*
X022508Y014701D01*
X022319Y014889D01*
X022211Y014934D01*
X022211Y015530D01*
X022221Y015541D01*
X022331Y015807D01*
X022402Y015638D01*
X022634Y015406D01*
X022937Y015280D01*
X023265Y015280D01*
X023568Y015406D01*
X023800Y015638D01*
X023925Y015941D01*
X023925Y016269D01*
X023800Y016572D01*
X023767Y016605D01*
X023800Y016638D01*
X023925Y016941D01*
X023925Y017269D01*
X023800Y017572D01*
X023568Y017804D01*
X023265Y017929D01*
X022937Y017929D01*
X022634Y017804D01*
X022402Y017572D01*
X022331Y017402D01*
X022221Y017669D01*
X021942Y017948D01*
X021578Y018099D01*
X021183Y018099D01*
X020818Y017948D01*
X020601Y017730D01*
X020383Y017948D01*
X020019Y018099D01*
X019624Y018099D01*
X019259Y017948D01*
X018980Y017669D01*
X018870Y017402D01*
X018800Y017572D01*
X018568Y017804D01*
X018265Y017929D01*
X017937Y017929D01*
X017634Y017804D01*
X017402Y017572D01*
X017276Y017269D01*
X017276Y016941D01*
X017402Y016638D01*
X017435Y016605D01*
X017402Y016572D01*
X017276Y016269D01*
X017276Y016143D01*
X016584Y015450D01*
X016491Y015226D01*
X016491Y014983D01*
X016491Y012857D01*
X016386Y012752D01*
X016461Y012934D01*
X016461Y013276D01*
X016330Y013592D01*
X016088Y013834D01*
X015772Y013965D01*
X015430Y013965D01*
X015141Y013845D01*
X015141Y014197D01*
X015169Y014225D01*
X015271Y014471D01*
X015271Y014738D01*
X015169Y014984D01*
X014980Y015173D01*
X014734Y015275D01*
X014467Y015275D01*
X014351Y015226D01*
X014234Y015275D01*
X013967Y015275D01*
X013721Y015173D01*
X013533Y014984D01*
X013431Y014738D01*
X013431Y014471D01*
X013533Y014225D01*
X013561Y014197D01*
X013561Y013025D01*
X013512Y013045D01*
X013377Y013045D01*
X013019Y013045D01*
X012745Y013045D01*
X012612Y013045D01*
X012251Y013045D01*
X012003Y012942D01*
X011871Y012810D01*
X011925Y012941D01*
X011925Y013269D01*
X011800Y013572D01*
X011568Y013804D01*
X011265Y013929D01*
X010937Y013929D01*
X010634Y013804D01*
X010606Y013776D01*
X010623Y013860D01*
X010577Y014091D01*
X010623Y014322D01*
X010571Y014583D01*
X010422Y014805D01*
X010211Y014946D01*
X010211Y015530D01*
X010221Y015541D01*
X010331Y015807D01*
X010402Y015638D01*
X010634Y015406D01*
X010937Y015280D01*
X011265Y015280D01*
X011568Y015406D01*
X011800Y015638D01*
X011925Y015941D01*
X011925Y016269D01*
X011800Y016572D01*
X011767Y016605D01*
X011800Y016638D01*
X011925Y016941D01*
X011925Y017269D01*
X011800Y017572D01*
X011568Y017804D01*
X011265Y017929D01*
X010937Y017929D01*
X010634Y017804D01*
X010402Y017572D01*
X010331Y017402D01*
X010221Y017669D01*
X009942Y017948D01*
X009578Y018099D01*
X009183Y018099D01*
X008818Y017948D01*
X008601Y017730D01*
X008383Y017948D01*
X008019Y018099D01*
X007624Y018099D01*
X007259Y017948D01*
X006980Y017669D01*
X006870Y017402D01*
X006800Y017572D01*
X006568Y017804D01*
X006265Y017929D01*
X005937Y017929D01*
X005634Y017804D01*
X005402Y017572D01*
X005276Y017269D01*
X005276Y016941D01*
X005402Y016638D01*
X005435Y016605D01*
X005402Y016572D01*
X005276Y016269D01*
X005276Y016143D01*
X004755Y015622D01*
X004584Y015450D01*
X004491Y015226D01*
X004491Y012857D01*
X004386Y012752D01*
X004461Y012934D01*
X004461Y013276D01*
X004330Y013592D01*
X004088Y013834D01*
X003772Y013965D01*
X003430Y013965D01*
X003141Y013845D01*
X003141Y014197D01*
X003169Y014225D01*
X003271Y014471D01*
X003271Y014738D01*
X003169Y014984D01*
X002980Y015173D01*
X002734Y015275D01*
X002641Y015275D01*
X002641Y018197D01*
X002669Y018225D01*
X002771Y018471D01*
X002771Y018738D01*
X002669Y018984D01*
X002480Y019173D01*
X002446Y019187D01*
X002824Y019565D01*
X004708Y019565D01*
X004907Y019647D01*
X005059Y019799D01*
X005276Y020016D01*
X005276Y019941D01*
X005402Y019638D01*
X005634Y019406D01*
X005937Y019280D01*
X006265Y019280D01*
X006568Y019406D01*
X006800Y019638D01*
X006925Y019941D01*
X006925Y020269D01*
X006800Y020572D01*
X006568Y020804D01*
X006265Y020929D01*
X006189Y020929D01*
X007061Y021801D01*
X007061Y019712D01*
X007061Y019497D01*
X007143Y019299D01*
X007643Y018799D01*
X007795Y018647D01*
X007993Y018565D01*
X018993Y018565D01*
X019208Y018565D01*
X019407Y018647D01*
X019601Y018841D01*
X019795Y018647D01*
X019993Y018565D01*
X020208Y018565D01*
X031208Y018565D01*
X031407Y018647D01*
X031559Y018799D01*
X032059Y019299D01*
X032141Y019497D01*
X032141Y019712D01*
X032141Y022413D01*
X032439Y022290D01*
X032652Y022290D01*
X033143Y021799D01*
X033295Y021647D01*
X033493Y021565D01*
X035993Y021565D01*
X036208Y021565D01*
X036407Y021647D01*
X037049Y022290D01*
X037263Y022290D01*
X037562Y022414D01*
X037792Y022643D01*
X037861Y022810D01*
X037861Y020911D01*
X037794Y020845D01*
X035469Y020845D01*
X035265Y020929D01*
X034937Y020929D01*
X034634Y020804D01*
X034402Y020572D01*
X034276Y020269D01*
X034276Y019941D01*
X034402Y019638D01*
X034634Y019406D01*
X034937Y019280D01*
X035265Y019280D01*
X035469Y019365D01*
X037794Y019365D01*
X037861Y019298D01*
X037861Y006411D01*
X037294Y005845D01*
X035341Y005845D01*
X035341Y005952D01*
X035266Y006132D01*
X035128Y006270D01*
X034948Y006345D01*
X033253Y006345D01*
X033073Y006270D01*
X032935Y006132D01*
X032861Y005952D01*
X032861Y004257D01*
X032935Y004077D01*
X033073Y003939D01*
X033253Y003865D01*
X034948Y003865D01*
X035128Y003939D01*
X035266Y004077D01*
X035341Y004257D01*
X035341Y004365D01*
X037748Y004365D01*
X038020Y004477D01*
X038228Y004686D01*
X039228Y005686D01*
X039341Y005957D01*
X039341Y006252D01*
X039341Y019752D01*
X039228Y020024D01*
X039147Y020105D01*
X039228Y020186D01*
X039341Y020457D01*
X039341Y028542D01*
X039599Y028393D01*
X039930Y028305D01*
X040272Y028305D01*
X040603Y028393D01*
X040899Y028564D01*
X041101Y028766D01*
X041101Y027163D01*
X041045Y027163D01*
X041045Y027163D01*
X041045Y027163D01*
X040916Y027110D01*
X040801Y027062D01*
X040801Y027062D01*
X040801Y027062D01*
X040739Y027000D01*
X040739Y027000D01*
X040677Y026939D01*
X040552Y026813D01*
X040552Y026813D01*
X040552Y026813D01*
X040505Y026701D01*
X040451Y026569D01*
X040451Y026569D01*
X040450Y026569D01*
X040450Y026438D01*
X040450Y026304D01*
X040450Y026119D01*
X040450Y026015D01*
X040450Y025751D01*
X040472Y025699D01*
X040450Y025647D01*
X040450Y025382D01*
X040472Y025330D01*
X040450Y025279D01*
X040450Y025014D01*
X040450Y024973D01*
X040450Y024972D01*
X040450Y024906D01*
X040450Y024831D01*
X040450Y024831D01*
X040450Y024707D01*
X040450Y024596D01*
X040450Y024463D01*
X040450Y024463D01*
X040450Y024277D01*
X040450Y023909D01*
X040450Y023788D01*
X040450Y023739D01*
X040437Y023674D01*
X040450Y023608D01*
X040450Y023541D01*
X040450Y023500D01*
X040450Y023499D01*
X040450Y023499D01*
X040450Y023432D01*
X040450Y023358D01*
X040450Y023358D01*
X040450Y023254D01*
X040450Y023130D01*
X040450Y023058D01*
X040450Y022990D01*
X040450Y022989D01*
X040450Y022866D01*
X040451Y022866D01*
X040451Y022866D01*
X040505Y022733D01*
X040523Y022692D01*
X040505Y022650D01*
X040451Y022517D01*
X040450Y022517D02*
X040450Y022387D01*
X040450Y022253D01*
X040450Y022253D01*
X040450Y022068D01*
X040450Y021964D01*
X040450Y021699D01*
X040450Y021331D01*
X040450Y021289D01*
X040450Y021289D01*
X040450Y021217D01*
X040450Y021148D01*
X040450Y021148D01*
X040450Y021024D01*
X040450Y020841D01*
X040450Y020676D01*
X040450Y020545D01*
X040450Y020411D01*
X040450Y020226D01*
X040450Y020105D01*
X040450Y019858D01*
X040450Y019489D01*
X040510Y019346D01*
X040504Y019332D01*
X040451Y019203D01*
X040451Y019203D01*
X040450Y019203D01*
X040450Y019079D01*
X040450Y019007D01*
X040450Y018938D01*
X040450Y018938D01*
X040450Y018814D01*
X040450Y018583D01*
X040437Y018517D01*
X040462Y018395D01*
X040437Y018272D01*
X040457Y018174D01*
X040451Y018159D01*
X040451Y018159D01*
X040450Y018159D01*
X040450Y018027D01*
X040450Y017894D01*
X040451Y017894D01*
X040456Y017880D01*
X040535Y017689D01*
X040505Y017616D01*
X040451Y017484D01*
X040450Y017484D01*
X040450Y017360D01*
X040450Y017291D01*
X040450Y017219D01*
X040450Y017096D01*
X040451Y017096D01*
X040451Y017096D01*
X040504Y016966D01*
X040552Y016851D01*
X040675Y016728D01*
X040739Y016664D01*
X040801Y016602D01*
X041045Y016501D01*
X041101Y016501D01*
X041101Y012582D01*
X041057Y012564D01*
X040979Y012597D01*
X040872Y012597D01*
X040735Y012597D01*
X040602Y012597D01*
X040602Y012597D01*
X040602Y012597D01*
X040484Y012548D01*
X040352Y012493D01*
X040352Y012493D01*
X040352Y012493D01*
X040251Y012392D01*
X040161Y012302D01*
X040155Y012296D01*
X040054Y012195D01*
X040054Y012195D01*
X040054Y012195D01*
X040014Y012099D01*
X039950Y011945D01*
X039950Y011811D01*
X039950Y011732D01*
X039950Y011461D01*
X040006Y011328D01*
X039950Y011194D01*
X039950Y010924D01*
X040006Y010790D01*
X039950Y010656D01*
X039950Y010519D01*
X039950Y010172D01*
X039984Y010092D01*
X039950Y010012D01*
X039950Y010012D01*
X039950Y010012D01*
X039950Y009878D01*
X039950Y009798D01*
X039950Y009528D01*
X040054Y009278D01*
X040206Y009125D01*
X040161Y009079D01*
X040155Y009073D01*
X040054Y008973D01*
X040054Y008973D01*
X040054Y008973D01*
X040014Y008876D01*
X039950Y008723D01*
X039950Y008723D01*
X039950Y008723D01*
X039950Y008589D01*
X039950Y008132D01*
X040028Y007945D01*
X039950Y007758D01*
X039950Y007487D01*
X039961Y007461D01*
X039950Y007434D01*
X039950Y007434D01*
X039950Y007434D01*
X039950Y007288D01*
X039950Y007220D01*
X039950Y006950D01*
X039961Y006923D01*
X039950Y006896D01*
X039950Y006412D01*
X039984Y006332D01*
X039950Y006251D01*
X039950Y005981D01*
X039983Y005903D01*
X039950Y005824D01*
X039950Y005554D01*
X039961Y005527D01*
X039950Y005500D01*
X039950Y005363D01*
X039950Y004909D01*
X040054Y004659D01*
X040100Y004614D01*
X040054Y004568D01*
X039950Y004318D01*
X039950Y004047D01*
X039983Y003969D01*
X039950Y003891D01*
X039950Y003620D01*
X040054Y003370D01*
X040245Y003179D01*
X040495Y003076D01*
X040766Y003076D01*
X041101Y003076D01*
X041101Y002443D01*
X040899Y002645D01*
X040603Y002816D01*
X040272Y002905D01*
X039930Y002905D01*
X039599Y002816D01*
X039303Y002645D01*
X039061Y002403D01*
X038889Y002106D01*
X038801Y001776D01*
X038801Y001434D01*
X038889Y001105D01*
X030170Y001105D01*
X030170Y001121D01*
X030170Y001257D01*
X030170Y001389D01*
X030170Y001389D01*
X030170Y001389D01*
X030124Y001501D01*
X030067Y001637D01*
X030067Y001637D01*
X030067Y001638D01*
X029982Y001722D01*
X030958Y002698D01*
X031110Y002850D01*
X031192Y003048D01*
X031192Y004313D01*
X031244Y004335D01*
X031382Y004473D01*
X031457Y004653D01*
X031457Y005556D01*
X031382Y005737D01*
X031264Y005855D01*
X031382Y005973D01*
X031457Y006153D01*
X031457Y007056D01*
X031382Y007237D01*
X031264Y007355D01*
X031382Y007473D01*
X031457Y007653D01*
X031457Y007669D01*
X032981Y007669D01*
X033109Y007448D01*
X033339Y007217D01*
X033622Y007054D01*
X033938Y006969D01*
X034264Y006969D01*
X034579Y007054D01*
X034862Y007217D01*
X035093Y007448D01*
X035256Y007731D01*
X035341Y008046D01*
X035341Y008298D01*
X035728Y008686D01*
X035841Y008957D01*
X035841Y009252D01*
X035841Y012736D01*
X035925Y012941D01*
X035925Y013269D01*
X035800Y013572D01*
X035568Y013804D01*
X035265Y013929D01*
X034937Y013929D01*
X034634Y013804D01*
X034610Y013780D01*
X034610Y013994D01*
X034586Y014053D01*
X034610Y014111D01*
X034610Y014111D01*
X034610Y014378D01*
X034610Y014455D01*
X034508Y014701D01*
X034319Y014889D01*
X034211Y014934D01*
X034211Y015530D01*
X034221Y015541D01*
X034331Y015807D01*
X034402Y015638D01*
X034634Y015406D01*
X034937Y015280D01*
X035265Y015280D01*
X035568Y015406D01*
X035800Y015638D01*
X035925Y015941D01*
X035925Y016269D01*
X035800Y016572D01*
X035767Y016605D01*
X035800Y016638D01*
X035925Y016941D01*
X035925Y017269D01*
X035800Y017572D01*
X035568Y017804D01*
X035265Y017929D01*
X034937Y017929D01*
X034634Y017804D01*
X034402Y017572D01*
X034331Y017402D01*
X034221Y017669D01*
X033942Y017948D01*
X033578Y018099D01*
X033183Y018099D01*
X032818Y017948D01*
X032601Y017730D01*
X032383Y017948D01*
X032019Y018099D01*
X031624Y018099D01*
X031259Y017948D01*
X030980Y017669D01*
X030870Y017402D01*
X030800Y017572D01*
X030568Y017804D01*
X030265Y017929D01*
X029937Y017929D01*
X029634Y017804D01*
X029402Y017572D01*
X029276Y017269D01*
X029276Y016941D01*
X029402Y016638D01*
X029435Y016605D01*
X029402Y016572D01*
X029276Y016269D01*
X029276Y016143D01*
X028584Y015450D01*
X028491Y015226D01*
X028491Y014983D01*
X028491Y012857D01*
X028386Y012752D01*
X028461Y012934D01*
X028461Y013276D01*
X028330Y013592D01*
X028088Y013834D01*
X027772Y013965D01*
X027430Y013965D01*
X027141Y013845D01*
X027141Y014197D01*
X027169Y014225D01*
X027271Y014471D01*
X027271Y014738D01*
X027169Y014984D01*
X026980Y015173D01*
X026734Y015275D01*
X026467Y015275D01*
X026351Y015226D01*
X026234Y015275D01*
X025967Y015275D01*
X025721Y015173D01*
X025533Y014984D01*
X025431Y014738D01*
X025431Y014471D01*
X025533Y014225D01*
X025561Y014197D01*
X025561Y013025D01*
X025512Y013045D01*
X025377Y013045D01*
X025019Y013045D01*
X024745Y013045D01*
X024612Y013045D01*
X024251Y013045D01*
X024003Y012942D01*
X023871Y012810D01*
X023925Y012941D01*
X023925Y013269D01*
X023800Y013572D01*
X023568Y013804D01*
X023265Y013929D01*
X022937Y013929D01*
X022634Y013804D01*
X022402Y013572D01*
X022276Y013269D01*
X022276Y012941D01*
X022402Y012638D01*
X022561Y012479D01*
X022561Y011207D01*
X022643Y011009D01*
X022795Y010857D01*
X024421Y009231D01*
X024421Y008877D01*
X024430Y008855D01*
X024421Y008832D01*
X024421Y008615D01*
X024295Y008562D01*
X024143Y008411D01*
X024061Y008212D01*
X024061Y007997D01*
X024061Y006497D01*
X024143Y006299D01*
X024295Y006147D01*
X024421Y006095D01*
X024421Y005877D01*
X024476Y005744D01*
X024377Y005645D01*
X023654Y005645D01*
X023781Y006089D02*
X024421Y006089D01*
X024061Y006587D02*
X023781Y006587D01*
X023781Y007086D02*
X024061Y007086D01*
X024061Y007584D02*
X023781Y007584D01*
X023781Y008083D02*
X024061Y008083D01*
X023781Y008581D02*
X024341Y008581D01*
X024421Y009080D02*
X023781Y009080D01*
X023640Y009579D02*
X024073Y009579D01*
X023575Y010077D02*
X022289Y010077D01*
X022461Y010576D02*
X023076Y010576D01*
X022616Y011074D02*
X022337Y011074D01*
X022211Y011573D02*
X022561Y011573D01*
X022561Y012071D02*
X022211Y012071D01*
X022211Y012570D02*
X022470Y012570D01*
X022276Y013068D02*
X022211Y013068D01*
X022390Y013567D02*
X022400Y013567D01*
X022591Y014065D02*
X025561Y014065D01*
X025561Y013567D02*
X023802Y013567D01*
X023925Y013068D02*
X025561Y013068D01*
X025512Y013045D02*
X025512Y013045D01*
X025512Y013045D01*
X024745Y013045D02*
X024745Y013045D01*
X023742Y012580D02*
X023711Y012504D01*
X023711Y012236D01*
X023711Y012054D01*
X023711Y011785D01*
X023814Y011537D01*
X024003Y011347D01*
X024251Y011245D01*
X024609Y011245D01*
X024745Y011245D01*
X024787Y011245D01*
X025019Y011245D01*
X025287Y011245D01*
X025293Y011247D01*
X025479Y011170D01*
X025561Y011170D01*
X025561Y009725D01*
X025454Y009725D01*
X023641Y011538D01*
X023641Y012479D01*
X023742Y012580D01*
X023738Y012570D02*
X023732Y012570D01*
X023711Y012071D02*
X023641Y012071D01*
X023641Y011573D02*
X023799Y011573D01*
X024105Y011074D02*
X025561Y011074D01*
X025561Y010576D02*
X024604Y010576D01*
X025102Y010077D02*
X025561Y010077D01*
X024745Y011245D02*
X024745Y011245D01*
X027141Y012205D02*
X027141Y012364D01*
X027253Y012318D01*
X027141Y012205D01*
X027948Y012318D02*
X027950Y012316D01*
X027953Y012320D01*
X027948Y012318D01*
X028461Y013068D02*
X028491Y013068D01*
X028491Y013567D02*
X028340Y013567D01*
X028491Y014065D02*
X027141Y014065D01*
X027271Y014564D02*
X028491Y014564D01*
X028491Y015062D02*
X027090Y015062D01*
X025611Y015062D02*
X022211Y015062D01*
X022564Y014564D02*
X025431Y014564D01*
X023723Y015561D02*
X028694Y015561D01*
X029193Y016060D02*
X023925Y016060D01*
X023806Y016558D02*
X029396Y016558D01*
X029276Y017057D02*
X023925Y017057D01*
X023807Y017555D02*
X029395Y017555D01*
X030807Y017555D02*
X030933Y017555D01*
X031516Y018054D02*
X021686Y018054D01*
X021075Y018054D02*
X020127Y018054D01*
X019516Y018054D02*
X009686Y018054D01*
X009075Y018054D02*
X008127Y018054D01*
X007516Y018054D02*
X002641Y018054D01*
X002771Y018552D02*
X037861Y018552D01*
X037861Y018054D02*
X033686Y018054D01*
X033075Y018054D02*
X032127Y018054D01*
X031811Y019051D02*
X037861Y019051D01*
X038601Y019605D02*
X038601Y006105D01*
X037601Y005105D01*
X034101Y005105D01*
X032861Y005092D02*
X031457Y005092D01*
X031432Y004593D02*
X032861Y004593D01*
X032928Y004095D02*
X031192Y004095D01*
X031192Y003596D02*
X039960Y003596D01*
X039950Y004095D02*
X035273Y004095D01*
X032861Y005590D02*
X031443Y005590D01*
X031430Y006089D02*
X032917Y006089D01*
X033567Y007086D02*
X031445Y007086D01*
X031428Y007584D02*
X033030Y007584D01*
X034101Y008209D02*
X034205Y008209D01*
X035101Y009105D01*
X035101Y013105D01*
X035925Y013068D02*
X037861Y013068D01*
X037861Y012570D02*
X035841Y012570D01*
X035841Y012071D02*
X037861Y012071D01*
X037861Y011573D02*
X035841Y011573D01*
X035841Y011074D02*
X037861Y011074D01*
X037861Y010576D02*
X035841Y010576D01*
X035841Y010077D02*
X037861Y010077D01*
X037861Y009579D02*
X035841Y009579D01*
X035841Y009080D02*
X037861Y009080D01*
X037861Y008581D02*
X035624Y008581D01*
X035341Y008083D02*
X037861Y008083D01*
X037861Y007584D02*
X035172Y007584D01*
X034635Y007086D02*
X037861Y007086D01*
X037861Y006587D02*
X031457Y006587D01*
X028937Y005855D02*
X028819Y005737D01*
X028781Y005645D01*
X028493Y005645D01*
X028341Y005582D01*
X028794Y006034D01*
X028819Y005973D01*
X028937Y005855D01*
X028362Y005590D02*
X028350Y005590D01*
X028794Y004534D02*
X028819Y004473D01*
X028957Y004335D01*
X029137Y004260D01*
X029962Y004260D01*
X030101Y004318D01*
X030112Y004313D01*
X030112Y003380D01*
X029961Y003228D01*
X029961Y003461D01*
X029457Y003965D01*
X028745Y003965D01*
X028641Y003861D01*
X028641Y004381D01*
X028794Y004534D01*
X028641Y004095D02*
X030112Y004095D01*
X030112Y003596D02*
X029826Y003596D01*
X030859Y002599D02*
X039256Y002599D01*
X038888Y002100D02*
X030360Y002100D01*
X030082Y001602D02*
X038801Y001602D01*
X040442Y003097D02*
X031192Y003097D01*
X030170Y001121D02*
X030170Y001121D01*
X035284Y006089D02*
X037538Y006089D01*
X038634Y005092D02*
X039950Y005092D01*
X040079Y004593D02*
X038136Y004593D01*
X039133Y005590D02*
X039950Y005590D01*
X039950Y005500D02*
X039950Y005500D01*
X039950Y005500D01*
X039950Y006089D02*
X039341Y006089D01*
X039341Y006587D02*
X039950Y006587D01*
X039950Y007086D02*
X039341Y007086D01*
X039341Y007584D02*
X039950Y007584D01*
X039971Y008083D02*
X039341Y008083D01*
X039341Y008581D02*
X039950Y008581D01*
X040161Y009079D02*
X040161Y009079D01*
X040161Y009080D02*
X039341Y009080D01*
X039341Y009579D02*
X039950Y009579D01*
X039977Y010077D02*
X039341Y010077D01*
X039341Y010576D02*
X039950Y010576D01*
X039950Y010656D02*
X039950Y010656D01*
X039950Y010656D01*
X039950Y011074D02*
X039341Y011074D01*
X039341Y011573D02*
X039950Y011573D01*
X039950Y011945D02*
X039950Y011945D01*
X039950Y011945D01*
X040002Y012071D02*
X039341Y012071D01*
X039341Y012570D02*
X040536Y012570D01*
X040872Y012597D02*
X040872Y012597D01*
X041044Y012570D02*
X041070Y012570D01*
X041101Y013068D02*
X039341Y013068D01*
X039341Y013567D02*
X041101Y013567D01*
X041101Y014065D02*
X039341Y014065D01*
X039341Y014564D02*
X041101Y014564D01*
X041101Y015062D02*
X039341Y015062D01*
X039341Y015561D02*
X041101Y015561D01*
X041101Y016060D02*
X039341Y016060D01*
X039341Y016558D02*
X040908Y016558D01*
X040739Y016664D02*
X040739Y016664D01*
X040552Y016851D02*
X040552Y016851D01*
X040552Y016851D01*
X040467Y017057D02*
X039341Y017057D01*
X039341Y017555D02*
X040480Y017555D01*
X040451Y017484D02*
X040451Y017484D01*
X040450Y017360D02*
X040450Y017360D01*
X040450Y017219D02*
X040450Y017219D01*
X040451Y017894D02*
X040451Y017894D01*
X040450Y018054D02*
X039341Y018054D01*
X039341Y018552D02*
X040444Y018552D01*
X040450Y019051D02*
X039341Y019051D01*
X039341Y019549D02*
X040450Y019549D01*
X040450Y019079D02*
X040450Y019079D01*
X040450Y020048D02*
X039204Y020048D01*
X039341Y020546D02*
X040450Y020546D01*
X040450Y020411D02*
X040450Y020411D01*
X040450Y021045D02*
X039341Y021045D01*
X039341Y021544D02*
X040450Y021544D01*
X040450Y022042D02*
X039341Y022042D01*
X039341Y022541D02*
X040460Y022541D01*
X040451Y022517D02*
X040451Y022517D01*
X040450Y022517D01*
X040450Y023039D02*
X039341Y023039D01*
X039341Y023538D02*
X040450Y023538D01*
X040450Y024036D02*
X039341Y024036D01*
X039341Y024535D02*
X040450Y024535D01*
X040450Y024972D02*
X040450Y024972D01*
X040450Y025033D02*
X039341Y025033D01*
X039341Y025532D02*
X040450Y025532D01*
X040450Y026030D02*
X039341Y026030D01*
X039341Y026529D02*
X040450Y026529D01*
X040450Y026304D02*
X040450Y026304D01*
X040766Y027028D02*
X039341Y027028D01*
X039341Y027526D02*
X041101Y027526D01*
X041101Y028025D02*
X039341Y028025D01*
X039341Y028523D02*
X039374Y028523D01*
X040827Y028523D02*
X041101Y028523D01*
X041101Y030443D02*
X040899Y030645D01*
X040603Y030816D01*
X040272Y030905D01*
X039930Y030905D01*
X039599Y030816D01*
X039303Y030645D01*
X039205Y030547D01*
X038301Y031451D01*
X041101Y031451D01*
X041101Y030443D01*
X041101Y030517D02*
X041027Y030517D01*
X041101Y031016D02*
X038736Y031016D01*
X038601Y030105D02*
X037601Y031105D01*
X037244Y030415D02*
X036837Y030415D01*
X037861Y029391D01*
X037861Y029798D01*
X037244Y030415D01*
X037233Y030019D02*
X037640Y030019D01*
X037732Y029520D02*
X037861Y029520D01*
X038601Y030105D02*
X038601Y020605D01*
X038101Y020105D01*
X038601Y019605D01*
X038101Y020105D02*
X035101Y020105D01*
X034490Y019549D02*
X032141Y019549D01*
X032141Y020048D02*
X034276Y020048D01*
X034391Y020546D02*
X032141Y020546D01*
X032141Y021045D02*
X037861Y021045D01*
X037861Y021544D02*
X032141Y021544D01*
X032141Y022042D02*
X032900Y022042D01*
X033824Y022645D02*
X033416Y023053D01*
X033416Y023267D01*
X033375Y023365D01*
X033954Y023365D01*
X034248Y023365D01*
X034286Y023380D01*
X034286Y022682D01*
X034301Y022645D01*
X033824Y022645D01*
X033430Y023039D02*
X034286Y023039D01*
X034101Y024105D02*
X034601Y024605D01*
X034601Y026605D01*
X035445Y026585D02*
X035445Y026082D01*
X035341Y025831D01*
X035341Y024457D01*
X035228Y024186D01*
X035020Y023977D01*
X035020Y023977D01*
X034962Y023920D01*
X035523Y023920D01*
X035703Y023845D01*
X035841Y023707D01*
X035916Y023527D01*
X035916Y022683D01*
X036286Y023053D01*
X036286Y023267D01*
X036410Y023566D01*
X036639Y023796D01*
X036820Y023871D01*
X036861Y023911D01*
X036861Y026468D01*
X036738Y026417D01*
X036464Y026417D01*
X036211Y026521D01*
X036168Y026565D01*
X035493Y026565D01*
X035445Y026585D01*
X035445Y026529D02*
X036203Y026529D01*
X036861Y026030D02*
X035424Y026030D01*
X035341Y025532D02*
X036861Y025532D01*
X036861Y025033D02*
X035341Y025033D01*
X035341Y024535D02*
X036861Y024535D01*
X036861Y024036D02*
X035079Y024036D01*
X035911Y023538D02*
X036398Y023538D01*
X036272Y023039D02*
X035916Y023039D01*
X037101Y023105D02*
X037601Y023605D01*
X037601Y028605D01*
X036101Y030105D01*
X036141Y029018D02*
X036861Y028298D01*
X036861Y027742D01*
X036738Y027793D01*
X036464Y027793D01*
X036211Y027688D01*
X036168Y027645D01*
X035904Y027645D01*
X036059Y027799D01*
X036141Y027997D01*
X036141Y028212D01*
X036141Y028997D01*
X036141Y029018D01*
X036141Y028523D02*
X036636Y028523D01*
X036861Y028025D02*
X036141Y028025D01*
X035061Y028328D02*
X035061Y028881D01*
X034945Y028997D01*
X034945Y028213D01*
X035061Y028328D01*
X035061Y028523D02*
X034945Y028523D01*
X033601Y026605D02*
X033601Y026105D01*
X033101Y025105D01*
X029101Y025105D01*
X028601Y026105D01*
X028601Y026605D01*
X027601Y026605D02*
X027601Y024605D01*
X028101Y024105D01*
X034101Y024105D01*
X033802Y024852D02*
X033861Y024911D01*
X033861Y024970D01*
X033802Y024852D01*
X030826Y023365D02*
X030786Y023267D01*
X030786Y022943D01*
X030910Y022643D01*
X031061Y022492D01*
X031061Y019828D01*
X030877Y019645D01*
X030803Y019645D01*
X030925Y019941D01*
X030925Y020269D01*
X030800Y020572D01*
X030568Y020804D01*
X030265Y020929D01*
X029937Y020929D01*
X029732Y020845D01*
X028424Y020845D01*
X028461Y020934D01*
X028461Y021276D01*
X028341Y021566D01*
X028341Y023365D01*
X030826Y023365D01*
X030786Y023039D02*
X028341Y023039D01*
X028341Y022541D02*
X031012Y022541D01*
X031061Y022042D02*
X028341Y022042D01*
X028350Y021544D02*
X031061Y021544D01*
X031061Y021045D02*
X028461Y021045D01*
X027601Y021105D02*
X027601Y026605D01*
X026295Y027562D02*
X026143Y027411D01*
X026061Y027212D01*
X026061Y021538D01*
X026017Y021494D01*
X025913Y021242D01*
X025913Y020968D01*
X025964Y020845D01*
X023469Y020845D01*
X023265Y020929D01*
X022937Y020929D01*
X022634Y020804D01*
X022402Y020572D01*
X022276Y020269D01*
X022276Y019941D01*
X022399Y019645D01*
X020324Y019645D01*
X020141Y019828D01*
X020141Y022413D01*
X020439Y022290D01*
X020652Y022290D01*
X021143Y021799D01*
X021295Y021647D01*
X021493Y021565D01*
X023993Y021565D01*
X024208Y021565D01*
X024407Y021647D01*
X025049Y022290D01*
X025263Y022290D01*
X025562Y022414D01*
X025792Y022643D01*
X025916Y022943D01*
X025916Y023267D01*
X025841Y023448D01*
X025841Y028752D01*
X025728Y029024D01*
X025520Y029232D01*
X024687Y030065D01*
X026193Y030065D01*
X026221Y030037D01*
X026467Y029935D01*
X026734Y029935D01*
X026980Y030037D01*
X027169Y030225D01*
X027247Y030415D01*
X028361Y030415D01*
X028361Y029765D01*
X028269Y029803D01*
X027933Y029803D01*
X027622Y029675D01*
X027385Y029437D01*
X027256Y029127D01*
X027256Y028145D01*
X027208Y028145D01*
X026993Y028145D01*
X026795Y028062D01*
X026295Y027562D01*
X026258Y027526D02*
X025841Y027526D01*
X025841Y027028D02*
X026061Y027028D01*
X026061Y026529D02*
X025841Y026529D01*
X025841Y026030D02*
X026061Y026030D01*
X026061Y025532D02*
X025841Y025532D01*
X025841Y025033D02*
X026061Y025033D01*
X026061Y024535D02*
X025841Y024535D01*
X025841Y024036D02*
X026061Y024036D01*
X026061Y023538D02*
X025841Y023538D01*
X025916Y023039D02*
X026061Y023039D01*
X026061Y022541D02*
X025689Y022541D01*
X026061Y022042D02*
X024802Y022042D01*
X023916Y022683D02*
X023916Y023527D01*
X023841Y023707D01*
X023703Y023845D01*
X023523Y023920D01*
X022962Y023920D01*
X023020Y023977D01*
X023228Y024186D01*
X023341Y024457D01*
X023341Y025831D01*
X023445Y026082D01*
X023445Y027127D01*
X023428Y027168D01*
X023907Y027647D01*
X024059Y027799D01*
X024141Y027997D01*
X024141Y028518D01*
X024361Y028298D01*
X024361Y023448D01*
X024286Y023267D01*
X024286Y023053D01*
X023916Y022683D01*
X023916Y023039D02*
X024272Y023039D01*
X024361Y023538D02*
X023911Y023538D01*
X024361Y024036D02*
X023079Y024036D01*
X023341Y024535D02*
X024361Y024535D01*
X024361Y025033D02*
X023341Y025033D01*
X023341Y025532D02*
X024361Y025532D01*
X024361Y026030D02*
X023424Y026030D01*
X023445Y026529D02*
X024361Y026529D01*
X024361Y027028D02*
X023445Y027028D01*
X023786Y027526D02*
X024361Y027526D01*
X024361Y028025D02*
X024141Y028025D01*
X025101Y028605D02*
X025101Y023105D01*
X026061Y021544D02*
X020141Y021544D01*
X020141Y021045D02*
X025913Y021045D01*
X023101Y020105D02*
X030101Y020105D01*
X030925Y020048D02*
X031061Y020048D01*
X031061Y020546D02*
X030810Y020546D01*
X034268Y017555D02*
X034395Y017555D01*
X034372Y016709D02*
X034402Y016638D01*
X034435Y016605D01*
X034402Y016572D01*
X034372Y016501D01*
X034372Y016709D01*
X034372Y016558D02*
X034396Y016558D01*
X034478Y015561D02*
X034230Y015561D01*
X034211Y015062D02*
X037861Y015062D01*
X037861Y014564D02*
X034564Y014564D01*
X034591Y014065D02*
X037861Y014065D01*
X037861Y013567D02*
X035802Y013567D01*
X034279Y013276D02*
X034211Y013248D01*
X034211Y011211D01*
X034330Y011092D01*
X034361Y011017D01*
X034361Y012736D01*
X034276Y012941D01*
X034276Y013269D01*
X034279Y013276D01*
X034276Y013068D02*
X034211Y013068D01*
X034211Y012570D02*
X034361Y012570D01*
X034361Y012071D02*
X034211Y012071D01*
X034211Y011573D02*
X034361Y011573D01*
X034337Y011074D02*
X034361Y011074D01*
X034361Y010192D02*
X034361Y009423D01*
X034264Y009449D01*
X033938Y009449D01*
X033622Y009365D01*
X033339Y009202D01*
X033109Y008971D01*
X032981Y008749D01*
X031369Y008749D01*
X031244Y008874D01*
X031064Y008949D01*
X030240Y008949D01*
X030101Y008892D01*
X029962Y008949D01*
X029137Y008949D01*
X028957Y008874D01*
X028821Y008739D01*
X028734Y008775D01*
X028467Y008775D01*
X028221Y008673D01*
X028033Y008484D01*
X027931Y008238D01*
X027931Y007971D01*
X028011Y007778D01*
X027078Y006845D01*
X027141Y006997D01*
X027141Y010004D01*
X027290Y009855D01*
X027911Y009855D01*
X028351Y010294D01*
X028351Y010915D01*
X028257Y011009D01*
X028446Y011088D01*
X029446Y012088D01*
X029618Y012259D01*
X029672Y012390D01*
X029937Y012280D01*
X030265Y012280D01*
X030568Y012406D01*
X030800Y012638D01*
X030925Y012941D01*
X030925Y013191D01*
X031004Y013191D01*
X031024Y013199D01*
X031044Y013191D01*
X031311Y013191D01*
X031560Y013191D01*
X031694Y013191D01*
X031694Y013191D01*
X031695Y013191D01*
X031753Y013215D01*
X031812Y013191D01*
X032078Y013191D01*
X032137Y013215D01*
X032195Y013191D01*
X032480Y013191D01*
X032615Y013191D01*
X032615Y013191D01*
X032845Y013191D01*
X032850Y013193D01*
X032991Y013134D01*
X032991Y011211D01*
X032872Y011092D01*
X032741Y010776D01*
X032741Y010434D01*
X032872Y010118D01*
X033114Y009876D01*
X033430Y009745D01*
X033772Y009745D01*
X034088Y009876D01*
X034330Y010118D01*
X034361Y010192D01*
X034361Y010077D02*
X034289Y010077D01*
X034361Y009579D02*
X027141Y009579D01*
X027141Y009080D02*
X033218Y009080D01*
X032912Y010077D02*
X030289Y010077D01*
X030330Y010118D02*
X030088Y009876D01*
X029772Y009745D01*
X029430Y009745D01*
X029114Y009876D01*
X028872Y010118D01*
X028741Y010434D01*
X028741Y010776D01*
X028872Y011092D01*
X029114Y011334D01*
X029430Y011465D01*
X029772Y011465D01*
X030088Y011334D01*
X030330Y011092D01*
X030461Y010776D01*
X030461Y010434D01*
X030330Y010118D01*
X030461Y010576D02*
X032741Y010576D01*
X032864Y011074D02*
X030337Y011074D01*
X029430Y012071D02*
X032991Y012071D01*
X032991Y011573D02*
X028931Y011573D01*
X028864Y011074D02*
X028414Y011074D01*
X028351Y010576D02*
X028741Y010576D01*
X028912Y010077D02*
X028134Y010077D01*
X028130Y008581D02*
X027141Y008581D01*
X027141Y008083D02*
X027931Y008083D01*
X027817Y007584D02*
X027141Y007584D01*
X027141Y007086D02*
X027318Y007086D01*
X026860Y006628D02*
X026641Y006408D01*
X026641Y006565D01*
X026708Y006565D01*
X026860Y006628D01*
X026820Y006587D02*
X026763Y006587D01*
X022001Y009080D02*
X021889Y009080D01*
X022142Y009579D02*
X021574Y009579D01*
X020912Y010077D02*
X020371Y010077D01*
X020741Y010576D02*
X018461Y010576D01*
X018337Y011074D02*
X020864Y011074D01*
X020991Y011573D02*
X016931Y011573D01*
X016864Y011074D02*
X016414Y011074D01*
X016351Y010576D02*
X016741Y010576D01*
X015297Y009855D02*
X015167Y009725D01*
X015141Y009725D01*
X015141Y010004D01*
X015290Y009855D01*
X015297Y009855D01*
X013561Y009653D02*
X013561Y011170D01*
X013479Y011170D01*
X013293Y011247D01*
X013287Y011245D01*
X013019Y011245D01*
X012787Y011245D01*
X012745Y011245D01*
X012745Y011245D01*
X012609Y011245D01*
X012251Y011245D01*
X012003Y011347D01*
X011814Y011537D01*
X011711Y011785D01*
X011711Y012054D01*
X011711Y012236D01*
X011711Y012504D01*
X011742Y012580D01*
X011568Y012406D01*
X011265Y012280D01*
X010937Y012280D01*
X010634Y012406D01*
X010402Y012638D01*
X010276Y012941D01*
X010276Y013269D01*
X010283Y013284D01*
X010211Y013236D01*
X010211Y011211D01*
X010330Y011092D01*
X010461Y010776D01*
X010461Y010434D01*
X010330Y010118D01*
X010088Y009876D01*
X009772Y009745D01*
X009430Y009745D01*
X009114Y009876D01*
X008872Y010118D01*
X008741Y010434D01*
X008741Y010776D01*
X008872Y011092D01*
X008991Y011211D01*
X008991Y013134D01*
X008850Y013193D01*
X008845Y013191D01*
X008615Y013191D01*
X008615Y013191D01*
X008480Y013191D01*
X008195Y013191D01*
X008137Y013215D01*
X008078Y013191D01*
X007812Y013191D01*
X007753Y013215D01*
X007695Y013191D01*
X007694Y013191D01*
X007694Y013191D01*
X007560Y013191D01*
X007541Y013191D01*
X007275Y013191D01*
X007044Y013191D01*
X007024Y013199D01*
X007004Y013191D01*
X006925Y013191D01*
X006925Y012941D01*
X006800Y012638D01*
X006568Y012406D01*
X006265Y012280D01*
X005937Y012280D01*
X005672Y012390D01*
X005618Y012259D01*
X004618Y011259D01*
X004446Y011088D01*
X004257Y011009D01*
X004351Y010915D01*
X004351Y010294D01*
X003911Y009855D01*
X003290Y009855D01*
X003141Y010004D01*
X003141Y009828D01*
X003324Y009645D01*
X010993Y009645D01*
X011208Y009645D01*
X011407Y009562D01*
X011519Y009450D01*
X011533Y009484D01*
X011721Y009673D01*
X011967Y009775D01*
X012234Y009775D01*
X012374Y009717D01*
X012393Y009725D01*
X013388Y009725D01*
X013561Y009653D01*
X013561Y010077D02*
X010289Y010077D01*
X010461Y010576D02*
X013561Y010576D01*
X013561Y011074D02*
X010337Y011074D01*
X010211Y011573D02*
X011799Y011573D01*
X011711Y012071D02*
X010211Y012071D01*
X010211Y012570D02*
X010470Y012570D01*
X010276Y013068D02*
X010211Y013068D01*
X010582Y014065D02*
X013561Y014065D01*
X013561Y013567D02*
X011802Y013567D01*
X011925Y013068D02*
X013561Y013068D01*
X013512Y013045D02*
X013512Y013045D01*
X013512Y013045D01*
X012745Y013045D02*
X012745Y013045D01*
X011738Y012570D02*
X011732Y012570D01*
X010575Y014564D02*
X013431Y014564D01*
X013611Y015062D02*
X010211Y015062D01*
X010230Y015561D02*
X010478Y015561D01*
X010372Y016501D02*
X010372Y016709D01*
X010402Y016638D01*
X010435Y016605D01*
X010402Y016572D01*
X010372Y016501D01*
X010372Y016558D02*
X010396Y016558D01*
X010395Y017555D02*
X010268Y017555D01*
X011807Y017555D02*
X017395Y017555D01*
X017276Y017057D02*
X011925Y017057D01*
X011806Y016558D02*
X017396Y016558D01*
X017193Y016060D02*
X011925Y016060D01*
X011723Y015561D02*
X016694Y015561D01*
X016491Y015062D02*
X015090Y015062D01*
X015271Y014564D02*
X016491Y014564D01*
X016491Y014065D02*
X015141Y014065D01*
X016340Y013567D02*
X016491Y013567D01*
X016461Y013068D02*
X016491Y013068D01*
X015953Y012320D02*
X015950Y012316D01*
X015948Y012318D01*
X015953Y012320D01*
X015253Y012318D02*
X015141Y012364D01*
X015141Y012205D01*
X015253Y012318D01*
X017430Y012071D02*
X020991Y012071D01*
X020991Y012570D02*
X018732Y012570D01*
X018925Y013068D02*
X020991Y013068D01*
X020991Y014991D02*
X020809Y014991D01*
X020579Y014991D01*
X020462Y014991D01*
X020462Y014991D01*
X020327Y014991D01*
X020195Y014991D01*
X019658Y014991D01*
X019541Y014991D01*
X019541Y014991D01*
X019406Y014991D01*
X019275Y014991D01*
X019044Y014991D01*
X019024Y014983D01*
X019004Y014991D01*
X018738Y014991D01*
X018737Y014991D01*
X018654Y014957D01*
X018491Y014889D01*
X018303Y014701D01*
X018303Y014701D01*
X018303Y014701D01*
X018287Y014662D01*
X018201Y014455D01*
X018201Y014188D01*
X018201Y013929D01*
X017937Y013929D01*
X017711Y013836D01*
X017711Y014852D01*
X018139Y015280D01*
X018265Y015280D01*
X018568Y015406D01*
X018800Y015638D01*
X018870Y015807D01*
X018980Y015541D01*
X019259Y015262D01*
X019624Y015111D01*
X020019Y015111D01*
X020383Y015262D01*
X020601Y015479D01*
X020818Y015262D01*
X020991Y015190D01*
X020991Y014991D01*
X020991Y015062D02*
X017921Y015062D01*
X017711Y014564D02*
X018246Y014564D01*
X018201Y014065D02*
X017711Y014065D01*
X018723Y015561D02*
X018972Y015561D01*
X018829Y016501D02*
X018829Y016709D01*
X018800Y016638D01*
X018767Y016605D01*
X018800Y016572D01*
X018829Y016501D01*
X018829Y016558D02*
X018806Y016558D01*
X018807Y017555D02*
X018933Y017555D01*
X018877Y019645D02*
X018803Y019645D01*
X018925Y019941D01*
X018925Y020269D01*
X018800Y020572D01*
X018568Y020804D01*
X018265Y020929D01*
X017937Y020929D01*
X017732Y020845D01*
X016424Y020845D01*
X016461Y020934D01*
X016461Y021276D01*
X016341Y021565D01*
X016341Y023365D01*
X018826Y023365D01*
X018786Y023267D01*
X018786Y022943D01*
X018910Y022643D01*
X019061Y022492D01*
X019061Y019828D01*
X018877Y019645D01*
X018925Y020048D02*
X019061Y020048D01*
X019061Y020546D02*
X018810Y020546D01*
X018101Y020105D02*
X011101Y020105D01*
X011469Y020845D02*
X011265Y020929D01*
X010937Y020929D01*
X010634Y020804D01*
X010402Y020572D01*
X010276Y020269D01*
X010276Y019941D01*
X010399Y019645D01*
X008324Y019645D01*
X008141Y019828D01*
X008141Y022413D01*
X008439Y022290D01*
X008652Y022290D01*
X009143Y021799D01*
X009295Y021647D01*
X009493Y021565D01*
X011993Y021565D01*
X012208Y021565D01*
X012407Y021647D01*
X013049Y022290D01*
X013263Y022290D01*
X013561Y022413D01*
X013561Y021512D01*
X013533Y021484D01*
X013431Y021238D01*
X013431Y020971D01*
X013483Y020845D01*
X011469Y020845D01*
X010391Y020546D02*
X008141Y020546D01*
X008141Y020048D02*
X010276Y020048D01*
X008141Y021045D02*
X013431Y021045D01*
X013561Y021544D02*
X008141Y021544D01*
X008141Y022042D02*
X008900Y022042D01*
X009824Y022645D02*
X009416Y023053D01*
X009416Y023267D01*
X009375Y023365D01*
X009954Y023365D01*
X010248Y023365D01*
X010286Y023380D01*
X010286Y022682D01*
X010301Y022645D01*
X009824Y022645D01*
X009430Y023039D02*
X010286Y023039D01*
X010101Y024105D02*
X010601Y024605D01*
X010601Y026605D01*
X011445Y026529D02*
X012361Y026529D01*
X012361Y027028D02*
X011445Y027028D01*
X011445Y027127D02*
X011428Y027168D01*
X011907Y027647D01*
X012059Y027799D01*
X012141Y027997D01*
X012141Y028518D01*
X012361Y028298D01*
X012361Y023448D01*
X012286Y023267D01*
X012286Y023053D01*
X011916Y022683D01*
X011916Y023527D01*
X011841Y023707D01*
X011703Y023845D01*
X011523Y023920D01*
X010962Y023920D01*
X011020Y023977D01*
X011228Y024186D01*
X011341Y024457D01*
X011341Y025831D01*
X011445Y026082D01*
X011445Y027127D01*
X011786Y027526D02*
X012361Y027526D01*
X012361Y028025D02*
X012141Y028025D01*
X011061Y028328D02*
X011061Y028881D01*
X010945Y028997D01*
X010945Y028213D01*
X011061Y028328D01*
X011061Y028523D02*
X010945Y028523D01*
X011601Y030105D02*
X013101Y028605D01*
X013101Y023105D01*
X012272Y023039D02*
X011916Y023039D01*
X011911Y023538D02*
X012361Y023538D01*
X012361Y024036D02*
X011079Y024036D01*
X011341Y024535D02*
X012361Y024535D01*
X012361Y025033D02*
X011341Y025033D01*
X011341Y025532D02*
X012361Y025532D01*
X012361Y026030D02*
X011424Y026030D01*
X009861Y024970D02*
X009861Y024911D01*
X009802Y024852D01*
X009861Y024970D01*
X009101Y025105D02*
X009601Y026105D01*
X009601Y026605D01*
X009101Y025105D02*
X005101Y025105D01*
X004601Y026105D01*
X004601Y026605D01*
X003601Y026605D02*
X003601Y021105D01*
X004461Y021045D02*
X004777Y021045D01*
X004461Y020934D02*
X004341Y020645D01*
X004377Y020645D01*
X006786Y023053D01*
X006786Y023267D01*
X006826Y023365D01*
X004341Y023365D01*
X004341Y021565D01*
X004461Y021276D01*
X004461Y020934D01*
X004350Y021544D02*
X005276Y021544D01*
X005774Y022042D02*
X004341Y022042D01*
X004341Y022541D02*
X006273Y022541D01*
X006772Y023039D02*
X004341Y023039D01*
X004101Y024105D02*
X010101Y024105D01*
X012802Y022042D02*
X013561Y022042D01*
X014641Y022042D02*
X014861Y022042D01*
X014861Y021565D02*
X014748Y021293D01*
X014669Y021484D01*
X014641Y021512D01*
X014641Y026881D01*
X014756Y026997D01*
X014756Y026082D01*
X014861Y025831D01*
X014861Y021565D01*
X014852Y021544D02*
X014641Y021544D01*
X014748Y020916D02*
X014718Y020845D01*
X014778Y020845D01*
X014748Y020916D01*
X015601Y021105D02*
X015601Y026605D01*
X015601Y024605D01*
X016101Y024105D01*
X022101Y024105D01*
X022601Y024605D01*
X022601Y026605D01*
X021601Y026605D02*
X021601Y026105D01*
X021101Y025105D01*
X017101Y025105D01*
X016601Y026105D01*
X016601Y026605D01*
X014756Y026529D02*
X014641Y026529D01*
X014641Y026030D02*
X014778Y026030D01*
X014861Y025532D02*
X014641Y025532D01*
X014641Y025033D02*
X014861Y025033D01*
X014861Y024535D02*
X014641Y024535D01*
X014641Y024036D02*
X014861Y024036D01*
X014861Y023538D02*
X014641Y023538D01*
X014641Y023039D02*
X014861Y023039D01*
X014861Y022541D02*
X014641Y022541D01*
X016341Y022541D02*
X019012Y022541D01*
X018786Y023039D02*
X016341Y023039D01*
X016341Y022042D02*
X019061Y022042D01*
X019061Y021544D02*
X016350Y021544D01*
X016461Y021045D02*
X019061Y021045D01*
X020141Y020546D02*
X022391Y020546D01*
X022276Y020048D02*
X020141Y020048D01*
X020141Y022042D02*
X020900Y022042D01*
X021824Y022645D02*
X021416Y023053D01*
X021416Y023267D01*
X021375Y023365D01*
X021954Y023365D01*
X022248Y023365D01*
X022286Y023380D01*
X022286Y022682D01*
X022301Y022645D01*
X021824Y022645D01*
X021430Y023039D02*
X022286Y023039D01*
X021802Y024852D02*
X021861Y024911D01*
X021861Y024970D01*
X021802Y024852D01*
X022945Y028213D02*
X023061Y028328D01*
X023061Y028881D01*
X022945Y028997D01*
X022945Y028213D01*
X022945Y028523D02*
X023061Y028523D01*
X023601Y030105D02*
X025101Y028605D01*
X025841Y028523D02*
X027256Y028523D01*
X026757Y028025D02*
X025841Y028025D01*
X025729Y029022D02*
X027256Y029022D01*
X027468Y029520D02*
X025232Y029520D01*
X024733Y030019D02*
X026265Y030019D01*
X026937Y030019D02*
X028361Y030019D01*
X029101Y030605D02*
X029101Y028605D01*
X031101Y028605D02*
X031101Y029605D01*
X031601Y030105D01*
X030864Y030415D02*
X030682Y030232D01*
X030641Y030191D01*
X030641Y030197D01*
X030669Y030225D01*
X030747Y030415D01*
X030864Y030415D01*
X029601Y031105D02*
X029101Y030605D01*
X028341Y024970D02*
X028341Y024911D01*
X028400Y024852D01*
X028341Y024970D01*
X036802Y022042D02*
X037861Y022042D01*
X037861Y022541D02*
X037689Y022541D01*
X040450Y023130D02*
X040450Y023130D01*
X037861Y017555D02*
X035807Y017555D01*
X035925Y017057D02*
X037861Y017057D01*
X037861Y016558D02*
X035806Y016558D01*
X035925Y016060D02*
X037861Y016060D01*
X037861Y015561D02*
X035723Y015561D01*
X032991Y015190D02*
X032991Y014991D01*
X032809Y014991D01*
X032579Y014991D01*
X032462Y014991D01*
X032462Y014991D01*
X032327Y014991D01*
X032195Y014991D01*
X031695Y014991D01*
X031541Y014991D01*
X031541Y014991D01*
X031406Y014991D01*
X031275Y014991D01*
X031044Y014991D01*
X031024Y014983D01*
X031004Y014991D01*
X030738Y014991D01*
X030737Y014991D01*
X030654Y014957D01*
X030491Y014889D01*
X030303Y014701D01*
X030303Y014701D01*
X030287Y014662D01*
X030201Y014455D01*
X030201Y014188D01*
X030201Y013929D01*
X029937Y013929D01*
X029711Y013836D01*
X029711Y014852D01*
X030139Y015280D01*
X030265Y015280D01*
X030568Y015406D01*
X030800Y015638D01*
X030870Y015807D01*
X030980Y015541D01*
X031259Y015262D01*
X031624Y015111D01*
X032019Y015111D01*
X032383Y015262D01*
X032601Y015479D01*
X032818Y015262D01*
X032991Y015190D01*
X032991Y015062D02*
X029921Y015062D01*
X029711Y014564D02*
X030246Y014564D01*
X030201Y014065D02*
X029711Y014065D01*
X030925Y013068D02*
X032991Y013068D01*
X032991Y012570D02*
X030732Y012570D01*
X030723Y015561D02*
X030972Y015561D01*
X030829Y016501D02*
X030829Y016709D01*
X030800Y016638D01*
X030767Y016605D01*
X030800Y016572D01*
X030829Y016501D01*
X030829Y016558D02*
X030806Y016558D01*
X022435Y016605D02*
X022402Y016572D01*
X022372Y016501D01*
X022372Y016709D01*
X022402Y016638D01*
X022435Y016605D01*
X022396Y016558D02*
X022372Y016558D01*
X022395Y017555D02*
X022268Y017555D01*
X022230Y015561D02*
X022478Y015561D01*
X011627Y009579D02*
X011368Y009579D01*
X009360Y008065D02*
X009241Y007776D01*
X009241Y007434D01*
X009372Y007118D01*
X009614Y006876D01*
X009930Y006745D01*
X010272Y006745D01*
X010588Y006876D01*
X010604Y006892D01*
X010643Y006799D01*
X010795Y006647D01*
X010797Y006645D01*
X007824Y006645D01*
X006961Y007508D01*
X006961Y007776D01*
X006841Y008065D01*
X009360Y008065D01*
X009241Y007584D02*
X006961Y007584D01*
X007383Y007086D02*
X009403Y007086D01*
X010795Y006647D02*
X010795Y006647D01*
X012585Y005357D02*
X012585Y005357D01*
X012640Y005092D02*
X010674Y005092D01*
X010851Y004593D02*
X012431Y004593D01*
X012663Y004095D02*
X010651Y004095D01*
X010893Y003545D02*
X010893Y003545D01*
X011970Y002285D02*
X011944Y002222D01*
X011930Y002156D01*
X011893Y002100D01*
X012241Y001602D02*
X009961Y001602D01*
X006415Y004095D02*
X005141Y004095D01*
X001215Y004227D02*
X001162Y004196D01*
X000931Y003965D01*
X000768Y003682D01*
X000751Y003619D01*
X000751Y011245D01*
X000787Y011245D01*
X001019Y011245D01*
X001061Y011245D01*
X001061Y004497D01*
X001143Y004299D01*
X001215Y004227D01*
X001061Y004095D02*
X000751Y004095D01*
X000751Y004593D02*
X001061Y004593D01*
X001061Y005092D02*
X000751Y005092D01*
X000751Y005590D02*
X001061Y005590D01*
X001061Y006089D02*
X000751Y006089D01*
X000751Y006587D02*
X001061Y006587D01*
X001061Y007086D02*
X000751Y007086D01*
X000751Y007584D02*
X001061Y007584D01*
X001061Y008083D02*
X000751Y008083D01*
X000751Y008581D02*
X001061Y008581D01*
X001061Y009080D02*
X000751Y009080D01*
X000751Y009579D02*
X001061Y009579D01*
X001061Y010077D02*
X000751Y010077D01*
X000751Y010576D02*
X001061Y010576D01*
X001061Y011074D02*
X000751Y011074D01*
X000751Y013045D02*
X000751Y028616D01*
X000803Y028564D01*
X001099Y028393D01*
X001430Y028305D01*
X001772Y028305D01*
X002103Y028393D01*
X002399Y028564D01*
X002641Y028806D01*
X002812Y029103D01*
X002901Y029434D01*
X002901Y029776D01*
X002812Y030106D01*
X002641Y030403D01*
X002399Y030645D01*
X002103Y030816D01*
X001772Y030905D01*
X001430Y030905D01*
X001099Y030816D01*
X000803Y030645D01*
X000751Y030593D01*
X000751Y031451D01*
X004443Y031451D01*
X004361Y031252D01*
X004361Y029765D01*
X004269Y029803D01*
X003933Y029803D01*
X003622Y029675D01*
X003385Y029437D01*
X003256Y029127D01*
X003256Y028145D01*
X003208Y028145D01*
X002993Y028145D01*
X002795Y028062D01*
X002295Y027562D01*
X002143Y027411D01*
X002061Y027212D01*
X002061Y021512D01*
X002033Y021484D01*
X001931Y021238D01*
X001931Y020971D01*
X002033Y020725D01*
X002221Y020537D01*
X002255Y020523D01*
X001295Y019562D01*
X001143Y019411D01*
X001061Y019212D01*
X001061Y013045D01*
X001019Y013045D01*
X000751Y013045D01*
X000751Y013068D02*
X001061Y013068D01*
X001061Y013567D02*
X000751Y013567D01*
X000751Y014065D02*
X001061Y014065D01*
X001061Y014564D02*
X000751Y014564D01*
X000751Y015062D02*
X001061Y015062D01*
X001061Y015561D02*
X000751Y015561D01*
X000751Y016060D02*
X001061Y016060D01*
X001061Y016558D02*
X000751Y016558D01*
X000751Y017057D02*
X001061Y017057D01*
X001061Y017555D02*
X000751Y017555D01*
X000751Y018054D02*
X001061Y018054D01*
X001061Y018552D02*
X000751Y018552D01*
X000751Y019051D02*
X001061Y019051D01*
X001282Y019549D02*
X000751Y019549D01*
X000751Y020048D02*
X001780Y020048D01*
X002212Y020546D02*
X000751Y020546D01*
X000751Y021045D02*
X001931Y021045D01*
X002061Y021544D02*
X000751Y021544D01*
X000751Y022042D02*
X002061Y022042D01*
X002061Y022541D02*
X000751Y022541D01*
X000751Y023039D02*
X002061Y023039D01*
X002061Y023538D02*
X000751Y023538D01*
X000751Y024036D02*
X002061Y024036D01*
X002061Y024535D02*
X000751Y024535D01*
X000751Y025033D02*
X002061Y025033D01*
X002061Y025532D02*
X000751Y025532D01*
X000751Y026030D02*
X002061Y026030D01*
X002061Y026529D02*
X000751Y026529D01*
X000751Y027028D02*
X002061Y027028D01*
X002258Y027526D02*
X000751Y027526D01*
X000751Y028025D02*
X002757Y028025D01*
X002327Y028523D02*
X003256Y028523D01*
X003256Y029022D02*
X002765Y029022D01*
X002901Y029520D02*
X003468Y029520D01*
X002836Y030019D02*
X004361Y030019D01*
X004361Y030517D02*
X002527Y030517D01*
X000751Y031016D02*
X004361Y031016D01*
X005101Y031105D02*
X005101Y028605D01*
X007101Y028605D02*
X007101Y029605D01*
X007601Y030105D01*
X006864Y030415D02*
X006682Y030232D01*
X006641Y030191D01*
X006641Y030197D01*
X006669Y030225D01*
X006747Y030415D01*
X006864Y030415D01*
X005601Y031105D02*
X005101Y031105D01*
X000874Y028523D02*
X000751Y028523D01*
X002295Y027562D02*
X002295Y027562D01*
X003601Y026605D02*
X003601Y024605D01*
X004101Y024105D01*
X004400Y024852D02*
X004341Y024970D01*
X004341Y024911D01*
X004400Y024852D01*
X006803Y021544D02*
X007061Y021544D01*
X007061Y021045D02*
X006305Y021045D01*
X006810Y020546D02*
X007061Y020546D01*
X007061Y020048D02*
X006925Y020048D01*
X007061Y019549D02*
X006712Y019549D01*
X007391Y019051D02*
X002602Y019051D01*
X002809Y019549D02*
X005490Y019549D01*
X005395Y017555D02*
X002641Y017555D01*
X002641Y017057D02*
X005276Y017057D01*
X005396Y016558D02*
X002641Y016558D01*
X002641Y016060D02*
X005193Y016060D01*
X004694Y015561D02*
X002641Y015561D01*
X003090Y015062D02*
X004491Y015062D01*
X004491Y014564D02*
X003271Y014564D01*
X003141Y014065D02*
X004491Y014065D01*
X004491Y013567D02*
X004340Y013567D01*
X004461Y013068D02*
X004491Y013068D01*
X003953Y012320D02*
X003950Y012316D01*
X003948Y012318D01*
X003953Y012320D01*
X003253Y012318D02*
X003141Y012205D01*
X003141Y012364D01*
X003253Y012318D01*
X004414Y011074D02*
X004864Y011074D01*
X004872Y011092D02*
X004741Y010776D01*
X004741Y010434D01*
X004872Y010118D01*
X005114Y009876D01*
X005430Y009745D01*
X005772Y009745D01*
X006088Y009876D01*
X006330Y010118D01*
X006461Y010434D01*
X006461Y010776D01*
X006330Y011092D01*
X006088Y011334D01*
X005772Y011465D01*
X005430Y011465D01*
X005114Y011334D01*
X004872Y011092D01*
X004931Y011573D02*
X008991Y011573D01*
X008864Y011074D02*
X006337Y011074D01*
X006461Y010576D02*
X008741Y010576D01*
X008912Y010077D02*
X006289Y010077D01*
X004912Y010077D02*
X004134Y010077D01*
X004351Y010576D02*
X004741Y010576D01*
X005430Y012071D02*
X008991Y012071D01*
X008991Y012570D02*
X006732Y012570D01*
X006925Y013068D02*
X008991Y013068D01*
X008991Y014991D02*
X008809Y014991D01*
X008579Y014991D01*
X008462Y014991D01*
X008462Y014991D01*
X008327Y014991D01*
X008195Y014991D01*
X007695Y014991D01*
X007541Y014991D01*
X007541Y014991D01*
X007406Y014991D01*
X007275Y014991D01*
X007044Y014991D01*
X007024Y014983D01*
X007004Y014991D01*
X006738Y014991D01*
X006737Y014991D01*
X006654Y014957D01*
X006491Y014889D01*
X006303Y014701D01*
X006303Y014701D01*
X006303Y014701D01*
X006287Y014662D01*
X006201Y014455D01*
X006201Y014188D01*
X006201Y013929D01*
X005937Y013929D01*
X005711Y013836D01*
X005711Y014852D01*
X006139Y015280D01*
X006265Y015280D01*
X006568Y015406D01*
X006800Y015638D01*
X006870Y015807D01*
X006980Y015541D01*
X007259Y015262D01*
X007624Y015111D01*
X008019Y015111D01*
X008383Y015262D01*
X008601Y015479D01*
X008818Y015262D01*
X008991Y015190D01*
X008991Y014991D01*
X008991Y015062D02*
X005921Y015062D01*
X005711Y014564D02*
X006246Y014564D01*
X006201Y014065D02*
X005711Y014065D01*
X006723Y015561D02*
X006972Y015561D01*
X006829Y016501D02*
X006829Y016709D01*
X006800Y016638D01*
X006767Y016605D01*
X006800Y016572D01*
X006829Y016501D01*
X006829Y016558D02*
X006806Y016558D01*
X006807Y017555D02*
X006933Y017555D01*
X016341Y024911D02*
X016341Y024970D01*
X016400Y024852D01*
X016341Y024911D01*
X013841Y027608D02*
X013841Y028457D01*
X013841Y028752D01*
X013728Y029024D01*
X012337Y030415D01*
X016361Y030415D01*
X016361Y029765D01*
X016269Y029803D01*
X015933Y029803D01*
X015622Y029675D01*
X015385Y029437D01*
X015256Y029127D01*
X015256Y028145D01*
X014708Y028145D01*
X014493Y028145D01*
X014295Y028062D01*
X013841Y027608D01*
X013841Y028025D02*
X014257Y028025D01*
X013841Y028523D02*
X015256Y028523D01*
X015256Y029022D02*
X013729Y029022D01*
X013232Y029520D02*
X015468Y029520D01*
X016361Y030019D02*
X012733Y030019D01*
X017101Y030605D02*
X017101Y028605D01*
X019101Y028605D02*
X019101Y029605D01*
X019601Y030105D01*
X017601Y031105D02*
X017101Y030605D01*
X040161Y012302D02*
X040161Y012302D01*
X040945Y002599D02*
X041101Y002599D01*
X016561Y003596D02*
X016557Y003596D01*
X014300Y005645D02*
X013824Y005645D01*
X013725Y005744D01*
X013781Y005877D01*
X013781Y006161D01*
X014143Y005799D01*
X014295Y005647D01*
X014300Y005645D01*
X013853Y006089D02*
X013781Y006089D01*
X016201Y006065D02*
X016297Y006065D01*
X016201Y005968D01*
X016201Y006065D01*
X003489Y007505D02*
X003489Y007505D01*
X002450Y008083D02*
X002141Y008083D01*
X000751Y002787D02*
X000751Y002593D01*
X000803Y002645D01*
X000811Y002650D01*
X000768Y002724D01*
X000751Y002787D01*
X000751Y002599D02*
X000757Y002599D01*
D25*
X001601Y004605D02*
X004101Y004605D01*
X004601Y004105D01*
X004601Y003849D01*
X005428Y003022D01*
X007601Y006105D02*
X006101Y007605D01*
X007601Y006105D02*
X012891Y006105D01*
X012891Y005815D01*
X013601Y005105D01*
X016101Y005105D01*
X017101Y006105D01*
X017891Y006105D01*
X017891Y006605D02*
X018101Y006605D01*
X017891Y006605D02*
X015311Y006605D01*
X015311Y007105D02*
X016601Y007105D01*
X016601Y008605D01*
X015311Y008605D01*
X015101Y008605D01*
X015311Y008105D02*
X016101Y008105D01*
X015311Y007605D02*
X014601Y007605D01*
X014601Y014605D01*
X014101Y014605D02*
X014101Y006605D01*
X014601Y006105D01*
X015311Y006105D01*
X013601Y007105D02*
X013601Y008605D01*
X012891Y008605D01*
X012891Y008105D02*
X012101Y008105D01*
X011101Y009105D01*
X003101Y009105D01*
X002601Y009605D01*
X002601Y014605D01*
X002101Y018605D02*
X002101Y009105D01*
X002601Y008605D01*
X010601Y008605D01*
X011101Y008105D01*
X011101Y007105D01*
X011601Y006605D01*
X012891Y006605D01*
X012891Y007605D02*
X012101Y007605D01*
X012101Y009105D02*
X012891Y009105D01*
X015311Y009105D02*
X015811Y009605D01*
X020101Y009605D01*
X020601Y009105D01*
X020311Y009105D01*
X020601Y009105D02*
X021101Y009105D01*
X021601Y008605D01*
X021601Y006605D01*
X022101Y006105D01*
X022891Y006105D01*
X024601Y006605D02*
X024601Y008105D01*
X025311Y008105D01*
X025311Y008605D02*
X026101Y008605D01*
X026101Y014605D01*
X026601Y014605D02*
X026601Y007105D01*
X025311Y007105D01*
X025311Y007605D02*
X026101Y007605D01*
X026101Y006605D02*
X025311Y006605D01*
X024601Y006605D01*
X025311Y006105D02*
X025311Y005815D01*
X024601Y005105D01*
X021311Y005105D01*
X020311Y006105D01*
X020311Y006605D02*
X020311Y007105D01*
X021101Y007105D01*
X019101Y006605D02*
X019101Y006105D01*
X020601Y004605D01*
X024101Y004605D01*
X024601Y004105D01*
X023601Y004105D02*
X025101Y002605D01*
X025101Y005105D01*
X026101Y006105D01*
X026101Y006605D01*
X026101Y005105D02*
X028601Y007605D01*
X028601Y008105D01*
X029550Y008105D01*
X030652Y008105D02*
X030757Y008209D01*
X034101Y008209D01*
X030652Y008105D02*
X030652Y006605D01*
X030652Y005105D01*
X030652Y003156D01*
X029601Y002105D01*
X029101Y002105D01*
X028101Y002105D02*
X028101Y001105D01*
X027601Y000605D01*
X025101Y000605D01*
X023601Y002105D01*
X021652Y002105D01*
X021101Y002656D01*
X020652Y002656D01*
X020101Y002105D01*
X019101Y001554D02*
X021101Y001554D01*
X019101Y001554D02*
X017101Y001554D01*
X016652Y001554D01*
X016101Y002105D01*
X016101Y003105D01*
X017101Y002656D02*
X017101Y003605D01*
X017601Y004105D01*
X023601Y004105D01*
X023101Y003605D02*
X025601Y001105D01*
X026601Y001105D01*
X027101Y001605D01*
X027101Y002105D01*
X026101Y002105D02*
X025601Y002105D01*
X025101Y002605D01*
X026101Y003105D02*
X026101Y005105D01*
X027101Y005105D02*
X027101Y003105D01*
X028101Y003105D02*
X028101Y004605D01*
X028601Y005105D01*
X029550Y005105D01*
X029550Y006605D02*
X028601Y006605D01*
X027101Y005105D01*
X023101Y003605D02*
X019601Y003605D01*
X019101Y003105D01*
X018101Y003105D01*
X019101Y003105D02*
X019101Y002656D01*
X018601Y004605D02*
X019101Y005105D01*
X018601Y004605D02*
X013101Y004605D01*
X017101Y007605D02*
X017891Y007605D01*
X018101Y007605D01*
X017891Y007605D02*
X017891Y007105D01*
X018601Y007105D01*
X019101Y006605D01*
X017891Y008105D02*
X017101Y008105D01*
X017101Y009105D01*
X017891Y009105D02*
X017891Y008605D01*
X019101Y008605D01*
X023101Y011315D02*
X023101Y013105D01*
X023101Y011315D02*
X025311Y009105D01*
X020101Y019105D02*
X019601Y019605D01*
X019601Y023105D01*
X020601Y023105D02*
X021601Y022105D01*
X024101Y022105D01*
X025101Y023105D01*
X026601Y021105D02*
X026601Y027105D01*
X027101Y027605D01*
X029101Y027605D01*
X029601Y027105D01*
X029601Y026605D01*
X029601Y027105D02*
X030101Y027605D01*
X032601Y027605D01*
X033101Y028105D01*
X033101Y028605D01*
X033101Y027605D02*
X035101Y027605D01*
X035601Y027105D01*
X036601Y027105D01*
X035601Y028105D02*
X035101Y027605D01*
X035601Y028105D02*
X035601Y029105D01*
X035101Y029605D01*
X032601Y029605D01*
X033101Y027605D02*
X032601Y027105D01*
X032601Y026605D01*
X030101Y028605D02*
X030101Y030605D01*
X026601Y030605D02*
X018101Y030605D01*
X018101Y028605D01*
X018101Y027605D02*
X017601Y027105D01*
X017101Y027605D01*
X014601Y027605D01*
X014101Y027105D01*
X014101Y021105D01*
X013101Y023105D02*
X012101Y022105D01*
X009601Y022105D01*
X008601Y023105D01*
X007601Y023105D02*
X007601Y019605D01*
X008101Y019105D01*
X019101Y019105D01*
X019601Y019605D01*
X020101Y019105D02*
X031101Y019105D01*
X031601Y019605D01*
X031601Y023105D01*
X032601Y023105D02*
X033601Y022105D01*
X036101Y022105D01*
X037101Y023105D01*
X023601Y028105D02*
X023601Y029105D01*
X023101Y029605D01*
X020601Y029605D01*
X020601Y027605D02*
X018101Y027605D01*
X017601Y027105D02*
X017601Y026605D01*
X020601Y026605D02*
X020601Y027105D01*
X021101Y027605D01*
X023101Y027605D01*
X023601Y028105D01*
X011601Y028105D02*
X011601Y029105D01*
X011101Y029605D01*
X008601Y029605D01*
X008601Y027605D02*
X006101Y027605D01*
X005601Y027105D01*
X005101Y027605D01*
X003101Y027605D01*
X002601Y027105D01*
X002601Y021105D01*
X002601Y020105D02*
X001601Y019105D01*
X001601Y004605D01*
X002601Y020105D02*
X004601Y020105D01*
X007601Y023105D01*
X008601Y026605D02*
X008601Y027105D01*
X009101Y027605D01*
X011101Y027605D01*
X011601Y028105D01*
X006101Y028605D02*
X006101Y030605D01*
X005601Y027105D02*
X005601Y026605D01*
D26*
X007601Y030105D02*
X011601Y030105D01*
X017601Y031105D02*
X005601Y031105D01*
X017601Y031105D02*
X029601Y031105D01*
X037601Y031105D01*
X036101Y030105D02*
X031601Y030105D01*
X023601Y030105D02*
X019601Y030105D01*
D27*
X020601Y029605D03*
X018101Y030605D03*
X026601Y030605D03*
X030101Y030605D03*
X014101Y021105D03*
X014101Y014605D03*
X014601Y014605D03*
X017101Y009105D03*
X016101Y008105D03*
X017101Y007605D03*
X016601Y007105D03*
X019101Y008605D03*
X021101Y009105D03*
X021101Y007105D03*
X019101Y005105D03*
X018101Y003105D03*
X020101Y002105D03*
X016101Y003105D03*
X016101Y005105D03*
X013101Y004605D03*
X013601Y007105D03*
X012101Y007605D03*
X012101Y009105D03*
X002601Y014605D03*
X002101Y018605D03*
X002601Y021105D03*
X008601Y029605D03*
X006101Y030605D03*
X026101Y014605D03*
X026601Y014605D03*
X028601Y008105D03*
X026101Y007605D03*
X024601Y004105D03*
D28*
X021601Y010605D02*
X021601Y016605D01*
X021380Y016605D01*
X018101Y016105D02*
X017101Y015105D01*
X017101Y012605D01*
X016101Y011605D01*
X015601Y011605D01*
X013601Y007105D02*
X012891Y007105D01*
X009601Y010605D02*
X009601Y016105D01*
X009380Y016325D01*
X009380Y016605D01*
X006101Y016105D02*
X005101Y015105D01*
X005101Y012605D01*
X004101Y011605D01*
X003601Y011605D01*
X008601Y027605D02*
X009101Y028105D01*
X009101Y028605D01*
X020601Y027605D02*
X021101Y028105D01*
X021101Y028605D01*
X033380Y016605D02*
X033601Y016384D01*
X033601Y010605D01*
X029101Y012605D02*
X029101Y015105D01*
X030101Y016105D01*
X029101Y012605D02*
X028101Y011605D01*
X027601Y011605D01*
D29*
X026601Y021105D03*
X036601Y027105D03*
X032601Y029605D03*
M02*
