G75*
G70*
%OFA0B0*%
%FSLAX24Y24*%
%IPPOS*%
%LPD*%
%AMOC8*
5,1,8,0,0,1.08239X$1,22.5*
%
%ADD10C,0.0709*%
%ADD11C,0.1004*%
%ADD12C,0.0669*%
%ADD13OC8,0.0520*%
%ADD14C,0.0740*%
%ADD15C,0.0650*%
%ADD16R,0.0650X0.0650*%
%ADD17R,0.1500X0.1500*%
%ADD18C,0.1500*%
%ADD19OC8,0.0740*%
%ADD20R,0.0827X0.0827*%
%ADD21C,0.0500*%
%ADD22C,0.0100*%
%ADD23C,0.0360*%
%ADD24C,0.0400*%
%ADD25C,0.0240*%
%ADD26C,0.0396*%
D10*
X003601Y026250D02*
X003601Y026959D01*
X004601Y026959D02*
X004601Y026250D01*
X005601Y026250D02*
X005601Y026959D01*
X006601Y026959D02*
X006601Y026250D01*
X007601Y026250D02*
X007601Y026959D01*
X008601Y026959D02*
X008601Y026250D01*
X009601Y026250D02*
X009601Y026959D01*
X010601Y026959D02*
X010601Y026250D01*
X010101Y028250D02*
X010101Y028959D01*
X009101Y028959D02*
X009101Y028250D01*
X008101Y028250D02*
X008101Y028959D01*
X007101Y028959D02*
X007101Y028250D01*
X006101Y028250D02*
X006101Y028959D01*
X005101Y028959D02*
X005101Y028250D01*
X004101Y028250D02*
X004101Y028959D01*
X015601Y026959D02*
X015601Y026250D01*
X016601Y026250D02*
X016601Y026959D01*
X017601Y026959D02*
X017601Y026250D01*
X018601Y026250D02*
X018601Y026959D01*
X019601Y026959D02*
X019601Y026250D01*
X020601Y026250D02*
X020601Y026959D01*
X021601Y026959D02*
X021601Y026250D01*
X022601Y026250D02*
X022601Y026959D01*
X022101Y028250D02*
X022101Y028959D01*
X021101Y028959D02*
X021101Y028250D01*
X020101Y028250D02*
X020101Y028959D01*
X019101Y028959D02*
X019101Y028250D01*
X018101Y028250D02*
X018101Y028959D01*
X017101Y028959D02*
X017101Y028250D01*
X016101Y028250D02*
X016101Y028959D01*
X027601Y026959D02*
X027601Y026250D01*
X028601Y026250D02*
X028601Y026959D01*
X029601Y026959D02*
X029601Y026250D01*
X030601Y026250D02*
X030601Y026959D01*
X031601Y026959D02*
X031601Y026250D01*
X032601Y026250D02*
X032601Y026959D01*
X033601Y026959D02*
X033601Y026250D01*
X034601Y026250D02*
X034601Y026959D01*
X034101Y028250D02*
X034101Y028959D01*
X033101Y028959D02*
X033101Y028250D01*
X032101Y028250D02*
X032101Y028959D01*
X031101Y028959D02*
X031101Y028250D01*
X030101Y028250D02*
X030101Y028959D01*
X029101Y028959D02*
X029101Y028250D01*
X028101Y028250D02*
X028101Y028959D01*
D11*
X031821Y017107D02*
X031821Y016103D01*
X033380Y016103D02*
X033380Y017107D01*
X021380Y017107D02*
X021380Y016103D01*
X019821Y016103D02*
X019821Y017107D01*
X009380Y017107D02*
X009380Y016103D01*
X007821Y016103D02*
X007821Y017107D01*
D12*
X006101Y017105D03*
X006101Y016105D03*
X006101Y013105D03*
X011101Y013105D03*
X011101Y016105D03*
X011101Y017105D03*
X011101Y020105D03*
X006101Y020105D03*
X018101Y020105D03*
X018101Y017105D03*
X018101Y016105D03*
X018101Y013105D03*
X023101Y013105D03*
X023101Y016105D03*
X023101Y017105D03*
X023101Y020105D03*
X030101Y020105D03*
X030101Y017105D03*
X030101Y016105D03*
X030101Y013105D03*
X035101Y013105D03*
X035101Y016105D03*
X035101Y017105D03*
X035101Y020105D03*
D13*
X027601Y011605D03*
X027601Y010605D03*
X015601Y010605D03*
X015601Y011605D03*
X010101Y004605D03*
X009101Y004605D03*
X003601Y010605D03*
X003601Y011605D03*
D14*
X003601Y013105D03*
X005601Y010605D03*
X006101Y007605D03*
X009601Y010605D03*
X010101Y007605D03*
X015601Y013105D03*
X017601Y010605D03*
X021601Y010605D03*
X027601Y013105D03*
X029601Y010605D03*
X033601Y010605D03*
X027601Y021105D03*
X015601Y021105D03*
X003601Y021105D03*
X009101Y001605D03*
X013101Y001605D03*
D15*
X013101Y023105D03*
X008601Y023105D03*
X007601Y023105D03*
X019601Y023105D03*
X020601Y023105D03*
X025101Y023105D03*
X031601Y023105D03*
X032601Y023105D03*
X037101Y023105D03*
D16*
X035101Y023105D03*
X023101Y023105D03*
X011101Y023105D03*
D17*
X034101Y005105D03*
D18*
X034101Y008209D03*
D19*
X029101Y003105D03*
X028101Y003105D03*
X027101Y003105D03*
X026101Y003105D03*
X026101Y002105D03*
X027101Y002105D03*
X028101Y002105D03*
X029101Y002105D03*
D20*
X005428Y003022D03*
X003774Y003022D03*
X003774Y005187D03*
X005428Y005187D03*
D21*
X002641Y000806D02*
X002589Y000755D01*
X008906Y000755D01*
X008614Y000876D01*
X008372Y001118D01*
X008241Y001434D01*
X008241Y001749D01*
X008003Y001847D01*
X007814Y002037D01*
X007799Y002072D01*
X007757Y002047D01*
X007441Y001963D01*
X007115Y001963D01*
X006799Y002047D01*
X006516Y002210D01*
X006297Y002430D01*
X006256Y002331D01*
X006119Y002193D01*
X005938Y002119D01*
X004917Y002119D01*
X004737Y002193D01*
X004601Y002329D01*
X004465Y002193D01*
X004285Y002119D01*
X003263Y002119D01*
X003083Y002193D01*
X002945Y002331D01*
X002904Y002430D01*
X002728Y002253D01*
X002812Y002106D01*
X002901Y001776D01*
X002901Y001434D01*
X002812Y001103D01*
X002641Y000806D01*
X002812Y001103D02*
X008386Y001103D01*
X008241Y001602D02*
X002901Y001602D01*
X002814Y002100D02*
X006707Y002100D01*
X006182Y003787D02*
X006141Y003829D01*
X006141Y003881D01*
X006324Y004065D01*
X006385Y004065D01*
X006285Y003965D01*
X006182Y003787D01*
X006331Y005145D02*
X006331Y005698D01*
X006256Y005878D01*
X006119Y006016D01*
X005938Y006091D01*
X005575Y006091D01*
X005637Y006241D01*
X005637Y006377D01*
X006004Y006745D01*
X006272Y006745D01*
X006588Y006876D01*
X006830Y007118D01*
X006961Y007434D01*
X006961Y007701D01*
X007059Y007799D01*
X007141Y007997D01*
X007141Y012365D01*
X010732Y012365D01*
X010937Y012280D01*
X011265Y012280D01*
X011469Y012365D01*
X011711Y012365D01*
X011711Y012236D01*
X011711Y012054D01*
X011711Y011785D01*
X011814Y011537D01*
X012003Y011347D01*
X012251Y011245D01*
X012609Y011245D01*
X012745Y011245D01*
X012787Y011245D01*
X013019Y011245D01*
X013287Y011245D01*
X013293Y011247D01*
X013479Y011170D01*
X014048Y011170D01*
X014229Y011245D01*
X014358Y011245D01*
X014606Y011347D01*
X014796Y011537D01*
X014851Y011670D01*
X014851Y011294D01*
X015040Y011105D01*
X014851Y010915D01*
X014851Y010294D01*
X015000Y010145D01*
X010341Y010145D01*
X010461Y010434D01*
X010461Y010776D01*
X010330Y011092D01*
X010088Y011334D01*
X009772Y011465D01*
X009430Y011465D01*
X009114Y011334D01*
X008872Y011092D01*
X008741Y010776D01*
X008741Y010434D01*
X008872Y010118D01*
X009111Y009878D01*
X008643Y009411D01*
X008561Y009212D01*
X008561Y008997D01*
X008561Y005145D01*
X006331Y005145D01*
X006331Y005590D02*
X008561Y005590D01*
X008561Y006089D02*
X005943Y006089D01*
X005847Y006587D02*
X008561Y006587D01*
X008561Y007086D02*
X006798Y007086D01*
X006961Y007584D02*
X008561Y007584D01*
X008561Y008083D02*
X007141Y008083D01*
X007141Y008581D02*
X008561Y008581D01*
X008561Y009080D02*
X007141Y009080D01*
X007141Y009579D02*
X008811Y009579D01*
X008912Y010077D02*
X007141Y010077D01*
X007141Y010576D02*
X008741Y010576D01*
X008864Y011074D02*
X007141Y011074D01*
X007141Y011573D02*
X011799Y011573D01*
X011711Y012071D02*
X007141Y012071D01*
X006061Y012071D02*
X004195Y012071D01*
X004351Y011915D02*
X003948Y012318D01*
X004062Y012365D01*
X005732Y012365D01*
X005937Y012280D01*
X006061Y012280D01*
X006061Y011345D01*
X005772Y011465D01*
X005430Y011465D01*
X005114Y011334D01*
X004995Y011215D01*
X004271Y011215D01*
X004351Y011294D01*
X004351Y011915D01*
X004351Y011573D02*
X006061Y011573D01*
X004995Y009995D02*
X005114Y009876D01*
X005430Y009745D01*
X005772Y009745D01*
X006061Y009864D01*
X006061Y008465D01*
X005930Y008465D01*
X005614Y008334D01*
X005372Y008092D01*
X005241Y007776D01*
X005241Y007508D01*
X005175Y007442D01*
X005024Y007505D01*
X004757Y007505D01*
X004527Y007505D01*
X004333Y007505D01*
X004067Y007505D01*
X003913Y007505D01*
X003893Y007497D01*
X003873Y007505D01*
X003606Y007505D01*
X003489Y007505D01*
X003354Y007505D01*
X003223Y007505D01*
X003223Y007505D01*
X003222Y007505D01*
X003202Y007497D01*
X003182Y007505D01*
X002916Y007505D01*
X002686Y007505D01*
X002439Y007403D01*
X002251Y007215D01*
X002149Y006968D01*
X002149Y006702D01*
X002149Y006661D01*
X002149Y006395D01*
X002149Y006241D01*
X002251Y005995D01*
X002439Y005807D01*
X002686Y005705D01*
X002873Y005705D01*
X002871Y005698D01*
X002871Y004677D01*
X002945Y004496D01*
X003083Y004359D01*
X003263Y004284D01*
X004061Y004284D01*
X004061Y004072D01*
X003914Y003925D01*
X003263Y003925D01*
X003083Y003851D01*
X003019Y003787D01*
X002916Y003965D01*
X002685Y004196D01*
X002402Y004359D01*
X002087Y004444D01*
X001760Y004444D01*
X001445Y004359D01*
X001162Y004196D01*
X000931Y003965D01*
X000768Y003682D01*
X000751Y003619D01*
X000751Y011245D01*
X000787Y011245D01*
X001019Y011245D01*
X001287Y011245D01*
X001293Y011247D01*
X001479Y011170D01*
X002048Y011170D01*
X002254Y011255D01*
X002373Y011231D01*
X002637Y011284D01*
X002851Y011426D01*
X002851Y011294D01*
X003040Y011105D01*
X002851Y010915D01*
X002851Y010294D01*
X003290Y009855D01*
X003911Y009855D01*
X004051Y009995D01*
X004995Y009995D01*
X006061Y009579D02*
X000751Y009579D01*
X000751Y009080D02*
X006061Y009080D01*
X006061Y008581D02*
X000751Y008581D01*
X000751Y008083D02*
X005368Y008083D01*
X005241Y007584D02*
X000751Y007584D01*
X000751Y007086D02*
X002198Y007086D01*
X002149Y006587D02*
X000751Y006587D01*
X000751Y006089D02*
X002212Y006089D01*
X002871Y005590D02*
X000751Y005590D01*
X000751Y005092D02*
X002871Y005092D01*
X002905Y004593D02*
X000751Y004593D01*
X000751Y004095D02*
X001061Y004095D01*
X000751Y002787D02*
X000751Y002593D01*
X000803Y002645D01*
X000811Y002650D01*
X000768Y002724D01*
X000751Y002787D01*
X000751Y002599D02*
X000757Y002599D01*
X002787Y004095D02*
X004061Y004095D01*
X008171Y004065D02*
X008580Y004065D01*
X008790Y003855D01*
X009120Y003855D01*
X009061Y003712D01*
X009061Y003545D01*
X009019Y003545D01*
X008712Y003545D01*
X008552Y003545D01*
X008536Y003538D01*
X008520Y003545D01*
X008471Y003545D01*
X008434Y003682D01*
X008271Y003965D01*
X008171Y004065D01*
X008457Y003596D02*
X009061Y003596D01*
X010141Y003381D02*
X010407Y003647D01*
X010559Y003799D01*
X010561Y003804D01*
X010561Y003545D01*
X010475Y003545D01*
X010227Y003442D01*
X010152Y003367D01*
X010141Y003356D01*
X010141Y003381D01*
X010356Y003596D02*
X010561Y003596D01*
X011641Y003596D02*
X013561Y003596D01*
X013480Y004037D02*
X013234Y003935D01*
X012967Y003935D01*
X012721Y004037D01*
X012693Y004065D01*
X012493Y004065D01*
X012295Y004147D01*
X012143Y004299D01*
X011643Y004799D01*
X011641Y004804D01*
X011641Y003457D01*
X011677Y003442D01*
X011867Y003252D01*
X011911Y003145D01*
X012493Y003145D01*
X012708Y003145D01*
X012907Y003062D01*
X013407Y002562D01*
X013559Y002411D01*
X013592Y002330D01*
X013830Y002092D01*
X013961Y001776D01*
X013961Y001508D01*
X014324Y001145D01*
X025451Y001145D01*
X025451Y001196D01*
X025451Y001464D01*
X025473Y001517D01*
X025241Y001749D01*
X025241Y002461D01*
X025385Y002605D01*
X025241Y002749D01*
X025241Y003461D01*
X025345Y003565D01*
X025008Y003565D01*
X024980Y003537D01*
X024734Y003435D01*
X024467Y003435D01*
X024221Y003537D01*
X024033Y003725D01*
X023931Y003971D01*
X023931Y004065D01*
X019493Y004065D01*
X019295Y004147D01*
X019143Y004299D01*
X019007Y004435D01*
X018967Y004435D01*
X018721Y004537D01*
X018533Y004725D01*
X018431Y004971D01*
X018431Y005238D01*
X018533Y005484D01*
X018561Y005512D01*
X018561Y008197D01*
X018533Y008225D01*
X018431Y008471D01*
X018431Y008738D01*
X018533Y008984D01*
X018613Y009065D01*
X017771Y009065D01*
X017771Y008971D01*
X017669Y008725D01*
X017480Y008537D01*
X017234Y008435D01*
X016967Y008435D01*
X016721Y008537D01*
X016693Y008565D01*
X016588Y008565D01*
X016669Y008484D01*
X016771Y008238D01*
X016771Y008198D01*
X016774Y008195D01*
X016967Y008275D01*
X017234Y008275D01*
X017480Y008173D01*
X017669Y007984D01*
X017771Y007738D01*
X017771Y007471D01*
X017669Y007225D01*
X017480Y007037D01*
X017260Y006945D01*
X017169Y006725D01*
X017141Y006697D01*
X017141Y004328D01*
X017774Y003695D01*
X017967Y003775D01*
X018234Y003775D01*
X018480Y003673D01*
X018669Y003484D01*
X018771Y003238D01*
X018771Y002971D01*
X018669Y002725D01*
X018588Y002645D01*
X019693Y002645D01*
X019721Y002673D01*
X019967Y002775D01*
X020234Y002775D01*
X020480Y002673D01*
X020669Y002484D01*
X020771Y002238D01*
X020771Y001971D01*
X020669Y001725D01*
X020480Y001537D01*
X020234Y001435D01*
X019967Y001435D01*
X019721Y001537D01*
X019693Y001565D01*
X014708Y001565D01*
X014493Y001565D01*
X014295Y001647D01*
X013643Y002299D01*
X013561Y002497D01*
X013561Y002712D01*
X013561Y004117D01*
X013480Y004037D01*
X013538Y004095D02*
X013561Y004095D01*
X014641Y004095D02*
X015561Y004095D01*
X015561Y003596D02*
X014641Y003596D01*
X014641Y003097D02*
X015431Y003097D01*
X015431Y002971D02*
X015533Y002725D01*
X015613Y002645D01*
X014824Y002645D01*
X014641Y002828D01*
X014641Y006712D01*
X014559Y006911D01*
X014407Y007062D01*
X014271Y007198D01*
X014271Y007238D01*
X014169Y007484D01*
X013980Y007673D01*
X013734Y007775D01*
X013467Y007775D01*
X013221Y007673D01*
X013033Y007484D01*
X012931Y007238D01*
X012931Y006971D01*
X013033Y006725D01*
X013221Y006537D01*
X013467Y006435D01*
X013507Y006435D01*
X013561Y006381D01*
X013561Y005092D01*
X013480Y005173D01*
X013234Y005275D01*
X012967Y005275D01*
X012774Y005195D01*
X012641Y005328D01*
X012641Y007197D01*
X012669Y007225D01*
X012771Y007471D01*
X012771Y007738D01*
X012669Y007984D01*
X012480Y008173D01*
X012234Y008275D01*
X011967Y008275D01*
X011721Y008173D01*
X011533Y007984D01*
X011431Y007738D01*
X011431Y007471D01*
X011533Y007225D01*
X011561Y007197D01*
X011561Y006905D01*
X011559Y006911D01*
X011407Y007062D01*
X010961Y007508D01*
X010961Y007776D01*
X010830Y008092D01*
X010588Y008334D01*
X010272Y008465D01*
X009930Y008465D01*
X009641Y008345D01*
X009641Y008881D01*
X009824Y009065D01*
X011431Y009065D01*
X011431Y008971D01*
X011533Y008725D01*
X011721Y008537D01*
X011967Y008435D01*
X012234Y008435D01*
X012480Y008537D01*
X012508Y008565D01*
X015613Y008565D01*
X015533Y008484D01*
X015431Y008238D01*
X015431Y007971D01*
X015533Y007725D01*
X015721Y007537D01*
X015967Y007435D01*
X016007Y007435D01*
X016011Y007431D01*
X015931Y007238D01*
X015931Y006971D01*
X016033Y006725D01*
X016061Y006697D01*
X016061Y005775D01*
X015967Y005775D01*
X015721Y005673D01*
X015533Y005484D01*
X015431Y005238D01*
X015431Y004971D01*
X015533Y004725D01*
X015561Y004697D01*
X015561Y003512D01*
X015533Y003484D01*
X015431Y003238D01*
X015431Y002971D01*
X016588Y002645D02*
X017300Y002645D01*
X017295Y002647D01*
X017143Y002799D01*
X016771Y003171D01*
X016771Y002971D01*
X016669Y002725D01*
X016588Y002645D01*
X016771Y003097D02*
X016844Y003097D01*
X017375Y004095D02*
X019421Y004095D01*
X018665Y004593D02*
X017141Y004593D01*
X017141Y005092D02*
X018431Y005092D01*
X018561Y005590D02*
X017141Y005590D01*
X017141Y006089D02*
X018561Y006089D01*
X018561Y006587D02*
X017141Y006587D01*
X017529Y007086D02*
X018561Y007086D01*
X018561Y007584D02*
X017771Y007584D01*
X017570Y008083D02*
X018561Y008083D01*
X018431Y008581D02*
X017525Y008581D01*
X015674Y007584D02*
X014069Y007584D01*
X014383Y007086D02*
X015931Y007086D01*
X016061Y006587D02*
X014641Y006587D01*
X014641Y006089D02*
X016061Y006089D01*
X015639Y005590D02*
X014641Y005590D01*
X014641Y005092D02*
X015431Y005092D01*
X015561Y004593D02*
X014641Y004593D01*
X013561Y005590D02*
X012641Y005590D01*
X012641Y006089D02*
X013561Y006089D01*
X013171Y006587D02*
X012641Y006587D01*
X012641Y007086D02*
X012931Y007086D01*
X012771Y007584D02*
X013133Y007584D01*
X012570Y008083D02*
X015431Y008083D01*
X014851Y010576D02*
X010461Y010576D01*
X010337Y011074D02*
X015010Y011074D01*
X014851Y011573D02*
X014811Y011573D01*
X015015Y012080D02*
X015253Y012318D01*
X015140Y012365D01*
X015049Y012365D01*
X015049Y012161D01*
X015015Y012080D01*
X015948Y012318D02*
X016062Y012365D01*
X017732Y012365D01*
X017937Y012280D01*
X018265Y012280D01*
X018469Y012365D01*
X022732Y012365D01*
X022937Y012280D01*
X023265Y012280D01*
X023469Y012365D01*
X023711Y012365D01*
X023711Y012236D01*
X023711Y012054D01*
X023711Y011785D01*
X023814Y011537D01*
X024003Y011347D01*
X024251Y011245D01*
X024609Y011245D01*
X024745Y011245D01*
X024787Y011245D01*
X025019Y011245D01*
X025287Y011245D01*
X025293Y011247D01*
X025479Y011170D01*
X026048Y011170D01*
X026229Y011245D01*
X026508Y011245D01*
X026756Y011347D01*
X026851Y011442D01*
X026851Y011294D01*
X027040Y011105D01*
X026851Y010915D01*
X026851Y010294D01*
X027290Y009855D01*
X027911Y009855D01*
X028051Y009995D01*
X028995Y009995D01*
X029114Y009876D01*
X029430Y009745D01*
X029772Y009745D01*
X030088Y009876D01*
X030330Y010118D01*
X030461Y010434D01*
X030461Y010776D01*
X030330Y011092D01*
X030088Y011334D01*
X029772Y011465D01*
X029430Y011465D01*
X029114Y011334D01*
X028995Y011215D01*
X028271Y011215D01*
X028351Y011294D01*
X028351Y011915D01*
X027948Y012318D01*
X028062Y012365D01*
X029732Y012365D01*
X029937Y012280D01*
X030265Y012280D01*
X030469Y012365D01*
X034732Y012365D01*
X034937Y012280D01*
X035265Y012280D01*
X035568Y012406D01*
X035800Y012638D01*
X035925Y012941D01*
X035925Y013269D01*
X035800Y013572D01*
X035568Y013804D01*
X035265Y013929D01*
X034937Y013929D01*
X034732Y013845D01*
X034610Y013845D01*
X034610Y013994D01*
X034586Y014053D01*
X034610Y014111D01*
X034610Y014111D01*
X034610Y014378D01*
X034610Y014455D01*
X034508Y014701D01*
X034319Y014889D01*
X034073Y014991D01*
X033806Y014991D01*
X033500Y014991D01*
X033288Y014903D01*
X033076Y014991D01*
X032809Y014991D01*
X032579Y014991D01*
X032462Y014991D01*
X032462Y014991D01*
X032327Y014991D01*
X032195Y014991D01*
X031695Y014991D01*
X031541Y014991D01*
X031541Y014991D01*
X031406Y014991D01*
X031275Y014991D01*
X031044Y014991D01*
X031024Y014983D01*
X031004Y014991D01*
X030738Y014991D01*
X030737Y014991D01*
X030654Y014957D01*
X030491Y014889D01*
X030303Y014701D01*
X030303Y014701D01*
X030287Y014662D01*
X030201Y014455D01*
X030201Y014188D01*
X030201Y013929D01*
X029937Y013929D01*
X029732Y013845D01*
X028062Y013845D01*
X027772Y013965D01*
X027430Y013965D01*
X027140Y013845D01*
X025841Y013845D01*
X025841Y013987D01*
X025967Y013935D01*
X026234Y013935D01*
X026351Y013983D01*
X026467Y013935D01*
X026734Y013935D01*
X026980Y014037D01*
X027169Y014225D01*
X027271Y014471D01*
X027271Y014738D01*
X027169Y014984D01*
X027141Y015012D01*
X027141Y020364D01*
X027430Y020245D01*
X027772Y020245D01*
X027861Y020282D01*
X027861Y017957D01*
X027973Y017686D01*
X028182Y017477D01*
X029182Y016477D01*
X029336Y016413D01*
X029276Y016269D01*
X029276Y015941D01*
X029402Y015638D01*
X029634Y015406D01*
X029937Y015280D01*
X030265Y015280D01*
X030568Y015406D01*
X030800Y015638D01*
X030870Y015807D01*
X030980Y015541D01*
X031259Y015262D01*
X031624Y015111D01*
X032019Y015111D01*
X032383Y015262D01*
X032601Y015479D01*
X032818Y015262D01*
X033183Y015111D01*
X033578Y015111D01*
X033942Y015262D01*
X034221Y015541D01*
X034331Y015807D01*
X034402Y015638D01*
X034634Y015406D01*
X034937Y015280D01*
X035265Y015280D01*
X035568Y015406D01*
X035800Y015638D01*
X035925Y015941D01*
X035925Y016269D01*
X035865Y016413D01*
X036020Y016477D01*
X036228Y016686D01*
X036361Y016818D01*
X036361Y009411D01*
X035794Y008845D01*
X035166Y008845D01*
X035093Y008971D01*
X034862Y009202D01*
X034579Y009365D01*
X034264Y009449D01*
X033938Y009449D01*
X033622Y009365D01*
X033339Y009202D01*
X033109Y008971D01*
X032945Y008688D01*
X032861Y008373D01*
X032861Y008046D01*
X032945Y007731D01*
X033109Y007448D01*
X033339Y007217D01*
X033622Y007054D01*
X033938Y006969D01*
X034264Y006969D01*
X034579Y007054D01*
X034862Y007217D01*
X035010Y007365D01*
X036248Y007365D01*
X036520Y007477D01*
X036728Y007686D01*
X037520Y008477D01*
X037728Y008686D01*
X037841Y008957D01*
X037841Y022761D01*
X037916Y022943D01*
X037916Y023267D01*
X037792Y023566D01*
X037562Y023796D01*
X037263Y023920D01*
X036939Y023920D01*
X036841Y023879D01*
X036841Y025252D01*
X036728Y025524D01*
X036520Y025732D01*
X036341Y025911D01*
X036341Y026468D01*
X036464Y026417D01*
X036738Y026417D01*
X036991Y026521D01*
X037034Y026565D01*
X038877Y026565D01*
X039061Y026381D01*
X039061Y003328D01*
X036877Y001145D01*
X031824Y001145D01*
X031641Y001328D01*
X031641Y002712D01*
X031559Y002911D01*
X031407Y003062D01*
X030907Y003562D01*
X030708Y003645D01*
X030493Y003645D01*
X029777Y003645D01*
X029457Y003965D01*
X028745Y003965D01*
X028641Y003861D01*
X028641Y004212D01*
X028559Y004411D01*
X028407Y004562D01*
X027907Y005062D01*
X027708Y005145D01*
X027493Y005145D01*
X019824Y005145D01*
X019771Y005198D01*
X019771Y005238D01*
X019669Y005484D01*
X019641Y005512D01*
X019641Y008197D01*
X019669Y008225D01*
X019771Y008471D01*
X019771Y008738D01*
X019669Y008984D01*
X019588Y009065D01*
X020377Y009065D01*
X020431Y009011D01*
X020431Y008971D01*
X020533Y008725D01*
X020721Y008537D01*
X020967Y008435D01*
X021234Y008435D01*
X021480Y008537D01*
X021669Y008725D01*
X021771Y008971D01*
X021771Y009238D01*
X021669Y009484D01*
X021480Y009673D01*
X021234Y009775D01*
X021194Y009775D01*
X020907Y010062D01*
X020708Y010145D01*
X020493Y010145D01*
X018341Y010145D01*
X018461Y010434D01*
X018461Y010776D01*
X018330Y011092D01*
X018088Y011334D01*
X017772Y011465D01*
X017430Y011465D01*
X017114Y011334D01*
X016995Y011215D01*
X016271Y011215D01*
X016351Y011294D01*
X016351Y011915D01*
X015948Y012318D01*
X016195Y012071D02*
X023711Y012071D01*
X023799Y011573D02*
X016351Y011573D01*
X015601Y013105D02*
X013101Y013105D01*
X013101Y023105D01*
X013841Y022761D02*
X013916Y022943D01*
X013916Y023267D01*
X013792Y023566D01*
X013562Y023796D01*
X013263Y023920D01*
X012939Y023920D01*
X012841Y023879D01*
X012841Y028252D01*
X012728Y028524D01*
X012520Y028732D01*
X012020Y029232D01*
X011748Y029345D01*
X011454Y029345D01*
X010855Y029345D01*
X010841Y029379D01*
X010841Y029752D01*
X010728Y030024D01*
X010687Y030065D01*
X015514Y030065D01*
X015473Y030024D01*
X015361Y029752D01*
X015361Y029457D01*
X015361Y029379D01*
X015256Y029127D01*
X015256Y028145D01*
X015208Y028145D01*
X014993Y028145D01*
X014795Y028062D01*
X014295Y027562D01*
X014143Y027411D01*
X014061Y027212D01*
X014061Y021775D01*
X013967Y021775D01*
X013841Y021722D01*
X013841Y022761D01*
X013841Y022541D02*
X014061Y022541D01*
X014061Y023039D02*
X013916Y023039D01*
X013804Y023538D02*
X014061Y023538D01*
X014061Y024036D02*
X012841Y024036D01*
X012841Y024535D02*
X014061Y024535D01*
X014061Y025033D02*
X012841Y025033D01*
X012841Y025532D02*
X014061Y025532D01*
X014061Y026030D02*
X012841Y026030D01*
X012841Y026529D02*
X014061Y026529D01*
X014061Y027028D02*
X012841Y027028D01*
X012841Y027526D02*
X014258Y027526D01*
X014757Y028025D02*
X012841Y028025D01*
X012728Y028523D02*
X015256Y028523D01*
X015256Y029022D02*
X012230Y029022D01*
X011601Y028605D02*
X012101Y028105D01*
X012101Y017605D01*
X011601Y017105D01*
X011101Y017105D01*
X011101Y016605D01*
X009380Y016605D01*
X010331Y015807D02*
X010402Y015638D01*
X010634Y015406D01*
X010937Y015280D01*
X011265Y015280D01*
X011568Y015406D01*
X011800Y015638D01*
X011925Y015941D01*
X011925Y016269D01*
X011865Y016413D01*
X012020Y016477D01*
X012228Y016686D01*
X012361Y016818D01*
X012361Y013845D01*
X011469Y013845D01*
X011265Y013929D01*
X010937Y013929D01*
X010732Y013845D01*
X010620Y013845D01*
X010623Y013860D01*
X010577Y014091D01*
X010623Y014322D01*
X010571Y014583D01*
X010422Y014805D01*
X010201Y014953D01*
X009939Y015004D01*
X009786Y014974D01*
X009634Y015004D01*
X009372Y014953D01*
X009294Y014901D01*
X009076Y014991D01*
X008809Y014991D01*
X008579Y014991D01*
X008462Y014991D01*
X008462Y014991D01*
X008327Y014991D01*
X008195Y014991D01*
X007695Y014991D01*
X007541Y014991D01*
X007541Y014991D01*
X007406Y014991D01*
X007275Y014991D01*
X007044Y014991D01*
X007024Y014983D01*
X007004Y014991D01*
X006738Y014991D01*
X006737Y014991D01*
X006654Y014957D01*
X006491Y014889D01*
X006303Y014701D01*
X006303Y014701D01*
X006303Y014701D01*
X006287Y014662D01*
X006201Y014455D01*
X006201Y014188D01*
X006201Y013929D01*
X005937Y013929D01*
X005732Y013845D01*
X004062Y013845D01*
X003772Y013965D01*
X003430Y013965D01*
X003114Y013834D01*
X002872Y013592D01*
X002741Y013276D01*
X002741Y012937D01*
X002637Y013006D01*
X002373Y013058D01*
X002224Y013028D01*
X002074Y013058D01*
X001811Y013006D01*
X001733Y012954D01*
X001592Y013012D01*
X001512Y013045D01*
X001377Y013045D01*
X001019Y013045D01*
X000751Y013045D01*
X000751Y028616D01*
X000803Y028564D01*
X001099Y028393D01*
X001430Y028305D01*
X001772Y028305D01*
X002103Y028393D01*
X002399Y028564D01*
X002641Y028806D01*
X002812Y029103D01*
X002901Y029434D01*
X002901Y029776D01*
X002812Y030106D01*
X002641Y030403D01*
X002399Y030645D01*
X002103Y030816D01*
X001772Y030905D01*
X001430Y030905D01*
X001099Y030816D01*
X000803Y030645D01*
X000751Y030593D01*
X000751Y031451D01*
X041321Y031451D01*
X041321Y030074D01*
X041312Y030106D01*
X041141Y030403D01*
X040899Y030645D01*
X040603Y030816D01*
X040272Y030905D01*
X039930Y030905D01*
X039599Y030816D01*
X039303Y030645D01*
X039061Y030403D01*
X038889Y030106D01*
X038801Y029776D01*
X038801Y029434D01*
X038889Y029103D01*
X039061Y028806D01*
X039303Y028564D01*
X039599Y028393D01*
X039930Y028305D01*
X040272Y028305D01*
X040603Y028393D01*
X040899Y028564D01*
X041141Y028806D01*
X041312Y029103D01*
X041321Y029136D01*
X041321Y027163D01*
X041299Y027163D01*
X041176Y027163D01*
X041045Y027163D01*
X041045Y027163D01*
X041045Y027163D01*
X040916Y027110D01*
X040801Y027062D01*
X040801Y027062D01*
X040801Y027062D01*
X040739Y027000D01*
X040739Y027000D01*
X040677Y026939D01*
X040552Y026813D01*
X040552Y026813D01*
X040552Y026813D01*
X040505Y026701D01*
X040451Y026569D01*
X040451Y026569D01*
X040450Y026569D01*
X040450Y026438D01*
X040450Y026304D01*
X040450Y026119D01*
X040450Y026015D01*
X040450Y025751D01*
X040472Y025699D01*
X040450Y025647D01*
X040450Y025382D01*
X040472Y025330D01*
X040450Y025279D01*
X040450Y025014D01*
X040450Y024973D01*
X040450Y024972D01*
X040450Y024906D01*
X040450Y024831D01*
X040450Y024831D01*
X040450Y024707D01*
X040450Y024596D01*
X040450Y024463D01*
X040450Y024463D01*
X040450Y024277D01*
X040450Y023909D01*
X040450Y023788D01*
X040450Y023739D01*
X040437Y023674D01*
X040450Y023608D01*
X040450Y023541D01*
X040450Y023500D01*
X040450Y023499D01*
X040450Y023499D01*
X040450Y023432D01*
X040450Y023358D01*
X040450Y023358D01*
X040450Y023254D01*
X040450Y023130D01*
X040450Y023058D01*
X040450Y022990D01*
X040450Y022989D01*
X040450Y022866D01*
X040451Y022866D01*
X040451Y022866D01*
X040505Y022733D01*
X040523Y022692D01*
X040505Y022650D01*
X040451Y022517D01*
X040450Y022517D02*
X040450Y022387D01*
X040450Y022253D01*
X040450Y022253D01*
X040450Y022068D01*
X040450Y021964D01*
X040450Y021699D01*
X040450Y021331D01*
X040450Y021289D01*
X040450Y021289D01*
X040450Y021217D01*
X040450Y021148D01*
X040450Y021148D01*
X040450Y021024D01*
X040450Y020841D01*
X040450Y020676D01*
X040450Y020545D01*
X040450Y020411D01*
X040450Y020226D01*
X040450Y020105D01*
X040450Y019858D01*
X040450Y019489D01*
X040510Y019346D01*
X040504Y019332D01*
X040451Y019203D01*
X040451Y019203D01*
X040450Y019203D01*
X040450Y019079D01*
X040450Y019007D01*
X040450Y018938D01*
X040450Y018938D01*
X040450Y018814D01*
X040450Y018583D01*
X040437Y018517D01*
X040462Y018395D01*
X040437Y018272D01*
X040457Y018174D01*
X040451Y018159D01*
X040451Y018159D01*
X040450Y018159D01*
X040450Y018027D01*
X040450Y017894D01*
X040451Y017894D01*
X040456Y017880D01*
X040535Y017689D01*
X040505Y017616D01*
X040451Y017484D01*
X040450Y017484D01*
X040450Y017360D01*
X040450Y017291D01*
X040450Y017219D01*
X040450Y017096D01*
X040451Y017096D01*
X040451Y017096D01*
X040504Y016966D01*
X040552Y016851D01*
X040675Y016728D01*
X040739Y016664D01*
X040801Y016602D01*
X041045Y016501D01*
X041292Y016501D01*
X041321Y016501D01*
X041321Y012597D01*
X041136Y012597D01*
X041057Y012564D01*
X040979Y012597D01*
X040872Y012597D01*
X040735Y012597D01*
X040602Y012597D01*
X040602Y012597D01*
X040602Y012597D01*
X040484Y012548D01*
X040352Y012493D01*
X040352Y012493D01*
X040352Y012493D01*
X040251Y012392D01*
X040161Y012302D01*
X040155Y012296D01*
X040141Y012282D01*
X040141Y026712D01*
X040059Y026911D01*
X039907Y027062D01*
X039407Y027562D01*
X039208Y027645D01*
X038993Y027645D01*
X037034Y027645D01*
X036991Y027688D01*
X036738Y027793D01*
X036464Y027793D01*
X036341Y027742D01*
X036341Y028252D01*
X036228Y028524D01*
X036020Y028732D01*
X035748Y028845D01*
X035454Y028845D01*
X035407Y028845D01*
X035020Y029232D01*
X034877Y029291D01*
X034841Y029379D01*
X034841Y029457D01*
X034841Y029752D01*
X034728Y030024D01*
X034020Y030732D01*
X033748Y030845D01*
X033454Y030845D01*
X033333Y030795D01*
X030747Y030795D01*
X030669Y030984D01*
X030480Y031173D01*
X030234Y031275D01*
X029967Y031275D01*
X029721Y031173D01*
X029693Y031145D01*
X027008Y031145D01*
X026980Y031173D01*
X026734Y031275D01*
X026467Y031275D01*
X026221Y031173D01*
X026033Y030984D01*
X025931Y030738D01*
X025931Y030471D01*
X026033Y030225D01*
X026221Y030037D01*
X026467Y029935D01*
X026734Y029935D01*
X026980Y030037D01*
X027008Y030065D01*
X027514Y030065D01*
X027473Y030024D01*
X027361Y029752D01*
X027361Y029379D01*
X027256Y029127D01*
X027256Y028145D01*
X026708Y028145D01*
X026493Y028145D01*
X026295Y028062D01*
X025795Y027562D01*
X025643Y027411D01*
X025561Y027212D01*
X025561Y023796D01*
X025263Y023920D01*
X024939Y023920D01*
X024841Y023879D01*
X024841Y028252D01*
X024728Y028524D01*
X024520Y028732D01*
X024020Y029232D01*
X023748Y029345D01*
X023454Y029345D01*
X022855Y029345D01*
X022841Y029379D01*
X022841Y029752D01*
X022728Y030024D01*
X022520Y030232D01*
X022020Y030732D01*
X021748Y030845D01*
X021454Y030845D01*
X021333Y030795D01*
X018747Y030795D01*
X018669Y030984D01*
X018480Y031173D01*
X018234Y031275D01*
X017967Y031275D01*
X017721Y031173D01*
X017693Y031145D01*
X006508Y031145D01*
X006480Y031173D01*
X006234Y031275D01*
X005967Y031275D01*
X005721Y031173D01*
X005533Y030984D01*
X005454Y030795D01*
X004869Y030795D01*
X004748Y030845D01*
X004454Y030845D01*
X004182Y030732D01*
X003682Y030232D01*
X003682Y030232D01*
X003473Y030024D01*
X003361Y029752D01*
X003361Y029379D01*
X003256Y029127D01*
X003256Y028145D01*
X002708Y028145D01*
X002493Y028145D01*
X002295Y028062D01*
X001643Y027411D01*
X001561Y027212D01*
X001561Y026997D01*
X001561Y019012D01*
X001533Y018984D01*
X001431Y018738D01*
X001431Y018471D01*
X001533Y018225D01*
X001721Y018037D01*
X001967Y017935D01*
X002061Y017935D01*
X002061Y015012D01*
X002033Y014984D01*
X001931Y014738D01*
X001931Y014471D01*
X002033Y014225D01*
X002221Y014037D01*
X002467Y013935D01*
X002734Y013935D01*
X002980Y014037D01*
X003169Y014225D01*
X003271Y014471D01*
X003271Y014738D01*
X003169Y014984D01*
X003141Y015012D01*
X003141Y020364D01*
X003430Y020245D01*
X003772Y020245D01*
X003861Y020282D01*
X003861Y017957D01*
X003973Y017686D01*
X004182Y017477D01*
X005182Y016477D01*
X005336Y016413D01*
X005276Y016269D01*
X005276Y015941D01*
X005402Y015638D01*
X005634Y015406D01*
X005937Y015280D01*
X006265Y015280D01*
X006568Y015406D01*
X006800Y015638D01*
X006870Y015807D01*
X006980Y015541D01*
X007259Y015262D01*
X007624Y015111D01*
X008019Y015111D01*
X008383Y015262D01*
X008601Y015479D01*
X008818Y015262D01*
X009183Y015111D01*
X009578Y015111D01*
X009942Y015262D01*
X010221Y015541D01*
X010331Y015807D01*
X010230Y015561D02*
X010478Y015561D01*
X011101Y016105D02*
X011101Y016605D01*
X011925Y016060D02*
X012361Y016060D01*
X012361Y015561D02*
X011723Y015561D01*
X012361Y015062D02*
X003141Y015062D01*
X003271Y014564D02*
X006246Y014564D01*
X006201Y014065D02*
X003009Y014065D01*
X002861Y013567D02*
X000751Y013567D01*
X000751Y014065D02*
X002193Y014065D01*
X001931Y014564D02*
X000751Y014564D01*
X000751Y015062D02*
X002061Y015062D01*
X002061Y015561D02*
X000751Y015561D01*
X000751Y016060D02*
X002061Y016060D01*
X002061Y016558D02*
X000751Y016558D01*
X000751Y017057D02*
X002061Y017057D01*
X002061Y017555D02*
X000751Y017555D01*
X000751Y018054D02*
X001704Y018054D01*
X001431Y018552D02*
X000751Y018552D01*
X000751Y019051D02*
X001561Y019051D01*
X001561Y019549D02*
X000751Y019549D01*
X000751Y020048D02*
X001561Y020048D01*
X001561Y020546D02*
X000751Y020546D01*
X000751Y021045D02*
X001561Y021045D01*
X001561Y021544D02*
X000751Y021544D01*
X000751Y022042D02*
X001561Y022042D01*
X001561Y022541D02*
X000751Y022541D01*
X000751Y023039D02*
X001561Y023039D01*
X001561Y023538D02*
X000751Y023538D01*
X000751Y024036D02*
X001561Y024036D01*
X001561Y024535D02*
X000751Y024535D01*
X000751Y025033D02*
X001561Y025033D01*
X001561Y025532D02*
X000751Y025532D01*
X000751Y026030D02*
X001561Y026030D01*
X001561Y026529D02*
X000751Y026529D01*
X000751Y027028D02*
X001561Y027028D01*
X001758Y027526D02*
X000751Y027526D01*
X000751Y028025D02*
X002257Y028025D01*
X002327Y028523D02*
X003256Y028523D01*
X003256Y029022D02*
X002765Y029022D01*
X002901Y029520D02*
X003361Y029520D01*
X003471Y030019D02*
X002836Y030019D01*
X002527Y030517D02*
X003967Y030517D01*
X004601Y030105D02*
X004101Y029605D01*
X004101Y028605D01*
X002756Y026997D02*
X002756Y026082D01*
X002885Y025772D01*
X003122Y025535D01*
X003433Y025406D01*
X003769Y025406D01*
X003861Y025444D01*
X003861Y021928D01*
X003772Y021965D01*
X003430Y021965D01*
X003114Y021834D01*
X002961Y021681D01*
X002734Y021775D01*
X002641Y021775D01*
X002641Y026881D01*
X002756Y026997D01*
X002756Y026529D02*
X002641Y026529D01*
X002641Y026030D02*
X002778Y026030D01*
X002641Y025532D02*
X003129Y025532D01*
X002641Y025033D02*
X003861Y025033D01*
X003861Y024535D02*
X002641Y024535D01*
X002641Y024036D02*
X003861Y024036D01*
X003861Y023538D02*
X002641Y023538D01*
X002641Y023039D02*
X003861Y023039D01*
X003861Y022541D02*
X002641Y022541D01*
X002641Y022042D02*
X003861Y022042D01*
X005341Y022042D02*
X008992Y022042D01*
X008763Y022290D02*
X009062Y022414D01*
X009292Y022643D01*
X009416Y022943D01*
X009416Y023267D01*
X009292Y023566D01*
X009062Y023796D01*
X008763Y023920D01*
X008439Y023920D01*
X008141Y023796D01*
X008141Y025527D01*
X008433Y025406D01*
X008769Y025406D01*
X009079Y025535D01*
X009101Y025556D01*
X009122Y025535D01*
X009433Y025406D01*
X009769Y025406D01*
X010079Y025535D01*
X010101Y025556D01*
X010122Y025535D01*
X010433Y025406D01*
X010769Y025406D01*
X011079Y025535D01*
X011317Y025772D01*
X011361Y025879D01*
X011361Y023920D01*
X010678Y023920D01*
X010498Y023845D01*
X010360Y023707D01*
X010286Y023527D01*
X010286Y023336D01*
X007794Y020845D01*
X006469Y020845D01*
X006265Y020929D01*
X005937Y020929D01*
X005634Y020804D01*
X005402Y020572D01*
X005341Y020425D01*
X005341Y025444D01*
X005433Y025406D01*
X005769Y025406D01*
X006079Y025535D01*
X006101Y025556D01*
X006122Y025535D01*
X006433Y025406D01*
X006769Y025406D01*
X007061Y025527D01*
X007061Y023717D01*
X006910Y023566D01*
X006786Y023267D01*
X006786Y022943D01*
X006910Y022643D01*
X007139Y022414D01*
X007439Y022290D01*
X007763Y022290D01*
X008062Y022414D01*
X008101Y022452D01*
X008139Y022414D01*
X008439Y022290D01*
X008763Y022290D01*
X009189Y022541D02*
X009490Y022541D01*
X009416Y023039D02*
X009989Y023039D01*
X010290Y023538D02*
X009304Y023538D01*
X008141Y024036D02*
X011361Y024036D01*
X011361Y024535D02*
X008141Y024535D01*
X008141Y025033D02*
X011361Y025033D01*
X011361Y025532D02*
X011072Y025532D01*
X010129Y025532D02*
X010072Y025532D01*
X009129Y025532D02*
X009072Y025532D01*
X007061Y025033D02*
X005341Y025033D01*
X005341Y024535D02*
X007061Y024535D01*
X007061Y024036D02*
X005341Y024036D01*
X005341Y023538D02*
X006898Y023538D01*
X006786Y023039D02*
X005341Y023039D01*
X005341Y022541D02*
X007012Y022541D01*
X008493Y021544D02*
X005341Y021544D01*
X005341Y021045D02*
X007995Y021045D01*
X008101Y020105D02*
X011101Y023105D01*
X011332Y022290D02*
X011361Y022290D01*
X011361Y020890D01*
X011265Y020929D01*
X010937Y020929D01*
X010732Y020845D01*
X009887Y020845D01*
X011332Y022290D01*
X011361Y022042D02*
X011085Y022042D01*
X011361Y021544D02*
X010586Y021544D01*
X010088Y021045D02*
X011361Y021045D01*
X011101Y020105D02*
X008101Y020105D01*
X006101Y020105D01*
X005341Y019785D02*
X005402Y019638D01*
X005634Y019406D01*
X005937Y019280D01*
X006265Y019280D01*
X006469Y019365D01*
X007954Y019365D01*
X008248Y019365D01*
X010732Y019365D01*
X010937Y019280D01*
X011265Y019280D01*
X011361Y019320D01*
X011361Y017911D01*
X011345Y017896D01*
X011265Y017929D01*
X010937Y017929D01*
X010634Y017804D01*
X010402Y017572D01*
X010331Y017402D01*
X010221Y017669D01*
X009942Y017948D01*
X009578Y018099D01*
X009183Y018099D01*
X008818Y017948D01*
X008601Y017730D01*
X008383Y017948D01*
X008019Y018099D01*
X007624Y018099D01*
X007259Y017948D01*
X006980Y017669D01*
X006870Y017402D01*
X006800Y017572D01*
X006568Y017804D01*
X006265Y017929D01*
X005937Y017929D01*
X005856Y017896D01*
X005341Y018411D01*
X005341Y019785D01*
X005341Y019549D02*
X005490Y019549D01*
X005341Y019051D02*
X011361Y019051D01*
X011361Y018552D02*
X005341Y018552D01*
X005698Y018054D02*
X007516Y018054D01*
X008127Y018054D02*
X009075Y018054D01*
X009686Y018054D02*
X011361Y018054D01*
X010395Y017555D02*
X010268Y017555D01*
X012101Y016558D02*
X012361Y016558D01*
X012361Y014564D02*
X010575Y014564D01*
X010582Y014065D02*
X012361Y014065D01*
X013101Y013105D02*
X011101Y013105D01*
X006101Y013105D01*
X003601Y013105D01*
X003253Y012318D02*
X003028Y012092D01*
X003017Y012145D01*
X003062Y012371D01*
X003048Y012441D01*
X003114Y012376D01*
X003253Y012318D01*
X002741Y013068D02*
X000751Y013068D01*
X001512Y013045D02*
X001512Y013045D01*
X001512Y013045D01*
X000751Y011074D02*
X003010Y011074D01*
X002851Y010576D02*
X000751Y010576D01*
X000751Y010077D02*
X003068Y010077D01*
X003489Y007505D02*
X003489Y007505D01*
X009641Y006864D02*
X009641Y005205D01*
X009790Y005355D01*
X010411Y005355D01*
X010561Y005205D01*
X010561Y006381D01*
X010197Y006745D01*
X009930Y006745D01*
X009641Y006864D01*
X009641Y006587D02*
X010355Y006587D01*
X010561Y006089D02*
X009641Y006089D01*
X009641Y005590D02*
X010561Y005590D01*
X011641Y004593D02*
X011849Y004593D01*
X011641Y004095D02*
X012421Y004095D01*
X012822Y003097D02*
X013561Y003097D01*
X013561Y002599D02*
X013370Y002599D01*
X013821Y002100D02*
X013841Y002100D01*
X013961Y001602D02*
X014404Y001602D01*
X012906Y000755D02*
X009296Y000755D01*
X009588Y000876D01*
X009830Y001118D01*
X009961Y001434D01*
X009961Y001670D01*
X010508Y001670D01*
X010689Y001745D01*
X010758Y001745D01*
X010893Y001745D01*
X010893Y001745D01*
X010894Y001745D01*
X011129Y001745D01*
X011145Y001751D01*
X011160Y001745D01*
X011228Y001745D01*
X011294Y001731D01*
X011361Y001745D01*
X011429Y001745D01*
X011491Y001771D01*
X011557Y001784D01*
X011614Y001821D01*
X011677Y001847D01*
X011725Y001895D01*
X011781Y001933D01*
X011819Y001989D01*
X011867Y002037D01*
X011878Y002065D01*
X012360Y002065D01*
X012241Y001776D01*
X012241Y001434D01*
X012372Y001118D01*
X012614Y000876D01*
X012906Y000755D01*
X012386Y001103D02*
X009816Y001103D01*
X009961Y001602D02*
X012241Y001602D01*
X018557Y003596D02*
X024162Y003596D01*
X025241Y003097D02*
X018771Y003097D01*
X020554Y002599D02*
X025379Y002599D01*
X025241Y002100D02*
X020771Y002100D01*
X020545Y001602D02*
X025387Y001602D01*
X028641Y004095D02*
X032928Y004095D01*
X032935Y004077D02*
X033073Y003939D01*
X033253Y003865D01*
X034948Y003865D01*
X035128Y003939D01*
X035266Y004077D01*
X035341Y004257D01*
X035341Y005952D01*
X035266Y006132D01*
X035128Y006270D01*
X034948Y006345D01*
X033253Y006345D01*
X033073Y006270D01*
X032935Y006132D01*
X032861Y005952D01*
X032861Y004257D01*
X032935Y004077D01*
X032861Y004593D02*
X028376Y004593D01*
X027836Y005092D02*
X032861Y005092D01*
X032861Y005590D02*
X019641Y005590D01*
X019641Y006089D02*
X032917Y006089D01*
X033567Y007086D02*
X026529Y007086D01*
X026480Y007037D02*
X026669Y007225D01*
X026771Y007471D01*
X026771Y007511D01*
X026824Y007565D01*
X028193Y007565D01*
X028221Y007537D01*
X028467Y007435D01*
X028734Y007435D01*
X028980Y007537D01*
X029169Y007725D01*
X029271Y007971D01*
X029271Y008238D01*
X029169Y008484D01*
X028980Y008673D01*
X028734Y008775D01*
X028467Y008775D01*
X028221Y008673D01*
X028193Y008645D01*
X026493Y008645D01*
X026295Y008562D01*
X026143Y008411D01*
X026007Y008275D01*
X025967Y008275D01*
X025721Y008173D01*
X025533Y007984D01*
X025431Y007738D01*
X025431Y007698D01*
X025377Y007645D01*
X021508Y007645D01*
X021480Y007673D01*
X021234Y007775D01*
X020967Y007775D01*
X020721Y007673D01*
X020533Y007484D01*
X020431Y007238D01*
X020431Y006971D01*
X020533Y006725D01*
X020721Y006537D01*
X020967Y006435D01*
X021234Y006435D01*
X021480Y006537D01*
X021508Y006565D01*
X025708Y006565D01*
X025907Y006647D01*
X026059Y006799D01*
X026194Y006935D01*
X026234Y006935D01*
X026480Y007037D01*
X026059Y006799D02*
X026059Y006799D01*
X025763Y006587D02*
X039061Y006587D01*
X039061Y006089D02*
X035284Y006089D01*
X035341Y005590D02*
X039061Y005590D01*
X039061Y005092D02*
X035341Y005092D01*
X035341Y004593D02*
X039061Y004593D01*
X039061Y004095D02*
X035273Y004095D01*
X037833Y002100D02*
X031641Y002100D01*
X031641Y001602D02*
X037334Y001602D01*
X038014Y000755D02*
X038801Y001541D01*
X038801Y001434D01*
X038889Y001103D01*
X038363Y001103D01*
X038014Y000755D02*
X039112Y000755D01*
X039061Y000806D01*
X038889Y001103D01*
X038331Y002599D02*
X031641Y002599D01*
X031372Y003097D02*
X038830Y003097D01*
X039061Y003596D02*
X030826Y003596D01*
X030377Y002565D02*
X029857Y002565D01*
X029961Y002461D01*
X029961Y001749D01*
X029958Y001746D01*
X029977Y001727D01*
X030067Y001638D01*
X030067Y001637D01*
X030067Y001637D01*
X030124Y001501D01*
X030170Y001389D01*
X030170Y001389D01*
X030170Y001257D01*
X030170Y001145D01*
X030377Y001145D01*
X030561Y001328D01*
X030561Y002381D01*
X030377Y002565D01*
X030561Y002100D02*
X029961Y002100D01*
X030082Y001602D02*
X030561Y001602D01*
X030170Y001389D02*
X030170Y001389D01*
X034635Y007086D02*
X039061Y007086D01*
X039061Y007584D02*
X036627Y007584D01*
X036728Y007686D02*
X036728Y007686D01*
X037125Y008083D02*
X039061Y008083D01*
X039061Y008581D02*
X037624Y008581D01*
X037520Y008477D02*
X037520Y008477D01*
X037841Y009080D02*
X039061Y009080D01*
X039061Y009579D02*
X037841Y009579D01*
X037101Y009105D02*
X036101Y008105D01*
X034101Y008105D01*
X034101Y008209D01*
X033030Y007584D02*
X029028Y007584D01*
X029271Y008083D02*
X032861Y008083D01*
X032917Y008581D02*
X029072Y008581D01*
X030289Y010077D02*
X032912Y010077D01*
X032872Y010118D02*
X033114Y009876D01*
X033430Y009745D01*
X033772Y009745D01*
X034088Y009876D01*
X034330Y010118D01*
X034461Y010434D01*
X034461Y010776D01*
X034330Y011092D01*
X034088Y011334D01*
X033772Y011465D01*
X033430Y011465D01*
X033114Y011334D01*
X032872Y011092D01*
X032741Y010776D01*
X032741Y010434D01*
X032872Y010118D01*
X032741Y010576D02*
X030461Y010576D01*
X030337Y011074D02*
X032864Y011074D01*
X034337Y011074D02*
X036361Y011074D01*
X036361Y011573D02*
X028351Y011573D01*
X028195Y012071D02*
X036361Y012071D01*
X036361Y012570D02*
X035732Y012570D01*
X035925Y013068D02*
X036361Y013068D01*
X036361Y013567D02*
X035802Y013567D01*
X036361Y014065D02*
X034591Y014065D01*
X034564Y014564D02*
X036361Y014564D01*
X036361Y015062D02*
X027141Y015062D01*
X027271Y014564D02*
X030246Y014564D01*
X030201Y014065D02*
X027009Y014065D01*
X027601Y013105D02*
X025101Y013105D01*
X025101Y023105D01*
X024841Y024036D02*
X025561Y024036D01*
X025561Y024535D02*
X024841Y024535D01*
X024841Y025033D02*
X025561Y025033D01*
X025561Y025532D02*
X024841Y025532D01*
X024841Y026030D02*
X025561Y026030D01*
X025561Y026529D02*
X024841Y026529D01*
X024841Y027028D02*
X025561Y027028D01*
X025758Y027526D02*
X024841Y027526D01*
X024841Y028025D02*
X026257Y028025D01*
X027256Y028523D02*
X024728Y028523D01*
X024101Y028105D02*
X024101Y017605D01*
X023601Y017105D01*
X023101Y017105D01*
X023101Y016605D01*
X021380Y016605D01*
X022331Y017402D02*
X022221Y017669D01*
X021942Y017948D01*
X021578Y018099D01*
X021183Y018099D01*
X020818Y017948D01*
X020601Y017730D01*
X020383Y017948D01*
X020019Y018099D01*
X019624Y018099D01*
X019259Y017948D01*
X018980Y017669D01*
X018870Y017402D01*
X018800Y017572D01*
X018568Y017804D01*
X018265Y017929D01*
X017937Y017929D01*
X017856Y017896D01*
X017341Y018411D01*
X017341Y019785D01*
X017402Y019638D01*
X017634Y019406D01*
X017937Y019280D01*
X018265Y019280D01*
X018469Y019365D01*
X019954Y019365D01*
X020248Y019365D01*
X022732Y019365D01*
X022937Y019280D01*
X023265Y019280D01*
X023361Y019320D01*
X023361Y017911D01*
X023345Y017896D01*
X023265Y017929D01*
X022937Y017929D01*
X022634Y017804D01*
X022402Y017572D01*
X022331Y017402D01*
X022268Y017555D02*
X022395Y017555D01*
X021686Y018054D02*
X023361Y018054D01*
X023361Y018552D02*
X017341Y018552D01*
X017698Y018054D02*
X019516Y018054D01*
X020127Y018054D02*
X021075Y018054D01*
X019821Y016605D02*
X018101Y016605D01*
X018101Y017105D01*
X017601Y017105D01*
X016601Y018105D01*
X016601Y026605D01*
X017341Y025444D02*
X017433Y025406D01*
X017769Y025406D01*
X018079Y025535D01*
X018101Y025556D01*
X018122Y025535D01*
X018433Y025406D01*
X018769Y025406D01*
X019061Y025527D01*
X019061Y023717D01*
X018910Y023566D01*
X018786Y023267D01*
X018786Y022943D01*
X018910Y022643D01*
X019139Y022414D01*
X019439Y022290D01*
X019763Y022290D01*
X020062Y022414D01*
X020101Y022452D01*
X020139Y022414D01*
X020439Y022290D01*
X020763Y022290D01*
X021062Y022414D01*
X021292Y022643D01*
X021416Y022943D01*
X021416Y023267D01*
X021292Y023566D01*
X021062Y023796D01*
X020763Y023920D01*
X020439Y023920D01*
X020141Y023796D01*
X020141Y025527D01*
X020433Y025406D01*
X020769Y025406D01*
X021079Y025535D01*
X021101Y025556D01*
X021122Y025535D01*
X021433Y025406D01*
X021769Y025406D01*
X022079Y025535D01*
X022101Y025556D01*
X022122Y025535D01*
X022433Y025406D01*
X022769Y025406D01*
X023079Y025535D01*
X023317Y025772D01*
X023361Y025879D01*
X023361Y023920D01*
X022678Y023920D01*
X022498Y023845D01*
X022360Y023707D01*
X022286Y023527D01*
X022286Y023336D01*
X019794Y020845D01*
X018469Y020845D01*
X018265Y020929D01*
X017937Y020929D01*
X017634Y020804D01*
X017402Y020572D01*
X017341Y020425D01*
X017341Y025444D01*
X018072Y025532D02*
X018129Y025532D01*
X017341Y025033D02*
X019061Y025033D01*
X019061Y024535D02*
X017341Y024535D01*
X017341Y024036D02*
X019061Y024036D01*
X018898Y023538D02*
X017341Y023538D01*
X017341Y023039D02*
X018786Y023039D01*
X019012Y022541D02*
X017341Y022541D01*
X017341Y022042D02*
X020992Y022042D01*
X021189Y022541D02*
X021490Y022541D01*
X021416Y023039D02*
X021989Y023039D01*
X022290Y023538D02*
X021304Y023538D01*
X020141Y024036D02*
X023361Y024036D01*
X023361Y024535D02*
X020141Y024535D01*
X020141Y025033D02*
X023361Y025033D01*
X023361Y025532D02*
X023072Y025532D01*
X022129Y025532D02*
X022072Y025532D01*
X021129Y025532D02*
X021072Y025532D01*
X023361Y027330D02*
X023317Y027437D01*
X023079Y027675D01*
X022821Y027782D01*
X022855Y027865D01*
X023294Y027865D01*
X023361Y027798D01*
X023361Y027330D01*
X023361Y027526D02*
X023228Y027526D01*
X024101Y028105D02*
X023601Y028605D01*
X022101Y028605D01*
X022101Y029605D01*
X021601Y030105D01*
X022235Y030517D02*
X025931Y030517D01*
X026265Y030019D02*
X022730Y030019D01*
X022841Y029520D02*
X027361Y029520D01*
X027256Y029022D02*
X024230Y029022D01*
X026064Y031016D02*
X018637Y031016D01*
X016601Y030105D02*
X016101Y029605D01*
X016101Y028605D01*
X015361Y029520D02*
X010841Y029520D01*
X010101Y029605D02*
X010101Y028605D01*
X011601Y028605D01*
X011294Y027865D02*
X010855Y027865D01*
X010821Y027782D01*
X011079Y027675D01*
X011317Y027437D01*
X011361Y027330D01*
X011361Y027798D01*
X011294Y027865D01*
X011228Y027526D02*
X011361Y027526D01*
X010101Y029605D02*
X009601Y030105D01*
X010730Y030019D02*
X015471Y030019D01*
X015141Y025527D02*
X015433Y025406D01*
X015769Y025406D01*
X015861Y025444D01*
X015861Y021928D01*
X015772Y021965D01*
X015430Y021965D01*
X015141Y021845D01*
X015141Y025527D01*
X015141Y025033D02*
X015861Y025033D01*
X015861Y024535D02*
X015141Y024535D01*
X015141Y024036D02*
X015861Y024036D01*
X015861Y023538D02*
X015141Y023538D01*
X015141Y023039D02*
X015861Y023039D01*
X015861Y022541D02*
X015141Y022541D01*
X015141Y022042D02*
X015861Y022042D01*
X017341Y021544D02*
X020493Y021544D01*
X019995Y021045D02*
X017341Y021045D01*
X017341Y020546D02*
X017391Y020546D01*
X018101Y020105D02*
X020101Y020105D01*
X023101Y023105D01*
X023332Y022290D02*
X023361Y022290D01*
X023361Y020890D01*
X023265Y020929D01*
X022937Y020929D01*
X022732Y020845D01*
X021887Y020845D01*
X023332Y022290D01*
X023361Y022042D02*
X023085Y022042D01*
X023361Y021544D02*
X022586Y021544D01*
X022088Y021045D02*
X023361Y021045D01*
X023101Y020105D02*
X020101Y020105D01*
X017490Y019549D02*
X017341Y019549D01*
X017341Y019051D02*
X023361Y019051D01*
X024361Y016818D02*
X024361Y013845D01*
X023469Y013845D01*
X023265Y013929D01*
X022937Y013929D01*
X022732Y013845D01*
X022487Y013845D01*
X022508Y013865D01*
X022610Y014111D01*
X022610Y014455D01*
X022508Y014701D01*
X022319Y014889D01*
X022073Y014991D01*
X021806Y014991D01*
X021786Y014983D01*
X021766Y014991D01*
X021500Y014991D01*
X021288Y014903D01*
X021076Y014991D01*
X020809Y014991D01*
X020579Y014991D01*
X020462Y014991D01*
X020462Y014991D01*
X020327Y014991D01*
X020195Y014991D01*
X019658Y014991D01*
X019541Y014991D01*
X019541Y014991D01*
X019406Y014991D01*
X019275Y014991D01*
X019044Y014991D01*
X019024Y014983D01*
X019004Y014991D01*
X018738Y014991D01*
X018737Y014991D01*
X018654Y014957D01*
X018491Y014889D01*
X018303Y014701D01*
X018303Y014701D01*
X018303Y014701D01*
X018287Y014662D01*
X018201Y014455D01*
X018201Y014188D01*
X018201Y013929D01*
X017937Y013929D01*
X017732Y013845D01*
X016062Y013845D01*
X015772Y013965D01*
X015430Y013965D01*
X015140Y013845D01*
X013841Y013845D01*
X013841Y013987D01*
X013967Y013935D01*
X014234Y013935D01*
X014351Y013983D01*
X014467Y013935D01*
X014734Y013935D01*
X014980Y014037D01*
X015169Y014225D01*
X015271Y014471D01*
X015271Y014738D01*
X015169Y014984D01*
X015141Y015012D01*
X015141Y020364D01*
X015430Y020245D01*
X015772Y020245D01*
X015861Y020282D01*
X015861Y017957D01*
X015973Y017686D01*
X016182Y017477D01*
X017182Y016477D01*
X017336Y016413D01*
X017276Y016269D01*
X017276Y015941D01*
X017402Y015638D01*
X017634Y015406D01*
X017937Y015280D01*
X018265Y015280D01*
X018568Y015406D01*
X018800Y015638D01*
X018870Y015807D01*
X018980Y015541D01*
X019259Y015262D01*
X019624Y015111D01*
X020019Y015111D01*
X020383Y015262D01*
X020601Y015479D01*
X020818Y015262D01*
X021183Y015111D01*
X021578Y015111D01*
X021942Y015262D01*
X022221Y015541D01*
X022331Y015807D01*
X022402Y015638D01*
X022634Y015406D01*
X022937Y015280D01*
X023265Y015280D01*
X023568Y015406D01*
X023800Y015638D01*
X023925Y015941D01*
X023925Y016269D01*
X023865Y016413D01*
X024020Y016477D01*
X024228Y016686D01*
X024361Y016818D01*
X024361Y016558D02*
X024101Y016558D01*
X023925Y016060D02*
X024361Y016060D01*
X024361Y015561D02*
X023723Y015561D01*
X024361Y015062D02*
X015141Y015062D01*
X015271Y014564D02*
X018246Y014564D01*
X018201Y014065D02*
X015009Y014065D01*
X015601Y013105D02*
X018101Y013105D01*
X023101Y013105D01*
X025101Y013105D01*
X024361Y014065D02*
X022591Y014065D01*
X022564Y014564D02*
X024361Y014564D01*
X022478Y015561D02*
X022230Y015561D01*
X023101Y016105D02*
X023101Y016605D01*
X018972Y015561D02*
X018723Y015561D01*
X018101Y016105D02*
X018101Y016605D01*
X017276Y016060D02*
X015141Y016060D01*
X015141Y015561D02*
X017478Y015561D01*
X017101Y016558D02*
X015141Y016558D01*
X015141Y017057D02*
X016602Y017057D01*
X016104Y017555D02*
X015141Y017555D01*
X015141Y018054D02*
X015861Y018054D01*
X015861Y018552D02*
X015141Y018552D01*
X015141Y019051D02*
X015861Y019051D01*
X015861Y019549D02*
X015141Y019549D01*
X015141Y020048D02*
X015861Y020048D01*
X014061Y022042D02*
X013841Y022042D01*
X018807Y017555D02*
X018933Y017555D01*
X021430Y011465D02*
X021114Y011334D01*
X020872Y011092D01*
X020741Y010776D01*
X020741Y010434D01*
X020872Y010118D01*
X021114Y009876D01*
X021430Y009745D01*
X021772Y009745D01*
X022088Y009876D01*
X022330Y010118D01*
X022461Y010434D01*
X022461Y010776D01*
X022330Y011092D01*
X022088Y011334D01*
X021772Y011465D01*
X021430Y011465D01*
X020864Y011074D02*
X018337Y011074D01*
X018461Y010576D02*
X020741Y010576D01*
X020871Y010077D02*
X020912Y010077D01*
X021574Y009579D02*
X036361Y009579D01*
X036030Y009080D02*
X034984Y009080D01*
X034289Y010077D02*
X036361Y010077D01*
X036361Y010576D02*
X034461Y010576D01*
X033218Y009080D02*
X021771Y009080D01*
X021525Y008581D02*
X026341Y008581D01*
X025631Y008083D02*
X019641Y008083D01*
X019771Y008581D02*
X020677Y008581D01*
X020633Y007584D02*
X019641Y007584D01*
X019641Y007086D02*
X020431Y007086D01*
X020671Y006587D02*
X019641Y006587D01*
X022289Y010077D02*
X027068Y010077D01*
X026851Y010576D02*
X022461Y010576D01*
X022337Y011074D02*
X027010Y011074D01*
X027031Y012096D02*
X027253Y012318D01*
X027140Y012365D01*
X027049Y012365D01*
X027049Y012161D01*
X027049Y012161D01*
X027027Y012107D01*
X027031Y012096D01*
X027601Y013105D02*
X030101Y013105D01*
X035101Y013105D01*
X037841Y013068D02*
X039061Y013068D01*
X039061Y012570D02*
X037841Y012570D01*
X037841Y012071D02*
X039061Y012071D01*
X039061Y011573D02*
X037841Y011573D01*
X037841Y011074D02*
X039061Y011074D01*
X039061Y010576D02*
X037841Y010576D01*
X037841Y010077D02*
X039061Y010077D01*
X040141Y009191D02*
X040206Y009125D01*
X040161Y009079D01*
X040155Y009073D01*
X040141Y009060D01*
X040141Y009191D01*
X040141Y009080D02*
X040161Y009080D01*
X040161Y009079D02*
X040161Y009079D01*
X037101Y009105D02*
X037101Y023105D01*
X037841Y022541D02*
X039061Y022541D01*
X039061Y023039D02*
X037916Y023039D01*
X037804Y023538D02*
X039061Y023538D01*
X039061Y024036D02*
X036841Y024036D01*
X036841Y024535D02*
X039061Y024535D01*
X039061Y025033D02*
X036841Y025033D01*
X036720Y025532D02*
X039061Y025532D01*
X039061Y026030D02*
X036341Y026030D01*
X036998Y026529D02*
X038913Y026529D01*
X039942Y027028D02*
X040766Y027028D01*
X040450Y026529D02*
X040141Y026529D01*
X040450Y026304D02*
X040450Y026304D01*
X040450Y026030D02*
X040141Y026030D01*
X040141Y025532D02*
X040450Y025532D01*
X040450Y025033D02*
X040141Y025033D01*
X040450Y024972D02*
X040450Y024972D01*
X040450Y024535D02*
X040141Y024535D01*
X040141Y024036D02*
X040450Y024036D01*
X040450Y023538D02*
X040141Y023538D01*
X040141Y023039D02*
X040450Y023039D01*
X040450Y023130D02*
X040450Y023130D01*
X040460Y022541D02*
X040141Y022541D01*
X040450Y022517D02*
X040451Y022517D01*
X040451Y022517D01*
X040450Y022042D02*
X040141Y022042D01*
X040141Y021544D02*
X040450Y021544D01*
X040450Y021045D02*
X040141Y021045D01*
X040141Y020546D02*
X040450Y020546D01*
X040450Y020411D02*
X040450Y020411D01*
X040450Y020048D02*
X040141Y020048D01*
X040141Y019549D02*
X040450Y019549D01*
X040450Y019079D02*
X040450Y019079D01*
X040450Y019051D02*
X040141Y019051D01*
X040141Y018552D02*
X040444Y018552D01*
X040450Y018054D02*
X040141Y018054D01*
X040451Y017894D02*
X040451Y017894D01*
X040480Y017555D02*
X040141Y017555D01*
X040451Y017484D02*
X040451Y017484D01*
X040450Y017360D02*
X040450Y017360D01*
X040450Y017219D02*
X040450Y017219D01*
X040467Y017057D02*
X040141Y017057D01*
X040552Y016851D02*
X040552Y016851D01*
X040552Y016851D01*
X040739Y016664D02*
X040739Y016664D01*
X040908Y016558D02*
X040141Y016558D01*
X040141Y016060D02*
X041321Y016060D01*
X041321Y015561D02*
X040141Y015561D01*
X040141Y015062D02*
X041321Y015062D01*
X041321Y014564D02*
X040141Y014564D01*
X040141Y014065D02*
X041321Y014065D01*
X041321Y013567D02*
X040141Y013567D01*
X040141Y013068D02*
X041321Y013068D01*
X041070Y012570D02*
X041044Y012570D01*
X040872Y012597D02*
X040872Y012597D01*
X040536Y012570D02*
X040141Y012570D01*
X040161Y012302D02*
X040161Y012302D01*
X039061Y013567D02*
X037841Y013567D01*
X037841Y014065D02*
X039061Y014065D01*
X039061Y014564D02*
X037841Y014564D01*
X037841Y015062D02*
X039061Y015062D01*
X039061Y015561D02*
X037841Y015561D01*
X037841Y016060D02*
X039061Y016060D01*
X039061Y016558D02*
X037841Y016558D01*
X037841Y017057D02*
X039061Y017057D01*
X039061Y017555D02*
X037841Y017555D01*
X037841Y018054D02*
X039061Y018054D01*
X039061Y018552D02*
X037841Y018552D01*
X037841Y019051D02*
X039061Y019051D01*
X039061Y019549D02*
X037841Y019549D01*
X037841Y020048D02*
X039061Y020048D01*
X039061Y020546D02*
X037841Y020546D01*
X037841Y021045D02*
X039061Y021045D01*
X039061Y021544D02*
X037841Y021544D01*
X037841Y022042D02*
X039061Y022042D01*
X035361Y022042D02*
X034998Y022042D01*
X035287Y022290D02*
X035361Y022290D01*
X035361Y020890D01*
X035265Y020929D01*
X034937Y020929D01*
X034732Y020845D01*
X033601Y020845D01*
X035287Y022290D01*
X035101Y023105D02*
X031601Y020105D01*
X030101Y020105D01*
X029341Y020425D02*
X029341Y025444D01*
X029433Y025406D01*
X029769Y025406D01*
X030079Y025535D01*
X030101Y025556D01*
X030122Y025535D01*
X030433Y025406D01*
X030769Y025406D01*
X031061Y025527D01*
X031061Y023717D01*
X030910Y023566D01*
X030786Y023267D01*
X030786Y022943D01*
X030910Y022643D01*
X031139Y022414D01*
X031439Y022290D01*
X031763Y022290D01*
X032062Y022414D01*
X032101Y022452D01*
X032139Y022414D01*
X032439Y022290D01*
X032763Y022290D01*
X033062Y022414D01*
X033292Y022643D01*
X033416Y022943D01*
X033416Y023267D01*
X033292Y023566D01*
X033062Y023796D01*
X032763Y023920D01*
X032439Y023920D01*
X032141Y023796D01*
X032141Y025527D01*
X032433Y025406D01*
X032769Y025406D01*
X033079Y025535D01*
X033101Y025556D01*
X033122Y025535D01*
X033433Y025406D01*
X033769Y025406D01*
X034079Y025535D01*
X034101Y025556D01*
X034122Y025535D01*
X034433Y025406D01*
X034769Y025406D01*
X034866Y025446D01*
X034973Y025186D01*
X035361Y024798D01*
X035361Y023920D01*
X034678Y023920D01*
X034498Y023845D01*
X034360Y023707D01*
X034286Y023527D01*
X034286Y023381D01*
X031327Y020845D01*
X030469Y020845D01*
X030265Y020929D01*
X029937Y020929D01*
X029634Y020804D01*
X029402Y020572D01*
X029341Y020425D01*
X029341Y020546D02*
X029391Y020546D01*
X029341Y021045D02*
X031561Y021045D01*
X032142Y021544D02*
X029341Y021544D01*
X029341Y022042D02*
X032724Y022042D01*
X033189Y022541D02*
X033306Y022541D01*
X033416Y023039D02*
X033887Y023039D01*
X034290Y023538D02*
X033304Y023538D01*
X032141Y024036D02*
X035361Y024036D01*
X035361Y024535D02*
X032141Y024535D01*
X032141Y025033D02*
X035126Y025033D01*
X035601Y025605D02*
X036101Y025105D01*
X036101Y017605D01*
X035601Y017105D01*
X035101Y017105D01*
X035101Y016605D01*
X033380Y016605D01*
X034331Y017402D02*
X034221Y017669D01*
X033942Y017948D01*
X033578Y018099D01*
X033183Y018099D01*
X032818Y017948D01*
X032601Y017730D01*
X032383Y017948D01*
X032019Y018099D01*
X031624Y018099D01*
X031259Y017948D01*
X030980Y017669D01*
X030870Y017402D01*
X030800Y017572D01*
X030568Y017804D01*
X030265Y017929D01*
X029937Y017929D01*
X029856Y017896D01*
X029341Y018411D01*
X029341Y019785D01*
X029402Y019638D01*
X029634Y019406D01*
X029937Y019280D01*
X030265Y019280D01*
X030469Y019365D01*
X031572Y019365D01*
X031691Y019356D01*
X031719Y019365D01*
X031748Y019365D01*
X034732Y019365D01*
X034937Y019280D01*
X035265Y019280D01*
X035361Y019320D01*
X035361Y017911D01*
X035345Y017896D01*
X035265Y017929D01*
X034937Y017929D01*
X034634Y017804D01*
X034402Y017572D01*
X034331Y017402D01*
X034268Y017555D02*
X034395Y017555D01*
X033686Y018054D02*
X035361Y018054D01*
X035361Y018552D02*
X029341Y018552D01*
X029698Y018054D02*
X031516Y018054D01*
X032127Y018054D02*
X033075Y018054D01*
X031821Y016605D02*
X030101Y016605D01*
X030101Y017105D01*
X029601Y017105D01*
X028601Y018105D01*
X028601Y026605D01*
X027861Y025444D02*
X027861Y021928D01*
X027772Y021965D01*
X027430Y021965D01*
X027114Y021834D01*
X026975Y021695D01*
X026738Y021793D01*
X026641Y021793D01*
X026641Y026881D01*
X026756Y026997D01*
X026756Y026082D01*
X026885Y025772D01*
X027122Y025535D01*
X027433Y025406D01*
X027769Y025406D01*
X027861Y025444D01*
X027861Y025033D02*
X026641Y025033D01*
X026641Y024535D02*
X027861Y024535D01*
X027861Y024036D02*
X026641Y024036D01*
X026641Y023538D02*
X027861Y023538D01*
X027861Y023039D02*
X026641Y023039D01*
X026641Y022541D02*
X027861Y022541D01*
X027861Y022042D02*
X026641Y022042D01*
X027141Y020048D02*
X027861Y020048D01*
X027861Y019549D02*
X027141Y019549D01*
X027141Y019051D02*
X027861Y019051D01*
X027861Y018552D02*
X027141Y018552D01*
X027141Y018054D02*
X027861Y018054D01*
X028104Y017555D02*
X027141Y017555D01*
X027141Y017057D02*
X028602Y017057D01*
X029101Y016558D02*
X027141Y016558D01*
X027141Y016060D02*
X029276Y016060D01*
X029478Y015561D02*
X027141Y015561D01*
X030101Y016105D02*
X030101Y016605D01*
X030807Y017555D02*
X030933Y017555D01*
X029341Y019051D02*
X035361Y019051D01*
X035101Y020105D02*
X031601Y020105D01*
X029490Y019549D02*
X029341Y019549D01*
X029341Y022541D02*
X031012Y022541D01*
X030786Y023039D02*
X029341Y023039D01*
X029341Y023538D02*
X030898Y023538D01*
X031061Y024036D02*
X029341Y024036D01*
X029341Y024535D02*
X031061Y024535D01*
X031061Y025033D02*
X029341Y025033D01*
X030072Y025532D02*
X030129Y025532D01*
X033072Y025532D02*
X033129Y025532D01*
X034072Y025532D02*
X034129Y025532D01*
X035601Y025605D02*
X035601Y028105D01*
X035101Y028105D01*
X034601Y028605D01*
X034101Y028605D01*
X034101Y029605D01*
X033601Y030105D01*
X034235Y030517D02*
X039175Y030517D01*
X038866Y030019D02*
X034730Y030019D01*
X034841Y029520D02*
X038801Y029520D01*
X038936Y029022D02*
X035230Y029022D01*
X036228Y028523D02*
X039374Y028523D01*
X039443Y027526D02*
X041321Y027526D01*
X041321Y028025D02*
X036341Y028025D01*
X040827Y028523D02*
X041321Y028523D01*
X041321Y029022D02*
X041265Y029022D01*
X041321Y030517D02*
X041027Y030517D01*
X041321Y031016D02*
X030637Y031016D01*
X028601Y030105D02*
X028101Y029605D01*
X028101Y028605D01*
X027471Y030019D02*
X026937Y030019D01*
X026756Y026529D02*
X026641Y026529D01*
X026641Y026030D02*
X026778Y026030D01*
X026641Y025532D02*
X027129Y025532D01*
X033835Y021045D02*
X035361Y021045D01*
X035361Y021544D02*
X034416Y021544D01*
X035101Y016605D02*
X035101Y016105D01*
X035925Y016060D02*
X036361Y016060D01*
X036361Y015561D02*
X035723Y015561D01*
X036101Y016558D02*
X036361Y016558D01*
X034478Y015561D02*
X034230Y015561D01*
X030972Y015561D02*
X030723Y015561D01*
X024745Y011245D02*
X024745Y011245D01*
X012745Y011245D02*
X012745Y011245D01*
X011677Y008581D02*
X009641Y008581D01*
X010834Y008083D02*
X011631Y008083D01*
X011431Y007584D02*
X010961Y007584D01*
X011383Y007086D02*
X011561Y007086D01*
X006972Y015561D02*
X006723Y015561D01*
X006101Y016105D02*
X006101Y016605D01*
X007821Y016605D01*
X006933Y017555D02*
X006807Y017555D01*
X006101Y017105D02*
X005601Y017105D01*
X004601Y018105D01*
X004601Y026605D01*
X006072Y025532D02*
X006129Y025532D01*
X000874Y028523D02*
X000751Y028523D01*
X000751Y031016D02*
X005564Y031016D01*
X005391Y020546D02*
X005341Y020546D01*
X003861Y020048D02*
X003141Y020048D01*
X003141Y019549D02*
X003861Y019549D01*
X003861Y019051D02*
X003141Y019051D01*
X003141Y018552D02*
X003861Y018552D01*
X003861Y018054D02*
X003141Y018054D01*
X003141Y017555D02*
X004104Y017555D01*
X004602Y017057D02*
X003141Y017057D01*
X003141Y016558D02*
X005101Y016558D01*
X005276Y016060D02*
X003141Y016060D01*
X003141Y015561D02*
X005478Y015561D01*
X006101Y016605D02*
X006101Y017105D01*
X040141Y003283D02*
X040245Y003179D01*
X040495Y003076D01*
X040766Y003076D01*
X041321Y003076D01*
X041321Y002074D01*
X041312Y002106D01*
X041141Y002403D01*
X040899Y002645D01*
X040603Y002816D01*
X040272Y002905D01*
X040102Y002905D01*
X040141Y002997D01*
X040141Y003283D01*
X040141Y003097D02*
X040442Y003097D01*
X040945Y002599D02*
X041321Y002599D01*
X041314Y002100D02*
X041321Y002100D01*
X041321Y001136D02*
X041321Y000755D01*
X041089Y000755D01*
X041141Y000806D01*
X041312Y001103D01*
X041321Y001136D01*
X041321Y001103D02*
X041312Y001103D01*
X041292Y016501D02*
X041292Y016501D01*
D22*
X031601Y023105D02*
X031601Y026605D01*
X031601Y027605D02*
X031101Y027605D01*
X030601Y027105D01*
X030101Y027605D01*
X026601Y027605D01*
X026101Y027105D01*
X026101Y014605D01*
X026601Y014605D02*
X026601Y021105D01*
X030601Y026605D02*
X030601Y027105D01*
X031601Y027605D02*
X032101Y028105D01*
X032101Y028605D01*
X032601Y029605D02*
X030601Y029605D01*
X030101Y029105D01*
X030101Y028605D01*
X030101Y030605D02*
X026601Y030605D01*
X020601Y029605D02*
X018601Y029605D01*
X018101Y029105D01*
X018101Y028605D01*
X018101Y027605D02*
X015101Y027605D01*
X014601Y027105D01*
X014601Y014605D01*
X014101Y014605D02*
X014101Y021105D01*
X019601Y023105D02*
X019601Y026605D01*
X018601Y026605D02*
X018601Y027105D01*
X018101Y027605D01*
X018601Y027105D02*
X019101Y027605D01*
X019601Y027605D01*
X020101Y028105D01*
X020101Y028605D01*
X018101Y030605D02*
X006101Y030605D01*
X006601Y029605D02*
X006101Y029105D01*
X006101Y028605D01*
X006101Y027605D02*
X002601Y027605D01*
X002101Y027105D01*
X002101Y018605D01*
X002601Y021105D02*
X002601Y014605D01*
X006101Y013105D02*
X006601Y012605D01*
X006601Y008105D01*
X006101Y007605D01*
X004601Y006105D01*
X004601Y003849D01*
X003774Y003022D01*
X005428Y003022D02*
X005601Y003195D01*
X005601Y004105D01*
X006101Y004605D01*
X009101Y004605D01*
X009101Y009105D01*
X009601Y009605D01*
X020601Y009605D01*
X021101Y009105D01*
X019101Y008605D02*
X019101Y005105D01*
X019601Y004605D01*
X027601Y004605D01*
X028101Y004105D01*
X028101Y003105D01*
X027101Y003105D02*
X027101Y003605D01*
X026601Y004105D01*
X024601Y004105D01*
X025601Y007105D02*
X021101Y007105D01*
X017101Y007605D02*
X016601Y007605D01*
X016101Y008105D01*
X016601Y007105D02*
X016601Y004105D01*
X017601Y003105D01*
X018101Y003105D01*
X020101Y002105D02*
X014601Y002105D01*
X014101Y002605D01*
X014101Y006605D01*
X013601Y007105D01*
X012101Y007605D02*
X012101Y005105D01*
X012601Y004605D01*
X013101Y004605D01*
X011601Y002605D02*
X011101Y003105D01*
X011101Y006605D01*
X010101Y007605D01*
X012101Y009105D02*
X017101Y009105D01*
X016101Y005105D02*
X016101Y003105D01*
X013101Y002105D02*
X013101Y001605D01*
X014101Y000605D01*
X030601Y000605D01*
X031101Y001105D01*
X031601Y000605D01*
X037101Y000605D01*
X039601Y003105D01*
X039601Y026605D01*
X039101Y027105D01*
X036601Y027105D01*
X028601Y008105D02*
X026601Y008105D01*
X026101Y007605D01*
X025601Y007105D01*
X029101Y003105D02*
X030601Y003105D01*
X031101Y002605D01*
X031101Y001105D01*
X013101Y002105D02*
X012601Y002605D01*
X011601Y002605D01*
X010101Y004105D02*
X010101Y004605D01*
X010101Y004105D02*
X009601Y003605D01*
X009601Y002105D01*
X009101Y001605D01*
X007601Y023105D02*
X007601Y026605D01*
X007601Y027605D02*
X007101Y027605D01*
X006601Y027105D01*
X006101Y027605D01*
X006601Y027105D02*
X006601Y026605D01*
X007601Y027605D02*
X008101Y028105D01*
X008101Y028605D01*
X008601Y029605D02*
X006601Y029605D01*
D23*
X006101Y030605D03*
X008601Y029605D03*
X018101Y030605D03*
X020601Y029605D03*
X026601Y030605D03*
X030101Y030605D03*
X014101Y021105D03*
X014101Y014605D03*
X014601Y014605D03*
X017101Y009105D03*
X016101Y008105D03*
X017101Y007605D03*
X016601Y007105D03*
X019101Y008605D03*
X021101Y009105D03*
X021101Y007105D03*
X019101Y005105D03*
X018101Y003105D03*
X020101Y002105D03*
X016101Y003105D03*
X016101Y005105D03*
X013101Y004605D03*
X013601Y007105D03*
X012101Y007605D03*
X012101Y009105D03*
X002601Y014605D03*
X002101Y018605D03*
X002601Y021105D03*
X024601Y004105D03*
X026101Y007605D03*
X028601Y008105D03*
X026601Y014605D03*
X026101Y014605D03*
D24*
X028601Y030105D02*
X033601Y030105D01*
X021601Y030105D02*
X016601Y030105D01*
X009601Y030105D02*
X004601Y030105D01*
D25*
X003601Y010605D02*
X005601Y010605D01*
X015601Y010605D02*
X017601Y010605D01*
X027601Y010605D02*
X029601Y010605D01*
D26*
X026601Y021105D03*
X036601Y027105D03*
X032601Y029605D03*
M02*
