G75*
G70*
%OFA0B0*%
%FSLAX24Y24*%
%IPPOS*%
%LPD*%
%AMOC8*
5,1,8,0,0,1.08239X$1,22.5*
%
%ADD10R,0.0591X0.0984*%
%ADD11R,0.0860X0.0420*%
%ADD12R,0.0787X0.0984*%
%ADD13R,0.0512X0.0433*%
%ADD14R,0.0472X0.0591*%
%ADD15R,0.0630X0.0709*%
%ADD16R,0.0866X0.0236*%
%ADD17R,0.0630X0.0551*%
%ADD18R,0.0315X0.0315*%
%ADD19R,0.0709X0.0630*%
D10*
X024581Y003305D03*
X035408Y004062D03*
D11*
X024549Y004171D03*
X024549Y008108D03*
D12*
X024226Y010155D03*
X035762Y010155D03*
D13*
X025038Y012142D03*
D14*
X025908Y012072D03*
X026573Y012064D03*
X027526Y012064D03*
X028510Y012064D03*
X029494Y012064D03*
X030478Y012064D03*
X031463Y012064D03*
X032447Y012064D03*
X033431Y012064D03*
D15*
X033489Y013912D03*
X032387Y013912D03*
X030589Y013912D03*
X029487Y013912D03*
X016589Y020512D03*
X015487Y020512D03*
X013289Y020512D03*
X012187Y020512D03*
D16*
X014521Y006062D03*
X014521Y006562D03*
X014521Y007062D03*
X014521Y007562D03*
X017346Y007562D03*
X017346Y007062D03*
X017346Y006562D03*
X017346Y006062D03*
X017346Y011762D03*
X017346Y012262D03*
X017346Y012762D03*
X017346Y013262D03*
X014521Y013262D03*
X014521Y012762D03*
X014521Y012262D03*
X014521Y011762D03*
X013515Y021762D03*
X013515Y022262D03*
X013515Y022762D03*
X013515Y023262D03*
X015562Y023262D03*
X015562Y022762D03*
X015562Y022262D03*
X015562Y021762D03*
D17*
X017038Y022661D03*
X017038Y023764D03*
X011938Y023664D03*
X011938Y022561D03*
D18*
X012138Y030517D03*
X012138Y031108D03*
X009838Y031108D03*
X009838Y030517D03*
D19*
X009838Y029564D03*
X009838Y028461D03*
X012138Y028461D03*
X012138Y029564D03*
M02*
