G75*
G70*
%OFA0B0*%
%FSLAX24Y24*%
%IPPOS*%
%LPD*%
%AMOC8*
5,1,8,0,0,1.08239X$1,22.5*
%
%ADD10R,0.0800X0.0900*%
%ADD11R,0.0515X0.0515*%
%ADD12C,0.0515*%
%ADD13R,0.0591X0.0984*%
%ADD14R,0.0860X0.0420*%
%ADD15R,0.0787X0.0984*%
%ADD16R,0.0512X0.0433*%
%ADD17R,0.0472X0.0591*%
%ADD18R,0.1055X0.0993*%
%ADD19R,0.1055X0.0993*%
%ADD20C,0.0740*%
%ADD21R,0.0630X0.0709*%
%ADD22R,0.0900X0.0900*%
%ADD23C,0.0900*%
%ADD24C,0.1000*%
%ADD25OC8,0.0600*%
%ADD26C,0.2000*%
%ADD27R,0.0866X0.0236*%
%ADD28R,0.0630X0.0551*%
%ADD29R,0.0315X0.0315*%
%ADD30R,0.0709X0.0630*%
%ADD31C,0.0600*%
%ADD32C,0.1004*%
%ADD33R,0.0740X0.0740*%
%ADD34C,0.0669*%
%ADD35C,0.0300*%
%ADD36R,0.0440X0.0440*%
%ADD37C,0.0240*%
%ADD38C,0.0100*%
%ADD39C,0.0160*%
D10*
X036538Y010162D03*
D11*
X038538Y001212D03*
X021538Y001212D03*
D12*
X020538Y001212D03*
X020538Y002212D03*
X021538Y002212D03*
X021538Y003212D03*
X020538Y003212D03*
X020538Y004212D03*
X021538Y004212D03*
X021538Y005212D03*
X020538Y005212D03*
X020538Y006212D03*
X021538Y006212D03*
X021538Y007212D03*
X020538Y007212D03*
X020538Y008212D03*
X021538Y008212D03*
X021538Y009212D03*
X020538Y009212D03*
X020538Y010212D03*
X021538Y010212D03*
X021538Y011212D03*
X020538Y011212D03*
X020538Y012212D03*
X021538Y012212D03*
X021538Y013212D03*
X020538Y013212D03*
X020538Y014212D03*
X021538Y014212D03*
X021538Y015212D03*
X020538Y015212D03*
X020538Y016212D03*
X021538Y016212D03*
X021538Y017212D03*
X020538Y017212D03*
X020538Y018212D03*
X021538Y018212D03*
X021538Y019212D03*
X020538Y019212D03*
X020538Y020212D03*
X021538Y020212D03*
X021538Y021212D03*
X020538Y021212D03*
X020538Y022212D03*
X021538Y022212D03*
X021538Y023212D03*
X020538Y023212D03*
X020538Y024212D03*
X021538Y024212D03*
X021538Y025212D03*
X020538Y025212D03*
X037538Y025212D03*
X038538Y025212D03*
X038538Y024212D03*
X037538Y024212D03*
X037538Y023212D03*
X038538Y023212D03*
X038538Y022212D03*
X037538Y022212D03*
X037538Y021212D03*
X038538Y021212D03*
X038538Y020212D03*
X037538Y020212D03*
X037538Y019212D03*
X037538Y018212D03*
X038538Y018212D03*
X038538Y019212D03*
X038538Y017212D03*
X037538Y017212D03*
X037538Y016212D03*
X038538Y016212D03*
X038538Y015212D03*
X037538Y015212D03*
X037538Y014212D03*
X038538Y014212D03*
X038538Y013212D03*
X037538Y013212D03*
X037538Y012212D03*
X038538Y012212D03*
X038538Y011212D03*
X037538Y011212D03*
X037538Y010212D03*
X038538Y010212D03*
X038538Y009212D03*
X037538Y009212D03*
X037538Y008212D03*
X038538Y008212D03*
X038538Y007212D03*
X038538Y006212D03*
X037538Y006212D03*
X037538Y007212D03*
X037538Y005212D03*
X038538Y005212D03*
X038538Y004212D03*
X037538Y004212D03*
X037538Y003212D03*
X038538Y003212D03*
X038538Y002212D03*
X037538Y002212D03*
X037538Y001212D03*
D13*
X035408Y004062D03*
X024581Y003305D03*
D14*
X024549Y004171D03*
X024549Y008108D03*
D15*
X024226Y010155D03*
X035762Y010155D03*
D16*
X025038Y012142D03*
D17*
X025908Y012072D03*
X026573Y012064D03*
X027526Y012064D03*
X028510Y012064D03*
X029494Y012064D03*
X030478Y012064D03*
X031463Y012064D03*
X032447Y012064D03*
X033431Y012064D03*
D18*
X024365Y003315D03*
D19*
X035625Y004064D03*
D20*
X032538Y015762D03*
X031538Y015662D03*
X030538Y015762D03*
X029538Y015662D03*
X028538Y015762D03*
X027538Y015662D03*
X026538Y015762D03*
X012138Y010112D03*
X011388Y009612D03*
X012138Y009112D03*
X012138Y006012D03*
X011388Y005512D03*
X012138Y005012D03*
X012338Y001412D03*
X011338Y001412D03*
X008538Y001412D03*
X007538Y001412D03*
X003438Y019012D03*
X003438Y020012D03*
X003438Y021012D03*
X003438Y022012D03*
X003438Y023012D03*
X024638Y028612D03*
X024638Y029612D03*
D21*
X016589Y020512D03*
X015487Y020512D03*
X013289Y020512D03*
X012187Y020512D03*
X029487Y013912D03*
X030589Y013912D03*
X032387Y013912D03*
X033489Y013912D03*
D22*
X007838Y030312D03*
D23*
X007838Y028712D03*
X007838Y027112D03*
D24*
X014138Y028812D02*
X014138Y029812D01*
X016138Y029812D02*
X016138Y028812D01*
X020338Y028812D02*
X020338Y029812D01*
X022338Y029812D02*
X022338Y028812D01*
D25*
X030278Y026812D03*
X031358Y026812D03*
X030818Y027812D03*
X031898Y027812D03*
X032978Y027812D03*
X032438Y026812D03*
X033518Y026812D03*
X034598Y026812D03*
X034058Y027812D03*
X007538Y013072D03*
X006538Y012532D03*
X007538Y011992D03*
X006538Y011452D03*
X007538Y010912D03*
X006538Y010372D03*
X007538Y009832D03*
X006538Y009292D03*
X007538Y008752D03*
D26*
X007038Y005982D03*
X007038Y015842D03*
X027508Y027312D03*
X037368Y027312D03*
D27*
X017346Y013262D03*
X017346Y012762D03*
X017346Y012262D03*
X017346Y011762D03*
X014521Y011762D03*
X014521Y012262D03*
X014521Y012762D03*
X014521Y013262D03*
X014521Y007562D03*
X014521Y007062D03*
X014521Y006562D03*
X014521Y006062D03*
X017346Y006062D03*
X017346Y006562D03*
X017346Y007062D03*
X017346Y007562D03*
X015562Y021762D03*
X015562Y022262D03*
X015562Y022762D03*
X015562Y023262D03*
X013515Y023262D03*
X013515Y022762D03*
X013515Y022262D03*
X013515Y021762D03*
D28*
X011938Y022561D03*
X011938Y023664D03*
X017038Y023764D03*
X017038Y022661D03*
D29*
X012138Y030517D03*
X012138Y031108D03*
X009838Y031108D03*
X009838Y030517D03*
D30*
X009838Y029564D03*
X009838Y028461D03*
X012138Y028461D03*
X012138Y029564D03*
D31*
X013938Y002012D02*
X013938Y001412D01*
X014938Y001312D02*
X014938Y001912D01*
X015938Y002012D02*
X015938Y001412D01*
X016938Y001312D02*
X016938Y001912D01*
X017938Y002012D02*
X017938Y001412D01*
X018938Y001312D02*
X018938Y001912D01*
D32*
X004940Y026533D02*
X003936Y026533D01*
X003936Y028092D02*
X004940Y028092D01*
D33*
X003438Y024012D03*
X006538Y001412D03*
X010338Y001412D03*
D34*
X009838Y023712D03*
X009838Y026712D03*
D35*
X008838Y026412D02*
X008838Y027461D01*
X009838Y028461D01*
X009838Y028012D01*
X010838Y027012D01*
X010838Y023661D01*
X011938Y022561D01*
X011938Y020761D01*
X012187Y020512D01*
X013289Y020512D02*
X013238Y020864D01*
X013238Y021712D01*
X013288Y021762D01*
X013515Y021762D01*
X013515Y022762D02*
X012139Y022762D01*
X012339Y023262D02*
X013515Y023262D01*
X012339Y023262D02*
X011938Y023664D01*
X013238Y024964D01*
X013238Y025612D01*
X013238Y030912D01*
X013043Y031108D01*
X012138Y031108D01*
X012138Y030517D02*
X012138Y029564D01*
X012138Y028461D02*
X009838Y028461D01*
X008838Y026412D02*
X008238Y025812D01*
X007338Y025812D01*
X007238Y025712D01*
X005259Y025712D01*
X004438Y026533D01*
X003959Y026533D01*
X002738Y025312D01*
X002738Y020512D01*
X003238Y020012D01*
X003438Y020012D01*
X004338Y019312D02*
X004038Y019012D01*
X003438Y019012D01*
X004338Y019312D02*
X004338Y024212D01*
X004938Y024812D01*
X008538Y024812D01*
X013238Y025612D02*
X020138Y025612D01*
X020538Y025212D01*
X019838Y024512D01*
X019838Y022912D01*
X017438Y020512D01*
X016589Y020512D01*
X016589Y019764D01*
X012438Y015612D01*
X012438Y013212D01*
X013388Y012262D01*
X014521Y012262D01*
X013488Y012262D01*
X013138Y011912D01*
X013138Y006812D01*
X013388Y006562D01*
X013438Y006512D01*
X013438Y002712D01*
X013138Y002412D01*
X013138Y000812D01*
X012938Y000612D01*
X006738Y000612D01*
X006538Y000812D01*
X006538Y001412D01*
X013388Y006562D02*
X014521Y006562D01*
X014521Y007062D02*
X014471Y007112D01*
X013638Y007112D01*
X016638Y010112D02*
X017138Y009612D01*
X017538Y009612D01*
X018338Y009212D02*
X018338Y012812D01*
X018288Y012762D01*
X017346Y012762D01*
X017346Y012262D02*
X016788Y012262D01*
X016638Y012112D01*
X016638Y010112D01*
X018338Y009212D02*
X018338Y007312D01*
X018088Y007062D01*
X017346Y007062D01*
X017346Y006562D02*
X018388Y006562D01*
X018438Y006612D01*
X014638Y003212D02*
X013938Y002512D01*
X013938Y001712D01*
X007538Y009832D02*
X007538Y010912D01*
X007538Y011992D02*
X007538Y013072D01*
X013238Y013312D02*
X013788Y012762D01*
X014521Y012762D01*
X018338Y012812D02*
X018338Y014812D01*
X018038Y015112D01*
X018038Y018712D01*
X019038Y019712D01*
X024038Y019712D01*
X024838Y020512D01*
X020538Y025212D02*
X021338Y026012D01*
X024738Y026012D01*
X025038Y025712D01*
X036038Y025712D01*
X037538Y024212D01*
X030818Y027812D02*
X029018Y029612D01*
X030818Y027812D02*
X030278Y027272D01*
X030278Y026812D01*
X017038Y023764D02*
X016537Y023262D01*
X015562Y023262D01*
X015538Y023286D01*
X015538Y024612D01*
X015562Y022262D02*
X015562Y021762D01*
X015888Y021762D01*
X015938Y021712D01*
X015938Y020964D01*
X015487Y020512D01*
X007838Y030312D02*
X008634Y031108D01*
X009838Y031108D01*
X032387Y015611D02*
X032538Y015762D01*
X035438Y013512D02*
X035438Y011412D01*
X035488Y011362D01*
X035438Y011312D01*
X030919Y011312D01*
X030478Y011853D01*
X035488Y011362D02*
X035538Y011312D01*
X036338Y011312D01*
X036938Y010712D01*
X036938Y001612D01*
X037338Y001212D01*
X037538Y001212D01*
X038538Y001212D01*
D36*
X040238Y004412D03*
X040238Y010412D03*
X035438Y013512D03*
X033438Y015012D03*
X031538Y013912D03*
X033138Y017212D03*
X033138Y017812D03*
X033138Y018412D03*
X033138Y019012D03*
X033338Y021812D03*
X033338Y022512D03*
X033338Y023112D03*
X033338Y023812D03*
X031938Y025112D03*
X035938Y024112D03*
X040238Y026012D03*
X037338Y029112D03*
X040238Y021412D03*
X040238Y015712D03*
X027238Y014212D03*
X026938Y016912D03*
X023438Y017512D03*
X023438Y018912D03*
X024838Y020512D03*
X023538Y022212D03*
X025738Y024312D03*
X023338Y025112D03*
X023338Y026712D03*
X027538Y029112D03*
X018838Y026612D03*
X018138Y024712D03*
X015538Y024612D03*
X014338Y026512D03*
X013238Y025612D03*
X008538Y024812D03*
X008038Y023012D03*
X010238Y021112D03*
X010638Y017812D03*
X012938Y017812D03*
X013638Y016012D03*
X014938Y016012D03*
X014838Y014512D03*
X015738Y014512D03*
X016538Y014512D03*
X017538Y014512D03*
X018038Y015112D03*
X016538Y016012D03*
X018738Y017312D03*
X019638Y017312D03*
X019238Y018512D03*
X023438Y015312D03*
X019038Y013312D03*
X019038Y011912D03*
X017338Y010712D03*
X017538Y009612D03*
X018338Y009212D03*
X016338Y008812D03*
X014438Y008812D03*
X013838Y010312D03*
X013838Y011112D03*
X013238Y013312D03*
X011338Y014212D03*
X011338Y015612D03*
X008248Y017792D03*
X005438Y020212D03*
X003238Y017712D03*
X005638Y023612D03*
X009138Y030412D03*
X011138Y030412D03*
X018238Y029312D03*
X011238Y012112D03*
X011238Y008312D03*
X009738Y008212D03*
X010438Y007012D03*
X011938Y007012D03*
X012138Y003512D03*
X014638Y003212D03*
X018438Y006612D03*
X019038Y004712D03*
X023138Y003712D03*
X023338Y004912D03*
X022938Y008212D03*
X023138Y010112D03*
X009438Y003512D03*
X007538Y003512D03*
X003338Y004312D03*
D37*
X026538Y014112D02*
X027438Y013212D01*
X027438Y012152D01*
X027526Y012064D02*
X028278Y011312D01*
X029938Y011312D01*
X030478Y011853D01*
X030478Y012064D01*
X029494Y012268D02*
X030538Y013312D01*
X030538Y013861D01*
X030589Y013912D02*
X031538Y013912D01*
X032387Y013912D01*
X032387Y015611D01*
X026538Y015762D02*
X026538Y014112D01*
D38*
X002788Y018302D02*
X002788Y002318D01*
X002963Y002493D01*
X003214Y002637D01*
X003493Y002712D01*
X003783Y002712D01*
X004063Y002637D01*
X004314Y002493D01*
X004518Y002288D01*
X004663Y002037D01*
X004738Y001757D01*
X004738Y001468D01*
X004663Y001188D01*
X004518Y000937D01*
X004344Y000762D01*
X005828Y000762D01*
X005828Y002699D01*
X005951Y002822D01*
X009125Y002822D01*
X009248Y002699D01*
X009248Y000972D01*
X009628Y000972D01*
X009628Y002699D01*
X009751Y002822D01*
X010861Y002822D01*
X008518Y005165D01*
X008478Y005261D01*
X008478Y005364D01*
X008478Y013064D01*
X008518Y013160D01*
X008591Y013233D01*
X010908Y015550D01*
X010908Y015919D01*
X011031Y016042D01*
X011645Y016042D01*
X011768Y015919D01*
X011768Y015305D01*
X011645Y015182D01*
X011276Y015182D01*
X008998Y012905D01*
X008998Y005420D01*
X011486Y002933D01*
X011559Y002860D01*
X011574Y002822D01*
X012925Y002822D01*
X012982Y002765D01*
X013078Y002862D01*
X013078Y006363D01*
X012964Y006478D01*
X012959Y006465D01*
X012690Y006196D01*
X012718Y006128D01*
X012718Y005897D01*
X012630Y005684D01*
X012467Y005521D01*
X012447Y005512D01*
X012467Y005504D01*
X012630Y005341D01*
X012718Y005128D01*
X012718Y004897D01*
X012630Y004684D01*
X012467Y004521D01*
X012254Y004432D01*
X012023Y004432D01*
X011810Y004521D01*
X011778Y004552D01*
X010187Y004552D01*
X010091Y004592D01*
X010018Y004665D01*
X009518Y005165D01*
X009478Y005261D01*
X009478Y005364D01*
X009478Y007782D01*
X009431Y007782D01*
X009308Y007905D01*
X009308Y008519D01*
X009431Y008642D01*
X010045Y008642D01*
X010168Y008519D01*
X010168Y007905D01*
X010045Y007782D01*
X009998Y007782D01*
X009998Y005420D01*
X010346Y005072D01*
X011109Y005072D01*
X011049Y005116D01*
X010992Y005174D01*
X010944Y005240D01*
X010179Y005240D01*
X010080Y005338D02*
X010898Y005338D01*
X010906Y005313D02*
X010944Y005240D01*
X010906Y005313D02*
X010881Y005391D01*
X010868Y005471D01*
X010868Y005482D01*
X011358Y005482D01*
X011358Y005542D01*
X010868Y005542D01*
X010868Y005553D01*
X010881Y005634D01*
X010906Y005712D01*
X010944Y005785D01*
X010992Y005851D01*
X011049Y005909D01*
X011116Y005957D01*
X011189Y005994D01*
X011266Y006020D01*
X011347Y006032D01*
X011358Y006032D01*
X011358Y005543D01*
X011418Y005543D01*
X011418Y006032D01*
X011429Y006032D01*
X011510Y006020D01*
X011558Y006004D01*
X011558Y006128D01*
X011647Y006341D01*
X011810Y006504D01*
X012023Y006592D01*
X012254Y006592D01*
X012322Y006564D01*
X012478Y006720D01*
X012478Y008632D01*
X012467Y008621D01*
X012254Y008532D01*
X012023Y008532D01*
X011810Y008621D01*
X011647Y008784D01*
X011558Y008997D01*
X011558Y009121D01*
X011510Y009105D01*
X011429Y009092D01*
X011418Y009092D01*
X011418Y009582D01*
X011358Y009582D01*
X011358Y009092D01*
X011347Y009092D01*
X011266Y009105D01*
X011189Y009131D01*
X011116Y009168D01*
X011049Y009216D01*
X010992Y009274D01*
X010944Y009340D01*
X010906Y009413D01*
X010881Y009491D01*
X010868Y009571D01*
X010868Y009582D01*
X011358Y009582D01*
X011358Y009642D01*
X010868Y009642D01*
X010868Y009653D01*
X010881Y009734D01*
X010906Y009812D01*
X010944Y009885D01*
X010992Y009951D01*
X011049Y010009D01*
X011116Y010057D01*
X011189Y010094D01*
X011266Y010120D01*
X011347Y010132D01*
X011358Y010132D01*
X011358Y009643D01*
X011418Y009643D01*
X011418Y010132D01*
X011429Y010132D01*
X011510Y010120D01*
X011558Y010104D01*
X011558Y010228D01*
X011647Y010441D01*
X011810Y010604D01*
X012023Y010692D01*
X012254Y010692D01*
X012467Y010604D01*
X012630Y010441D01*
X012718Y010228D01*
X012718Y010100D01*
X012778Y010040D01*
X012778Y011984D01*
X012833Y012116D01*
X012929Y012212D01*
X012133Y013009D01*
X012078Y013141D01*
X012078Y013284D01*
X012078Y015684D01*
X012133Y015816D01*
X012234Y015918D01*
X016229Y019913D01*
X016229Y019942D01*
X015721Y019942D01*
X015716Y019948D01*
X015085Y019948D01*
X014962Y020071D01*
X014962Y020954D01*
X015085Y021077D01*
X015542Y021077D01*
X015578Y021113D01*
X015578Y021302D01*
X014565Y021302D01*
X015578Y021302D01*
X015578Y021204D02*
X014474Y021204D01*
X014422Y021152D02*
X014560Y021290D01*
X014565Y021302D01*
X014422Y021152D02*
X014242Y021078D01*
X014047Y021078D01*
X013867Y021152D01*
X013729Y021290D01*
X013724Y021302D01*
X013598Y021302D01*
X013724Y021302D01*
X013598Y021302D02*
X013598Y021077D01*
X013691Y021077D01*
X013814Y020954D01*
X013814Y020071D01*
X013691Y019948D01*
X013061Y019948D01*
X013055Y019942D01*
X012421Y019942D01*
X012356Y020008D01*
X012237Y020008D01*
X012237Y020462D01*
X012137Y020462D01*
X012137Y020008D01*
X011852Y020008D01*
X011814Y020018D01*
X011780Y020038D01*
X011752Y020066D01*
X011732Y020100D01*
X011722Y020138D01*
X011722Y020462D01*
X012137Y020462D01*
X012137Y020562D01*
X011722Y020562D01*
X011722Y020886D01*
X011732Y020925D01*
X011752Y020959D01*
X011780Y020987D01*
X011814Y021006D01*
X011852Y021017D01*
X012137Y021017D01*
X012137Y020563D01*
X012237Y020563D01*
X012237Y021017D01*
X012356Y021017D01*
X012421Y021082D01*
X012878Y021082D01*
X012878Y021551D01*
X012872Y021557D01*
X012872Y021968D01*
X012916Y022012D01*
X012872Y022057D01*
X012872Y022468D01*
X012960Y022556D01*
X012942Y022586D01*
X012932Y022625D01*
X012932Y022753D01*
X013128Y022753D01*
X013128Y022771D01*
X012932Y022771D01*
X012932Y022900D01*
X012932Y022902D01*
X012548Y022902D01*
X012548Y022855D01*
X012538Y022845D01*
X012538Y022715D01*
X012415Y022592D01*
X011988Y022592D01*
X011988Y022511D01*
X011988Y022136D01*
X012273Y022136D01*
X012311Y022146D01*
X012345Y022166D01*
X012373Y022194D01*
X012393Y022228D01*
X012403Y022266D01*
X012403Y022511D01*
X011988Y022511D01*
X011888Y022511D01*
X011888Y022136D01*
X011604Y022136D01*
X011565Y022146D01*
X011531Y022166D01*
X011503Y022194D01*
X011484Y022228D01*
X011473Y022266D01*
X011473Y022511D01*
X011888Y022511D01*
X011888Y022592D01*
X011521Y022592D01*
X011503Y022611D01*
X011473Y022611D01*
X011473Y022640D01*
X011398Y022715D01*
X011398Y023349D01*
X011408Y023359D01*
X011408Y023489D01*
X011413Y023494D01*
X011413Y024026D01*
X011536Y024149D01*
X011915Y024149D01*
X012878Y025113D01*
X012878Y025235D01*
X012808Y025305D01*
X012808Y025919D01*
X012878Y025989D01*
X012878Y030748D01*
X012506Y030748D01*
X012506Y030273D01*
X012498Y030265D01*
X012498Y030089D01*
X012580Y030089D01*
X012703Y029966D01*
X012703Y029345D01*
X012708Y029339D01*
X012708Y028705D01*
X012643Y028640D01*
X012643Y028511D01*
X012188Y028511D01*
X012188Y028411D01*
X012188Y027996D01*
X012512Y027996D01*
X012550Y028007D01*
X012585Y028026D01*
X012613Y028054D01*
X012632Y028088D01*
X012643Y028127D01*
X012643Y028411D01*
X012188Y028411D01*
X012088Y028411D01*
X012088Y027996D01*
X011764Y027996D01*
X011726Y028007D01*
X011692Y028026D01*
X011664Y028054D01*
X011644Y028088D01*
X011634Y028127D01*
X011634Y028411D01*
X012088Y028411D01*
X012088Y028511D01*
X011634Y028511D01*
X011634Y028640D01*
X011568Y028705D01*
X011568Y029339D01*
X011574Y029345D01*
X011574Y029966D01*
X011697Y030089D01*
X011778Y030089D01*
X011778Y030265D01*
X011771Y030273D01*
X011771Y030762D01*
X011822Y030812D01*
X011771Y030863D01*
X011771Y031352D01*
X011777Y031359D01*
X010199Y031359D01*
X010206Y031352D01*
X010206Y030863D01*
X010155Y030812D01*
X010206Y030762D01*
X010206Y030273D01*
X010128Y030195D01*
X010128Y030089D01*
X010280Y030089D01*
X010403Y029966D01*
X010403Y029335D01*
X010408Y029329D01*
X010408Y028695D01*
X010343Y028630D01*
X010343Y028511D01*
X009888Y028511D01*
X009888Y028411D01*
X009888Y027996D01*
X010212Y027996D01*
X010250Y028007D01*
X010285Y028026D01*
X010313Y028054D01*
X010332Y028088D01*
X010343Y028127D01*
X010343Y028411D01*
X009888Y028411D01*
X009788Y028411D01*
X009788Y027996D01*
X009464Y027996D01*
X009426Y028007D01*
X009392Y028026D01*
X009364Y028054D01*
X009344Y028088D01*
X009334Y028127D01*
X009334Y028411D01*
X009788Y028411D01*
X009788Y028511D01*
X009334Y028511D01*
X009334Y028630D01*
X009268Y028695D01*
X009268Y029329D01*
X009274Y029335D01*
X009274Y029966D01*
X009397Y030089D01*
X009548Y030089D01*
X009548Y030195D01*
X009471Y030273D01*
X009471Y030748D01*
X008848Y030748D01*
X008848Y026225D01*
X008725Y026102D01*
X006951Y026102D01*
X006828Y026225D01*
X006828Y031199D01*
X006951Y031322D01*
X008339Y031322D01*
X008375Y031359D01*
X004348Y031359D01*
X004518Y031188D01*
X004663Y030937D01*
X004738Y030657D01*
X004738Y030368D01*
X006828Y030368D01*
X006828Y030270D02*
X004712Y030270D01*
X004738Y030368D02*
X004663Y030088D01*
X004518Y029837D01*
X004314Y029632D01*
X004063Y029487D01*
X003783Y029412D01*
X003493Y029412D01*
X003214Y029487D01*
X002963Y029632D01*
X002788Y029807D01*
X002788Y029022D01*
X006325Y029022D01*
X006448Y028899D01*
X006448Y025725D01*
X006325Y025602D01*
X002788Y025602D01*
X002788Y024722D01*
X004339Y024722D01*
X004734Y025118D01*
X004867Y025172D01*
X005010Y025172D01*
X008161Y025172D01*
X008231Y025242D01*
X008845Y025242D01*
X008968Y025119D01*
X008968Y024505D01*
X008845Y024382D01*
X008231Y024382D01*
X008161Y024452D01*
X005087Y024452D01*
X004848Y024213D01*
X004848Y018425D01*
X004725Y018302D01*
X002788Y018302D01*
X002788Y018247D02*
X014564Y018247D01*
X014466Y018149D02*
X002788Y018149D01*
X002788Y018050D02*
X014367Y018050D01*
X014268Y017952D02*
X002788Y017952D01*
X002788Y017853D02*
X014170Y017853D01*
X014071Y017755D02*
X002788Y017755D01*
X002788Y017656D02*
X013973Y017656D01*
X013874Y017558D02*
X002788Y017558D01*
X002788Y017459D02*
X013776Y017459D01*
X013677Y017360D02*
X002788Y017360D01*
X002788Y017262D02*
X013579Y017262D01*
X013480Y017163D02*
X002788Y017163D01*
X002788Y017065D02*
X013382Y017065D01*
X013283Y016966D02*
X007282Y016966D01*
X007231Y016978D02*
X007103Y016992D01*
X007088Y016992D01*
X007088Y015893D01*
X006988Y015893D01*
X006988Y016992D01*
X006974Y016992D01*
X006845Y016978D01*
X006719Y016949D01*
X006597Y016907D01*
X006481Y016851D01*
X006372Y016782D01*
X006271Y016701D01*
X006179Y016610D01*
X006099Y016509D01*
X006030Y016400D01*
X005974Y016283D01*
X005931Y016161D01*
X005903Y016035D01*
X005888Y015907D01*
X005888Y015892D01*
X006988Y015892D01*
X006988Y015792D01*
X007088Y015792D01*
X007088Y014692D01*
X007103Y014692D01*
X007231Y014707D01*
X007357Y014736D01*
X007479Y014778D01*
X007595Y014834D01*
X007705Y014903D01*
X007806Y014984D01*
X007897Y015075D01*
X007978Y015176D01*
X008046Y015285D01*
X008102Y015402D01*
X008145Y015524D01*
X008174Y015649D01*
X008188Y015778D01*
X008188Y015792D01*
X007088Y015792D01*
X007088Y015892D01*
X008188Y015892D01*
X008188Y015907D01*
X008174Y016035D01*
X008145Y016161D01*
X008102Y016283D01*
X008046Y016400D01*
X007978Y016509D01*
X007897Y016610D01*
X007806Y016701D01*
X007705Y016782D01*
X007595Y016851D01*
X007479Y016907D01*
X007357Y016949D01*
X007231Y016978D01*
X007088Y016966D02*
X006988Y016966D01*
X006988Y016868D02*
X007088Y016868D01*
X007088Y016769D02*
X006988Y016769D01*
X006988Y016671D02*
X007088Y016671D01*
X007088Y016572D02*
X006988Y016572D01*
X006988Y016474D02*
X007088Y016474D01*
X007088Y016375D02*
X006988Y016375D01*
X006988Y016276D02*
X007088Y016276D01*
X007088Y016178D02*
X006988Y016178D01*
X006988Y016079D02*
X007088Y016079D01*
X007088Y015981D02*
X006988Y015981D01*
X006988Y015882D02*
X002788Y015882D01*
X002788Y015784D02*
X005888Y015784D01*
X005888Y015778D02*
X005903Y015649D01*
X005931Y015524D01*
X005974Y015402D01*
X006030Y015285D01*
X006099Y015176D01*
X006179Y015075D01*
X006271Y014984D01*
X006372Y014903D01*
X006481Y014834D01*
X006597Y014778D01*
X006719Y014736D01*
X006845Y014707D01*
X006974Y014692D01*
X006988Y014692D01*
X006988Y015792D01*
X005888Y015792D01*
X005888Y015778D01*
X005899Y015685D02*
X002788Y015685D01*
X002788Y015587D02*
X005917Y015587D01*
X005944Y015488D02*
X002788Y015488D01*
X002788Y015390D02*
X005980Y015390D01*
X006027Y015291D02*
X002788Y015291D01*
X002788Y015192D02*
X006088Y015192D01*
X006164Y015094D02*
X002788Y015094D01*
X002788Y014995D02*
X006259Y014995D01*
X006382Y014897D02*
X002788Y014897D01*
X002788Y014798D02*
X006556Y014798D01*
X006909Y014700D02*
X002788Y014700D01*
X002788Y014601D02*
X009959Y014601D01*
X009861Y014503D02*
X002788Y014503D01*
X002788Y014404D02*
X009762Y014404D01*
X009664Y014306D02*
X002788Y014306D01*
X002788Y014207D02*
X009565Y014207D01*
X009467Y014109D02*
X002788Y014109D01*
X002788Y014010D02*
X009368Y014010D01*
X009270Y013911D02*
X002788Y013911D01*
X002788Y013813D02*
X005742Y013813D01*
X005751Y013822D02*
X005628Y013699D01*
X005628Y008025D01*
X005751Y007902D01*
X008125Y007902D01*
X008248Y008025D01*
X008248Y013699D01*
X008125Y013822D01*
X005751Y013822D01*
X005643Y013714D02*
X002788Y013714D01*
X002788Y013616D02*
X005628Y013616D01*
X005628Y013517D02*
X002788Y013517D01*
X002788Y013419D02*
X005628Y013419D01*
X005628Y013320D02*
X002788Y013320D01*
X002788Y013222D02*
X005628Y013222D01*
X005628Y013123D02*
X002788Y013123D01*
X002788Y013025D02*
X005628Y013025D01*
X005628Y012926D02*
X002788Y012926D01*
X002788Y012827D02*
X005628Y012827D01*
X005628Y012729D02*
X002788Y012729D01*
X002788Y012630D02*
X005628Y012630D01*
X005628Y012532D02*
X002788Y012532D01*
X002788Y012433D02*
X005628Y012433D01*
X005628Y012335D02*
X002788Y012335D01*
X002788Y012236D02*
X005628Y012236D01*
X005628Y012138D02*
X002788Y012138D01*
X002788Y012039D02*
X005628Y012039D01*
X005628Y011941D02*
X002788Y011941D01*
X002788Y011842D02*
X005628Y011842D01*
X005628Y011743D02*
X002788Y011743D01*
X002788Y011645D02*
X005628Y011645D01*
X005628Y011546D02*
X002788Y011546D01*
X002788Y011448D02*
X005628Y011448D01*
X005628Y011349D02*
X002788Y011349D01*
X002788Y011251D02*
X005628Y011251D01*
X005628Y011152D02*
X002788Y011152D01*
X002788Y011054D02*
X005628Y011054D01*
X005628Y010955D02*
X002788Y010955D01*
X002788Y010857D02*
X005628Y010857D01*
X005628Y010758D02*
X002788Y010758D01*
X002788Y010659D02*
X005628Y010659D01*
X005628Y010561D02*
X002788Y010561D01*
X002788Y010462D02*
X005628Y010462D01*
X005628Y010364D02*
X002788Y010364D01*
X002788Y010265D02*
X005628Y010265D01*
X005628Y010167D02*
X002788Y010167D01*
X002788Y010068D02*
X005628Y010068D01*
X005628Y009970D02*
X002788Y009970D01*
X002788Y009871D02*
X005628Y009871D01*
X005628Y009773D02*
X002788Y009773D01*
X002788Y009674D02*
X005628Y009674D01*
X005628Y009576D02*
X002788Y009576D01*
X002788Y009477D02*
X005628Y009477D01*
X005628Y009378D02*
X002788Y009378D01*
X002788Y009280D02*
X005628Y009280D01*
X005628Y009181D02*
X002788Y009181D01*
X002788Y009083D02*
X005628Y009083D01*
X005628Y008984D02*
X002788Y008984D01*
X002788Y008886D02*
X005628Y008886D01*
X005628Y008787D02*
X002788Y008787D01*
X002788Y008689D02*
X005628Y008689D01*
X005628Y008590D02*
X002788Y008590D01*
X002788Y008492D02*
X005628Y008492D01*
X005628Y008393D02*
X002788Y008393D01*
X002788Y008294D02*
X005628Y008294D01*
X005628Y008196D02*
X002788Y008196D01*
X002788Y008097D02*
X005628Y008097D01*
X005655Y007999D02*
X002788Y007999D01*
X002788Y007900D02*
X008478Y007900D01*
X008478Y007802D02*
X002788Y007802D01*
X002788Y007703D02*
X008478Y007703D01*
X008478Y007605D02*
X002788Y007605D01*
X002788Y007506D02*
X008478Y007506D01*
X008478Y007408D02*
X002788Y007408D01*
X002788Y007309D02*
X008478Y007309D01*
X008478Y007210D02*
X002788Y007210D01*
X002788Y007112D02*
X006819Y007112D01*
X006845Y007118D02*
X006719Y007089D01*
X006597Y007047D01*
X006481Y006991D01*
X006372Y006922D01*
X006271Y006841D01*
X006179Y006750D01*
X006099Y006649D01*
X006030Y006540D01*
X005974Y006423D01*
X005931Y006301D01*
X005903Y006175D01*
X005888Y006047D01*
X005888Y006032D01*
X006988Y006032D01*
X006988Y005932D01*
X007088Y005932D01*
X007088Y004832D01*
X007103Y004832D01*
X007231Y004847D01*
X007357Y004876D01*
X007479Y004918D01*
X007595Y004974D01*
X007705Y005043D01*
X007806Y005124D01*
X007897Y005215D01*
X007978Y005316D01*
X008046Y005425D01*
X008102Y005542D01*
X008145Y005664D01*
X008174Y005789D01*
X008188Y005918D01*
X008188Y005932D01*
X007088Y005932D01*
X007088Y006032D01*
X008188Y006032D01*
X008188Y006047D01*
X008174Y006175D01*
X008145Y006301D01*
X008102Y006423D01*
X008046Y006540D01*
X007978Y006649D01*
X007897Y006750D01*
X007806Y006841D01*
X007705Y006922D01*
X007595Y006991D01*
X007479Y007047D01*
X007357Y007089D01*
X007231Y007118D01*
X007103Y007132D01*
X007088Y007132D01*
X007088Y006033D01*
X006988Y006033D01*
X006988Y007132D01*
X006974Y007132D01*
X006845Y007118D01*
X006988Y007112D02*
X007088Y007112D01*
X007088Y007013D02*
X006988Y007013D01*
X006988Y006915D02*
X007088Y006915D01*
X007088Y006816D02*
X006988Y006816D01*
X006988Y006718D02*
X007088Y006718D01*
X007088Y006619D02*
X006988Y006619D01*
X006988Y006521D02*
X007088Y006521D01*
X007088Y006422D02*
X006988Y006422D01*
X006988Y006324D02*
X007088Y006324D01*
X007088Y006225D02*
X006988Y006225D01*
X006988Y006126D02*
X007088Y006126D01*
X007088Y006028D02*
X008478Y006028D01*
X008478Y006126D02*
X008179Y006126D01*
X008162Y006225D02*
X008478Y006225D01*
X008478Y006324D02*
X008137Y006324D01*
X008103Y006422D02*
X008478Y006422D01*
X008478Y006521D02*
X008055Y006521D01*
X007996Y006619D02*
X008478Y006619D01*
X008478Y006718D02*
X007923Y006718D01*
X007831Y006816D02*
X008478Y006816D01*
X008478Y006915D02*
X007713Y006915D01*
X007548Y007013D02*
X008478Y007013D01*
X008478Y007112D02*
X007258Y007112D01*
X006529Y007013D02*
X002788Y007013D01*
X002788Y006915D02*
X006363Y006915D01*
X006246Y006816D02*
X002788Y006816D01*
X002788Y006718D02*
X006154Y006718D01*
X006080Y006619D02*
X002788Y006619D01*
X002788Y006521D02*
X006021Y006521D01*
X005974Y006422D02*
X002788Y006422D01*
X002788Y006324D02*
X005939Y006324D01*
X005914Y006225D02*
X002788Y006225D01*
X002788Y006126D02*
X005897Y006126D01*
X005888Y005932D02*
X005888Y005918D01*
X005903Y005789D01*
X005931Y005664D01*
X005974Y005542D01*
X006030Y005425D01*
X006099Y005316D01*
X006179Y005215D01*
X006271Y005124D01*
X006372Y005043D01*
X006481Y004974D01*
X006597Y004918D01*
X006719Y004876D01*
X006845Y004847D01*
X006974Y004832D01*
X006988Y004832D01*
X006988Y005932D01*
X005888Y005932D01*
X005888Y005929D02*
X002788Y005929D01*
X002788Y005831D02*
X005898Y005831D01*
X005916Y005732D02*
X002788Y005732D01*
X002788Y005634D02*
X005942Y005634D01*
X005977Y005535D02*
X002788Y005535D01*
X002788Y005437D02*
X006025Y005437D01*
X006085Y005338D02*
X002788Y005338D01*
X002788Y005240D02*
X006160Y005240D01*
X006253Y005141D02*
X002788Y005141D01*
X002788Y005043D02*
X006373Y005043D01*
X006544Y004944D02*
X002788Y004944D01*
X002788Y004845D02*
X006858Y004845D01*
X006988Y004845D02*
X007088Y004845D01*
X007088Y004944D02*
X006988Y004944D01*
X006988Y005043D02*
X007088Y005043D01*
X007088Y005141D02*
X006988Y005141D01*
X006988Y005240D02*
X007088Y005240D01*
X007088Y005338D02*
X006988Y005338D01*
X006988Y005437D02*
X007088Y005437D01*
X007088Y005535D02*
X006988Y005535D01*
X006988Y005634D02*
X007088Y005634D01*
X007088Y005732D02*
X006988Y005732D01*
X006988Y005831D02*
X007088Y005831D01*
X007088Y005929D02*
X006988Y005929D01*
X006988Y006028D02*
X002788Y006028D01*
X002788Y004747D02*
X008936Y004747D01*
X008838Y004845D02*
X007218Y004845D01*
X007532Y004944D02*
X008739Y004944D01*
X008640Y005043D02*
X007704Y005043D01*
X007823Y005141D02*
X008542Y005141D01*
X008487Y005240D02*
X007917Y005240D01*
X007992Y005338D02*
X008478Y005338D01*
X008478Y005437D02*
X008052Y005437D01*
X008099Y005535D02*
X008478Y005535D01*
X008478Y005634D02*
X008135Y005634D01*
X008161Y005732D02*
X008478Y005732D01*
X008478Y005831D02*
X008178Y005831D01*
X008188Y005929D02*
X008478Y005929D01*
X008998Y005929D02*
X009478Y005929D01*
X009478Y005831D02*
X008998Y005831D01*
X008998Y005732D02*
X009478Y005732D01*
X009478Y005634D02*
X008998Y005634D01*
X008998Y005535D02*
X009478Y005535D01*
X009478Y005437D02*
X008998Y005437D01*
X009080Y005338D02*
X009478Y005338D01*
X009487Y005240D02*
X009179Y005240D01*
X009277Y005141D02*
X009542Y005141D01*
X009640Y005043D02*
X009376Y005043D01*
X009474Y004944D02*
X009739Y004944D01*
X009838Y004845D02*
X009573Y004845D01*
X009671Y004747D02*
X009936Y004747D01*
X010035Y004648D02*
X009770Y004648D01*
X009869Y004550D02*
X011781Y004550D01*
X011977Y004451D02*
X009967Y004451D01*
X010066Y004353D02*
X013078Y004353D01*
X013078Y004451D02*
X012299Y004451D01*
X012496Y004550D02*
X013078Y004550D01*
X013078Y004648D02*
X012594Y004648D01*
X012656Y004747D02*
X013078Y004747D01*
X013078Y004845D02*
X012697Y004845D01*
X012718Y004944D02*
X013078Y004944D01*
X013078Y005043D02*
X012718Y005043D01*
X012713Y005141D02*
X013078Y005141D01*
X013078Y005240D02*
X012672Y005240D01*
X012631Y005338D02*
X013078Y005338D01*
X013078Y005437D02*
X012534Y005437D01*
X012481Y005535D02*
X013078Y005535D01*
X013078Y005634D02*
X012580Y005634D01*
X012650Y005732D02*
X013078Y005732D01*
X013078Y005831D02*
X012691Y005831D01*
X012718Y005929D02*
X013078Y005929D01*
X013078Y006028D02*
X012718Y006028D01*
X012718Y006126D02*
X013078Y006126D01*
X013078Y006225D02*
X012719Y006225D01*
X012817Y006324D02*
X013078Y006324D01*
X013019Y006422D02*
X012916Y006422D01*
X012738Y006612D02*
X012138Y006012D01*
X011599Y006225D02*
X009998Y006225D01*
X009998Y006126D02*
X011558Y006126D01*
X011558Y006028D02*
X011457Y006028D01*
X011418Y006028D02*
X011358Y006028D01*
X011319Y006028D02*
X009998Y006028D01*
X009998Y005929D02*
X011078Y005929D01*
X010977Y005831D02*
X009998Y005831D01*
X009998Y005732D02*
X010917Y005732D01*
X010881Y005634D02*
X009998Y005634D01*
X009998Y005535D02*
X011358Y005535D01*
X011358Y005634D02*
X011418Y005634D01*
X011418Y005732D02*
X011358Y005732D01*
X011358Y005831D02*
X011418Y005831D01*
X011418Y005929D02*
X011358Y005929D01*
X011639Y006324D02*
X009998Y006324D01*
X009998Y006422D02*
X011728Y006422D01*
X011850Y006521D02*
X009998Y006521D01*
X009998Y006619D02*
X012377Y006619D01*
X012476Y006718D02*
X009998Y006718D01*
X009998Y006816D02*
X012478Y006816D01*
X012478Y006915D02*
X009998Y006915D01*
X009998Y007013D02*
X012478Y007013D01*
X012478Y007112D02*
X009998Y007112D01*
X009998Y007210D02*
X012478Y007210D01*
X012478Y007309D02*
X009998Y007309D01*
X009998Y007408D02*
X012478Y007408D01*
X012478Y007506D02*
X009998Y007506D01*
X009998Y007605D02*
X012478Y007605D01*
X012478Y007703D02*
X009998Y007703D01*
X010065Y007802D02*
X012478Y007802D01*
X012478Y007900D02*
X010163Y007900D01*
X010168Y007999D02*
X012478Y007999D01*
X012478Y008097D02*
X010168Y008097D01*
X010168Y008196D02*
X012478Y008196D01*
X012478Y008294D02*
X010168Y008294D01*
X010168Y008393D02*
X012478Y008393D01*
X012478Y008492D02*
X010168Y008492D01*
X010098Y008590D02*
X011884Y008590D01*
X011742Y008689D02*
X008998Y008689D01*
X008998Y008787D02*
X011645Y008787D01*
X011604Y008886D02*
X008998Y008886D01*
X008998Y008984D02*
X011564Y008984D01*
X011558Y009083D02*
X008998Y009083D01*
X008998Y009181D02*
X011097Y009181D01*
X010987Y009280D02*
X008998Y009280D01*
X008998Y009378D02*
X010924Y009378D01*
X010885Y009477D02*
X008998Y009477D01*
X008998Y009576D02*
X010868Y009576D01*
X010872Y009674D02*
X008998Y009674D01*
X008998Y009773D02*
X010894Y009773D01*
X010936Y009871D02*
X008998Y009871D01*
X008998Y009970D02*
X011010Y009970D01*
X011137Y010068D02*
X008998Y010068D01*
X008998Y010167D02*
X011558Y010167D01*
X011574Y010265D02*
X008998Y010265D01*
X008998Y010364D02*
X011615Y010364D01*
X011668Y010462D02*
X008998Y010462D01*
X008998Y010561D02*
X011767Y010561D01*
X011943Y010659D02*
X008998Y010659D01*
X008998Y010758D02*
X012778Y010758D01*
X012778Y010659D02*
X012333Y010659D01*
X012510Y010561D02*
X012778Y010561D01*
X012778Y010462D02*
X012608Y010462D01*
X012662Y010364D02*
X012778Y010364D01*
X012778Y010265D02*
X012703Y010265D01*
X012718Y010167D02*
X012778Y010167D01*
X012778Y010068D02*
X012750Y010068D01*
X012738Y009712D02*
X012738Y006612D01*
X013498Y006962D02*
X013498Y010716D01*
X013531Y010682D01*
X014145Y010682D01*
X014265Y010802D01*
X016908Y010802D01*
X016908Y010405D01*
X017031Y010282D01*
X017645Y010282D01*
X017768Y010405D01*
X017768Y010802D01*
X017825Y010802D01*
X017948Y010925D01*
X017948Y011469D01*
X017978Y011542D01*
X017978Y009589D01*
X017908Y009519D01*
X017908Y008905D01*
X017978Y008835D01*
X017978Y007783D01*
X017948Y007855D01*
X017948Y008499D01*
X017825Y008622D01*
X017598Y008622D01*
X017598Y008664D01*
X017559Y008760D01*
X017486Y008833D01*
X017286Y009033D01*
X017190Y009072D01*
X017087Y009072D01*
X016768Y009072D01*
X016768Y009119D01*
X016645Y009242D01*
X016031Y009242D01*
X015908Y009119D01*
X015908Y008622D01*
X014868Y008622D01*
X014868Y009119D01*
X014745Y009242D01*
X014131Y009242D01*
X014008Y009119D01*
X014008Y008750D01*
X013791Y008533D01*
X013718Y008460D01*
X013678Y008364D01*
X013678Y007664D01*
X013678Y007561D01*
X013718Y007465D01*
X013818Y007365D01*
X013891Y007292D01*
X013892Y007292D01*
X013874Y007248D01*
X013874Y006922D01*
X013537Y006922D01*
X013498Y006962D01*
X013498Y007013D02*
X013874Y007013D01*
X013874Y007112D02*
X013498Y007112D01*
X013498Y007210D02*
X013874Y007210D01*
X013874Y007309D02*
X013498Y007309D01*
X013498Y007408D02*
X013775Y007408D01*
X013701Y007506D02*
X013498Y007506D01*
X013498Y007605D02*
X013678Y007605D01*
X013678Y007703D02*
X013498Y007703D01*
X013498Y007802D02*
X013678Y007802D01*
X013678Y007900D02*
X013498Y007900D01*
X013498Y007999D02*
X013678Y007999D01*
X013678Y008097D02*
X013498Y008097D01*
X013498Y008196D02*
X013678Y008196D01*
X013678Y008294D02*
X013498Y008294D01*
X013498Y008393D02*
X013690Y008393D01*
X013750Y008492D02*
X013498Y008492D01*
X013498Y008590D02*
X013848Y008590D01*
X013947Y008689D02*
X013498Y008689D01*
X013498Y008787D02*
X014008Y008787D01*
X014008Y008886D02*
X013498Y008886D01*
X013498Y008984D02*
X014008Y008984D01*
X014008Y009083D02*
X013498Y009083D01*
X013498Y009181D02*
X014070Y009181D01*
X014438Y008812D02*
X013938Y008312D01*
X013938Y007612D01*
X014038Y007512D01*
X014471Y007512D01*
X014521Y007562D01*
X014571Y007512D01*
X014868Y008689D02*
X015908Y008689D01*
X015908Y008787D02*
X014868Y008787D01*
X014868Y008886D02*
X015908Y008886D01*
X015908Y008984D02*
X014868Y008984D01*
X014868Y009083D02*
X015908Y009083D01*
X015970Y009181D02*
X014806Y009181D01*
X013498Y009280D02*
X017908Y009280D01*
X017908Y009378D02*
X013498Y009378D01*
X013498Y009477D02*
X017908Y009477D01*
X017964Y009576D02*
X013498Y009576D01*
X013498Y009674D02*
X017978Y009674D01*
X017978Y009773D02*
X013498Y009773D01*
X013498Y009871D02*
X017978Y009871D01*
X017978Y009970D02*
X013498Y009970D01*
X013498Y010068D02*
X017978Y010068D01*
X017978Y010167D02*
X013498Y010167D01*
X013498Y010265D02*
X017978Y010265D01*
X017978Y010364D02*
X017727Y010364D01*
X017768Y010462D02*
X017978Y010462D01*
X017978Y010561D02*
X017768Y010561D01*
X017768Y010659D02*
X017978Y010659D01*
X017978Y010758D02*
X017768Y010758D01*
X017879Y010857D02*
X017978Y010857D01*
X017978Y010955D02*
X017948Y010955D01*
X017948Y011054D02*
X017978Y011054D01*
X017978Y011152D02*
X017948Y011152D01*
X017948Y011251D02*
X017978Y011251D01*
X017978Y011349D02*
X017948Y011349D01*
X017948Y011448D02*
X017978Y011448D01*
X017346Y011762D02*
X017338Y011755D01*
X017338Y010712D01*
X016908Y010758D02*
X014221Y010758D01*
X013838Y011112D02*
X013838Y011512D01*
X014088Y011762D01*
X014521Y011762D01*
X013874Y012622D02*
X013560Y012622D01*
X013537Y012622D01*
X012798Y013362D01*
X012798Y015463D01*
X013208Y015873D01*
X013208Y015705D01*
X013331Y015582D01*
X013945Y015582D01*
X014068Y015705D01*
X014068Y016075D01*
X015478Y017485D01*
X015478Y014942D01*
X015431Y014942D01*
X015308Y014819D01*
X015308Y014322D01*
X015268Y014322D01*
X015268Y014819D01*
X015145Y014942D01*
X014531Y014942D01*
X014408Y014819D01*
X014408Y014322D01*
X014051Y014322D01*
X013928Y014199D01*
X013928Y013579D01*
X013885Y013475D01*
X013878Y013468D01*
X013878Y013457D01*
X013874Y013448D01*
X013874Y013076D01*
X013878Y013067D01*
X013878Y013057D01*
X013885Y013050D01*
X013901Y013012D01*
X013874Y012948D01*
X013874Y012622D01*
X013874Y012630D02*
X013529Y012630D01*
X013431Y012729D02*
X013874Y012729D01*
X013874Y012827D02*
X013332Y012827D01*
X013234Y012926D02*
X013874Y012926D01*
X013896Y013025D02*
X013135Y013025D01*
X013037Y013123D02*
X013874Y013123D01*
X013874Y013222D02*
X012938Y013222D01*
X012840Y013320D02*
X013874Y013320D01*
X013874Y013419D02*
X012798Y013419D01*
X012798Y013517D02*
X013903Y013517D01*
X013928Y013616D02*
X012798Y013616D01*
X012798Y013714D02*
X013928Y013714D01*
X013928Y013813D02*
X012798Y013813D01*
X012798Y013911D02*
X013928Y013911D01*
X013928Y014010D02*
X012798Y014010D01*
X012798Y014109D02*
X013928Y014109D01*
X013936Y014207D02*
X012798Y014207D01*
X012798Y014306D02*
X014034Y014306D01*
X014408Y014404D02*
X012798Y014404D01*
X012798Y014503D02*
X014408Y014503D01*
X014408Y014601D02*
X012798Y014601D01*
X012798Y014700D02*
X014408Y014700D01*
X014408Y014798D02*
X012798Y014798D01*
X012798Y014897D02*
X014486Y014897D01*
X014838Y014512D02*
X014838Y013912D01*
X014521Y013595D01*
X014521Y013262D01*
X015268Y014404D02*
X015308Y014404D01*
X015308Y014503D02*
X015268Y014503D01*
X015268Y014601D02*
X015308Y014601D01*
X015308Y014700D02*
X015268Y014700D01*
X015268Y014798D02*
X015308Y014798D01*
X015386Y014897D02*
X015191Y014897D01*
X015478Y014995D02*
X012798Y014995D01*
X012798Y015094D02*
X015478Y015094D01*
X015478Y015192D02*
X012798Y015192D01*
X012798Y015291D02*
X015478Y015291D01*
X015478Y015390D02*
X012798Y015390D01*
X012823Y015488D02*
X015478Y015488D01*
X015478Y015587D02*
X013949Y015587D01*
X014048Y015685D02*
X015478Y015685D01*
X015478Y015784D02*
X014068Y015784D01*
X014068Y015882D02*
X015478Y015882D01*
X015478Y015981D02*
X014068Y015981D01*
X014073Y016079D02*
X015478Y016079D01*
X015478Y016178D02*
X014171Y016178D01*
X014270Y016276D02*
X015478Y016276D01*
X015478Y016375D02*
X014368Y016375D01*
X014467Y016474D02*
X015478Y016474D01*
X015478Y016572D02*
X014566Y016572D01*
X014664Y016671D02*
X015478Y016671D01*
X015478Y016769D02*
X014763Y016769D01*
X014861Y016868D02*
X015478Y016868D01*
X015478Y016966D02*
X014960Y016966D01*
X015058Y017065D02*
X015478Y017065D01*
X015478Y017163D02*
X015157Y017163D01*
X015255Y017262D02*
X015478Y017262D01*
X015478Y017360D02*
X015354Y017360D01*
X015452Y017459D02*
X015478Y017459D01*
X015738Y017612D02*
X020338Y022212D01*
X020538Y022212D01*
X020338Y022712D02*
X022238Y022712D01*
X024638Y025112D01*
X031938Y025112D01*
X032368Y025145D02*
X036096Y025145D01*
X036195Y025047D02*
X032368Y025047D01*
X032368Y024948D02*
X036293Y024948D01*
X036392Y024850D02*
X032368Y024850D01*
X032368Y024805D02*
X032368Y025352D01*
X035889Y025352D01*
X036828Y024413D01*
X036828Y010822D01*
X036648Y010822D01*
X036648Y012599D01*
X036525Y012722D01*
X034116Y012722D01*
X034386Y012992D01*
X034459Y013065D01*
X034498Y013161D01*
X034498Y016061D01*
X034498Y016164D01*
X034459Y016260D01*
X034009Y016710D01*
X033936Y016783D01*
X033840Y016822D01*
X033485Y016822D01*
X033568Y016905D01*
X033568Y016952D01*
X033790Y016952D01*
X033886Y016992D01*
X033959Y017065D01*
X034259Y017365D01*
X034298Y017461D01*
X034298Y017564D01*
X034298Y021864D01*
X034259Y021960D01*
X034186Y022033D01*
X033848Y022370D01*
X033848Y023155D01*
X033986Y023292D01*
X034059Y023365D01*
X034098Y023461D01*
X034098Y024061D01*
X034098Y024164D01*
X034059Y024260D01*
X033859Y024460D01*
X033786Y024533D01*
X033690Y024572D01*
X031890Y024572D01*
X031787Y024572D01*
X031691Y024533D01*
X031491Y024333D01*
X031418Y024260D01*
X031378Y024164D01*
X031378Y019194D01*
X031378Y019091D01*
X031418Y018995D01*
X031998Y018415D01*
X032071Y018342D01*
X032167Y018302D01*
X032708Y018302D01*
X032708Y018119D01*
X032708Y017505D01*
X032708Y016905D01*
X032791Y016822D01*
X031287Y016822D01*
X031191Y016783D01*
X031118Y016710D01*
X030722Y016314D01*
X030654Y016342D01*
X030423Y016342D01*
X030354Y016314D01*
X028236Y018433D01*
X028140Y018472D01*
X028037Y018472D01*
X022248Y018472D01*
X022248Y019352D01*
X024110Y019352D01*
X024242Y019407D01*
X024343Y019509D01*
X024917Y020082D01*
X025145Y020082D01*
X025268Y020205D01*
X025268Y020819D01*
X025145Y020942D01*
X024531Y020942D01*
X024408Y020819D01*
X024408Y020592D01*
X023889Y020072D01*
X022248Y020072D01*
X022248Y022452D01*
X022290Y022452D01*
X022386Y022492D01*
X022459Y022565D01*
X022459Y022565D01*
X024746Y024852D01*
X031508Y024852D01*
X031508Y024805D01*
X031631Y024682D01*
X032245Y024682D01*
X032368Y024805D01*
X032314Y024751D02*
X036490Y024751D01*
X036589Y024653D02*
X024546Y024653D01*
X024645Y024751D02*
X031563Y024751D01*
X031508Y024850D02*
X024743Y024850D01*
X024448Y024554D02*
X031742Y024554D01*
X031614Y024456D02*
X024349Y024456D01*
X024250Y024357D02*
X031515Y024357D01*
X031417Y024258D02*
X024152Y024258D01*
X024053Y024160D02*
X031378Y024160D01*
X031378Y024061D02*
X023955Y024061D01*
X023856Y023963D02*
X031378Y023963D01*
X031378Y023864D02*
X023758Y023864D01*
X023659Y023766D02*
X031378Y023766D01*
X031378Y023667D02*
X023561Y023667D01*
X023462Y023569D02*
X031378Y023569D01*
X031378Y023470D02*
X023364Y023470D01*
X023265Y023372D02*
X031378Y023372D01*
X031378Y023273D02*
X023166Y023273D01*
X023068Y023174D02*
X031378Y023174D01*
X031378Y023076D02*
X022969Y023076D01*
X022871Y022977D02*
X031378Y022977D01*
X031378Y022879D02*
X022772Y022879D01*
X022674Y022780D02*
X031378Y022780D01*
X031378Y022682D02*
X022575Y022682D01*
X022477Y022583D02*
X031378Y022583D01*
X031378Y022485D02*
X022368Y022485D01*
X022248Y022386D02*
X031378Y022386D01*
X031378Y022288D02*
X022248Y022288D01*
X022248Y022189D02*
X031378Y022189D01*
X031378Y022091D02*
X022248Y022091D01*
X022248Y021992D02*
X031378Y021992D01*
X031378Y021893D02*
X022248Y021893D01*
X022248Y021795D02*
X031378Y021795D01*
X031378Y021696D02*
X022248Y021696D01*
X022248Y021598D02*
X031378Y021598D01*
X031378Y021499D02*
X022248Y021499D01*
X022248Y021401D02*
X031378Y021401D01*
X031378Y021302D02*
X022248Y021302D01*
X022248Y021204D02*
X031378Y021204D01*
X031378Y021105D02*
X022248Y021105D01*
X022248Y021007D02*
X031378Y021007D01*
X031378Y020908D02*
X025180Y020908D01*
X025268Y020809D02*
X031378Y020809D01*
X031378Y020711D02*
X025268Y020711D01*
X025268Y020612D02*
X031378Y020612D01*
X031378Y020514D02*
X025268Y020514D01*
X025268Y020415D02*
X031378Y020415D01*
X031378Y020317D02*
X025268Y020317D01*
X025268Y020218D02*
X031378Y020218D01*
X031378Y020120D02*
X025182Y020120D01*
X024856Y020021D02*
X031378Y020021D01*
X031378Y019923D02*
X024757Y019923D01*
X024659Y019824D02*
X031378Y019824D01*
X031378Y019725D02*
X024560Y019725D01*
X024462Y019627D02*
X031378Y019627D01*
X031378Y019528D02*
X024363Y019528D01*
X024265Y019430D02*
X031378Y019430D01*
X031378Y019331D02*
X022248Y019331D01*
X022248Y019233D02*
X031378Y019233D01*
X031378Y019134D02*
X022248Y019134D01*
X022248Y019036D02*
X031401Y019036D01*
X031476Y018937D02*
X022248Y018937D01*
X022248Y018839D02*
X031574Y018839D01*
X031673Y018740D02*
X022248Y018740D01*
X022248Y018641D02*
X031771Y018641D01*
X031870Y018543D02*
X022248Y018543D01*
X022248Y017952D02*
X022248Y014472D01*
X025578Y014472D01*
X025578Y016364D01*
X025618Y016460D01*
X025691Y016533D01*
X025791Y016633D01*
X025887Y016672D01*
X025990Y016672D01*
X027390Y016672D01*
X027486Y016633D01*
X027559Y016560D01*
X027759Y016360D01*
X027798Y016264D01*
X027798Y016182D01*
X027867Y016154D01*
X028012Y016008D01*
X028047Y016091D01*
X028210Y016254D01*
X028423Y016342D01*
X028654Y016342D01*
X028867Y016254D01*
X029030Y016091D01*
X029064Y016008D01*
X029210Y016154D01*
X029423Y016242D01*
X029654Y016242D01*
X029717Y016216D01*
X027981Y017952D01*
X022248Y017952D01*
X027981Y017952D01*
X028080Y017853D02*
X022248Y017853D01*
X022248Y017755D02*
X028178Y017755D01*
X028277Y017656D02*
X022248Y017656D01*
X022248Y017558D02*
X028375Y017558D01*
X028474Y017459D02*
X022248Y017459D01*
X022248Y017360D02*
X028573Y017360D01*
X028671Y017262D02*
X022248Y017262D01*
X022248Y017163D02*
X028770Y017163D01*
X028868Y017065D02*
X022248Y017065D01*
X022248Y016966D02*
X028967Y016966D01*
X029065Y016868D02*
X022248Y016868D01*
X022248Y016769D02*
X029164Y016769D01*
X029262Y016671D02*
X027394Y016671D01*
X027546Y016572D02*
X029361Y016572D01*
X029459Y016474D02*
X027645Y016474D01*
X027743Y016375D02*
X029558Y016375D01*
X029657Y016276D02*
X028813Y016276D01*
X028943Y016178D02*
X029267Y016178D01*
X029135Y016079D02*
X029035Y016079D01*
X028538Y015762D02*
X028510Y015734D01*
X028510Y012064D01*
X028250Y012722D02*
X026798Y012722D01*
X026798Y012964D01*
X026759Y013060D01*
X026686Y013133D01*
X026098Y013720D01*
X026098Y014161D01*
X026098Y014264D01*
X026098Y015483D01*
X026142Y015424D01*
X026199Y015366D01*
X026266Y015318D01*
X026339Y015281D01*
X026416Y015255D01*
X026488Y015244D01*
X026488Y015712D01*
X026588Y015712D01*
X026588Y015244D01*
X026660Y015255D01*
X026738Y015281D01*
X026811Y015318D01*
X026877Y015366D01*
X026935Y015424D01*
X026982Y015489D01*
X027047Y015334D01*
X027210Y015171D01*
X027423Y015082D01*
X027654Y015082D01*
X027867Y015171D01*
X028030Y015334D01*
X028064Y015416D01*
X028210Y015271D01*
X028250Y015254D01*
X028250Y012722D01*
X028250Y012729D02*
X026798Y012729D01*
X026798Y012827D02*
X028250Y012827D01*
X028250Y012926D02*
X026798Y012926D01*
X026773Y013025D02*
X028250Y013025D01*
X028250Y013123D02*
X026695Y013123D01*
X026597Y013222D02*
X028250Y013222D01*
X028250Y013320D02*
X026498Y013320D01*
X026400Y013419D02*
X028250Y013419D01*
X028250Y013517D02*
X026301Y013517D01*
X026203Y013616D02*
X028250Y013616D01*
X028250Y013714D02*
X026104Y013714D01*
X026098Y013813D02*
X028250Y013813D01*
X028250Y013911D02*
X026098Y013911D01*
X026098Y014010D02*
X028250Y014010D01*
X028250Y014109D02*
X026098Y014109D01*
X026098Y014207D02*
X028250Y014207D01*
X028250Y014306D02*
X026098Y014306D01*
X026098Y014404D02*
X028250Y014404D01*
X028250Y014503D02*
X026098Y014503D01*
X026098Y014601D02*
X028250Y014601D01*
X028250Y014700D02*
X026098Y014700D01*
X026098Y014798D02*
X028250Y014798D01*
X028250Y014897D02*
X026098Y014897D01*
X026098Y014995D02*
X028250Y014995D01*
X028250Y015094D02*
X027681Y015094D01*
X027889Y015192D02*
X028250Y015192D01*
X028189Y015291D02*
X027987Y015291D01*
X028053Y015390D02*
X028091Y015390D01*
X027538Y015662D02*
X027538Y016212D01*
X027338Y016412D01*
X025938Y016412D01*
X025838Y016312D01*
X025838Y014212D01*
X021538Y014212D01*
X021038Y014712D01*
X019938Y014712D01*
X019638Y015012D01*
X019638Y017312D01*
X018738Y017312D02*
X018738Y014512D01*
X019538Y013712D01*
X021038Y013712D01*
X021538Y013212D01*
X022248Y013222D02*
X025861Y013222D01*
X025763Y013320D02*
X022248Y013320D01*
X022248Y013419D02*
X025664Y013419D01*
X025618Y013465D02*
X026278Y012805D01*
X026278Y012722D01*
X023651Y012722D01*
X023528Y012599D01*
X023528Y010459D01*
X023445Y010542D01*
X022831Y010542D01*
X022708Y010419D01*
X022708Y009805D01*
X022831Y009682D01*
X022878Y009682D01*
X022878Y009570D01*
X022878Y009467D01*
X022918Y009371D01*
X023528Y008761D01*
X023528Y005342D01*
X023031Y005342D01*
X022908Y005219D01*
X022908Y004605D01*
X023031Y004482D01*
X023111Y004482D01*
X023118Y004465D01*
X023191Y004392D01*
X023528Y004055D01*
X023528Y000762D01*
X022498Y000762D01*
X022498Y001961D01*
X022498Y002064D01*
X022459Y002160D01*
X022259Y002360D01*
X022248Y002370D01*
X022248Y013952D01*
X025578Y013952D01*
X025578Y013664D01*
X025578Y013561D01*
X025618Y013465D01*
X025596Y013517D02*
X022248Y013517D01*
X022248Y013616D02*
X025578Y013616D01*
X025578Y013714D02*
X022248Y013714D01*
X022248Y013813D02*
X025578Y013813D01*
X025578Y013911D02*
X022248Y013911D01*
X022248Y014503D02*
X025578Y014503D01*
X025578Y014601D02*
X022248Y014601D01*
X022248Y014700D02*
X025578Y014700D01*
X025578Y014798D02*
X022248Y014798D01*
X022248Y014897D02*
X025578Y014897D01*
X025578Y014995D02*
X022248Y014995D01*
X022248Y015094D02*
X025578Y015094D01*
X025578Y015192D02*
X022248Y015192D01*
X022248Y015291D02*
X025578Y015291D01*
X025578Y015390D02*
X022248Y015390D01*
X022248Y015488D02*
X025578Y015488D01*
X025578Y015587D02*
X022248Y015587D01*
X022248Y015685D02*
X025578Y015685D01*
X025578Y015784D02*
X022248Y015784D01*
X022248Y015882D02*
X025578Y015882D01*
X025578Y015981D02*
X022248Y015981D01*
X022248Y016079D02*
X025578Y016079D01*
X025578Y016178D02*
X022248Y016178D01*
X022248Y016276D02*
X025578Y016276D01*
X025583Y016375D02*
X022248Y016375D01*
X022248Y016474D02*
X025632Y016474D01*
X025730Y016572D02*
X022248Y016572D01*
X022248Y016671D02*
X025882Y016671D01*
X026098Y016152D02*
X026193Y016152D01*
X026142Y016101D01*
X026098Y016041D01*
X026098Y016152D01*
X026098Y016079D02*
X026126Y016079D01*
X026488Y015685D02*
X026588Y015685D01*
X026588Y015587D02*
X026488Y015587D01*
X026488Y015488D02*
X026588Y015488D01*
X026588Y015390D02*
X026488Y015390D01*
X026488Y015291D02*
X026588Y015291D01*
X026758Y015291D02*
X027089Y015291D01*
X027024Y015390D02*
X026901Y015390D01*
X026982Y015488D02*
X026983Y015488D01*
X027188Y015192D02*
X026098Y015192D01*
X026098Y015094D02*
X027395Y015094D01*
X027026Y015942D02*
X027020Y015962D01*
X026983Y016035D01*
X026935Y016101D01*
X026884Y016152D01*
X027208Y016152D01*
X027047Y015991D01*
X027026Y015942D01*
X027011Y015981D02*
X027042Y015981D01*
X026951Y016079D02*
X027135Y016079D01*
X027809Y016178D02*
X028134Y016178D01*
X028042Y016079D02*
X027941Y016079D01*
X027793Y016276D02*
X028264Y016276D01*
X029308Y017360D02*
X032708Y017360D01*
X032708Y017262D02*
X029406Y017262D01*
X029505Y017163D02*
X032708Y017163D01*
X032708Y017065D02*
X029604Y017065D01*
X029702Y016966D02*
X032708Y016966D01*
X032746Y016868D02*
X029801Y016868D01*
X029899Y016769D02*
X031177Y016769D01*
X031079Y016671D02*
X029998Y016671D01*
X030096Y016572D02*
X030980Y016572D01*
X030882Y016474D02*
X030195Y016474D01*
X030293Y016375D02*
X030783Y016375D01*
X031338Y016562D02*
X033788Y016562D01*
X034238Y016112D01*
X034238Y013212D01*
X033838Y012812D01*
X032538Y012812D01*
X032447Y012721D01*
X032447Y012064D01*
X031463Y012064D02*
X031438Y012089D01*
X031438Y012812D01*
X031738Y013112D01*
X033238Y013112D01*
X033489Y013364D01*
X033489Y013912D01*
X033438Y013964D01*
X033438Y015012D01*
X034498Y014995D02*
X036828Y014995D01*
X036828Y014897D02*
X034498Y014897D01*
X034498Y014798D02*
X036828Y014798D01*
X036828Y014700D02*
X034498Y014700D01*
X034498Y014601D02*
X036828Y014601D01*
X036828Y014503D02*
X034498Y014503D01*
X034498Y014404D02*
X036828Y014404D01*
X036828Y014306D02*
X034498Y014306D01*
X034498Y014207D02*
X036828Y014207D01*
X036828Y014109D02*
X034498Y014109D01*
X034498Y014010D02*
X036828Y014010D01*
X036828Y013911D02*
X034498Y013911D01*
X034498Y013813D02*
X036828Y013813D01*
X036828Y013714D02*
X034498Y013714D01*
X034498Y013616D02*
X036828Y013616D01*
X036828Y013517D02*
X034498Y013517D01*
X034498Y013419D02*
X036828Y013419D01*
X036828Y013320D02*
X034498Y013320D01*
X034498Y013222D02*
X036828Y013222D01*
X036828Y013123D02*
X034483Y013123D01*
X034418Y013025D02*
X036828Y013025D01*
X036828Y012926D02*
X034319Y012926D01*
X034221Y012827D02*
X036828Y012827D01*
X036828Y012729D02*
X034122Y012729D01*
X034498Y015094D02*
X036828Y015094D01*
X036828Y015192D02*
X034498Y015192D01*
X034498Y015291D02*
X036828Y015291D01*
X036828Y015390D02*
X034498Y015390D01*
X034498Y015488D02*
X036828Y015488D01*
X036828Y015587D02*
X034498Y015587D01*
X034498Y015685D02*
X036828Y015685D01*
X036828Y015784D02*
X034498Y015784D01*
X034498Y015882D02*
X036828Y015882D01*
X036828Y015981D02*
X034498Y015981D01*
X034498Y016079D02*
X036828Y016079D01*
X036828Y016178D02*
X034493Y016178D01*
X034442Y016276D02*
X036828Y016276D01*
X036828Y016375D02*
X034343Y016375D01*
X034245Y016474D02*
X036828Y016474D01*
X036828Y016572D02*
X034146Y016572D01*
X034048Y016671D02*
X036828Y016671D01*
X036828Y016769D02*
X033949Y016769D01*
X034009Y016710D02*
X034009Y016710D01*
X033823Y016966D02*
X036828Y016966D01*
X036828Y016868D02*
X033530Y016868D01*
X033738Y017212D02*
X033138Y017212D01*
X032708Y017459D02*
X029209Y017459D01*
X029111Y017558D02*
X032708Y017558D01*
X032708Y017656D02*
X029012Y017656D01*
X028914Y017755D02*
X032708Y017755D01*
X032708Y017853D02*
X028815Y017853D01*
X028717Y017952D02*
X032708Y017952D01*
X032708Y018050D02*
X028618Y018050D01*
X028520Y018149D02*
X032708Y018149D01*
X032708Y018247D02*
X028421Y018247D01*
X028322Y018346D02*
X032067Y018346D01*
X031969Y018444D02*
X028208Y018444D01*
X028088Y018212D02*
X030538Y015762D01*
X031338Y016562D01*
X031538Y015662D02*
X031538Y015312D01*
X030938Y014712D01*
X030287Y014712D01*
X029487Y013912D01*
X030538Y013861D02*
X030589Y013912D01*
X029494Y012268D02*
X029494Y012064D01*
X027526Y012064D02*
X027438Y012152D01*
X026573Y012064D02*
X026538Y012099D01*
X026538Y012912D01*
X025838Y013612D01*
X025838Y014212D01*
X025960Y013123D02*
X022248Y013123D01*
X022248Y013025D02*
X026058Y013025D01*
X026157Y012926D02*
X022248Y012926D01*
X022248Y012827D02*
X026256Y012827D01*
X026278Y012729D02*
X022248Y012729D01*
X022248Y012630D02*
X023559Y012630D01*
X023528Y012532D02*
X022248Y012532D01*
X022248Y012433D02*
X023528Y012433D01*
X023528Y012335D02*
X022248Y012335D01*
X022248Y012236D02*
X023528Y012236D01*
X023528Y012138D02*
X022248Y012138D01*
X022248Y012039D02*
X023528Y012039D01*
X023528Y011941D02*
X022248Y011941D01*
X022248Y011842D02*
X023528Y011842D01*
X023528Y011743D02*
X022248Y011743D01*
X022248Y011645D02*
X023528Y011645D01*
X023528Y011546D02*
X022248Y011546D01*
X022248Y011448D02*
X023528Y011448D01*
X023528Y011349D02*
X022248Y011349D01*
X022248Y011251D02*
X023528Y011251D01*
X023528Y011152D02*
X022248Y011152D01*
X022248Y011054D02*
X023528Y011054D01*
X023528Y010955D02*
X022248Y010955D01*
X022248Y010857D02*
X023528Y010857D01*
X023528Y010758D02*
X022248Y010758D01*
X022248Y010659D02*
X023528Y010659D01*
X023528Y010561D02*
X022248Y010561D01*
X022248Y010462D02*
X022751Y010462D01*
X022708Y010364D02*
X022248Y010364D01*
X022248Y010265D02*
X022708Y010265D01*
X022708Y010167D02*
X022248Y010167D01*
X022248Y010068D02*
X022708Y010068D01*
X022708Y009970D02*
X022248Y009970D01*
X022248Y009871D02*
X022708Y009871D01*
X022741Y009773D02*
X022248Y009773D01*
X022248Y009674D02*
X022878Y009674D01*
X022878Y009576D02*
X022248Y009576D01*
X022248Y009477D02*
X022878Y009477D01*
X022915Y009378D02*
X022248Y009378D01*
X022248Y009280D02*
X023009Y009280D01*
X023108Y009181D02*
X022248Y009181D01*
X022248Y009083D02*
X023206Y009083D01*
X023305Y008984D02*
X022248Y008984D01*
X022248Y008886D02*
X023404Y008886D01*
X023502Y008787D02*
X022248Y008787D01*
X022248Y008689D02*
X023528Y008689D01*
X023528Y008590D02*
X022248Y008590D01*
X022248Y008492D02*
X023528Y008492D01*
X023528Y008393D02*
X022248Y008393D01*
X022248Y008294D02*
X023528Y008294D01*
X023528Y008196D02*
X022248Y008196D01*
X022248Y008097D02*
X023528Y008097D01*
X023528Y007999D02*
X022248Y007999D01*
X022248Y007900D02*
X023528Y007900D01*
X023528Y007802D02*
X022248Y007802D01*
X022248Y007703D02*
X023528Y007703D01*
X023528Y007605D02*
X022248Y007605D01*
X022248Y007506D02*
X023528Y007506D01*
X023528Y007408D02*
X022248Y007408D01*
X022248Y007309D02*
X023528Y007309D01*
X023528Y007210D02*
X022248Y007210D01*
X022248Y007112D02*
X023528Y007112D01*
X023528Y007013D02*
X022248Y007013D01*
X022248Y006915D02*
X023528Y006915D01*
X023528Y006816D02*
X022248Y006816D01*
X022248Y006718D02*
X023528Y006718D01*
X023528Y006619D02*
X022248Y006619D01*
X022248Y006521D02*
X023528Y006521D01*
X023528Y006422D02*
X022248Y006422D01*
X022248Y006324D02*
X023528Y006324D01*
X023528Y006225D02*
X022248Y006225D01*
X022248Y006126D02*
X023528Y006126D01*
X023528Y006028D02*
X022248Y006028D01*
X022248Y005929D02*
X023528Y005929D01*
X023528Y005831D02*
X022248Y005831D01*
X022248Y005732D02*
X023528Y005732D01*
X023528Y005634D02*
X022248Y005634D01*
X022248Y005535D02*
X023528Y005535D01*
X023528Y005437D02*
X022248Y005437D01*
X022248Y005338D02*
X023027Y005338D01*
X022928Y005240D02*
X022248Y005240D01*
X022248Y005141D02*
X022908Y005141D01*
X022908Y005043D02*
X022248Y005043D01*
X022248Y004944D02*
X022908Y004944D01*
X022908Y004845D02*
X022248Y004845D01*
X022248Y004747D02*
X022908Y004747D01*
X022908Y004648D02*
X022248Y004648D01*
X022248Y004550D02*
X022964Y004550D01*
X023132Y004451D02*
X022248Y004451D01*
X022248Y004353D02*
X023230Y004353D01*
X023329Y004254D02*
X022248Y004254D01*
X022248Y004156D02*
X023427Y004156D01*
X023526Y004057D02*
X022248Y004057D01*
X022248Y003959D02*
X023528Y003959D01*
X023528Y003860D02*
X022248Y003860D01*
X022248Y003761D02*
X023528Y003761D01*
X023528Y003663D02*
X022248Y003663D01*
X022248Y003564D02*
X023528Y003564D01*
X023528Y003466D02*
X022248Y003466D01*
X022248Y003367D02*
X023528Y003367D01*
X023528Y003269D02*
X022248Y003269D01*
X022248Y003170D02*
X023528Y003170D01*
X023528Y003072D02*
X022248Y003072D01*
X022248Y002973D02*
X023528Y002973D01*
X023528Y002875D02*
X022248Y002875D01*
X022248Y002776D02*
X023528Y002776D01*
X023528Y002677D02*
X022248Y002677D01*
X022248Y002579D02*
X023528Y002579D01*
X023528Y002480D02*
X022248Y002480D01*
X022248Y002382D02*
X023528Y002382D01*
X023528Y002283D02*
X022335Y002283D01*
X022259Y002360D02*
X022259Y002360D01*
X022434Y002185D02*
X023528Y002185D01*
X023528Y002086D02*
X022489Y002086D01*
X022498Y001988D02*
X023528Y001988D01*
X023528Y001889D02*
X022498Y001889D01*
X022498Y001791D02*
X023528Y001791D01*
X023528Y001692D02*
X022498Y001692D01*
X022498Y001594D02*
X023528Y001594D01*
X023528Y001495D02*
X022498Y001495D01*
X022498Y001396D02*
X023528Y001396D01*
X023528Y001298D02*
X022498Y001298D01*
X022498Y001199D02*
X023528Y001199D01*
X023528Y001101D02*
X022498Y001101D01*
X022498Y001002D02*
X023528Y001002D01*
X023528Y000904D02*
X022498Y000904D01*
X022498Y000805D02*
X023528Y000805D01*
X022238Y000812D02*
X022238Y002012D01*
X022038Y002212D01*
X021538Y002212D01*
X020538Y002212D02*
X020438Y002212D01*
X019838Y001612D01*
X019838Y000912D01*
X019738Y000812D01*
X018038Y000812D01*
X017938Y000912D01*
X017938Y001712D01*
X016938Y001612D02*
X016938Y000912D01*
X017238Y000612D01*
X022038Y000612D01*
X022238Y000812D01*
X019828Y001970D02*
X019828Y010335D01*
X019598Y010105D01*
X019598Y006061D01*
X019559Y005965D01*
X019486Y005892D01*
X018486Y004892D01*
X018390Y004852D01*
X018287Y004852D01*
X013887Y004852D01*
X013798Y004889D01*
X013798Y002784D01*
X013798Y002641D01*
X013791Y002622D01*
X019525Y002622D01*
X019648Y002499D01*
X019648Y001790D01*
X019691Y001833D01*
X019828Y001970D01*
X019828Y001988D02*
X019648Y001988D01*
X019648Y002086D02*
X019828Y002086D01*
X019828Y002185D02*
X019648Y002185D01*
X019648Y002283D02*
X019828Y002283D01*
X019828Y002382D02*
X019648Y002382D01*
X019648Y002480D02*
X019828Y002480D01*
X019828Y002579D02*
X019569Y002579D01*
X019828Y002677D02*
X013798Y002677D01*
X013798Y002776D02*
X019828Y002776D01*
X019828Y002875D02*
X013798Y002875D01*
X013798Y002973D02*
X019828Y002973D01*
X019828Y003072D02*
X013798Y003072D01*
X013798Y003170D02*
X019828Y003170D01*
X019828Y003269D02*
X013798Y003269D01*
X013798Y003367D02*
X019828Y003367D01*
X019828Y003466D02*
X013798Y003466D01*
X013798Y003564D02*
X019828Y003564D01*
X019828Y003663D02*
X013798Y003663D01*
X013798Y003761D02*
X019828Y003761D01*
X019828Y003860D02*
X013798Y003860D01*
X013798Y003959D02*
X019828Y003959D01*
X019828Y004057D02*
X013798Y004057D01*
X013798Y004156D02*
X019828Y004156D01*
X019828Y004254D02*
X013798Y004254D01*
X013798Y004353D02*
X019828Y004353D01*
X019828Y004451D02*
X013798Y004451D01*
X013798Y004550D02*
X019828Y004550D01*
X019828Y004648D02*
X013798Y004648D01*
X013798Y004747D02*
X019828Y004747D01*
X019828Y004845D02*
X013798Y004845D01*
X013938Y005112D02*
X013838Y005212D01*
X013838Y005912D01*
X013988Y006062D01*
X014521Y006062D01*
X013938Y005112D02*
X018338Y005112D01*
X019338Y006112D01*
X019338Y010212D01*
X020338Y011212D01*
X020538Y011212D01*
X020138Y011712D02*
X018938Y010512D01*
X018938Y006312D01*
X018638Y006012D01*
X017396Y006012D01*
X017346Y006062D01*
X017966Y006312D02*
X017993Y006376D01*
X017993Y006702D01*
X018017Y006702D01*
X018160Y006702D01*
X018292Y006757D01*
X018643Y007109D01*
X018678Y007193D01*
X018678Y006420D01*
X018531Y006272D01*
X017984Y006272D01*
X017982Y006275D01*
X017966Y006312D01*
X017971Y006324D02*
X018582Y006324D01*
X018678Y006422D02*
X017993Y006422D01*
X017993Y006521D02*
X018678Y006521D01*
X018678Y006619D02*
X017993Y006619D01*
X018197Y006718D02*
X018678Y006718D01*
X018678Y006816D02*
X018351Y006816D01*
X018450Y006915D02*
X018678Y006915D01*
X018678Y007013D02*
X018548Y007013D01*
X018645Y007112D02*
X018678Y007112D01*
X019598Y007112D02*
X019828Y007112D01*
X019828Y007210D02*
X019598Y007210D01*
X019598Y007309D02*
X019828Y007309D01*
X019828Y007408D02*
X019598Y007408D01*
X019598Y007506D02*
X019828Y007506D01*
X019828Y007605D02*
X019598Y007605D01*
X019598Y007703D02*
X019828Y007703D01*
X019828Y007802D02*
X019598Y007802D01*
X019598Y007900D02*
X019828Y007900D01*
X019828Y007999D02*
X019598Y007999D01*
X019598Y008097D02*
X019828Y008097D01*
X019828Y008196D02*
X019598Y008196D01*
X019598Y008294D02*
X019828Y008294D01*
X019828Y008393D02*
X019598Y008393D01*
X019598Y008492D02*
X019828Y008492D01*
X019828Y008590D02*
X019598Y008590D01*
X019598Y008689D02*
X019828Y008689D01*
X019828Y008787D02*
X019598Y008787D01*
X019598Y008886D02*
X019828Y008886D01*
X019828Y008984D02*
X019598Y008984D01*
X019598Y009083D02*
X019828Y009083D01*
X019828Y009181D02*
X019598Y009181D01*
X019598Y009280D02*
X019828Y009280D01*
X019828Y009378D02*
X019598Y009378D01*
X019598Y009477D02*
X019828Y009477D01*
X019828Y009576D02*
X019598Y009576D01*
X019598Y009674D02*
X019828Y009674D01*
X019828Y009773D02*
X019598Y009773D01*
X019598Y009871D02*
X019828Y009871D01*
X019828Y009970D02*
X019598Y009970D01*
X019598Y010068D02*
X019828Y010068D01*
X019828Y010167D02*
X019660Y010167D01*
X019759Y010265D02*
X019828Y010265D01*
X019013Y010955D02*
X018698Y010955D01*
X018698Y010857D02*
X018915Y010857D01*
X018816Y010758D02*
X018698Y010758D01*
X018791Y010733D02*
X018718Y010660D01*
X018698Y010612D01*
X018698Y012741D01*
X018698Y012884D01*
X018698Y014185D01*
X019391Y013492D01*
X019487Y013452D01*
X019590Y013452D01*
X019828Y013452D01*
X019828Y011770D01*
X018791Y010733D01*
X018718Y010659D02*
X018698Y010659D01*
X018698Y011054D02*
X019112Y011054D01*
X019210Y011152D02*
X018698Y011152D01*
X018698Y011251D02*
X019309Y011251D01*
X019407Y011349D02*
X018698Y011349D01*
X018698Y011448D02*
X019506Y011448D01*
X019605Y011546D02*
X018698Y011546D01*
X018698Y011645D02*
X019703Y011645D01*
X019802Y011743D02*
X018698Y011743D01*
X018698Y011842D02*
X019828Y011842D01*
X019828Y011941D02*
X018698Y011941D01*
X018698Y012039D02*
X019828Y012039D01*
X019828Y012138D02*
X018698Y012138D01*
X018698Y012236D02*
X019828Y012236D01*
X019828Y012335D02*
X018698Y012335D01*
X018698Y012433D02*
X019828Y012433D01*
X019828Y012532D02*
X018698Y012532D01*
X018698Y012630D02*
X019828Y012630D01*
X019828Y012729D02*
X018698Y012729D01*
X018698Y012827D02*
X019828Y012827D01*
X019828Y012926D02*
X018698Y012926D01*
X018698Y013025D02*
X019828Y013025D01*
X019828Y013123D02*
X018698Y013123D01*
X018698Y013222D02*
X019828Y013222D01*
X019828Y013320D02*
X018698Y013320D01*
X018698Y013419D02*
X019828Y013419D01*
X019366Y013517D02*
X018698Y013517D01*
X018698Y013616D02*
X019267Y013616D01*
X019169Y013714D02*
X018698Y013714D01*
X018698Y013813D02*
X019070Y013813D01*
X018972Y013911D02*
X018698Y013911D01*
X018698Y014010D02*
X018873Y014010D01*
X018774Y014109D02*
X018698Y014109D01*
X019238Y014612D02*
X019638Y014212D01*
X020538Y014212D01*
X019238Y014612D02*
X019238Y018512D01*
X017338Y018712D02*
X017338Y014712D01*
X017538Y014512D01*
X017108Y014503D02*
X016968Y014503D01*
X016968Y014450D02*
X016968Y014819D01*
X016845Y014942D01*
X016231Y014942D01*
X016138Y014849D01*
X016045Y014942D01*
X015998Y014942D01*
X015998Y017505D01*
X017078Y018585D01*
X017078Y014661D01*
X017108Y014588D01*
X017108Y014322D01*
X017096Y014322D01*
X016968Y014450D01*
X017014Y014404D02*
X017108Y014404D01*
X017103Y014601D02*
X016968Y014601D01*
X016968Y014700D02*
X017078Y014700D01*
X017078Y014798D02*
X016968Y014798D01*
X016891Y014897D02*
X017078Y014897D01*
X017078Y014995D02*
X015998Y014995D01*
X015998Y015094D02*
X017078Y015094D01*
X017078Y015192D02*
X015998Y015192D01*
X015998Y015291D02*
X017078Y015291D01*
X017078Y015390D02*
X015998Y015390D01*
X015998Y015488D02*
X017078Y015488D01*
X017078Y015587D02*
X015998Y015587D01*
X015998Y015685D02*
X017078Y015685D01*
X017078Y015784D02*
X015998Y015784D01*
X015998Y015882D02*
X017078Y015882D01*
X017078Y015981D02*
X015998Y015981D01*
X015998Y016079D02*
X017078Y016079D01*
X017078Y016178D02*
X015998Y016178D01*
X015998Y016276D02*
X017078Y016276D01*
X017078Y016375D02*
X015998Y016375D01*
X015998Y016474D02*
X017078Y016474D01*
X017078Y016572D02*
X015998Y016572D01*
X015998Y016671D02*
X017078Y016671D01*
X017078Y016769D02*
X015998Y016769D01*
X015998Y016868D02*
X017078Y016868D01*
X017078Y016966D02*
X015998Y016966D01*
X015998Y017065D02*
X017078Y017065D01*
X017078Y017163D02*
X015998Y017163D01*
X015998Y017262D02*
X017078Y017262D01*
X017078Y017360D02*
X015998Y017360D01*
X015998Y017459D02*
X017078Y017459D01*
X017078Y017558D02*
X016051Y017558D01*
X016150Y017656D02*
X017078Y017656D01*
X017078Y017755D02*
X016248Y017755D01*
X016347Y017853D02*
X017078Y017853D01*
X017078Y017952D02*
X016445Y017952D01*
X016544Y018050D02*
X017078Y018050D01*
X017078Y018149D02*
X016642Y018149D01*
X016741Y018247D02*
X017078Y018247D01*
X017078Y018346D02*
X016839Y018346D01*
X016938Y018444D02*
X017078Y018444D01*
X017078Y018543D02*
X017036Y018543D01*
X017338Y018712D02*
X019338Y020712D01*
X021038Y020712D01*
X021538Y021212D01*
X022248Y020908D02*
X024497Y020908D01*
X024408Y020809D02*
X022248Y020809D01*
X022248Y020711D02*
X024408Y020711D01*
X024408Y020612D02*
X022248Y020612D01*
X022248Y020514D02*
X024331Y020514D01*
X024232Y020415D02*
X022248Y020415D01*
X022248Y020317D02*
X024133Y020317D01*
X024035Y020218D02*
X022248Y020218D01*
X022248Y020120D02*
X023936Y020120D01*
X021538Y018212D02*
X028088Y018212D01*
X031638Y019142D02*
X032218Y018562D01*
X032988Y018562D01*
X033138Y018412D01*
X033538Y017812D02*
X033738Y018012D01*
X033738Y021412D01*
X033338Y021812D01*
X033931Y022288D02*
X036828Y022288D01*
X036828Y022386D02*
X033848Y022386D01*
X033848Y022485D02*
X036828Y022485D01*
X036828Y022583D02*
X033848Y022583D01*
X033848Y022682D02*
X036828Y022682D01*
X036828Y022780D02*
X033848Y022780D01*
X033848Y022879D02*
X036828Y022879D01*
X036828Y022977D02*
X033848Y022977D01*
X033848Y023076D02*
X036828Y023076D01*
X036828Y023174D02*
X033868Y023174D01*
X033967Y023273D02*
X036828Y023273D01*
X036828Y023372D02*
X034061Y023372D01*
X034098Y023470D02*
X036828Y023470D01*
X036828Y023569D02*
X034098Y023569D01*
X034098Y023667D02*
X036828Y023667D01*
X036828Y023766D02*
X034098Y023766D01*
X034098Y023864D02*
X036828Y023864D01*
X036828Y023963D02*
X034098Y023963D01*
X034098Y024061D02*
X036828Y024061D01*
X036828Y024160D02*
X034098Y024160D01*
X034059Y024258D02*
X036828Y024258D01*
X036828Y024357D02*
X033961Y024357D01*
X033863Y024456D02*
X036786Y024456D01*
X036687Y024554D02*
X033734Y024554D01*
X033638Y024312D02*
X031838Y024312D01*
X031638Y024112D01*
X031638Y019142D01*
X032038Y019242D02*
X032218Y019062D01*
X033088Y019062D01*
X033138Y019012D01*
X034298Y019036D02*
X036828Y019036D01*
X036828Y019134D02*
X034298Y019134D01*
X034298Y019233D02*
X036828Y019233D01*
X036828Y019331D02*
X034298Y019331D01*
X034298Y019430D02*
X036828Y019430D01*
X036828Y019528D02*
X034298Y019528D01*
X034298Y019627D02*
X036828Y019627D01*
X036828Y019725D02*
X034298Y019725D01*
X034298Y019824D02*
X036828Y019824D01*
X036828Y019923D02*
X034298Y019923D01*
X034298Y020021D02*
X036828Y020021D01*
X036828Y020120D02*
X034298Y020120D01*
X034298Y020218D02*
X036828Y020218D01*
X036828Y020317D02*
X034298Y020317D01*
X034298Y020415D02*
X036828Y020415D01*
X036828Y020514D02*
X034298Y020514D01*
X034298Y020612D02*
X036828Y020612D01*
X036828Y020711D02*
X034298Y020711D01*
X034298Y020809D02*
X036828Y020809D01*
X036828Y020908D02*
X034298Y020908D01*
X034298Y021007D02*
X036828Y021007D01*
X036828Y021105D02*
X034298Y021105D01*
X034298Y021204D02*
X036828Y021204D01*
X036828Y021302D02*
X034298Y021302D01*
X034298Y021401D02*
X036828Y021401D01*
X036828Y021499D02*
X034298Y021499D01*
X034298Y021598D02*
X036828Y021598D01*
X036828Y021696D02*
X034298Y021696D01*
X034298Y021795D02*
X036828Y021795D01*
X036828Y021893D02*
X034286Y021893D01*
X034226Y021992D02*
X036828Y021992D01*
X036828Y022091D02*
X034128Y022091D01*
X034029Y022189D02*
X036828Y022189D01*
X039248Y022189D02*
X041258Y022189D01*
X041258Y022091D02*
X039248Y022091D01*
X039248Y021992D02*
X041258Y021992D01*
X041258Y021893D02*
X039248Y021893D01*
X039248Y021795D02*
X041258Y021795D01*
X041258Y021696D02*
X039248Y021696D01*
X039248Y021598D02*
X041258Y021598D01*
X041258Y021499D02*
X039248Y021499D01*
X039248Y021401D02*
X041258Y021401D01*
X041258Y021302D02*
X039248Y021302D01*
X039248Y021204D02*
X041258Y021204D01*
X041258Y021105D02*
X039248Y021105D01*
X039248Y021007D02*
X041258Y021007D01*
X041258Y020908D02*
X039248Y020908D01*
X039248Y020809D02*
X041258Y020809D01*
X041258Y020711D02*
X039248Y020711D01*
X039248Y020612D02*
X041258Y020612D01*
X041258Y020514D02*
X039248Y020514D01*
X039248Y020415D02*
X041258Y020415D01*
X041258Y020317D02*
X039248Y020317D01*
X039248Y020218D02*
X041258Y020218D01*
X041258Y020120D02*
X039248Y020120D01*
X039248Y020021D02*
X041258Y020021D01*
X041258Y019923D02*
X039248Y019923D01*
X039248Y019824D02*
X041258Y019824D01*
X041258Y019725D02*
X039248Y019725D01*
X039248Y019627D02*
X041258Y019627D01*
X041258Y019528D02*
X039248Y019528D01*
X039248Y019430D02*
X041258Y019430D01*
X041258Y019331D02*
X039248Y019331D01*
X039248Y019233D02*
X041258Y019233D01*
X041258Y019134D02*
X039248Y019134D01*
X039248Y019036D02*
X041258Y019036D01*
X041258Y018937D02*
X039248Y018937D01*
X039248Y018839D02*
X041258Y018839D01*
X041258Y018740D02*
X039248Y018740D01*
X039248Y018641D02*
X041258Y018641D01*
X041258Y018543D02*
X039248Y018543D01*
X039248Y018444D02*
X041258Y018444D01*
X041258Y018346D02*
X039248Y018346D01*
X039248Y018247D02*
X041258Y018247D01*
X041258Y018149D02*
X039248Y018149D01*
X039248Y018050D02*
X041258Y018050D01*
X041258Y017952D02*
X039248Y017952D01*
X039248Y017853D02*
X041258Y017853D01*
X041258Y017755D02*
X039248Y017755D01*
X039248Y017656D02*
X041258Y017656D01*
X041258Y017558D02*
X039248Y017558D01*
X039248Y017459D02*
X041258Y017459D01*
X041258Y017360D02*
X039248Y017360D01*
X039248Y017262D02*
X041258Y017262D01*
X041258Y017163D02*
X039248Y017163D01*
X039248Y017065D02*
X041258Y017065D01*
X041258Y016966D02*
X039248Y016966D01*
X039248Y016868D02*
X041258Y016868D01*
X041258Y016769D02*
X039248Y016769D01*
X039248Y016671D02*
X041258Y016671D01*
X041258Y016572D02*
X039248Y016572D01*
X039248Y016474D02*
X041258Y016474D01*
X041258Y016375D02*
X039248Y016375D01*
X039248Y016276D02*
X041258Y016276D01*
X041258Y016178D02*
X039248Y016178D01*
X039248Y016079D02*
X041258Y016079D01*
X041258Y015981D02*
X039248Y015981D01*
X039248Y015882D02*
X041258Y015882D01*
X041258Y015784D02*
X039248Y015784D01*
X039248Y015685D02*
X041258Y015685D01*
X041258Y015587D02*
X039248Y015587D01*
X039248Y015488D02*
X041258Y015488D01*
X041258Y015390D02*
X039248Y015390D01*
X039248Y015291D02*
X041258Y015291D01*
X041258Y015192D02*
X039248Y015192D01*
X039248Y015094D02*
X041258Y015094D01*
X041258Y014995D02*
X039248Y014995D01*
X039248Y014897D02*
X041258Y014897D01*
X041258Y014798D02*
X039248Y014798D01*
X039248Y014700D02*
X041258Y014700D01*
X041258Y014601D02*
X039248Y014601D01*
X039248Y014503D02*
X041258Y014503D01*
X041258Y014404D02*
X039248Y014404D01*
X039248Y014306D02*
X041258Y014306D01*
X041258Y014207D02*
X039248Y014207D01*
X039248Y014109D02*
X041258Y014109D01*
X041258Y014010D02*
X039248Y014010D01*
X039248Y013911D02*
X041258Y013911D01*
X041258Y013813D02*
X039248Y013813D01*
X039248Y013714D02*
X041258Y013714D01*
X041258Y013616D02*
X039248Y013616D01*
X039248Y013517D02*
X041258Y013517D01*
X041258Y013419D02*
X039248Y013419D01*
X039248Y013320D02*
X041258Y013320D01*
X041258Y013222D02*
X039248Y013222D01*
X039248Y013123D02*
X041258Y013123D01*
X041258Y013025D02*
X039248Y013025D01*
X039248Y012926D02*
X041258Y012926D01*
X041258Y012827D02*
X039248Y012827D01*
X039248Y012729D02*
X041258Y012729D01*
X041258Y012630D02*
X039248Y012630D01*
X039248Y012532D02*
X041258Y012532D01*
X041258Y012433D02*
X039248Y012433D01*
X039248Y012335D02*
X041258Y012335D01*
X041258Y012236D02*
X039248Y012236D01*
X039248Y012138D02*
X041258Y012138D01*
X041258Y012039D02*
X039248Y012039D01*
X039248Y011941D02*
X041258Y011941D01*
X041258Y011842D02*
X039248Y011842D01*
X039248Y011743D02*
X041258Y011743D01*
X041258Y011645D02*
X039248Y011645D01*
X039248Y011546D02*
X041258Y011546D01*
X041258Y011448D02*
X039248Y011448D01*
X039248Y011349D02*
X041258Y011349D01*
X041258Y011251D02*
X039248Y011251D01*
X039248Y011152D02*
X041258Y011152D01*
X041258Y011054D02*
X039248Y011054D01*
X039248Y010955D02*
X041258Y010955D01*
X041258Y010857D02*
X039248Y010857D01*
X039248Y010758D02*
X041258Y010758D01*
X041258Y010659D02*
X039248Y010659D01*
X039248Y010561D02*
X041258Y010561D01*
X041258Y010462D02*
X039248Y010462D01*
X039248Y010364D02*
X041258Y010364D01*
X041258Y010265D02*
X039248Y010265D01*
X039248Y010167D02*
X041258Y010167D01*
X041258Y010068D02*
X039248Y010068D01*
X039248Y009970D02*
X041258Y009970D01*
X041258Y009871D02*
X039248Y009871D01*
X039248Y009773D02*
X041258Y009773D01*
X041258Y009674D02*
X039248Y009674D01*
X039248Y009576D02*
X041258Y009576D01*
X041258Y009477D02*
X039248Y009477D01*
X039248Y009378D02*
X041258Y009378D01*
X041258Y009280D02*
X039248Y009280D01*
X039248Y009181D02*
X041258Y009181D01*
X041258Y009083D02*
X039248Y009083D01*
X039248Y008984D02*
X041258Y008984D01*
X041258Y008886D02*
X039248Y008886D01*
X039248Y008787D02*
X041258Y008787D01*
X041258Y008689D02*
X039248Y008689D01*
X039248Y008590D02*
X041258Y008590D01*
X041258Y008492D02*
X039248Y008492D01*
X039248Y008393D02*
X041258Y008393D01*
X041258Y008294D02*
X039248Y008294D01*
X039248Y008196D02*
X041258Y008196D01*
X041258Y008097D02*
X039248Y008097D01*
X039248Y007999D02*
X041258Y007999D01*
X041258Y007900D02*
X039248Y007900D01*
X039248Y007802D02*
X041258Y007802D01*
X041258Y007703D02*
X039248Y007703D01*
X039248Y007605D02*
X041258Y007605D01*
X041258Y007506D02*
X039248Y007506D01*
X039248Y007408D02*
X041258Y007408D01*
X041258Y007309D02*
X039248Y007309D01*
X039248Y007210D02*
X041258Y007210D01*
X041258Y007112D02*
X039248Y007112D01*
X039248Y007013D02*
X041258Y007013D01*
X041258Y006915D02*
X039248Y006915D01*
X039248Y006816D02*
X041258Y006816D01*
X041258Y006718D02*
X039248Y006718D01*
X039248Y006619D02*
X041258Y006619D01*
X041258Y006521D02*
X039248Y006521D01*
X039248Y006422D02*
X041258Y006422D01*
X041258Y006324D02*
X039248Y006324D01*
X039248Y006225D02*
X041258Y006225D01*
X041258Y006126D02*
X039248Y006126D01*
X039248Y006028D02*
X041258Y006028D01*
X041258Y005929D02*
X039248Y005929D01*
X039248Y005831D02*
X041258Y005831D01*
X041258Y005732D02*
X039248Y005732D01*
X039248Y005634D02*
X041258Y005634D01*
X041258Y005535D02*
X039248Y005535D01*
X039248Y005437D02*
X041258Y005437D01*
X041258Y005338D02*
X039248Y005338D01*
X039248Y005240D02*
X041258Y005240D01*
X041258Y005141D02*
X039248Y005141D01*
X039248Y005043D02*
X041258Y005043D01*
X041258Y004944D02*
X039248Y004944D01*
X039248Y004845D02*
X041258Y004845D01*
X041258Y004747D02*
X039248Y004747D01*
X039248Y004648D02*
X041258Y004648D01*
X041258Y004550D02*
X039248Y004550D01*
X039248Y004451D02*
X041258Y004451D01*
X041258Y004353D02*
X039248Y004353D01*
X039248Y004254D02*
X041258Y004254D01*
X041258Y004156D02*
X039248Y004156D01*
X039248Y004057D02*
X041258Y004057D01*
X041258Y003959D02*
X039248Y003959D01*
X039248Y003860D02*
X041258Y003860D01*
X041258Y003761D02*
X039248Y003761D01*
X039248Y003663D02*
X041258Y003663D01*
X041258Y003564D02*
X039248Y003564D01*
X039248Y003466D02*
X041258Y003466D01*
X041258Y003367D02*
X039248Y003367D01*
X039248Y003269D02*
X041258Y003269D01*
X041258Y003170D02*
X039248Y003170D01*
X039248Y003072D02*
X041258Y003072D01*
X041258Y002973D02*
X039248Y002973D01*
X039248Y002875D02*
X041258Y002875D01*
X041258Y002776D02*
X039248Y002776D01*
X039248Y002677D02*
X040163Y002677D01*
X040293Y002712D02*
X040014Y002637D01*
X039763Y002493D01*
X039558Y002288D01*
X039413Y002037D01*
X039338Y001757D01*
X039338Y001468D01*
X039413Y001188D01*
X039451Y001122D01*
X039328Y000999D01*
X039328Y000762D01*
X039248Y000762D01*
X039248Y026299D01*
X039125Y026422D01*
X038097Y026422D01*
X038136Y026454D01*
X038227Y026545D01*
X038308Y026646D01*
X038376Y026755D01*
X038432Y026872D01*
X038475Y026994D01*
X038504Y027119D01*
X038518Y027248D01*
X038518Y027262D01*
X037418Y027262D01*
X037418Y027362D01*
X038518Y027362D01*
X038518Y027377D01*
X038504Y027505D01*
X038475Y027631D01*
X038432Y027753D01*
X038376Y027870D01*
X038308Y027979D01*
X038227Y028080D01*
X038136Y028171D01*
X038035Y028252D01*
X037925Y028321D01*
X037809Y028377D01*
X037687Y028419D01*
X037561Y028448D01*
X037433Y028462D01*
X037418Y028462D01*
X037418Y027363D01*
X037318Y027363D01*
X037318Y028462D01*
X037304Y028462D01*
X037175Y028448D01*
X037049Y028419D01*
X036927Y028377D01*
X036811Y028321D01*
X036702Y028252D01*
X036601Y028171D01*
X036509Y028080D01*
X036429Y027979D01*
X036360Y027870D01*
X036304Y027753D01*
X036261Y027631D01*
X036233Y027505D01*
X036218Y027377D01*
X036218Y027362D01*
X037318Y027362D01*
X037318Y027262D01*
X036218Y027262D01*
X036218Y027248D01*
X036233Y027119D01*
X036261Y026994D01*
X036304Y026872D01*
X036360Y026755D01*
X036429Y026646D01*
X036509Y026545D01*
X036601Y026454D01*
X036702Y026373D01*
X036811Y026304D01*
X036828Y026296D01*
X036828Y026122D01*
X036351Y026122D01*
X036244Y026015D01*
X036242Y026018D01*
X036110Y026072D01*
X035967Y026072D01*
X025187Y026072D01*
X025043Y026216D01*
X024942Y026318D01*
X024810Y026372D01*
X022175Y026372D01*
X022125Y026422D01*
X019951Y026422D01*
X019828Y026299D01*
X019828Y025972D01*
X013615Y025972D01*
X013598Y025989D01*
X013598Y028348D01*
X013736Y028211D01*
X013997Y028102D01*
X014279Y028102D01*
X014540Y028211D01*
X014740Y028410D01*
X014848Y028671D01*
X014848Y029954D01*
X014740Y030215D01*
X014540Y030414D01*
X014279Y030522D01*
X013997Y030522D01*
X013736Y030414D01*
X013598Y030276D01*
X013598Y030841D01*
X013598Y030984D01*
X013543Y031116D01*
X013301Y031359D01*
X039729Y031359D01*
X039558Y031188D01*
X039413Y030937D01*
X039338Y030657D01*
X039338Y030368D01*
X022787Y030368D01*
X022740Y030414D02*
X022479Y030522D01*
X022197Y030522D01*
X021936Y030414D01*
X021736Y030215D01*
X021628Y029954D01*
X021628Y028671D01*
X021736Y028410D01*
X021936Y028211D01*
X022197Y028102D01*
X022479Y028102D01*
X022740Y028211D01*
X022940Y028410D01*
X023048Y028671D01*
X023048Y029954D01*
X022940Y030215D01*
X022740Y030414D01*
X022614Y030467D02*
X039338Y030467D01*
X039338Y030565D02*
X013598Y030565D01*
X013598Y030467D02*
X013863Y030467D01*
X013690Y030368D02*
X013598Y030368D01*
X013598Y030664D02*
X039340Y030664D01*
X039366Y030762D02*
X013598Y030762D01*
X013598Y030861D02*
X039393Y030861D01*
X039426Y030959D02*
X013598Y030959D01*
X013568Y031058D02*
X039483Y031058D01*
X039540Y031156D02*
X013503Y031156D01*
X013405Y031255D02*
X039625Y031255D01*
X039724Y031354D02*
X013306Y031354D01*
X012878Y030664D02*
X012506Y030664D01*
X012506Y030565D02*
X012878Y030565D01*
X012878Y030467D02*
X012506Y030467D01*
X012506Y030368D02*
X012878Y030368D01*
X012878Y030270D02*
X012503Y030270D01*
X012498Y030171D02*
X012878Y030171D01*
X012878Y030073D02*
X012596Y030073D01*
X012694Y029974D02*
X012878Y029974D01*
X012878Y029875D02*
X012703Y029875D01*
X012703Y029777D02*
X012878Y029777D01*
X012878Y029678D02*
X012703Y029678D01*
X012703Y029580D02*
X012878Y029580D01*
X012878Y029481D02*
X012703Y029481D01*
X012703Y029383D02*
X012878Y029383D01*
X012878Y029284D02*
X012708Y029284D01*
X012708Y029186D02*
X012878Y029186D01*
X012878Y029087D02*
X012708Y029087D01*
X012708Y028989D02*
X012878Y028989D01*
X012878Y028890D02*
X012708Y028890D01*
X012708Y028791D02*
X012878Y028791D01*
X012878Y028693D02*
X012696Y028693D01*
X012643Y028594D02*
X012878Y028594D01*
X012878Y028496D02*
X012188Y028496D01*
X012188Y028397D02*
X012088Y028397D01*
X012088Y028299D02*
X012188Y028299D01*
X012188Y028200D02*
X012088Y028200D01*
X012088Y028102D02*
X012188Y028102D01*
X012188Y028003D02*
X012088Y028003D01*
X011739Y028003D02*
X010238Y028003D01*
X010336Y028102D02*
X011641Y028102D01*
X011634Y028200D02*
X010343Y028200D01*
X010343Y028299D02*
X011634Y028299D01*
X011634Y028397D02*
X010343Y028397D01*
X010343Y028594D02*
X011634Y028594D01*
X011581Y028693D02*
X010406Y028693D01*
X010408Y028791D02*
X011568Y028791D01*
X011568Y028890D02*
X010408Y028890D01*
X010408Y028989D02*
X011568Y028989D01*
X011568Y029087D02*
X010408Y029087D01*
X010408Y029186D02*
X011568Y029186D01*
X011568Y029284D02*
X010408Y029284D01*
X010403Y029383D02*
X011574Y029383D01*
X011574Y029481D02*
X010403Y029481D01*
X010403Y029580D02*
X011574Y029580D01*
X011574Y029678D02*
X010403Y029678D01*
X010403Y029777D02*
X011574Y029777D01*
X011574Y029875D02*
X010403Y029875D01*
X010394Y029974D02*
X011582Y029974D01*
X011681Y030073D02*
X010296Y030073D01*
X010128Y030171D02*
X011778Y030171D01*
X011774Y030270D02*
X010203Y030270D01*
X010206Y030368D02*
X011771Y030368D01*
X011771Y030467D02*
X010206Y030467D01*
X010206Y030565D02*
X011771Y030565D01*
X011771Y030664D02*
X010206Y030664D01*
X010205Y030762D02*
X011772Y030762D01*
X011773Y030861D02*
X010203Y030861D01*
X010206Y030959D02*
X011771Y030959D01*
X011771Y031058D02*
X010206Y031058D01*
X010206Y031156D02*
X011771Y031156D01*
X011771Y031255D02*
X010206Y031255D01*
X010204Y031354D02*
X011772Y031354D01*
X009471Y030664D02*
X008848Y030664D01*
X008848Y030565D02*
X009471Y030565D01*
X009471Y030467D02*
X008848Y030467D01*
X008848Y030368D02*
X009471Y030368D01*
X009474Y030270D02*
X008848Y030270D01*
X008848Y030171D02*
X009548Y030171D01*
X009381Y030073D02*
X008848Y030073D01*
X008848Y029974D02*
X009282Y029974D01*
X009274Y029875D02*
X008848Y029875D01*
X008848Y029777D02*
X009274Y029777D01*
X009274Y029678D02*
X008848Y029678D01*
X008848Y029580D02*
X009274Y029580D01*
X009274Y029481D02*
X008848Y029481D01*
X008848Y029383D02*
X009274Y029383D01*
X009268Y029284D02*
X008848Y029284D01*
X008848Y029186D02*
X009268Y029186D01*
X009268Y029087D02*
X008848Y029087D01*
X008848Y028989D02*
X009268Y028989D01*
X009268Y028890D02*
X008848Y028890D01*
X008848Y028791D02*
X009268Y028791D01*
X009271Y028693D02*
X008848Y028693D01*
X008848Y028594D02*
X009334Y028594D01*
X009334Y028397D02*
X008848Y028397D01*
X008848Y028299D02*
X009334Y028299D01*
X009334Y028200D02*
X008848Y028200D01*
X008848Y028102D02*
X009341Y028102D01*
X009439Y028003D02*
X008848Y028003D01*
X008848Y027905D02*
X012878Y027905D01*
X012878Y028003D02*
X012538Y028003D01*
X012636Y028102D02*
X012878Y028102D01*
X012878Y028200D02*
X012643Y028200D01*
X012643Y028299D02*
X012878Y028299D01*
X012878Y028397D02*
X012643Y028397D01*
X012088Y028496D02*
X009888Y028496D01*
X009888Y028397D02*
X009788Y028397D01*
X009788Y028299D02*
X009888Y028299D01*
X009888Y028200D02*
X009788Y028200D01*
X009788Y028102D02*
X009888Y028102D01*
X009888Y028003D02*
X009788Y028003D01*
X009788Y028496D02*
X008848Y028496D01*
X008848Y027806D02*
X012878Y027806D01*
X012878Y027707D02*
X008848Y027707D01*
X008848Y027609D02*
X012878Y027609D01*
X012878Y027510D02*
X008848Y027510D01*
X008848Y027412D02*
X012878Y027412D01*
X012878Y027313D02*
X008848Y027313D01*
X008848Y027215D02*
X009628Y027215D01*
X009530Y027174D02*
X009377Y027021D01*
X009294Y026821D01*
X009294Y026604D01*
X009377Y026404D01*
X009530Y026251D01*
X009730Y026168D01*
X009947Y026168D01*
X010147Y026251D01*
X010300Y026404D01*
X010383Y026604D01*
X010383Y026821D01*
X010300Y027021D01*
X010147Y027174D01*
X009947Y027257D01*
X009730Y027257D01*
X009530Y027174D01*
X009472Y027116D02*
X008848Y027116D01*
X008848Y027018D02*
X009375Y027018D01*
X009334Y026919D02*
X008848Y026919D01*
X008848Y026821D02*
X009294Y026821D01*
X009294Y026722D02*
X008848Y026722D01*
X008848Y026624D02*
X009294Y026624D01*
X009326Y026525D02*
X008848Y026525D01*
X008848Y026426D02*
X009367Y026426D01*
X009453Y026328D02*
X008848Y026328D01*
X008848Y026229D02*
X009581Y026229D01*
X010095Y026229D02*
X012878Y026229D01*
X012878Y026131D02*
X008754Y026131D01*
X008942Y025145D02*
X012878Y025145D01*
X012870Y025244D02*
X002788Y025244D01*
X002788Y025342D02*
X012808Y025342D01*
X012808Y025441D02*
X002788Y025441D01*
X002788Y025540D02*
X012808Y025540D01*
X012808Y025638D02*
X006361Y025638D01*
X006448Y025737D02*
X012808Y025737D01*
X012808Y025835D02*
X006448Y025835D01*
X006448Y025934D02*
X012823Y025934D01*
X012878Y026032D02*
X006448Y026032D01*
X006448Y026131D02*
X006923Y026131D01*
X006828Y026229D02*
X006448Y026229D01*
X006448Y026328D02*
X006828Y026328D01*
X006828Y026426D02*
X006448Y026426D01*
X006448Y026525D02*
X006828Y026525D01*
X006828Y026624D02*
X006448Y026624D01*
X006448Y026722D02*
X006828Y026722D01*
X006828Y026821D02*
X006448Y026821D01*
X006448Y026919D02*
X006828Y026919D01*
X006828Y027018D02*
X006448Y027018D01*
X006448Y027116D02*
X006828Y027116D01*
X006828Y027215D02*
X006448Y027215D01*
X006448Y027313D02*
X006828Y027313D01*
X006828Y027412D02*
X006448Y027412D01*
X006448Y027510D02*
X006828Y027510D01*
X006828Y027609D02*
X006448Y027609D01*
X006448Y027707D02*
X006828Y027707D01*
X006828Y027806D02*
X006448Y027806D01*
X006448Y027905D02*
X006828Y027905D01*
X006828Y028003D02*
X006448Y028003D01*
X006448Y028102D02*
X006828Y028102D01*
X006828Y028200D02*
X006448Y028200D01*
X006448Y028299D02*
X006828Y028299D01*
X006828Y028397D02*
X006448Y028397D01*
X006448Y028496D02*
X006828Y028496D01*
X006828Y028594D02*
X006448Y028594D01*
X006448Y028693D02*
X006828Y028693D01*
X006828Y028791D02*
X006448Y028791D01*
X006448Y028890D02*
X006828Y028890D01*
X006828Y028989D02*
X006359Y028989D01*
X006828Y029087D02*
X002788Y029087D01*
X002788Y029186D02*
X006828Y029186D01*
X006828Y029284D02*
X002788Y029284D01*
X002788Y029383D02*
X006828Y029383D01*
X006828Y029481D02*
X004040Y029481D01*
X004223Y029580D02*
X006828Y029580D01*
X006828Y029678D02*
X004360Y029678D01*
X004458Y029777D02*
X006828Y029777D01*
X006828Y029875D02*
X004541Y029875D01*
X004598Y029974D02*
X006828Y029974D01*
X006828Y030073D02*
X004654Y030073D01*
X004686Y030171D02*
X006828Y030171D01*
X006828Y030467D02*
X004738Y030467D01*
X004738Y030565D02*
X006828Y030565D01*
X006828Y030664D02*
X004736Y030664D01*
X004710Y030762D02*
X006828Y030762D01*
X006828Y030861D02*
X004684Y030861D01*
X004650Y030959D02*
X006828Y030959D01*
X006828Y031058D02*
X004593Y031058D01*
X004537Y031156D02*
X006828Y031156D01*
X006884Y031255D02*
X004451Y031255D01*
X004353Y031354D02*
X008370Y031354D01*
X010049Y027215D02*
X012878Y027215D01*
X012878Y027116D02*
X010205Y027116D01*
X010301Y027018D02*
X012878Y027018D01*
X012878Y026919D02*
X010342Y026919D01*
X010383Y026821D02*
X012878Y026821D01*
X012878Y026722D02*
X010383Y026722D01*
X010383Y026624D02*
X012878Y026624D01*
X012878Y026525D02*
X010350Y026525D01*
X010309Y026426D02*
X012878Y026426D01*
X012878Y026328D02*
X010224Y026328D01*
X008968Y025047D02*
X012812Y025047D01*
X012714Y024948D02*
X008968Y024948D01*
X008968Y024850D02*
X012615Y024850D01*
X012517Y024751D02*
X008968Y024751D01*
X008968Y024653D02*
X012418Y024653D01*
X012320Y024554D02*
X008968Y024554D01*
X008918Y024456D02*
X012221Y024456D01*
X012123Y024357D02*
X004992Y024357D01*
X004893Y024258D02*
X012024Y024258D01*
X011926Y024160D02*
X010161Y024160D01*
X010147Y024174D02*
X009947Y024257D01*
X009730Y024257D01*
X009530Y024174D01*
X009377Y024021D01*
X009294Y023821D01*
X009294Y023604D01*
X009377Y023404D01*
X009530Y023251D01*
X009730Y023168D01*
X009947Y023168D01*
X010147Y023251D01*
X010300Y023404D01*
X010383Y023604D01*
X010383Y023821D01*
X010300Y024021D01*
X010147Y024174D01*
X010260Y024061D02*
X011449Y024061D01*
X011413Y023963D02*
X010324Y023963D01*
X010365Y023864D02*
X011413Y023864D01*
X011413Y023766D02*
X010383Y023766D01*
X010383Y023667D02*
X011413Y023667D01*
X011413Y023569D02*
X010368Y023569D01*
X010327Y023470D02*
X011408Y023470D01*
X011408Y023372D02*
X010268Y023372D01*
X010169Y023273D02*
X011398Y023273D01*
X011398Y023174D02*
X009963Y023174D01*
X009714Y023174D02*
X004848Y023174D01*
X004848Y023076D02*
X011398Y023076D01*
X011398Y022977D02*
X004848Y022977D01*
X004848Y022879D02*
X011398Y022879D01*
X011398Y022780D02*
X004848Y022780D01*
X004848Y022682D02*
X011432Y022682D01*
X011473Y022485D02*
X004848Y022485D01*
X004848Y022583D02*
X011888Y022583D01*
X011888Y022485D02*
X011988Y022485D01*
X011988Y022583D02*
X012944Y022583D01*
X012932Y022682D02*
X012505Y022682D01*
X012538Y022780D02*
X012932Y022780D01*
X012932Y022879D02*
X012548Y022879D01*
X012403Y022485D02*
X012889Y022485D01*
X012872Y022386D02*
X012403Y022386D01*
X012403Y022288D02*
X012872Y022288D01*
X012872Y022189D02*
X012369Y022189D01*
X011988Y022189D02*
X011888Y022189D01*
X011888Y022288D02*
X011988Y022288D01*
X011988Y022386D02*
X011888Y022386D01*
X011473Y022386D02*
X004848Y022386D01*
X004848Y022288D02*
X011473Y022288D01*
X011508Y022189D02*
X004848Y022189D01*
X004848Y022091D02*
X012872Y022091D01*
X012896Y021992D02*
X004848Y021992D01*
X004848Y021893D02*
X012872Y021893D01*
X012872Y021795D02*
X004848Y021795D01*
X004848Y021696D02*
X012872Y021696D01*
X012872Y021598D02*
X004848Y021598D01*
X004848Y021499D02*
X012878Y021499D01*
X012878Y021401D02*
X004848Y021401D01*
X004848Y021302D02*
X012878Y021302D01*
X012878Y021204D02*
X004848Y021204D01*
X004848Y021105D02*
X012878Y021105D01*
X012237Y021007D02*
X012137Y021007D01*
X012137Y020908D02*
X012237Y020908D01*
X012237Y020809D02*
X012137Y020809D01*
X012137Y020711D02*
X012237Y020711D01*
X012237Y020612D02*
X012137Y020612D01*
X012137Y020514D02*
X004848Y020514D01*
X004848Y020612D02*
X011722Y020612D01*
X011722Y020711D02*
X004848Y020711D01*
X004848Y020809D02*
X011722Y020809D01*
X011728Y020908D02*
X004848Y020908D01*
X004848Y021007D02*
X011814Y021007D01*
X011722Y020415D02*
X004848Y020415D01*
X004848Y020317D02*
X011722Y020317D01*
X011722Y020218D02*
X004848Y020218D01*
X004848Y020120D02*
X011727Y020120D01*
X011809Y020021D02*
X004848Y020021D01*
X004848Y019923D02*
X016229Y019923D01*
X016141Y019824D02*
X004848Y019824D01*
X004848Y019725D02*
X016042Y019725D01*
X015944Y019627D02*
X004848Y019627D01*
X004848Y019528D02*
X015845Y019528D01*
X015747Y019430D02*
X004848Y019430D01*
X004848Y019331D02*
X015648Y019331D01*
X015550Y019233D02*
X004848Y019233D01*
X004848Y019134D02*
X015451Y019134D01*
X015352Y019036D02*
X004848Y019036D01*
X004848Y018937D02*
X015254Y018937D01*
X015155Y018839D02*
X004848Y018839D01*
X004848Y018740D02*
X015057Y018740D01*
X014958Y018641D02*
X004848Y018641D01*
X004848Y018543D02*
X014860Y018543D01*
X014761Y018444D02*
X004848Y018444D01*
X004769Y018346D02*
X014663Y018346D01*
X015738Y017612D02*
X015738Y014512D01*
X016091Y014897D02*
X016186Y014897D01*
X016538Y014512D02*
X017338Y013712D01*
X017338Y013270D01*
X017346Y013262D01*
X016908Y010659D02*
X013498Y010659D01*
X013498Y010561D02*
X016908Y010561D01*
X016908Y010462D02*
X013498Y010462D01*
X013498Y010364D02*
X016950Y010364D01*
X016706Y009181D02*
X017908Y009181D01*
X017908Y009083D02*
X016768Y009083D01*
X017138Y008812D02*
X017338Y008612D01*
X017338Y007570D01*
X017346Y007562D01*
X017970Y007802D02*
X017978Y007802D01*
X017978Y007900D02*
X017948Y007900D01*
X017948Y007999D02*
X017978Y007999D01*
X017978Y008097D02*
X017948Y008097D01*
X017948Y008196D02*
X017978Y008196D01*
X017978Y008294D02*
X017948Y008294D01*
X017948Y008393D02*
X017978Y008393D01*
X017978Y008492D02*
X017948Y008492D01*
X017978Y008590D02*
X017858Y008590D01*
X017978Y008689D02*
X017588Y008689D01*
X017531Y008787D02*
X017978Y008787D01*
X017928Y008886D02*
X017433Y008886D01*
X017334Y008984D02*
X017908Y008984D01*
X017138Y008812D02*
X016338Y008812D01*
X012738Y009712D02*
X012338Y010112D01*
X012138Y010112D01*
X011418Y010068D02*
X011358Y010068D01*
X011358Y009970D02*
X011418Y009970D01*
X011418Y009871D02*
X011358Y009871D01*
X011358Y009773D02*
X011418Y009773D01*
X011418Y009674D02*
X011358Y009674D01*
X011358Y009576D02*
X011418Y009576D01*
X011418Y009477D02*
X011358Y009477D01*
X011358Y009378D02*
X011418Y009378D01*
X011418Y009280D02*
X011358Y009280D01*
X011358Y009181D02*
X011418Y009181D01*
X012393Y008590D02*
X012478Y008590D01*
X012778Y010857D02*
X008998Y010857D01*
X008998Y010955D02*
X012778Y010955D01*
X012778Y011054D02*
X008998Y011054D01*
X008998Y011152D02*
X012778Y011152D01*
X012778Y011251D02*
X008998Y011251D01*
X008998Y011349D02*
X012778Y011349D01*
X012778Y011448D02*
X008998Y011448D01*
X008998Y011546D02*
X012778Y011546D01*
X012778Y011645D02*
X008998Y011645D01*
X008998Y011743D02*
X012778Y011743D01*
X012778Y011842D02*
X008998Y011842D01*
X008998Y011941D02*
X012778Y011941D01*
X012801Y012039D02*
X008998Y012039D01*
X008998Y012138D02*
X012854Y012138D01*
X012905Y012236D02*
X008998Y012236D01*
X008998Y012335D02*
X012807Y012335D01*
X012708Y012433D02*
X008998Y012433D01*
X008998Y012532D02*
X012610Y012532D01*
X012511Y012630D02*
X008998Y012630D01*
X008998Y012729D02*
X012413Y012729D01*
X012314Y012827D02*
X008998Y012827D01*
X009019Y012926D02*
X012216Y012926D01*
X012126Y013025D02*
X009118Y013025D01*
X009217Y013123D02*
X012086Y013123D01*
X012078Y013222D02*
X009315Y013222D01*
X009414Y013320D02*
X012078Y013320D01*
X012078Y013419D02*
X009512Y013419D01*
X009611Y013517D02*
X012078Y013517D01*
X012078Y013616D02*
X009709Y013616D01*
X009808Y013714D02*
X012078Y013714D01*
X012078Y013813D02*
X009906Y013813D01*
X010005Y013911D02*
X012078Y013911D01*
X012078Y014010D02*
X010103Y014010D01*
X010202Y014109D02*
X012078Y014109D01*
X012078Y014207D02*
X010301Y014207D01*
X010399Y014306D02*
X012078Y014306D01*
X012078Y014404D02*
X010498Y014404D01*
X010596Y014503D02*
X012078Y014503D01*
X012078Y014601D02*
X010695Y014601D01*
X010793Y014700D02*
X012078Y014700D01*
X012078Y014798D02*
X010892Y014798D01*
X010990Y014897D02*
X012078Y014897D01*
X012078Y014995D02*
X011089Y014995D01*
X011187Y015094D02*
X012078Y015094D01*
X012078Y015192D02*
X011655Y015192D01*
X011754Y015291D02*
X012078Y015291D01*
X012078Y015390D02*
X011768Y015390D01*
X011768Y015488D02*
X012078Y015488D01*
X012078Y015587D02*
X011768Y015587D01*
X011768Y015685D02*
X012079Y015685D01*
X012120Y015784D02*
X011768Y015784D01*
X011768Y015882D02*
X012199Y015882D01*
X012298Y015981D02*
X011707Y015981D01*
X011338Y015612D02*
X008738Y013012D01*
X008738Y005312D01*
X011338Y002712D01*
X011338Y001412D01*
X011544Y002875D02*
X013078Y002875D01*
X013078Y002973D02*
X011445Y002973D01*
X011347Y003072D02*
X013078Y003072D01*
X013078Y003170D02*
X011248Y003170D01*
X011150Y003269D02*
X013078Y003269D01*
X013078Y003367D02*
X011051Y003367D01*
X010953Y003466D02*
X013078Y003466D01*
X013078Y003564D02*
X010854Y003564D01*
X010755Y003663D02*
X013078Y003663D01*
X013078Y003761D02*
X010657Y003761D01*
X010558Y003860D02*
X013078Y003860D01*
X013078Y003959D02*
X010460Y003959D01*
X010361Y004057D02*
X013078Y004057D01*
X013078Y004156D02*
X010263Y004156D01*
X010164Y004254D02*
X013078Y004254D01*
X012138Y005012D02*
X011938Y004812D01*
X010238Y004812D01*
X009738Y005312D01*
X009738Y008212D01*
X009308Y008196D02*
X008998Y008196D01*
X008998Y008294D02*
X009308Y008294D01*
X009308Y008393D02*
X008998Y008393D01*
X008998Y008492D02*
X009308Y008492D01*
X009379Y008590D02*
X008998Y008590D01*
X008478Y008590D02*
X008248Y008590D01*
X008248Y008492D02*
X008478Y008492D01*
X008478Y008393D02*
X008248Y008393D01*
X008248Y008294D02*
X008478Y008294D01*
X008478Y008196D02*
X008248Y008196D01*
X008248Y008097D02*
X008478Y008097D01*
X008478Y007999D02*
X008222Y007999D01*
X008248Y008689D02*
X008478Y008689D01*
X008478Y008787D02*
X008248Y008787D01*
X008248Y008886D02*
X008478Y008886D01*
X008478Y008984D02*
X008248Y008984D01*
X008248Y009083D02*
X008478Y009083D01*
X008478Y009181D02*
X008248Y009181D01*
X008248Y009280D02*
X008478Y009280D01*
X008478Y009378D02*
X008248Y009378D01*
X008248Y009477D02*
X008478Y009477D01*
X008478Y009576D02*
X008248Y009576D01*
X008248Y009674D02*
X008478Y009674D01*
X008478Y009773D02*
X008248Y009773D01*
X008248Y009871D02*
X008478Y009871D01*
X008478Y009970D02*
X008248Y009970D01*
X008248Y010068D02*
X008478Y010068D01*
X008478Y010167D02*
X008248Y010167D01*
X008248Y010265D02*
X008478Y010265D01*
X008478Y010364D02*
X008248Y010364D01*
X008248Y010462D02*
X008478Y010462D01*
X008478Y010561D02*
X008248Y010561D01*
X008248Y010659D02*
X008478Y010659D01*
X008478Y010758D02*
X008248Y010758D01*
X008248Y010857D02*
X008478Y010857D01*
X008478Y010955D02*
X008248Y010955D01*
X008248Y011054D02*
X008478Y011054D01*
X008478Y011152D02*
X008248Y011152D01*
X008248Y011251D02*
X008478Y011251D01*
X008478Y011349D02*
X008248Y011349D01*
X008248Y011448D02*
X008478Y011448D01*
X008478Y011546D02*
X008248Y011546D01*
X008248Y011645D02*
X008478Y011645D01*
X008478Y011743D02*
X008248Y011743D01*
X008248Y011842D02*
X008478Y011842D01*
X008478Y011941D02*
X008248Y011941D01*
X008248Y012039D02*
X008478Y012039D01*
X008478Y012138D02*
X008248Y012138D01*
X008248Y012236D02*
X008478Y012236D01*
X008478Y012335D02*
X008248Y012335D01*
X008248Y012433D02*
X008478Y012433D01*
X008478Y012532D02*
X008248Y012532D01*
X008248Y012630D02*
X008478Y012630D01*
X008478Y012729D02*
X008248Y012729D01*
X008248Y012827D02*
X008478Y012827D01*
X008478Y012926D02*
X008248Y012926D01*
X008248Y013025D02*
X008478Y013025D01*
X008503Y013123D02*
X008248Y013123D01*
X008248Y013222D02*
X008580Y013222D01*
X008678Y013320D02*
X008248Y013320D01*
X008248Y013419D02*
X008777Y013419D01*
X008875Y013517D02*
X008248Y013517D01*
X008248Y013616D02*
X008974Y013616D01*
X009072Y013714D02*
X008233Y013714D01*
X008135Y013813D02*
X009171Y013813D01*
X010058Y014700D02*
X007168Y014700D01*
X007088Y014700D02*
X006988Y014700D01*
X006988Y014798D02*
X007088Y014798D01*
X007088Y014897D02*
X006988Y014897D01*
X006988Y014995D02*
X007088Y014995D01*
X007088Y015094D02*
X006988Y015094D01*
X006988Y015192D02*
X007088Y015192D01*
X007088Y015291D02*
X006988Y015291D01*
X006988Y015390D02*
X007088Y015390D01*
X007088Y015488D02*
X006988Y015488D01*
X006988Y015587D02*
X007088Y015587D01*
X007088Y015685D02*
X006988Y015685D01*
X006988Y015784D02*
X007088Y015784D01*
X007088Y015882D02*
X010908Y015882D01*
X010908Y015784D02*
X008188Y015784D01*
X008178Y015685D02*
X010908Y015685D01*
X010908Y015587D02*
X008159Y015587D01*
X008133Y015488D02*
X010846Y015488D01*
X010748Y015390D02*
X008097Y015390D01*
X008049Y015291D02*
X010649Y015291D01*
X010551Y015192D02*
X007988Y015192D01*
X007912Y015094D02*
X010452Y015094D01*
X010354Y014995D02*
X007818Y014995D01*
X007695Y014897D02*
X010255Y014897D01*
X010156Y014798D02*
X007521Y014798D01*
X008180Y015981D02*
X010970Y015981D01*
X012396Y016079D02*
X008164Y016079D01*
X008139Y016178D02*
X012495Y016178D01*
X012593Y016276D02*
X008105Y016276D01*
X008058Y016375D02*
X012692Y016375D01*
X012790Y016474D02*
X008000Y016474D01*
X007927Y016572D02*
X012889Y016572D01*
X012987Y016671D02*
X007836Y016671D01*
X007721Y016769D02*
X013086Y016769D01*
X013184Y016868D02*
X007560Y016868D01*
X006794Y016966D02*
X002788Y016966D01*
X002788Y016868D02*
X006517Y016868D01*
X006356Y016769D02*
X002788Y016769D01*
X002788Y016671D02*
X006240Y016671D01*
X006149Y016572D02*
X002788Y016572D01*
X002788Y016474D02*
X006077Y016474D01*
X006018Y016375D02*
X002788Y016375D01*
X002788Y016276D02*
X005972Y016276D01*
X005937Y016178D02*
X002788Y016178D01*
X002788Y016079D02*
X005913Y016079D01*
X005897Y015981D02*
X002788Y015981D01*
X004848Y023273D02*
X009507Y023273D01*
X009409Y023372D02*
X004848Y023372D01*
X004848Y023470D02*
X009349Y023470D01*
X009308Y023569D02*
X004848Y023569D01*
X004848Y023667D02*
X009294Y023667D01*
X009294Y023766D02*
X004848Y023766D01*
X004848Y023864D02*
X009312Y023864D01*
X009352Y023963D02*
X004848Y023963D01*
X004848Y024061D02*
X009417Y024061D01*
X009516Y024160D02*
X004848Y024160D01*
X004368Y024751D02*
X002788Y024751D01*
X002788Y024850D02*
X004466Y024850D01*
X004565Y024948D02*
X002788Y024948D01*
X002788Y025047D02*
X004664Y025047D01*
X004801Y025145D02*
X002788Y025145D01*
X002788Y029481D02*
X003237Y029481D01*
X003054Y029580D02*
X002788Y029580D01*
X002788Y029678D02*
X002917Y029678D01*
X002818Y029777D02*
X002788Y029777D01*
X012463Y023679D02*
X013442Y024658D01*
X013543Y024760D01*
X013598Y024892D01*
X013598Y025235D01*
X013615Y025252D01*
X019828Y025252D01*
X019828Y025012D01*
X019533Y024716D01*
X019478Y024584D01*
X019478Y024441D01*
X019478Y023062D01*
X017289Y020872D01*
X017114Y020872D01*
X017114Y020954D01*
X016991Y021077D01*
X016361Y021077D01*
X016355Y021082D01*
X016298Y021082D01*
X016298Y021784D01*
X016243Y021916D01*
X016205Y021955D01*
X016205Y021968D01*
X016160Y022012D01*
X016205Y022057D01*
X016205Y022468D01*
X016176Y022497D01*
X016198Y022550D01*
X016205Y022557D01*
X016205Y022567D01*
X016209Y022576D01*
X016209Y022902D01*
X016468Y022902D01*
X016468Y022895D01*
X016573Y022790D01*
X016573Y022711D01*
X016988Y022711D01*
X016988Y022611D01*
X017088Y022611D01*
X017088Y022236D01*
X017373Y022236D01*
X017411Y022246D01*
X017445Y022266D01*
X017473Y022294D01*
X017493Y022328D01*
X017503Y022366D01*
X017503Y022611D01*
X017088Y022611D01*
X017088Y022711D01*
X017503Y022711D01*
X017503Y022790D01*
X017608Y022895D01*
X017608Y023529D01*
X017563Y023574D01*
X017563Y024126D01*
X017440Y024249D01*
X016636Y024249D01*
X016513Y024126D01*
X016513Y023748D01*
X016388Y023622D01*
X015948Y023622D01*
X015948Y023699D01*
X015898Y023749D01*
X015898Y024235D01*
X015968Y024305D01*
X015968Y024919D01*
X015845Y025042D01*
X015231Y025042D01*
X015108Y024919D01*
X015108Y024305D01*
X015178Y024235D01*
X015178Y023822D01*
X014472Y023822D01*
X014422Y023873D01*
X014242Y023947D01*
X014047Y023947D01*
X013867Y023873D01*
X013817Y023822D01*
X013251Y023822D01*
X013128Y023699D01*
X013128Y023622D01*
X012489Y023622D01*
X012463Y023648D01*
X012463Y023679D01*
X012463Y023667D02*
X013128Y023667D01*
X013195Y023766D02*
X012549Y023766D01*
X012648Y023864D02*
X013859Y023864D01*
X014431Y023864D02*
X015178Y023864D01*
X015178Y023963D02*
X012747Y023963D01*
X012845Y024061D02*
X015178Y024061D01*
X015178Y024160D02*
X012944Y024160D01*
X013042Y024258D02*
X015155Y024258D01*
X015108Y024357D02*
X013141Y024357D01*
X013239Y024456D02*
X015108Y024456D01*
X015108Y024554D02*
X013338Y024554D01*
X013436Y024653D02*
X015108Y024653D01*
X015108Y024751D02*
X013535Y024751D01*
X013581Y024850D02*
X015108Y024850D01*
X015137Y024948D02*
X013598Y024948D01*
X013598Y025047D02*
X019828Y025047D01*
X019828Y025145D02*
X013598Y025145D01*
X013607Y025244D02*
X019828Y025244D01*
X019765Y024948D02*
X015939Y024948D01*
X015968Y024850D02*
X019666Y024850D01*
X019568Y024751D02*
X015968Y024751D01*
X015968Y024653D02*
X019507Y024653D01*
X019478Y024554D02*
X015968Y024554D01*
X015968Y024456D02*
X019478Y024456D01*
X019478Y024357D02*
X015968Y024357D01*
X015921Y024258D02*
X019478Y024258D01*
X019478Y024160D02*
X017529Y024160D01*
X017563Y024061D02*
X019478Y024061D01*
X019478Y023963D02*
X017563Y023963D01*
X017563Y023864D02*
X019478Y023864D01*
X019478Y023766D02*
X017563Y023766D01*
X017563Y023667D02*
X019478Y023667D01*
X019478Y023569D02*
X017569Y023569D01*
X017608Y023470D02*
X019478Y023470D01*
X019478Y023372D02*
X017608Y023372D01*
X017608Y023273D02*
X019478Y023273D01*
X019478Y023174D02*
X017608Y023174D01*
X017608Y023076D02*
X019478Y023076D01*
X019394Y022977D02*
X017608Y022977D01*
X017592Y022879D02*
X019296Y022879D01*
X019197Y022780D02*
X017503Y022780D01*
X017503Y022583D02*
X019000Y022583D01*
X018901Y022485D02*
X017503Y022485D01*
X017503Y022386D02*
X018803Y022386D01*
X018704Y022288D02*
X017467Y022288D01*
X017088Y022288D02*
X016988Y022288D01*
X016988Y022236D02*
X016988Y022611D01*
X016573Y022611D01*
X016573Y022366D01*
X016584Y022328D01*
X016603Y022294D01*
X016631Y022266D01*
X016665Y022246D01*
X016704Y022236D01*
X016988Y022236D01*
X016988Y022386D02*
X017088Y022386D01*
X017088Y022485D02*
X016988Y022485D01*
X016988Y022583D02*
X017088Y022583D01*
X017088Y022682D02*
X019099Y022682D01*
X018606Y022189D02*
X016205Y022189D01*
X016205Y022091D02*
X018507Y022091D01*
X018409Y021992D02*
X016180Y021992D01*
X016253Y021893D02*
X018310Y021893D01*
X018212Y021795D02*
X016294Y021795D01*
X016298Y021696D02*
X018113Y021696D01*
X018015Y021598D02*
X016298Y021598D01*
X016298Y021499D02*
X017916Y021499D01*
X017817Y021401D02*
X016298Y021401D01*
X016298Y021302D02*
X017719Y021302D01*
X017620Y021204D02*
X016298Y021204D01*
X016298Y021105D02*
X017522Y021105D01*
X017423Y021007D02*
X017062Y021007D01*
X017114Y020908D02*
X017325Y020908D01*
X016609Y022288D02*
X016205Y022288D01*
X016205Y022386D02*
X016573Y022386D01*
X016573Y022485D02*
X016188Y022485D01*
X016209Y022583D02*
X016573Y022583D01*
X016573Y022780D02*
X016209Y022780D01*
X016209Y022682D02*
X016988Y022682D01*
X016485Y022879D02*
X016209Y022879D01*
X016433Y023667D02*
X015948Y023667D01*
X015898Y023766D02*
X016513Y023766D01*
X016513Y023864D02*
X015898Y023864D01*
X015898Y023963D02*
X016513Y023963D01*
X016513Y024061D02*
X015898Y024061D01*
X015898Y024160D02*
X016547Y024160D01*
X013442Y024658D02*
X013442Y024658D01*
X013598Y026032D02*
X019828Y026032D01*
X019828Y026131D02*
X013598Y026131D01*
X013598Y026229D02*
X019828Y026229D01*
X019857Y026328D02*
X013598Y026328D01*
X013598Y026426D02*
X026775Y026426D01*
X026741Y026454D02*
X026842Y026373D01*
X026951Y026304D01*
X027067Y026248D01*
X027189Y026206D01*
X027315Y026177D01*
X027444Y026162D01*
X027458Y026162D01*
X027458Y027262D01*
X027558Y027262D01*
X027558Y026162D01*
X027573Y026162D01*
X027701Y026177D01*
X027827Y026206D01*
X027949Y026248D01*
X028065Y026304D01*
X028175Y026373D01*
X028276Y026454D01*
X028367Y026545D01*
X028448Y026646D01*
X028516Y026755D01*
X028572Y026872D01*
X028615Y026994D01*
X028644Y027119D01*
X028658Y027248D01*
X028658Y027262D01*
X027558Y027262D01*
X027558Y027362D01*
X028658Y027362D01*
X028658Y027377D01*
X028644Y027505D01*
X028615Y027631D01*
X028572Y027753D01*
X028516Y027870D01*
X028448Y027979D01*
X028367Y028080D01*
X028276Y028171D01*
X028175Y028252D01*
X028065Y028321D01*
X027949Y028377D01*
X027827Y028419D01*
X027701Y028448D01*
X027573Y028462D01*
X027558Y028462D01*
X027558Y027363D01*
X027458Y027363D01*
X027458Y028462D01*
X027444Y028462D01*
X027315Y028448D01*
X027189Y028419D01*
X027067Y028377D01*
X026951Y028321D01*
X026842Y028252D01*
X026741Y028171D01*
X026649Y028080D01*
X026569Y027979D01*
X026500Y027870D01*
X026444Y027753D01*
X026401Y027631D01*
X026373Y027505D01*
X026358Y027377D01*
X026358Y027362D01*
X027458Y027362D01*
X027458Y027262D01*
X026358Y027262D01*
X026358Y027248D01*
X026373Y027119D01*
X026401Y026994D01*
X026444Y026872D01*
X026500Y026755D01*
X026569Y026646D01*
X026649Y026545D01*
X026741Y026454D01*
X026669Y026525D02*
X013598Y026525D01*
X013598Y026624D02*
X026587Y026624D01*
X026521Y026722D02*
X013598Y026722D01*
X013598Y026821D02*
X026469Y026821D01*
X026427Y026919D02*
X013598Y026919D01*
X013598Y027018D02*
X026396Y027018D01*
X026373Y027116D02*
X013598Y027116D01*
X013598Y027215D02*
X026362Y027215D01*
X026362Y027412D02*
X013598Y027412D01*
X013598Y027510D02*
X026374Y027510D01*
X026396Y027609D02*
X013598Y027609D01*
X013598Y027707D02*
X026428Y027707D01*
X026470Y027806D02*
X013598Y027806D01*
X013598Y027905D02*
X026522Y027905D01*
X026588Y028003D02*
X013598Y028003D01*
X013598Y028102D02*
X024356Y028102D01*
X024310Y028121D02*
X024523Y028032D01*
X024754Y028032D01*
X024967Y028121D01*
X025130Y028284D01*
X025218Y028497D01*
X025218Y028728D01*
X025130Y028941D01*
X024967Y029104D01*
X024867Y029145D01*
X024911Y029168D01*
X024977Y029216D01*
X025035Y029274D01*
X025083Y029340D01*
X025120Y029413D01*
X025145Y029491D01*
X025158Y029571D01*
X025158Y029582D01*
X024669Y029582D01*
X024669Y029642D01*
X025158Y029642D01*
X025158Y029653D01*
X025145Y029734D01*
X025120Y029812D01*
X025083Y029885D01*
X025035Y029951D01*
X024977Y030009D01*
X024911Y030057D01*
X024838Y030094D01*
X024760Y030120D01*
X024679Y030132D01*
X024668Y030132D01*
X024668Y029643D01*
X024608Y029643D01*
X024608Y030132D01*
X024597Y030132D01*
X024516Y030120D01*
X024439Y030094D01*
X024366Y030057D01*
X024299Y030009D01*
X024242Y029951D01*
X024194Y029885D01*
X024156Y029812D01*
X024131Y029734D01*
X024118Y029653D01*
X024118Y029642D01*
X024608Y029642D01*
X024608Y029582D01*
X024118Y029582D01*
X024118Y029571D01*
X024131Y029491D01*
X024156Y029413D01*
X024194Y029340D01*
X024242Y029274D01*
X024299Y029216D01*
X024366Y029168D01*
X024409Y029145D01*
X024310Y029104D01*
X024147Y028941D01*
X024058Y028728D01*
X024058Y028497D01*
X024147Y028284D01*
X024310Y028121D01*
X024230Y028200D02*
X022716Y028200D01*
X022829Y028299D02*
X024140Y028299D01*
X024100Y028397D02*
X022927Y028397D01*
X022976Y028496D02*
X024059Y028496D01*
X024058Y028594D02*
X023016Y028594D01*
X023048Y028693D02*
X024058Y028693D01*
X024085Y028791D02*
X023048Y028791D01*
X023048Y028890D02*
X024125Y028890D01*
X024194Y028989D02*
X023048Y028989D01*
X023048Y029087D02*
X024293Y029087D01*
X024341Y029186D02*
X023048Y029186D01*
X023048Y029284D02*
X024234Y029284D01*
X024172Y029383D02*
X023048Y029383D01*
X023048Y029481D02*
X024134Y029481D01*
X024118Y029580D02*
X023048Y029580D01*
X023048Y029678D02*
X024122Y029678D01*
X024145Y029777D02*
X023048Y029777D01*
X023048Y029875D02*
X024189Y029875D01*
X024264Y029974D02*
X023040Y029974D01*
X022999Y030073D02*
X024396Y030073D01*
X024608Y030073D02*
X024668Y030073D01*
X024668Y029974D02*
X024608Y029974D01*
X024608Y029875D02*
X024668Y029875D01*
X024668Y029777D02*
X024608Y029777D01*
X024608Y029678D02*
X024668Y029678D01*
X024881Y030073D02*
X039422Y030073D01*
X039413Y030088D02*
X039558Y029837D01*
X039763Y029632D01*
X040014Y029487D01*
X040293Y029412D01*
X040583Y029412D01*
X040863Y029487D01*
X041114Y029632D01*
X041258Y029777D01*
X041258Y029777D01*
X041258Y002348D01*
X041114Y002493D01*
X040863Y002637D01*
X040583Y002712D01*
X040293Y002712D01*
X039912Y002579D02*
X039248Y002579D01*
X039248Y002480D02*
X039751Y002480D01*
X039652Y002382D02*
X039248Y002382D01*
X039248Y002283D02*
X039555Y002283D01*
X039499Y002185D02*
X039248Y002185D01*
X039248Y002086D02*
X039442Y002086D01*
X039400Y001988D02*
X039248Y001988D01*
X039248Y001889D02*
X039374Y001889D01*
X039347Y001791D02*
X039248Y001791D01*
X039248Y001692D02*
X039338Y001692D01*
X039338Y001594D02*
X039248Y001594D01*
X039248Y001495D02*
X039338Y001495D01*
X039357Y001396D02*
X039248Y001396D01*
X039248Y001298D02*
X039384Y001298D01*
X039410Y001199D02*
X039248Y001199D01*
X039248Y001101D02*
X039430Y001101D01*
X039331Y001002D02*
X039248Y001002D01*
X039248Y000904D02*
X039328Y000904D01*
X039328Y000805D02*
X039248Y000805D01*
X040713Y002677D02*
X041258Y002677D01*
X041258Y002579D02*
X040964Y002579D01*
X041126Y002480D02*
X041258Y002480D01*
X041258Y002382D02*
X041224Y002382D01*
X036828Y002382D02*
X036648Y002382D01*
X036648Y002480D02*
X036828Y002480D01*
X036828Y002579D02*
X036648Y002579D01*
X036648Y002677D02*
X036828Y002677D01*
X036828Y002776D02*
X036648Y002776D01*
X036648Y002875D02*
X036828Y002875D01*
X036828Y002973D02*
X036648Y002973D01*
X036648Y003072D02*
X036828Y003072D01*
X036828Y003170D02*
X036648Y003170D01*
X036648Y003269D02*
X036828Y003269D01*
X036828Y003367D02*
X036648Y003367D01*
X036648Y003466D02*
X036828Y003466D01*
X036828Y003564D02*
X036648Y003564D01*
X036648Y003663D02*
X036828Y003663D01*
X036828Y003761D02*
X036648Y003761D01*
X036648Y003860D02*
X036828Y003860D01*
X036828Y003959D02*
X036648Y003959D01*
X036648Y004057D02*
X036828Y004057D01*
X036828Y004156D02*
X036648Y004156D01*
X036648Y004254D02*
X036828Y004254D01*
X036828Y004353D02*
X036648Y004353D01*
X036648Y004451D02*
X036828Y004451D01*
X036828Y004550D02*
X036648Y004550D01*
X036648Y004648D02*
X036828Y004648D01*
X036828Y004747D02*
X036648Y004747D01*
X036648Y004845D02*
X036828Y004845D01*
X036828Y004944D02*
X036648Y004944D01*
X036648Y005043D02*
X036828Y005043D01*
X036828Y005141D02*
X036648Y005141D01*
X036648Y005240D02*
X036828Y005240D01*
X036828Y005338D02*
X036648Y005338D01*
X036648Y005437D02*
X036828Y005437D01*
X036828Y005535D02*
X036648Y005535D01*
X036648Y005634D02*
X036828Y005634D01*
X036828Y005732D02*
X036648Y005732D01*
X036648Y005831D02*
X036828Y005831D01*
X036828Y005929D02*
X036648Y005929D01*
X036648Y006028D02*
X036828Y006028D01*
X036828Y006126D02*
X036648Y006126D01*
X036648Y006225D02*
X036828Y006225D01*
X036828Y006324D02*
X036648Y006324D01*
X036648Y006422D02*
X036828Y006422D01*
X036828Y006521D02*
X036648Y006521D01*
X036648Y006619D02*
X036828Y006619D01*
X036828Y006718D02*
X036648Y006718D01*
X036648Y006816D02*
X036828Y006816D01*
X036828Y006915D02*
X036648Y006915D01*
X036648Y007013D02*
X036828Y007013D01*
X036828Y007112D02*
X036648Y007112D01*
X036648Y007210D02*
X036828Y007210D01*
X036828Y007309D02*
X036648Y007309D01*
X036648Y007408D02*
X036828Y007408D01*
X036828Y007506D02*
X036648Y007506D01*
X036648Y007605D02*
X036828Y007605D01*
X036828Y007703D02*
X036648Y007703D01*
X036648Y007802D02*
X036828Y007802D01*
X036828Y007900D02*
X036648Y007900D01*
X036648Y007999D02*
X036828Y007999D01*
X036828Y008097D02*
X036648Y008097D01*
X036648Y008196D02*
X036828Y008196D01*
X036828Y008294D02*
X036648Y008294D01*
X036648Y008393D02*
X036828Y008393D01*
X036828Y008492D02*
X036648Y008492D01*
X036648Y008590D02*
X036828Y008590D01*
X036828Y008689D02*
X036648Y008689D01*
X036648Y008787D02*
X036828Y008787D01*
X036828Y008886D02*
X036648Y008886D01*
X036648Y008984D02*
X036828Y008984D01*
X036828Y009083D02*
X036648Y009083D01*
X036648Y009181D02*
X036828Y009181D01*
X036828Y009280D02*
X036648Y009280D01*
X036648Y009378D02*
X036828Y009378D01*
X036828Y009477D02*
X036648Y009477D01*
X036648Y009502D02*
X036828Y009502D01*
X036828Y000762D01*
X036648Y000762D01*
X036648Y009502D01*
X036648Y010857D02*
X036828Y010857D01*
X036828Y010955D02*
X036648Y010955D01*
X036648Y011054D02*
X036828Y011054D01*
X036828Y011152D02*
X036648Y011152D01*
X036648Y011251D02*
X036828Y011251D01*
X036828Y011349D02*
X036648Y011349D01*
X036648Y011448D02*
X036828Y011448D01*
X036828Y011546D02*
X036648Y011546D01*
X036648Y011645D02*
X036828Y011645D01*
X036828Y011743D02*
X036648Y011743D01*
X036648Y011842D02*
X036828Y011842D01*
X036828Y011941D02*
X036648Y011941D01*
X036648Y012039D02*
X036828Y012039D01*
X036828Y012138D02*
X036648Y012138D01*
X036648Y012236D02*
X036828Y012236D01*
X036828Y012335D02*
X036648Y012335D01*
X036648Y012433D02*
X036828Y012433D01*
X036828Y012532D02*
X036648Y012532D01*
X036617Y012630D02*
X036828Y012630D01*
X036828Y017065D02*
X033958Y017065D01*
X034057Y017163D02*
X036828Y017163D01*
X036828Y017262D02*
X034155Y017262D01*
X034254Y017360D02*
X036828Y017360D01*
X036828Y017459D02*
X034297Y017459D01*
X034298Y017558D02*
X036828Y017558D01*
X036828Y017656D02*
X034298Y017656D01*
X034298Y017755D02*
X036828Y017755D01*
X036828Y017853D02*
X034298Y017853D01*
X034298Y017952D02*
X036828Y017952D01*
X036828Y018050D02*
X034298Y018050D01*
X034298Y018149D02*
X036828Y018149D01*
X036828Y018247D02*
X034298Y018247D01*
X034298Y018346D02*
X036828Y018346D01*
X036828Y018444D02*
X034298Y018444D01*
X034298Y018543D02*
X036828Y018543D01*
X036828Y018641D02*
X034298Y018641D01*
X034298Y018740D02*
X036828Y018740D01*
X036828Y018839D02*
X034298Y018839D01*
X034298Y018937D02*
X036828Y018937D01*
X034038Y017512D02*
X033738Y017212D01*
X033631Y017472D02*
X033568Y017472D01*
X033568Y017505D01*
X033568Y017552D01*
X033590Y017552D01*
X033686Y017592D01*
X033778Y017685D01*
X033778Y017620D01*
X033631Y017472D01*
X033602Y017558D02*
X033716Y017558D01*
X033750Y017656D02*
X033778Y017656D01*
X033538Y017812D02*
X033138Y017812D01*
X034038Y017512D02*
X034038Y021812D01*
X033338Y022512D01*
X033338Y023112D02*
X033438Y023112D01*
X033838Y023512D01*
X033838Y024112D01*
X033638Y024312D01*
X033338Y023812D02*
X032238Y023812D01*
X032038Y023612D01*
X032038Y019242D01*
X026318Y015291D02*
X026098Y015291D01*
X026098Y015390D02*
X026176Y015390D01*
X021538Y011212D02*
X021038Y011712D01*
X020138Y011712D01*
X023138Y010112D02*
X023138Y009519D01*
X024549Y008108D01*
X023528Y010462D02*
X023525Y010462D01*
X019828Y007013D02*
X019598Y007013D01*
X019598Y006915D02*
X019828Y006915D01*
X019828Y006816D02*
X019598Y006816D01*
X019598Y006718D02*
X019828Y006718D01*
X019828Y006619D02*
X019598Y006619D01*
X019598Y006521D02*
X019828Y006521D01*
X019828Y006422D02*
X019598Y006422D01*
X019598Y006324D02*
X019828Y006324D01*
X019828Y006225D02*
X019598Y006225D01*
X019598Y006126D02*
X019828Y006126D01*
X019828Y006028D02*
X019585Y006028D01*
X019523Y005929D02*
X019828Y005929D01*
X019828Y005831D02*
X019424Y005831D01*
X019326Y005732D02*
X019828Y005732D01*
X019828Y005634D02*
X019227Y005634D01*
X019129Y005535D02*
X019828Y005535D01*
X019828Y005437D02*
X019030Y005437D01*
X018932Y005338D02*
X019828Y005338D01*
X019828Y005240D02*
X018833Y005240D01*
X018735Y005141D02*
X019828Y005141D01*
X019828Y005043D02*
X018636Y005043D01*
X018537Y004944D02*
X019828Y004944D01*
X023338Y004912D02*
X023338Y004612D01*
X023780Y004171D01*
X024549Y004171D01*
X019747Y001889D02*
X019648Y001889D01*
X019648Y001791D02*
X019649Y001791D01*
X012993Y002776D02*
X012972Y002776D01*
X010808Y002875D02*
X002788Y002875D01*
X002788Y002973D02*
X010710Y002973D01*
X010611Y003072D02*
X002788Y003072D01*
X002788Y003170D02*
X010513Y003170D01*
X010414Y003269D02*
X002788Y003269D01*
X002788Y003367D02*
X010316Y003367D01*
X010217Y003466D02*
X002788Y003466D01*
X002788Y003564D02*
X010119Y003564D01*
X010020Y003663D02*
X002788Y003663D01*
X002788Y003761D02*
X009922Y003761D01*
X009823Y003860D02*
X002788Y003860D01*
X002788Y003959D02*
X009724Y003959D01*
X009626Y004057D02*
X002788Y004057D01*
X002788Y004156D02*
X009527Y004156D01*
X009429Y004254D02*
X002788Y004254D01*
X002788Y004353D02*
X009330Y004353D01*
X009232Y004451D02*
X002788Y004451D01*
X002788Y004550D02*
X009133Y004550D01*
X009035Y004648D02*
X002788Y004648D01*
X002788Y002776D02*
X005905Y002776D01*
X005828Y002677D02*
X003913Y002677D01*
X004164Y002579D02*
X005828Y002579D01*
X005828Y002480D02*
X004326Y002480D01*
X004424Y002382D02*
X005828Y002382D01*
X005828Y002283D02*
X004521Y002283D01*
X004578Y002185D02*
X005828Y002185D01*
X005828Y002086D02*
X004635Y002086D01*
X004676Y001988D02*
X005828Y001988D01*
X005828Y001889D02*
X004703Y001889D01*
X004729Y001791D02*
X005828Y001791D01*
X005828Y001692D02*
X004738Y001692D01*
X004738Y001594D02*
X005828Y001594D01*
X005828Y001495D02*
X004738Y001495D01*
X004719Y001396D02*
X005828Y001396D01*
X005828Y001298D02*
X004693Y001298D01*
X004666Y001199D02*
X005828Y001199D01*
X005828Y001101D02*
X004613Y001101D01*
X004556Y001002D02*
X005828Y001002D01*
X005828Y000904D02*
X004485Y000904D01*
X004387Y000805D02*
X005828Y000805D01*
X003363Y002677D02*
X002788Y002677D01*
X002788Y002579D02*
X003112Y002579D01*
X002951Y002480D02*
X002788Y002480D01*
X002788Y002382D02*
X002852Y002382D01*
X009172Y002776D02*
X009705Y002776D01*
X009628Y002677D02*
X009248Y002677D01*
X009248Y002579D02*
X009628Y002579D01*
X009628Y002480D02*
X009248Y002480D01*
X009248Y002382D02*
X009628Y002382D01*
X009628Y002283D02*
X009248Y002283D01*
X009248Y002185D02*
X009628Y002185D01*
X009628Y002086D02*
X009248Y002086D01*
X009248Y001988D02*
X009628Y001988D01*
X009628Y001889D02*
X009248Y001889D01*
X009248Y001791D02*
X009628Y001791D01*
X009628Y001692D02*
X009248Y001692D01*
X009248Y001594D02*
X009628Y001594D01*
X009628Y001495D02*
X009248Y001495D01*
X009248Y001396D02*
X009628Y001396D01*
X009628Y001298D02*
X009248Y001298D01*
X009248Y001199D02*
X009628Y001199D01*
X009628Y001101D02*
X009248Y001101D01*
X009248Y001002D02*
X009628Y001002D01*
X010277Y005141D02*
X011024Y005141D01*
X010874Y005437D02*
X009998Y005437D01*
X009478Y006028D02*
X008998Y006028D01*
X008998Y006126D02*
X009478Y006126D01*
X009478Y006225D02*
X008998Y006225D01*
X008998Y006324D02*
X009478Y006324D01*
X009478Y006422D02*
X008998Y006422D01*
X008998Y006521D02*
X009478Y006521D01*
X009478Y006619D02*
X008998Y006619D01*
X008998Y006718D02*
X009478Y006718D01*
X009478Y006816D02*
X008998Y006816D01*
X008998Y006915D02*
X009478Y006915D01*
X009478Y007013D02*
X008998Y007013D01*
X008998Y007112D02*
X009478Y007112D01*
X009478Y007210D02*
X008998Y007210D01*
X008998Y007309D02*
X009478Y007309D01*
X009478Y007408D02*
X008998Y007408D01*
X008998Y007506D02*
X009478Y007506D01*
X009478Y007605D02*
X008998Y007605D01*
X008998Y007703D02*
X009478Y007703D01*
X009412Y007802D02*
X008998Y007802D01*
X008998Y007900D02*
X009313Y007900D01*
X009308Y007999D02*
X008998Y007999D01*
X008998Y008097D02*
X009308Y008097D01*
X012922Y015587D02*
X013327Y015587D01*
X013229Y015685D02*
X013020Y015685D01*
X013119Y015784D02*
X013208Y015784D01*
X013638Y016012D02*
X020338Y022712D01*
X022248Y023090D02*
X022248Y025652D01*
X024589Y025652D01*
X024834Y025407D01*
X024919Y025372D01*
X024690Y025372D01*
X024587Y025372D01*
X024491Y025333D01*
X022248Y023090D01*
X022248Y023174D02*
X022333Y023174D01*
X022248Y023273D02*
X022431Y023273D01*
X022530Y023372D02*
X022248Y023372D01*
X022248Y023470D02*
X022628Y023470D01*
X022727Y023569D02*
X022248Y023569D01*
X022248Y023667D02*
X022825Y023667D01*
X022924Y023766D02*
X022248Y023766D01*
X022248Y023864D02*
X023022Y023864D01*
X023121Y023963D02*
X022248Y023963D01*
X022248Y024061D02*
X023220Y024061D01*
X023318Y024160D02*
X022248Y024160D01*
X022248Y024258D02*
X023417Y024258D01*
X023515Y024357D02*
X022248Y024357D01*
X022248Y024456D02*
X023614Y024456D01*
X023712Y024554D02*
X022248Y024554D01*
X022248Y024653D02*
X023811Y024653D01*
X023909Y024751D02*
X022248Y024751D01*
X022248Y024850D02*
X024008Y024850D01*
X024106Y024948D02*
X022248Y024948D01*
X022248Y025047D02*
X024205Y025047D01*
X024304Y025145D02*
X022248Y025145D01*
X022248Y025244D02*
X024402Y025244D01*
X024514Y025342D02*
X022248Y025342D01*
X022248Y025441D02*
X024801Y025441D01*
X024702Y025540D02*
X022248Y025540D01*
X022248Y025638D02*
X024604Y025638D01*
X025129Y026131D02*
X029623Y026131D01*
X029651Y026102D02*
X029528Y026225D01*
X029528Y028599D01*
X029651Y028722D01*
X035325Y028722D01*
X035448Y028599D01*
X035448Y026225D01*
X035325Y026102D01*
X029651Y026102D01*
X029528Y026229D02*
X027895Y026229D01*
X028103Y026328D02*
X029528Y026328D01*
X029528Y026426D02*
X028242Y026426D01*
X028347Y026525D02*
X029528Y026525D01*
X029528Y026624D02*
X028430Y026624D01*
X028495Y026722D02*
X029528Y026722D01*
X029528Y026821D02*
X028548Y026821D01*
X028589Y026919D02*
X029528Y026919D01*
X029528Y027018D02*
X028621Y027018D01*
X028643Y027116D02*
X029528Y027116D01*
X029528Y027215D02*
X028654Y027215D01*
X028654Y027412D02*
X029528Y027412D01*
X029528Y027510D02*
X028643Y027510D01*
X028620Y027609D02*
X029528Y027609D01*
X029528Y027707D02*
X028588Y027707D01*
X028547Y027806D02*
X029528Y027806D01*
X029528Y027905D02*
X028494Y027905D01*
X028428Y028003D02*
X029528Y028003D01*
X029528Y028102D02*
X028345Y028102D01*
X028239Y028200D02*
X029528Y028200D01*
X029528Y028299D02*
X028100Y028299D01*
X027890Y028397D02*
X029528Y028397D01*
X029528Y028496D02*
X025218Y028496D01*
X025218Y028594D02*
X029528Y028594D01*
X029622Y028693D02*
X025218Y028693D01*
X025192Y028791D02*
X041258Y028791D01*
X041258Y028693D02*
X035355Y028693D01*
X035448Y028594D02*
X041258Y028594D01*
X041258Y028496D02*
X035448Y028496D01*
X035448Y028397D02*
X036987Y028397D01*
X036776Y028299D02*
X035448Y028299D01*
X035448Y028200D02*
X036637Y028200D01*
X036531Y028102D02*
X035448Y028102D01*
X035448Y028003D02*
X036448Y028003D01*
X036382Y027905D02*
X035448Y027905D01*
X035448Y027806D02*
X036330Y027806D01*
X036288Y027707D02*
X035448Y027707D01*
X035448Y027609D02*
X036256Y027609D01*
X036234Y027510D02*
X035448Y027510D01*
X035448Y027412D02*
X036222Y027412D01*
X036222Y027215D02*
X035448Y027215D01*
X035448Y027313D02*
X037318Y027313D01*
X037318Y027412D02*
X037418Y027412D01*
X037418Y027510D02*
X037318Y027510D01*
X037318Y027609D02*
X037418Y027609D01*
X037418Y027707D02*
X037318Y027707D01*
X037318Y027806D02*
X037418Y027806D01*
X037418Y027905D02*
X037318Y027905D01*
X037318Y028003D02*
X037418Y028003D01*
X037418Y028102D02*
X037318Y028102D01*
X037318Y028200D02*
X037418Y028200D01*
X037418Y028299D02*
X037318Y028299D01*
X037318Y028397D02*
X037418Y028397D01*
X037750Y028397D02*
X041258Y028397D01*
X041258Y028299D02*
X037960Y028299D01*
X038099Y028200D02*
X041258Y028200D01*
X041258Y028102D02*
X038205Y028102D01*
X038288Y028003D02*
X041258Y028003D01*
X041258Y027905D02*
X038354Y027905D01*
X038407Y027806D02*
X041258Y027806D01*
X041258Y027707D02*
X038448Y027707D01*
X038480Y027609D02*
X041258Y027609D01*
X041258Y027510D02*
X038503Y027510D01*
X038514Y027412D02*
X041258Y027412D01*
X041258Y027313D02*
X037418Y027313D01*
X038514Y027215D02*
X041258Y027215D01*
X041258Y027116D02*
X038503Y027116D01*
X038481Y027018D02*
X041258Y027018D01*
X041258Y026919D02*
X038449Y026919D01*
X038408Y026821D02*
X041258Y026821D01*
X041258Y026722D02*
X038355Y026722D01*
X038290Y026624D02*
X041258Y026624D01*
X041258Y026525D02*
X038207Y026525D01*
X038102Y026426D02*
X041258Y026426D01*
X041258Y026328D02*
X039220Y026328D01*
X039248Y026229D02*
X041258Y026229D01*
X041258Y026131D02*
X039248Y026131D01*
X039248Y026032D02*
X041258Y026032D01*
X041258Y025934D02*
X039248Y025934D01*
X039248Y025835D02*
X041258Y025835D01*
X041258Y025737D02*
X039248Y025737D01*
X039248Y025638D02*
X041258Y025638D01*
X041258Y025540D02*
X039248Y025540D01*
X039248Y025441D02*
X041258Y025441D01*
X041258Y025342D02*
X039248Y025342D01*
X039248Y025244D02*
X041258Y025244D01*
X041258Y025145D02*
X039248Y025145D01*
X039248Y025047D02*
X041258Y025047D01*
X041258Y024948D02*
X039248Y024948D01*
X039248Y024850D02*
X041258Y024850D01*
X041258Y024751D02*
X039248Y024751D01*
X039248Y024653D02*
X041258Y024653D01*
X041258Y024554D02*
X039248Y024554D01*
X039248Y024456D02*
X041258Y024456D01*
X041258Y024357D02*
X039248Y024357D01*
X039248Y024258D02*
X041258Y024258D01*
X041258Y024160D02*
X039248Y024160D01*
X039248Y024061D02*
X041258Y024061D01*
X041258Y023963D02*
X039248Y023963D01*
X039248Y023864D02*
X041258Y023864D01*
X041258Y023766D02*
X039248Y023766D01*
X039248Y023667D02*
X041258Y023667D01*
X041258Y023569D02*
X039248Y023569D01*
X039248Y023470D02*
X041258Y023470D01*
X041258Y023372D02*
X039248Y023372D01*
X039248Y023273D02*
X041258Y023273D01*
X041258Y023174D02*
X039248Y023174D01*
X039248Y023076D02*
X041258Y023076D01*
X041258Y022977D02*
X039248Y022977D01*
X039248Y022879D02*
X041258Y022879D01*
X041258Y022780D02*
X039248Y022780D01*
X039248Y022682D02*
X041258Y022682D01*
X041258Y022583D02*
X039248Y022583D01*
X039248Y022485D02*
X041258Y022485D01*
X041258Y022386D02*
X039248Y022386D01*
X039248Y022288D02*
X041258Y022288D01*
X036828Y026131D02*
X035354Y026131D01*
X035448Y026229D02*
X036828Y026229D01*
X036774Y026328D02*
X035448Y026328D01*
X035448Y026426D02*
X036635Y026426D01*
X036529Y026525D02*
X035448Y026525D01*
X035448Y026624D02*
X036447Y026624D01*
X036381Y026722D02*
X035448Y026722D01*
X035448Y026821D02*
X036329Y026821D01*
X036287Y026919D02*
X035448Y026919D01*
X035448Y027018D02*
X036256Y027018D01*
X036233Y027116D02*
X035448Y027116D01*
X036207Y026032D02*
X036261Y026032D01*
X035899Y025342D02*
X032368Y025342D01*
X032368Y025244D02*
X035998Y025244D01*
X040037Y029481D02*
X025142Y029481D01*
X025158Y029580D02*
X039854Y029580D01*
X039717Y029678D02*
X025154Y029678D01*
X025132Y029777D02*
X039618Y029777D01*
X039536Y029875D02*
X025088Y029875D01*
X025012Y029974D02*
X039479Y029974D01*
X039413Y030088D02*
X039338Y030368D01*
X039364Y030270D02*
X022885Y030270D01*
X022958Y030171D02*
X039391Y030171D01*
X040840Y029481D02*
X041258Y029481D01*
X041258Y029383D02*
X025105Y029383D01*
X025042Y029284D02*
X041258Y029284D01*
X041258Y029186D02*
X024935Y029186D01*
X024984Y029087D02*
X041258Y029087D01*
X041258Y028989D02*
X025082Y028989D01*
X025151Y028890D02*
X041258Y028890D01*
X041258Y029580D02*
X041023Y029580D01*
X041160Y029678D02*
X041258Y029678D01*
X029528Y027313D02*
X027558Y027313D01*
X027558Y027215D02*
X027458Y027215D01*
X027458Y027313D02*
X013598Y027313D01*
X013598Y028200D02*
X013761Y028200D01*
X013648Y028299D02*
X013598Y028299D01*
X014516Y028200D02*
X015761Y028200D01*
X015736Y028211D02*
X015997Y028102D01*
X016279Y028102D01*
X016540Y028211D01*
X016740Y028410D01*
X016848Y028671D01*
X016848Y029954D01*
X016740Y030215D01*
X016540Y030414D01*
X016279Y030522D01*
X015997Y030522D01*
X015736Y030414D01*
X015536Y030215D01*
X015428Y029954D01*
X015428Y028671D01*
X015536Y028410D01*
X015736Y028211D01*
X015648Y028299D02*
X014629Y028299D01*
X014727Y028397D02*
X015549Y028397D01*
X015501Y028496D02*
X014776Y028496D01*
X014816Y028594D02*
X015460Y028594D01*
X015428Y028693D02*
X014848Y028693D01*
X014848Y028791D02*
X015428Y028791D01*
X015428Y028890D02*
X014848Y028890D01*
X014848Y028989D02*
X015428Y028989D01*
X015428Y029087D02*
X014848Y029087D01*
X014848Y029186D02*
X015428Y029186D01*
X015428Y029284D02*
X014848Y029284D01*
X014848Y029383D02*
X015428Y029383D01*
X015428Y029481D02*
X014848Y029481D01*
X014848Y029580D02*
X015428Y029580D01*
X015428Y029678D02*
X014848Y029678D01*
X014848Y029777D02*
X015428Y029777D01*
X015428Y029875D02*
X014848Y029875D01*
X014840Y029974D02*
X015437Y029974D01*
X015478Y030073D02*
X014799Y030073D01*
X014758Y030171D02*
X015518Y030171D01*
X015591Y030270D02*
X014685Y030270D01*
X014587Y030368D02*
X015690Y030368D01*
X015863Y030467D02*
X014414Y030467D01*
X016414Y030467D02*
X020063Y030467D01*
X019936Y030414D02*
X019736Y030215D01*
X019628Y029954D01*
X019628Y028671D01*
X019736Y028410D01*
X019936Y028211D01*
X020197Y028102D01*
X020479Y028102D01*
X020740Y028211D01*
X020940Y028410D01*
X021048Y028671D01*
X021048Y029954D01*
X020940Y030215D01*
X020740Y030414D01*
X020479Y030522D01*
X020197Y030522D01*
X019936Y030414D01*
X019890Y030368D02*
X016587Y030368D01*
X016685Y030270D02*
X019791Y030270D01*
X019718Y030171D02*
X016758Y030171D01*
X016799Y030073D02*
X019678Y030073D01*
X019637Y029974D02*
X016840Y029974D01*
X016848Y029875D02*
X019628Y029875D01*
X019628Y029777D02*
X016848Y029777D01*
X016848Y029678D02*
X019628Y029678D01*
X019628Y029580D02*
X016848Y029580D01*
X016848Y029481D02*
X019628Y029481D01*
X019628Y029383D02*
X016848Y029383D01*
X016848Y029284D02*
X019628Y029284D01*
X019628Y029186D02*
X016848Y029186D01*
X016848Y029087D02*
X019628Y029087D01*
X019628Y028989D02*
X016848Y028989D01*
X016848Y028890D02*
X019628Y028890D01*
X019628Y028791D02*
X016848Y028791D01*
X016848Y028693D02*
X019628Y028693D01*
X019660Y028594D02*
X016816Y028594D01*
X016776Y028496D02*
X019701Y028496D01*
X019749Y028397D02*
X016727Y028397D01*
X016629Y028299D02*
X019848Y028299D01*
X019961Y028200D02*
X016516Y028200D01*
X020716Y028200D02*
X021961Y028200D01*
X021848Y028299D02*
X020829Y028299D01*
X020927Y028397D02*
X021749Y028397D01*
X021701Y028496D02*
X020976Y028496D01*
X021016Y028594D02*
X021660Y028594D01*
X021628Y028693D02*
X021048Y028693D01*
X021048Y028791D02*
X021628Y028791D01*
X021628Y028890D02*
X021048Y028890D01*
X021048Y028989D02*
X021628Y028989D01*
X021628Y029087D02*
X021048Y029087D01*
X021048Y029186D02*
X021628Y029186D01*
X021628Y029284D02*
X021048Y029284D01*
X021048Y029383D02*
X021628Y029383D01*
X021628Y029481D02*
X021048Y029481D01*
X021048Y029580D02*
X021628Y029580D01*
X021628Y029678D02*
X021048Y029678D01*
X021048Y029777D02*
X021628Y029777D01*
X021628Y029875D02*
X021048Y029875D01*
X021040Y029974D02*
X021637Y029974D01*
X021678Y030073D02*
X020999Y030073D01*
X020958Y030171D02*
X021718Y030171D01*
X021791Y030270D02*
X020885Y030270D01*
X020787Y030368D02*
X021890Y030368D01*
X022063Y030467D02*
X020614Y030467D01*
X024921Y028102D02*
X026671Y028102D01*
X026777Y028200D02*
X025046Y028200D01*
X025136Y028299D02*
X026916Y028299D01*
X027127Y028397D02*
X025177Y028397D01*
X027458Y028397D02*
X027558Y028397D01*
X027558Y028299D02*
X027458Y028299D01*
X027458Y028200D02*
X027558Y028200D01*
X027558Y028102D02*
X027458Y028102D01*
X027458Y028003D02*
X027558Y028003D01*
X027558Y027905D02*
X027458Y027905D01*
X027458Y027806D02*
X027558Y027806D01*
X027558Y027707D02*
X027458Y027707D01*
X027458Y027609D02*
X027558Y027609D01*
X027558Y027510D02*
X027458Y027510D01*
X027458Y027412D02*
X027558Y027412D01*
X027558Y027116D02*
X027458Y027116D01*
X027458Y027018D02*
X027558Y027018D01*
X027558Y026919D02*
X027458Y026919D01*
X027458Y026821D02*
X027558Y026821D01*
X027558Y026722D02*
X027458Y026722D01*
X027458Y026624D02*
X027558Y026624D01*
X027558Y026525D02*
X027458Y026525D01*
X027458Y026426D02*
X027558Y026426D01*
X027558Y026328D02*
X027458Y026328D01*
X027458Y026229D02*
X027558Y026229D01*
X027122Y026229D02*
X025030Y026229D01*
X024917Y026328D02*
X026914Y026328D01*
X015571Y021105D02*
X014308Y021105D01*
X013981Y021105D02*
X013598Y021105D01*
X013598Y021204D02*
X013816Y021204D01*
X013762Y021007D02*
X015015Y021007D01*
X014962Y020908D02*
X013814Y020908D01*
X013814Y020809D02*
X014962Y020809D01*
X014962Y020711D02*
X013814Y020711D01*
X013814Y020612D02*
X014962Y020612D01*
X014962Y020514D02*
X013814Y020514D01*
X013814Y020415D02*
X014962Y020415D01*
X014962Y020317D02*
X013814Y020317D01*
X013814Y020218D02*
X014962Y020218D01*
X014962Y020120D02*
X013814Y020120D01*
X013764Y020021D02*
X015012Y020021D01*
X012237Y020021D02*
X012137Y020021D01*
X012137Y020120D02*
X012237Y020120D01*
X012237Y020218D02*
X012137Y020218D01*
X012137Y020317D02*
X012237Y020317D01*
X012237Y020415D02*
X012137Y020415D01*
X036648Y002283D02*
X036828Y002283D01*
X036828Y002185D02*
X036648Y002185D01*
X036648Y002086D02*
X036828Y002086D01*
X036828Y001988D02*
X036648Y001988D01*
X036648Y001889D02*
X036828Y001889D01*
X036828Y001791D02*
X036648Y001791D01*
X036648Y001692D02*
X036828Y001692D01*
X036828Y001594D02*
X036648Y001594D01*
X036648Y001495D02*
X036828Y001495D01*
X036828Y001396D02*
X036648Y001396D01*
X036648Y001298D02*
X036828Y001298D01*
X036828Y001199D02*
X036648Y001199D01*
X036648Y001101D02*
X036828Y001101D01*
X036828Y001002D02*
X036648Y001002D01*
X036648Y000904D02*
X036828Y000904D01*
X036828Y000805D02*
X036648Y000805D01*
D39*
X012139Y022762D02*
X011938Y022561D01*
X009838Y029564D02*
X009838Y030517D01*
M02*
