G75*
G70*
%OFA0B0*%
%FSLAX24Y24*%
%IPPOS*%
%LPD*%
%AMOC8*
5,1,8,0,0,1.08239X$1,22.5*
%
%ADD10C,0.0000*%
%ADD11C,0.0030*%
%ADD12C,0.0060*%
%ADD13C,0.0100*%
%ADD14C,0.0040*%
%ADD15C,0.0020*%
%ADD16C,0.0050*%
%ADD17C,0.0080*%
%ADD18R,0.0200X0.0150*%
D10*
X026701Y007042D02*
X001631Y033342D01*
X001631Y056742D01*
X026701Y083042D01*
X038791Y083042D01*
X038791Y007042D01*
X026701Y007042D01*
X036421Y011042D02*
X036423Y011097D01*
X036429Y011151D01*
X036439Y011205D01*
X036452Y011259D01*
X036470Y011311D01*
X036491Y011361D01*
X036516Y011410D01*
X036544Y011457D01*
X036576Y011502D01*
X036611Y011544D01*
X036648Y011584D01*
X036689Y011621D01*
X036732Y011655D01*
X036777Y011686D01*
X036825Y011713D01*
X036874Y011737D01*
X036925Y011758D01*
X036978Y011774D01*
X037031Y011787D01*
X037085Y011796D01*
X037140Y011801D01*
X037195Y011802D01*
X037250Y011799D01*
X037304Y011792D01*
X037358Y011781D01*
X037411Y011766D01*
X037462Y011748D01*
X037513Y011726D01*
X037561Y011700D01*
X037608Y011671D01*
X037652Y011639D01*
X037694Y011603D01*
X037733Y011565D01*
X037769Y011523D01*
X037802Y011480D01*
X037832Y011434D01*
X037859Y011386D01*
X037882Y011336D01*
X037901Y011285D01*
X037917Y011232D01*
X037929Y011178D01*
X037937Y011124D01*
X037941Y011069D01*
X037941Y011015D01*
X037937Y010960D01*
X037929Y010906D01*
X037917Y010852D01*
X037901Y010799D01*
X037882Y010748D01*
X037859Y010698D01*
X037832Y010650D01*
X037802Y010604D01*
X037769Y010561D01*
X037733Y010519D01*
X037694Y010481D01*
X037652Y010445D01*
X037608Y010413D01*
X037561Y010384D01*
X037513Y010358D01*
X037462Y010336D01*
X037411Y010318D01*
X037358Y010303D01*
X037304Y010292D01*
X037250Y010285D01*
X037195Y010282D01*
X037140Y010283D01*
X037085Y010288D01*
X037031Y010297D01*
X036978Y010310D01*
X036925Y010326D01*
X036874Y010347D01*
X036825Y010371D01*
X036777Y010398D01*
X036732Y010429D01*
X036689Y010463D01*
X036648Y010500D01*
X036611Y010540D01*
X036576Y010582D01*
X036544Y010627D01*
X036516Y010674D01*
X036491Y010723D01*
X036470Y010773D01*
X036452Y010825D01*
X036439Y010879D01*
X036429Y010933D01*
X036423Y010987D01*
X036421Y011042D01*
X031921Y030042D02*
X031923Y030097D01*
X031929Y030151D01*
X031939Y030205D01*
X031952Y030259D01*
X031970Y030311D01*
X031991Y030361D01*
X032016Y030410D01*
X032044Y030457D01*
X032076Y030502D01*
X032111Y030544D01*
X032148Y030584D01*
X032189Y030621D01*
X032232Y030655D01*
X032277Y030686D01*
X032325Y030713D01*
X032374Y030737D01*
X032425Y030758D01*
X032478Y030774D01*
X032531Y030787D01*
X032585Y030796D01*
X032640Y030801D01*
X032695Y030802D01*
X032750Y030799D01*
X032804Y030792D01*
X032858Y030781D01*
X032911Y030766D01*
X032962Y030748D01*
X033013Y030726D01*
X033061Y030700D01*
X033108Y030671D01*
X033152Y030639D01*
X033194Y030603D01*
X033233Y030565D01*
X033269Y030523D01*
X033302Y030480D01*
X033332Y030434D01*
X033359Y030386D01*
X033382Y030336D01*
X033401Y030285D01*
X033417Y030232D01*
X033429Y030178D01*
X033437Y030124D01*
X033441Y030069D01*
X033441Y030015D01*
X033437Y029960D01*
X033429Y029906D01*
X033417Y029852D01*
X033401Y029799D01*
X033382Y029748D01*
X033359Y029698D01*
X033332Y029650D01*
X033302Y029604D01*
X033269Y029561D01*
X033233Y029519D01*
X033194Y029481D01*
X033152Y029445D01*
X033108Y029413D01*
X033061Y029384D01*
X033013Y029358D01*
X032962Y029336D01*
X032911Y029318D01*
X032858Y029303D01*
X032804Y029292D01*
X032750Y029285D01*
X032695Y029282D01*
X032640Y029283D01*
X032585Y029288D01*
X032531Y029297D01*
X032478Y029310D01*
X032425Y029326D01*
X032374Y029347D01*
X032325Y029371D01*
X032277Y029398D01*
X032232Y029429D01*
X032189Y029463D01*
X032148Y029500D01*
X032111Y029540D01*
X032076Y029582D01*
X032044Y029627D01*
X032016Y029674D01*
X031991Y029723D01*
X031970Y029773D01*
X031952Y029825D01*
X031939Y029879D01*
X031929Y029933D01*
X031923Y029987D01*
X031921Y030042D01*
X019079Y035735D02*
X019081Y035783D01*
X019087Y035831D01*
X019097Y035878D01*
X019110Y035924D01*
X019128Y035969D01*
X019148Y036013D01*
X019173Y036055D01*
X019201Y036094D01*
X019231Y036131D01*
X019265Y036165D01*
X019302Y036197D01*
X019340Y036226D01*
X019381Y036251D01*
X019424Y036273D01*
X019469Y036291D01*
X019515Y036305D01*
X019562Y036316D01*
X019610Y036323D01*
X019658Y036326D01*
X019706Y036325D01*
X019754Y036320D01*
X019802Y036311D01*
X019848Y036299D01*
X019893Y036282D01*
X019937Y036262D01*
X019979Y036239D01*
X020019Y036212D01*
X020057Y036182D01*
X020092Y036149D01*
X020124Y036113D01*
X020154Y036075D01*
X020180Y036034D01*
X020202Y035991D01*
X020222Y035947D01*
X020237Y035902D01*
X020249Y035855D01*
X020257Y035807D01*
X020261Y035759D01*
X020261Y035711D01*
X020257Y035663D01*
X020249Y035615D01*
X020237Y035568D01*
X020222Y035523D01*
X020202Y035479D01*
X020180Y035436D01*
X020154Y035395D01*
X020124Y035357D01*
X020092Y035321D01*
X020057Y035288D01*
X020019Y035258D01*
X019979Y035231D01*
X019937Y035208D01*
X019893Y035188D01*
X019848Y035171D01*
X019802Y035159D01*
X019754Y035150D01*
X019706Y035145D01*
X019658Y035144D01*
X019610Y035147D01*
X019562Y035154D01*
X019515Y035165D01*
X019469Y035179D01*
X019424Y035197D01*
X019381Y035219D01*
X019340Y035244D01*
X019302Y035273D01*
X019265Y035305D01*
X019231Y035339D01*
X019201Y035376D01*
X019173Y035415D01*
X019148Y035457D01*
X019128Y035501D01*
X019110Y035546D01*
X019097Y035592D01*
X019087Y035639D01*
X019081Y035687D01*
X019079Y035735D01*
X015381Y048042D02*
X015383Y048076D01*
X015389Y048110D01*
X015398Y048143D01*
X015412Y048174D01*
X015429Y048204D01*
X015449Y048232D01*
X015472Y048257D01*
X015498Y048280D01*
X015526Y048299D01*
X015556Y048315D01*
X015588Y048327D01*
X015621Y048336D01*
X015655Y048341D01*
X015690Y048342D01*
X015724Y048339D01*
X015757Y048332D01*
X015790Y048322D01*
X015821Y048307D01*
X015850Y048290D01*
X015877Y048269D01*
X015902Y048245D01*
X015924Y048218D01*
X015942Y048190D01*
X015957Y048159D01*
X015969Y048127D01*
X015977Y048093D01*
X015981Y048059D01*
X015981Y048025D01*
X015977Y047991D01*
X015969Y047957D01*
X015957Y047925D01*
X015942Y047894D01*
X015924Y047866D01*
X015902Y047839D01*
X015877Y047815D01*
X015850Y047794D01*
X015821Y047777D01*
X015790Y047762D01*
X015757Y047752D01*
X015724Y047745D01*
X015690Y047742D01*
X015655Y047743D01*
X015621Y047748D01*
X015588Y047757D01*
X015556Y047769D01*
X015526Y047785D01*
X015498Y047804D01*
X015472Y047827D01*
X015449Y047852D01*
X015429Y047880D01*
X015412Y047910D01*
X015398Y047941D01*
X015389Y047974D01*
X015383Y048008D01*
X015381Y048042D01*
X015381Y049807D02*
X015383Y049841D01*
X015389Y049875D01*
X015398Y049908D01*
X015412Y049939D01*
X015429Y049969D01*
X015449Y049997D01*
X015472Y050022D01*
X015498Y050045D01*
X015526Y050064D01*
X015556Y050080D01*
X015588Y050092D01*
X015621Y050101D01*
X015655Y050106D01*
X015690Y050107D01*
X015724Y050104D01*
X015757Y050097D01*
X015790Y050087D01*
X015821Y050072D01*
X015850Y050055D01*
X015877Y050034D01*
X015902Y050010D01*
X015924Y049983D01*
X015942Y049955D01*
X015957Y049924D01*
X015969Y049892D01*
X015977Y049858D01*
X015981Y049824D01*
X015981Y049790D01*
X015977Y049756D01*
X015969Y049722D01*
X015957Y049690D01*
X015942Y049659D01*
X015924Y049631D01*
X015902Y049604D01*
X015877Y049580D01*
X015850Y049559D01*
X015821Y049542D01*
X015790Y049527D01*
X015757Y049517D01*
X015724Y049510D01*
X015690Y049507D01*
X015655Y049508D01*
X015621Y049513D01*
X015588Y049522D01*
X015556Y049534D01*
X015526Y049550D01*
X015498Y049569D01*
X015472Y049592D01*
X015449Y049617D01*
X015429Y049645D01*
X015412Y049675D01*
X015398Y049706D01*
X015389Y049739D01*
X015383Y049773D01*
X015381Y049807D01*
X015381Y051572D02*
X015383Y051606D01*
X015389Y051640D01*
X015398Y051673D01*
X015412Y051704D01*
X015429Y051734D01*
X015449Y051762D01*
X015472Y051787D01*
X015498Y051810D01*
X015526Y051829D01*
X015556Y051845D01*
X015588Y051857D01*
X015621Y051866D01*
X015655Y051871D01*
X015690Y051872D01*
X015724Y051869D01*
X015757Y051862D01*
X015790Y051852D01*
X015821Y051837D01*
X015850Y051820D01*
X015877Y051799D01*
X015902Y051775D01*
X015924Y051748D01*
X015942Y051720D01*
X015957Y051689D01*
X015969Y051657D01*
X015977Y051623D01*
X015981Y051589D01*
X015981Y051555D01*
X015977Y051521D01*
X015969Y051487D01*
X015957Y051455D01*
X015942Y051424D01*
X015924Y051396D01*
X015902Y051369D01*
X015877Y051345D01*
X015850Y051324D01*
X015821Y051307D01*
X015790Y051292D01*
X015757Y051282D01*
X015724Y051275D01*
X015690Y051272D01*
X015655Y051273D01*
X015621Y051278D01*
X015588Y051287D01*
X015556Y051299D01*
X015526Y051315D01*
X015498Y051334D01*
X015472Y051357D01*
X015449Y051382D01*
X015429Y051410D01*
X015412Y051440D01*
X015398Y051471D01*
X015389Y051504D01*
X015383Y051538D01*
X015381Y051572D01*
X011871Y051042D02*
X011873Y051097D01*
X011879Y051151D01*
X011889Y051205D01*
X011902Y051259D01*
X011920Y051311D01*
X011941Y051361D01*
X011966Y051410D01*
X011994Y051457D01*
X012026Y051502D01*
X012061Y051544D01*
X012098Y051584D01*
X012139Y051621D01*
X012182Y051655D01*
X012227Y051686D01*
X012275Y051713D01*
X012324Y051737D01*
X012375Y051758D01*
X012428Y051774D01*
X012481Y051787D01*
X012535Y051796D01*
X012590Y051801D01*
X012645Y051802D01*
X012700Y051799D01*
X012754Y051792D01*
X012808Y051781D01*
X012861Y051766D01*
X012912Y051748D01*
X012963Y051726D01*
X013011Y051700D01*
X013058Y051671D01*
X013102Y051639D01*
X013144Y051603D01*
X013183Y051565D01*
X013219Y051523D01*
X013252Y051480D01*
X013282Y051434D01*
X013309Y051386D01*
X013332Y051336D01*
X013351Y051285D01*
X013367Y051232D01*
X013379Y051178D01*
X013387Y051124D01*
X013391Y051069D01*
X013391Y051015D01*
X013387Y050960D01*
X013379Y050906D01*
X013367Y050852D01*
X013351Y050799D01*
X013332Y050748D01*
X013309Y050698D01*
X013282Y050650D01*
X013252Y050604D01*
X013219Y050561D01*
X013183Y050519D01*
X013144Y050481D01*
X013102Y050445D01*
X013058Y050413D01*
X013011Y050384D01*
X012963Y050358D01*
X012912Y050336D01*
X012861Y050318D01*
X012808Y050303D01*
X012754Y050292D01*
X012700Y050285D01*
X012645Y050282D01*
X012590Y050283D01*
X012535Y050288D01*
X012481Y050297D01*
X012428Y050310D01*
X012375Y050326D01*
X012324Y050347D01*
X012275Y050371D01*
X012227Y050398D01*
X012182Y050429D01*
X012139Y050463D01*
X012098Y050500D01*
X012061Y050540D01*
X012026Y050582D01*
X011994Y050627D01*
X011966Y050674D01*
X011941Y050723D01*
X011920Y050773D01*
X011902Y050825D01*
X011889Y050879D01*
X011879Y050933D01*
X011873Y050987D01*
X011871Y051042D01*
X011871Y039042D02*
X011873Y039097D01*
X011879Y039151D01*
X011889Y039205D01*
X011902Y039259D01*
X011920Y039311D01*
X011941Y039361D01*
X011966Y039410D01*
X011994Y039457D01*
X012026Y039502D01*
X012061Y039544D01*
X012098Y039584D01*
X012139Y039621D01*
X012182Y039655D01*
X012227Y039686D01*
X012275Y039713D01*
X012324Y039737D01*
X012375Y039758D01*
X012428Y039774D01*
X012481Y039787D01*
X012535Y039796D01*
X012590Y039801D01*
X012645Y039802D01*
X012700Y039799D01*
X012754Y039792D01*
X012808Y039781D01*
X012861Y039766D01*
X012912Y039748D01*
X012963Y039726D01*
X013011Y039700D01*
X013058Y039671D01*
X013102Y039639D01*
X013144Y039603D01*
X013183Y039565D01*
X013219Y039523D01*
X013252Y039480D01*
X013282Y039434D01*
X013309Y039386D01*
X013332Y039336D01*
X013351Y039285D01*
X013367Y039232D01*
X013379Y039178D01*
X013387Y039124D01*
X013391Y039069D01*
X013391Y039015D01*
X013387Y038960D01*
X013379Y038906D01*
X013367Y038852D01*
X013351Y038799D01*
X013332Y038748D01*
X013309Y038698D01*
X013282Y038650D01*
X013252Y038604D01*
X013219Y038561D01*
X013183Y038519D01*
X013144Y038481D01*
X013102Y038445D01*
X013058Y038413D01*
X013011Y038384D01*
X012963Y038358D01*
X012912Y038336D01*
X012861Y038318D01*
X012808Y038303D01*
X012754Y038292D01*
X012700Y038285D01*
X012645Y038282D01*
X012590Y038283D01*
X012535Y038288D01*
X012481Y038297D01*
X012428Y038310D01*
X012375Y038326D01*
X012324Y038347D01*
X012275Y038371D01*
X012227Y038398D01*
X012182Y038429D01*
X012139Y038463D01*
X012098Y038500D01*
X012061Y038540D01*
X012026Y038582D01*
X011994Y038627D01*
X011966Y038674D01*
X011941Y038723D01*
X011920Y038773D01*
X011902Y038825D01*
X011889Y038879D01*
X011879Y038933D01*
X011873Y038987D01*
X011871Y039042D01*
X019079Y054317D02*
X019081Y054365D01*
X019087Y054413D01*
X019097Y054460D01*
X019110Y054506D01*
X019128Y054551D01*
X019148Y054595D01*
X019173Y054637D01*
X019201Y054676D01*
X019231Y054713D01*
X019265Y054747D01*
X019302Y054779D01*
X019340Y054808D01*
X019381Y054833D01*
X019424Y054855D01*
X019469Y054873D01*
X019515Y054887D01*
X019562Y054898D01*
X019610Y054905D01*
X019658Y054908D01*
X019706Y054907D01*
X019754Y054902D01*
X019802Y054893D01*
X019848Y054881D01*
X019893Y054864D01*
X019937Y054844D01*
X019979Y054821D01*
X020019Y054794D01*
X020057Y054764D01*
X020092Y054731D01*
X020124Y054695D01*
X020154Y054657D01*
X020180Y054616D01*
X020202Y054573D01*
X020222Y054529D01*
X020237Y054484D01*
X020249Y054437D01*
X020257Y054389D01*
X020261Y054341D01*
X020261Y054293D01*
X020257Y054245D01*
X020249Y054197D01*
X020237Y054150D01*
X020222Y054105D01*
X020202Y054061D01*
X020180Y054018D01*
X020154Y053977D01*
X020124Y053939D01*
X020092Y053903D01*
X020057Y053870D01*
X020019Y053840D01*
X019979Y053813D01*
X019937Y053790D01*
X019893Y053770D01*
X019848Y053753D01*
X019802Y053741D01*
X019754Y053732D01*
X019706Y053727D01*
X019658Y053726D01*
X019610Y053729D01*
X019562Y053736D01*
X019515Y053747D01*
X019469Y053761D01*
X019424Y053779D01*
X019381Y053801D01*
X019340Y053826D01*
X019302Y053855D01*
X019265Y053887D01*
X019231Y053921D01*
X019201Y053958D01*
X019173Y053997D01*
X019148Y054039D01*
X019128Y054083D01*
X019110Y054128D01*
X019097Y054174D01*
X019087Y054221D01*
X019081Y054269D01*
X019079Y054317D01*
X031921Y060042D02*
X031923Y060097D01*
X031929Y060151D01*
X031939Y060205D01*
X031952Y060259D01*
X031970Y060311D01*
X031991Y060361D01*
X032016Y060410D01*
X032044Y060457D01*
X032076Y060502D01*
X032111Y060544D01*
X032148Y060584D01*
X032189Y060621D01*
X032232Y060655D01*
X032277Y060686D01*
X032325Y060713D01*
X032374Y060737D01*
X032425Y060758D01*
X032478Y060774D01*
X032531Y060787D01*
X032585Y060796D01*
X032640Y060801D01*
X032695Y060802D01*
X032750Y060799D01*
X032804Y060792D01*
X032858Y060781D01*
X032911Y060766D01*
X032962Y060748D01*
X033013Y060726D01*
X033061Y060700D01*
X033108Y060671D01*
X033152Y060639D01*
X033194Y060603D01*
X033233Y060565D01*
X033269Y060523D01*
X033302Y060480D01*
X033332Y060434D01*
X033359Y060386D01*
X033382Y060336D01*
X033401Y060285D01*
X033417Y060232D01*
X033429Y060178D01*
X033437Y060124D01*
X033441Y060069D01*
X033441Y060015D01*
X033437Y059960D01*
X033429Y059906D01*
X033417Y059852D01*
X033401Y059799D01*
X033382Y059748D01*
X033359Y059698D01*
X033332Y059650D01*
X033302Y059604D01*
X033269Y059561D01*
X033233Y059519D01*
X033194Y059481D01*
X033152Y059445D01*
X033108Y059413D01*
X033061Y059384D01*
X033013Y059358D01*
X032962Y059336D01*
X032911Y059318D01*
X032858Y059303D01*
X032804Y059292D01*
X032750Y059285D01*
X032695Y059282D01*
X032640Y059283D01*
X032585Y059288D01*
X032531Y059297D01*
X032478Y059310D01*
X032425Y059326D01*
X032374Y059347D01*
X032325Y059371D01*
X032277Y059398D01*
X032232Y059429D01*
X032189Y059463D01*
X032148Y059500D01*
X032111Y059540D01*
X032076Y059582D01*
X032044Y059627D01*
X032016Y059674D01*
X031991Y059723D01*
X031970Y059773D01*
X031952Y059825D01*
X031939Y059879D01*
X031929Y059933D01*
X031923Y059987D01*
X031921Y060042D01*
X036421Y079042D02*
X036423Y079097D01*
X036429Y079151D01*
X036439Y079205D01*
X036452Y079259D01*
X036470Y079311D01*
X036491Y079361D01*
X036516Y079410D01*
X036544Y079457D01*
X036576Y079502D01*
X036611Y079544D01*
X036648Y079584D01*
X036689Y079621D01*
X036732Y079655D01*
X036777Y079686D01*
X036825Y079713D01*
X036874Y079737D01*
X036925Y079758D01*
X036978Y079774D01*
X037031Y079787D01*
X037085Y079796D01*
X037140Y079801D01*
X037195Y079802D01*
X037250Y079799D01*
X037304Y079792D01*
X037358Y079781D01*
X037411Y079766D01*
X037462Y079748D01*
X037513Y079726D01*
X037561Y079700D01*
X037608Y079671D01*
X037652Y079639D01*
X037694Y079603D01*
X037733Y079565D01*
X037769Y079523D01*
X037802Y079480D01*
X037832Y079434D01*
X037859Y079386D01*
X037882Y079336D01*
X037901Y079285D01*
X037917Y079232D01*
X037929Y079178D01*
X037937Y079124D01*
X037941Y079069D01*
X037941Y079015D01*
X037937Y078960D01*
X037929Y078906D01*
X037917Y078852D01*
X037901Y078799D01*
X037882Y078748D01*
X037859Y078698D01*
X037832Y078650D01*
X037802Y078604D01*
X037769Y078561D01*
X037733Y078519D01*
X037694Y078481D01*
X037652Y078445D01*
X037608Y078413D01*
X037561Y078384D01*
X037513Y078358D01*
X037462Y078336D01*
X037411Y078318D01*
X037358Y078303D01*
X037304Y078292D01*
X037250Y078285D01*
X037195Y078282D01*
X037140Y078283D01*
X037085Y078288D01*
X037031Y078297D01*
X036978Y078310D01*
X036925Y078326D01*
X036874Y078347D01*
X036825Y078371D01*
X036777Y078398D01*
X036732Y078429D01*
X036689Y078463D01*
X036648Y078500D01*
X036611Y078540D01*
X036576Y078582D01*
X036544Y078627D01*
X036516Y078674D01*
X036491Y078723D01*
X036470Y078773D01*
X036452Y078825D01*
X036439Y078879D01*
X036429Y078933D01*
X036423Y078987D01*
X036421Y079042D01*
D11*
X008755Y046432D02*
X008508Y046432D01*
X008446Y046370D01*
X008446Y046185D01*
X008816Y046185D01*
X008816Y046370D01*
X008755Y046432D01*
X008816Y046064D02*
X008816Y045817D01*
X008446Y045817D01*
X008508Y045695D02*
X008446Y045634D01*
X008446Y045510D01*
X008508Y045448D01*
X008755Y045448D01*
X008816Y045510D01*
X008816Y045634D01*
X008755Y045695D01*
X008508Y045695D01*
X008446Y045327D02*
X008446Y045204D01*
X008446Y045265D02*
X008755Y045265D01*
X008816Y045204D01*
X008816Y045142D01*
X008755Y045080D01*
X008755Y044959D02*
X008446Y044959D01*
X008446Y044712D02*
X008755Y044712D01*
X008816Y044774D01*
X008816Y044897D01*
X008755Y044959D01*
X008755Y044590D02*
X008816Y044529D01*
X008816Y044344D01*
X008446Y044344D01*
X008446Y044529D01*
X008508Y044590D01*
X008570Y044590D01*
X008631Y044529D01*
X008631Y044344D01*
X008631Y044529D02*
X008693Y044590D01*
X008755Y044590D01*
X008816Y043854D02*
X008446Y043854D01*
X008570Y043730D01*
X008446Y043607D01*
X008816Y043607D01*
X007966Y043607D02*
X007843Y043730D01*
X007966Y043854D01*
X007596Y043854D01*
X007596Y043607D02*
X007966Y043607D01*
X007966Y044344D02*
X007596Y044344D01*
X007596Y044590D01*
X007596Y044712D02*
X007596Y044835D01*
X007596Y044774D02*
X007966Y044774D01*
X007966Y044835D02*
X007966Y044712D01*
X007905Y044957D02*
X007966Y045019D01*
X007966Y045142D01*
X007905Y045204D01*
X007843Y045204D01*
X007781Y045142D01*
X007781Y045019D01*
X007720Y044957D01*
X007658Y044957D01*
X007596Y045019D01*
X007596Y045142D01*
X007658Y045204D01*
X007658Y045326D02*
X007905Y045326D01*
X007966Y045387D01*
X007966Y045511D01*
X007905Y045572D01*
X007966Y045694D02*
X007596Y045694D01*
X007658Y045572D02*
X007596Y045511D01*
X007596Y045387D01*
X007658Y045326D01*
X007781Y045694D02*
X007781Y045941D01*
X007781Y046062D02*
X007781Y046186D01*
X007596Y046309D02*
X007596Y046062D01*
X007966Y046062D01*
X007966Y046309D01*
X007966Y046431D02*
X007596Y046431D01*
X007596Y046616D01*
X007658Y046677D01*
X007781Y046677D01*
X007843Y046616D01*
X007843Y046431D01*
X007843Y046554D02*
X007966Y046677D01*
X007966Y045941D02*
X007596Y045941D01*
X007016Y046064D02*
X006893Y045940D01*
X006893Y046002D02*
X006893Y045817D01*
X007016Y045817D02*
X006646Y045817D01*
X006646Y046002D01*
X006708Y046064D01*
X006831Y046064D01*
X006893Y046002D01*
X006955Y046185D02*
X007016Y046247D01*
X007016Y046370D01*
X006955Y046432D01*
X006893Y046432D01*
X006831Y046370D01*
X006831Y046247D01*
X006770Y046185D01*
X006708Y046185D01*
X006646Y046247D01*
X006646Y046370D01*
X006708Y046432D01*
X006770Y046553D02*
X006646Y046677D01*
X006770Y046800D01*
X007016Y046800D01*
X006831Y046800D02*
X006831Y046553D01*
X006770Y046553D02*
X007016Y046553D01*
X007016Y047290D02*
X006646Y047290D01*
X006646Y047475D01*
X006708Y047537D01*
X006770Y047537D01*
X006831Y047475D01*
X006831Y047290D01*
X006831Y047475D02*
X006893Y047537D01*
X006955Y047537D01*
X007016Y047475D01*
X007016Y047290D01*
X007016Y047658D02*
X006770Y047658D01*
X006646Y047782D01*
X006770Y047905D01*
X007016Y047905D01*
X006955Y048027D02*
X007016Y048088D01*
X007016Y048212D01*
X006955Y048273D01*
X007016Y048395D02*
X006646Y048395D01*
X006708Y048273D02*
X006646Y048212D01*
X006646Y048088D01*
X006708Y048027D01*
X006955Y048027D01*
X006831Y047905D02*
X006831Y047658D01*
X006893Y048395D02*
X006646Y048642D01*
X006646Y048763D02*
X006646Y048948D01*
X006708Y049010D01*
X006831Y049010D01*
X006893Y048948D01*
X006893Y048763D01*
X007016Y048763D02*
X006646Y048763D01*
X006831Y048457D02*
X007016Y048642D01*
X007016Y049131D02*
X006646Y049131D01*
X007016Y049131D02*
X007016Y049378D01*
X007016Y049500D02*
X006770Y049500D01*
X006646Y049623D01*
X006770Y049747D01*
X007016Y049747D01*
X007016Y049868D02*
X006646Y049868D01*
X007016Y050115D01*
X006646Y050115D01*
X006646Y050236D02*
X007016Y050236D01*
X007016Y050483D01*
X006831Y050360D02*
X006831Y050236D01*
X006646Y050236D02*
X006646Y050483D01*
X006708Y050973D02*
X006646Y051035D01*
X006646Y051158D01*
X006708Y051220D01*
X006770Y051220D01*
X007016Y050973D01*
X007016Y051220D01*
X006955Y051341D02*
X006708Y051588D01*
X006955Y051588D01*
X007016Y051526D01*
X007016Y051403D01*
X006955Y051341D01*
X006708Y051341D01*
X006646Y051403D01*
X006646Y051526D01*
X006708Y051588D01*
X006770Y051710D02*
X006646Y051833D01*
X007016Y051833D01*
X007016Y051710D02*
X007016Y051956D01*
X006955Y052078D02*
X007016Y052140D01*
X007016Y052263D01*
X006955Y052325D01*
X006893Y052325D01*
X006831Y052263D01*
X006831Y052201D01*
X006831Y052263D02*
X006770Y052325D01*
X006708Y052325D01*
X006646Y052263D01*
X006646Y052140D01*
X006708Y052078D01*
X006831Y049747D02*
X006831Y049500D01*
X006955Y045695D02*
X006646Y045695D01*
X006646Y045448D02*
X006955Y045448D01*
X007016Y045510D01*
X007016Y045634D01*
X006955Y045695D01*
X007016Y044959D02*
X006770Y044959D01*
X006646Y044835D01*
X006770Y044712D01*
X007016Y044712D01*
X006955Y044590D02*
X006646Y044590D01*
X006831Y044712D02*
X006831Y044959D01*
X006955Y044590D02*
X007016Y044529D01*
X007016Y044405D01*
X006955Y044344D01*
X006646Y044344D01*
X006708Y044222D02*
X006955Y044222D01*
X007016Y044160D01*
X007016Y044037D01*
X006955Y043975D01*
X006708Y043975D01*
X006646Y044037D01*
X006646Y044160D01*
X006708Y044222D01*
X006893Y044099D02*
X007016Y044222D01*
X007016Y043854D02*
X006770Y043854D01*
X006646Y043730D01*
X006770Y043607D01*
X007016Y043607D01*
X006831Y043607D02*
X006831Y043854D01*
X007781Y044344D02*
X007781Y044467D01*
D12*
X015333Y041273D02*
X015333Y041123D01*
X015383Y041073D01*
X015383Y039673D01*
X015333Y039623D01*
X015333Y039473D01*
X015335Y039456D01*
X015339Y039439D01*
X015346Y039423D01*
X015356Y039409D01*
X015369Y039396D01*
X015383Y039386D01*
X015399Y039379D01*
X015416Y039375D01*
X015433Y039373D01*
X016033Y039373D01*
X016050Y039375D01*
X016067Y039379D01*
X016083Y039386D01*
X016097Y039396D01*
X016110Y039409D01*
X016120Y039423D01*
X016127Y039439D01*
X016131Y039456D01*
X016133Y039473D01*
X016133Y039623D01*
X016083Y039673D01*
X016083Y041073D01*
X016133Y041123D01*
X016133Y041273D01*
X016131Y041290D01*
X016127Y041307D01*
X016120Y041323D01*
X016110Y041337D01*
X016097Y041350D01*
X016083Y041360D01*
X016067Y041367D01*
X016050Y041371D01*
X016033Y041373D01*
X015433Y041373D01*
X015416Y041371D01*
X015399Y041367D01*
X015383Y041360D01*
X015369Y041350D01*
X015356Y041337D01*
X015346Y041323D01*
X015339Y041307D01*
X015335Y041290D01*
X015333Y041273D01*
X014755Y044240D02*
X014757Y044303D01*
X014763Y044365D01*
X014773Y044427D01*
X014786Y044489D01*
X014804Y044549D01*
X014825Y044608D01*
X014850Y044666D01*
X014879Y044722D01*
X014911Y044776D01*
X014946Y044828D01*
X014984Y044877D01*
X015026Y044925D01*
X015070Y044969D01*
X015118Y045011D01*
X015167Y045049D01*
X015219Y045084D01*
X015273Y045116D01*
X015329Y045145D01*
X015387Y045170D01*
X015446Y045191D01*
X015506Y045209D01*
X015568Y045222D01*
X015630Y045232D01*
X015692Y045238D01*
X015755Y045240D01*
X015818Y045238D01*
X015880Y045232D01*
X015942Y045222D01*
X016004Y045209D01*
X016064Y045191D01*
X016123Y045170D01*
X016181Y045145D01*
X016237Y045116D01*
X016291Y045084D01*
X016343Y045049D01*
X016392Y045011D01*
X016440Y044969D01*
X016484Y044925D01*
X016526Y044877D01*
X016564Y044828D01*
X016599Y044776D01*
X016631Y044722D01*
X016660Y044666D01*
X016685Y044608D01*
X016706Y044549D01*
X016724Y044489D01*
X016737Y044427D01*
X016747Y044365D01*
X016753Y044303D01*
X016755Y044240D01*
X016753Y044177D01*
X016747Y044115D01*
X016737Y044053D01*
X016724Y043991D01*
X016706Y043931D01*
X016685Y043872D01*
X016660Y043814D01*
X016631Y043758D01*
X016599Y043704D01*
X016564Y043652D01*
X016526Y043603D01*
X016484Y043555D01*
X016440Y043511D01*
X016392Y043469D01*
X016343Y043431D01*
X016291Y043396D01*
X016237Y043364D01*
X016181Y043335D01*
X016123Y043310D01*
X016064Y043289D01*
X016004Y043271D01*
X015942Y043258D01*
X015880Y043248D01*
X015818Y043242D01*
X015755Y043240D01*
X015692Y043242D01*
X015630Y043248D01*
X015568Y043258D01*
X015506Y043271D01*
X015446Y043289D01*
X015387Y043310D01*
X015329Y043335D01*
X015273Y043364D01*
X015219Y043396D01*
X015167Y043431D01*
X015118Y043469D01*
X015070Y043511D01*
X015026Y043555D01*
X014984Y043603D01*
X014946Y043652D01*
X014911Y043704D01*
X014879Y043758D01*
X014850Y043814D01*
X014825Y043872D01*
X014804Y043931D01*
X014786Y043991D01*
X014773Y044053D01*
X014763Y044115D01*
X014757Y044177D01*
X014755Y044240D01*
X031811Y034785D02*
X032451Y034785D01*
X032451Y034572D02*
X032451Y034999D01*
X032024Y034572D02*
X031811Y034785D01*
X035061Y034785D02*
X035701Y034785D01*
X035701Y034572D02*
X035701Y034999D01*
X035274Y034572D02*
X035061Y034785D01*
D13*
X034992Y015623D02*
X015193Y035422D01*
X012577Y032806D01*
X032376Y013007D01*
X034992Y015623D01*
X033507Y015199D02*
X032800Y014492D01*
X014062Y033230D01*
X014769Y033937D01*
X033507Y015199D01*
X022500Y036562D02*
X018800Y036562D01*
X018800Y053491D01*
X021437Y053491D01*
X021439Y053519D01*
X021444Y053547D01*
X021454Y053574D01*
X021466Y053600D01*
X021482Y053623D01*
X021501Y053644D01*
X021522Y053663D01*
X021545Y053679D01*
X021571Y053691D01*
X021598Y053701D01*
X021626Y053706D01*
X021654Y053708D01*
X021682Y053706D01*
X021710Y053701D01*
X021737Y053691D01*
X021763Y053679D01*
X021786Y053663D01*
X021807Y053644D01*
X021826Y053623D01*
X021842Y053599D01*
X021854Y053574D01*
X021864Y053547D01*
X021869Y053519D01*
X021871Y053491D01*
X021870Y053491D02*
X022500Y053491D01*
X022500Y036562D01*
X020059Y036522D02*
X020059Y036247D01*
X020020Y036286D02*
X020061Y036257D01*
X020100Y036225D01*
X020137Y036190D01*
X020170Y036153D01*
X020201Y036113D01*
X020228Y036071D01*
X020253Y036027D01*
X020273Y035981D01*
X020290Y035933D01*
X020304Y035885D01*
X020313Y035835D01*
X020319Y035785D01*
X020321Y035735D01*
X020319Y035685D01*
X020313Y035635D01*
X020304Y035585D01*
X020290Y035537D01*
X020273Y035489D01*
X020253Y035443D01*
X020228Y035399D01*
X020201Y035357D01*
X020170Y035317D01*
X020137Y035280D01*
X020100Y035245D01*
X020061Y035213D01*
X020020Y035184D01*
X019311Y035184D01*
X019312Y035184D02*
X019271Y035213D01*
X019232Y035245D01*
X019195Y035280D01*
X019162Y035317D01*
X019131Y035357D01*
X019104Y035399D01*
X019079Y035443D01*
X019059Y035489D01*
X019042Y035537D01*
X019028Y035585D01*
X019019Y035635D01*
X019013Y035685D01*
X019011Y035735D01*
X019013Y035785D01*
X019019Y035835D01*
X019028Y035885D01*
X019042Y035933D01*
X019059Y035981D01*
X019079Y036027D01*
X019104Y036071D01*
X019131Y036113D01*
X019162Y036153D01*
X019195Y036190D01*
X019232Y036225D01*
X019271Y036257D01*
X019312Y036286D01*
X019272Y036247D02*
X019272Y036522D01*
X018760Y044199D02*
X018091Y044199D01*
X018091Y045853D01*
X018760Y045853D01*
X016505Y045240D02*
X016559Y045197D01*
X016611Y045151D01*
X016660Y045102D01*
X016707Y045050D01*
X016750Y044996D01*
X016791Y044940D01*
X016828Y044881D01*
X016862Y044821D01*
X016892Y044758D01*
X016919Y044695D01*
X016943Y044629D01*
X016963Y044563D01*
X016979Y044495D01*
X016991Y044427D01*
X016999Y044358D01*
X017004Y044289D01*
X017005Y044219D01*
X017002Y044150D01*
X016995Y044081D01*
X016984Y044013D01*
X016970Y043945D01*
X016951Y043878D01*
X016929Y043812D01*
X016904Y043747D01*
X016875Y043684D01*
X016842Y043623D01*
X016806Y043564D01*
X016767Y043507D01*
X016725Y043451D01*
X016680Y043399D01*
X016632Y043349D01*
X016581Y043302D01*
X016527Y043257D01*
X016472Y043216D01*
X016414Y043178D01*
X016354Y043143D01*
X016292Y043111D01*
X016229Y043083D01*
X016164Y043059D01*
X016098Y043038D01*
X016030Y043021D01*
X015962Y043007D01*
X015893Y042998D01*
X015824Y042992D01*
X015755Y042990D01*
X015686Y042992D01*
X015617Y042998D01*
X015548Y043007D01*
X015480Y043021D01*
X015412Y043038D01*
X015346Y043059D01*
X015281Y043083D01*
X015218Y043111D01*
X015156Y043143D01*
X015096Y043178D01*
X015038Y043216D01*
X014983Y043257D01*
X014929Y043302D01*
X014878Y043349D01*
X014830Y043399D01*
X014785Y043451D01*
X014743Y043507D01*
X014704Y043564D01*
X014668Y043623D01*
X014635Y043684D01*
X014606Y043747D01*
X014581Y043812D01*
X014559Y043878D01*
X014540Y043945D01*
X014526Y044013D01*
X014515Y044081D01*
X014508Y044150D01*
X014505Y044219D01*
X014506Y044289D01*
X014511Y044358D01*
X014519Y044427D01*
X014531Y044495D01*
X014547Y044563D01*
X014567Y044629D01*
X014591Y044695D01*
X014618Y044758D01*
X014648Y044821D01*
X014682Y044881D01*
X014719Y044940D01*
X014760Y044996D01*
X014803Y045050D01*
X014850Y045102D01*
X014899Y045151D01*
X014951Y045197D01*
X015005Y045240D01*
X019272Y053530D02*
X019272Y053806D01*
X019312Y053766D02*
X019271Y053795D01*
X019232Y053827D01*
X019195Y053862D01*
X019162Y053899D01*
X019131Y053939D01*
X019104Y053981D01*
X019079Y054025D01*
X019059Y054071D01*
X019042Y054119D01*
X019028Y054167D01*
X019019Y054217D01*
X019013Y054267D01*
X019011Y054317D01*
X019013Y054367D01*
X019019Y054417D01*
X019028Y054467D01*
X019042Y054515D01*
X019059Y054563D01*
X019079Y054609D01*
X019104Y054653D01*
X019131Y054695D01*
X019162Y054735D01*
X019195Y054772D01*
X019232Y054807D01*
X019271Y054839D01*
X019312Y054868D01*
X019311Y054869D02*
X020020Y054869D01*
X020020Y054868D02*
X020061Y054839D01*
X020100Y054807D01*
X020137Y054772D01*
X020170Y054735D01*
X020201Y054695D01*
X020228Y054653D01*
X020253Y054609D01*
X020273Y054563D01*
X020290Y054515D01*
X020304Y054467D01*
X020313Y054417D01*
X020319Y054367D01*
X020321Y054317D01*
X020319Y054267D01*
X020313Y054217D01*
X020304Y054167D01*
X020290Y054119D01*
X020273Y054071D01*
X020253Y054025D01*
X020228Y053981D01*
X020201Y053939D01*
X020170Y053899D01*
X020137Y053862D01*
X020100Y053827D01*
X020061Y053795D01*
X020020Y053766D01*
X020059Y053806D02*
X020059Y053530D01*
X015566Y055034D02*
X035365Y074833D01*
X032748Y077449D01*
X012949Y057650D01*
X015566Y055034D01*
X015141Y056519D02*
X014434Y057226D01*
X033173Y075964D01*
X033880Y075257D01*
X015141Y056519D01*
D14*
X015116Y029320D02*
X014790Y028994D01*
X014681Y029103D02*
X014573Y029211D01*
X014627Y029157D02*
X014953Y029483D01*
X014899Y029537D02*
X015007Y029428D01*
X015116Y029320D02*
X015007Y028777D01*
X015333Y029103D01*
X014736Y029591D02*
X014627Y029483D01*
X014519Y029483D01*
X014356Y029645D01*
X014248Y029537D02*
X014573Y029862D01*
X014736Y029700D01*
X014736Y029591D01*
X014410Y029917D02*
X013976Y029917D01*
X013976Y029808D01*
X014085Y029700D01*
X014193Y029700D01*
X014410Y029917D01*
X014410Y030025D01*
X014302Y030134D01*
X014193Y030134D01*
X013976Y029917D01*
X013868Y030025D02*
X013759Y030025D01*
X013651Y030134D01*
X013651Y030242D01*
X013759Y030351D02*
X013922Y030297D01*
X013976Y030242D01*
X013976Y030134D01*
X013868Y030025D01*
X013759Y030351D02*
X013922Y030514D01*
X014139Y030297D01*
X013434Y030242D02*
X013217Y030459D01*
X013162Y030622D02*
X013488Y030948D01*
X013271Y031165D02*
X013162Y030622D01*
X012945Y030839D02*
X013271Y031165D01*
X013162Y031273D02*
X012837Y030948D01*
X012945Y031490D01*
X012620Y031165D01*
X012566Y031327D02*
X012783Y031545D01*
X012783Y031653D01*
X012674Y031762D01*
X012566Y031762D01*
X012349Y031544D01*
X012349Y031436D01*
X012457Y031328D01*
X012566Y031327D01*
X012240Y031653D02*
X012132Y031653D01*
X012023Y031762D01*
X012023Y031870D01*
X012240Y032087D01*
X012349Y032087D01*
X012457Y031979D01*
X012457Y031870D01*
X016181Y028233D02*
X015909Y027961D01*
X015909Y027853D01*
X016018Y027745D01*
X016126Y027744D01*
X016398Y028016D01*
X016452Y027853D02*
X016560Y027853D01*
X016669Y027744D01*
X016669Y027636D01*
X016778Y027527D02*
X016886Y027527D01*
X016994Y027419D01*
X016994Y027310D01*
X016940Y027256D01*
X016506Y027256D01*
X016723Y027039D01*
X016452Y027419D02*
X016506Y027473D01*
X016506Y027582D01*
X016398Y027690D01*
X016398Y027799D01*
X016452Y027853D01*
X016669Y027853D02*
X016235Y027419D01*
X016235Y027527D02*
X016343Y027419D01*
X016452Y027419D01*
X016235Y027527D02*
X016235Y027636D01*
X022841Y037046D02*
X023071Y037046D01*
X022994Y037200D01*
X022994Y037276D01*
X023071Y037353D01*
X023224Y037353D01*
X023301Y037276D01*
X023301Y037123D01*
X023224Y037046D01*
X022841Y037046D02*
X022841Y037353D01*
X022841Y037506D02*
X023071Y037506D01*
X022994Y037660D01*
X022994Y037737D01*
X023071Y037813D01*
X023224Y037813D01*
X023301Y037737D01*
X023301Y037583D01*
X023224Y037506D01*
X022841Y037506D02*
X022841Y037813D01*
X023071Y037967D02*
X022918Y038120D01*
X022841Y038274D01*
X023071Y038197D02*
X023071Y037967D01*
X023224Y037967D01*
X023301Y038044D01*
X023301Y038197D01*
X023224Y038274D01*
X023148Y038274D01*
X023071Y038197D01*
X023071Y038427D02*
X023071Y038657D01*
X023148Y038734D01*
X023224Y038734D01*
X023301Y038657D01*
X023301Y038504D01*
X023224Y038427D01*
X023071Y038427D01*
X022918Y038581D01*
X022841Y038734D01*
X023071Y038888D02*
X023071Y039194D01*
X022918Y039348D02*
X022841Y039425D01*
X022841Y039578D01*
X022918Y039655D01*
X022994Y039655D01*
X023301Y039348D01*
X023301Y039655D01*
X023224Y039808D02*
X022918Y040115D01*
X023224Y040115D01*
X023301Y040038D01*
X023301Y039885D01*
X023224Y039808D01*
X022918Y039808D01*
X022841Y039885D01*
X022841Y040038D01*
X022918Y040115D01*
X022841Y051546D02*
X022841Y051776D01*
X022918Y051853D01*
X023071Y051853D01*
X023148Y051776D01*
X023148Y051546D01*
X023301Y051546D02*
X022841Y051546D01*
X022841Y052006D02*
X023301Y052006D01*
X023148Y052160D01*
X023301Y052313D01*
X022841Y052313D01*
X022841Y052467D02*
X022841Y052697D01*
X022918Y052774D01*
X023071Y052774D01*
X023148Y052697D01*
X023148Y052467D01*
X023301Y052467D02*
X022841Y052467D01*
X023148Y052620D02*
X023301Y052774D01*
X023378Y052927D02*
X023378Y053234D01*
X023301Y053388D02*
X023301Y053541D01*
X023301Y053464D02*
X022841Y053464D01*
X022841Y053388D02*
X022841Y053541D01*
X022841Y053694D02*
X023301Y054001D01*
X022841Y054001D01*
X022841Y053694D02*
X023301Y053694D01*
X016613Y041267D02*
X016613Y041034D01*
X016613Y041151D02*
X016262Y041151D01*
X016379Y041034D01*
X016321Y040908D02*
X016437Y040908D01*
X016496Y040850D01*
X016496Y040675D01*
X016496Y040792D02*
X016613Y040908D01*
X016613Y040675D02*
X016262Y040675D01*
X016262Y040850D01*
X016321Y040908D01*
X014081Y057608D02*
X014298Y057825D01*
X014189Y057716D02*
X013864Y058042D01*
X013864Y057825D01*
X013836Y058777D02*
X013510Y059103D01*
X013402Y058994D02*
X013619Y059211D01*
X013781Y059265D02*
X013999Y059048D01*
X014107Y059048D01*
X014216Y059157D01*
X014216Y059265D01*
X013999Y059482D01*
X013890Y059482D01*
X013781Y059374D01*
X013781Y059265D01*
X014053Y059645D02*
X014216Y059808D01*
X014324Y059808D01*
X014433Y059699D01*
X014433Y059591D01*
X014270Y059428D01*
X014378Y059320D02*
X014053Y059645D01*
X027173Y072952D02*
X026901Y073223D01*
X027118Y073440D02*
X027390Y073169D01*
X027390Y073060D01*
X027281Y072952D01*
X027173Y072952D01*
X027498Y073277D02*
X027607Y073277D01*
X027715Y073386D01*
X027715Y073494D01*
X027661Y073549D01*
X027552Y073549D01*
X027444Y073440D01*
X027335Y073440D01*
X027281Y073494D01*
X027281Y073603D01*
X027390Y073711D01*
X027498Y073711D01*
X027661Y073766D02*
X027661Y073983D01*
X027986Y073657D01*
X027878Y073549D02*
X028095Y073766D01*
X027715Y073277D02*
X027281Y073711D01*
X028694Y074885D02*
X028911Y074668D01*
X029019Y074668D01*
X029128Y074776D01*
X029128Y074885D01*
X029236Y074993D02*
X029345Y074993D01*
X029453Y075102D01*
X029453Y075210D01*
X029236Y075427D01*
X029128Y075427D01*
X029019Y075319D01*
X029019Y075210D01*
X029236Y074993D01*
X028911Y075102D02*
X028802Y075102D01*
X028694Y074993D01*
X028694Y074885D01*
X029291Y075590D02*
X029833Y075481D01*
X029508Y075807D01*
X029616Y075916D02*
X030159Y075807D01*
X029833Y076133D01*
X029616Y075916D02*
X029942Y075590D01*
X029616Y075265D02*
X029291Y075590D01*
X030267Y076567D02*
X030430Y076404D01*
X030484Y076567D01*
X030538Y076621D01*
X030647Y076621D01*
X030755Y076512D01*
X030755Y076404D01*
X030647Y076295D01*
X030538Y076295D01*
X030538Y076078D02*
X030321Y075861D01*
X030267Y076567D02*
X030484Y076784D01*
X030647Y076838D02*
X030647Y076946D01*
X030755Y077055D01*
X030864Y077055D01*
X030864Y076621D01*
X030972Y076621D01*
X031081Y076729D01*
X031081Y076838D01*
X030864Y077055D01*
X030918Y077218D02*
X031081Y077380D01*
X031189Y077380D01*
X031298Y077272D01*
X031298Y077163D01*
X031135Y077001D01*
X031244Y076892D02*
X030918Y077218D01*
X031244Y077543D02*
X031352Y077652D01*
X031298Y077597D02*
X031623Y077272D01*
X031569Y077218D02*
X031678Y077326D01*
X031786Y077435D02*
X031461Y077760D01*
X032003Y077652D01*
X031678Y077977D01*
X030647Y076838D02*
X030864Y076621D01*
X030410Y014733D02*
X030627Y014516D01*
X030518Y014625D02*
X030193Y014299D01*
X030464Y014136D02*
X030464Y014028D01*
X030572Y013919D01*
X030681Y013919D01*
X030898Y014136D01*
X030898Y014245D01*
X030789Y014353D01*
X030681Y014353D01*
X030464Y014136D01*
X030735Y013757D02*
X031061Y014082D01*
X031223Y013919D01*
X031223Y013811D01*
X031115Y013702D01*
X031006Y013702D01*
X030844Y013865D01*
X031796Y014110D02*
X032013Y013893D01*
X031904Y014002D02*
X032230Y014327D01*
X032013Y014327D01*
D15*
X032138Y032932D02*
X032091Y032979D01*
X032138Y032932D02*
X032185Y032932D01*
X032232Y032979D01*
X032232Y033212D01*
X032278Y033212D02*
X032185Y033212D01*
X032368Y033165D02*
X032414Y033212D01*
X032508Y033212D01*
X032554Y033165D01*
X032554Y033119D01*
X032368Y032932D01*
X032554Y032932D01*
X032741Y033582D02*
X032928Y033582D01*
X032835Y033582D02*
X032835Y033862D01*
X032741Y033769D01*
X032788Y034582D02*
X032741Y034629D01*
X032788Y034582D02*
X032882Y034582D01*
X032928Y034629D01*
X032928Y034675D01*
X032882Y034722D01*
X032835Y034722D01*
X032882Y034722D02*
X032928Y034769D01*
X032928Y034815D01*
X032882Y034862D01*
X032788Y034862D01*
X032741Y034815D01*
X032788Y035582D02*
X032741Y035629D01*
X032788Y035582D02*
X032882Y035582D01*
X032928Y035629D01*
X032928Y035722D01*
X032882Y035769D01*
X032835Y035769D01*
X032741Y035722D01*
X032741Y035862D01*
X032928Y035862D01*
X032741Y036582D02*
X032741Y036629D01*
X032928Y036815D01*
X032928Y036862D01*
X032741Y036862D01*
X032788Y037582D02*
X032882Y037582D01*
X032928Y037629D01*
X032928Y037815D01*
X032882Y037862D01*
X032788Y037862D01*
X032741Y037815D01*
X032741Y037769D01*
X032788Y037722D01*
X032928Y037722D01*
X032788Y037582D02*
X032741Y037629D01*
X032741Y038582D02*
X032928Y038582D01*
X033018Y038582D02*
X033204Y038582D01*
X033111Y038582D02*
X033111Y038862D01*
X033018Y038769D01*
X032835Y038862D02*
X032835Y038582D01*
X032741Y038769D02*
X032835Y038862D01*
X032835Y039582D02*
X032835Y039862D01*
X032741Y039769D01*
X032741Y039582D02*
X032928Y039582D01*
X033018Y039629D02*
X033064Y039582D01*
X033158Y039582D01*
X033204Y039629D01*
X033204Y039675D01*
X033158Y039722D01*
X033111Y039722D01*
X033158Y039722D02*
X033204Y039769D01*
X033204Y039815D01*
X033158Y039862D01*
X033064Y039862D01*
X033018Y039815D01*
X033064Y040582D02*
X033018Y040629D01*
X033064Y040582D02*
X033158Y040582D01*
X033204Y040629D01*
X033204Y040722D01*
X033158Y040769D01*
X033111Y040769D01*
X033018Y040722D01*
X033018Y040862D01*
X033204Y040862D01*
X032835Y040862D02*
X032835Y040582D01*
X032928Y040582D02*
X032741Y040582D01*
X032741Y040769D02*
X032835Y040862D01*
X032835Y041582D02*
X032835Y041862D01*
X032741Y041769D01*
X032741Y041582D02*
X032928Y041582D01*
X033018Y041582D02*
X033018Y041629D01*
X033204Y041815D01*
X033204Y041862D01*
X033018Y041862D01*
X033064Y042582D02*
X033158Y042582D01*
X033204Y042629D01*
X033204Y042815D01*
X033158Y042862D01*
X033064Y042862D01*
X033018Y042815D01*
X033018Y042769D01*
X033064Y042722D01*
X033204Y042722D01*
X033064Y042582D02*
X033018Y042629D01*
X032928Y042582D02*
X032741Y042582D01*
X032835Y042582D02*
X032835Y042862D01*
X032741Y042769D01*
X032741Y043582D02*
X032928Y043769D01*
X032928Y043815D01*
X032882Y043862D01*
X032788Y043862D01*
X032741Y043815D01*
X032741Y043582D02*
X032928Y043582D01*
X033018Y043582D02*
X033204Y043582D01*
X033111Y043582D02*
X033111Y043862D01*
X033018Y043769D01*
X033064Y044582D02*
X033018Y044629D01*
X033064Y044582D02*
X033158Y044582D01*
X033204Y044629D01*
X033204Y044675D01*
X033158Y044722D01*
X033111Y044722D01*
X033158Y044722D02*
X033204Y044769D01*
X033204Y044815D01*
X033158Y044862D01*
X033064Y044862D01*
X033018Y044815D01*
X032928Y044815D02*
X032882Y044862D01*
X032788Y044862D01*
X032741Y044815D01*
X032928Y044815D02*
X032928Y044769D01*
X032741Y044582D01*
X032928Y044582D01*
X032928Y045582D02*
X032741Y045582D01*
X032928Y045769D01*
X032928Y045815D01*
X032882Y045862D01*
X032788Y045862D01*
X032741Y045815D01*
X033018Y045862D02*
X033018Y045722D01*
X033111Y045769D01*
X033158Y045769D01*
X033204Y045722D01*
X033204Y045629D01*
X033158Y045582D01*
X033064Y045582D01*
X033018Y045629D01*
X033018Y045862D02*
X033204Y045862D01*
X033018Y046582D02*
X033018Y046629D01*
X033204Y046815D01*
X033204Y046862D01*
X033018Y046862D01*
X032928Y046815D02*
X032882Y046862D01*
X032788Y046862D01*
X032741Y046815D01*
X032928Y046815D02*
X032928Y046769D01*
X032741Y046582D01*
X032928Y046582D01*
X032928Y047582D02*
X032741Y047582D01*
X032928Y047769D01*
X032928Y047815D01*
X032882Y047862D01*
X032788Y047862D01*
X032741Y047815D01*
X033018Y047815D02*
X033018Y047769D01*
X033064Y047722D01*
X033204Y047722D01*
X033204Y047629D02*
X033204Y047815D01*
X033158Y047862D01*
X033064Y047862D01*
X033018Y047815D01*
X033018Y047629D02*
X033064Y047582D01*
X033158Y047582D01*
X033204Y047629D01*
X033204Y048582D02*
X033018Y048582D01*
X033111Y048582D02*
X033111Y048862D01*
X033018Y048769D01*
X032928Y048769D02*
X032882Y048722D01*
X032928Y048675D01*
X032928Y048629D01*
X032882Y048582D01*
X032788Y048582D01*
X032741Y048629D01*
X032835Y048722D02*
X032882Y048722D01*
X032928Y048769D02*
X032928Y048815D01*
X032882Y048862D01*
X032788Y048862D01*
X032741Y048815D01*
X032788Y049582D02*
X032741Y049629D01*
X032788Y049582D02*
X032882Y049582D01*
X032928Y049629D01*
X032928Y049675D01*
X032882Y049722D01*
X032835Y049722D01*
X032882Y049722D02*
X032928Y049769D01*
X032928Y049815D01*
X032882Y049862D01*
X032788Y049862D01*
X032741Y049815D01*
X033018Y049815D02*
X033064Y049862D01*
X033158Y049862D01*
X033204Y049815D01*
X033204Y049769D01*
X033158Y049722D01*
X033204Y049675D01*
X033204Y049629D01*
X033158Y049582D01*
X033064Y049582D01*
X033018Y049629D01*
X033111Y049722D02*
X033158Y049722D01*
X033158Y050582D02*
X033064Y050582D01*
X033018Y050629D01*
X032928Y050629D02*
X032882Y050582D01*
X032788Y050582D01*
X032741Y050629D01*
X032835Y050722D02*
X032882Y050722D01*
X032928Y050675D01*
X032928Y050629D01*
X032882Y050722D02*
X032928Y050769D01*
X032928Y050815D01*
X032882Y050862D01*
X032788Y050862D01*
X032741Y050815D01*
X033018Y050862D02*
X033018Y050722D01*
X033111Y050769D01*
X033158Y050769D01*
X033204Y050722D01*
X033204Y050629D01*
X033158Y050582D01*
X033204Y050862D02*
X033018Y050862D01*
X033018Y051582D02*
X033018Y051629D01*
X033204Y051815D01*
X033204Y051862D01*
X033018Y051862D01*
X032928Y051815D02*
X032928Y051769D01*
X032882Y051722D01*
X032928Y051675D01*
X032928Y051629D01*
X032882Y051582D01*
X032788Y051582D01*
X032741Y051629D01*
X032835Y051722D02*
X032882Y051722D01*
X032928Y051815D02*
X032882Y051862D01*
X032788Y051862D01*
X032741Y051815D01*
X032788Y052582D02*
X032741Y052629D01*
X032788Y052582D02*
X032882Y052582D01*
X032928Y052629D01*
X032928Y052675D01*
X032882Y052722D01*
X032835Y052722D01*
X032882Y052722D02*
X032928Y052769D01*
X032928Y052815D01*
X032882Y052862D01*
X032788Y052862D01*
X032741Y052815D01*
X033018Y052815D02*
X033018Y052769D01*
X033064Y052722D01*
X033204Y052722D01*
X033204Y052815D02*
X033158Y052862D01*
X033064Y052862D01*
X033018Y052815D01*
X033204Y052815D02*
X033204Y052629D01*
X033158Y052582D01*
X033064Y052582D01*
X033018Y052629D01*
X033018Y053582D02*
X033204Y053582D01*
X033111Y053582D02*
X033111Y053862D01*
X033018Y053769D01*
X032928Y053722D02*
X032741Y053722D01*
X032882Y053862D01*
X032882Y053582D01*
X032882Y054582D02*
X032882Y054862D01*
X032741Y054722D01*
X032928Y054722D01*
X033018Y054815D02*
X033064Y054862D01*
X033158Y054862D01*
X033204Y054815D01*
X033204Y054769D01*
X033158Y054722D01*
X033204Y054675D01*
X033204Y054629D01*
X033158Y054582D01*
X033064Y054582D01*
X033018Y054629D01*
X033111Y054722D02*
X033158Y054722D01*
X033158Y055582D02*
X033064Y055582D01*
X033018Y055629D01*
X033018Y055722D02*
X033111Y055769D01*
X033158Y055769D01*
X033204Y055722D01*
X033204Y055629D01*
X033158Y055582D01*
X033018Y055722D02*
X033018Y055862D01*
X033204Y055862D01*
X032928Y055722D02*
X032741Y055722D01*
X032882Y055862D01*
X032882Y055582D01*
X032882Y056582D02*
X032882Y056862D01*
X032741Y056722D01*
X032928Y056722D01*
X033018Y056629D02*
X033204Y056815D01*
X033204Y056862D01*
X033018Y056862D01*
X033018Y056629D02*
X033018Y056582D01*
X033064Y057582D02*
X033158Y057582D01*
X033204Y057629D01*
X033204Y057815D01*
X033158Y057862D01*
X033064Y057862D01*
X033018Y057815D01*
X033018Y057769D01*
X033064Y057722D01*
X033204Y057722D01*
X033064Y057582D02*
X033018Y057629D01*
X032928Y057722D02*
X032741Y057722D01*
X032882Y057862D01*
X032882Y057582D01*
X035291Y057696D02*
X035478Y057696D01*
X035568Y057743D02*
X035614Y057696D01*
X035754Y057696D01*
X035754Y057789D02*
X035708Y057836D01*
X035614Y057836D01*
X035568Y057789D01*
X035568Y057743D01*
X035568Y057603D02*
X035614Y057556D01*
X035708Y057556D01*
X035754Y057603D01*
X035754Y057789D01*
X035432Y057836D02*
X035432Y057556D01*
X035291Y057696D02*
X035432Y057836D01*
X035432Y056836D02*
X035291Y056696D01*
X035478Y056696D01*
X035568Y056603D02*
X035568Y056556D01*
X035568Y056603D02*
X035754Y056789D01*
X035754Y056836D01*
X035568Y056836D01*
X035432Y056836D02*
X035432Y056556D01*
X035432Y055836D02*
X035291Y055696D01*
X035478Y055696D01*
X035568Y055696D02*
X035661Y055743D01*
X035708Y055743D01*
X035754Y055696D01*
X035754Y055603D01*
X035708Y055556D01*
X035614Y055556D01*
X035568Y055603D01*
X035568Y055696D02*
X035568Y055836D01*
X035754Y055836D01*
X035432Y055836D02*
X035432Y055556D01*
X035432Y054836D02*
X035291Y054696D01*
X035478Y054696D01*
X035568Y054789D02*
X035614Y054836D01*
X035708Y054836D01*
X035754Y054789D01*
X035754Y054743D01*
X035708Y054696D01*
X035754Y054649D01*
X035754Y054603D01*
X035708Y054556D01*
X035614Y054556D01*
X035568Y054603D01*
X035661Y054696D02*
X035708Y054696D01*
X035432Y054556D02*
X035432Y054836D01*
X035432Y053836D02*
X035291Y053696D01*
X035478Y053696D01*
X035568Y053743D02*
X035661Y053836D01*
X035661Y053556D01*
X035568Y053556D02*
X035754Y053556D01*
X035432Y053556D02*
X035432Y053836D01*
X035432Y052836D02*
X035478Y052789D01*
X035478Y052743D01*
X035432Y052696D01*
X035478Y052649D01*
X035478Y052603D01*
X035432Y052556D01*
X035338Y052556D01*
X035291Y052603D01*
X035385Y052696D02*
X035432Y052696D01*
X035432Y052836D02*
X035338Y052836D01*
X035291Y052789D01*
X035568Y052789D02*
X035568Y052743D01*
X035614Y052696D01*
X035754Y052696D01*
X035754Y052789D02*
X035708Y052836D01*
X035614Y052836D01*
X035568Y052789D01*
X035754Y052789D02*
X035754Y052603D01*
X035708Y052556D01*
X035614Y052556D01*
X035568Y052603D01*
X035568Y051836D02*
X035754Y051836D01*
X035754Y051789D01*
X035568Y051603D01*
X035568Y051556D01*
X035478Y051603D02*
X035432Y051556D01*
X035338Y051556D01*
X035291Y051603D01*
X035385Y051696D02*
X035432Y051696D01*
X035478Y051649D01*
X035478Y051603D01*
X035432Y051696D02*
X035478Y051743D01*
X035478Y051789D01*
X035432Y051836D01*
X035338Y051836D01*
X035291Y051789D01*
X035338Y050836D02*
X035432Y050836D01*
X035478Y050789D01*
X035478Y050743D01*
X035432Y050696D01*
X035478Y050649D01*
X035478Y050603D01*
X035432Y050556D01*
X035338Y050556D01*
X035291Y050603D01*
X035385Y050696D02*
X035432Y050696D01*
X035568Y050696D02*
X035661Y050743D01*
X035708Y050743D01*
X035754Y050696D01*
X035754Y050603D01*
X035708Y050556D01*
X035614Y050556D01*
X035568Y050603D01*
X035568Y050696D02*
X035568Y050836D01*
X035754Y050836D01*
X035338Y050836D02*
X035291Y050789D01*
X035338Y049836D02*
X035432Y049836D01*
X035478Y049789D01*
X035478Y049743D01*
X035432Y049696D01*
X035478Y049649D01*
X035478Y049603D01*
X035432Y049556D01*
X035338Y049556D01*
X035291Y049603D01*
X035385Y049696D02*
X035432Y049696D01*
X035568Y049789D02*
X035614Y049836D01*
X035708Y049836D01*
X035754Y049789D01*
X035754Y049743D01*
X035708Y049696D01*
X035754Y049649D01*
X035754Y049603D01*
X035708Y049556D01*
X035614Y049556D01*
X035568Y049603D01*
X035661Y049696D02*
X035708Y049696D01*
X035338Y049836D02*
X035291Y049789D01*
X035338Y048836D02*
X035432Y048836D01*
X035478Y048789D01*
X035478Y048743D01*
X035432Y048696D01*
X035478Y048649D01*
X035478Y048603D01*
X035432Y048556D01*
X035338Y048556D01*
X035291Y048603D01*
X035385Y048696D02*
X035432Y048696D01*
X035568Y048743D02*
X035661Y048836D01*
X035661Y048556D01*
X035568Y048556D02*
X035754Y048556D01*
X035338Y048836D02*
X035291Y048789D01*
X035338Y047836D02*
X035291Y047789D01*
X035338Y047836D02*
X035432Y047836D01*
X035478Y047789D01*
X035478Y047743D01*
X035291Y047556D01*
X035478Y047556D01*
X035568Y047603D02*
X035614Y047556D01*
X035708Y047556D01*
X035754Y047603D01*
X035754Y047789D01*
X035708Y047836D01*
X035614Y047836D01*
X035568Y047789D01*
X035568Y047743D01*
X035614Y047696D01*
X035754Y047696D01*
X035754Y046836D02*
X035568Y046836D01*
X035478Y046789D02*
X035432Y046836D01*
X035338Y046836D01*
X035291Y046789D01*
X035478Y046789D02*
X035478Y046743D01*
X035291Y046556D01*
X035478Y046556D01*
X035568Y046556D02*
X035568Y046603D01*
X035754Y046789D01*
X035754Y046836D01*
X035754Y045836D02*
X035568Y045836D01*
X035568Y045696D01*
X035661Y045743D01*
X035708Y045743D01*
X035754Y045696D01*
X035754Y045603D01*
X035708Y045556D01*
X035614Y045556D01*
X035568Y045603D01*
X035478Y045556D02*
X035291Y045556D01*
X035478Y045743D01*
X035478Y045789D01*
X035432Y045836D01*
X035338Y045836D01*
X035291Y045789D01*
X035338Y044836D02*
X035291Y044789D01*
X035338Y044836D02*
X035432Y044836D01*
X035478Y044789D01*
X035478Y044743D01*
X035291Y044556D01*
X035478Y044556D01*
X035568Y044603D02*
X035614Y044556D01*
X035708Y044556D01*
X035754Y044603D01*
X035754Y044649D01*
X035708Y044696D01*
X035661Y044696D01*
X035708Y044696D02*
X035754Y044743D01*
X035754Y044789D01*
X035708Y044836D01*
X035614Y044836D01*
X035568Y044789D01*
X035661Y043836D02*
X035661Y043556D01*
X035568Y043556D02*
X035754Y043556D01*
X035568Y043743D02*
X035661Y043836D01*
X035478Y043789D02*
X035432Y043836D01*
X035338Y043836D01*
X035291Y043789D01*
X035478Y043789D02*
X035478Y043743D01*
X035291Y043556D01*
X035478Y043556D01*
X035385Y042836D02*
X035385Y042556D01*
X035478Y042556D02*
X035291Y042556D01*
X035291Y042743D02*
X035385Y042836D01*
X035568Y042789D02*
X035568Y042743D01*
X035614Y042696D01*
X035754Y042696D01*
X035754Y042789D02*
X035708Y042836D01*
X035614Y042836D01*
X035568Y042789D01*
X035754Y042789D02*
X035754Y042603D01*
X035708Y042556D01*
X035614Y042556D01*
X035568Y042603D01*
X035568Y041836D02*
X035754Y041836D01*
X035754Y041789D01*
X035568Y041603D01*
X035568Y041556D01*
X035478Y041556D02*
X035291Y041556D01*
X035385Y041556D02*
X035385Y041836D01*
X035291Y041743D01*
X035385Y040836D02*
X035385Y040556D01*
X035478Y040556D02*
X035291Y040556D01*
X035291Y040743D02*
X035385Y040836D01*
X035568Y040836D02*
X035568Y040696D01*
X035661Y040743D01*
X035708Y040743D01*
X035754Y040696D01*
X035754Y040603D01*
X035708Y040556D01*
X035614Y040556D01*
X035568Y040603D01*
X035568Y040836D02*
X035754Y040836D01*
X035708Y039836D02*
X035754Y039789D01*
X035754Y039743D01*
X035708Y039696D01*
X035754Y039649D01*
X035754Y039603D01*
X035708Y039556D01*
X035614Y039556D01*
X035568Y039603D01*
X035478Y039556D02*
X035291Y039556D01*
X035385Y039556D02*
X035385Y039836D01*
X035291Y039743D01*
X035568Y039789D02*
X035614Y039836D01*
X035708Y039836D01*
X035708Y039696D02*
X035661Y039696D01*
X035661Y038836D02*
X035661Y038556D01*
X035568Y038556D02*
X035754Y038556D01*
X035568Y038743D02*
X035661Y038836D01*
X035385Y038836D02*
X035385Y038556D01*
X035478Y038556D02*
X035291Y038556D01*
X035291Y038743D02*
X035385Y038836D01*
X035338Y037836D02*
X035291Y037789D01*
X035291Y037743D01*
X035338Y037696D01*
X035478Y037696D01*
X035478Y037789D02*
X035432Y037836D01*
X035338Y037836D01*
X035478Y037789D02*
X035478Y037603D01*
X035432Y037556D01*
X035338Y037556D01*
X035291Y037603D01*
X035291Y036836D02*
X035478Y036836D01*
X035478Y036789D01*
X035291Y036603D01*
X035291Y036556D01*
X035291Y035836D02*
X035291Y035696D01*
X035385Y035743D01*
X035432Y035743D01*
X035478Y035696D01*
X035478Y035603D01*
X035432Y035556D01*
X035338Y035556D01*
X035291Y035603D01*
X035291Y035836D02*
X035478Y035836D01*
X035432Y034836D02*
X035478Y034789D01*
X035478Y034743D01*
X035432Y034696D01*
X035478Y034649D01*
X035478Y034603D01*
X035432Y034556D01*
X035338Y034556D01*
X035291Y034603D01*
X035385Y034696D02*
X035432Y034696D01*
X035432Y034836D02*
X035338Y034836D01*
X035291Y034789D01*
X035385Y033836D02*
X035385Y033556D01*
X035478Y033556D02*
X035291Y033556D01*
X035291Y033743D02*
X035385Y033836D01*
X035058Y033186D02*
X034964Y033186D01*
X034918Y033139D01*
X034828Y033186D02*
X034735Y033186D01*
X034782Y033186D02*
X034782Y032953D01*
X034735Y032906D01*
X034688Y032906D01*
X034641Y032953D01*
X034918Y032906D02*
X035104Y033093D01*
X035104Y033139D01*
X035058Y033186D01*
X035104Y032906D02*
X034918Y032906D01*
X005431Y048936D02*
X005251Y048936D01*
X005251Y049026D01*
X005281Y049056D01*
X005341Y049056D01*
X005371Y049026D01*
X005371Y048936D01*
X005371Y049120D02*
X005251Y049120D01*
X005251Y049180D02*
X005251Y049210D01*
X005251Y049180D02*
X005311Y049120D01*
X005281Y049273D02*
X005341Y049273D01*
X005371Y049303D01*
X005371Y049364D01*
X005341Y049394D01*
X005281Y049394D01*
X005251Y049364D01*
X005251Y049303D01*
X005281Y049273D01*
X005431Y049458D02*
X005431Y049488D01*
X005401Y049518D01*
X005251Y049518D01*
X005191Y049518D02*
X005161Y049518D01*
X005251Y049610D02*
X005251Y049670D01*
X005281Y049700D01*
X005311Y049700D01*
X005311Y049580D01*
X005281Y049580D02*
X005251Y049610D01*
X005281Y049580D02*
X005341Y049580D01*
X005371Y049610D01*
X005371Y049670D01*
X005341Y049764D02*
X005371Y049794D01*
X005371Y049885D01*
X005341Y049979D02*
X005371Y050009D01*
X005341Y049979D02*
X005221Y049979D01*
X005251Y049949D02*
X005251Y050009D01*
X005251Y049885D02*
X005251Y049794D01*
X005281Y049764D01*
X005341Y049764D01*
X005311Y048688D02*
X005311Y048568D01*
X005281Y048568D02*
X005251Y048598D01*
X005251Y048658D01*
X005281Y048688D01*
X005311Y048688D01*
X005371Y048658D02*
X005371Y048598D01*
X005341Y048568D01*
X005281Y048568D01*
X005371Y048505D02*
X005371Y048445D01*
X005371Y048475D02*
X005191Y048475D01*
X005191Y048445D01*
X005251Y048381D02*
X005251Y048291D01*
X005281Y048261D01*
X005341Y048261D01*
X005371Y048291D01*
X005371Y048381D01*
X005371Y048198D02*
X005371Y048138D01*
X005371Y048168D02*
X005251Y048168D01*
X005251Y048138D01*
X005191Y048168D02*
X005161Y048168D01*
X005281Y048074D02*
X005371Y048074D01*
X005281Y048074D02*
X005251Y048044D01*
X005251Y047984D01*
X005281Y047954D01*
X005281Y047890D02*
X005311Y047890D01*
X005311Y047770D01*
X005281Y047770D02*
X005251Y047800D01*
X005251Y047860D01*
X005281Y047890D01*
X005371Y047860D02*
X005371Y047800D01*
X005341Y047770D01*
X005281Y047770D01*
X005251Y047706D02*
X005371Y047646D01*
X005251Y047586D01*
X005251Y047337D02*
X005251Y047247D01*
X005281Y047217D01*
X005341Y047217D01*
X005371Y047247D01*
X005371Y047337D01*
X005371Y047155D02*
X005371Y047095D01*
X005371Y047125D02*
X005251Y047125D01*
X005251Y047095D01*
X005251Y047032D02*
X005251Y046972D01*
X005221Y047002D02*
X005341Y047002D01*
X005371Y047032D01*
X005341Y046908D02*
X005281Y046908D01*
X005251Y046878D01*
X005251Y046818D01*
X005281Y046788D01*
X005341Y046788D01*
X005371Y046818D01*
X005371Y046878D01*
X005341Y046908D01*
X005341Y046724D02*
X005281Y046724D01*
X005251Y046694D01*
X005251Y046604D01*
X005191Y046604D02*
X005371Y046604D01*
X005371Y046694D01*
X005341Y046724D01*
X005341Y046539D02*
X005281Y046539D01*
X005251Y046509D01*
X005251Y046449D01*
X005281Y046419D01*
X005341Y046419D01*
X005371Y046449D01*
X005371Y046509D01*
X005341Y046539D01*
X005251Y046356D02*
X005251Y046326D01*
X005311Y046266D01*
X005371Y046266D02*
X005251Y046266D01*
X005251Y046018D02*
X005251Y045928D01*
X005281Y045898D01*
X005311Y045928D01*
X005311Y045988D01*
X005341Y046018D01*
X005371Y045988D01*
X005371Y045898D01*
X005371Y045834D02*
X005251Y045834D01*
X005371Y045834D02*
X005371Y045744D01*
X005341Y045714D01*
X005251Y045714D01*
X005281Y045650D02*
X005251Y045619D01*
X005251Y045559D01*
X005281Y045529D01*
X005341Y045529D01*
X005371Y045559D01*
X005371Y045619D01*
X005341Y045650D01*
X005281Y045650D01*
X005281Y045465D02*
X005371Y045465D01*
X005371Y045405D02*
X005281Y045405D01*
X005251Y045435D01*
X005281Y045465D01*
X005281Y045405D02*
X005251Y045375D01*
X005251Y045345D01*
X005371Y045345D01*
X005341Y045281D02*
X005281Y045281D01*
X005251Y045251D01*
X005251Y045191D01*
X005281Y045161D01*
X005341Y045161D01*
X005371Y045191D01*
X005371Y045251D01*
X005341Y045281D01*
X005371Y045097D02*
X005281Y045097D01*
X005251Y045067D01*
X005251Y044977D01*
X005371Y044977D01*
X005341Y044913D02*
X005281Y044913D01*
X005251Y044883D01*
X005251Y044823D01*
X005281Y044793D01*
X005341Y044793D01*
X005371Y044823D01*
X005371Y044883D01*
X005341Y044913D01*
X005371Y044730D02*
X005341Y044700D01*
X005221Y044700D01*
X005251Y044670D02*
X005251Y044730D01*
X005251Y044606D02*
X005371Y044606D01*
X005371Y044516D01*
X005341Y044486D01*
X005251Y044486D01*
X005281Y044422D02*
X005371Y044422D01*
X005371Y044332D01*
X005341Y044302D01*
X005311Y044332D01*
X005311Y044422D01*
X005281Y044422D02*
X005251Y044392D01*
X005251Y044332D01*
X005011Y044362D02*
X004921Y044242D01*
X004901Y044292D01*
X004831Y044262D01*
X004851Y044342D01*
X004801Y044352D01*
X004871Y044432D01*
X004711Y044392D01*
X004741Y044462D01*
X004631Y044512D01*
X004741Y044562D01*
X004711Y044622D01*
X004871Y044582D01*
X005161Y047125D02*
X005191Y047125D01*
X005191Y047954D02*
X005371Y047954D01*
D16*
X005091Y048662D02*
X004901Y048662D01*
X004901Y049902D01*
X004901Y049912D02*
X004898Y049926D01*
X004892Y049939D01*
X004883Y049950D01*
X004872Y049960D01*
X004860Y049967D01*
X004846Y049971D01*
X004832Y049972D01*
X004831Y049972D02*
X004841Y049972D01*
X004831Y049972D02*
X004491Y049972D01*
X004492Y049971D02*
X004478Y049968D01*
X004465Y049962D01*
X004454Y049953D01*
X004444Y049942D01*
X004437Y049930D01*
X004433Y049916D01*
X004432Y049902D01*
X004431Y049902D02*
X004431Y048662D01*
X004901Y048662D01*
X004431Y048512D02*
X005071Y047232D01*
X004421Y047232D01*
X004491Y047072D02*
X004831Y047072D01*
X004841Y047072D01*
X004832Y047072D02*
X004846Y047071D01*
X004860Y047067D01*
X004872Y047060D01*
X004883Y047050D01*
X004892Y047039D01*
X004898Y047026D01*
X004901Y047012D01*
X004901Y047002D02*
X004901Y046992D01*
X004901Y045762D01*
X005091Y045762D01*
X005091Y045632D02*
X004421Y045632D01*
X004431Y045612D02*
X005091Y044382D01*
X004901Y044742D02*
X004901Y045612D01*
X004901Y045762D02*
X004431Y045762D01*
X004431Y047002D01*
X004432Y047002D02*
X004433Y047016D01*
X004437Y047030D01*
X004444Y047042D01*
X004454Y047053D01*
X004465Y047062D01*
X004478Y047068D01*
X004492Y047071D01*
X004951Y047062D02*
X005091Y047062D01*
X004962Y047061D02*
X004948Y047058D01*
X004935Y047052D01*
X004924Y047043D01*
X004914Y047032D01*
X004907Y047020D01*
X004903Y047006D01*
X004902Y046992D01*
X014931Y047292D02*
X014931Y052322D01*
X016431Y052322D01*
X016431Y047292D01*
X014931Y047292D01*
X015070Y047046D02*
X015520Y047046D01*
X015520Y046896D02*
X015520Y047196D01*
X015220Y046896D02*
X015070Y047046D01*
X015145Y046735D02*
X015070Y046660D01*
X015070Y046435D01*
X015520Y046435D01*
X015520Y046660D01*
X015445Y046735D01*
X015145Y046735D01*
X015070Y046275D02*
X015070Y045975D01*
X015520Y045975D01*
X015520Y046275D01*
X015295Y046125D02*
X015295Y045975D01*
X015520Y045815D02*
X015520Y045515D01*
X015070Y045515D01*
D17*
X015005Y045240D02*
X016505Y045240D01*
D18*
X015733Y041448D03*
X015733Y039298D03*
M02*
