G75*
G70*
%OFA0B0*%
%FSLAX24Y24*%
%IPPOS*%
%LPD*%
%AMOC8*
5,1,8,0,0,1.08239X$1,22.5*
%
%ADD10C,0.0000*%
%ADD11C,0.0030*%
%ADD12C,0.0010*%
%ADD13C,0.0040*%
%ADD14C,0.0080*%
%ADD15C,0.0050*%
%ADD16C,0.0060*%
%ADD17C,0.0100*%
%ADD18C,0.0020*%
D10*
X000161Y010210D02*
X000161Y041706D01*
X035661Y041710D01*
X035661Y040710D01*
X039161Y040710D01*
X039461Y040410D01*
X039461Y015010D01*
X039161Y014710D01*
X035661Y014710D01*
X035661Y013710D01*
X035661Y014710D02*
X035661Y012560D01*
X039511Y012560D01*
X039511Y010210D01*
X000161Y010210D01*
X000732Y011337D02*
X000734Y011387D01*
X000740Y011436D01*
X000750Y011485D01*
X000763Y011532D01*
X000781Y011579D01*
X000802Y011624D01*
X000826Y011667D01*
X000854Y011708D01*
X000885Y011747D01*
X000919Y011783D01*
X000956Y011817D01*
X000996Y011847D01*
X001037Y011874D01*
X001081Y011898D01*
X001126Y011918D01*
X001173Y011934D01*
X001221Y011947D01*
X001270Y011956D01*
X001320Y011961D01*
X001369Y011962D01*
X001419Y011959D01*
X001468Y011952D01*
X001517Y011941D01*
X001564Y011927D01*
X001610Y011908D01*
X001655Y011886D01*
X001698Y011861D01*
X001738Y011832D01*
X001776Y011800D01*
X001812Y011766D01*
X001845Y011728D01*
X001874Y011688D01*
X001900Y011646D01*
X001923Y011602D01*
X001942Y011556D01*
X001958Y011509D01*
X001970Y011460D01*
X001978Y011411D01*
X001982Y011362D01*
X001982Y011312D01*
X001978Y011263D01*
X001970Y011214D01*
X001958Y011165D01*
X001942Y011118D01*
X001923Y011072D01*
X001900Y011028D01*
X001874Y010986D01*
X001845Y010946D01*
X001812Y010908D01*
X001776Y010874D01*
X001738Y010842D01*
X001698Y010813D01*
X001655Y010788D01*
X001610Y010766D01*
X001564Y010747D01*
X001517Y010733D01*
X001468Y010722D01*
X001419Y010715D01*
X001369Y010712D01*
X001320Y010713D01*
X001270Y010718D01*
X001221Y010727D01*
X001173Y010740D01*
X001126Y010756D01*
X001081Y010776D01*
X001037Y010800D01*
X000996Y010827D01*
X000956Y010857D01*
X000919Y010891D01*
X000885Y010927D01*
X000854Y010966D01*
X000826Y011007D01*
X000802Y011050D01*
X000781Y011095D01*
X000763Y011142D01*
X000750Y011189D01*
X000740Y011238D01*
X000734Y011287D01*
X000732Y011337D01*
X000601Y025610D02*
X000603Y025665D01*
X000609Y025719D01*
X000619Y025773D01*
X000632Y025827D01*
X000650Y025879D01*
X000671Y025929D01*
X000696Y025978D01*
X000724Y026025D01*
X000756Y026070D01*
X000791Y026112D01*
X000828Y026152D01*
X000869Y026189D01*
X000912Y026223D01*
X000957Y026254D01*
X001005Y026281D01*
X001054Y026305D01*
X001105Y026326D01*
X001158Y026342D01*
X001211Y026355D01*
X001265Y026364D01*
X001320Y026369D01*
X001375Y026370D01*
X001430Y026367D01*
X001484Y026360D01*
X001538Y026349D01*
X001591Y026334D01*
X001642Y026316D01*
X001693Y026294D01*
X001741Y026268D01*
X001788Y026239D01*
X001832Y026207D01*
X001874Y026171D01*
X001913Y026133D01*
X001949Y026091D01*
X001982Y026048D01*
X002012Y026002D01*
X002039Y025954D01*
X002062Y025904D01*
X002081Y025853D01*
X002097Y025800D01*
X002109Y025746D01*
X002117Y025692D01*
X002121Y025637D01*
X002121Y025583D01*
X002117Y025528D01*
X002109Y025474D01*
X002097Y025420D01*
X002081Y025367D01*
X002062Y025316D01*
X002039Y025266D01*
X002012Y025218D01*
X001982Y025172D01*
X001949Y025129D01*
X001913Y025087D01*
X001874Y025049D01*
X001832Y025013D01*
X001788Y024981D01*
X001741Y024952D01*
X001693Y024926D01*
X001642Y024904D01*
X001591Y024886D01*
X001538Y024871D01*
X001484Y024860D01*
X001430Y024853D01*
X001375Y024850D01*
X001320Y024851D01*
X001265Y024856D01*
X001211Y024865D01*
X001158Y024878D01*
X001105Y024894D01*
X001054Y024915D01*
X001005Y024939D01*
X000957Y024966D01*
X000912Y024997D01*
X000869Y025031D01*
X000828Y025068D01*
X000791Y025108D01*
X000756Y025150D01*
X000724Y025195D01*
X000696Y025242D01*
X000671Y025291D01*
X000650Y025341D01*
X000632Y025393D01*
X000619Y025447D01*
X000609Y025501D01*
X000603Y025555D01*
X000601Y025610D01*
X000601Y040360D02*
X000603Y040415D01*
X000609Y040469D01*
X000619Y040523D01*
X000632Y040577D01*
X000650Y040629D01*
X000671Y040679D01*
X000696Y040728D01*
X000724Y040775D01*
X000756Y040820D01*
X000791Y040862D01*
X000828Y040902D01*
X000869Y040939D01*
X000912Y040973D01*
X000957Y041004D01*
X001005Y041031D01*
X001054Y041055D01*
X001105Y041076D01*
X001158Y041092D01*
X001211Y041105D01*
X001265Y041114D01*
X001320Y041119D01*
X001375Y041120D01*
X001430Y041117D01*
X001484Y041110D01*
X001538Y041099D01*
X001591Y041084D01*
X001642Y041066D01*
X001693Y041044D01*
X001741Y041018D01*
X001788Y040989D01*
X001832Y040957D01*
X001874Y040921D01*
X001913Y040883D01*
X001949Y040841D01*
X001982Y040798D01*
X002012Y040752D01*
X002039Y040704D01*
X002062Y040654D01*
X002081Y040603D01*
X002097Y040550D01*
X002109Y040496D01*
X002117Y040442D01*
X002121Y040387D01*
X002121Y040333D01*
X002117Y040278D01*
X002109Y040224D01*
X002097Y040170D01*
X002081Y040117D01*
X002062Y040066D01*
X002039Y040016D01*
X002012Y039968D01*
X001982Y039922D01*
X001949Y039879D01*
X001913Y039837D01*
X001874Y039799D01*
X001832Y039763D01*
X001788Y039731D01*
X001741Y039702D01*
X001693Y039676D01*
X001642Y039654D01*
X001591Y039636D01*
X001538Y039621D01*
X001484Y039610D01*
X001430Y039603D01*
X001375Y039600D01*
X001320Y039601D01*
X001265Y039606D01*
X001211Y039615D01*
X001158Y039628D01*
X001105Y039644D01*
X001054Y039665D01*
X001005Y039689D01*
X000957Y039716D01*
X000912Y039747D01*
X000869Y039781D01*
X000828Y039818D01*
X000791Y039858D01*
X000756Y039900D01*
X000724Y039945D01*
X000696Y039992D01*
X000671Y040041D01*
X000650Y040091D01*
X000632Y040143D01*
X000619Y040197D01*
X000609Y040251D01*
X000603Y040305D01*
X000601Y040360D01*
X035661Y040706D02*
X035661Y041710D01*
X037740Y011337D02*
X037742Y011387D01*
X037748Y011436D01*
X037758Y011485D01*
X037771Y011532D01*
X037789Y011579D01*
X037810Y011624D01*
X037834Y011667D01*
X037862Y011708D01*
X037893Y011747D01*
X037927Y011783D01*
X037964Y011817D01*
X038004Y011847D01*
X038045Y011874D01*
X038089Y011898D01*
X038134Y011918D01*
X038181Y011934D01*
X038229Y011947D01*
X038278Y011956D01*
X038328Y011961D01*
X038377Y011962D01*
X038427Y011959D01*
X038476Y011952D01*
X038525Y011941D01*
X038572Y011927D01*
X038618Y011908D01*
X038663Y011886D01*
X038706Y011861D01*
X038746Y011832D01*
X038784Y011800D01*
X038820Y011766D01*
X038853Y011728D01*
X038882Y011688D01*
X038908Y011646D01*
X038931Y011602D01*
X038950Y011556D01*
X038966Y011509D01*
X038978Y011460D01*
X038986Y011411D01*
X038990Y011362D01*
X038990Y011312D01*
X038986Y011263D01*
X038978Y011214D01*
X038966Y011165D01*
X038950Y011118D01*
X038931Y011072D01*
X038908Y011028D01*
X038882Y010986D01*
X038853Y010946D01*
X038820Y010908D01*
X038784Y010874D01*
X038746Y010842D01*
X038706Y010813D01*
X038663Y010788D01*
X038618Y010766D01*
X038572Y010747D01*
X038525Y010733D01*
X038476Y010722D01*
X038427Y010715D01*
X038377Y010712D01*
X038328Y010713D01*
X038278Y010718D01*
X038229Y010727D01*
X038181Y010740D01*
X038134Y010756D01*
X038089Y010776D01*
X038045Y010800D01*
X038004Y010827D01*
X037964Y010857D01*
X037927Y010891D01*
X037893Y010927D01*
X037862Y010966D01*
X037834Y011007D01*
X037810Y011050D01*
X037789Y011095D01*
X037771Y011142D01*
X037758Y011189D01*
X037748Y011238D01*
X037742Y011287D01*
X037740Y011337D01*
D11*
X025383Y037225D02*
X025260Y037348D01*
X025321Y037348D02*
X025136Y037348D01*
X025136Y037225D02*
X025136Y037595D01*
X025321Y037595D01*
X025383Y037533D01*
X025383Y037410D01*
X025321Y037348D01*
X025015Y037410D02*
X024768Y037410D01*
X024768Y037472D02*
X024768Y037225D01*
X024646Y037225D02*
X024523Y037348D01*
X024585Y037225D02*
X024461Y037225D01*
X024399Y037286D01*
X024399Y037533D01*
X024461Y037595D01*
X024585Y037595D01*
X024646Y037533D01*
X024646Y037286D01*
X024585Y037225D01*
X024278Y037225D02*
X024278Y037472D01*
X024155Y037595D01*
X024031Y037472D01*
X024031Y037225D01*
X023910Y037225D02*
X023910Y037595D01*
X024031Y037410D02*
X024278Y037410D01*
X023910Y037225D02*
X023786Y037348D01*
X023663Y037225D01*
X023663Y037595D01*
X023602Y038025D02*
X023540Y038086D01*
X023602Y038025D02*
X023725Y038025D01*
X023787Y038086D01*
X023787Y038148D01*
X023725Y038210D01*
X023602Y038210D01*
X023540Y038272D01*
X023540Y038333D01*
X023602Y038395D01*
X023725Y038395D01*
X023787Y038333D01*
X023908Y038395D02*
X024094Y038395D01*
X024155Y038333D01*
X024155Y038210D01*
X024094Y038148D01*
X023908Y038148D01*
X023908Y038025D02*
X023908Y038395D01*
X023848Y038725D02*
X023910Y038786D01*
X023910Y039095D01*
X024031Y038972D02*
X024155Y039095D01*
X024278Y038972D01*
X024278Y038725D01*
X024278Y038910D02*
X024031Y038910D01*
X024031Y038972D02*
X024031Y038725D01*
X023848Y038725D02*
X023725Y038725D01*
X023663Y038786D01*
X023663Y039095D01*
X023541Y039033D02*
X023541Y038786D01*
X023480Y038725D01*
X023356Y038725D01*
X023295Y038786D01*
X023295Y039033D01*
X023356Y039095D01*
X023480Y039095D01*
X023541Y039033D01*
X023418Y038848D02*
X023541Y038725D01*
X023418Y038395D02*
X023295Y038395D01*
X023356Y038395D02*
X023356Y038025D01*
X023295Y038025D02*
X023418Y038025D01*
X023173Y038086D02*
X023173Y038333D01*
X023111Y038395D01*
X022926Y038395D01*
X022926Y038025D01*
X023111Y038025D01*
X023173Y038086D01*
X023111Y037595D02*
X023173Y037533D01*
X023173Y037410D01*
X023111Y037348D01*
X022926Y037348D01*
X022926Y037225D02*
X022926Y037595D01*
X023111Y037595D01*
X023050Y037348D02*
X023173Y037225D01*
X024277Y038025D02*
X024277Y038395D01*
X024277Y038025D02*
X024524Y038025D01*
X024645Y038025D02*
X024645Y038272D01*
X024768Y038395D01*
X024892Y038272D01*
X024892Y038025D01*
X024892Y038210D02*
X024645Y038210D01*
X025013Y038333D02*
X025137Y038210D01*
X025137Y038025D01*
X025137Y038210D02*
X025260Y038333D01*
X025260Y038395D01*
X025013Y038395D02*
X025013Y038333D01*
X024953Y038725D02*
X025015Y038786D01*
X025015Y039095D01*
X025136Y039095D02*
X025321Y039095D01*
X025383Y039033D01*
X025383Y038910D01*
X025321Y038848D01*
X025136Y038848D01*
X025136Y038725D02*
X025136Y039095D01*
X025260Y038848D02*
X025383Y038725D01*
X025504Y038786D02*
X025566Y038725D01*
X025690Y038725D01*
X025751Y038786D01*
X025751Y038848D01*
X025690Y038910D01*
X025566Y038910D01*
X025504Y038972D01*
X025504Y039033D01*
X025566Y039095D01*
X025690Y039095D01*
X025751Y039033D01*
X025873Y038972D02*
X025996Y039095D01*
X026120Y038972D01*
X026120Y038725D01*
X026120Y038910D02*
X025873Y038910D01*
X025873Y038972D02*
X025873Y038725D01*
X025873Y038395D02*
X025750Y038395D01*
X025812Y038395D02*
X025812Y038025D01*
X025873Y038025D02*
X025750Y038025D01*
X025995Y038025D02*
X025995Y038395D01*
X026242Y038025D01*
X026242Y038395D01*
X026364Y038395D02*
X026611Y038395D01*
X026732Y038395D02*
X026732Y038025D01*
X026979Y038025D01*
X027100Y038025D02*
X027100Y038395D01*
X027286Y038395D01*
X027347Y038333D01*
X027347Y038210D01*
X027286Y038148D01*
X027100Y038148D01*
X027224Y038148D02*
X027347Y038025D01*
X027469Y038025D02*
X027469Y038395D01*
X027716Y038395D01*
X027837Y038272D02*
X027960Y038395D01*
X028084Y038272D01*
X028084Y038025D01*
X028205Y038086D02*
X028205Y038333D01*
X028267Y038395D01*
X028390Y038395D01*
X028452Y038333D01*
X028574Y038395D02*
X028574Y038025D01*
X028820Y038025D01*
X028697Y038210D02*
X028574Y038210D01*
X028452Y038086D02*
X028390Y038025D01*
X028267Y038025D01*
X028205Y038086D01*
X028084Y038210D02*
X027837Y038210D01*
X027837Y038272D02*
X027837Y038025D01*
X027592Y038210D02*
X027469Y038210D01*
X027469Y038725D02*
X027469Y039095D01*
X027346Y038972D01*
X027224Y039033D02*
X026978Y038786D01*
X027039Y038725D01*
X027163Y038725D01*
X027224Y038786D01*
X027224Y039033D01*
X027163Y039095D01*
X027039Y039095D01*
X026978Y039033D01*
X026978Y038786D01*
X026856Y038725D02*
X026609Y038725D01*
X026856Y038972D01*
X026856Y039033D01*
X026794Y039095D01*
X026671Y039095D01*
X026609Y039033D01*
X026487Y038395D02*
X026487Y038025D01*
X026732Y038210D02*
X026855Y038210D01*
X026979Y038395D02*
X026732Y038395D01*
X027346Y038725D02*
X027593Y038725D01*
X027714Y038786D02*
X027776Y038725D01*
X027899Y038725D01*
X027961Y038786D01*
X027961Y038848D01*
X027899Y038910D01*
X027838Y038910D01*
X027899Y038910D02*
X027961Y038972D01*
X027961Y039033D01*
X027899Y039095D01*
X027776Y039095D01*
X027714Y039033D01*
X028574Y038395D02*
X028820Y038395D01*
X029310Y038395D02*
X029310Y038025D01*
X029495Y038025D01*
X029557Y038086D01*
X029557Y038148D01*
X029495Y038210D01*
X029310Y038210D01*
X029310Y038395D02*
X029495Y038395D01*
X029557Y038333D01*
X029557Y038272D01*
X029495Y038210D01*
X029679Y038333D02*
X029679Y038086D01*
X029740Y038025D01*
X029864Y038025D01*
X029925Y038086D01*
X029925Y038333D01*
X029864Y038395D01*
X029740Y038395D01*
X029679Y038333D01*
X030047Y038272D02*
X030170Y038395D01*
X030294Y038272D01*
X030294Y038025D01*
X030415Y038025D02*
X030415Y038395D01*
X030600Y038395D01*
X030662Y038333D01*
X030662Y038210D01*
X030600Y038148D01*
X030415Y038148D01*
X030539Y038148D02*
X030662Y038025D01*
X030783Y038025D02*
X030783Y038395D01*
X030969Y038395D01*
X031030Y038333D01*
X031030Y038086D01*
X030969Y038025D01*
X030783Y038025D01*
X030294Y038210D02*
X030047Y038210D01*
X030047Y038272D02*
X030047Y038025D01*
X025015Y037472D02*
X025015Y037225D01*
X025015Y037472D02*
X024891Y037595D01*
X024768Y037472D01*
X024829Y038725D02*
X024953Y038725D01*
X024829Y038725D02*
X024768Y038786D01*
X024768Y039095D01*
X023173Y038972D02*
X023173Y038725D01*
X023173Y038910D02*
X022926Y038910D01*
X022926Y038972D02*
X023050Y039095D01*
X023173Y038972D01*
X022926Y038972D02*
X022926Y038725D01*
D12*
X027441Y029915D02*
X027416Y029890D01*
X027441Y029915D02*
X027491Y029915D01*
X027516Y029890D01*
X027516Y029865D01*
X027416Y029765D01*
X027516Y029765D01*
X027564Y029790D02*
X027664Y029890D01*
X027664Y029790D01*
X027639Y029765D01*
X027589Y029765D01*
X027564Y029790D01*
X027564Y029890D01*
X027589Y029915D01*
X027639Y029915D01*
X027664Y029890D01*
X027711Y029865D02*
X027761Y029915D01*
X027761Y029765D01*
X027711Y029765D02*
X027811Y029765D01*
X027858Y029765D02*
X027958Y029865D01*
X027958Y029890D01*
X027933Y029915D01*
X027883Y029915D01*
X027858Y029890D01*
X027858Y029765D02*
X027958Y029765D01*
X012369Y033955D02*
X012269Y033955D01*
X012319Y033955D02*
X012319Y034105D01*
X012269Y034055D01*
X012222Y034080D02*
X012197Y034105D01*
X012122Y034105D01*
X012122Y033955D01*
X012197Y033955D01*
X012222Y033980D01*
X012222Y034080D01*
X012074Y034105D02*
X011974Y034105D01*
X011974Y033955D01*
X012074Y033955D01*
X012024Y034030D02*
X011974Y034030D01*
X011927Y033955D02*
X011827Y033955D01*
X011827Y034105D01*
X011827Y035255D02*
X011927Y035255D01*
X011974Y035255D02*
X012074Y035255D01*
X012122Y035255D02*
X012197Y035255D01*
X012222Y035280D01*
X012222Y035380D01*
X012197Y035405D01*
X012122Y035405D01*
X012122Y035255D01*
X012024Y035330D02*
X011974Y035330D01*
X011974Y035405D02*
X011974Y035255D01*
X011827Y035255D02*
X011827Y035405D01*
X011974Y035405D02*
X012074Y035405D01*
X012269Y035380D02*
X012294Y035405D01*
X012344Y035405D01*
X012369Y035380D01*
X012369Y035355D01*
X012344Y035330D01*
X012369Y035305D01*
X012369Y035280D01*
X012344Y035255D01*
X012294Y035255D01*
X012269Y035280D01*
X012319Y035330D02*
X012344Y035330D01*
X012344Y036655D02*
X012294Y036655D01*
X012269Y036680D01*
X012222Y036680D02*
X012222Y036780D01*
X012197Y036805D01*
X012122Y036805D01*
X012122Y036655D01*
X012197Y036655D01*
X012222Y036680D01*
X012269Y036730D02*
X012319Y036755D01*
X012344Y036755D01*
X012369Y036730D01*
X012369Y036680D01*
X012344Y036655D01*
X012269Y036730D02*
X012269Y036805D01*
X012369Y036805D01*
X012074Y036805D02*
X011974Y036805D01*
X011974Y036655D01*
X012074Y036655D01*
X012024Y036730D02*
X011974Y036730D01*
X011927Y036655D02*
X011827Y036655D01*
X011827Y036805D01*
X011827Y037955D02*
X011927Y037955D01*
X011974Y037955D02*
X012074Y037955D01*
X012122Y037955D02*
X012197Y037955D01*
X012222Y037980D01*
X012222Y038080D01*
X012197Y038105D01*
X012122Y038105D01*
X012122Y037955D01*
X012024Y038030D02*
X011974Y038030D01*
X011974Y038105D02*
X011974Y037955D01*
X011827Y037955D02*
X011827Y038105D01*
X011974Y038105D02*
X012074Y038105D01*
X012269Y038105D02*
X012369Y038105D01*
X012369Y038080D01*
X012269Y037980D01*
X012269Y037955D01*
X012294Y039305D02*
X012344Y039305D01*
X012369Y039330D01*
X012369Y039430D01*
X012344Y039455D01*
X012294Y039455D01*
X012269Y039430D01*
X012269Y039405D01*
X012294Y039380D01*
X012369Y039380D01*
X012294Y039305D02*
X012269Y039330D01*
X012222Y039330D02*
X012222Y039430D01*
X012197Y039455D01*
X012122Y039455D01*
X012122Y039305D01*
X012197Y039305D01*
X012222Y039330D01*
X012074Y039305D02*
X011974Y039305D01*
X011974Y039455D01*
X012074Y039455D01*
X012024Y039380D02*
X011974Y039380D01*
X011927Y039305D02*
X011827Y039305D01*
X011827Y039455D01*
X010369Y038730D02*
X010369Y038705D01*
X010344Y038680D01*
X010294Y038680D01*
X010269Y038705D01*
X010269Y038730D01*
X010294Y038755D01*
X010344Y038755D01*
X010369Y038730D01*
X010344Y038680D02*
X010369Y038655D01*
X010369Y038630D01*
X010344Y038605D01*
X010294Y038605D01*
X010269Y038630D01*
X010269Y038655D01*
X010294Y038680D01*
X010222Y038730D02*
X010197Y038755D01*
X010122Y038755D01*
X010122Y038605D01*
X010197Y038605D01*
X010222Y038630D01*
X010222Y038730D01*
X010074Y038755D02*
X009974Y038755D01*
X009974Y038605D01*
X010074Y038605D01*
X010024Y038680D02*
X009974Y038680D01*
X009927Y038605D02*
X009827Y038605D01*
X009827Y038755D01*
X009827Y037455D02*
X009827Y037305D01*
X009927Y037305D01*
X009974Y037305D02*
X009974Y037455D01*
X010074Y037455D01*
X010122Y037455D02*
X010197Y037455D01*
X010222Y037430D01*
X010222Y037330D01*
X010197Y037305D01*
X010122Y037305D01*
X010122Y037455D01*
X010024Y037380D02*
X009974Y037380D01*
X009974Y037305D02*
X010074Y037305D01*
X010269Y037330D02*
X010294Y037305D01*
X010344Y037305D01*
X010369Y037330D01*
X010369Y037355D01*
X010344Y037380D01*
X010269Y037380D01*
X010269Y037330D01*
X010269Y037380D02*
X010319Y037430D01*
X010369Y037455D01*
X010344Y036105D02*
X010269Y036030D01*
X010369Y036030D01*
X010344Y035955D02*
X010344Y036105D01*
X010222Y036080D02*
X010197Y036105D01*
X010122Y036105D01*
X010122Y035955D01*
X010197Y035955D01*
X010222Y035980D01*
X010222Y036080D01*
X010074Y036105D02*
X009974Y036105D01*
X009974Y035955D01*
X010074Y035955D01*
X010024Y036030D02*
X009974Y036030D01*
X009927Y035955D02*
X009827Y035955D01*
X009827Y036105D01*
X009827Y034705D02*
X009827Y034555D01*
X009927Y034555D01*
X009974Y034555D02*
X010074Y034555D01*
X010122Y034555D02*
X010197Y034555D01*
X010222Y034580D01*
X010222Y034680D01*
X010197Y034705D01*
X010122Y034705D01*
X010122Y034555D01*
X010024Y034630D02*
X009974Y034630D01*
X009974Y034705D02*
X009974Y034555D01*
X009974Y034705D02*
X010074Y034705D01*
X010269Y034680D02*
X010294Y034705D01*
X010344Y034705D01*
X010369Y034680D01*
X010369Y034655D01*
X010269Y034555D01*
X010369Y034555D01*
X010294Y040255D02*
X010244Y040255D01*
X010219Y040280D01*
X010319Y040380D01*
X010319Y040280D01*
X010294Y040255D01*
X010219Y040280D02*
X010219Y040380D01*
X010244Y040405D01*
X010294Y040405D01*
X010319Y040380D01*
X010172Y040255D02*
X010072Y040255D01*
X010122Y040255D02*
X010122Y040405D01*
X010072Y040355D01*
X010024Y040380D02*
X009999Y040405D01*
X009924Y040405D01*
X009924Y040255D01*
X009999Y040255D01*
X010024Y040280D01*
X010024Y040380D01*
X009877Y040405D02*
X009777Y040405D01*
X009777Y040255D01*
X009877Y040255D01*
X009827Y040330D02*
X009777Y040330D01*
X009730Y040255D02*
X009630Y040255D01*
X009630Y040405D01*
D13*
X009059Y040606D02*
X008982Y040530D01*
X008829Y040530D01*
X008752Y040606D01*
X008752Y040683D01*
X008829Y040760D01*
X008982Y040760D01*
X009059Y040683D01*
X009059Y040606D01*
X008982Y040760D02*
X009059Y040837D01*
X009059Y040913D01*
X008982Y040990D01*
X008829Y040990D01*
X008752Y040913D01*
X008752Y040837D01*
X008829Y040760D01*
X008599Y040837D02*
X008522Y040760D01*
X008599Y040683D01*
X008599Y040606D01*
X008522Y040530D01*
X008368Y040530D01*
X008292Y040606D01*
X008138Y040530D02*
X007985Y040683D01*
X008061Y040683D02*
X007831Y040683D01*
X007831Y040530D02*
X007831Y040990D01*
X008061Y040990D01*
X008138Y040913D01*
X008138Y040760D01*
X008061Y040683D01*
X008292Y040913D02*
X008368Y040990D01*
X008522Y040990D01*
X008599Y040913D01*
X008599Y040837D01*
X008522Y040760D02*
X008445Y040760D01*
X008368Y040140D02*
X008292Y040063D01*
X008368Y040140D02*
X008522Y040140D01*
X008599Y040063D01*
X008599Y039987D01*
X008522Y039910D01*
X008599Y039833D01*
X008599Y039756D01*
X008522Y039680D01*
X008368Y039680D01*
X008292Y039756D01*
X008138Y039680D02*
X007985Y039833D01*
X008061Y039833D02*
X007831Y039833D01*
X007831Y039680D02*
X007831Y040140D01*
X008061Y040140D01*
X008138Y040063D01*
X008138Y039910D01*
X008061Y039833D01*
X008445Y039910D02*
X008522Y039910D01*
X008752Y039756D02*
X009059Y040063D01*
X009059Y040140D01*
X008752Y040140D01*
X008752Y039756D02*
X008752Y039680D01*
X008522Y039290D02*
X008599Y039213D01*
X008599Y039137D01*
X008522Y039060D01*
X008599Y038983D01*
X008599Y038906D01*
X008522Y038830D01*
X008368Y038830D01*
X008292Y038906D01*
X008138Y038830D02*
X007985Y038983D01*
X008061Y038983D02*
X007831Y038983D01*
X007831Y038830D02*
X007831Y039290D01*
X008061Y039290D01*
X008138Y039213D01*
X008138Y039060D01*
X008061Y038983D01*
X008292Y039213D02*
X008368Y039290D01*
X008522Y039290D01*
X008522Y039060D02*
X008445Y039060D01*
X008752Y039060D02*
X008905Y039213D01*
X009059Y039290D01*
X008982Y039060D02*
X008752Y039060D01*
X008752Y038906D01*
X008829Y038830D01*
X008982Y038830D01*
X009059Y038906D01*
X009059Y038983D01*
X008982Y039060D01*
X009059Y038440D02*
X008752Y038440D01*
X008752Y038210D01*
X008905Y038287D01*
X008982Y038287D01*
X009059Y038210D01*
X009059Y038056D01*
X008982Y037980D01*
X008829Y037980D01*
X008752Y038056D01*
X008599Y038056D02*
X008522Y037980D01*
X008368Y037980D01*
X008292Y038056D01*
X008138Y037980D02*
X007985Y038133D01*
X008061Y038133D02*
X007831Y038133D01*
X007831Y037980D02*
X007831Y038440D01*
X008061Y038440D01*
X008138Y038363D01*
X008138Y038210D01*
X008061Y038133D01*
X008292Y038363D02*
X008368Y038440D01*
X008522Y038440D01*
X008599Y038363D01*
X008599Y038287D01*
X008522Y038210D01*
X008599Y038133D01*
X008599Y038056D01*
X008522Y038210D02*
X008445Y038210D01*
X008368Y037590D02*
X008292Y037513D01*
X008368Y037590D02*
X008522Y037590D01*
X008599Y037513D01*
X008599Y037437D01*
X008522Y037360D01*
X008599Y037283D01*
X008599Y037206D01*
X008522Y037130D01*
X008368Y037130D01*
X008292Y037206D01*
X008138Y037130D02*
X007985Y037283D01*
X008061Y037283D02*
X007831Y037283D01*
X007831Y037130D02*
X007831Y037590D01*
X008061Y037590D01*
X008138Y037513D01*
X008138Y037360D01*
X008061Y037283D01*
X008445Y037360D02*
X008522Y037360D01*
X008752Y037360D02*
X008982Y037590D01*
X008982Y037130D01*
X009059Y037360D02*
X008752Y037360D01*
X008829Y036740D02*
X008982Y036740D01*
X009059Y036663D01*
X009059Y036587D01*
X008982Y036510D01*
X009059Y036433D01*
X009059Y036356D01*
X008982Y036280D01*
X008829Y036280D01*
X008752Y036356D01*
X008599Y036356D02*
X008522Y036280D01*
X008368Y036280D01*
X008292Y036356D01*
X008138Y036280D02*
X007985Y036433D01*
X008061Y036433D02*
X007831Y036433D01*
X007831Y036280D02*
X007831Y036740D01*
X008061Y036740D01*
X008138Y036663D01*
X008138Y036510D01*
X008061Y036433D01*
X008292Y036663D02*
X008368Y036740D01*
X008522Y036740D01*
X008599Y036663D01*
X008599Y036587D01*
X008522Y036510D01*
X008599Y036433D01*
X008599Y036356D01*
X008522Y036510D02*
X008445Y036510D01*
X008752Y036663D02*
X008829Y036740D01*
X008905Y036510D02*
X008982Y036510D01*
X008982Y035890D02*
X008829Y035890D01*
X008752Y035813D01*
X008599Y035813D02*
X008599Y035737D01*
X008522Y035660D01*
X008599Y035583D01*
X008599Y035506D01*
X008522Y035430D01*
X008368Y035430D01*
X008292Y035506D01*
X008138Y035430D02*
X007985Y035583D01*
X008061Y035583D02*
X007831Y035583D01*
X007831Y035430D02*
X007831Y035890D01*
X008061Y035890D01*
X008138Y035813D01*
X008138Y035660D01*
X008061Y035583D01*
X008292Y035813D02*
X008368Y035890D01*
X008522Y035890D01*
X008599Y035813D01*
X008522Y035660D02*
X008445Y035660D01*
X008752Y035430D02*
X009059Y035737D01*
X009059Y035813D01*
X008982Y035890D01*
X009059Y035430D02*
X008752Y035430D01*
X008905Y035040D02*
X008905Y034580D01*
X008752Y034580D02*
X009059Y034580D01*
X008752Y034887D02*
X008905Y035040D01*
X008599Y034963D02*
X008599Y034887D01*
X008522Y034810D01*
X008599Y034733D01*
X008599Y034656D01*
X008522Y034580D01*
X008368Y034580D01*
X008292Y034656D01*
X008138Y034580D02*
X007985Y034733D01*
X008061Y034733D02*
X007831Y034733D01*
X007831Y034580D02*
X007831Y035040D01*
X008061Y035040D01*
X008138Y034963D01*
X008138Y034810D01*
X008061Y034733D01*
X008292Y034963D02*
X008368Y035040D01*
X008522Y035040D01*
X008599Y034963D01*
X008522Y034810D02*
X008445Y034810D01*
X004815Y030197D02*
X004891Y030120D01*
X004891Y029967D01*
X004815Y029890D01*
X004815Y029737D02*
X004508Y029737D01*
X004431Y029660D01*
X004431Y029430D01*
X004891Y029430D01*
X004891Y029660D01*
X004815Y029737D01*
X004661Y030044D02*
X004661Y030120D01*
X004738Y030197D01*
X004815Y030197D01*
X004661Y030120D02*
X004584Y030197D01*
X004508Y030197D01*
X004431Y030120D01*
X004431Y029967D01*
X004508Y029890D01*
X005500Y027240D02*
X005730Y027240D01*
X005807Y027163D01*
X005807Y027010D01*
X005730Y026933D01*
X005500Y026933D01*
X005500Y026780D02*
X005500Y027240D01*
X005654Y026933D02*
X005807Y026780D01*
X005960Y026780D02*
X006267Y027087D01*
X006267Y027163D01*
X006191Y027240D01*
X006037Y027240D01*
X005960Y027163D01*
X005960Y026780D02*
X006267Y026780D01*
X006421Y026856D02*
X006498Y026780D01*
X006651Y026780D01*
X006728Y026856D01*
X006728Y027163D01*
X006421Y026856D01*
X006421Y027163D01*
X006498Y027240D01*
X006651Y027240D01*
X006728Y027163D01*
X006651Y026240D02*
X006498Y026240D01*
X006421Y026163D01*
X006421Y026087D01*
X006498Y026010D01*
X006728Y026010D01*
X006728Y026163D02*
X006651Y026240D01*
X006728Y026163D02*
X006728Y025856D01*
X006651Y025780D01*
X006498Y025780D01*
X006421Y025856D01*
X006267Y025780D02*
X005960Y025780D01*
X005807Y025780D02*
X005654Y025933D01*
X005730Y025933D02*
X005500Y025933D01*
X005500Y025780D02*
X005500Y026240D01*
X005730Y026240D01*
X005807Y026163D01*
X005807Y026010D01*
X005730Y025933D01*
X005960Y026087D02*
X006114Y026240D01*
X006114Y025780D01*
X006114Y025240D02*
X006114Y024780D01*
X006267Y024780D02*
X005960Y024780D01*
X005807Y024780D02*
X005654Y024933D01*
X005730Y024933D02*
X005500Y024933D01*
X005500Y024780D02*
X005500Y025240D01*
X005730Y025240D01*
X005807Y025163D01*
X005807Y025010D01*
X005730Y024933D01*
X005960Y025087D02*
X006114Y025240D01*
X006421Y025163D02*
X006421Y025087D01*
X006498Y025010D01*
X006651Y025010D01*
X006728Y024933D01*
X006728Y024856D01*
X006651Y024780D01*
X006498Y024780D01*
X006421Y024856D01*
X006421Y024933D01*
X006498Y025010D01*
X006651Y025010D02*
X006728Y025087D01*
X006728Y025163D01*
X006651Y025240D01*
X006498Y025240D01*
X006421Y025163D01*
X006498Y024240D02*
X006421Y024163D01*
X006498Y024240D02*
X006651Y024240D01*
X006728Y024163D01*
X006728Y024087D01*
X006421Y023780D01*
X006728Y023780D01*
X006267Y023780D02*
X005960Y023780D01*
X005807Y023780D02*
X005654Y023933D01*
X005730Y023933D02*
X005500Y023933D01*
X005500Y023780D02*
X005500Y024240D01*
X005730Y024240D01*
X005807Y024163D01*
X005807Y024010D01*
X005730Y023933D01*
X005960Y024087D02*
X006114Y024240D01*
X006114Y023780D01*
X006114Y023240D02*
X006114Y022780D01*
X006267Y022780D02*
X005960Y022780D01*
X005807Y022780D02*
X005654Y022933D01*
X005730Y022933D02*
X005500Y022933D01*
X005500Y022780D02*
X005500Y023240D01*
X005730Y023240D01*
X005807Y023163D01*
X005807Y023010D01*
X005730Y022933D01*
X005960Y023087D02*
X006114Y023240D01*
X006421Y023087D02*
X006574Y023240D01*
X006574Y022780D01*
X006421Y022780D02*
X006728Y022780D01*
X010131Y022817D02*
X010208Y022740D01*
X010131Y022817D02*
X010131Y022970D01*
X010208Y023047D01*
X010284Y023047D01*
X010591Y022740D01*
X010591Y023047D01*
X010515Y022587D02*
X010208Y022587D01*
X010131Y022510D01*
X010131Y022280D01*
X010591Y022280D01*
X010591Y022510D01*
X010515Y022587D01*
X004891Y014947D02*
X004891Y014640D01*
X004891Y014794D02*
X004431Y014794D01*
X004584Y014640D01*
X004508Y014487D02*
X004431Y014410D01*
X004431Y014180D01*
X004891Y014180D01*
X004891Y014410D01*
X004815Y014487D01*
X004508Y014487D01*
X022431Y019380D02*
X022791Y019620D01*
X022791Y019748D02*
X022551Y019988D01*
X022491Y019988D01*
X022431Y019928D01*
X022431Y019808D01*
X022491Y019748D01*
X022431Y019620D02*
X022791Y019380D01*
X022791Y019748D02*
X022791Y019988D01*
X025931Y019928D02*
X025931Y019808D01*
X025991Y019748D01*
X025991Y019620D02*
X025931Y019560D01*
X025931Y019440D01*
X025991Y019380D01*
X025991Y019620D02*
X026051Y019620D01*
X026291Y019380D01*
X026291Y019620D01*
X026291Y019748D02*
X026051Y019988D01*
X025991Y019988D01*
X025931Y019928D01*
X026111Y020116D02*
X026111Y020357D01*
X025991Y020485D02*
X025931Y020545D01*
X025931Y020665D01*
X025991Y020725D01*
X026051Y020725D01*
X026291Y020485D01*
X026291Y020725D01*
X026231Y020853D02*
X026291Y020913D01*
X026291Y021033D01*
X026231Y021093D01*
X026171Y021093D01*
X026111Y021033D01*
X026111Y020973D01*
X026111Y021033D02*
X026051Y021093D01*
X025991Y021093D01*
X025931Y021033D01*
X025931Y020913D01*
X025991Y020853D01*
X026111Y021221D02*
X026111Y021461D01*
X025991Y021590D02*
X025931Y021650D01*
X025931Y021770D01*
X025991Y021830D01*
X026051Y021830D01*
X026291Y021590D01*
X026291Y021830D01*
X026231Y021958D02*
X025991Y022198D01*
X026231Y022198D01*
X026291Y022138D01*
X026291Y022018D01*
X026231Y021958D01*
X025991Y021958D01*
X025931Y022018D01*
X025931Y022138D01*
X025991Y022198D01*
X025931Y022326D02*
X026111Y022326D01*
X026051Y022446D01*
X026051Y022506D01*
X026111Y022566D01*
X026231Y022566D01*
X026291Y022506D01*
X026291Y022386D01*
X026231Y022326D01*
X025931Y022326D02*
X025931Y022566D01*
X026051Y022695D02*
X025931Y022815D01*
X026291Y022815D01*
X026291Y022695D02*
X026291Y022935D01*
X026291Y019988D02*
X026291Y019748D01*
X006682Y040530D02*
X006529Y040530D01*
X006452Y040606D01*
X006299Y040606D02*
X006222Y040530D01*
X006068Y040530D01*
X005992Y040606D01*
X005838Y040530D02*
X005685Y040683D01*
X005761Y040683D02*
X005531Y040683D01*
X005531Y040530D02*
X005531Y040990D01*
X005761Y040990D01*
X005838Y040913D01*
X005838Y040760D01*
X005761Y040683D01*
X005992Y040913D02*
X006068Y040990D01*
X006222Y040990D01*
X006299Y040913D01*
X006299Y040837D01*
X006222Y040760D01*
X006299Y040683D01*
X006299Y040606D01*
X006222Y040760D02*
X006145Y040760D01*
X006452Y040837D02*
X006529Y040760D01*
X006759Y040760D01*
X006759Y040913D02*
X006682Y040990D01*
X006529Y040990D01*
X006452Y040913D01*
X006452Y040837D01*
X006759Y040913D02*
X006759Y040606D01*
X006682Y040530D01*
X005009Y041556D02*
X004932Y041480D01*
X004779Y041480D01*
X004702Y041556D01*
X005009Y041863D01*
X005009Y041556D01*
X004702Y041556D02*
X004702Y041863D01*
X004779Y041940D01*
X004932Y041940D01*
X005009Y041863D01*
X004549Y041710D02*
X004242Y041710D01*
X004472Y041940D01*
X004472Y041480D01*
X004088Y041480D02*
X003935Y041633D01*
X004011Y041633D02*
X003781Y041633D01*
X003781Y041480D02*
X003781Y041940D01*
X004011Y041940D01*
X004088Y041863D01*
X004088Y041710D01*
X004011Y041633D01*
D14*
X002661Y038410D02*
X006661Y038410D01*
X006661Y029410D01*
X005661Y028410D01*
X002661Y028410D01*
X002661Y038410D01*
X004411Y033660D02*
X004411Y033160D01*
X003786Y033410D02*
X005536Y033410D01*
X008361Y031260D02*
X012361Y031260D01*
X012361Y022260D01*
X011361Y021260D01*
X008361Y021260D01*
X008361Y031260D01*
X011116Y034266D02*
X011116Y035053D01*
X011668Y035053D01*
X011943Y034935D02*
X011943Y034660D01*
X012179Y034896D01*
X012179Y034424D01*
X011943Y034660D01*
X011943Y034384D01*
X011668Y034266D02*
X011116Y034266D01*
X011006Y034866D02*
X010455Y034866D01*
X010179Y035024D02*
X010179Y035496D01*
X009943Y035260D01*
X010179Y035024D01*
X009943Y034984D02*
X009943Y035260D01*
X009943Y035535D01*
X009668Y035653D02*
X009116Y035653D01*
X009116Y034866D01*
X009668Y034866D01*
X010455Y035653D02*
X011006Y035653D01*
X011006Y034866D01*
X011116Y035566D02*
X011116Y036353D01*
X011668Y036353D01*
X011943Y036235D02*
X011943Y035960D01*
X012179Y036196D01*
X012179Y035724D01*
X011943Y035960D01*
X011943Y035684D01*
X011668Y035566D02*
X011116Y035566D01*
X011006Y036266D02*
X010455Y036266D01*
X010179Y036424D02*
X010179Y036896D01*
X009943Y036660D01*
X010179Y036424D01*
X009943Y036384D02*
X009943Y036660D01*
X009943Y036935D01*
X009668Y037053D02*
X009116Y037053D01*
X009116Y036266D01*
X009668Y036266D01*
X010455Y037053D02*
X011006Y037053D01*
X011006Y036266D01*
X011116Y036966D02*
X011116Y037753D01*
X011668Y037753D01*
X011943Y037635D02*
X011943Y037360D01*
X012179Y037596D01*
X012179Y037124D01*
X011943Y037360D01*
X011943Y037084D01*
X011668Y036966D02*
X011116Y036966D01*
X011006Y037616D02*
X010455Y037616D01*
X010179Y037774D02*
X010179Y038246D01*
X009943Y038010D01*
X010179Y037774D01*
X009943Y037734D02*
X009943Y038010D01*
X009943Y038285D01*
X009668Y038403D02*
X009116Y038403D01*
X009116Y037616D01*
X009668Y037616D01*
X010455Y038403D02*
X011006Y038403D01*
X011006Y037616D01*
X011116Y038266D02*
X011116Y039053D01*
X011668Y039053D01*
X011943Y038935D02*
X011943Y038660D01*
X012179Y038896D01*
X012179Y038424D01*
X011943Y038660D01*
X011943Y038384D01*
X011668Y038266D02*
X011116Y038266D01*
X011006Y038916D02*
X010455Y038916D01*
X010179Y039074D02*
X010179Y039546D01*
X009943Y039310D01*
X010179Y039074D01*
X009943Y039034D02*
X009943Y039310D01*
X009943Y039585D01*
X009668Y039703D02*
X009116Y039703D01*
X009116Y038916D01*
X009668Y038916D01*
X010455Y039703D02*
X011006Y039703D01*
X011006Y038916D01*
X011116Y039616D02*
X011116Y040403D01*
X011668Y040403D01*
X011943Y040285D02*
X011943Y040010D01*
X012179Y040246D01*
X012179Y039774D01*
X011943Y040010D01*
X011943Y039734D01*
X011668Y039616D02*
X011116Y039616D01*
X010956Y040566D02*
X010405Y040566D01*
X010129Y040724D02*
X010129Y041196D01*
X009893Y040960D01*
X010129Y040724D01*
X009893Y040684D02*
X009893Y040960D01*
X009893Y041235D01*
X009618Y041353D02*
X009066Y041353D01*
X009066Y040566D01*
X009618Y040566D01*
X010405Y041353D02*
X010956Y041353D01*
X010956Y040566D01*
X012455Y040403D02*
X013006Y040403D01*
X013006Y039616D01*
X012455Y039616D01*
X012455Y039053D02*
X013006Y039053D01*
X013006Y038266D01*
X012455Y038266D01*
X012455Y037753D02*
X013006Y037753D01*
X013006Y036966D01*
X012455Y036966D01*
X012455Y036353D02*
X013006Y036353D01*
X013006Y035566D01*
X012455Y035566D01*
X012455Y035053D02*
X013006Y035053D01*
X013006Y034266D01*
X012455Y034266D01*
X010111Y026510D02*
X010111Y026010D01*
X009486Y026260D02*
X011236Y026260D01*
X006661Y023160D02*
X002661Y023160D01*
X002661Y013160D01*
X005661Y013160D01*
X006661Y014160D01*
X006661Y023160D01*
X005536Y018160D02*
X003786Y018160D01*
X004411Y017910D02*
X004411Y018410D01*
X034161Y039460D02*
X034411Y039210D01*
X034911Y039210D01*
X035161Y039460D01*
X035161Y039960D01*
X034911Y040210D01*
X035161Y040460D01*
X035161Y040960D01*
X034911Y041210D01*
X034411Y041210D01*
X034161Y040960D01*
X034161Y040460D01*
X034411Y040210D01*
X034161Y039960D01*
X034161Y039460D01*
D15*
X033916Y039355D02*
X033841Y039430D01*
X033466Y039430D01*
X033466Y039355D02*
X033466Y039505D01*
X033466Y039665D02*
X033466Y039890D01*
X033541Y039965D01*
X033691Y039965D01*
X033766Y039890D01*
X033766Y039665D01*
X033916Y039665D02*
X033466Y039665D01*
X033616Y040125D02*
X033466Y040276D01*
X033916Y040276D01*
X033916Y040426D02*
X033916Y040125D01*
X033916Y039355D02*
X033916Y039280D01*
X033841Y039205D01*
X028441Y040300D02*
X028441Y040310D01*
X028441Y040650D01*
X028441Y040649D02*
X028438Y040663D01*
X028432Y040676D01*
X028423Y040687D01*
X028412Y040697D01*
X028400Y040704D01*
X028386Y040708D01*
X028372Y040709D01*
X028371Y040710D02*
X027131Y040710D01*
X027131Y040240D01*
X028371Y040240D01*
X028381Y040240D02*
X028395Y040243D01*
X028408Y040249D01*
X028419Y040258D01*
X028429Y040269D01*
X028436Y040281D01*
X028440Y040295D01*
X028441Y040309D01*
X027131Y040240D02*
X027131Y040050D01*
X026981Y040710D02*
X025701Y040070D01*
X025701Y040720D01*
X025541Y040650D02*
X025541Y040310D01*
X025541Y040300D01*
X025541Y040309D02*
X025540Y040295D01*
X025536Y040281D01*
X025529Y040269D01*
X025519Y040258D01*
X025508Y040249D01*
X025495Y040243D01*
X025481Y040240D01*
X025471Y040240D02*
X025461Y040240D01*
X024231Y040240D01*
X024231Y040050D01*
X024101Y040050D02*
X024101Y040720D01*
X024081Y040710D02*
X022851Y040050D01*
X023211Y040240D02*
X024081Y040240D01*
X024231Y040240D02*
X024231Y040710D01*
X025471Y040710D01*
X025472Y040709D02*
X025486Y040708D01*
X025500Y040704D01*
X025512Y040697D01*
X025523Y040687D01*
X025532Y040676D01*
X025538Y040663D01*
X025541Y040649D01*
X025531Y040190D02*
X025531Y040050D01*
X025531Y040179D02*
X025528Y040193D01*
X025522Y040206D01*
X025513Y040217D01*
X025502Y040227D01*
X025490Y040234D01*
X025476Y040238D01*
X025462Y040239D01*
X010486Y026510D02*
X010486Y026010D01*
X010111Y026260D01*
X010486Y026510D01*
X010486Y026472D02*
X010429Y026472D01*
X010486Y026423D02*
X010356Y026423D01*
X010284Y026375D02*
X010486Y026375D01*
X010486Y026326D02*
X010211Y026326D01*
X010138Y026278D02*
X010486Y026278D01*
X010486Y026229D02*
X010157Y026229D01*
X010230Y026181D02*
X010486Y026181D01*
X010486Y026132D02*
X010303Y026132D01*
X010376Y026083D02*
X010486Y026083D01*
X010486Y026035D02*
X010449Y026035D01*
X004786Y033160D02*
X004411Y033410D01*
X004786Y033660D01*
X004786Y033160D01*
X004786Y033171D02*
X004770Y033171D01*
X004786Y033219D02*
X004697Y033219D01*
X004624Y033268D02*
X004786Y033268D01*
X004786Y033316D02*
X004551Y033316D01*
X004479Y033365D02*
X004786Y033365D01*
X004786Y033413D02*
X004417Y033413D01*
X004490Y033462D02*
X004786Y033462D01*
X004786Y033511D02*
X004562Y033511D01*
X004635Y033559D02*
X004786Y033559D01*
X004786Y033608D02*
X004708Y033608D01*
X004781Y033656D02*
X004786Y033656D01*
X004786Y018410D02*
X004411Y018160D01*
X004786Y017910D01*
X004786Y018410D01*
X004786Y018365D02*
X004719Y018365D01*
X004786Y018316D02*
X004646Y018316D01*
X004574Y018268D02*
X004786Y018268D01*
X004786Y018219D02*
X004501Y018219D01*
X004428Y018171D02*
X004786Y018171D01*
X004786Y018122D02*
X004467Y018122D01*
X004540Y018074D02*
X004786Y018074D01*
X004786Y018025D02*
X004613Y018025D01*
X004686Y017977D02*
X004786Y017977D01*
X004786Y017928D02*
X004759Y017928D01*
X000570Y012321D02*
X039153Y012321D01*
D16*
X002970Y013267D02*
X002854Y013150D01*
X002620Y013150D01*
X002503Y013267D01*
X002271Y013267D02*
X002154Y013150D01*
X001920Y013150D01*
X001804Y013267D01*
X001571Y013267D02*
X001454Y013150D01*
X001221Y013150D01*
X001104Y013267D01*
X001104Y013851D01*
X001571Y013851D02*
X001571Y013267D01*
X001920Y013500D02*
X001804Y013617D01*
X001804Y013734D01*
X001920Y013851D01*
X002154Y013851D01*
X002271Y013734D01*
X002503Y013734D02*
X002620Y013851D01*
X002854Y013851D01*
X002970Y013734D01*
X002970Y013617D01*
X002854Y013500D01*
X002970Y013384D01*
X002970Y013267D01*
X002854Y013500D02*
X002737Y013500D01*
X002271Y013384D02*
X002154Y013500D01*
X001920Y013500D01*
X002271Y013384D02*
X002271Y013267D01*
X002037Y013033D02*
X002037Y013967D01*
D17*
X023061Y019360D02*
X023811Y019360D01*
X023811Y024360D01*
X025561Y024360D01*
X025561Y019360D01*
X023811Y019360D01*
X023061Y019360D02*
X023061Y024360D01*
X023811Y024360D01*
D18*
X023815Y039770D02*
X023815Y039890D01*
X023845Y039890D01*
X023875Y039860D01*
X023905Y039890D01*
X023935Y039860D01*
X023935Y039770D01*
X023875Y039770D02*
X023875Y039860D01*
X023999Y039860D02*
X023999Y039800D01*
X024029Y039770D01*
X024089Y039770D01*
X024119Y039800D01*
X024119Y039860D01*
X024089Y039890D01*
X024029Y039890D01*
X023999Y039860D01*
X024183Y039890D02*
X024183Y039800D01*
X024213Y039770D01*
X024303Y039770D01*
X024303Y039890D01*
X024367Y039860D02*
X024397Y039890D01*
X024487Y039890D01*
X024457Y039830D02*
X024487Y039800D01*
X024457Y039770D01*
X024367Y039770D01*
X024397Y039830D02*
X024367Y039860D01*
X024397Y039830D02*
X024457Y039830D01*
X024735Y039830D02*
X024795Y039890D01*
X024825Y039890D01*
X024889Y039860D02*
X024889Y039800D01*
X024919Y039770D01*
X024979Y039770D01*
X025009Y039800D01*
X025009Y039860D01*
X024979Y039890D01*
X024919Y039890D01*
X024889Y039860D01*
X024735Y039890D02*
X024735Y039770D01*
X025073Y039770D02*
X025163Y039770D01*
X025193Y039800D01*
X025193Y039860D01*
X025163Y039890D01*
X025073Y039890D01*
X025073Y039950D02*
X025073Y039770D01*
X025257Y039800D02*
X025287Y039770D01*
X025347Y039770D01*
X025377Y039800D01*
X025377Y039860D01*
X025347Y039890D01*
X025287Y039890D01*
X025257Y039860D01*
X025257Y039800D01*
X025441Y039890D02*
X025501Y039890D01*
X025471Y039920D02*
X025471Y039800D01*
X025501Y039770D01*
X025564Y039770D02*
X025624Y039770D01*
X025594Y039770D02*
X025594Y039890D01*
X025564Y039890D01*
X025594Y039950D02*
X025594Y039980D01*
X025687Y039860D02*
X025687Y039800D01*
X025717Y039770D01*
X025807Y039770D01*
X025807Y039890D02*
X025717Y039890D01*
X025687Y039860D01*
X026055Y039890D02*
X026115Y039770D01*
X026175Y039890D01*
X026239Y039860D02*
X026269Y039890D01*
X026329Y039890D01*
X026359Y039860D01*
X026359Y039830D01*
X026239Y039830D01*
X026239Y039800D02*
X026239Y039860D01*
X026239Y039800D02*
X026269Y039770D01*
X026329Y039770D01*
X026423Y039770D02*
X026423Y039950D01*
X026453Y039890D02*
X026513Y039890D01*
X026543Y039860D01*
X026543Y039770D01*
X026607Y039770D02*
X026667Y039770D01*
X026637Y039770D02*
X026637Y039890D01*
X026607Y039890D01*
X026637Y039950D02*
X026637Y039980D01*
X026730Y039860D02*
X026730Y039800D01*
X026760Y039770D01*
X026850Y039770D01*
X026914Y039770D02*
X026974Y039770D01*
X026944Y039770D02*
X026944Y039950D01*
X026914Y039950D01*
X026850Y039890D02*
X026760Y039890D01*
X026730Y039860D01*
X026453Y039890D02*
X026423Y039860D01*
X027037Y039860D02*
X027067Y039890D01*
X027127Y039890D01*
X027157Y039860D01*
X027157Y039830D01*
X027037Y039830D01*
X027037Y039800D02*
X027037Y039860D01*
X027037Y039800D02*
X027067Y039770D01*
X027127Y039770D01*
X027405Y039770D02*
X027495Y039770D01*
X027525Y039800D01*
X027525Y039860D01*
X027495Y039890D01*
X027405Y039890D01*
X027405Y039710D01*
X027589Y039770D02*
X027589Y039890D01*
X027589Y039830D02*
X027649Y039890D01*
X027679Y039890D01*
X027743Y039860D02*
X027743Y039800D01*
X027773Y039770D01*
X027833Y039770D01*
X027863Y039800D01*
X027863Y039860D01*
X027833Y039890D01*
X027773Y039890D01*
X027743Y039860D01*
X027927Y039710D02*
X027957Y039710D01*
X027987Y039740D01*
X027987Y039890D01*
X027987Y039950D02*
X027987Y039980D01*
X028080Y039890D02*
X028140Y039890D01*
X028170Y039860D01*
X028170Y039830D01*
X028050Y039830D01*
X028050Y039860D02*
X028080Y039890D01*
X028050Y039860D02*
X028050Y039800D01*
X028080Y039770D01*
X028140Y039770D01*
X028234Y039800D02*
X028264Y039770D01*
X028354Y039770D01*
X028448Y039800D02*
X028478Y039770D01*
X028448Y039800D02*
X028448Y039920D01*
X028418Y039890D02*
X028478Y039890D01*
X028354Y039890D02*
X028264Y039890D01*
X028234Y039860D01*
X028234Y039800D01*
X023751Y039800D02*
X023751Y039860D01*
X023721Y039890D01*
X023661Y039890D01*
X023631Y039860D01*
X023631Y039800D01*
X023661Y039770D01*
X023721Y039770D01*
X023751Y039800D01*
X023566Y039770D02*
X023566Y039860D01*
X023536Y039890D01*
X023446Y039890D01*
X023446Y039770D01*
X023382Y039800D02*
X023382Y039860D01*
X023352Y039890D01*
X023292Y039890D01*
X023262Y039860D01*
X023262Y039800D01*
X023292Y039770D01*
X023352Y039770D01*
X023382Y039800D01*
X023200Y039770D02*
X023170Y039800D01*
X023170Y039920D01*
X023140Y039890D02*
X023200Y039890D01*
X023075Y039890D02*
X023075Y039770D01*
X022985Y039770D01*
X022955Y039800D01*
X022955Y039890D01*
X022891Y039860D02*
X022891Y039770D01*
X022801Y039770D01*
X022771Y039800D01*
X022801Y039830D01*
X022891Y039830D01*
X022891Y039860D02*
X022861Y039890D01*
X022801Y039890D01*
X022831Y040130D02*
X022711Y040220D01*
X022761Y040240D01*
X022731Y040310D01*
X022811Y040290D01*
X022821Y040340D01*
X022901Y040270D01*
X022861Y040430D01*
X022931Y040400D01*
X022981Y040510D01*
X023031Y040400D01*
X023091Y040430D01*
X023051Y040270D01*
M02*
