G75*
G70*
%OFA0B0*%
%FSLAX24Y24*%
%IPPOS*%
%LPD*%
%AMOC8*
5,1,8,0,0,1.08239X$1,22.5*
%
%ADD10C,0.0554*%
%ADD11C,0.0520*%
%ADD12C,0.0630*%
%ADD13R,0.0800X0.0260*%
%ADD14R,0.0512X0.0591*%
%ADD15R,0.2550X0.0600*%
%ADD16C,0.0594*%
%ADD17C,0.0740*%
%ADD18C,0.0396*%
%ADD19C,0.0120*%
%ADD20C,0.0357*%
%ADD21C,0.0160*%
%ADD22C,0.0500*%
D10*
X020684Y013360D02*
X021238Y013360D01*
X021238Y014360D02*
X020684Y014360D01*
X020684Y015360D02*
X021238Y015360D01*
X021238Y016360D02*
X020684Y016360D01*
X020684Y017360D02*
X021238Y017360D01*
X021238Y018360D02*
X020684Y018360D01*
X020684Y019360D02*
X021238Y019360D01*
X021238Y020360D02*
X020684Y020360D01*
X020684Y021360D02*
X021238Y021360D01*
X021238Y022360D02*
X020684Y022360D01*
X020684Y023360D02*
X021238Y023360D01*
X021238Y024360D02*
X020684Y024360D01*
X020684Y025360D02*
X021238Y025360D01*
X021238Y026360D02*
X020684Y026360D01*
X020684Y027360D02*
X021238Y027360D01*
X021238Y028360D02*
X020684Y028360D01*
X020684Y029360D02*
X021238Y029360D01*
X021238Y030360D02*
X020684Y030360D01*
X020684Y031360D02*
X021238Y031360D01*
X021238Y032360D02*
X020684Y032360D01*
X020684Y033360D02*
X021238Y033360D01*
X021238Y034360D02*
X020684Y034360D01*
X020684Y035360D02*
X021238Y035360D01*
X021238Y036360D02*
X020684Y036360D01*
X020684Y037360D02*
X021238Y037360D01*
X021238Y038360D02*
X020684Y038360D01*
X020684Y039360D02*
X021238Y039360D01*
X021238Y040360D02*
X020684Y040360D01*
X032684Y040360D02*
X033238Y040360D01*
X033238Y039360D02*
X032684Y039360D01*
X032684Y038360D02*
X033238Y038360D01*
X033238Y037360D02*
X032684Y037360D01*
X032684Y036360D02*
X033238Y036360D01*
X033238Y035360D02*
X032684Y035360D01*
X032684Y034360D02*
X033238Y034360D01*
X033238Y033360D02*
X032684Y033360D01*
X032684Y032360D02*
X033238Y032360D01*
X033238Y031360D02*
X032684Y031360D01*
X032684Y030360D02*
X033238Y030360D01*
X033238Y029360D02*
X032684Y029360D01*
X032684Y028360D02*
X033238Y028360D01*
X033238Y027360D02*
X032684Y027360D01*
X032684Y026360D02*
X033238Y026360D01*
X033238Y025360D02*
X032684Y025360D01*
X032684Y024360D02*
X033238Y024360D01*
X033238Y023360D02*
X032684Y023360D01*
X032684Y022360D02*
X033238Y022360D01*
X033238Y021360D02*
X032684Y021360D01*
X032684Y020360D02*
X033238Y020360D01*
X033238Y019360D02*
X032684Y019360D01*
X032684Y018360D02*
X033238Y018360D01*
X033238Y017360D02*
X032684Y017360D01*
X032684Y016360D02*
X033238Y016360D01*
X033238Y015360D02*
X032684Y015360D01*
X032684Y014360D02*
X033238Y014360D01*
X033238Y013360D02*
X032684Y013360D01*
X028961Y011637D02*
X028961Y011083D01*
X027961Y011083D02*
X027961Y011637D01*
X026961Y011637D02*
X026961Y011083D01*
X025961Y011083D02*
X025961Y011637D01*
X024961Y011637D02*
X024961Y011083D01*
X023961Y011083D02*
X023961Y011637D01*
D11*
X012121Y021760D02*
X011601Y021760D01*
X011601Y022760D02*
X012121Y022760D01*
X012121Y023760D02*
X011601Y023760D01*
X011601Y024760D02*
X012121Y024760D01*
X012121Y025760D02*
X011601Y025760D01*
X011601Y026760D02*
X012121Y026760D01*
X012121Y027760D02*
X011601Y027760D01*
X011601Y028760D02*
X012121Y028760D01*
X012121Y029760D02*
X011601Y029760D01*
X011601Y030760D02*
X012121Y030760D01*
X009121Y030760D02*
X008601Y030760D01*
X008601Y029760D02*
X009121Y029760D01*
X009121Y028760D02*
X008601Y028760D01*
X008601Y027760D02*
X009121Y027760D01*
X009121Y026760D02*
X008601Y026760D01*
X008601Y025760D02*
X009121Y025760D01*
X009121Y024760D02*
X008601Y024760D01*
X008601Y023760D02*
X009121Y023760D01*
X009121Y022760D02*
X008601Y022760D01*
X008601Y021760D02*
X009121Y021760D01*
X006421Y021660D02*
X005901Y021660D01*
X005901Y022660D02*
X006421Y022660D01*
X006421Y020660D02*
X005901Y020660D01*
X005901Y019660D02*
X006421Y019660D01*
X006421Y018660D02*
X005901Y018660D01*
X005901Y017660D02*
X006421Y017660D01*
X006421Y016660D02*
X005901Y016660D01*
X005901Y015660D02*
X006421Y015660D01*
X006421Y014660D02*
X005901Y014660D01*
X005901Y013660D02*
X006421Y013660D01*
X003421Y013660D02*
X002901Y013660D01*
X002901Y014660D02*
X003421Y014660D01*
X003421Y015660D02*
X002901Y015660D01*
X002901Y016660D02*
X003421Y016660D01*
X003421Y017660D02*
X002901Y017660D01*
X002901Y018660D02*
X003421Y018660D01*
X003421Y019660D02*
X002901Y019660D01*
X002901Y020660D02*
X003421Y020660D01*
X003421Y021660D02*
X002901Y021660D01*
X002901Y022660D02*
X003421Y022660D01*
X003421Y028910D02*
X002901Y028910D01*
X002901Y029910D02*
X003421Y029910D01*
X003421Y030910D02*
X002901Y030910D01*
X002901Y031910D02*
X003421Y031910D01*
X003421Y032910D02*
X002901Y032910D01*
X002901Y033910D02*
X003421Y033910D01*
X003421Y034910D02*
X002901Y034910D01*
X002901Y035910D02*
X003421Y035910D01*
X003421Y036910D02*
X002901Y036910D01*
X002901Y037910D02*
X003421Y037910D01*
X005901Y037910D02*
X006421Y037910D01*
X006421Y036910D02*
X005901Y036910D01*
X005901Y035910D02*
X006421Y035910D01*
X006421Y034910D02*
X005901Y034910D01*
X005901Y033910D02*
X006421Y033910D01*
X006421Y032910D02*
X005901Y032910D01*
X005901Y031910D02*
X006421Y031910D01*
X006421Y030910D02*
X005901Y030910D01*
X005901Y029910D02*
X006421Y029910D01*
X006421Y028910D02*
X005901Y028910D01*
D12*
X005507Y011966D02*
X005507Y011337D01*
X006507Y011337D02*
X006507Y011966D01*
X007507Y011966D02*
X007507Y011337D01*
X008507Y011337D02*
X008507Y011966D01*
X009507Y011966D02*
X009507Y011337D01*
X010507Y011337D02*
X010507Y011966D01*
X011507Y011966D02*
X011507Y011337D01*
X012507Y011337D02*
X012507Y011966D01*
X013507Y011966D02*
X013507Y011337D01*
X014507Y011337D02*
X014507Y011966D01*
X015507Y011966D02*
X015507Y011337D01*
X016507Y011337D02*
X016507Y011966D01*
X017507Y011966D02*
X017507Y011337D01*
X018507Y011337D02*
X018507Y011966D01*
X019507Y011966D02*
X019507Y011337D01*
X004507Y011337D02*
X004507Y011966D01*
D13*
X014301Y017360D03*
X014301Y017860D03*
X014301Y018360D03*
X014301Y018860D03*
X014301Y019360D03*
X014301Y019860D03*
X014301Y020360D03*
X014301Y020860D03*
X014301Y022260D03*
X014301Y022760D03*
X014301Y023260D03*
X014301Y023760D03*
X014301Y024260D03*
X014301Y024760D03*
X014301Y025260D03*
X014301Y025760D03*
X014301Y027260D03*
X014301Y027760D03*
X014301Y028260D03*
X014301Y028760D03*
X014301Y029260D03*
X014301Y029760D03*
X014301Y030260D03*
X014301Y030760D03*
X014351Y032310D03*
X014351Y032810D03*
X014351Y033310D03*
X014351Y033810D03*
X014351Y034310D03*
X014351Y034810D03*
X014351Y035310D03*
X014351Y035810D03*
X014301Y037260D03*
X014301Y037760D03*
X014301Y038260D03*
X014301Y038760D03*
X014301Y039260D03*
X014301Y039760D03*
X014301Y040260D03*
X014301Y040760D03*
X016721Y040760D03*
X016721Y040260D03*
X016721Y039760D03*
X016721Y039260D03*
X016721Y038760D03*
X016721Y038260D03*
X016721Y037760D03*
X016721Y037260D03*
X016771Y035810D03*
X016771Y035310D03*
X016771Y034810D03*
X016771Y034310D03*
X016771Y033810D03*
X016771Y033310D03*
X016771Y032810D03*
X016771Y032310D03*
X016721Y030760D03*
X016721Y030260D03*
X016721Y029760D03*
X016721Y029260D03*
X016721Y028760D03*
X016721Y028260D03*
X016721Y027760D03*
X016721Y027260D03*
X016721Y025760D03*
X016721Y025260D03*
X016721Y024760D03*
X016721Y024260D03*
X016721Y023760D03*
X016721Y023260D03*
X016721Y022760D03*
X016721Y022260D03*
X016721Y020860D03*
X016721Y020360D03*
X016721Y019860D03*
X016721Y019360D03*
X016721Y018860D03*
X016721Y018360D03*
X016721Y017860D03*
X016721Y017360D03*
D14*
X007685Y023760D03*
X006937Y023760D03*
X006937Y024760D03*
X007685Y024760D03*
X007685Y025760D03*
X006937Y025760D03*
X006937Y026760D03*
X007685Y026760D03*
X007685Y027760D03*
X006937Y027760D03*
X001985Y028910D03*
X001237Y028910D03*
X001237Y029910D03*
X001985Y029910D03*
X001985Y030910D03*
X001237Y030910D03*
X001237Y031910D03*
X001985Y031910D03*
X001985Y032910D03*
X001237Y032910D03*
X001237Y033910D03*
X001985Y033910D03*
X001985Y034910D03*
X001237Y034910D03*
X001237Y035910D03*
X001985Y035910D03*
X001985Y036910D03*
X001237Y036910D03*
X001237Y037910D03*
X001985Y037910D03*
X001985Y022660D03*
X001237Y022660D03*
X001237Y021660D03*
X001985Y021660D03*
X001985Y020660D03*
X001237Y020660D03*
X001237Y019660D03*
X001985Y019660D03*
X001985Y018660D03*
X001237Y018660D03*
X001237Y017660D03*
X001985Y017660D03*
X001985Y016660D03*
X001237Y016660D03*
X001237Y015660D03*
X001985Y015660D03*
X001985Y014660D03*
X001237Y014660D03*
X001237Y013660D03*
X001985Y013660D03*
D15*
X037661Y015710D03*
X037661Y016710D03*
X037661Y017710D03*
X037661Y018710D03*
X037661Y019710D03*
X037661Y020710D03*
X037661Y021710D03*
X037661Y022710D03*
X037661Y023710D03*
X037661Y024710D03*
X037661Y025710D03*
X037661Y026710D03*
X037661Y027710D03*
X037661Y028710D03*
X037661Y029710D03*
X037661Y030710D03*
X037661Y031710D03*
X037661Y032710D03*
X037661Y033710D03*
X037661Y034710D03*
X037661Y035710D03*
X037661Y036710D03*
X037661Y037710D03*
X037661Y038710D03*
X037661Y039710D03*
D16*
X024608Y023860D02*
X024014Y023860D01*
X024014Y022860D02*
X024608Y022860D01*
X024608Y021860D02*
X024014Y021860D01*
X024014Y020860D02*
X024608Y020860D01*
X024608Y019860D02*
X024014Y019860D01*
D17*
X034661Y039710D03*
X034661Y040710D03*
D18*
X035861Y033810D03*
X035861Y030010D03*
X031311Y030860D03*
X027061Y033810D03*
X028611Y025360D03*
X028661Y024360D03*
X028661Y023360D03*
X031261Y023360D03*
X031261Y024360D03*
X031261Y025360D03*
X035861Y024710D03*
D19*
X002226Y010670D02*
X002225Y010670D01*
X014512Y010670D01*
X014508Y010674D01*
X014303Y010878D01*
X014289Y010913D01*
X014238Y010934D01*
X014104Y011067D01*
X014032Y011242D01*
X014032Y012061D01*
X014104Y012235D01*
X014209Y012340D01*
X013805Y012340D01*
X013910Y012235D01*
X013982Y012061D01*
X013982Y011242D01*
X013910Y011067D01*
X013776Y010934D01*
X013601Y010862D01*
X013412Y010862D01*
X013238Y010934D01*
X013104Y011067D01*
X013032Y011242D01*
X013032Y012061D01*
X013104Y012235D01*
X013209Y012340D01*
X012805Y012340D01*
X012910Y012235D01*
X012982Y012061D01*
X012982Y011242D01*
X012910Y011067D01*
X012776Y010934D01*
X012601Y010862D01*
X012412Y010862D01*
X012238Y010934D01*
X012104Y011067D01*
X012032Y011242D01*
X012032Y012061D01*
X012104Y012235D01*
X012238Y012369D01*
X012291Y012391D01*
X012291Y012501D01*
X012330Y012540D01*
X010902Y012540D01*
X010745Y012382D01*
X010776Y012369D01*
X010910Y012235D01*
X010982Y012061D01*
X010982Y011242D01*
X010910Y011067D01*
X010776Y010934D01*
X010601Y010862D01*
X010412Y010862D01*
X010238Y010934D01*
X010104Y011067D01*
X010032Y011242D01*
X010032Y012061D01*
X010104Y012235D01*
X010238Y012369D01*
X010291Y012391D01*
X010291Y012551D01*
X010420Y012680D01*
X010480Y012740D01*
X008852Y012740D01*
X008731Y012619D01*
X008731Y012388D01*
X008776Y012369D01*
X008910Y012235D01*
X008982Y012061D01*
X008982Y011242D01*
X008910Y011067D01*
X008776Y010934D01*
X008601Y010862D01*
X008412Y010862D01*
X008238Y010934D01*
X008104Y011067D01*
X008032Y011242D01*
X008032Y012061D01*
X008104Y012235D01*
X008238Y012369D01*
X008291Y012391D01*
X008291Y012801D01*
X008420Y012930D01*
X008670Y013180D01*
X008852Y013180D01*
X017941Y013180D01*
X017941Y017229D01*
X017852Y017140D01*
X017258Y017140D01*
X017188Y017070D01*
X016255Y017070D01*
X016161Y017163D01*
X016161Y017499D01*
X016081Y017419D01*
X016081Y013919D01*
X015952Y013790D01*
X015602Y013440D01*
X015420Y013440D01*
X006785Y013440D01*
X006777Y013422D01*
X006659Y013304D01*
X006505Y013240D01*
X005818Y013240D01*
X005663Y013304D01*
X005545Y013422D01*
X005481Y013576D01*
X005481Y013743D01*
X005545Y013898D01*
X005663Y014016D01*
X005818Y014080D01*
X006505Y014080D01*
X006659Y014016D01*
X006777Y013898D01*
X006785Y013880D01*
X015420Y013880D01*
X015641Y014101D01*
X015641Y017419D01*
X015641Y017601D01*
X015991Y017951D01*
X016120Y018080D01*
X016185Y018080D01*
X016215Y018110D01*
X016161Y018163D01*
X016161Y018556D01*
X016215Y018610D01*
X016193Y018631D01*
X016172Y018668D01*
X016161Y018709D01*
X016161Y018855D01*
X016716Y018855D01*
X016716Y018865D01*
X016161Y018865D01*
X016161Y019011D01*
X016172Y019051D01*
X016193Y019088D01*
X016215Y019110D01*
X016161Y019163D01*
X016161Y019556D01*
X016215Y019610D01*
X016161Y019663D01*
X016161Y020056D01*
X016215Y020110D01*
X016161Y020163D01*
X016161Y020556D01*
X016215Y020610D01*
X016185Y020640D01*
X016070Y020640D01*
X015870Y020840D01*
X015741Y020969D01*
X015741Y023019D01*
X015741Y023201D01*
X015891Y023351D01*
X016020Y023480D01*
X016185Y023480D01*
X016215Y023510D01*
X016193Y023531D01*
X016172Y023568D01*
X016161Y023609D01*
X016161Y023755D01*
X016716Y023755D01*
X016716Y023765D01*
X016161Y023765D01*
X016161Y023911D01*
X016172Y023951D01*
X016193Y023988D01*
X016215Y024010D01*
X016161Y024063D01*
X016161Y024456D01*
X016215Y024510D01*
X016161Y024563D01*
X016161Y024956D01*
X016215Y025010D01*
X016161Y025063D01*
X016161Y025456D01*
X016215Y025510D01*
X016190Y025535D01*
X016152Y025529D01*
X016138Y025540D01*
X016120Y025540D01*
X016067Y025593D01*
X015938Y025690D01*
X015920Y025690D01*
X015867Y025743D01*
X015806Y025788D01*
X015804Y025806D01*
X015791Y025819D01*
X015791Y025894D01*
X015781Y025969D01*
X015791Y025983D01*
X015791Y028036D01*
X015781Y028051D01*
X015791Y028125D01*
X015791Y028201D01*
X015804Y028213D01*
X015806Y028231D01*
X015867Y028276D01*
X015920Y028330D01*
X015938Y028330D01*
X016067Y028426D01*
X016120Y028480D01*
X016138Y028480D01*
X016152Y028490D01*
X016190Y028485D01*
X016215Y028510D01*
X016193Y028531D01*
X016172Y028568D01*
X016161Y028609D01*
X016161Y028755D01*
X016716Y028755D01*
X016716Y028765D01*
X016161Y028765D01*
X016161Y028911D01*
X016172Y028951D01*
X016193Y028988D01*
X016215Y029010D01*
X016161Y029063D01*
X016161Y029456D01*
X016215Y029510D01*
X016161Y029563D01*
X016161Y029956D01*
X016215Y030010D01*
X016161Y030063D01*
X016161Y030456D01*
X016215Y030510D01*
X016190Y030535D01*
X016152Y030529D01*
X016138Y030540D01*
X016120Y030540D01*
X016067Y030593D01*
X015938Y030690D01*
X015920Y030690D01*
X015867Y030743D01*
X015806Y030788D01*
X015804Y030806D01*
X015791Y030819D01*
X015791Y030894D01*
X015781Y030969D01*
X015791Y030983D01*
X015791Y033086D01*
X015781Y033101D01*
X015791Y033175D01*
X015791Y033251D01*
X015804Y033263D01*
X015806Y033281D01*
X015867Y033326D01*
X015920Y033380D01*
X015938Y033380D01*
X016067Y033476D01*
X016120Y033530D01*
X016138Y033530D01*
X016152Y033540D01*
X016227Y033530D01*
X016235Y033530D01*
X016265Y033560D01*
X016243Y033581D01*
X016222Y033618D01*
X016211Y033659D01*
X016211Y033805D01*
X016766Y033805D01*
X016766Y033815D01*
X016211Y033815D01*
X016211Y033961D01*
X016222Y034001D01*
X016243Y034038D01*
X016265Y034060D01*
X016211Y034113D01*
X016211Y034506D01*
X016265Y034560D01*
X016211Y034613D01*
X016211Y035006D01*
X016265Y035060D01*
X016211Y035113D01*
X016211Y035506D01*
X016265Y035560D01*
X016235Y035590D01*
X016070Y035590D01*
X015920Y035740D01*
X015791Y035869D01*
X015791Y037969D01*
X015791Y038151D01*
X015991Y038351D01*
X016120Y038480D01*
X016185Y038480D01*
X016215Y038510D01*
X016193Y038531D01*
X016172Y038568D01*
X016161Y038609D01*
X016161Y038755D01*
X016716Y038755D01*
X016716Y038765D01*
X016161Y038765D01*
X016161Y038911D01*
X016172Y038951D01*
X016193Y038988D01*
X016215Y039010D01*
X016161Y039063D01*
X016161Y039456D01*
X016215Y039510D01*
X016161Y039563D01*
X016161Y039956D01*
X016215Y040010D01*
X016161Y040063D01*
X016161Y040456D01*
X016215Y040510D01*
X016161Y040563D01*
X016161Y040956D01*
X016255Y041050D01*
X017188Y041050D01*
X017281Y040956D01*
X017281Y040563D01*
X017227Y040510D01*
X017258Y040480D01*
X018103Y040480D01*
X018170Y040547D01*
X018294Y040598D01*
X018429Y040598D01*
X018553Y040547D01*
X018648Y040451D01*
X018700Y040327D01*
X018700Y040192D01*
X018654Y040081D01*
X018694Y040098D01*
X018829Y040098D01*
X018953Y040047D01*
X019048Y039951D01*
X019100Y039827D01*
X019100Y039692D01*
X019068Y039617D01*
X019144Y039648D01*
X019279Y039648D01*
X019403Y039597D01*
X019498Y039501D01*
X019550Y039377D01*
X019550Y039242D01*
X019498Y039118D01*
X019403Y039023D01*
X019279Y038971D01*
X019144Y038971D01*
X019020Y039023D01*
X018958Y039085D01*
X017268Y039051D01*
X017227Y039010D01*
X017249Y038988D01*
X017270Y038951D01*
X017281Y038911D01*
X017281Y038765D01*
X016726Y038765D01*
X016726Y038755D01*
X017281Y038755D01*
X017281Y038609D01*
X017270Y038568D01*
X017249Y038531D01*
X017227Y038510D01*
X017281Y038456D01*
X017281Y038063D01*
X017227Y038010D01*
X017238Y038000D01*
X017273Y038000D01*
X017320Y038047D01*
X017444Y038098D01*
X017579Y038098D01*
X017703Y038047D01*
X017798Y037951D01*
X017850Y037827D01*
X017850Y037692D01*
X017798Y037568D01*
X017710Y037480D01*
X019720Y037480D01*
X019902Y037480D01*
X020052Y037330D01*
X020052Y037330D01*
X020181Y037201D01*
X020181Y034084D01*
X020272Y034030D01*
X020396Y034030D01*
X020313Y034112D01*
X020247Y034273D01*
X020247Y034447D01*
X020313Y034607D01*
X020436Y034730D01*
X020597Y034797D01*
X021325Y034797D01*
X021486Y034730D01*
X021609Y034607D01*
X021676Y034447D01*
X021676Y034273D01*
X021609Y034112D01*
X021527Y034030D01*
X026775Y034030D01*
X026858Y034113D01*
X026990Y034168D01*
X027132Y034168D01*
X027264Y034113D01*
X027365Y034013D01*
X027419Y033881D01*
X027419Y033739D01*
X027365Y033607D01*
X027264Y033506D01*
X027132Y033452D01*
X026990Y033452D01*
X026858Y033506D01*
X026775Y033590D01*
X021616Y033590D01*
X021676Y033447D01*
X021676Y033273D01*
X021609Y033112D01*
X021486Y032989D01*
X021325Y032923D01*
X020597Y032923D01*
X020436Y032989D01*
X020313Y033112D01*
X020247Y033273D01*
X020247Y033447D01*
X020306Y033590D01*
X020288Y033590D01*
X020181Y033504D01*
X020181Y032551D01*
X020181Y032369D01*
X020122Y032310D01*
X020181Y032251D01*
X020181Y027475D01*
X020192Y027401D01*
X020181Y027386D01*
X020181Y027369D01*
X020128Y027315D01*
X020086Y027260D01*
X020128Y027204D01*
X020181Y027151D01*
X020181Y027133D01*
X020192Y027119D01*
X020181Y027044D01*
X020181Y022475D01*
X020192Y022401D01*
X020181Y022386D01*
X020181Y022369D01*
X020128Y022315D01*
X020102Y022280D01*
X020181Y022201D01*
X020181Y018622D01*
X020190Y018543D01*
X020181Y018533D01*
X020181Y018519D01*
X020125Y018463D01*
X019859Y018130D01*
X020306Y018130D01*
X020247Y018273D01*
X020247Y018447D01*
X020313Y018607D01*
X020436Y018730D01*
X020597Y018797D01*
X021325Y018797D01*
X021486Y018730D01*
X021609Y018607D01*
X021676Y018447D01*
X021676Y018273D01*
X021616Y018130D01*
X027620Y018130D01*
X027691Y018201D01*
X027691Y018901D01*
X027624Y018968D01*
X027573Y019092D01*
X027573Y019227D01*
X027624Y019351D01*
X027720Y019447D01*
X027844Y019498D01*
X027979Y019498D01*
X028103Y019447D01*
X028198Y019351D01*
X028250Y019227D01*
X028250Y019092D01*
X028198Y018968D01*
X028131Y018901D01*
X028131Y018201D01*
X028131Y018019D01*
X027931Y017819D01*
X027802Y017690D01*
X021527Y017690D01*
X021609Y017607D01*
X021676Y017447D01*
X021676Y017273D01*
X021616Y017130D01*
X028620Y017130D01*
X028891Y017401D01*
X028891Y018551D01*
X028824Y018618D01*
X028773Y018742D01*
X028773Y018877D01*
X028824Y019001D01*
X028920Y019097D01*
X029044Y019148D01*
X029179Y019148D01*
X029303Y019097D01*
X029398Y019001D01*
X029450Y018877D01*
X029450Y018742D01*
X029398Y018618D01*
X029331Y018551D01*
X029331Y017401D01*
X029331Y017219D01*
X028931Y016819D01*
X028802Y016690D01*
X021527Y016690D01*
X021609Y016607D01*
X021676Y016447D01*
X021676Y016273D01*
X021609Y016112D01*
X021577Y016080D01*
X029970Y016080D01*
X030041Y016151D01*
X030041Y017851D01*
X029974Y017918D01*
X029923Y018042D01*
X029923Y018177D01*
X029974Y018301D01*
X030070Y018397D01*
X030194Y018448D01*
X030329Y018448D01*
X030453Y018397D01*
X030548Y018301D01*
X030600Y018177D01*
X030600Y018042D01*
X030548Y017918D01*
X030481Y017851D01*
X030481Y016151D01*
X030481Y015969D01*
X030281Y015769D01*
X030152Y015640D01*
X021577Y015640D01*
X021609Y015607D01*
X021676Y015447D01*
X021676Y015273D01*
X021609Y015112D01*
X021486Y014989D01*
X021325Y014923D01*
X020597Y014923D01*
X020436Y014989D01*
X020313Y015112D01*
X020247Y015273D01*
X020247Y015447D01*
X020313Y015607D01*
X020346Y015640D01*
X018952Y015640D01*
X018881Y015569D01*
X018881Y012851D01*
X018881Y012669D01*
X018681Y012469D01*
X018639Y012426D01*
X018776Y012369D01*
X018910Y012235D01*
X018982Y012061D01*
X018982Y011242D01*
X018910Y011067D01*
X018892Y011050D01*
X019122Y011050D01*
X019104Y011067D01*
X019032Y011242D01*
X019032Y012061D01*
X019104Y012235D01*
X019238Y012369D01*
X019412Y012441D01*
X019601Y012441D01*
X019776Y012369D01*
X019910Y012235D01*
X019982Y012061D01*
X019982Y011242D01*
X019910Y011067D01*
X019892Y011050D01*
X022262Y011050D01*
X022421Y011209D01*
X022421Y012112D01*
X022421Y012207D01*
X022458Y012296D01*
X022858Y012696D01*
X022925Y012763D01*
X023014Y012800D01*
X033862Y012800D01*
X034121Y013059D01*
X034121Y017860D01*
X033862Y018120D01*
X033612Y018120D01*
X033609Y018112D01*
X033486Y017989D01*
X033325Y017923D01*
X032597Y017923D01*
X032436Y017989D01*
X032313Y018112D01*
X032247Y018273D01*
X032247Y018447D01*
X032313Y018607D01*
X032326Y018620D01*
X032070Y018620D01*
X032032Y018617D01*
X032023Y018620D01*
X032014Y018620D01*
X031978Y018634D01*
X031941Y018646D01*
X031934Y018653D01*
X031925Y018656D01*
X031898Y018684D01*
X031584Y018953D01*
X031575Y018956D01*
X031548Y018984D01*
X031519Y019009D01*
X031515Y019017D01*
X031508Y019024D01*
X031493Y019059D01*
X031476Y019094D01*
X031475Y019103D01*
X031471Y019112D01*
X031471Y019151D01*
X031468Y019189D01*
X031471Y019198D01*
X031471Y023063D01*
X031464Y023056D01*
X031332Y023002D01*
X031190Y023002D01*
X031058Y023056D01*
X030975Y023140D01*
X028948Y023140D01*
X028864Y023056D01*
X028732Y023002D01*
X028590Y023002D01*
X028458Y023056D01*
X028358Y023157D01*
X028303Y023289D01*
X028303Y023431D01*
X028358Y023563D01*
X028458Y023663D01*
X028590Y023718D01*
X028732Y023718D01*
X028864Y023663D01*
X028948Y023580D01*
X030975Y023580D01*
X031058Y023663D01*
X031190Y023718D01*
X031332Y023718D01*
X031464Y023663D01*
X031471Y023656D01*
X031471Y024063D01*
X031464Y024056D01*
X031332Y024002D01*
X031190Y024002D01*
X031058Y024056D01*
X030975Y024140D01*
X028948Y024140D01*
X028864Y024056D01*
X028732Y024002D01*
X028590Y024002D01*
X028458Y024056D01*
X028358Y024157D01*
X028303Y024289D01*
X028303Y024431D01*
X028358Y024563D01*
X028458Y024663D01*
X028590Y024718D01*
X028732Y024718D01*
X028864Y024663D01*
X028948Y024580D01*
X030975Y024580D01*
X031058Y024663D01*
X031190Y024718D01*
X031332Y024718D01*
X031464Y024663D01*
X031471Y024656D01*
X031471Y025063D01*
X031464Y025056D01*
X031332Y025002D01*
X031190Y025002D01*
X031058Y025056D01*
X030975Y025140D01*
X028898Y025140D01*
X028814Y025056D01*
X028682Y025002D01*
X028540Y025002D01*
X028408Y025056D01*
X028308Y025157D01*
X028253Y025289D01*
X028253Y025431D01*
X028308Y025563D01*
X028408Y025663D01*
X028540Y025718D01*
X028682Y025718D01*
X028814Y025663D01*
X028898Y025580D01*
X030975Y025580D01*
X031058Y025663D01*
X031190Y025718D01*
X031332Y025718D01*
X031464Y025663D01*
X031565Y025563D01*
X031568Y025556D01*
X031958Y025946D01*
X032025Y026013D01*
X032114Y026050D01*
X032376Y026050D01*
X032313Y026112D01*
X032247Y026273D01*
X032247Y026447D01*
X032313Y026607D01*
X032436Y026730D01*
X032597Y026797D01*
X033325Y026797D01*
X033486Y026730D01*
X033609Y026607D01*
X033676Y026447D01*
X033676Y026273D01*
X033609Y026112D01*
X033547Y026050D01*
X035362Y026050D01*
X035571Y026259D01*
X035571Y026610D01*
X035208Y026974D01*
X035171Y027062D01*
X035171Y027157D01*
X035171Y039057D01*
X035208Y039146D01*
X035275Y039213D01*
X035275Y039213D01*
X035362Y039300D01*
X035001Y039300D01*
X034961Y039260D01*
X034767Y039180D01*
X034556Y039180D01*
X034361Y039260D01*
X034212Y039410D01*
X034131Y039604D01*
X034131Y039815D01*
X034212Y040010D01*
X034361Y040159D01*
X034484Y040210D01*
X034458Y040219D01*
X034383Y040256D01*
X034316Y040306D01*
X034257Y040364D01*
X034208Y040432D01*
X034170Y040506D01*
X034144Y040586D01*
X034131Y040668D01*
X034131Y040670D01*
X034621Y040670D01*
X034621Y040750D01*
X034621Y041240D01*
X034620Y041240D01*
X034537Y041227D01*
X034458Y041201D01*
X034383Y041163D01*
X034316Y041114D01*
X034257Y041055D01*
X034208Y040988D01*
X034170Y040913D01*
X034144Y040834D01*
X034131Y040751D01*
X034131Y040750D01*
X034621Y040750D01*
X034701Y040750D01*
X034701Y041240D01*
X034703Y041240D01*
X034785Y041227D01*
X034865Y041201D01*
X034939Y041163D01*
X035006Y041114D01*
X035065Y041055D01*
X035115Y040988D01*
X035152Y040913D01*
X035178Y040834D01*
X035191Y040751D01*
X035191Y040750D01*
X034701Y040750D01*
X034701Y040670D01*
X035191Y040670D01*
X035191Y040668D01*
X035178Y040586D01*
X035152Y040506D01*
X035115Y040432D01*
X035065Y040364D01*
X035006Y040306D01*
X034939Y040256D01*
X034865Y040219D01*
X034838Y040210D01*
X034961Y040159D01*
X035001Y040120D01*
X036270Y040120D01*
X036320Y040170D01*
X036359Y040170D01*
X036359Y040250D01*
X035762Y040250D01*
X035753Y040246D01*
X035570Y040246D01*
X035401Y040316D01*
X035271Y040445D01*
X035201Y040614D01*
X035201Y040618D01*
X035201Y041250D01*
X002200Y041246D01*
X002337Y041109D01*
X002498Y040831D01*
X002581Y040520D01*
X002581Y040199D01*
X002498Y039889D01*
X002337Y039611D01*
X002110Y039384D01*
X001832Y039223D01*
X001522Y039140D01*
X001201Y039140D01*
X000890Y039223D01*
X000621Y039378D01*
X000621Y026591D01*
X000890Y026747D01*
X001201Y026830D01*
X001522Y026830D01*
X001832Y026747D01*
X002110Y026586D01*
X002337Y026359D01*
X002498Y026081D01*
X002581Y025770D01*
X002581Y025449D01*
X002498Y025139D01*
X002337Y024861D01*
X002110Y024634D01*
X001832Y024473D01*
X001522Y024390D01*
X001201Y024390D01*
X000890Y024473D01*
X000621Y024628D01*
X000621Y012135D01*
X000691Y012205D01*
X000939Y012348D01*
X001214Y012421D01*
X001500Y012421D01*
X001776Y012348D01*
X002024Y012205D01*
X002226Y012003D01*
X002368Y011755D01*
X002442Y011479D01*
X002442Y011194D01*
X002368Y010918D01*
X002226Y010670D01*
X002233Y010684D02*
X014498Y010684D01*
X014379Y010802D02*
X002302Y010802D01*
X002369Y010921D02*
X004276Y010921D01*
X004258Y010930D02*
X004325Y010896D01*
X004396Y010873D01*
X004468Y010862D01*
X004468Y011298D01*
X004032Y011298D01*
X004044Y011225D01*
X004067Y011154D01*
X004101Y011088D01*
X004145Y011027D01*
X004197Y010974D01*
X004258Y010930D01*
X004136Y011040D02*
X002401Y011040D01*
X002433Y011158D02*
X004065Y011158D01*
X004036Y011277D02*
X002442Y011277D01*
X002442Y011395D02*
X004032Y011395D01*
X004032Y011375D02*
X004468Y011375D01*
X004468Y011298D01*
X004545Y011298D01*
X004545Y010862D01*
X004618Y010873D01*
X004689Y010896D01*
X004756Y010930D01*
X004816Y010974D01*
X004869Y011027D01*
X004913Y011088D01*
X004947Y011154D01*
X004970Y011225D01*
X004982Y011298D01*
X004546Y011298D01*
X004546Y011375D01*
X004982Y011375D01*
X004982Y012004D01*
X004970Y012078D01*
X004947Y012149D01*
X004913Y012215D01*
X004869Y012276D01*
X004816Y012329D01*
X004756Y012373D01*
X004689Y012407D01*
X004618Y012430D01*
X004545Y012441D01*
X004545Y011375D01*
X004468Y011375D01*
X004468Y012441D01*
X004396Y012430D01*
X004325Y012407D01*
X004258Y012373D01*
X004197Y012329D01*
X004145Y012276D01*
X004101Y012215D01*
X004067Y012149D01*
X004044Y012078D01*
X004032Y012004D01*
X004032Y011375D01*
X004032Y011514D02*
X002433Y011514D01*
X002401Y011632D02*
X004032Y011632D01*
X004032Y011751D02*
X002370Y011751D01*
X002303Y011869D02*
X004032Y011869D01*
X004032Y011988D02*
X002234Y011988D01*
X002122Y012106D02*
X004053Y012106D01*
X004108Y012225D02*
X001988Y012225D01*
X001783Y012344D02*
X004218Y012344D01*
X004468Y012344D02*
X004545Y012344D01*
X004545Y012225D02*
X004468Y012225D01*
X004468Y012106D02*
X004545Y012106D01*
X004545Y011988D02*
X004468Y011988D01*
X004468Y011869D02*
X004545Y011869D01*
X004545Y011751D02*
X004468Y011751D01*
X004468Y011632D02*
X004545Y011632D01*
X004545Y011514D02*
X004468Y011514D01*
X004468Y011395D02*
X004545Y011395D01*
X004545Y011277D02*
X004468Y011277D01*
X004468Y011158D02*
X004545Y011158D01*
X004545Y011040D02*
X004468Y011040D01*
X004468Y010921D02*
X004545Y010921D01*
X004738Y010921D02*
X005269Y010921D01*
X005238Y010934D02*
X005412Y010862D01*
X005601Y010862D01*
X005776Y010934D01*
X005910Y011067D01*
X005982Y011242D01*
X005982Y012061D01*
X005910Y012235D01*
X005776Y012369D01*
X005601Y012441D01*
X005412Y012441D01*
X005238Y012369D01*
X005104Y012235D01*
X005032Y012061D01*
X005032Y011242D01*
X005104Y011067D01*
X005238Y010934D01*
X005132Y011040D02*
X004878Y011040D01*
X004948Y011158D02*
X005067Y011158D01*
X005032Y011277D02*
X004978Y011277D01*
X004982Y011395D02*
X005032Y011395D01*
X005032Y011514D02*
X004982Y011514D01*
X004982Y011632D02*
X005032Y011632D01*
X005032Y011751D02*
X004982Y011751D01*
X004982Y011869D02*
X005032Y011869D01*
X005032Y011988D02*
X004982Y011988D01*
X004961Y012106D02*
X005051Y012106D01*
X005100Y012225D02*
X004906Y012225D01*
X004796Y012344D02*
X005212Y012344D01*
X005801Y012344D02*
X006212Y012344D01*
X006238Y012369D02*
X006104Y012235D01*
X006032Y012061D01*
X006032Y011242D01*
X006104Y011067D01*
X006238Y010934D01*
X006412Y010862D01*
X006601Y010862D01*
X006776Y010934D01*
X006910Y011067D01*
X006982Y011242D01*
X006982Y012061D01*
X006910Y012235D01*
X006776Y012369D01*
X006601Y012441D01*
X006412Y012441D01*
X006238Y012369D01*
X006100Y012225D02*
X005914Y012225D01*
X005963Y012106D02*
X006051Y012106D01*
X006032Y011988D02*
X005982Y011988D01*
X005982Y011869D02*
X006032Y011869D01*
X006032Y011751D02*
X005982Y011751D01*
X005982Y011632D02*
X006032Y011632D01*
X006032Y011514D02*
X005982Y011514D01*
X005982Y011395D02*
X006032Y011395D01*
X006032Y011277D02*
X005982Y011277D01*
X005947Y011158D02*
X006067Y011158D01*
X006132Y011040D02*
X005882Y011040D01*
X005745Y010921D02*
X006269Y010921D01*
X006745Y010921D02*
X007269Y010921D01*
X007238Y010934D02*
X007412Y010862D01*
X007601Y010862D01*
X007776Y010934D01*
X007910Y011067D01*
X007982Y011242D01*
X007982Y012061D01*
X007910Y012235D01*
X007776Y012369D01*
X007601Y012441D01*
X007412Y012441D01*
X007238Y012369D01*
X007104Y012235D01*
X007032Y012061D01*
X007032Y011242D01*
X007104Y011067D01*
X007238Y010934D01*
X007132Y011040D02*
X006882Y011040D01*
X006947Y011158D02*
X007067Y011158D01*
X007032Y011277D02*
X006982Y011277D01*
X006982Y011395D02*
X007032Y011395D01*
X007032Y011514D02*
X006982Y011514D01*
X006982Y011632D02*
X007032Y011632D01*
X007032Y011751D02*
X006982Y011751D01*
X006982Y011869D02*
X007032Y011869D01*
X007032Y011988D02*
X006982Y011988D01*
X006963Y012106D02*
X007051Y012106D01*
X007100Y012225D02*
X006914Y012225D01*
X006801Y012344D02*
X007212Y012344D01*
X007801Y012344D02*
X008212Y012344D01*
X008291Y012462D02*
X000621Y012462D01*
X000621Y012344D02*
X000932Y012344D01*
X000726Y012225D02*
X000621Y012225D01*
X000621Y012581D02*
X008291Y012581D01*
X008291Y012699D02*
X000621Y012699D01*
X000621Y012818D02*
X008308Y012818D01*
X008427Y012936D02*
X000621Y012936D01*
X000621Y013055D02*
X008545Y013055D01*
X008664Y013173D02*
X000621Y013173D01*
X000621Y013292D02*
X000838Y013292D01*
X000832Y013303D02*
X000853Y013266D01*
X000883Y013236D01*
X000920Y013215D01*
X000960Y013204D01*
X001177Y013204D01*
X001177Y013600D01*
X000821Y013600D01*
X000821Y013343D01*
X000832Y013303D01*
X000821Y013410D02*
X000621Y013410D01*
X000621Y013529D02*
X000821Y013529D01*
X000821Y013720D02*
X001177Y013720D01*
X001177Y014115D01*
X000960Y014115D01*
X000920Y014104D01*
X000883Y014083D01*
X000853Y014053D01*
X000832Y014017D01*
X000821Y013976D01*
X000821Y013720D01*
X000821Y013766D02*
X000621Y013766D01*
X000621Y013648D02*
X001177Y013648D01*
X001177Y013600D02*
X001177Y013720D01*
X001297Y013720D01*
X001297Y014115D01*
X001514Y014115D01*
X001555Y014104D01*
X001591Y014083D01*
X001611Y014063D01*
X001663Y014115D01*
X002307Y014115D01*
X002401Y014021D01*
X002401Y013900D01*
X002547Y013900D01*
X002663Y014016D01*
X002818Y014080D01*
X003505Y014080D01*
X003659Y014016D01*
X003777Y013898D01*
X003841Y013743D01*
X003841Y013576D01*
X003777Y013422D01*
X003659Y013304D01*
X003505Y013240D01*
X002818Y013240D01*
X002663Y013304D01*
X002547Y013420D01*
X002401Y013420D01*
X002401Y013298D01*
X002307Y013204D01*
X001663Y013204D01*
X001611Y013256D01*
X001591Y013236D01*
X001555Y013215D01*
X001514Y013204D01*
X001297Y013204D01*
X001297Y013600D01*
X001177Y013600D01*
X001177Y013529D02*
X001297Y013529D01*
X001297Y013410D02*
X001177Y013410D01*
X001177Y013292D02*
X001297Y013292D01*
X001297Y013766D02*
X001177Y013766D01*
X001177Y013885D02*
X001297Y013885D01*
X001297Y014003D02*
X001177Y014003D01*
X001177Y014204D02*
X001177Y014600D01*
X000821Y014600D01*
X000821Y014343D01*
X000832Y014303D01*
X000853Y014266D01*
X000883Y014236D01*
X000920Y014215D01*
X000960Y014204D01*
X001177Y014204D01*
X001177Y014240D02*
X001297Y014240D01*
X001297Y014204D02*
X001514Y014204D01*
X001555Y014215D01*
X001591Y014236D01*
X001611Y014256D01*
X001663Y014204D01*
X002307Y014204D01*
X002401Y014298D01*
X002401Y014420D01*
X002547Y014420D01*
X002663Y014304D01*
X002818Y014240D01*
X003505Y014240D01*
X003659Y014304D01*
X003777Y014422D01*
X003841Y014576D01*
X003841Y014743D01*
X003777Y014898D01*
X003659Y015016D01*
X003505Y015080D01*
X002818Y015080D01*
X002663Y015016D01*
X002547Y014900D01*
X002401Y014900D01*
X002401Y015021D01*
X002307Y015115D01*
X001663Y015115D01*
X001611Y015063D01*
X001591Y015083D01*
X001555Y015104D01*
X001514Y015115D01*
X001297Y015115D01*
X001297Y014720D01*
X001177Y014720D01*
X001177Y015115D01*
X000960Y015115D01*
X000920Y015104D01*
X000883Y015083D01*
X000853Y015053D01*
X000832Y015017D01*
X000821Y014976D01*
X000821Y014720D01*
X001177Y014720D01*
X001177Y014600D01*
X001297Y014600D01*
X001297Y014204D01*
X001297Y014359D02*
X001177Y014359D01*
X001177Y014477D02*
X001297Y014477D01*
X001297Y014596D02*
X001177Y014596D01*
X001177Y014714D02*
X000621Y014714D01*
X000621Y014596D02*
X000821Y014596D01*
X000821Y014477D02*
X000621Y014477D01*
X000621Y014359D02*
X000821Y014359D01*
X000879Y014240D02*
X000621Y014240D01*
X000621Y014122D02*
X015641Y014122D01*
X015641Y014240D02*
X006506Y014240D01*
X006505Y014240D02*
X006659Y014304D01*
X006777Y014422D01*
X006785Y014440D01*
X013820Y014440D01*
X014002Y014440D01*
X014352Y014790D01*
X014481Y014919D01*
X014481Y017070D01*
X014768Y017070D01*
X014861Y017163D01*
X014861Y017556D01*
X014807Y017610D01*
X014861Y017663D01*
X014861Y018056D01*
X014807Y018110D01*
X014861Y018163D01*
X014861Y018556D01*
X014807Y018610D01*
X014861Y018663D01*
X014861Y019056D01*
X014807Y019110D01*
X014861Y019163D01*
X014861Y019556D01*
X014807Y019610D01*
X014861Y019663D01*
X014861Y020056D01*
X014807Y020110D01*
X014861Y020163D01*
X014861Y020556D01*
X014807Y020610D01*
X014829Y020631D01*
X014850Y020668D01*
X014861Y020709D01*
X014861Y020855D01*
X014306Y020855D01*
X014306Y020865D01*
X014296Y020865D01*
X014296Y021150D01*
X013880Y021150D01*
X013839Y021139D01*
X013803Y021118D01*
X013773Y021088D01*
X013752Y021051D01*
X013741Y021011D01*
X013741Y020865D01*
X014296Y020865D01*
X014296Y020855D01*
X013741Y020855D01*
X013741Y020709D01*
X013752Y020668D01*
X013773Y020631D01*
X013795Y020610D01*
X013765Y020580D01*
X012970Y020580D01*
X012841Y020451D01*
X012841Y020451D01*
X012720Y020330D01*
X007710Y020330D01*
X007798Y020418D01*
X007850Y020542D01*
X007850Y020677D01*
X007824Y020740D01*
X012910Y020740D01*
X013092Y020740D01*
X014322Y021970D01*
X014768Y021970D01*
X014861Y022063D01*
X014861Y022456D01*
X014807Y022510D01*
X014861Y022563D01*
X014861Y022956D01*
X014807Y023010D01*
X014861Y023063D01*
X014861Y023456D01*
X014807Y023510D01*
X014861Y023563D01*
X014861Y023956D01*
X014807Y024010D01*
X014861Y024063D01*
X014861Y024456D01*
X014807Y024510D01*
X014861Y024563D01*
X014861Y024956D01*
X014807Y025010D01*
X014861Y025063D01*
X014861Y025456D01*
X014807Y025510D01*
X014829Y025531D01*
X014850Y025568D01*
X014861Y025609D01*
X014861Y025755D01*
X014306Y025755D01*
X014306Y025765D01*
X014296Y025765D01*
X014296Y026050D01*
X013880Y026050D01*
X013839Y026039D01*
X013803Y026018D01*
X013773Y025988D01*
X013752Y025951D01*
X013741Y025911D01*
X013741Y025765D01*
X014296Y025765D01*
X014296Y025755D01*
X013741Y025755D01*
X013741Y025609D01*
X013752Y025568D01*
X013773Y025531D01*
X013795Y025510D01*
X013765Y025480D01*
X013502Y025480D01*
X013381Y025601D01*
X013381Y026269D01*
X013381Y026451D01*
X012981Y026851D01*
X012852Y026980D01*
X012485Y026980D01*
X012477Y026998D01*
X012359Y027116D01*
X012205Y027180D01*
X011518Y027180D01*
X011363Y027116D01*
X011245Y026998D01*
X011181Y026843D01*
X011181Y026676D01*
X011245Y026522D01*
X011363Y026404D01*
X011518Y026340D01*
X012205Y026340D01*
X012359Y026404D01*
X012477Y026522D01*
X012485Y026540D01*
X012670Y026540D01*
X012941Y026269D01*
X012941Y025419D01*
X013070Y025290D01*
X013320Y025040D01*
X013502Y025040D01*
X013765Y025040D01*
X013795Y025010D01*
X013765Y024980D01*
X013102Y024980D01*
X012931Y025151D01*
X012931Y025751D01*
X012802Y025880D01*
X012702Y025980D01*
X012520Y025980D01*
X012485Y025980D01*
X012477Y025998D01*
X012359Y026116D01*
X012205Y026180D01*
X011518Y026180D01*
X011363Y026116D01*
X011245Y025998D01*
X011181Y025843D01*
X011181Y025676D01*
X011245Y025522D01*
X011363Y025404D01*
X011518Y025340D01*
X012205Y025340D01*
X012359Y025404D01*
X012477Y025522D01*
X012485Y025540D01*
X012491Y025540D01*
X012491Y025151D01*
X012491Y024980D01*
X012485Y024980D01*
X012477Y024998D01*
X012359Y025116D01*
X012205Y025180D01*
X011518Y025180D01*
X011363Y025116D01*
X011245Y024998D01*
X011181Y024843D01*
X011181Y024676D01*
X011245Y024522D01*
X011363Y024404D01*
X011518Y024340D01*
X012205Y024340D01*
X012359Y024404D01*
X012408Y024452D01*
X012691Y024169D01*
X012820Y024040D01*
X013765Y024040D01*
X013795Y024010D01*
X013765Y023980D01*
X012485Y023980D01*
X012477Y023998D01*
X012359Y024116D01*
X012205Y024180D01*
X011518Y024180D01*
X011363Y024116D01*
X011245Y023998D01*
X011181Y023843D01*
X011181Y023676D01*
X011245Y023522D01*
X011363Y023404D01*
X011518Y023340D01*
X012205Y023340D01*
X012359Y023404D01*
X012477Y023522D01*
X012485Y023540D01*
X013765Y023540D01*
X013795Y023510D01*
X013765Y023480D01*
X013670Y023480D01*
X013541Y023351D01*
X013170Y022980D01*
X012485Y022980D01*
X012477Y022998D01*
X012359Y023116D01*
X012205Y023180D01*
X011518Y023180D01*
X011363Y023116D01*
X011245Y022998D01*
X011181Y022843D01*
X011181Y022676D01*
X011245Y022522D01*
X011363Y022404D01*
X011518Y022340D01*
X012205Y022340D01*
X012359Y022404D01*
X012477Y022522D01*
X012485Y022540D01*
X013170Y022540D01*
X013352Y022540D01*
X013741Y022929D01*
X013741Y022854D01*
X012823Y021980D01*
X012485Y021980D01*
X012477Y021998D01*
X012359Y022116D01*
X012205Y022180D01*
X011518Y022180D01*
X011363Y022116D01*
X011245Y021998D01*
X011181Y021843D01*
X011181Y021676D01*
X011245Y021522D01*
X011363Y021404D01*
X011518Y021340D01*
X012205Y021340D01*
X012359Y021404D01*
X012477Y021522D01*
X012485Y021540D01*
X012908Y021540D01*
X012997Y021538D01*
X012999Y021540D01*
X013002Y021540D01*
X013065Y021602D01*
X013741Y022246D01*
X013741Y022063D01*
X013768Y022037D01*
X012910Y021180D01*
X007452Y021180D01*
X007381Y021251D01*
X007381Y022001D01*
X007252Y022130D01*
X006831Y022551D01*
X006841Y022576D01*
X006841Y022743D01*
X006777Y022898D01*
X006659Y023016D01*
X006505Y023080D01*
X005818Y023080D01*
X005663Y023016D01*
X005545Y022898D01*
X005481Y022743D01*
X005481Y022576D01*
X005545Y022422D01*
X005663Y022304D01*
X005818Y022240D01*
X006505Y022240D01*
X006516Y022244D01*
X006941Y021819D01*
X006941Y021762D01*
X006856Y021826D01*
X006802Y021880D01*
X006785Y021880D01*
X006777Y021898D01*
X006659Y022016D01*
X006505Y022080D01*
X005818Y022080D01*
X005663Y022016D01*
X005545Y021898D01*
X005481Y021743D01*
X005481Y021576D01*
X005545Y021422D01*
X005663Y021304D01*
X005818Y021240D01*
X006505Y021240D01*
X006659Y021304D01*
X006691Y021336D01*
X006691Y020984D01*
X006659Y021016D01*
X006505Y021080D01*
X005818Y021080D01*
X005663Y021016D01*
X005545Y020898D01*
X005481Y020743D01*
X005481Y020576D01*
X005545Y020422D01*
X005663Y020304D01*
X005818Y020240D01*
X006270Y020240D01*
X006430Y020080D01*
X005818Y020080D01*
X005663Y020016D01*
X005545Y019898D01*
X005481Y019743D01*
X005481Y019576D01*
X005545Y019422D01*
X005663Y019304D01*
X005818Y019240D01*
X006505Y019240D01*
X006659Y019304D01*
X006777Y019422D01*
X006785Y019440D01*
X012880Y019440D01*
X012320Y018880D01*
X006785Y018880D01*
X006777Y018898D01*
X006659Y019016D01*
X006505Y019080D01*
X005818Y019080D01*
X005663Y019016D01*
X005545Y018898D01*
X005481Y018743D01*
X005481Y018576D01*
X005545Y018422D01*
X005663Y018304D01*
X005818Y018240D01*
X006505Y018240D01*
X006659Y018304D01*
X006777Y018422D01*
X006785Y018440D01*
X012320Y018440D01*
X012480Y018440D01*
X011920Y017880D01*
X006785Y017880D01*
X006777Y017898D01*
X006659Y018016D01*
X006505Y018080D01*
X005818Y018080D01*
X005663Y018016D01*
X005545Y017898D01*
X005481Y017743D01*
X005481Y017576D01*
X005545Y017422D01*
X005663Y017304D01*
X005818Y017240D01*
X006505Y017240D01*
X006659Y017304D01*
X006777Y017422D01*
X006785Y017440D01*
X011920Y017440D01*
X012102Y017440D01*
X012641Y017979D01*
X012641Y017869D01*
X012641Y017001D01*
X012520Y016880D01*
X006785Y016880D01*
X006777Y016898D01*
X006659Y017016D01*
X006505Y017080D01*
X005818Y017080D01*
X005663Y017016D01*
X005545Y016898D01*
X005481Y016743D01*
X005481Y016576D01*
X005545Y016422D01*
X005663Y016304D01*
X005818Y016240D01*
X006505Y016240D01*
X006659Y016304D01*
X006777Y016422D01*
X006785Y016440D01*
X012520Y016440D01*
X012702Y016440D01*
X012952Y016690D01*
X013041Y016779D01*
X013041Y016001D01*
X012920Y015880D01*
X006785Y015880D01*
X006777Y015898D01*
X006659Y016016D01*
X006505Y016080D01*
X005818Y016080D01*
X005663Y016016D01*
X005545Y015898D01*
X005481Y015743D01*
X005481Y015576D01*
X005545Y015422D01*
X005663Y015304D01*
X005818Y015240D01*
X006505Y015240D01*
X006659Y015304D01*
X006777Y015422D01*
X006785Y015440D01*
X012920Y015440D01*
X013102Y015440D01*
X013352Y015690D01*
X013481Y015819D01*
X013481Y017519D01*
X013602Y017640D01*
X013765Y017640D01*
X013795Y017610D01*
X013741Y017556D01*
X013741Y017163D01*
X013835Y017070D01*
X014041Y017070D01*
X014041Y015101D01*
X013820Y014880D01*
X006785Y014880D01*
X006777Y014898D01*
X006659Y015016D01*
X006505Y015080D01*
X005818Y015080D01*
X005663Y015016D01*
X005545Y014898D01*
X005481Y014743D01*
X005481Y014576D01*
X005545Y014422D01*
X005663Y014304D01*
X005818Y014240D01*
X006505Y014240D01*
X006714Y014359D02*
X015641Y014359D01*
X015641Y014477D02*
X014040Y014477D01*
X014158Y014596D02*
X015641Y014596D01*
X015641Y014714D02*
X014277Y014714D01*
X014396Y014833D02*
X015641Y014833D01*
X015641Y014951D02*
X014481Y014951D01*
X014481Y015070D02*
X015641Y015070D01*
X015641Y015189D02*
X014481Y015189D01*
X014481Y015307D02*
X015641Y015307D01*
X015641Y015426D02*
X014481Y015426D01*
X014481Y015544D02*
X015641Y015544D01*
X015641Y015663D02*
X014481Y015663D01*
X014481Y015781D02*
X015641Y015781D01*
X015641Y015900D02*
X014481Y015900D01*
X014481Y016018D02*
X015641Y016018D01*
X015641Y016137D02*
X014481Y016137D01*
X014481Y016255D02*
X015641Y016255D01*
X015641Y016374D02*
X014481Y016374D01*
X014481Y016493D02*
X015641Y016493D01*
X015641Y016611D02*
X014481Y016611D01*
X014481Y016730D02*
X015641Y016730D01*
X015641Y016848D02*
X014481Y016848D01*
X014481Y016967D02*
X015641Y016967D01*
X015641Y017085D02*
X014783Y017085D01*
X014861Y017204D02*
X015641Y017204D01*
X015641Y017322D02*
X014861Y017322D01*
X014861Y017441D02*
X015641Y017441D01*
X015641Y017559D02*
X014858Y017559D01*
X014861Y017678D02*
X015718Y017678D01*
X015837Y017797D02*
X014861Y017797D01*
X014861Y017915D02*
X015955Y017915D01*
X016074Y018034D02*
X014861Y018034D01*
X014850Y018152D02*
X016173Y018152D01*
X016161Y018271D02*
X014861Y018271D01*
X014861Y018389D02*
X016161Y018389D01*
X016161Y018508D02*
X014861Y018508D01*
X014824Y018626D02*
X016198Y018626D01*
X016161Y018745D02*
X014861Y018745D01*
X014861Y018863D02*
X016716Y018863D01*
X016726Y018863D02*
X019391Y018863D01*
X019391Y018745D02*
X017281Y018745D01*
X017281Y018709D02*
X017281Y018855D01*
X016726Y018855D01*
X016726Y018865D01*
X017281Y018865D01*
X017281Y019011D01*
X017270Y019051D01*
X017249Y019088D01*
X017227Y019110D01*
X017257Y019140D01*
X018901Y019140D01*
X018982Y019132D01*
X018991Y019140D01*
X019002Y019140D01*
X019060Y019197D01*
X019291Y019390D01*
X019302Y019390D01*
X019359Y019447D01*
X019391Y019473D01*
X019391Y018687D01*
X019306Y018580D01*
X017258Y018580D01*
X017227Y018610D01*
X017249Y018631D01*
X017270Y018668D01*
X017281Y018709D01*
X017244Y018626D02*
X019343Y018626D01*
X019611Y018610D02*
X019411Y018360D01*
X016721Y018360D01*
X016721Y017860D02*
X016211Y017860D01*
X015861Y017510D01*
X015861Y014010D01*
X015511Y013660D01*
X006161Y013660D01*
X005692Y013292D02*
X003631Y013292D01*
X003766Y013410D02*
X005557Y013410D01*
X005501Y013529D02*
X003822Y013529D01*
X003841Y013648D02*
X005481Y013648D01*
X005491Y013766D02*
X003832Y013766D01*
X003783Y013885D02*
X005540Y013885D01*
X005651Y014003D02*
X003672Y014003D01*
X003506Y014240D02*
X005817Y014240D01*
X005608Y014359D02*
X003714Y014359D01*
X003800Y014477D02*
X005522Y014477D01*
X005481Y014596D02*
X003841Y014596D01*
X003841Y014714D02*
X005481Y014714D01*
X005518Y014833D02*
X003804Y014833D01*
X003723Y014951D02*
X005599Y014951D01*
X005794Y015070D02*
X003528Y015070D01*
X003505Y015240D02*
X003659Y015304D01*
X003777Y015422D01*
X003841Y015576D01*
X003841Y015743D01*
X003777Y015898D01*
X003659Y016016D01*
X003505Y016080D01*
X002818Y016080D01*
X002663Y016016D01*
X002547Y015900D01*
X002401Y015900D01*
X002547Y015900D01*
X002401Y015900D02*
X002401Y016021D01*
X002307Y016115D01*
X001663Y016115D01*
X001611Y016063D01*
X001591Y016083D01*
X001555Y016104D01*
X001514Y016115D01*
X001297Y016115D01*
X001297Y015720D01*
X001177Y015720D01*
X001177Y016115D01*
X000960Y016115D01*
X000920Y016104D01*
X000883Y016083D01*
X000853Y016053D01*
X000832Y016017D01*
X000821Y015976D01*
X000821Y015720D01*
X001177Y015720D01*
X001177Y015600D01*
X000821Y015600D01*
X000821Y015343D01*
X000832Y015303D01*
X000853Y015266D01*
X000883Y015236D01*
X000920Y015215D01*
X000960Y015204D01*
X001177Y015204D01*
X001177Y015600D01*
X001297Y015600D01*
X001297Y015204D01*
X001514Y015204D01*
X001555Y015215D01*
X001591Y015236D01*
X001611Y015256D01*
X001663Y015204D01*
X002307Y015204D01*
X002401Y015298D01*
X002401Y015420D01*
X002547Y015420D01*
X002663Y015304D01*
X002818Y015240D01*
X003505Y015240D01*
X003663Y015307D02*
X005660Y015307D01*
X005544Y015426D02*
X003779Y015426D01*
X003828Y015544D02*
X005494Y015544D01*
X005481Y015663D02*
X003841Y015663D01*
X003826Y015781D02*
X005497Y015781D01*
X005547Y015900D02*
X003775Y015900D01*
X003653Y016018D02*
X005670Y016018D01*
X005780Y016255D02*
X003543Y016255D01*
X003505Y016240D02*
X003659Y016304D01*
X003777Y016422D01*
X003841Y016576D01*
X003841Y016743D01*
X003777Y016898D01*
X003659Y017016D01*
X003505Y017080D01*
X002818Y017080D01*
X002663Y017016D01*
X002547Y016900D01*
X002401Y016900D01*
X002401Y017021D01*
X002307Y017115D01*
X001663Y017115D01*
X001611Y017063D01*
X001591Y017083D01*
X001555Y017104D01*
X001514Y017115D01*
X001297Y017115D01*
X001297Y016720D01*
X001177Y016720D01*
X001177Y017115D01*
X000960Y017115D01*
X000920Y017104D01*
X000883Y017083D01*
X000853Y017053D01*
X000832Y017017D01*
X000821Y016976D01*
X000821Y016720D01*
X001177Y016720D01*
X001177Y016600D01*
X000821Y016600D01*
X000821Y016343D01*
X000832Y016303D01*
X000853Y016266D01*
X000883Y016236D01*
X000920Y016215D01*
X000960Y016204D01*
X001177Y016204D01*
X001177Y016600D01*
X001297Y016600D01*
X001297Y016204D01*
X001514Y016204D01*
X001555Y016215D01*
X001591Y016236D01*
X001611Y016256D01*
X001663Y016204D01*
X002307Y016204D01*
X002401Y016298D01*
X002401Y016420D01*
X002547Y016420D01*
X002663Y016304D01*
X002818Y016240D01*
X003505Y016240D01*
X003729Y016374D02*
X005593Y016374D01*
X005516Y016493D02*
X003807Y016493D01*
X003841Y016611D02*
X005481Y016611D01*
X005481Y016730D02*
X003841Y016730D01*
X003798Y016848D02*
X005525Y016848D01*
X005614Y016967D02*
X003708Y016967D01*
X003505Y017240D02*
X003659Y017304D01*
X003777Y017422D01*
X003841Y017576D01*
X003841Y017743D01*
X003777Y017898D01*
X003659Y018016D01*
X003505Y018080D01*
X002818Y018080D01*
X002663Y018016D01*
X002547Y017900D01*
X002401Y017900D01*
X002401Y018021D01*
X002307Y018115D01*
X001663Y018115D01*
X001611Y018063D01*
X001591Y018083D01*
X001555Y018104D01*
X001514Y018115D01*
X001297Y018115D01*
X001297Y017720D01*
X001177Y017720D01*
X001177Y018115D01*
X000960Y018115D01*
X000920Y018104D01*
X000883Y018083D01*
X000853Y018053D01*
X000832Y018017D01*
X000821Y017976D01*
X000821Y017720D01*
X001177Y017720D01*
X001177Y017600D01*
X000821Y017600D01*
X000821Y017343D01*
X000832Y017303D01*
X000853Y017266D01*
X000883Y017236D01*
X000920Y017215D01*
X000960Y017204D01*
X001177Y017204D01*
X001177Y017600D01*
X001297Y017600D01*
X001297Y017204D01*
X001514Y017204D01*
X001555Y017215D01*
X001591Y017236D01*
X001611Y017256D01*
X001663Y017204D01*
X002307Y017204D01*
X002401Y017298D01*
X002401Y017420D01*
X002547Y017420D01*
X002663Y017304D01*
X002818Y017240D01*
X003505Y017240D01*
X003678Y017322D02*
X005645Y017322D01*
X005537Y017441D02*
X003785Y017441D01*
X003834Y017559D02*
X005488Y017559D01*
X005481Y017678D02*
X003841Y017678D01*
X003819Y017797D02*
X005503Y017797D01*
X005563Y017915D02*
X003760Y017915D01*
X003616Y018034D02*
X005706Y018034D01*
X005743Y018271D02*
X003579Y018271D01*
X003505Y018240D02*
X003659Y018304D01*
X003777Y018422D01*
X003841Y018576D01*
X003841Y018743D01*
X003777Y018898D01*
X003659Y019016D01*
X003505Y019080D01*
X002818Y019080D01*
X002663Y019016D01*
X002547Y018900D01*
X002401Y018900D01*
X002401Y019021D01*
X002307Y019115D01*
X001663Y019115D01*
X001611Y019063D01*
X001591Y019083D01*
X001555Y019104D01*
X001514Y019115D01*
X001297Y019115D01*
X001297Y018720D01*
X001177Y018720D01*
X001177Y019115D01*
X000960Y019115D01*
X000920Y019104D01*
X000883Y019083D01*
X000853Y019053D01*
X000832Y019017D01*
X000821Y018976D01*
X000821Y018720D01*
X001177Y018720D01*
X001177Y018600D01*
X000821Y018600D01*
X000821Y018343D01*
X000832Y018303D01*
X000853Y018266D01*
X000883Y018236D01*
X000920Y018215D01*
X000960Y018204D01*
X001177Y018204D01*
X001177Y018600D01*
X001297Y018600D01*
X001297Y018204D01*
X001514Y018204D01*
X001555Y018215D01*
X001591Y018236D01*
X001611Y018256D01*
X001663Y018204D01*
X002307Y018204D01*
X002401Y018298D01*
X002401Y018420D01*
X002547Y018420D01*
X002663Y018304D01*
X002818Y018240D01*
X003505Y018240D01*
X003745Y018389D02*
X005578Y018389D01*
X005510Y018508D02*
X003813Y018508D01*
X003841Y018626D02*
X005481Y018626D01*
X005482Y018745D02*
X003841Y018745D01*
X003791Y018863D02*
X005531Y018863D01*
X005630Y018982D02*
X003693Y018982D01*
X003505Y019240D02*
X003659Y019304D01*
X003777Y019422D01*
X003841Y019576D01*
X003841Y019743D01*
X003777Y019898D01*
X003659Y020016D01*
X003505Y020080D01*
X002818Y020080D01*
X002663Y020016D01*
X002547Y019900D01*
X002401Y019900D01*
X002401Y020021D01*
X002307Y020115D01*
X001663Y020115D01*
X001611Y020063D01*
X001591Y020083D01*
X001555Y020104D01*
X001514Y020115D01*
X001297Y020115D01*
X001297Y019720D01*
X001177Y019720D01*
X001177Y020115D01*
X000960Y020115D01*
X000920Y020104D01*
X000883Y020083D01*
X000853Y020053D01*
X000832Y020017D01*
X000821Y019976D01*
X000821Y019720D01*
X001177Y019720D01*
X001177Y019600D01*
X000821Y019600D01*
X000821Y019343D01*
X000832Y019303D01*
X000853Y019266D01*
X000883Y019236D01*
X000920Y019215D01*
X000960Y019204D01*
X001177Y019204D01*
X001177Y019600D01*
X001297Y019600D01*
X001297Y019204D01*
X001514Y019204D01*
X001555Y019215D01*
X001591Y019236D01*
X001611Y019256D01*
X001663Y019204D01*
X002307Y019204D01*
X002401Y019298D01*
X002401Y019420D01*
X002547Y019420D01*
X002663Y019304D01*
X002818Y019240D01*
X003505Y019240D01*
X003693Y019338D02*
X005629Y019338D01*
X005531Y019456D02*
X003791Y019456D01*
X003841Y019575D02*
X005482Y019575D01*
X005481Y019693D02*
X003841Y019693D01*
X003813Y019812D02*
X005510Y019812D01*
X005578Y019930D02*
X003745Y019930D01*
X003579Y020049D02*
X005743Y020049D01*
X005706Y020286D02*
X003616Y020286D01*
X003659Y020304D02*
X003777Y020422D01*
X003841Y020576D01*
X003841Y020743D01*
X003777Y020898D01*
X003659Y021016D01*
X003505Y021080D01*
X002818Y021080D01*
X002663Y021016D01*
X002547Y020900D01*
X002401Y020900D01*
X002401Y021021D01*
X002307Y021115D01*
X001663Y021115D01*
X001611Y021063D01*
X001591Y021083D01*
X001555Y021104D01*
X001514Y021115D01*
X001297Y021115D01*
X001297Y020720D01*
X001177Y020720D01*
X001177Y021115D01*
X000960Y021115D01*
X000920Y021104D01*
X000883Y021083D01*
X000853Y021053D01*
X000832Y021017D01*
X000821Y020976D01*
X000821Y020720D01*
X001177Y020720D01*
X001177Y020600D01*
X000821Y020600D01*
X000821Y020343D01*
X000832Y020303D01*
X000853Y020266D01*
X000883Y020236D01*
X000920Y020215D01*
X000960Y020204D01*
X001177Y020204D01*
X001177Y020600D01*
X001297Y020600D01*
X001297Y020204D01*
X001514Y020204D01*
X001555Y020215D01*
X001591Y020236D01*
X001611Y020256D01*
X001663Y020204D01*
X002307Y020204D01*
X002401Y020298D01*
X002401Y020420D01*
X002547Y020420D01*
X002663Y020304D01*
X002818Y020240D01*
X003505Y020240D01*
X003659Y020304D01*
X003760Y020404D02*
X005563Y020404D01*
X005503Y020523D02*
X003819Y020523D01*
X003841Y020642D02*
X005481Y020642D01*
X005488Y020760D02*
X003834Y020760D01*
X003785Y020879D02*
X005537Y020879D01*
X005645Y020997D02*
X003678Y020997D01*
X003505Y021240D02*
X003659Y021304D01*
X003777Y021422D01*
X003841Y021576D01*
X003841Y021743D01*
X003777Y021898D01*
X003659Y022016D01*
X003505Y022080D01*
X002818Y022080D01*
X002663Y022016D01*
X002547Y021900D01*
X002401Y021900D01*
X002401Y022021D01*
X002307Y022115D01*
X001663Y022115D01*
X001611Y022063D01*
X001591Y022083D01*
X001555Y022104D01*
X001514Y022115D01*
X001297Y022115D01*
X001297Y021720D01*
X001177Y021720D01*
X001177Y022115D01*
X000960Y022115D01*
X000920Y022104D01*
X000883Y022083D01*
X000853Y022053D01*
X000832Y022017D01*
X000821Y021976D01*
X000821Y021720D01*
X001177Y021720D01*
X001177Y021600D01*
X000821Y021600D01*
X000821Y021343D01*
X000832Y021303D01*
X000853Y021266D01*
X000883Y021236D01*
X000920Y021215D01*
X000960Y021204D01*
X001177Y021204D01*
X001177Y021600D01*
X001297Y021600D01*
X001297Y021204D01*
X001514Y021204D01*
X001555Y021215D01*
X001591Y021236D01*
X001611Y021256D01*
X001663Y021204D01*
X002307Y021204D01*
X002401Y021298D01*
X002401Y021420D01*
X002547Y021420D01*
X002663Y021304D01*
X002818Y021240D01*
X003505Y021240D01*
X003708Y021353D02*
X005614Y021353D01*
X005525Y021471D02*
X003798Y021471D01*
X003841Y021590D02*
X005481Y021590D01*
X005481Y021708D02*
X003841Y021708D01*
X003807Y021827D02*
X005516Y021827D01*
X005593Y021946D02*
X003729Y021946D01*
X003543Y022064D02*
X005780Y022064D01*
X005669Y022301D02*
X003653Y022301D01*
X003659Y022304D02*
X003777Y022422D01*
X003841Y022576D01*
X003841Y022743D01*
X003777Y022898D01*
X003659Y023016D01*
X003505Y023080D01*
X002818Y023080D01*
X002663Y023016D01*
X002547Y022900D01*
X002401Y022900D01*
X002401Y023021D01*
X002307Y023115D01*
X001663Y023115D01*
X001611Y023063D01*
X001591Y023083D01*
X001555Y023104D01*
X001514Y023115D01*
X001297Y023115D01*
X001297Y022720D01*
X001177Y022720D01*
X001177Y023115D01*
X000960Y023115D01*
X000920Y023104D01*
X000883Y023083D01*
X000853Y023053D01*
X000832Y023017D01*
X000821Y022976D01*
X000821Y022720D01*
X001177Y022720D01*
X001177Y022600D01*
X000821Y022600D01*
X000821Y022343D01*
X000832Y022303D01*
X000853Y022266D01*
X000883Y022236D01*
X000920Y022215D01*
X000960Y022204D01*
X001177Y022204D01*
X001177Y022600D01*
X001297Y022600D01*
X001297Y022204D01*
X001514Y022204D01*
X001555Y022215D01*
X001591Y022236D01*
X001611Y022256D01*
X001663Y022204D01*
X002307Y022204D01*
X002401Y022298D01*
X002401Y022420D01*
X002547Y022420D01*
X002663Y022304D01*
X002818Y022240D01*
X003505Y022240D01*
X003659Y022304D01*
X003775Y022420D02*
X005547Y022420D01*
X005497Y022538D02*
X003826Y022538D01*
X003841Y022657D02*
X005481Y022657D01*
X005495Y022775D02*
X003828Y022775D01*
X003779Y022894D02*
X005544Y022894D01*
X005660Y023012D02*
X003662Y023012D01*
X002660Y023012D02*
X002401Y023012D01*
X002401Y022420D02*
X002547Y022420D01*
X002669Y022301D02*
X002401Y022301D01*
X002358Y022064D02*
X002780Y022064D01*
X002593Y021946D02*
X002401Y021946D01*
X002401Y021353D02*
X002614Y021353D01*
X002337Y021234D02*
X006691Y021234D01*
X006691Y021116D02*
X000621Y021116D01*
X000621Y021234D02*
X000887Y021234D01*
X000821Y021353D02*
X000621Y021353D01*
X000621Y021471D02*
X000821Y021471D01*
X000821Y021590D02*
X000621Y021590D01*
X000621Y021708D02*
X001177Y021708D01*
X001177Y021590D02*
X001297Y021590D01*
X001297Y021471D02*
X001177Y021471D01*
X001177Y021353D02*
X001297Y021353D01*
X001297Y021234D02*
X001177Y021234D01*
X001177Y020997D02*
X001297Y020997D01*
X001297Y020879D02*
X001177Y020879D01*
X001177Y020760D02*
X001297Y020760D01*
X001177Y020642D02*
X000621Y020642D01*
X000621Y020760D02*
X000821Y020760D01*
X000821Y020879D02*
X000621Y020879D01*
X000621Y020997D02*
X000827Y020997D01*
X000821Y020523D02*
X000621Y020523D01*
X000621Y020404D02*
X000821Y020404D01*
X000842Y020286D02*
X000621Y020286D01*
X000621Y020167D02*
X006342Y020167D01*
X006711Y020110D02*
X006161Y020660D01*
X006678Y020997D02*
X006691Y020997D01*
X006911Y020760D02*
X007111Y020610D01*
X007511Y020610D01*
X007850Y020642D02*
X013767Y020642D01*
X013741Y020760D02*
X013113Y020760D01*
X013231Y020879D02*
X013741Y020879D01*
X013741Y020997D02*
X013350Y020997D01*
X013468Y021116D02*
X013801Y021116D01*
X013587Y021234D02*
X015741Y021234D01*
X015741Y021116D02*
X014801Y021116D01*
X014799Y021118D02*
X014763Y021139D01*
X014722Y021150D01*
X014306Y021150D01*
X014306Y020865D01*
X014861Y020865D01*
X014861Y021011D01*
X014850Y021051D01*
X014829Y021088D01*
X014799Y021118D01*
X014861Y020997D02*
X015741Y020997D01*
X015831Y020879D02*
X014861Y020879D01*
X014861Y020760D02*
X015950Y020760D01*
X016068Y020642D02*
X014835Y020642D01*
X014861Y020523D02*
X016161Y020523D01*
X016161Y020404D02*
X014861Y020404D01*
X014861Y020286D02*
X016161Y020286D01*
X016161Y020167D02*
X014861Y020167D01*
X014861Y020049D02*
X016161Y020049D01*
X016161Y019930D02*
X014861Y019930D01*
X014861Y019812D02*
X016161Y019812D01*
X016161Y019693D02*
X014861Y019693D01*
X014843Y019575D02*
X016180Y019575D01*
X016161Y019456D02*
X014861Y019456D01*
X014861Y019338D02*
X016161Y019338D01*
X016161Y019219D02*
X014861Y019219D01*
X014817Y019101D02*
X016206Y019101D01*
X016161Y018982D02*
X014861Y018982D01*
X014301Y018860D02*
X013211Y018860D01*
X012011Y017660D01*
X006161Y017660D01*
X006616Y018034D02*
X012074Y018034D01*
X012193Y018152D02*
X000621Y018152D01*
X000621Y018034D02*
X000842Y018034D01*
X000821Y017915D02*
X000621Y017915D01*
X000621Y017797D02*
X000821Y017797D01*
X000621Y017678D02*
X001177Y017678D01*
X001177Y017797D02*
X001297Y017797D01*
X001297Y017915D02*
X001177Y017915D01*
X001177Y018034D02*
X001297Y018034D01*
X001297Y018271D02*
X001177Y018271D01*
X001177Y018389D02*
X001297Y018389D01*
X001297Y018508D02*
X001177Y018508D01*
X001177Y018626D02*
X000621Y018626D01*
X000621Y018508D02*
X000821Y018508D01*
X000821Y018389D02*
X000621Y018389D01*
X000621Y018271D02*
X000851Y018271D01*
X000821Y018745D02*
X000621Y018745D01*
X000621Y018863D02*
X000821Y018863D01*
X000823Y018982D02*
X000621Y018982D01*
X000621Y019101D02*
X000913Y019101D01*
X000913Y019219D02*
X000621Y019219D01*
X000621Y019338D02*
X000823Y019338D01*
X000821Y019456D02*
X000621Y019456D01*
X000621Y019575D02*
X000821Y019575D01*
X000621Y019693D02*
X001177Y019693D01*
X001177Y019575D02*
X001297Y019575D01*
X001297Y019456D02*
X001177Y019456D01*
X001177Y019338D02*
X001297Y019338D01*
X001297Y019219D02*
X001177Y019219D01*
X001177Y019101D02*
X001297Y019101D01*
X001297Y018982D02*
X001177Y018982D01*
X001177Y018863D02*
X001297Y018863D01*
X001297Y018745D02*
X001177Y018745D01*
X001561Y019101D02*
X001649Y019101D01*
X001649Y019219D02*
X001561Y019219D01*
X001297Y019812D02*
X001177Y019812D01*
X001177Y019930D02*
X001297Y019930D01*
X001297Y020049D02*
X001177Y020049D01*
X001177Y020286D02*
X001297Y020286D01*
X001297Y020404D02*
X001177Y020404D01*
X001177Y020523D02*
X001297Y020523D01*
X000851Y020049D02*
X000621Y020049D01*
X000621Y019930D02*
X000821Y019930D01*
X000821Y019812D02*
X000621Y019812D01*
X001588Y021234D02*
X001633Y021234D01*
X001297Y021827D02*
X001177Y021827D01*
X001177Y021946D02*
X001297Y021946D01*
X001297Y022064D02*
X001177Y022064D01*
X001177Y022301D02*
X001297Y022301D01*
X001297Y022420D02*
X001177Y022420D01*
X001177Y022538D02*
X001297Y022538D01*
X001177Y022657D02*
X000621Y022657D01*
X000621Y022775D02*
X000821Y022775D01*
X000821Y022894D02*
X000621Y022894D01*
X000621Y023012D02*
X000831Y023012D01*
X000621Y023131D02*
X008400Y023131D01*
X008363Y023116D02*
X008245Y022998D01*
X008181Y022843D01*
X008181Y022676D01*
X008245Y022522D01*
X008363Y022404D01*
X008518Y022340D01*
X009205Y022340D01*
X009359Y022404D01*
X009477Y022522D01*
X009541Y022676D01*
X009541Y022843D01*
X009477Y022998D01*
X009359Y023116D01*
X009205Y023180D01*
X008518Y023180D01*
X008363Y023116D01*
X008260Y023012D02*
X006662Y023012D01*
X006779Y022894D02*
X008202Y022894D01*
X008181Y022775D02*
X006828Y022775D01*
X006841Y022657D02*
X008189Y022657D01*
X008238Y022538D02*
X006844Y022538D01*
X006962Y022420D02*
X008347Y022420D01*
X008518Y022180D02*
X008363Y022116D01*
X008245Y021998D01*
X008181Y021843D01*
X008181Y021676D01*
X008245Y021522D01*
X008363Y021404D01*
X008518Y021340D01*
X009205Y021340D01*
X009359Y021404D01*
X009477Y021522D01*
X009541Y021676D01*
X009541Y021843D01*
X009477Y021998D01*
X009359Y022116D01*
X009205Y022180D01*
X008518Y022180D01*
X008312Y022064D02*
X007318Y022064D01*
X007381Y021946D02*
X008224Y021946D01*
X008181Y021827D02*
X007381Y021827D01*
X007381Y021708D02*
X008181Y021708D01*
X008217Y021590D02*
X007381Y021590D01*
X007381Y021471D02*
X008296Y021471D01*
X008486Y021353D02*
X007381Y021353D01*
X007398Y021234D02*
X012965Y021234D01*
X013083Y021353D02*
X012236Y021353D01*
X012427Y021471D02*
X013202Y021471D01*
X013320Y021590D02*
X013052Y021590D01*
X013176Y021708D02*
X013439Y021708D01*
X013557Y021827D02*
X013301Y021827D01*
X013425Y021946D02*
X013676Y021946D01*
X013741Y022064D02*
X013550Y022064D01*
X013674Y022183D02*
X013741Y022183D01*
X013410Y022538D02*
X012484Y022538D01*
X012375Y022420D02*
X013285Y022420D01*
X013161Y022301D02*
X007081Y022301D01*
X007199Y022183D02*
X013036Y022183D01*
X012912Y022064D02*
X012411Y022064D01*
X012911Y021760D02*
X011861Y021760D01*
X011486Y021353D02*
X009236Y021353D01*
X009427Y021471D02*
X011296Y021471D01*
X011217Y021590D02*
X009505Y021590D01*
X009541Y021708D02*
X011181Y021708D01*
X011181Y021827D02*
X009541Y021827D01*
X009499Y021946D02*
X011224Y021946D01*
X011312Y022064D02*
X009411Y022064D01*
X009375Y022420D02*
X011347Y022420D01*
X011238Y022538D02*
X009484Y022538D01*
X009533Y022657D02*
X011189Y022657D01*
X011181Y022775D02*
X009541Y022775D01*
X009520Y022894D02*
X011202Y022894D01*
X011260Y023012D02*
X009462Y023012D01*
X009322Y023131D02*
X011400Y023131D01*
X011449Y023368D02*
X009273Y023368D01*
X009205Y023340D02*
X009359Y023404D01*
X009477Y023522D01*
X009541Y023676D01*
X009541Y023843D01*
X009477Y023998D01*
X009359Y024116D01*
X009205Y024180D01*
X008518Y024180D01*
X008363Y024116D01*
X008247Y024000D01*
X008101Y024000D01*
X008101Y024121D01*
X008007Y024215D01*
X007363Y024215D01*
X007311Y024163D01*
X007291Y024183D01*
X007255Y024204D01*
X007214Y024215D01*
X006997Y024215D01*
X006997Y023820D01*
X006877Y023820D01*
X006877Y024215D01*
X006660Y024215D01*
X006620Y024204D01*
X006583Y024183D01*
X006553Y024153D01*
X006532Y024117D01*
X006521Y024076D01*
X006521Y023820D01*
X006877Y023820D01*
X006877Y023700D01*
X006521Y023700D01*
X006521Y023443D01*
X006532Y023403D01*
X006553Y023366D01*
X006583Y023336D01*
X006620Y023315D01*
X006660Y023304D01*
X006877Y023304D01*
X006877Y023700D01*
X006997Y023700D01*
X006997Y023304D01*
X007214Y023304D01*
X007255Y023315D01*
X007291Y023336D01*
X007311Y023356D01*
X007363Y023304D01*
X008007Y023304D01*
X008101Y023398D01*
X008101Y023520D01*
X008247Y023520D01*
X008363Y023404D01*
X008518Y023340D01*
X009205Y023340D01*
X009442Y023487D02*
X011280Y023487D01*
X011211Y023605D02*
X009512Y023605D01*
X009541Y023724D02*
X011181Y023724D01*
X011181Y023842D02*
X009541Y023842D01*
X009493Y023961D02*
X011230Y023961D01*
X011327Y024079D02*
X009396Y024079D01*
X009205Y024340D02*
X009359Y024404D01*
X009477Y024522D01*
X009541Y024676D01*
X009541Y024843D01*
X009477Y024998D01*
X009359Y025116D01*
X009205Y025180D01*
X008518Y025180D01*
X008363Y025116D01*
X008247Y025000D01*
X008101Y025000D01*
X008101Y025121D01*
X008007Y025215D01*
X007363Y025215D01*
X007311Y025163D01*
X007291Y025183D01*
X007255Y025204D01*
X007214Y025215D01*
X006997Y025215D01*
X006997Y024820D01*
X006877Y024820D01*
X006877Y025215D01*
X006660Y025215D01*
X006620Y025204D01*
X006583Y025183D01*
X006553Y025153D01*
X006532Y025117D01*
X006521Y025076D01*
X006521Y024820D01*
X006877Y024820D01*
X006877Y024700D01*
X006521Y024700D01*
X006521Y024443D01*
X006532Y024403D01*
X006553Y024366D01*
X006583Y024336D01*
X006620Y024315D01*
X006660Y024304D01*
X006877Y024304D01*
X006877Y024700D01*
X006997Y024700D01*
X006997Y024304D01*
X007214Y024304D01*
X007255Y024315D01*
X007291Y024336D01*
X007311Y024356D01*
X007363Y024304D01*
X008007Y024304D01*
X008101Y024398D01*
X008101Y024520D01*
X008247Y024520D01*
X008363Y024404D01*
X008518Y024340D01*
X009205Y024340D01*
X009390Y024435D02*
X011332Y024435D01*
X011232Y024554D02*
X009490Y024554D01*
X009539Y024672D02*
X011183Y024672D01*
X011181Y024791D02*
X009541Y024791D01*
X009514Y024909D02*
X011209Y024909D01*
X011275Y025028D02*
X009447Y025028D01*
X009286Y025146D02*
X011437Y025146D01*
X011413Y025383D02*
X009310Y025383D01*
X009359Y025404D02*
X009477Y025522D01*
X009541Y025676D01*
X009541Y025843D01*
X009477Y025998D01*
X009359Y026116D01*
X009205Y026180D01*
X008518Y026180D01*
X008363Y026116D01*
X008247Y026000D01*
X008101Y026000D01*
X008101Y026121D01*
X008007Y026215D01*
X007363Y026215D01*
X007311Y026163D01*
X007291Y026183D01*
X007255Y026204D01*
X007214Y026215D01*
X006997Y026215D01*
X006997Y025820D01*
X006877Y025820D01*
X006877Y026215D01*
X006660Y026215D01*
X006620Y026204D01*
X006583Y026183D01*
X006553Y026153D01*
X006532Y026117D01*
X006521Y026076D01*
X006521Y025820D01*
X006877Y025820D01*
X006877Y025700D01*
X006521Y025700D01*
X006521Y025443D01*
X006532Y025403D01*
X006553Y025366D01*
X006583Y025336D01*
X006620Y025315D01*
X006660Y025304D01*
X006877Y025304D01*
X006877Y025700D01*
X006997Y025700D01*
X006997Y025304D01*
X007214Y025304D01*
X007255Y025315D01*
X007291Y025336D01*
X007311Y025356D01*
X007363Y025304D01*
X008007Y025304D01*
X008101Y025398D01*
X008101Y025520D01*
X008247Y025520D01*
X008363Y025404D01*
X008518Y025340D01*
X009205Y025340D01*
X009359Y025404D01*
X009457Y025502D02*
X011265Y025502D01*
X011204Y025620D02*
X009518Y025620D01*
X009541Y025739D02*
X011181Y025739D01*
X011187Y025857D02*
X009535Y025857D01*
X009486Y025976D02*
X011236Y025976D01*
X011342Y026095D02*
X009380Y026095D01*
X009205Y026340D02*
X009359Y026404D01*
X009477Y026522D01*
X009541Y026676D01*
X009541Y026843D01*
X009477Y026998D01*
X009359Y027116D01*
X009205Y027180D01*
X008518Y027180D01*
X008363Y027116D01*
X008247Y027000D01*
X008101Y027000D01*
X008101Y027121D01*
X008007Y027215D01*
X007363Y027215D01*
X007311Y027163D01*
X007291Y027183D01*
X007255Y027204D01*
X007214Y027215D01*
X006997Y027215D01*
X006997Y026820D01*
X006877Y026820D01*
X006877Y027215D01*
X006660Y027215D01*
X006620Y027204D01*
X006583Y027183D01*
X006553Y027153D01*
X006532Y027117D01*
X006521Y027076D01*
X006521Y026820D01*
X006877Y026820D01*
X006877Y026700D01*
X006521Y026700D01*
X006521Y026443D01*
X006532Y026403D01*
X006553Y026366D01*
X006583Y026336D01*
X006620Y026315D01*
X006660Y026304D01*
X006877Y026304D01*
X006877Y026700D01*
X006997Y026700D01*
X006997Y026304D01*
X007214Y026304D01*
X007255Y026315D01*
X007291Y026336D01*
X007311Y026356D01*
X007363Y026304D01*
X008007Y026304D01*
X008101Y026398D01*
X008101Y026520D01*
X008247Y026520D01*
X008363Y026404D01*
X008518Y026340D01*
X009205Y026340D01*
X009406Y026450D02*
X011317Y026450D01*
X011226Y026569D02*
X009497Y026569D01*
X009541Y026687D02*
X011181Y026687D01*
X011181Y026806D02*
X009541Y026806D01*
X009508Y026924D02*
X011215Y026924D01*
X011290Y027043D02*
X009432Y027043D01*
X009249Y027161D02*
X011474Y027161D01*
X011518Y027340D02*
X012205Y027340D01*
X012359Y027404D01*
X012477Y027522D01*
X012485Y027540D01*
X012520Y027540D01*
X013373Y026687D01*
X013373Y026592D01*
X013424Y026468D01*
X013520Y026373D01*
X013644Y026321D01*
X013779Y026321D01*
X013903Y026373D01*
X013998Y026468D01*
X014050Y026592D01*
X014050Y026727D01*
X013998Y026851D01*
X013903Y026947D01*
X013847Y026970D01*
X014768Y026970D01*
X014861Y027063D01*
X014861Y027456D01*
X014807Y027510D01*
X014861Y027563D01*
X014861Y027956D01*
X014807Y028010D01*
X014861Y028063D01*
X014861Y028456D01*
X014807Y028510D01*
X014861Y028563D01*
X014861Y028956D01*
X014807Y029010D01*
X014861Y029063D01*
X014861Y029456D01*
X014807Y029510D01*
X014861Y029563D01*
X014861Y029956D01*
X014807Y030010D01*
X014861Y030063D01*
X014861Y030456D01*
X014807Y030510D01*
X014829Y030531D01*
X014850Y030568D01*
X014861Y030609D01*
X014861Y030755D01*
X014306Y030755D01*
X014306Y030765D01*
X014296Y030765D01*
X014296Y031050D01*
X013880Y031050D01*
X013839Y031039D01*
X013803Y031018D01*
X013781Y030996D01*
X013781Y031751D01*
X013652Y031880D01*
X013442Y032090D01*
X013815Y032090D01*
X013885Y032020D01*
X014818Y032020D01*
X014911Y032113D01*
X014911Y032506D01*
X014857Y032560D01*
X014911Y032613D01*
X014911Y033006D01*
X014857Y033060D01*
X014911Y033113D01*
X014911Y033506D01*
X014857Y033560D01*
X014911Y033613D01*
X014911Y034006D01*
X014857Y034060D01*
X014911Y034113D01*
X014911Y034506D01*
X014857Y034560D01*
X014911Y034613D01*
X014911Y035006D01*
X014857Y035060D01*
X014911Y035113D01*
X014911Y035506D01*
X014857Y035560D01*
X014879Y035581D01*
X014900Y035618D01*
X014911Y035659D01*
X014911Y035805D01*
X014356Y035805D01*
X014356Y035815D01*
X014346Y035815D01*
X014346Y036100D01*
X013930Y036100D01*
X013889Y036089D01*
X013853Y036068D01*
X013823Y036038D01*
X013802Y036001D01*
X013791Y035961D01*
X013791Y035815D01*
X012181Y035815D01*
X012181Y035697D02*
X013791Y035697D01*
X013791Y035659D02*
X013791Y035805D01*
X014346Y035805D01*
X014346Y035815D01*
X014356Y035815D01*
X014356Y036100D01*
X014772Y036100D01*
X014813Y036089D01*
X014849Y036068D01*
X014879Y036038D01*
X014900Y036001D01*
X014911Y035961D01*
X014911Y035815D01*
X015845Y035815D01*
X015791Y035934D02*
X014911Y035934D01*
X014911Y035815D02*
X014356Y035815D01*
X014346Y035815D02*
X013791Y035815D01*
X013791Y035934D02*
X012181Y035934D01*
X012181Y036052D02*
X013837Y036052D01*
X013791Y035659D02*
X013802Y035618D01*
X013823Y035581D01*
X013845Y035560D01*
X013835Y035550D01*
X013750Y035550D01*
X013703Y035597D01*
X013579Y035648D01*
X013444Y035648D01*
X013320Y035597D01*
X013224Y035501D01*
X013173Y035377D01*
X013173Y035242D01*
X013224Y035118D01*
X013283Y035060D01*
X013224Y035001D01*
X013173Y034877D01*
X013173Y034742D01*
X013224Y034618D01*
X013313Y034530D01*
X012202Y034530D01*
X012181Y034551D01*
X012181Y037569D01*
X012181Y037751D01*
X011931Y038001D01*
X011802Y038130D01*
X006785Y038130D01*
X006777Y038148D01*
X006659Y038266D01*
X006505Y038330D01*
X005818Y038330D01*
X005663Y038266D01*
X005545Y038148D01*
X005481Y037993D01*
X005481Y037826D01*
X005545Y037672D01*
X005663Y037554D01*
X005818Y037490D01*
X006505Y037490D01*
X006659Y037554D01*
X006777Y037672D01*
X006785Y037690D01*
X011620Y037690D01*
X011741Y037569D01*
X011741Y036791D01*
X011402Y037130D01*
X011220Y037130D01*
X006785Y037130D01*
X006777Y037148D01*
X006659Y037266D01*
X006505Y037330D01*
X005818Y037330D01*
X005663Y037266D01*
X005545Y037148D01*
X005481Y036993D01*
X005481Y036826D01*
X005545Y036672D01*
X005663Y036554D01*
X005818Y036490D01*
X006505Y036490D01*
X006659Y036554D01*
X006777Y036672D01*
X006785Y036690D01*
X011220Y036690D01*
X011341Y036569D01*
X011341Y034101D01*
X011341Y033919D01*
X011541Y033719D01*
X011541Y033719D01*
X011670Y033590D01*
X013815Y033590D01*
X013845Y033560D01*
X013815Y033530D01*
X011385Y033530D01*
X011331Y033570D01*
X011331Y035619D01*
X011331Y035801D01*
X011131Y036001D01*
X011002Y036130D01*
X006785Y036130D01*
X006777Y036148D01*
X006659Y036266D01*
X006505Y036330D01*
X005818Y036330D01*
X005663Y036266D01*
X005545Y036148D01*
X005481Y035993D01*
X005481Y035826D01*
X005545Y035672D01*
X005663Y035554D01*
X005818Y035490D01*
X006505Y035490D01*
X006659Y035554D01*
X006777Y035672D01*
X006785Y035690D01*
X010820Y035690D01*
X010891Y035619D01*
X010891Y034941D01*
X010702Y035130D01*
X010520Y035130D01*
X006785Y035130D01*
X006777Y035148D01*
X006659Y035266D01*
X006505Y035330D01*
X005818Y035330D01*
X005663Y035266D01*
X005545Y035148D01*
X005481Y034993D01*
X005481Y034826D01*
X005545Y034672D01*
X005663Y034554D01*
X005818Y034490D01*
X006505Y034490D01*
X006659Y034554D01*
X006777Y034672D01*
X006785Y034690D01*
X010520Y034690D01*
X010591Y034619D01*
X010591Y033941D01*
X010402Y034130D01*
X010220Y034130D01*
X006785Y034130D01*
X006777Y034148D01*
X006659Y034266D01*
X006505Y034330D01*
X005818Y034330D01*
X005663Y034266D01*
X005545Y034148D01*
X005481Y033993D01*
X005481Y033826D01*
X005545Y033672D01*
X005663Y033554D01*
X005818Y033490D01*
X006505Y033490D01*
X006659Y033554D01*
X006777Y033672D01*
X006785Y033690D01*
X010220Y033690D01*
X010291Y033619D01*
X010291Y032651D01*
X010291Y032469D01*
X010541Y032219D01*
X010630Y032130D01*
X006785Y032130D01*
X006777Y032148D01*
X006659Y032266D01*
X006505Y032330D01*
X005818Y032330D01*
X005663Y032266D01*
X005545Y032148D01*
X005481Y031993D01*
X005481Y031826D01*
X005545Y031672D01*
X005663Y031554D01*
X005818Y031490D01*
X006505Y031490D01*
X006591Y031526D01*
X006591Y031294D01*
X006505Y031330D01*
X005818Y031330D01*
X005663Y031266D01*
X005545Y031148D01*
X005481Y030993D01*
X005481Y030826D01*
X005545Y030672D01*
X005663Y030554D01*
X005818Y030490D01*
X006505Y030490D01*
X006620Y030538D01*
X006348Y030330D01*
X005818Y030330D01*
X005663Y030266D01*
X005545Y030148D01*
X005481Y029993D01*
X005481Y029826D01*
X005545Y029672D01*
X005663Y029554D01*
X005818Y029490D01*
X006505Y029490D01*
X006553Y029510D01*
X006330Y029330D01*
X005818Y029330D01*
X005663Y029266D01*
X005545Y029148D01*
X005481Y028993D01*
X005481Y028826D01*
X005545Y028672D01*
X005663Y028554D01*
X005818Y028490D01*
X006505Y028490D01*
X006659Y028554D01*
X006777Y028672D01*
X006841Y028826D01*
X006841Y028993D01*
X006784Y029131D01*
X007289Y029540D01*
X007302Y029540D01*
X007359Y029596D01*
X007420Y029646D01*
X007422Y029659D01*
X007431Y029669D01*
X007431Y029748D01*
X007440Y029827D01*
X007431Y029838D01*
X007431Y031090D01*
X008337Y031090D01*
X008245Y030998D01*
X008181Y030843D01*
X008181Y030676D01*
X008245Y030522D01*
X008363Y030404D01*
X008518Y030340D01*
X009205Y030340D01*
X009359Y030404D01*
X009477Y030522D01*
X009541Y030676D01*
X009541Y030843D01*
X009477Y030998D01*
X009385Y031090D01*
X011337Y031090D01*
X011245Y030998D01*
X011181Y030843D01*
X011181Y030676D01*
X011245Y030522D01*
X011363Y030404D01*
X011518Y030340D01*
X012205Y030340D01*
X012359Y030404D01*
X012477Y030522D01*
X012480Y030529D01*
X012541Y030469D01*
X012541Y029980D01*
X012485Y029980D01*
X012477Y029998D01*
X012359Y030116D01*
X012205Y030180D01*
X011518Y030180D01*
X011363Y030116D01*
X011245Y029998D01*
X011181Y029843D01*
X011181Y029676D01*
X011245Y029522D01*
X011363Y029404D01*
X011518Y029340D01*
X012205Y029340D01*
X012359Y029404D01*
X012477Y029522D01*
X012480Y029529D01*
X013091Y028919D01*
X013091Y028641D01*
X012881Y028851D01*
X012752Y028980D01*
X012485Y028980D01*
X012477Y028998D01*
X012359Y029116D01*
X012205Y029180D01*
X011518Y029180D01*
X011363Y029116D01*
X011245Y028998D01*
X011181Y028843D01*
X011181Y028676D01*
X011245Y028522D01*
X011363Y028404D01*
X011518Y028340D01*
X012205Y028340D01*
X012359Y028404D01*
X012477Y028522D01*
X012485Y028540D01*
X012570Y028540D01*
X012741Y028369D01*
X012741Y027941D01*
X012702Y027980D01*
X012520Y027980D01*
X012485Y027980D01*
X012477Y027998D01*
X012359Y028116D01*
X012205Y028180D01*
X011518Y028180D01*
X011363Y028116D01*
X011245Y027998D01*
X011181Y027843D01*
X011181Y027676D01*
X011245Y027522D01*
X011363Y027404D01*
X011518Y027340D01*
X011376Y027399D02*
X009347Y027399D01*
X009359Y027404D02*
X009477Y027522D01*
X009541Y027676D01*
X009541Y027843D01*
X009477Y027998D01*
X009359Y028116D01*
X009205Y028180D01*
X008518Y028180D01*
X008363Y028116D01*
X008247Y028000D01*
X008101Y028000D01*
X008101Y028121D01*
X008007Y028215D01*
X007363Y028215D01*
X007311Y028163D01*
X007291Y028183D01*
X007255Y028204D01*
X007214Y028215D01*
X006997Y028215D01*
X006997Y027820D01*
X006877Y027820D01*
X006877Y028215D01*
X006660Y028215D01*
X006620Y028204D01*
X006583Y028183D01*
X006553Y028153D01*
X006532Y028117D01*
X006521Y028076D01*
X006521Y027820D01*
X006877Y027820D01*
X006877Y027700D01*
X006521Y027700D01*
X006521Y027443D01*
X006532Y027403D01*
X006553Y027366D01*
X006583Y027336D01*
X006620Y027315D01*
X006660Y027304D01*
X006877Y027304D01*
X006877Y027700D01*
X006997Y027700D01*
X006997Y027304D01*
X007214Y027304D01*
X007255Y027315D01*
X007291Y027336D01*
X007311Y027356D01*
X007363Y027304D01*
X008007Y027304D01*
X008101Y027398D01*
X008101Y027520D01*
X008247Y027520D01*
X008363Y027404D01*
X008518Y027340D01*
X009205Y027340D01*
X009359Y027404D01*
X009473Y027517D02*
X011250Y027517D01*
X011198Y027636D02*
X009524Y027636D01*
X009541Y027754D02*
X011181Y027754D01*
X011193Y027873D02*
X009529Y027873D01*
X009480Y027991D02*
X011243Y027991D01*
X011357Y028110D02*
X009365Y028110D01*
X009222Y028347D02*
X011500Y028347D01*
X011302Y028465D02*
X009421Y028465D01*
X009477Y028522D02*
X009541Y028676D01*
X009541Y028843D01*
X009477Y028998D01*
X009359Y029116D01*
X009205Y029180D01*
X008518Y029180D01*
X008363Y029116D01*
X008245Y028998D01*
X008181Y028843D01*
X008181Y028676D01*
X008245Y028522D01*
X008363Y028404D01*
X008518Y028340D01*
X009205Y028340D01*
X009359Y028404D01*
X009477Y028522D01*
X009503Y028584D02*
X011219Y028584D01*
X011181Y028703D02*
X009541Y028703D01*
X009541Y028821D02*
X011181Y028821D01*
X011221Y028940D02*
X009501Y028940D01*
X009417Y029058D02*
X011306Y029058D01*
X011510Y029177D02*
X009212Y029177D01*
X009205Y029340D02*
X009359Y029404D01*
X009477Y029522D01*
X009541Y029676D01*
X009541Y029843D01*
X009477Y029998D01*
X009359Y030116D01*
X009205Y030180D01*
X008518Y030180D01*
X008363Y030116D01*
X008245Y029998D01*
X008181Y029843D01*
X008181Y029676D01*
X008245Y029522D01*
X008363Y029404D01*
X008518Y029340D01*
X009205Y029340D01*
X009369Y029414D02*
X011353Y029414D01*
X011241Y029532D02*
X009482Y029532D01*
X009531Y029651D02*
X011192Y029651D01*
X011181Y029769D02*
X009541Y029769D01*
X009523Y029888D02*
X011200Y029888D01*
X011254Y030006D02*
X009468Y030006D01*
X009337Y030125D02*
X011386Y030125D01*
X011464Y030362D02*
X009259Y030362D01*
X009436Y030481D02*
X011286Y030481D01*
X011213Y030599D02*
X009509Y030599D01*
X009541Y030718D02*
X011181Y030718D01*
X011181Y030836D02*
X009541Y030836D01*
X009495Y030955D02*
X011227Y030955D01*
X011321Y031073D02*
X009402Y031073D01*
X008321Y031073D02*
X007431Y031073D01*
X007431Y030955D02*
X008227Y030955D01*
X008181Y030836D02*
X007431Y030836D01*
X007431Y030718D02*
X008181Y030718D01*
X008213Y030599D02*
X007431Y030599D01*
X007431Y030481D02*
X008286Y030481D01*
X008464Y030362D02*
X007431Y030362D01*
X007431Y030244D02*
X012541Y030244D01*
X012541Y030362D02*
X012259Y030362D01*
X012436Y030481D02*
X012529Y030481D01*
X012761Y030560D02*
X012561Y030760D01*
X011861Y030760D01*
X012337Y030125D02*
X012541Y030125D01*
X012541Y030006D02*
X012468Y030006D01*
X012561Y029760D02*
X011861Y029760D01*
X012369Y029414D02*
X012596Y029414D01*
X012715Y029295D02*
X006987Y029295D01*
X006841Y029177D02*
X008510Y029177D01*
X008306Y029058D02*
X006814Y029058D01*
X006841Y028940D02*
X008221Y028940D01*
X008181Y028821D02*
X006839Y028821D01*
X006790Y028703D02*
X008181Y028703D01*
X008219Y028584D02*
X006689Y028584D01*
X006530Y028110D02*
X000621Y028110D01*
X000621Y028228D02*
X012741Y028228D01*
X012741Y028110D02*
X012365Y028110D01*
X012480Y027991D02*
X012741Y027991D01*
X012961Y027860D02*
X012961Y028460D01*
X012661Y028760D01*
X011861Y028760D01*
X012212Y029177D02*
X012833Y029177D01*
X012952Y029058D02*
X012417Y029058D01*
X012792Y028940D02*
X013070Y028940D01*
X013091Y028821D02*
X012911Y028821D01*
X013030Y028703D02*
X013091Y028703D01*
X013311Y029010D02*
X012561Y029760D01*
X012761Y029860D02*
X012761Y030560D01*
X012961Y029960D02*
X013761Y029160D01*
X013761Y028860D01*
X013861Y028760D01*
X014301Y028760D01*
X014301Y029260D02*
X013961Y029260D01*
X013161Y030060D01*
X013161Y031460D01*
X013111Y031510D01*
X007111Y031510D01*
X007011Y031410D01*
X007011Y030560D01*
X006161Y029910D01*
X006391Y030362D02*
X002310Y030362D01*
X002307Y030365D02*
X001663Y030365D01*
X001611Y030313D01*
X001591Y030333D01*
X001555Y030354D01*
X001514Y030365D01*
X001297Y030365D01*
X001297Y029970D01*
X001177Y029970D01*
X001177Y030365D01*
X000960Y030365D01*
X000920Y030354D01*
X000883Y030333D01*
X000853Y030303D01*
X000832Y030267D01*
X000821Y030226D01*
X000821Y029970D01*
X001177Y029970D01*
X001177Y029850D01*
X000821Y029850D01*
X000821Y029593D01*
X000832Y029553D01*
X000853Y029516D01*
X000883Y029486D01*
X000920Y029465D01*
X000960Y029454D01*
X001177Y029454D01*
X001177Y029850D01*
X001297Y029850D01*
X001297Y029454D01*
X001514Y029454D01*
X001555Y029465D01*
X001591Y029486D01*
X001611Y029506D01*
X001663Y029454D01*
X002307Y029454D01*
X002401Y029548D01*
X002401Y029670D01*
X002547Y029670D01*
X002663Y029554D01*
X002818Y029490D01*
X003505Y029490D01*
X003659Y029554D01*
X003777Y029672D01*
X003841Y029826D01*
X003841Y029993D01*
X003777Y030148D01*
X003659Y030266D01*
X003505Y030330D01*
X002818Y030330D01*
X002663Y030266D01*
X002547Y030150D01*
X002401Y030150D01*
X002401Y030271D01*
X002307Y030365D01*
X002307Y030454D02*
X001663Y030454D01*
X001611Y030506D01*
X001591Y030486D01*
X001555Y030465D01*
X001514Y030454D01*
X001297Y030454D01*
X001297Y030850D01*
X001177Y030850D01*
X000821Y030850D01*
X000821Y030593D01*
X000832Y030553D01*
X000853Y030516D01*
X000883Y030486D01*
X000920Y030465D01*
X000960Y030454D01*
X001177Y030454D01*
X001177Y030850D01*
X001177Y030970D01*
X001177Y031365D01*
X000960Y031365D01*
X000920Y031354D01*
X000883Y031333D01*
X000853Y031303D01*
X000832Y031267D01*
X000821Y031226D01*
X000821Y030970D01*
X001177Y030970D01*
X001297Y030970D01*
X001297Y031365D01*
X001514Y031365D01*
X001555Y031354D01*
X001591Y031333D01*
X001611Y031313D01*
X001663Y031365D01*
X002307Y031365D01*
X002401Y031271D01*
X002401Y031150D01*
X002547Y031150D01*
X002663Y031266D01*
X002818Y031330D01*
X003505Y031330D01*
X003659Y031266D01*
X003777Y031148D01*
X003841Y030993D01*
X003841Y030826D01*
X003777Y030672D01*
X003659Y030554D01*
X003505Y030490D01*
X002818Y030490D01*
X002663Y030554D01*
X002547Y030670D01*
X002401Y030670D01*
X002401Y030548D01*
X002307Y030454D01*
X002334Y030481D02*
X006546Y030481D01*
X006661Y030910D02*
X006161Y030910D01*
X005771Y031310D02*
X003551Y031310D01*
X003505Y031490D02*
X003659Y031554D01*
X003777Y031672D01*
X003841Y031826D01*
X003841Y031993D01*
X003777Y032148D01*
X003659Y032266D01*
X003505Y032330D01*
X002818Y032330D01*
X002663Y032266D01*
X002547Y032150D01*
X002401Y032150D01*
X002401Y032271D01*
X002307Y032365D01*
X001663Y032365D01*
X001611Y032313D01*
X001591Y032333D01*
X001555Y032354D01*
X001514Y032365D01*
X001297Y032365D01*
X001297Y031970D01*
X001177Y031970D01*
X001177Y032365D01*
X000960Y032365D01*
X000920Y032354D01*
X000883Y032333D01*
X000853Y032303D01*
X000832Y032267D01*
X000821Y032226D01*
X000821Y031970D01*
X001177Y031970D01*
X001177Y031850D01*
X000821Y031850D01*
X000821Y031593D01*
X000832Y031553D01*
X000853Y031516D01*
X000883Y031486D01*
X000920Y031465D01*
X000960Y031454D01*
X001177Y031454D01*
X001177Y031850D01*
X001297Y031850D01*
X001297Y031454D01*
X001514Y031454D01*
X001555Y031465D01*
X001591Y031486D01*
X001611Y031506D01*
X001663Y031454D01*
X002307Y031454D01*
X002401Y031548D01*
X002401Y031670D01*
X002547Y031670D01*
X002663Y031554D01*
X002818Y031490D01*
X003505Y031490D01*
X003644Y031548D02*
X005678Y031548D01*
X005551Y031666D02*
X003772Y031666D01*
X003824Y031785D02*
X005498Y031785D01*
X005481Y031903D02*
X003841Y031903D01*
X003829Y032022D02*
X005493Y032022D01*
X005542Y032140D02*
X003780Y032140D01*
X003666Y032259D02*
X005656Y032259D01*
X005803Y032496D02*
X003520Y032496D01*
X003505Y032490D02*
X003659Y032554D01*
X003777Y032672D01*
X003841Y032826D01*
X003841Y032993D01*
X003777Y033148D01*
X003659Y033266D01*
X003505Y033330D01*
X002818Y033330D01*
X002663Y033266D01*
X002547Y033150D01*
X002401Y033150D01*
X002401Y033271D01*
X002307Y033365D01*
X001663Y033365D01*
X001611Y033313D01*
X001591Y033333D01*
X001555Y033354D01*
X001514Y033365D01*
X001297Y033365D01*
X001297Y032970D01*
X001177Y032970D01*
X001177Y033365D01*
X000960Y033365D01*
X000920Y033354D01*
X000883Y033333D01*
X000853Y033303D01*
X000832Y033267D01*
X000821Y033226D01*
X000821Y032970D01*
X000621Y032970D01*
X000621Y032852D02*
X001177Y032852D01*
X001177Y032850D02*
X000821Y032850D01*
X000821Y032593D01*
X000832Y032553D01*
X000853Y032516D01*
X000883Y032486D01*
X000920Y032465D01*
X000960Y032454D01*
X001177Y032454D01*
X001177Y032850D01*
X001177Y032970D01*
X001297Y032970D01*
X001297Y033089D02*
X001177Y033089D01*
X001177Y033207D02*
X001297Y033207D01*
X001297Y033326D02*
X001177Y033326D01*
X001177Y033454D02*
X001177Y033850D01*
X000821Y033850D01*
X000821Y033593D01*
X000832Y033553D01*
X000853Y033516D01*
X000883Y033486D01*
X000920Y033465D01*
X000960Y033454D01*
X001177Y033454D01*
X001177Y033563D02*
X001297Y033563D01*
X001297Y033454D02*
X001297Y033850D01*
X001177Y033850D01*
X001177Y033970D01*
X001177Y034365D01*
X000960Y034365D01*
X000920Y034354D01*
X000883Y034333D01*
X000853Y034303D01*
X000832Y034267D01*
X000821Y034226D01*
X000821Y033970D01*
X001177Y033970D01*
X001297Y033970D01*
X001297Y034365D01*
X001514Y034365D01*
X001555Y034354D01*
X001591Y034333D01*
X001611Y034313D01*
X001663Y034365D01*
X002307Y034365D01*
X002401Y034271D01*
X002401Y034150D01*
X002547Y034150D01*
X002663Y034266D01*
X002818Y034330D01*
X003505Y034330D01*
X003659Y034266D01*
X003777Y034148D01*
X003841Y033993D01*
X003841Y033826D01*
X003777Y033672D01*
X003659Y033554D01*
X003505Y033490D01*
X002818Y033490D01*
X002663Y033554D01*
X002547Y033670D01*
X002401Y033670D01*
X002401Y033548D01*
X002307Y033454D01*
X001663Y033454D01*
X001611Y033506D01*
X001591Y033486D01*
X001555Y033465D01*
X001514Y033454D01*
X001297Y033454D01*
X001297Y033681D02*
X001177Y033681D01*
X001177Y033800D02*
X001297Y033800D01*
X001177Y033918D02*
X000621Y033918D01*
X000621Y033800D02*
X000821Y033800D01*
X000821Y033681D02*
X000621Y033681D01*
X000621Y033563D02*
X000830Y033563D01*
X000621Y033444D02*
X010291Y033444D01*
X010291Y033326D02*
X006515Y033326D01*
X006505Y033330D02*
X005818Y033330D01*
X005663Y033266D01*
X005545Y033148D01*
X005481Y032993D01*
X005481Y032826D01*
X005545Y032672D01*
X005663Y032554D01*
X005818Y032490D01*
X006505Y032490D01*
X006659Y032554D01*
X006777Y032672D01*
X006785Y032690D01*
X008203Y032690D01*
X008270Y032623D01*
X008394Y032571D01*
X008529Y032571D01*
X008653Y032623D01*
X008748Y032718D01*
X008800Y032842D01*
X008800Y032977D01*
X008748Y033101D01*
X008653Y033197D01*
X008529Y033248D01*
X008394Y033248D01*
X008270Y033197D01*
X008203Y033130D01*
X006785Y033130D01*
X006777Y033148D01*
X006659Y033266D01*
X006505Y033330D01*
X006718Y033207D02*
X008295Y033207D01*
X008628Y033207D02*
X010291Y033207D01*
X010291Y033089D02*
X008753Y033089D01*
X008800Y032970D02*
X010291Y032970D01*
X010291Y032852D02*
X008800Y032852D01*
X008754Y032733D02*
X010291Y032733D01*
X010291Y032614D02*
X008633Y032614D01*
X008461Y032910D02*
X006161Y032910D01*
X005808Y033326D02*
X003515Y033326D01*
X003718Y033207D02*
X005605Y033207D01*
X005521Y033089D02*
X003802Y033089D01*
X003841Y032970D02*
X005481Y032970D01*
X005481Y032852D02*
X003841Y032852D01*
X003803Y032733D02*
X005520Y032733D01*
X005603Y032614D02*
X003720Y032614D01*
X003505Y032490D02*
X002818Y032490D01*
X002663Y032554D01*
X002547Y032670D01*
X002401Y032670D01*
X002401Y032548D01*
X002307Y032454D01*
X001663Y032454D01*
X001611Y032506D01*
X001591Y032486D01*
X001555Y032465D01*
X001514Y032454D01*
X001297Y032454D01*
X001297Y032850D01*
X001177Y032850D01*
X001177Y032733D02*
X001297Y032733D01*
X001297Y032614D02*
X001177Y032614D01*
X001177Y032496D02*
X001297Y032496D01*
X001297Y032259D02*
X001177Y032259D01*
X001177Y032140D02*
X001297Y032140D01*
X001297Y032022D02*
X001177Y032022D01*
X001177Y031903D02*
X000621Y031903D01*
X000621Y031785D02*
X000821Y031785D01*
X000821Y031666D02*
X000621Y031666D01*
X000621Y031548D02*
X000835Y031548D01*
X000861Y031310D02*
X000621Y031310D01*
X000621Y031192D02*
X000821Y031192D01*
X000821Y031073D02*
X000621Y031073D01*
X000621Y030955D02*
X001177Y030955D01*
X001177Y031073D02*
X001297Y031073D01*
X001297Y031192D02*
X001177Y031192D01*
X001177Y031310D02*
X001297Y031310D01*
X001297Y031548D02*
X001177Y031548D01*
X001177Y031666D02*
X001297Y031666D01*
X001297Y031785D02*
X001177Y031785D01*
X000821Y032022D02*
X000621Y032022D01*
X000621Y032140D02*
X000821Y032140D01*
X000830Y032259D02*
X000621Y032259D01*
X000621Y032377D02*
X010383Y032377D01*
X010291Y032496D02*
X006520Y032496D01*
X006720Y032614D02*
X008290Y032614D01*
X007011Y031710D02*
X006811Y031510D01*
X006811Y031060D01*
X006661Y030910D01*
X006591Y031310D02*
X006551Y031310D01*
X006591Y031429D02*
X000621Y031429D01*
X000621Y030836D02*
X000821Y030836D01*
X000821Y030718D02*
X000621Y030718D01*
X000621Y030599D02*
X000821Y030599D01*
X000893Y030481D02*
X000621Y030481D01*
X000621Y030362D02*
X000950Y030362D01*
X000826Y030244D02*
X000621Y030244D01*
X000621Y030125D02*
X000821Y030125D01*
X000821Y030006D02*
X000621Y030006D01*
X000621Y029888D02*
X001177Y029888D01*
X001177Y030006D02*
X001297Y030006D01*
X001297Y030125D02*
X001177Y030125D01*
X001177Y030244D02*
X001297Y030244D01*
X001297Y030362D02*
X001177Y030362D01*
X001177Y030481D02*
X001297Y030481D01*
X001297Y030599D02*
X001177Y030599D01*
X001177Y030718D02*
X001297Y030718D01*
X001297Y030836D02*
X001177Y030836D01*
X001581Y030481D02*
X001637Y030481D01*
X001660Y030362D02*
X001525Y030362D01*
X001297Y029769D02*
X001177Y029769D01*
X001177Y029651D02*
X001297Y029651D01*
X001297Y029532D02*
X001177Y029532D01*
X001177Y029365D02*
X000960Y029365D01*
X000920Y029354D01*
X000883Y029333D01*
X000853Y029303D01*
X000832Y029267D01*
X000821Y029226D01*
X000821Y028970D01*
X001177Y028970D01*
X001177Y029365D01*
X001177Y029295D02*
X001297Y029295D01*
X001297Y029365D02*
X001514Y029365D01*
X001555Y029354D01*
X001591Y029333D01*
X001611Y029313D01*
X001663Y029365D01*
X002307Y029365D01*
X002401Y029271D01*
X002401Y029150D01*
X002547Y029150D01*
X002663Y029266D01*
X002818Y029330D01*
X003505Y029330D01*
X003659Y029266D01*
X003777Y029148D01*
X003841Y028993D01*
X003841Y028826D01*
X003777Y028672D01*
X003659Y028554D01*
X003505Y028490D01*
X002818Y028490D01*
X002663Y028554D01*
X002547Y028670D01*
X002401Y028670D01*
X002401Y028548D01*
X002307Y028454D01*
X001663Y028454D01*
X001611Y028506D01*
X001591Y028486D01*
X001555Y028465D01*
X001514Y028454D01*
X001297Y028454D01*
X001297Y028850D01*
X001177Y028850D01*
X000821Y028850D01*
X000821Y028593D01*
X000832Y028553D01*
X000853Y028516D01*
X000883Y028486D01*
X000920Y028465D01*
X000960Y028454D01*
X001177Y028454D01*
X001177Y028850D01*
X001177Y028970D01*
X001297Y028970D01*
X001297Y029365D01*
X001297Y029177D02*
X001177Y029177D01*
X001177Y029058D02*
X001297Y029058D01*
X001177Y028940D02*
X000621Y028940D01*
X000621Y029058D02*
X000821Y029058D01*
X000821Y029177D02*
X000621Y029177D01*
X000621Y029295D02*
X000849Y029295D01*
X000844Y029532D02*
X000621Y029532D01*
X000621Y029414D02*
X006434Y029414D01*
X006161Y028910D02*
X007211Y029760D01*
X007211Y031310D01*
X012961Y031310D01*
X012961Y029960D01*
X012761Y029860D02*
X013561Y029060D01*
X013561Y028610D01*
X013911Y028260D01*
X014301Y028260D01*
X014301Y027760D02*
X013561Y027760D01*
X013311Y028010D01*
X013311Y029010D01*
X012644Y028465D02*
X012421Y028465D01*
X012222Y028347D02*
X012741Y028347D01*
X012961Y027860D02*
X013561Y027260D01*
X014301Y027260D01*
X013925Y026924D02*
X015791Y026924D01*
X015791Y026806D02*
X014017Y026806D01*
X014050Y026687D02*
X015791Y026687D01*
X015791Y026569D02*
X014040Y026569D01*
X013980Y026450D02*
X015791Y026450D01*
X015791Y026332D02*
X013803Y026332D01*
X013619Y026332D02*
X013381Y026332D01*
X013381Y026450D02*
X013442Y026450D01*
X013383Y026569D02*
X013263Y026569D01*
X013373Y026687D02*
X013145Y026687D01*
X013254Y026806D02*
X013026Y026806D01*
X013136Y026924D02*
X012908Y026924D01*
X013017Y027043D02*
X012432Y027043D01*
X012249Y027161D02*
X012898Y027161D01*
X012780Y027280D02*
X000621Y027280D01*
X000621Y027161D02*
X006561Y027161D01*
X006521Y027043D02*
X000621Y027043D01*
X000621Y026924D02*
X006521Y026924D01*
X006521Y026687D02*
X001935Y026687D01*
X002128Y026569D02*
X006521Y026569D01*
X006521Y026450D02*
X002246Y026450D01*
X002353Y026332D02*
X006591Y026332D01*
X006653Y026213D02*
X002422Y026213D01*
X002490Y026095D02*
X006526Y026095D01*
X006521Y025976D02*
X002526Y025976D01*
X002558Y025857D02*
X006521Y025857D01*
X006521Y025620D02*
X002581Y025620D01*
X002581Y025502D02*
X006521Y025502D01*
X006543Y025383D02*
X002564Y025383D01*
X002532Y025265D02*
X012491Y025265D01*
X012491Y025383D02*
X012310Y025383D01*
X012457Y025502D02*
X012491Y025502D01*
X012711Y025660D02*
X012711Y025060D01*
X013011Y024760D01*
X014301Y024760D01*
X014301Y025260D02*
X013411Y025260D01*
X013161Y025510D01*
X013161Y026360D01*
X012761Y026760D01*
X011861Y026760D01*
X012406Y026450D02*
X012760Y026450D01*
X012878Y026332D02*
X008035Y026332D01*
X008009Y026213D02*
X012941Y026213D01*
X012941Y026095D02*
X012380Y026095D01*
X012706Y025976D02*
X012941Y025976D01*
X012941Y025857D02*
X012825Y025857D01*
X012931Y025739D02*
X012941Y025739D01*
X012931Y025620D02*
X012941Y025620D01*
X012931Y025502D02*
X012941Y025502D01*
X012931Y025383D02*
X012977Y025383D01*
X012931Y025265D02*
X013095Y025265D01*
X013214Y025146D02*
X012936Y025146D01*
X013054Y025028D02*
X013777Y025028D01*
X013787Y025502D02*
X013480Y025502D01*
X013381Y025620D02*
X013741Y025620D01*
X013741Y025739D02*
X013381Y025739D01*
X013381Y025857D02*
X013741Y025857D01*
X013766Y025976D02*
X013381Y025976D01*
X013381Y026095D02*
X015791Y026095D01*
X015791Y026213D02*
X013381Y026213D01*
X013711Y026660D02*
X012611Y027760D01*
X011861Y027760D01*
X012347Y027399D02*
X012661Y027399D01*
X012543Y027517D02*
X012473Y027517D01*
X012611Y025760D02*
X011861Y025760D01*
X012286Y025146D02*
X012491Y025146D01*
X012491Y025028D02*
X012447Y025028D01*
X012411Y024760D02*
X012911Y024260D01*
X014301Y024260D01*
X014861Y024316D02*
X016161Y024316D01*
X016161Y024198D02*
X014861Y024198D01*
X014861Y024079D02*
X016161Y024079D01*
X016178Y023961D02*
X014856Y023961D01*
X014861Y023842D02*
X016161Y023842D01*
X016161Y023724D02*
X014861Y023724D01*
X014861Y023605D02*
X016162Y023605D01*
X016192Y023487D02*
X014831Y023487D01*
X014861Y023368D02*
X015908Y023368D01*
X015790Y023250D02*
X014861Y023250D01*
X014861Y023131D02*
X015741Y023131D01*
X015741Y023012D02*
X014810Y023012D01*
X014861Y022894D02*
X015741Y022894D01*
X015741Y022775D02*
X014861Y022775D01*
X014861Y022657D02*
X015741Y022657D01*
X015741Y022538D02*
X014836Y022538D01*
X014861Y022420D02*
X015741Y022420D01*
X015741Y022301D02*
X014861Y022301D01*
X014861Y022183D02*
X015741Y022183D01*
X015741Y022064D02*
X014861Y022064D01*
X014298Y021946D02*
X015741Y021946D01*
X015741Y021827D02*
X014180Y021827D01*
X014061Y021708D02*
X015741Y021708D01*
X015741Y021590D02*
X013943Y021590D01*
X013824Y021471D02*
X015741Y021471D01*
X015741Y021353D02*
X013705Y021353D01*
X014296Y021116D02*
X014306Y021116D01*
X014296Y020997D02*
X014306Y020997D01*
X014296Y020879D02*
X014306Y020879D01*
X014301Y020360D02*
X013061Y020360D01*
X012811Y020110D01*
X006711Y020110D01*
X006911Y020760D02*
X006911Y021510D01*
X006711Y021660D01*
X006161Y021660D01*
X006543Y022064D02*
X006696Y022064D01*
X006729Y021946D02*
X006814Y021946D01*
X006855Y021827D02*
X006933Y021827D01*
X007161Y021910D02*
X007161Y021160D01*
X007361Y020960D01*
X013001Y020960D01*
X014301Y022260D01*
X014301Y022760D02*
X013961Y022760D01*
X012911Y021760D01*
X013469Y022657D02*
X013534Y022657D01*
X013588Y022775D02*
X013659Y022775D01*
X013706Y022894D02*
X013741Y022894D01*
X013761Y023260D02*
X014301Y023260D01*
X014301Y023760D02*
X011861Y023760D01*
X012273Y023368D02*
X013558Y023368D01*
X013440Y023250D02*
X000621Y023250D01*
X000621Y023368D02*
X006552Y023368D01*
X006521Y023487D02*
X000621Y023487D01*
X000621Y023605D02*
X006521Y023605D01*
X006521Y023842D02*
X000621Y023842D01*
X000621Y023724D02*
X006877Y023724D01*
X006877Y023842D02*
X006997Y023842D01*
X006997Y023961D02*
X006877Y023961D01*
X006877Y024079D02*
X006997Y024079D01*
X006997Y024198D02*
X006877Y024198D01*
X006877Y024316D02*
X006997Y024316D01*
X006997Y024435D02*
X006877Y024435D01*
X006877Y024554D02*
X006997Y024554D01*
X006997Y024672D02*
X006877Y024672D01*
X006877Y024791D02*
X002267Y024791D01*
X002365Y024909D02*
X006521Y024909D01*
X006521Y025028D02*
X002434Y025028D01*
X002500Y025146D02*
X006549Y025146D01*
X006877Y025146D02*
X006997Y025146D01*
X006997Y025028D02*
X006877Y025028D01*
X006877Y024909D02*
X006997Y024909D01*
X006997Y025383D02*
X006877Y025383D01*
X006877Y025502D02*
X006997Y025502D01*
X006997Y025620D02*
X006877Y025620D01*
X006877Y025739D02*
X002581Y025739D01*
X002149Y024672D02*
X006521Y024672D01*
X006521Y024554D02*
X001972Y024554D01*
X001691Y024435D02*
X006524Y024435D01*
X006618Y024316D02*
X000621Y024316D01*
X000621Y024198D02*
X006609Y024198D01*
X006522Y024079D02*
X000621Y024079D01*
X000621Y023961D02*
X006521Y023961D01*
X006877Y023605D02*
X006997Y023605D01*
X006997Y023487D02*
X006877Y023487D01*
X006877Y023368D02*
X006997Y023368D01*
X007266Y024198D02*
X007346Y024198D01*
X007351Y024316D02*
X007257Y024316D01*
X008019Y024316D02*
X012543Y024316D01*
X012425Y024435D02*
X012390Y024435D01*
X012411Y024760D02*
X011861Y024760D01*
X012396Y024079D02*
X012781Y024079D01*
X012662Y024198D02*
X008025Y024198D01*
X008101Y024079D02*
X008327Y024079D01*
X008332Y024435D02*
X008101Y024435D01*
X008101Y025028D02*
X008275Y025028D01*
X008437Y025146D02*
X008076Y025146D01*
X008086Y025383D02*
X008413Y025383D01*
X008265Y025502D02*
X008101Y025502D01*
X008101Y026095D02*
X008342Y026095D01*
X008317Y026450D02*
X008101Y026450D01*
X008101Y027043D02*
X008290Y027043D01*
X008474Y027161D02*
X008061Y027161D01*
X008101Y027399D02*
X008376Y027399D01*
X008250Y027517D02*
X008101Y027517D01*
X008101Y028110D02*
X008357Y028110D01*
X008500Y028347D02*
X000621Y028347D01*
X000621Y028465D02*
X000919Y028465D01*
X000824Y028584D02*
X000621Y028584D01*
X000621Y028703D02*
X000821Y028703D01*
X000821Y028821D02*
X000621Y028821D01*
X001177Y028821D02*
X001297Y028821D01*
X001297Y028703D02*
X001177Y028703D01*
X001177Y028584D02*
X001297Y028584D01*
X001297Y028465D02*
X001177Y028465D01*
X001555Y028465D02*
X001652Y028465D01*
X002318Y028465D02*
X008302Y028465D01*
X008353Y029414D02*
X007133Y029414D01*
X007280Y029532D02*
X008241Y029532D01*
X008192Y029651D02*
X007421Y029651D01*
X007433Y029769D02*
X008181Y029769D01*
X008200Y029888D02*
X007431Y029888D01*
X007431Y030006D02*
X008254Y030006D01*
X008386Y030125D02*
X007431Y030125D01*
X007011Y031710D02*
X013211Y031710D01*
X013361Y031560D01*
X013361Y030310D01*
X013911Y029760D01*
X014301Y029760D01*
X014301Y030260D02*
X013711Y030260D01*
X013561Y030410D01*
X013561Y031660D01*
X013311Y031910D01*
X006161Y031910D01*
X006666Y032259D02*
X010501Y032259D01*
X010620Y032140D02*
X006780Y032140D01*
X006668Y033563D02*
X010291Y033563D01*
X010229Y033681D02*
X006781Y033681D01*
X006769Y034156D02*
X010591Y034156D01*
X010591Y034274D02*
X006639Y034274D01*
X006556Y034511D02*
X010591Y034511D01*
X010591Y034393D02*
X000621Y034393D01*
X000621Y034511D02*
X000858Y034511D01*
X000853Y034516D02*
X000883Y034486D01*
X000920Y034465D01*
X000960Y034454D01*
X001177Y034454D01*
X001177Y034850D01*
X000821Y034850D01*
X000821Y034593D01*
X000832Y034553D01*
X000853Y034516D01*
X000821Y034630D02*
X000621Y034630D01*
X000621Y034748D02*
X000821Y034748D01*
X000821Y034970D02*
X001177Y034970D01*
X001177Y035365D01*
X000960Y035365D01*
X000920Y035354D01*
X000883Y035333D01*
X000853Y035303D01*
X000832Y035267D01*
X000821Y035226D01*
X000821Y034970D01*
X000821Y034985D02*
X000621Y034985D01*
X000621Y034867D02*
X001177Y034867D01*
X001177Y034850D02*
X001177Y034970D01*
X001297Y034970D01*
X001297Y035365D01*
X001514Y035365D01*
X001555Y035354D01*
X001591Y035333D01*
X001611Y035313D01*
X001663Y035365D01*
X002307Y035365D01*
X002401Y035271D01*
X002401Y035150D01*
X002547Y035150D01*
X002663Y035266D01*
X002818Y035330D01*
X003505Y035330D01*
X003659Y035266D01*
X003777Y035148D01*
X003841Y034993D01*
X003841Y034826D01*
X003777Y034672D01*
X003659Y034554D01*
X003505Y034490D01*
X002818Y034490D01*
X002663Y034554D01*
X002547Y034670D01*
X002401Y034670D01*
X002401Y034548D01*
X002307Y034454D01*
X001663Y034454D01*
X001611Y034506D01*
X001591Y034486D01*
X001555Y034465D01*
X001514Y034454D01*
X001297Y034454D01*
X001297Y034850D01*
X001177Y034850D01*
X001177Y034748D02*
X001297Y034748D01*
X001297Y034630D02*
X001177Y034630D01*
X001177Y034511D02*
X001297Y034511D01*
X001297Y034274D02*
X001177Y034274D01*
X001177Y034156D02*
X001297Y034156D01*
X001297Y034037D02*
X001177Y034037D01*
X000821Y034037D02*
X000621Y034037D01*
X000621Y034156D02*
X000821Y034156D01*
X000836Y034274D02*
X000621Y034274D01*
X000621Y035104D02*
X000821Y035104D01*
X000821Y035222D02*
X000621Y035222D01*
X000621Y035341D02*
X000897Y035341D01*
X000920Y035465D02*
X000960Y035454D01*
X001177Y035454D01*
X001177Y035850D01*
X000821Y035850D01*
X000821Y035593D01*
X000832Y035553D01*
X000853Y035516D01*
X000883Y035486D01*
X000920Y035465D01*
X000942Y035459D02*
X000621Y035459D01*
X000621Y035578D02*
X000825Y035578D01*
X000821Y035697D02*
X000621Y035697D01*
X000621Y035815D02*
X000821Y035815D01*
X000821Y035970D02*
X001177Y035970D01*
X001177Y036365D01*
X000960Y036365D01*
X000920Y036354D01*
X000883Y036333D01*
X000853Y036303D01*
X000832Y036267D01*
X000821Y036226D01*
X000821Y035970D01*
X000821Y036052D02*
X000621Y036052D01*
X000621Y035934D02*
X001177Y035934D01*
X001177Y035970D02*
X001177Y035850D01*
X001297Y035850D01*
X001297Y035454D01*
X001514Y035454D01*
X001555Y035465D01*
X001591Y035486D01*
X001611Y035506D01*
X001663Y035454D01*
X002307Y035454D01*
X002401Y035548D01*
X002401Y035670D01*
X002547Y035670D01*
X002663Y035554D01*
X002818Y035490D01*
X003505Y035490D01*
X003659Y035554D01*
X003777Y035672D01*
X003841Y035826D01*
X003841Y035993D01*
X003777Y036148D01*
X003659Y036266D01*
X003505Y036330D01*
X002818Y036330D01*
X002663Y036266D01*
X002547Y036150D01*
X002401Y036150D01*
X002401Y036271D01*
X002307Y036365D01*
X001663Y036365D01*
X001611Y036313D01*
X001591Y036333D01*
X001555Y036354D01*
X001514Y036365D01*
X001297Y036365D01*
X001297Y035970D01*
X001177Y035970D01*
X001177Y036052D02*
X001297Y036052D01*
X001297Y036171D02*
X001177Y036171D01*
X001177Y036289D02*
X001297Y036289D01*
X001297Y036454D02*
X001514Y036454D01*
X001555Y036465D01*
X001591Y036486D01*
X001611Y036506D01*
X001663Y036454D01*
X002307Y036454D01*
X002401Y036548D01*
X002401Y036670D01*
X002547Y036670D01*
X002663Y036554D01*
X002818Y036490D01*
X003505Y036490D01*
X003659Y036554D01*
X003777Y036672D01*
X003841Y036826D01*
X003841Y036993D01*
X003777Y037148D01*
X003659Y037266D01*
X003505Y037330D01*
X002818Y037330D01*
X002663Y037266D01*
X002547Y037150D01*
X002401Y037150D01*
X002401Y037271D01*
X002307Y037365D01*
X001663Y037365D01*
X001611Y037313D01*
X001591Y037333D01*
X001555Y037354D01*
X001514Y037365D01*
X001297Y037365D01*
X001297Y036970D01*
X001177Y036970D01*
X001177Y037365D01*
X000960Y037365D01*
X000920Y037354D01*
X000883Y037333D01*
X000853Y037303D01*
X000832Y037267D01*
X000821Y037226D01*
X000821Y036970D01*
X001177Y036970D01*
X001177Y036850D01*
X000821Y036850D01*
X000821Y036593D01*
X000832Y036553D01*
X000853Y036516D01*
X000883Y036486D01*
X000920Y036465D01*
X000960Y036454D01*
X001177Y036454D01*
X001177Y036850D01*
X001297Y036850D01*
X001297Y036454D01*
X001297Y036526D02*
X001177Y036526D01*
X001177Y036645D02*
X001297Y036645D01*
X001297Y036763D02*
X001177Y036763D01*
X001177Y036882D02*
X000621Y036882D01*
X000621Y036763D02*
X000821Y036763D01*
X000821Y036645D02*
X000621Y036645D01*
X000621Y036526D02*
X000847Y036526D01*
X000845Y036289D02*
X000621Y036289D01*
X000621Y036171D02*
X000821Y036171D01*
X000621Y036408D02*
X011341Y036408D01*
X011341Y036526D02*
X006593Y036526D01*
X006750Y036645D02*
X011265Y036645D01*
X011311Y036910D02*
X011561Y036660D01*
X011561Y034010D01*
X011761Y033810D01*
X014351Y033810D01*
X014351Y034310D02*
X012111Y034310D01*
X011961Y034460D01*
X011961Y037660D01*
X011711Y037910D01*
X006161Y037910D01*
X005757Y038305D02*
X003566Y038305D01*
X003505Y038330D02*
X002818Y038330D01*
X002663Y038266D01*
X002547Y038150D01*
X002401Y038150D01*
X002401Y038271D01*
X002307Y038365D01*
X001663Y038365D01*
X001611Y038313D01*
X001591Y038333D01*
X001555Y038354D01*
X001514Y038365D01*
X001297Y038365D01*
X001297Y037970D01*
X001177Y037970D01*
X001177Y038365D01*
X000960Y038365D01*
X000920Y038354D01*
X000883Y038333D01*
X000853Y038303D01*
X000832Y038267D01*
X000821Y038226D01*
X000821Y037970D01*
X001177Y037970D01*
X001177Y037850D01*
X000821Y037850D01*
X000821Y037593D01*
X000621Y037593D01*
X000621Y037475D02*
X000903Y037475D01*
X000920Y037465D02*
X000960Y037454D01*
X001177Y037454D01*
X001177Y037850D01*
X001297Y037850D01*
X001297Y037454D01*
X001514Y037454D01*
X001555Y037465D01*
X001591Y037486D01*
X001611Y037506D01*
X001663Y037454D01*
X002307Y037454D01*
X002401Y037548D01*
X002401Y037670D01*
X002547Y037670D01*
X002663Y037554D01*
X002818Y037490D01*
X003505Y037490D01*
X003659Y037554D01*
X003777Y037672D01*
X003841Y037826D01*
X003841Y037993D01*
X003777Y038148D01*
X003659Y038266D01*
X003505Y038330D01*
X003739Y038186D02*
X005584Y038186D01*
X005512Y038067D02*
X003811Y038067D01*
X003841Y037949D02*
X005481Y037949D01*
X005481Y037830D02*
X003841Y037830D01*
X003794Y037712D02*
X005529Y037712D01*
X005624Y037593D02*
X003699Y037593D01*
X003687Y037238D02*
X005635Y037238D01*
X005533Y037119D02*
X003789Y037119D01*
X003838Y037001D02*
X005484Y037001D01*
X005481Y036882D02*
X003841Y036882D01*
X003815Y036763D02*
X005507Y036763D01*
X005572Y036645D02*
X003750Y036645D01*
X003593Y036526D02*
X005729Y036526D01*
X005720Y036289D02*
X003602Y036289D01*
X003754Y036171D02*
X005568Y036171D01*
X005506Y036052D02*
X003817Y036052D01*
X003841Y035934D02*
X005481Y035934D01*
X005486Y035815D02*
X003837Y035815D01*
X003788Y035697D02*
X005535Y035697D01*
X005639Y035578D02*
X003683Y035578D01*
X003703Y035222D02*
X005620Y035222D01*
X005527Y035104D02*
X003795Y035104D01*
X003841Y034985D02*
X005481Y034985D01*
X005481Y034867D02*
X003841Y034867D01*
X003809Y034748D02*
X005514Y034748D01*
X005587Y034630D02*
X003735Y034630D01*
X003556Y034511D02*
X005766Y034511D01*
X005683Y034274D02*
X003639Y034274D01*
X003769Y034156D02*
X005553Y034156D01*
X005499Y034037D02*
X003823Y034037D01*
X003841Y033918D02*
X005481Y033918D01*
X005492Y033800D02*
X003830Y033800D01*
X003781Y033681D02*
X005541Y033681D01*
X005654Y033563D02*
X003668Y033563D01*
X002808Y033326D02*
X002347Y033326D01*
X002401Y033207D02*
X002605Y033207D01*
X002654Y033563D02*
X002401Y033563D01*
X002401Y034156D02*
X002553Y034156D01*
X002683Y034274D02*
X002398Y034274D01*
X002364Y034511D02*
X002766Y034511D01*
X002587Y034630D02*
X002401Y034630D01*
X002401Y035222D02*
X002620Y035222D01*
X002331Y035341D02*
X010891Y035341D01*
X010891Y035459D02*
X002312Y035459D01*
X002401Y035578D02*
X002639Y035578D01*
X002568Y036171D02*
X002401Y036171D01*
X002383Y036289D02*
X002720Y036289D01*
X002729Y036526D02*
X002379Y036526D01*
X002401Y036645D02*
X002572Y036645D01*
X002635Y037238D02*
X002401Y037238D01*
X002316Y037356D02*
X011741Y037356D01*
X011741Y037238D02*
X006687Y037238D01*
X006699Y037593D02*
X011717Y037593D01*
X011741Y037475D02*
X002328Y037475D01*
X002401Y037593D02*
X002624Y037593D01*
X002584Y038186D02*
X002401Y038186D01*
X002368Y038305D02*
X002757Y038305D01*
X002089Y039371D02*
X013241Y039371D01*
X013223Y039327D02*
X013223Y039192D01*
X013274Y039068D01*
X013333Y039010D01*
X013274Y038951D01*
X013223Y038827D01*
X013223Y038692D01*
X013274Y038568D01*
X013333Y038510D01*
X013274Y038451D01*
X013223Y038327D01*
X013223Y038192D01*
X013274Y038068D01*
X013333Y038010D01*
X013274Y037951D01*
X013223Y037827D01*
X013223Y037692D01*
X013274Y037568D01*
X013333Y037510D01*
X013274Y037451D01*
X013223Y037327D01*
X013223Y037192D01*
X013274Y037068D01*
X013370Y036973D01*
X013494Y036921D01*
X013629Y036921D01*
X013753Y036973D01*
X013792Y037012D01*
X013835Y036970D01*
X014768Y036970D01*
X014861Y037063D01*
X014861Y037456D01*
X014807Y037510D01*
X014861Y037563D01*
X014861Y037956D01*
X014807Y038010D01*
X014861Y038063D01*
X014861Y038456D01*
X014807Y038510D01*
X014861Y038563D01*
X014861Y038956D01*
X014807Y039010D01*
X014861Y039063D01*
X014861Y039456D01*
X014807Y039510D01*
X014861Y039563D01*
X014861Y039956D01*
X014807Y040010D01*
X014861Y040063D01*
X014861Y040456D01*
X014807Y040510D01*
X014829Y040531D01*
X014850Y040568D01*
X014861Y040609D01*
X014861Y040755D01*
X014306Y040755D01*
X014306Y040765D01*
X014296Y040765D01*
X014296Y041050D01*
X013880Y041050D01*
X013839Y041039D01*
X013803Y041018D01*
X013773Y040988D01*
X013752Y040951D01*
X013741Y040911D01*
X013741Y040765D01*
X014296Y040765D01*
X014296Y040755D01*
X013741Y040755D01*
X013741Y040609D01*
X013752Y040568D01*
X013773Y040531D01*
X013795Y040510D01*
X013792Y040507D01*
X013753Y040547D01*
X013629Y040598D01*
X013494Y040598D01*
X013370Y040547D01*
X013274Y040451D01*
X013223Y040327D01*
X013223Y040192D01*
X013274Y040068D01*
X013333Y040010D01*
X013274Y039951D01*
X013223Y039827D01*
X013223Y039692D01*
X013274Y039568D01*
X013333Y039510D01*
X013274Y039451D01*
X013223Y039327D01*
X013223Y039253D02*
X001884Y039253D01*
X002217Y039490D02*
X013313Y039490D01*
X013258Y039609D02*
X002335Y039609D01*
X002405Y039727D02*
X013223Y039727D01*
X013231Y039846D02*
X002473Y039846D01*
X002518Y039964D02*
X013287Y039964D01*
X013268Y040083D02*
X002550Y040083D01*
X002581Y040201D02*
X013223Y040201D01*
X013223Y040320D02*
X002581Y040320D01*
X002581Y040438D02*
X013269Y040438D01*
X013394Y040557D02*
X002571Y040557D01*
X002540Y040675D02*
X013741Y040675D01*
X013728Y040557D02*
X013759Y040557D01*
X013741Y040794D02*
X002508Y040794D01*
X002451Y040912D02*
X013742Y040912D01*
X013826Y041031D02*
X002382Y041031D01*
X002297Y041150D02*
X034365Y041150D01*
X034240Y041031D02*
X017206Y041031D01*
X017281Y040912D02*
X034170Y040912D01*
X034138Y040794D02*
X033292Y040794D01*
X033273Y040797D02*
X032990Y040797D01*
X032990Y040389D01*
X032933Y040389D01*
X032933Y040797D01*
X032650Y040797D01*
X032582Y040786D01*
X032516Y040765D01*
X032455Y040734D01*
X032399Y040693D01*
X032351Y040645D01*
X032310Y040589D01*
X032279Y040528D01*
X032258Y040462D01*
X032247Y040394D01*
X032247Y040388D01*
X032932Y040388D01*
X032932Y040331D01*
X032247Y040331D01*
X032247Y040325D01*
X032258Y040257D01*
X032279Y040192D01*
X032310Y040131D01*
X032351Y040075D01*
X032399Y040026D01*
X032455Y039986D01*
X032516Y039955D01*
X032582Y039933D01*
X032650Y039923D01*
X032933Y039923D01*
X032933Y040331D01*
X032990Y040331D01*
X032990Y040388D01*
X033676Y040388D01*
X033676Y040394D01*
X033665Y040462D01*
X033644Y040528D01*
X033612Y040589D01*
X033572Y040645D01*
X033523Y040693D01*
X033468Y040734D01*
X033406Y040765D01*
X033341Y040786D01*
X033273Y040797D01*
X032990Y040794D02*
X032933Y040794D01*
X032933Y040675D02*
X032990Y040675D01*
X032990Y040557D02*
X032933Y040557D01*
X032933Y040438D02*
X032990Y040438D01*
X032990Y040331D02*
X033676Y040331D01*
X033676Y040325D01*
X033665Y040257D01*
X033644Y040192D01*
X033612Y040131D01*
X033572Y040075D01*
X033523Y040026D01*
X033468Y039986D01*
X033406Y039955D01*
X033341Y039933D01*
X033273Y039923D01*
X032990Y039923D01*
X032990Y040331D01*
X032990Y040320D02*
X032933Y040320D01*
X032933Y040201D02*
X032990Y040201D01*
X032990Y040083D02*
X032933Y040083D01*
X032933Y039964D02*
X032990Y039964D01*
X033325Y039797D02*
X032597Y039797D01*
X032436Y039730D01*
X032313Y039607D01*
X032247Y039447D01*
X032247Y039273D01*
X032313Y039112D01*
X032436Y038989D01*
X032597Y038923D01*
X033325Y038923D01*
X033486Y038989D01*
X033609Y039112D01*
X033676Y039273D01*
X033676Y039447D01*
X033609Y039607D01*
X033486Y039730D01*
X033325Y039797D01*
X033489Y039727D02*
X034131Y039727D01*
X034131Y039609D02*
X033608Y039609D01*
X033658Y039490D02*
X034179Y039490D01*
X034250Y039371D02*
X033676Y039371D01*
X033667Y039253D02*
X034379Y039253D01*
X034144Y039846D02*
X019092Y039846D01*
X019100Y039727D02*
X020433Y039727D01*
X020436Y039730D02*
X020313Y039607D01*
X020247Y039447D01*
X020247Y039273D01*
X020313Y039112D01*
X020436Y038989D01*
X020597Y038923D01*
X021325Y038923D01*
X021486Y038989D01*
X021609Y039112D01*
X021676Y039273D01*
X021676Y039447D01*
X021609Y039607D01*
X021486Y039730D01*
X021325Y039797D01*
X020597Y039797D01*
X020436Y039730D01*
X020315Y039609D02*
X019374Y039609D01*
X019503Y039490D02*
X020265Y039490D01*
X020247Y039371D02*
X019550Y039371D01*
X019550Y039253D02*
X020255Y039253D01*
X020304Y039134D02*
X019505Y039134D01*
X019386Y039016D02*
X020410Y039016D01*
X020553Y038779D02*
X017281Y038779D01*
X017281Y038897D02*
X035171Y038897D01*
X035171Y038779D02*
X033369Y038779D01*
X033325Y038797D02*
X032597Y038797D01*
X032436Y038730D01*
X032313Y038607D01*
X032302Y038580D01*
X031870Y038580D01*
X031741Y038451D01*
X031741Y038451D01*
X031220Y037930D01*
X031091Y037801D01*
X031091Y031146D01*
X031008Y031063D01*
X030953Y030931D01*
X030953Y030789D01*
X031008Y030657D01*
X031108Y030556D01*
X031240Y030502D01*
X031382Y030502D01*
X031514Y030556D01*
X031615Y030657D01*
X031669Y030789D01*
X031669Y030931D01*
X031615Y031063D01*
X031531Y031146D01*
X031531Y037619D01*
X032052Y038140D01*
X032302Y038140D01*
X032313Y038112D01*
X032436Y037989D01*
X032597Y037923D01*
X033325Y037923D01*
X033486Y037989D01*
X033609Y038112D01*
X033676Y038273D01*
X033676Y038447D01*
X033609Y038607D01*
X033486Y038730D01*
X033325Y038797D01*
X033556Y038660D02*
X035171Y038660D01*
X035171Y038542D02*
X033636Y038542D01*
X033676Y038423D02*
X035171Y038423D01*
X035171Y038305D02*
X033676Y038305D01*
X033640Y038186D02*
X035171Y038186D01*
X035171Y038067D02*
X033564Y038067D01*
X033389Y037949D02*
X035171Y037949D01*
X035171Y037830D02*
X031743Y037830D01*
X031624Y037712D02*
X032418Y037712D01*
X032436Y037730D02*
X032313Y037607D01*
X032247Y037447D01*
X032247Y037273D01*
X032313Y037112D01*
X032436Y036989D01*
X032597Y036923D01*
X033325Y036923D01*
X033486Y036989D01*
X033609Y037112D01*
X033676Y037273D01*
X033676Y037447D01*
X033609Y037607D01*
X033486Y037730D01*
X033325Y037797D01*
X032597Y037797D01*
X032436Y037730D01*
X032308Y037593D02*
X031531Y037593D01*
X031531Y037475D02*
X032259Y037475D01*
X032247Y037356D02*
X031531Y037356D01*
X031531Y037238D02*
X032261Y037238D01*
X032311Y037119D02*
X031531Y037119D01*
X031531Y037001D02*
X032425Y037001D01*
X032516Y036763D02*
X031531Y036763D01*
X031531Y036645D02*
X032351Y036645D01*
X032313Y036607D02*
X032436Y036730D01*
X032597Y036797D01*
X033325Y036797D01*
X033486Y036730D01*
X033609Y036607D01*
X033676Y036447D01*
X033676Y036273D01*
X033609Y036112D01*
X033486Y035989D01*
X033325Y035923D01*
X032597Y035923D01*
X032436Y035989D01*
X032313Y036112D01*
X032247Y036273D01*
X032247Y036447D01*
X032313Y036607D01*
X032280Y036526D02*
X031531Y036526D01*
X031531Y036408D02*
X032247Y036408D01*
X032247Y036289D02*
X031531Y036289D01*
X031531Y036171D02*
X032289Y036171D01*
X032373Y036052D02*
X031531Y036052D01*
X031531Y035934D02*
X032570Y035934D01*
X032597Y035797D02*
X032436Y035730D01*
X032313Y035607D01*
X032247Y035447D01*
X032247Y035273D01*
X032313Y035112D01*
X032436Y034989D01*
X032597Y034923D01*
X033325Y034923D01*
X033486Y034989D01*
X033609Y035112D01*
X033676Y035273D01*
X033676Y035447D01*
X033609Y035607D01*
X033486Y035730D01*
X033325Y035797D01*
X032597Y035797D01*
X032403Y035697D02*
X031531Y035697D01*
X031531Y035815D02*
X035171Y035815D01*
X035171Y035697D02*
X033520Y035697D01*
X033621Y035578D02*
X035171Y035578D01*
X035171Y035459D02*
X033670Y035459D01*
X033676Y035341D02*
X035171Y035341D01*
X035171Y035222D02*
X033655Y035222D01*
X033601Y035104D02*
X035171Y035104D01*
X035171Y034985D02*
X033477Y034985D01*
X033443Y034748D02*
X035171Y034748D01*
X035171Y034630D02*
X033587Y034630D01*
X033609Y034607D02*
X033486Y034730D01*
X033325Y034797D01*
X032597Y034797D01*
X032436Y034730D01*
X032313Y034607D01*
X032247Y034447D01*
X032247Y034273D01*
X032313Y034112D01*
X032436Y033989D01*
X032597Y033923D01*
X033325Y033923D01*
X033486Y033989D01*
X033609Y034112D01*
X033676Y034273D01*
X033676Y034447D01*
X033609Y034607D01*
X033649Y034511D02*
X035171Y034511D01*
X035171Y034393D02*
X033676Y034393D01*
X033676Y034274D02*
X035171Y034274D01*
X035171Y034156D02*
X033627Y034156D01*
X033534Y034037D02*
X035171Y034037D01*
X035171Y033918D02*
X031531Y033918D01*
X031531Y033800D02*
X035171Y033800D01*
X035171Y033681D02*
X033535Y033681D01*
X033486Y033730D02*
X033325Y033797D01*
X032597Y033797D01*
X032436Y033730D01*
X032313Y033607D01*
X032247Y033447D01*
X032247Y033273D01*
X032313Y033112D01*
X032436Y032989D01*
X032597Y032923D01*
X033325Y032923D01*
X033486Y032989D01*
X033609Y033112D01*
X033676Y033273D01*
X033676Y033447D01*
X033609Y033607D01*
X033486Y033730D01*
X033627Y033563D02*
X035171Y033563D01*
X035171Y033444D02*
X033676Y033444D01*
X033676Y033326D02*
X035171Y033326D01*
X035171Y033207D02*
X033648Y033207D01*
X033586Y033089D02*
X035171Y033089D01*
X035171Y032970D02*
X033440Y032970D01*
X033325Y032797D02*
X032597Y032797D01*
X032436Y032730D01*
X032313Y032607D01*
X032247Y032447D01*
X032247Y032273D01*
X032313Y032112D01*
X032436Y031989D01*
X032597Y031923D01*
X033325Y031923D01*
X033486Y031989D01*
X033609Y032112D01*
X033676Y032273D01*
X033676Y032447D01*
X033609Y032607D01*
X033486Y032730D01*
X033325Y032797D01*
X033480Y032733D02*
X035171Y032733D01*
X035171Y032852D02*
X031531Y032852D01*
X031531Y032970D02*
X032482Y032970D01*
X032337Y033089D02*
X031531Y033089D01*
X031531Y033207D02*
X032274Y033207D01*
X032247Y033326D02*
X031531Y033326D01*
X031531Y033444D02*
X032247Y033444D01*
X032295Y033563D02*
X031531Y033563D01*
X031531Y033681D02*
X032387Y033681D01*
X032389Y034037D02*
X031531Y034037D01*
X031531Y034156D02*
X032295Y034156D01*
X032247Y034274D02*
X031531Y034274D01*
X031531Y034393D02*
X032247Y034393D01*
X032274Y034511D02*
X031531Y034511D01*
X031531Y034630D02*
X032336Y034630D01*
X032480Y034748D02*
X031531Y034748D01*
X031531Y034867D02*
X035171Y034867D01*
X035171Y035934D02*
X033352Y035934D01*
X033549Y036052D02*
X035171Y036052D01*
X035171Y036171D02*
X033633Y036171D01*
X033676Y036289D02*
X035171Y036289D01*
X035171Y036408D02*
X033676Y036408D01*
X033643Y036526D02*
X035171Y036526D01*
X035171Y036645D02*
X033571Y036645D01*
X033406Y036763D02*
X035171Y036763D01*
X035171Y036882D02*
X031531Y036882D01*
X031091Y036882D02*
X020181Y036882D01*
X020181Y036763D02*
X020516Y036763D01*
X020436Y036730D02*
X020313Y036607D01*
X020247Y036447D01*
X020247Y036273D01*
X020313Y036112D01*
X020436Y035989D01*
X020597Y035923D01*
X021325Y035923D01*
X021486Y035989D01*
X021609Y036112D01*
X021676Y036273D01*
X021676Y036447D01*
X021609Y036607D01*
X021486Y036730D01*
X021325Y036797D01*
X020597Y036797D01*
X020436Y036730D01*
X020351Y036645D02*
X020181Y036645D01*
X020181Y036526D02*
X020280Y036526D01*
X020247Y036408D02*
X020181Y036408D01*
X020181Y036289D02*
X020247Y036289D01*
X020289Y036171D02*
X020181Y036171D01*
X020181Y036052D02*
X020373Y036052D01*
X020181Y035934D02*
X020570Y035934D01*
X020597Y035797D02*
X020436Y035730D01*
X020313Y035607D01*
X020247Y035447D01*
X020247Y035273D01*
X020313Y035112D01*
X020436Y034989D01*
X020597Y034923D01*
X021325Y034923D01*
X021486Y034989D01*
X021609Y035112D01*
X021676Y035273D01*
X021676Y035447D01*
X021609Y035607D01*
X021486Y035730D01*
X021325Y035797D01*
X020597Y035797D01*
X020403Y035697D02*
X020181Y035697D01*
X020181Y035815D02*
X031091Y035815D01*
X031091Y035697D02*
X021520Y035697D01*
X021621Y035578D02*
X031091Y035578D01*
X031091Y035459D02*
X021670Y035459D01*
X021676Y035341D02*
X031091Y035341D01*
X031091Y035222D02*
X021655Y035222D01*
X021601Y035104D02*
X031091Y035104D01*
X031091Y034985D02*
X021477Y034985D01*
X021443Y034748D02*
X031091Y034748D01*
X031091Y034630D02*
X021587Y034630D01*
X021649Y034511D02*
X031091Y034511D01*
X031091Y034393D02*
X021676Y034393D01*
X021676Y034274D02*
X031091Y034274D01*
X031091Y034156D02*
X027162Y034156D01*
X026960Y034156D02*
X021627Y034156D01*
X021534Y034037D02*
X026782Y034037D01*
X027061Y033810D02*
X020211Y033810D01*
X019961Y033960D01*
X019961Y037110D01*
X019811Y037260D01*
X016721Y037260D01*
X016255Y036970D02*
X016231Y036994D01*
X016231Y036051D01*
X016244Y036038D01*
X016305Y036100D01*
X017238Y036100D01*
X017331Y036006D01*
X017331Y035613D01*
X017277Y035560D01*
X017307Y035530D01*
X018103Y035530D01*
X018170Y035597D01*
X018294Y035648D01*
X018429Y035648D01*
X018553Y035597D01*
X018648Y035501D01*
X018700Y035377D01*
X018700Y035242D01*
X018654Y035131D01*
X018694Y035148D01*
X018829Y035148D01*
X018953Y035097D01*
X019048Y035001D01*
X019100Y034877D01*
X019100Y034742D01*
X019048Y034618D01*
X019032Y034602D01*
X019144Y034648D01*
X019279Y034648D01*
X019403Y034597D01*
X019498Y034501D01*
X019550Y034377D01*
X019550Y034242D01*
X019498Y034118D01*
X019403Y034023D01*
X019279Y033971D01*
X019144Y033971D01*
X019020Y034023D01*
X018953Y034090D01*
X017307Y034090D01*
X017277Y034060D01*
X017299Y034038D01*
X017320Y034001D01*
X017331Y033961D01*
X017331Y033815D01*
X016776Y033815D01*
X016776Y033805D01*
X017331Y033805D01*
X017331Y033659D01*
X017320Y033618D01*
X017299Y033581D01*
X017277Y033560D01*
X017331Y033506D01*
X017331Y033113D01*
X017277Y033060D01*
X017308Y033030D01*
X017515Y033030D01*
X017524Y033051D01*
X017620Y033147D01*
X017744Y033198D01*
X017879Y033198D01*
X018003Y033147D01*
X018098Y033051D01*
X018150Y032927D01*
X018150Y032792D01*
X018098Y032668D01*
X018003Y032573D01*
X017899Y032530D01*
X019720Y032530D01*
X019741Y032551D01*
X019741Y033533D01*
X019733Y033543D01*
X019741Y033622D01*
X019741Y033701D01*
X019751Y033711D01*
X019753Y033725D01*
X019814Y033774D01*
X019825Y033785D01*
X019825Y033785D01*
X019770Y033818D01*
X019763Y033847D01*
X019741Y033869D01*
X019741Y033933D01*
X019726Y033995D01*
X019741Y034021D01*
X019741Y037019D01*
X019720Y037040D01*
X017258Y037040D01*
X017188Y036970D01*
X016255Y036970D01*
X016231Y036882D02*
X019741Y036882D01*
X019741Y036763D02*
X016231Y036763D01*
X016231Y036645D02*
X019741Y036645D01*
X019741Y036526D02*
X016231Y036526D01*
X016231Y036408D02*
X019741Y036408D01*
X019741Y036289D02*
X016231Y036289D01*
X016231Y036171D02*
X019741Y036171D01*
X019741Y036052D02*
X017285Y036052D01*
X017331Y035934D02*
X019741Y035934D01*
X019741Y035815D02*
X017331Y035815D01*
X017331Y035697D02*
X019741Y035697D01*
X019741Y035578D02*
X018572Y035578D01*
X018666Y035459D02*
X019741Y035459D01*
X019741Y035341D02*
X018700Y035341D01*
X018691Y035222D02*
X019741Y035222D01*
X019741Y035104D02*
X018935Y035104D01*
X019055Y034985D02*
X019741Y034985D01*
X019741Y034867D02*
X019100Y034867D01*
X019100Y034748D02*
X019741Y034748D01*
X019741Y034630D02*
X019323Y034630D01*
X019488Y034511D02*
X019741Y034511D01*
X019741Y034393D02*
X019543Y034393D01*
X019550Y034274D02*
X019741Y034274D01*
X019741Y034156D02*
X019514Y034156D01*
X019417Y034037D02*
X019741Y034037D01*
X019741Y033918D02*
X017331Y033918D01*
X017331Y033800D02*
X019800Y033800D01*
X019741Y033681D02*
X017331Y033681D01*
X017281Y033563D02*
X019735Y033563D01*
X019741Y033444D02*
X017331Y033444D01*
X017331Y033326D02*
X019741Y033326D01*
X019741Y033207D02*
X017331Y033207D01*
X017306Y033089D02*
X017562Y033089D01*
X017811Y032860D02*
X017761Y032810D01*
X016771Y032810D01*
X016771Y033310D02*
X016211Y033310D01*
X016011Y033160D01*
X016011Y030910D01*
X016211Y030760D01*
X016721Y030760D01*
X016721Y030260D02*
X018361Y030260D01*
X018672Y030125D02*
X019741Y030125D01*
X019741Y030006D02*
X018993Y030006D01*
X018953Y030047D02*
X018829Y030098D01*
X018694Y030098D01*
X018654Y030081D01*
X018700Y030192D01*
X018700Y030327D01*
X018648Y030451D01*
X018553Y030547D01*
X018429Y030598D01*
X018294Y030598D01*
X018170Y030547D01*
X018103Y030480D01*
X017258Y030480D01*
X017227Y030510D01*
X017281Y030563D01*
X017281Y030956D01*
X017188Y031050D01*
X016255Y031050D01*
X016231Y031026D01*
X016231Y032094D01*
X016305Y032020D01*
X017238Y032020D01*
X017308Y032090D01*
X019720Y032090D01*
X019720Y032090D01*
X019741Y032069D01*
X019741Y027533D01*
X019701Y027480D01*
X017760Y027480D01*
X017848Y027568D01*
X017900Y027692D01*
X017900Y027827D01*
X017848Y027951D01*
X017753Y028047D01*
X017629Y028098D01*
X017494Y028098D01*
X017370Y028047D01*
X017303Y027980D01*
X017258Y027980D01*
X017227Y028010D01*
X017281Y028063D01*
X017281Y028456D01*
X017227Y028510D01*
X017249Y028531D01*
X017270Y028568D01*
X017281Y028609D01*
X017281Y028755D01*
X016726Y028755D01*
X016726Y028765D01*
X017281Y028765D01*
X017281Y028911D01*
X017270Y028951D01*
X017249Y028988D01*
X017227Y029010D01*
X017258Y029040D01*
X018953Y029040D01*
X019020Y028973D01*
X019144Y028921D01*
X019279Y028921D01*
X019403Y028973D01*
X019498Y029068D01*
X019550Y029192D01*
X019550Y029327D01*
X019498Y029451D01*
X019403Y029547D01*
X019279Y029598D01*
X019144Y029598D01*
X019032Y029552D01*
X019048Y029568D01*
X019100Y029692D01*
X019100Y029827D01*
X019048Y029951D01*
X018953Y030047D01*
X019074Y029888D02*
X019741Y029888D01*
X019741Y029769D02*
X019100Y029769D01*
X019082Y029651D02*
X019741Y029651D01*
X019741Y029532D02*
X019417Y029532D01*
X019514Y029414D02*
X019741Y029414D01*
X019741Y029295D02*
X019550Y029295D01*
X019543Y029177D02*
X019741Y029177D01*
X019741Y029058D02*
X019488Y029058D01*
X019323Y028940D02*
X019741Y028940D01*
X019741Y028821D02*
X017281Y028821D01*
X017281Y028703D02*
X019741Y028703D01*
X019741Y028584D02*
X017275Y028584D01*
X017272Y028465D02*
X019741Y028465D01*
X019741Y028347D02*
X017281Y028347D01*
X017281Y028228D02*
X019741Y028228D01*
X019741Y028110D02*
X017281Y028110D01*
X017314Y027991D02*
X017246Y027991D01*
X017561Y027760D02*
X016721Y027760D01*
X016721Y028260D02*
X016211Y028260D01*
X016011Y028110D01*
X016011Y025910D01*
X016211Y025760D01*
X016721Y025760D01*
X016721Y025260D02*
X018361Y025260D01*
X018125Y025502D02*
X017235Y025502D01*
X017227Y025510D02*
X017281Y025563D01*
X017281Y025956D01*
X017188Y026050D01*
X016255Y026050D01*
X016231Y026026D01*
X016231Y026994D01*
X016255Y026970D01*
X017188Y026970D01*
X017257Y027040D01*
X019701Y027040D01*
X019741Y026986D01*
X019741Y022533D01*
X019701Y022480D01*
X017660Y022480D01*
X017748Y022568D01*
X017800Y022692D01*
X017800Y022827D01*
X017748Y022951D01*
X017653Y023047D01*
X017529Y023098D01*
X017394Y023098D01*
X017270Y023047D01*
X017230Y023007D01*
X017227Y023010D01*
X017281Y023063D01*
X017281Y023456D01*
X017227Y023510D01*
X017249Y023531D01*
X017270Y023568D01*
X017281Y023609D01*
X017281Y023755D01*
X016726Y023755D01*
X016726Y023765D01*
X017281Y023765D01*
X017281Y023911D01*
X017270Y023951D01*
X017249Y023988D01*
X017227Y024010D01*
X017258Y024040D01*
X018953Y024040D01*
X019020Y023973D01*
X019144Y023921D01*
X019279Y023921D01*
X019403Y023973D01*
X019498Y024068D01*
X019550Y024192D01*
X019550Y024327D01*
X019498Y024451D01*
X019403Y024547D01*
X019279Y024598D01*
X019144Y024598D01*
X019032Y024552D01*
X019048Y024568D01*
X019100Y024692D01*
X019100Y024827D01*
X019048Y024951D01*
X018953Y025047D01*
X018829Y025098D01*
X018694Y025098D01*
X018654Y025081D01*
X018700Y025192D01*
X018700Y025327D01*
X018648Y025451D01*
X018553Y025547D01*
X018429Y025598D01*
X018294Y025598D01*
X018170Y025547D01*
X018103Y025480D01*
X017258Y025480D01*
X017227Y025510D01*
X017281Y025620D02*
X019741Y025620D01*
X019741Y025502D02*
X018598Y025502D01*
X018676Y025383D02*
X019741Y025383D01*
X019741Y025265D02*
X018700Y025265D01*
X018680Y025146D02*
X019741Y025146D01*
X019741Y025028D02*
X018972Y025028D01*
X019066Y024909D02*
X019741Y024909D01*
X019741Y024791D02*
X019100Y024791D01*
X019091Y024672D02*
X019741Y024672D01*
X019741Y024554D02*
X019386Y024554D01*
X019505Y024435D02*
X019741Y024435D01*
X019741Y024316D02*
X019550Y024316D01*
X019550Y024198D02*
X019741Y024198D01*
X019741Y024079D02*
X019503Y024079D01*
X019374Y023961D02*
X019741Y023961D01*
X019741Y023842D02*
X017281Y023842D01*
X017281Y023724D02*
X019741Y023724D01*
X019741Y023605D02*
X017280Y023605D01*
X017251Y023487D02*
X019741Y023487D01*
X019741Y023368D02*
X017281Y023368D01*
X017281Y023250D02*
X019741Y023250D01*
X019741Y023131D02*
X017281Y023131D01*
X017235Y023012D02*
X017230Y023012D01*
X017461Y022760D02*
X016721Y022760D01*
X016721Y023260D02*
X016111Y023260D01*
X015961Y023110D01*
X015961Y021060D01*
X016161Y020860D01*
X016721Y020860D01*
X016721Y020360D02*
X018211Y020360D01*
X018361Y020510D01*
X018361Y021860D01*
X018761Y021510D02*
X018761Y020110D01*
X018511Y019860D01*
X016721Y019860D01*
X016721Y019360D02*
X018911Y019360D01*
X019211Y019610D01*
X019211Y021860D01*
X019611Y021510D02*
X019611Y018610D01*
X019961Y018610D02*
X019561Y018110D01*
X017911Y018110D01*
X017761Y017960D01*
X017761Y017360D01*
X016721Y017360D01*
X016239Y017085D02*
X016081Y017085D01*
X016081Y016967D02*
X017941Y016967D01*
X017941Y017085D02*
X017203Y017085D01*
X017916Y017204D02*
X017941Y017204D01*
X017941Y016848D02*
X016081Y016848D01*
X016081Y016730D02*
X017941Y016730D01*
X017941Y016611D02*
X016081Y016611D01*
X016081Y016493D02*
X017941Y016493D01*
X017941Y016374D02*
X016081Y016374D01*
X016081Y016255D02*
X017941Y016255D01*
X017941Y016137D02*
X016081Y016137D01*
X016081Y016018D02*
X017941Y016018D01*
X017941Y015900D02*
X016081Y015900D01*
X016081Y015781D02*
X017941Y015781D01*
X017941Y015663D02*
X016081Y015663D01*
X016081Y015544D02*
X017941Y015544D01*
X017941Y015426D02*
X016081Y015426D01*
X016081Y015307D02*
X017941Y015307D01*
X017941Y015189D02*
X016081Y015189D01*
X016081Y015070D02*
X017941Y015070D01*
X017941Y014951D02*
X016081Y014951D01*
X016081Y014833D02*
X017941Y014833D01*
X017941Y014714D02*
X016081Y014714D01*
X016081Y014596D02*
X017941Y014596D01*
X017941Y014477D02*
X016081Y014477D01*
X016081Y014359D02*
X017941Y014359D01*
X017941Y014240D02*
X016081Y014240D01*
X016081Y014122D02*
X017941Y014122D01*
X017941Y014003D02*
X016081Y014003D01*
X016047Y013885D02*
X017941Y013885D01*
X017941Y013766D02*
X015929Y013766D01*
X015810Y013648D02*
X017941Y013648D01*
X017941Y013529D02*
X015692Y013529D01*
X015425Y013885D02*
X006783Y013885D01*
X006672Y014003D02*
X015544Y014003D01*
X014261Y015010D02*
X014261Y017320D01*
X014301Y017360D01*
X014041Y016967D02*
X013481Y016967D01*
X013481Y017085D02*
X013819Y017085D01*
X013741Y017204D02*
X013481Y017204D01*
X013481Y017322D02*
X013741Y017322D01*
X013741Y017441D02*
X013481Y017441D01*
X013522Y017559D02*
X013745Y017559D01*
X013511Y017860D02*
X014301Y017860D01*
X014301Y018360D02*
X013261Y018360D01*
X012861Y017960D01*
X012861Y016910D01*
X012611Y016660D01*
X006161Y016660D01*
X006543Y016255D02*
X013041Y016255D01*
X013041Y016137D02*
X000621Y016137D01*
X000621Y016255D02*
X000864Y016255D01*
X000821Y016374D02*
X000621Y016374D01*
X000621Y016493D02*
X000821Y016493D01*
X000621Y016611D02*
X001177Y016611D01*
X001177Y016493D02*
X001297Y016493D01*
X001297Y016374D02*
X001177Y016374D01*
X001177Y016255D02*
X001297Y016255D01*
X001297Y016018D02*
X001177Y016018D01*
X001177Y015900D02*
X001297Y015900D01*
X001297Y015781D02*
X001177Y015781D01*
X001177Y015663D02*
X000621Y015663D01*
X000621Y015781D02*
X000821Y015781D01*
X000821Y015900D02*
X000621Y015900D01*
X000621Y016018D02*
X000833Y016018D01*
X000821Y015544D02*
X000621Y015544D01*
X000621Y015426D02*
X000821Y015426D01*
X000831Y015307D02*
X000621Y015307D01*
X000621Y015189D02*
X014041Y015189D01*
X014041Y015307D02*
X006663Y015307D01*
X006779Y015426D02*
X014041Y015426D01*
X014041Y015544D02*
X013207Y015544D01*
X013325Y015663D02*
X014041Y015663D01*
X014041Y015781D02*
X013444Y015781D01*
X013481Y015900D02*
X014041Y015900D01*
X014041Y016018D02*
X013481Y016018D01*
X013481Y016137D02*
X014041Y016137D01*
X014041Y016255D02*
X013481Y016255D01*
X013481Y016374D02*
X014041Y016374D01*
X014041Y016493D02*
X013481Y016493D01*
X013481Y016611D02*
X014041Y016611D01*
X014041Y016730D02*
X013481Y016730D01*
X013481Y016848D02*
X014041Y016848D01*
X013041Y016730D02*
X012992Y016730D01*
X013041Y016611D02*
X012874Y016611D01*
X012755Y016493D02*
X013041Y016493D01*
X013041Y016374D02*
X006729Y016374D01*
X006653Y016018D02*
X013041Y016018D01*
X012940Y015900D02*
X006775Y015900D01*
X006161Y015660D02*
X013011Y015660D01*
X013261Y015910D01*
X013261Y017610D01*
X013511Y017860D01*
X012641Y017915D02*
X012578Y017915D01*
X012641Y017797D02*
X012459Y017797D01*
X012341Y017678D02*
X012641Y017678D01*
X012641Y017559D02*
X012222Y017559D01*
X012103Y017441D02*
X012641Y017441D01*
X012641Y017322D02*
X006678Y017322D01*
X006708Y016967D02*
X012607Y016967D01*
X012641Y017085D02*
X002337Y017085D01*
X002401Y016967D02*
X002614Y016967D01*
X002645Y017322D02*
X002401Y017322D01*
X002401Y017915D02*
X002563Y017915D01*
X002706Y018034D02*
X002389Y018034D01*
X002374Y018271D02*
X002743Y018271D01*
X002578Y018389D02*
X002401Y018389D01*
X002401Y018982D02*
X002630Y018982D01*
X002322Y019101D02*
X012541Y019101D01*
X012659Y019219D02*
X002322Y019219D01*
X002401Y019338D02*
X002629Y019338D01*
X002578Y019930D02*
X002401Y019930D01*
X002374Y020049D02*
X002743Y020049D01*
X002706Y020286D02*
X002389Y020286D01*
X002401Y020404D02*
X002563Y020404D01*
X002645Y020997D02*
X002401Y020997D01*
X001612Y022064D02*
X001610Y022064D01*
X000864Y022064D02*
X000621Y022064D01*
X000621Y021946D02*
X000821Y021946D01*
X000821Y021827D02*
X000621Y021827D01*
X000621Y022183D02*
X006577Y022183D01*
X006411Y022660D02*
X006161Y022660D01*
X006411Y022660D02*
X007161Y021910D01*
X007842Y020523D02*
X012913Y020523D01*
X012795Y020404D02*
X007785Y020404D01*
X006693Y019338D02*
X012778Y019338D01*
X013111Y019360D02*
X012411Y018660D01*
X006161Y018660D01*
X006579Y018271D02*
X012311Y018271D01*
X012430Y018389D02*
X006745Y018389D01*
X006760Y017915D02*
X011956Y017915D01*
X012641Y017204D02*
X000621Y017204D01*
X000621Y017322D02*
X000827Y017322D01*
X000821Y017441D02*
X000621Y017441D01*
X000621Y017559D02*
X000821Y017559D01*
X001177Y017559D02*
X001297Y017559D01*
X001297Y017441D02*
X001177Y017441D01*
X001177Y017322D02*
X001297Y017322D01*
X001297Y017085D02*
X001177Y017085D01*
X001177Y016967D02*
X001297Y016967D01*
X001297Y016848D02*
X001177Y016848D01*
X001177Y016730D02*
X001297Y016730D01*
X001588Y017085D02*
X001633Y017085D01*
X000887Y017085D02*
X000621Y017085D01*
X000621Y016967D02*
X000821Y016967D01*
X000821Y016848D02*
X000621Y016848D01*
X000621Y016730D02*
X000821Y016730D01*
X001610Y016255D02*
X001612Y016255D01*
X001297Y015544D02*
X001177Y015544D01*
X001177Y015426D02*
X001297Y015426D01*
X001297Y015307D02*
X001177Y015307D01*
X001177Y015070D02*
X001297Y015070D01*
X001297Y014951D02*
X001177Y014951D01*
X001177Y014833D02*
X001297Y014833D01*
X001604Y015070D02*
X001618Y015070D01*
X000870Y015070D02*
X000621Y015070D01*
X000621Y014951D02*
X000821Y014951D01*
X000821Y014833D02*
X000621Y014833D01*
X000621Y014003D02*
X000829Y014003D01*
X000821Y013885D02*
X000621Y013885D01*
X001595Y014240D02*
X001627Y014240D01*
X002343Y014240D02*
X002817Y014240D01*
X002608Y014359D02*
X002401Y014359D01*
X002401Y014003D02*
X002651Y014003D01*
X002557Y013410D02*
X002401Y013410D01*
X002395Y013292D02*
X002692Y013292D01*
X002599Y014951D02*
X002401Y014951D01*
X002352Y015070D02*
X002794Y015070D01*
X002660Y015307D02*
X002401Y015307D01*
X002401Y016018D02*
X002670Y016018D01*
X002780Y016255D02*
X002358Y016255D01*
X002401Y016374D02*
X002593Y016374D01*
X006161Y014660D02*
X013911Y014660D01*
X014261Y015010D01*
X014010Y015070D02*
X006528Y015070D01*
X006723Y014951D02*
X013892Y014951D01*
X012661Y012560D02*
X012511Y012410D01*
X012511Y011341D01*
X012507Y011337D01*
X012947Y011158D02*
X013067Y011158D01*
X013032Y011277D02*
X012982Y011277D01*
X012982Y011395D02*
X013032Y011395D01*
X013032Y011514D02*
X012982Y011514D01*
X012982Y011632D02*
X013032Y011632D01*
X013032Y011751D02*
X012982Y011751D01*
X012982Y011869D02*
X013032Y011869D01*
X013032Y011988D02*
X012982Y011988D01*
X012963Y012106D02*
X013051Y012106D01*
X013100Y012225D02*
X012914Y012225D01*
X012661Y012560D02*
X018461Y012560D01*
X018661Y012760D01*
X018661Y015660D01*
X018861Y015860D01*
X030061Y015860D01*
X030261Y016060D01*
X030261Y018110D01*
X029962Y018271D02*
X029331Y018271D01*
X029331Y018389D02*
X030062Y018389D01*
X029923Y018152D02*
X029331Y018152D01*
X029331Y018034D02*
X029926Y018034D01*
X029977Y017915D02*
X029331Y017915D01*
X029331Y017797D02*
X030041Y017797D01*
X030041Y017678D02*
X029331Y017678D01*
X029331Y017559D02*
X030041Y017559D01*
X030041Y017441D02*
X029331Y017441D01*
X029331Y017322D02*
X030041Y017322D01*
X030041Y017204D02*
X029316Y017204D01*
X029198Y017085D02*
X030041Y017085D01*
X030041Y016967D02*
X029079Y016967D01*
X028961Y016848D02*
X030041Y016848D01*
X030041Y016730D02*
X028842Y016730D01*
X028711Y016910D02*
X018661Y016910D01*
X018411Y016660D01*
X018411Y012910D01*
X018261Y012760D01*
X010811Y012760D01*
X010511Y012460D01*
X010511Y011341D01*
X010507Y011337D01*
X010947Y011158D02*
X011067Y011158D01*
X011032Y011242D02*
X011104Y011067D01*
X011238Y010934D01*
X011412Y010862D01*
X011601Y010862D01*
X011776Y010934D01*
X011910Y011067D01*
X011982Y011242D01*
X011982Y012061D01*
X011910Y012235D01*
X011776Y012369D01*
X011601Y012441D01*
X011412Y012441D01*
X011238Y012369D01*
X011104Y012235D01*
X011032Y012061D01*
X011032Y011242D01*
X011032Y011277D02*
X010982Y011277D01*
X010982Y011395D02*
X011032Y011395D01*
X011032Y011514D02*
X010982Y011514D01*
X010982Y011632D02*
X011032Y011632D01*
X011032Y011751D02*
X010982Y011751D01*
X010982Y011869D02*
X011032Y011869D01*
X011032Y011988D02*
X010982Y011988D01*
X010963Y012106D02*
X011051Y012106D01*
X011100Y012225D02*
X010914Y012225D01*
X010801Y012344D02*
X011212Y012344D01*
X010825Y012462D02*
X012291Y012462D01*
X012212Y012344D02*
X011801Y012344D01*
X011914Y012225D02*
X012100Y012225D01*
X012051Y012106D02*
X011963Y012106D01*
X011982Y011988D02*
X012032Y011988D01*
X012032Y011869D02*
X011982Y011869D01*
X011982Y011751D02*
X012032Y011751D01*
X012032Y011632D02*
X011982Y011632D01*
X011982Y011514D02*
X012032Y011514D01*
X012032Y011395D02*
X011982Y011395D01*
X011982Y011277D02*
X012032Y011277D01*
X012067Y011158D02*
X011947Y011158D01*
X011882Y011040D02*
X012132Y011040D01*
X012269Y010921D02*
X011745Y010921D01*
X011269Y010921D02*
X010745Y010921D01*
X010882Y011040D02*
X011132Y011040D01*
X010269Y010921D02*
X009745Y010921D01*
X009776Y010934D02*
X009910Y011067D01*
X009982Y011242D01*
X009982Y012061D01*
X009910Y012235D01*
X009776Y012369D01*
X009601Y012441D01*
X009412Y012441D01*
X009238Y012369D01*
X009104Y012235D01*
X009032Y012061D01*
X009032Y011242D01*
X009104Y011067D01*
X009238Y010934D01*
X009412Y010862D01*
X009601Y010862D01*
X009776Y010934D01*
X009882Y011040D02*
X010132Y011040D01*
X010067Y011158D02*
X009947Y011158D01*
X009982Y011277D02*
X010032Y011277D01*
X010032Y011395D02*
X009982Y011395D01*
X009982Y011514D02*
X010032Y011514D01*
X010032Y011632D02*
X009982Y011632D01*
X009982Y011751D02*
X010032Y011751D01*
X010032Y011869D02*
X009982Y011869D01*
X009982Y011988D02*
X010032Y011988D01*
X010051Y012106D02*
X009963Y012106D01*
X009914Y012225D02*
X010100Y012225D01*
X010212Y012344D02*
X009801Y012344D01*
X010291Y012462D02*
X008731Y012462D01*
X008731Y012581D02*
X010321Y012581D01*
X010440Y012699D02*
X008812Y012699D01*
X008761Y012960D02*
X008511Y012710D01*
X008511Y011341D01*
X008507Y011337D01*
X008947Y011158D02*
X009067Y011158D01*
X009032Y011277D02*
X008982Y011277D01*
X008982Y011395D02*
X009032Y011395D01*
X009032Y011514D02*
X008982Y011514D01*
X008982Y011632D02*
X009032Y011632D01*
X009032Y011751D02*
X008982Y011751D01*
X008982Y011869D02*
X009032Y011869D01*
X009032Y011988D02*
X008982Y011988D01*
X008963Y012106D02*
X009051Y012106D01*
X009100Y012225D02*
X008914Y012225D01*
X008801Y012344D02*
X009212Y012344D01*
X008761Y012960D02*
X018061Y012960D01*
X018161Y013060D01*
X018161Y017610D01*
X018461Y017910D01*
X027711Y017910D01*
X027911Y018110D01*
X027911Y019160D01*
X027743Y019456D02*
X024828Y019456D01*
X024867Y019472D02*
X024995Y019601D01*
X025065Y019769D01*
X025065Y019951D01*
X024995Y020119D01*
X024867Y020247D01*
X024699Y020317D01*
X023924Y020317D01*
X023756Y020247D01*
X023627Y020119D01*
X023558Y019951D01*
X023558Y019769D01*
X023627Y019601D01*
X023756Y019472D01*
X023924Y019403D01*
X024699Y019403D01*
X024867Y019472D01*
X024969Y019575D02*
X031471Y019575D01*
X031471Y019693D02*
X025034Y019693D01*
X025065Y019812D02*
X031471Y019812D01*
X031471Y019930D02*
X025065Y019930D01*
X025024Y020049D02*
X031471Y020049D01*
X031471Y020167D02*
X024947Y020167D01*
X024773Y020286D02*
X031471Y020286D01*
X031471Y020404D02*
X024703Y020404D01*
X024699Y020403D02*
X024867Y020472D01*
X024995Y020601D01*
X025065Y020769D01*
X025065Y020951D01*
X024995Y021119D01*
X024867Y021247D01*
X024699Y021317D01*
X023924Y021317D01*
X023756Y021247D01*
X023627Y021119D01*
X023558Y020951D01*
X023558Y020769D01*
X023627Y020601D01*
X023756Y020472D01*
X023924Y020403D01*
X024699Y020403D01*
X024917Y020523D02*
X031471Y020523D01*
X031471Y020642D02*
X025012Y020642D01*
X025061Y020760D02*
X031471Y020760D01*
X031471Y020879D02*
X025065Y020879D01*
X025046Y020997D02*
X031471Y020997D01*
X031471Y021116D02*
X024997Y021116D01*
X024880Y021234D02*
X031471Y021234D01*
X031471Y021353D02*
X021676Y021353D01*
X021676Y021273D02*
X021676Y021447D01*
X021609Y021607D01*
X021486Y021730D01*
X021325Y021797D01*
X020597Y021797D01*
X020436Y021730D01*
X020313Y021607D01*
X020247Y021447D01*
X020247Y021273D01*
X020313Y021112D01*
X020436Y020989D01*
X020597Y020923D01*
X021325Y020923D01*
X021486Y020989D01*
X021609Y021112D01*
X021676Y021273D01*
X021660Y021234D02*
X023743Y021234D01*
X023626Y021116D02*
X021611Y021116D01*
X021494Y020997D02*
X023577Y020997D01*
X023558Y020879D02*
X020181Y020879D01*
X020181Y020997D02*
X020428Y020997D01*
X020312Y021116D02*
X020181Y021116D01*
X020181Y021234D02*
X020263Y021234D01*
X020247Y021353D02*
X020181Y021353D01*
X020181Y021471D02*
X020257Y021471D01*
X020306Y021590D02*
X020181Y021590D01*
X020181Y021708D02*
X020415Y021708D01*
X020181Y021827D02*
X023558Y021827D01*
X023558Y021769D02*
X023627Y021601D01*
X023756Y021472D01*
X023924Y021403D01*
X024699Y021403D01*
X024867Y021472D01*
X024995Y021601D01*
X025065Y021769D01*
X025065Y021951D01*
X024995Y022119D01*
X024867Y022247D01*
X024699Y022317D01*
X023924Y022317D01*
X023756Y022247D01*
X023627Y022119D01*
X023558Y021951D01*
X023558Y021769D01*
X023583Y021708D02*
X021508Y021708D01*
X021616Y021590D02*
X023638Y021590D01*
X023758Y021471D02*
X021665Y021471D01*
X021486Y021989D02*
X021609Y022112D01*
X021676Y022273D01*
X021676Y022447D01*
X021609Y022607D01*
X021486Y022730D01*
X021325Y022797D01*
X020597Y022797D01*
X020436Y022730D01*
X020313Y022607D01*
X020247Y022447D01*
X020247Y022273D01*
X020313Y022112D01*
X020436Y021989D01*
X020597Y021923D01*
X021325Y021923D01*
X021486Y021989D01*
X021561Y022064D02*
X023605Y022064D01*
X023558Y021946D02*
X021381Y021946D01*
X021638Y022183D02*
X023691Y022183D01*
X023886Y022301D02*
X021676Y022301D01*
X021676Y022420D02*
X023883Y022420D01*
X023924Y022403D02*
X023756Y022472D01*
X023627Y022601D01*
X023558Y022769D01*
X023558Y022951D01*
X023627Y023119D01*
X023756Y023247D01*
X023924Y023317D01*
X024699Y023317D01*
X024867Y023247D01*
X024995Y023119D01*
X025065Y022951D01*
X025065Y022769D01*
X024995Y022601D01*
X024867Y022472D01*
X024699Y022403D01*
X023924Y022403D01*
X023690Y022538D02*
X021638Y022538D01*
X021560Y022657D02*
X023604Y022657D01*
X023558Y022775D02*
X021377Y022775D01*
X021325Y022923D02*
X021486Y022989D01*
X021609Y023112D01*
X021676Y023273D01*
X021676Y023447D01*
X021609Y023607D01*
X021486Y023730D01*
X021325Y023797D01*
X020597Y023797D01*
X020436Y023730D01*
X020313Y023607D01*
X020247Y023447D01*
X020247Y023273D01*
X020313Y023112D01*
X020436Y022989D01*
X020597Y022923D01*
X021325Y022923D01*
X021509Y023012D02*
X023583Y023012D01*
X023558Y022894D02*
X020181Y022894D01*
X020181Y023012D02*
X020413Y023012D01*
X020306Y023131D02*
X020181Y023131D01*
X020181Y023250D02*
X020257Y023250D01*
X020247Y023368D02*
X020181Y023368D01*
X020181Y023487D02*
X020263Y023487D01*
X020313Y023605D02*
X020181Y023605D01*
X020181Y023724D02*
X020430Y023724D01*
X020505Y023961D02*
X020181Y023961D01*
X020181Y024079D02*
X020346Y024079D01*
X020313Y024112D02*
X020436Y023989D01*
X020597Y023923D01*
X021325Y023923D01*
X021486Y023989D01*
X021609Y024112D01*
X021676Y024273D01*
X021676Y024447D01*
X021609Y024607D01*
X021486Y024730D01*
X021325Y024797D01*
X020597Y024797D01*
X020436Y024730D01*
X020313Y024607D01*
X020247Y024447D01*
X020247Y024273D01*
X020313Y024112D01*
X020278Y024198D02*
X020181Y024198D01*
X020181Y024316D02*
X020247Y024316D01*
X020247Y024435D02*
X020181Y024435D01*
X020181Y024554D02*
X020291Y024554D01*
X020378Y024672D02*
X020181Y024672D01*
X020181Y024791D02*
X020582Y024791D01*
X020597Y024923D02*
X020436Y024989D01*
X020313Y025112D01*
X020247Y025273D01*
X020247Y025447D01*
X020313Y025607D01*
X020436Y025730D01*
X020597Y025797D01*
X021325Y025797D01*
X021486Y025730D01*
X021609Y025607D01*
X021676Y025447D01*
X021676Y025273D01*
X021609Y025112D01*
X021486Y024989D01*
X021325Y024923D01*
X020597Y024923D01*
X020398Y025028D02*
X020181Y025028D01*
X020181Y025146D02*
X020299Y025146D01*
X020250Y025265D02*
X020181Y025265D01*
X020181Y025383D02*
X020247Y025383D01*
X020270Y025502D02*
X020181Y025502D01*
X020181Y025620D02*
X020326Y025620D01*
X020457Y025739D02*
X020181Y025739D01*
X020181Y025857D02*
X031870Y025857D01*
X031751Y025739D02*
X021465Y025739D01*
X021596Y025620D02*
X028365Y025620D01*
X028283Y025502D02*
X021653Y025502D01*
X021676Y025383D02*
X028253Y025383D01*
X028263Y025265D02*
X021672Y025265D01*
X021623Y025146D02*
X028318Y025146D01*
X028477Y025028D02*
X021525Y025028D01*
X021341Y024791D02*
X031471Y024791D01*
X031471Y024909D02*
X020181Y024909D01*
X019741Y025739D02*
X017281Y025739D01*
X017281Y025857D02*
X019741Y025857D01*
X019741Y025976D02*
X017261Y025976D01*
X016231Y026095D02*
X019741Y026095D01*
X019741Y026213D02*
X016231Y026213D01*
X016231Y026332D02*
X019741Y026332D01*
X019741Y026450D02*
X016231Y026450D01*
X016231Y026569D02*
X019741Y026569D01*
X019741Y026687D02*
X016231Y026687D01*
X016231Y026806D02*
X019741Y026806D01*
X019741Y026924D02*
X016231Y026924D01*
X015791Y027043D02*
X014841Y027043D01*
X014861Y027161D02*
X015791Y027161D01*
X015791Y027280D02*
X014861Y027280D01*
X014861Y027399D02*
X015791Y027399D01*
X015791Y027517D02*
X014815Y027517D01*
X014861Y027636D02*
X015791Y027636D01*
X015791Y027754D02*
X014861Y027754D01*
X014861Y027873D02*
X015791Y027873D01*
X015791Y027991D02*
X014826Y027991D01*
X014861Y028110D02*
X015789Y028110D01*
X015806Y028228D02*
X014861Y028228D01*
X014861Y028347D02*
X015961Y028347D01*
X016106Y028465D02*
X014852Y028465D01*
X014861Y028584D02*
X016168Y028584D01*
X016161Y028703D02*
X014861Y028703D01*
X014861Y028821D02*
X016161Y028821D01*
X016169Y028940D02*
X014861Y028940D01*
X014856Y029058D02*
X016167Y029058D01*
X016161Y029177D02*
X014861Y029177D01*
X014861Y029295D02*
X016161Y029295D01*
X016161Y029414D02*
X014861Y029414D01*
X014830Y029532D02*
X016192Y029532D01*
X016161Y029651D02*
X014861Y029651D01*
X014861Y029769D02*
X016161Y029769D01*
X016161Y029888D02*
X014861Y029888D01*
X014811Y030006D02*
X016212Y030006D01*
X016161Y030125D02*
X014861Y030125D01*
X014861Y030244D02*
X016161Y030244D01*
X016161Y030362D02*
X014861Y030362D01*
X014837Y030481D02*
X016186Y030481D01*
X016059Y030599D02*
X014859Y030599D01*
X014861Y030718D02*
X015892Y030718D01*
X015791Y030836D02*
X014861Y030836D01*
X014861Y030765D02*
X014861Y030911D01*
X014850Y030951D01*
X014829Y030988D01*
X014799Y031018D01*
X014763Y031039D01*
X014722Y031050D01*
X014306Y031050D01*
X014306Y030765D01*
X014861Y030765D01*
X014848Y030955D02*
X015783Y030955D01*
X015791Y031073D02*
X013781Y031073D01*
X013781Y031192D02*
X015791Y031192D01*
X015791Y031310D02*
X013781Y031310D01*
X013781Y031429D02*
X015791Y031429D01*
X015791Y031548D02*
X013781Y031548D01*
X013781Y031666D02*
X015791Y031666D01*
X015791Y031785D02*
X013747Y031785D01*
X013629Y031903D02*
X015791Y031903D01*
X015791Y032022D02*
X014819Y032022D01*
X014911Y032140D02*
X015791Y032140D01*
X015791Y032259D02*
X014911Y032259D01*
X014911Y032377D02*
X015791Y032377D01*
X015791Y032496D02*
X014911Y032496D01*
X014911Y032614D02*
X015791Y032614D01*
X015791Y032733D02*
X014911Y032733D01*
X014911Y032852D02*
X015791Y032852D01*
X015791Y032970D02*
X014911Y032970D01*
X014886Y033089D02*
X015790Y033089D01*
X015791Y033207D02*
X014911Y033207D01*
X014911Y033326D02*
X015866Y033326D01*
X016024Y033444D02*
X014911Y033444D01*
X014861Y033563D02*
X016262Y033563D01*
X016211Y033681D02*
X014911Y033681D01*
X014911Y033800D02*
X016211Y033800D01*
X016211Y033918D02*
X014911Y033918D01*
X014880Y034037D02*
X016243Y034037D01*
X016211Y034156D02*
X014911Y034156D01*
X014911Y034274D02*
X016211Y034274D01*
X016211Y034393D02*
X014911Y034393D01*
X014906Y034511D02*
X016216Y034511D01*
X016211Y034630D02*
X014911Y034630D01*
X014911Y034748D02*
X016211Y034748D01*
X016211Y034867D02*
X014911Y034867D01*
X014911Y034985D02*
X016211Y034985D01*
X016221Y035104D02*
X014902Y035104D01*
X014911Y035222D02*
X016211Y035222D01*
X016211Y035341D02*
X014911Y035341D01*
X014911Y035459D02*
X016211Y035459D01*
X016247Y035578D02*
X014876Y035578D01*
X014911Y035697D02*
X015963Y035697D01*
X016161Y035810D02*
X016011Y035960D01*
X016011Y038060D01*
X016211Y038260D01*
X016721Y038260D01*
X017281Y038305D02*
X020247Y038305D01*
X020247Y038273D02*
X020247Y038447D01*
X020313Y038607D01*
X020436Y038730D01*
X020597Y038797D01*
X021325Y038797D01*
X021486Y038730D01*
X021609Y038607D01*
X021676Y038447D01*
X021676Y038273D01*
X021609Y038112D01*
X021486Y037989D01*
X021325Y037923D01*
X020597Y037923D01*
X020436Y037989D01*
X020313Y038112D01*
X020247Y038273D01*
X020283Y038186D02*
X017281Y038186D01*
X017281Y038067D02*
X017370Y038067D01*
X017653Y038067D02*
X020358Y038067D01*
X020534Y037949D02*
X017799Y037949D01*
X017848Y037830D02*
X031121Y037830D01*
X031091Y037712D02*
X021505Y037712D01*
X021486Y037730D02*
X021325Y037797D01*
X020597Y037797D01*
X020436Y037730D01*
X020313Y037607D01*
X020247Y037447D01*
X020247Y037273D01*
X020313Y037112D01*
X020436Y036989D01*
X020597Y036923D01*
X021325Y036923D01*
X021486Y036989D01*
X021609Y037112D01*
X021676Y037273D01*
X021676Y037447D01*
X021609Y037607D01*
X021486Y037730D01*
X021615Y037593D02*
X031091Y037593D01*
X031091Y037475D02*
X021664Y037475D01*
X021676Y037356D02*
X031091Y037356D01*
X031091Y037238D02*
X021661Y037238D01*
X021612Y037119D02*
X031091Y037119D01*
X031091Y037001D02*
X021497Y037001D01*
X021406Y036763D02*
X031091Y036763D01*
X031091Y036645D02*
X021571Y036645D01*
X021643Y036526D02*
X031091Y036526D01*
X031091Y036408D02*
X021676Y036408D01*
X021676Y036289D02*
X031091Y036289D01*
X031091Y036171D02*
X021633Y036171D01*
X021549Y036052D02*
X031091Y036052D01*
X031091Y035934D02*
X021352Y035934D01*
X020446Y034985D02*
X020181Y034985D01*
X020181Y034867D02*
X031091Y034867D01*
X031531Y034985D02*
X032446Y034985D01*
X032322Y035104D02*
X031531Y035104D01*
X031531Y035222D02*
X032268Y035222D01*
X032247Y035341D02*
X031531Y035341D01*
X031531Y035459D02*
X032252Y035459D01*
X032301Y035578D02*
X031531Y035578D01*
X031091Y034037D02*
X027340Y034037D01*
X027404Y033918D02*
X031091Y033918D01*
X031091Y033800D02*
X027419Y033800D01*
X027396Y033681D02*
X031091Y033681D01*
X031091Y033563D02*
X027321Y033563D01*
X026802Y033563D02*
X021627Y033563D01*
X021676Y033444D02*
X031091Y033444D01*
X031091Y033326D02*
X021676Y033326D01*
X021648Y033207D02*
X031091Y033207D01*
X031091Y033089D02*
X021586Y033089D01*
X021440Y032970D02*
X031091Y032970D01*
X031091Y032852D02*
X020181Y032852D01*
X020181Y032970D02*
X020482Y032970D01*
X020337Y033089D02*
X020181Y033089D01*
X020181Y033207D02*
X020274Y033207D01*
X020247Y033326D02*
X020181Y033326D01*
X020181Y033444D02*
X020247Y033444D01*
X020255Y033563D02*
X020295Y033563D01*
X020211Y033810D02*
X019961Y033610D01*
X019961Y032460D01*
X019811Y032310D01*
X019961Y032160D01*
X019961Y027460D01*
X019811Y027260D01*
X019961Y027060D01*
X019961Y022460D01*
X019811Y022260D01*
X019961Y022110D01*
X019961Y018610D01*
X020181Y018626D02*
X020332Y018626D01*
X020272Y018508D02*
X020170Y018508D01*
X020247Y018389D02*
X020067Y018389D01*
X019972Y018271D02*
X020248Y018271D01*
X020297Y018152D02*
X019877Y018152D01*
X020181Y018745D02*
X020472Y018745D01*
X020597Y018923D02*
X020436Y018989D01*
X020313Y019112D01*
X020247Y019273D01*
X020247Y019447D01*
X020313Y019607D01*
X020436Y019730D01*
X020597Y019797D01*
X021325Y019797D01*
X021486Y019730D01*
X021609Y019607D01*
X021676Y019447D01*
X021676Y019273D01*
X021609Y019112D01*
X021486Y018989D01*
X021325Y018923D01*
X020597Y018923D01*
X020454Y018982D02*
X020181Y018982D01*
X020181Y019101D02*
X020325Y019101D01*
X020269Y019219D02*
X020181Y019219D01*
X020181Y019338D02*
X020247Y019338D01*
X020251Y019456D02*
X020181Y019456D01*
X020181Y019575D02*
X020300Y019575D01*
X020399Y019693D02*
X020181Y019693D01*
X020181Y019812D02*
X023558Y019812D01*
X023558Y019930D02*
X021344Y019930D01*
X021325Y019923D02*
X021486Y019989D01*
X021609Y020112D01*
X021676Y020273D01*
X021676Y020447D01*
X021609Y020607D01*
X021486Y020730D01*
X021325Y020797D01*
X020597Y020797D01*
X020436Y020730D01*
X020313Y020607D01*
X020247Y020447D01*
X020247Y020273D01*
X020313Y020112D01*
X020436Y019989D01*
X020597Y019923D01*
X021325Y019923D01*
X021546Y020049D02*
X023598Y020049D01*
X023676Y020167D02*
X021632Y020167D01*
X021676Y020286D02*
X023850Y020286D01*
X023920Y020404D02*
X021676Y020404D01*
X021644Y020523D02*
X023705Y020523D01*
X023610Y020642D02*
X021575Y020642D01*
X021414Y020760D02*
X023561Y020760D01*
X023589Y019693D02*
X021523Y019693D01*
X021623Y019575D02*
X023653Y019575D01*
X023795Y019456D02*
X021672Y019456D01*
X021676Y019338D02*
X027619Y019338D01*
X027573Y019219D02*
X021653Y019219D01*
X021597Y019101D02*
X027573Y019101D01*
X027619Y018982D02*
X021469Y018982D01*
X021451Y018745D02*
X027691Y018745D01*
X027691Y018863D02*
X020181Y018863D01*
X019391Y018982D02*
X017281Y018982D01*
X017237Y019101D02*
X019391Y019101D01*
X019391Y019219D02*
X019086Y019219D01*
X019228Y019338D02*
X019391Y019338D01*
X019391Y019456D02*
X019371Y019456D01*
X020181Y019930D02*
X020578Y019930D01*
X020377Y020049D02*
X020181Y020049D01*
X020181Y020167D02*
X020291Y020167D01*
X020247Y020286D02*
X020181Y020286D01*
X020181Y020404D02*
X020247Y020404D01*
X020279Y020523D02*
X020181Y020523D01*
X020181Y020642D02*
X020348Y020642D01*
X020508Y020760D02*
X020181Y020760D01*
X020181Y021946D02*
X020542Y021946D01*
X020361Y022064D02*
X020181Y022064D01*
X020181Y022183D02*
X020284Y022183D01*
X020247Y022301D02*
X020117Y022301D01*
X020189Y022420D02*
X020247Y022420D01*
X020285Y022538D02*
X020181Y022538D01*
X020181Y022657D02*
X020363Y022657D01*
X020181Y022775D02*
X020545Y022775D01*
X019741Y022775D02*
X017800Y022775D01*
X017785Y022657D02*
X019741Y022657D01*
X019741Y022538D02*
X017718Y022538D01*
X017772Y022894D02*
X019741Y022894D01*
X019741Y023012D02*
X017687Y023012D01*
X017265Y023961D02*
X019049Y023961D01*
X019211Y024260D02*
X016721Y024260D01*
X016721Y024760D02*
X018761Y024760D01*
X019034Y024554D02*
X019036Y024554D01*
X020181Y023842D02*
X024273Y023842D01*
X024273Y023821D02*
X023558Y023821D01*
X023569Y023753D01*
X023591Y023684D01*
X023624Y023620D01*
X023666Y023562D01*
X023717Y023511D01*
X023775Y023469D01*
X023839Y023436D01*
X023907Y023414D01*
X023978Y023403D01*
X024273Y023403D01*
X024273Y023821D01*
X024350Y023821D01*
X024350Y023898D01*
X025064Y023898D01*
X025054Y023967D01*
X025031Y024035D01*
X024999Y024099D01*
X024957Y024157D01*
X024906Y024208D01*
X024848Y024250D01*
X024783Y024283D01*
X024715Y024305D01*
X024644Y024317D01*
X024350Y024317D01*
X024350Y023898D01*
X024273Y023898D01*
X024273Y024317D01*
X023978Y024317D01*
X023907Y024305D01*
X023839Y024283D01*
X023775Y024250D01*
X023717Y024208D01*
X023666Y024157D01*
X023624Y024099D01*
X023591Y024035D01*
X023569Y023967D01*
X023558Y023898D01*
X024273Y023898D01*
X024273Y023821D01*
X024350Y023821D02*
X024350Y023403D01*
X024644Y023403D01*
X024715Y023414D01*
X024783Y023436D01*
X024848Y023469D01*
X024906Y023511D01*
X024957Y023562D01*
X024999Y023620D01*
X025031Y023684D01*
X025054Y023753D01*
X025064Y023821D01*
X024350Y023821D01*
X024350Y023842D02*
X031471Y023842D01*
X031471Y023724D02*
X025044Y023724D01*
X024988Y023605D02*
X028400Y023605D01*
X028326Y023487D02*
X024872Y023487D01*
X024861Y023250D02*
X028319Y023250D01*
X028303Y023368D02*
X021676Y023368D01*
X021666Y023250D02*
X023762Y023250D01*
X023640Y023131D02*
X021617Y023131D01*
X021659Y023487D02*
X023751Y023487D01*
X023635Y023605D02*
X021610Y023605D01*
X021493Y023724D02*
X023578Y023724D01*
X023568Y023961D02*
X021418Y023961D01*
X021576Y024079D02*
X023614Y024079D01*
X023706Y024198D02*
X021645Y024198D01*
X021676Y024316D02*
X023977Y024316D01*
X024273Y024316D02*
X024350Y024316D01*
X024350Y024198D02*
X024273Y024198D01*
X024273Y024079D02*
X024350Y024079D01*
X024350Y023961D02*
X024273Y023961D01*
X024273Y023724D02*
X024350Y023724D01*
X024350Y023605D02*
X024273Y023605D01*
X024273Y023487D02*
X024350Y023487D01*
X024983Y023131D02*
X028384Y023131D01*
X028564Y023012D02*
X025039Y023012D01*
X025065Y022894D02*
X031471Y022894D01*
X031471Y023012D02*
X031359Y023012D01*
X031164Y023012D02*
X028759Y023012D01*
X028939Y023131D02*
X030984Y023131D01*
X031261Y023360D02*
X028661Y023360D01*
X028922Y023605D02*
X031000Y023605D01*
X031035Y024079D02*
X028887Y024079D01*
X028661Y024360D02*
X031261Y024360D01*
X031079Y024672D02*
X028843Y024672D01*
X028479Y024672D02*
X021544Y024672D01*
X021631Y024554D02*
X028354Y024554D01*
X028305Y024435D02*
X021676Y024435D01*
X021325Y025923D02*
X020597Y025923D01*
X020436Y025989D01*
X020313Y026112D01*
X020247Y026273D01*
X020247Y026447D01*
X020313Y026607D01*
X020436Y026730D01*
X020597Y026797D01*
X021325Y026797D01*
X021486Y026730D01*
X021609Y026607D01*
X021676Y026447D01*
X021676Y026273D01*
X021609Y026112D01*
X021486Y025989D01*
X021325Y025923D01*
X021454Y025976D02*
X031988Y025976D01*
X032331Y026095D02*
X021591Y026095D01*
X021651Y026213D02*
X032272Y026213D01*
X032247Y026332D02*
X021676Y026332D01*
X021674Y026450D02*
X032248Y026450D01*
X032297Y026569D02*
X021625Y026569D01*
X021529Y026687D02*
X032393Y026687D01*
X032436Y026989D02*
X032313Y027112D01*
X032247Y027273D01*
X032247Y027447D01*
X032313Y027607D01*
X032436Y027730D01*
X032597Y027797D01*
X033325Y027797D01*
X033486Y027730D01*
X033609Y027607D01*
X033676Y027447D01*
X033676Y027273D01*
X033609Y027112D01*
X033486Y026989D01*
X033325Y026923D01*
X032597Y026923D01*
X032436Y026989D01*
X032383Y027043D02*
X021540Y027043D01*
X021486Y026989D02*
X021609Y027112D01*
X021676Y027273D01*
X021676Y027447D01*
X021609Y027607D01*
X021486Y027730D01*
X021325Y027797D01*
X020597Y027797D01*
X020436Y027730D01*
X020313Y027607D01*
X020247Y027447D01*
X020247Y027273D01*
X020313Y027112D01*
X020436Y026989D01*
X020597Y026923D01*
X021325Y026923D01*
X021486Y026989D01*
X021330Y026924D02*
X032593Y026924D01*
X032293Y027161D02*
X021629Y027161D01*
X021676Y027280D02*
X032247Y027280D01*
X032247Y027399D02*
X021676Y027399D01*
X021646Y027517D02*
X032276Y027517D01*
X032342Y027636D02*
X021581Y027636D01*
X021429Y027754D02*
X032494Y027754D01*
X032597Y027923D02*
X032436Y027989D01*
X032313Y028112D01*
X032247Y028273D01*
X032247Y028447D01*
X032313Y028607D01*
X032436Y028730D01*
X032597Y028797D01*
X033325Y028797D01*
X033486Y028730D01*
X033609Y028607D01*
X033676Y028447D01*
X033676Y028273D01*
X033609Y028112D01*
X033486Y027989D01*
X033325Y027923D01*
X032597Y027923D01*
X032434Y027991D02*
X021488Y027991D01*
X021486Y027989D02*
X021609Y028112D01*
X021676Y028273D01*
X021676Y028447D01*
X021609Y028607D01*
X021486Y028730D01*
X021325Y028797D01*
X020597Y028797D01*
X020436Y028730D01*
X020313Y028607D01*
X020247Y028447D01*
X020247Y028273D01*
X020313Y028112D01*
X020436Y027989D01*
X020597Y027923D01*
X021325Y027923D01*
X021486Y027989D01*
X021607Y028110D02*
X032316Y028110D01*
X032265Y028228D02*
X021657Y028228D01*
X021676Y028347D02*
X032247Y028347D01*
X032255Y028465D02*
X021668Y028465D01*
X021619Y028584D02*
X032304Y028584D01*
X032409Y028703D02*
X021514Y028703D01*
X021366Y028940D02*
X032556Y028940D01*
X032597Y028923D02*
X032436Y028989D01*
X032313Y029112D01*
X032247Y029273D01*
X032247Y029447D01*
X032313Y029607D01*
X032436Y029730D01*
X032597Y029797D01*
X033325Y029797D01*
X033486Y029730D01*
X033609Y029607D01*
X033676Y029447D01*
X033676Y029273D01*
X033609Y029112D01*
X033486Y028989D01*
X033325Y028923D01*
X032597Y028923D01*
X032367Y029058D02*
X021555Y029058D01*
X021609Y029112D02*
X021486Y028989D01*
X021325Y028923D01*
X020597Y028923D01*
X020436Y028989D01*
X020313Y029112D01*
X020247Y029273D01*
X020247Y029447D01*
X020313Y029607D01*
X020436Y029730D01*
X020597Y029797D01*
X021325Y029797D01*
X021486Y029730D01*
X021609Y029607D01*
X021676Y029447D01*
X021676Y029273D01*
X021609Y029112D01*
X021636Y029177D02*
X032287Y029177D01*
X032247Y029295D02*
X021676Y029295D01*
X021676Y029414D02*
X032247Y029414D01*
X032282Y029532D02*
X021640Y029532D01*
X021566Y029651D02*
X032357Y029651D01*
X032531Y029769D02*
X021392Y029769D01*
X021325Y029923D02*
X021486Y029989D01*
X021609Y030112D01*
X021676Y030273D01*
X021676Y030447D01*
X021609Y030607D01*
X021486Y030730D01*
X021325Y030797D01*
X020597Y030797D01*
X020436Y030730D01*
X020313Y030607D01*
X020247Y030447D01*
X020247Y030273D01*
X020313Y030112D01*
X020436Y029989D01*
X020597Y029923D01*
X021325Y029923D01*
X021503Y030006D02*
X032419Y030006D01*
X032436Y029989D02*
X032597Y029923D01*
X033325Y029923D01*
X033486Y029989D01*
X033609Y030112D01*
X033676Y030273D01*
X033676Y030447D01*
X033609Y030607D01*
X033486Y030730D01*
X033325Y030797D01*
X032597Y030797D01*
X032436Y030730D01*
X032313Y030607D01*
X032247Y030447D01*
X032247Y030273D01*
X032313Y030112D01*
X032436Y029989D01*
X032308Y030125D02*
X021614Y030125D01*
X021663Y030244D02*
X032259Y030244D01*
X032247Y030362D02*
X021676Y030362D01*
X021661Y030481D02*
X032261Y030481D01*
X032310Y030599D02*
X031557Y030599D01*
X031640Y030718D02*
X032424Y030718D01*
X032519Y030955D02*
X031659Y030955D01*
X031669Y030836D02*
X035171Y030836D01*
X035171Y030718D02*
X033499Y030718D01*
X033612Y030599D02*
X035171Y030599D01*
X035171Y030481D02*
X033661Y030481D01*
X033676Y030362D02*
X035171Y030362D01*
X035171Y030244D02*
X033663Y030244D01*
X033614Y030125D02*
X035171Y030125D01*
X035171Y030006D02*
X033503Y030006D01*
X033392Y029769D02*
X035171Y029769D01*
X035171Y029651D02*
X033566Y029651D01*
X033640Y029532D02*
X035171Y029532D01*
X035171Y029414D02*
X033676Y029414D01*
X033676Y029295D02*
X035171Y029295D01*
X035171Y029177D02*
X033636Y029177D01*
X033555Y029058D02*
X035171Y029058D01*
X035171Y028940D02*
X033366Y028940D01*
X033514Y028703D02*
X035171Y028703D01*
X035171Y028821D02*
X020181Y028821D01*
X020181Y028703D02*
X020409Y028703D01*
X020304Y028584D02*
X020181Y028584D01*
X020181Y028465D02*
X020255Y028465D01*
X020247Y028347D02*
X020181Y028347D01*
X020181Y028228D02*
X020265Y028228D01*
X020316Y028110D02*
X020181Y028110D01*
X020181Y027991D02*
X020434Y027991D01*
X020494Y027754D02*
X020181Y027754D01*
X020181Y027636D02*
X020342Y027636D01*
X020276Y027517D02*
X020181Y027517D01*
X020190Y027399D02*
X020247Y027399D01*
X020247Y027280D02*
X020101Y027280D01*
X020171Y027161D02*
X020293Y027161D01*
X020383Y027043D02*
X020181Y027043D01*
X020181Y026924D02*
X020593Y026924D01*
X020393Y026687D02*
X020181Y026687D01*
X020181Y026569D02*
X020297Y026569D01*
X020248Y026450D02*
X020181Y026450D01*
X020181Y026332D02*
X020247Y026332D01*
X020272Y026213D02*
X020181Y026213D01*
X020181Y026095D02*
X020331Y026095D01*
X020468Y025976D02*
X020181Y025976D01*
X020181Y026806D02*
X035376Y026806D01*
X035494Y026687D02*
X033529Y026687D01*
X033625Y026569D02*
X035571Y026569D01*
X035571Y026450D02*
X033674Y026450D01*
X033676Y026332D02*
X035571Y026332D01*
X035525Y026213D02*
X033651Y026213D01*
X033591Y026095D02*
X035407Y026095D01*
X035257Y026924D02*
X033330Y026924D01*
X033540Y027043D02*
X035179Y027043D01*
X035171Y027161D02*
X033629Y027161D01*
X033676Y027280D02*
X035171Y027280D01*
X035171Y027399D02*
X033676Y027399D01*
X033646Y027517D02*
X035171Y027517D01*
X035171Y027636D02*
X033581Y027636D01*
X033429Y027754D02*
X035171Y027754D01*
X035171Y027873D02*
X020181Y027873D01*
X019741Y027873D02*
X017881Y027873D01*
X017900Y027754D02*
X019741Y027754D01*
X019741Y027636D02*
X017876Y027636D01*
X017797Y027517D02*
X019729Y027517D01*
X019811Y027260D02*
X016721Y027260D01*
X017808Y027991D02*
X019741Y027991D01*
X020181Y028940D02*
X020556Y028940D01*
X020367Y029058D02*
X020181Y029058D01*
X020181Y029177D02*
X020287Y029177D01*
X020247Y029295D02*
X020181Y029295D01*
X020181Y029414D02*
X020247Y029414D01*
X020282Y029532D02*
X020181Y029532D01*
X020181Y029651D02*
X020357Y029651D01*
X020531Y029769D02*
X020181Y029769D01*
X020181Y029888D02*
X035171Y029888D01*
X035861Y030010D02*
X035861Y033810D01*
X035171Y032614D02*
X033602Y032614D01*
X033655Y032496D02*
X035171Y032496D01*
X035171Y032377D02*
X033676Y032377D01*
X033670Y032259D02*
X035171Y032259D01*
X035171Y032140D02*
X033621Y032140D01*
X033519Y032022D02*
X035171Y032022D01*
X035171Y031903D02*
X031531Y031903D01*
X031531Y031785D02*
X032568Y031785D01*
X032597Y031797D02*
X032436Y031730D01*
X032313Y031607D01*
X032247Y031447D01*
X032247Y031273D01*
X032313Y031112D01*
X032436Y030989D01*
X032597Y030923D01*
X033325Y030923D01*
X033486Y030989D01*
X033609Y031112D01*
X033676Y031273D01*
X033676Y031447D01*
X033609Y031607D01*
X033486Y031730D01*
X033325Y031797D01*
X032597Y031797D01*
X032372Y031666D02*
X031531Y031666D01*
X031531Y031548D02*
X032289Y031548D01*
X032247Y031429D02*
X031531Y031429D01*
X031531Y031310D02*
X032247Y031310D01*
X032280Y031192D02*
X031531Y031192D01*
X031604Y031073D02*
X032352Y031073D01*
X032404Y032022D02*
X031531Y032022D01*
X031531Y032140D02*
X032302Y032140D01*
X032253Y032259D02*
X031531Y032259D01*
X031531Y032377D02*
X032247Y032377D01*
X032267Y032496D02*
X031531Y032496D01*
X031531Y032614D02*
X032321Y032614D01*
X032443Y032733D02*
X031531Y032733D01*
X031091Y032733D02*
X021480Y032733D01*
X021486Y032730D02*
X021325Y032797D01*
X020597Y032797D01*
X020436Y032730D01*
X020313Y032607D01*
X020247Y032447D01*
X020247Y032273D01*
X020313Y032112D01*
X020436Y031989D01*
X020597Y031923D01*
X021325Y031923D01*
X021486Y031989D01*
X021609Y032112D01*
X021676Y032273D01*
X021676Y032447D01*
X021609Y032607D01*
X021486Y032730D01*
X021602Y032614D02*
X031091Y032614D01*
X031091Y032496D02*
X021655Y032496D01*
X021676Y032377D02*
X031091Y032377D01*
X031091Y032259D02*
X021670Y032259D01*
X021621Y032140D02*
X031091Y032140D01*
X031091Y032022D02*
X021519Y032022D01*
X021355Y031785D02*
X031091Y031785D01*
X031091Y031903D02*
X020181Y031903D01*
X020181Y031785D02*
X020568Y031785D01*
X020597Y031797D02*
X020436Y031730D01*
X020313Y031607D01*
X020247Y031447D01*
X020247Y031273D01*
X020313Y031112D01*
X020436Y030989D01*
X020597Y030923D01*
X021325Y030923D01*
X021486Y030989D01*
X021609Y031112D01*
X021676Y031273D01*
X021676Y031447D01*
X021609Y031607D01*
X021486Y031730D01*
X021325Y031797D01*
X020597Y031797D01*
X020372Y031666D02*
X020181Y031666D01*
X020181Y031548D02*
X020289Y031548D01*
X020247Y031429D02*
X020181Y031429D01*
X020181Y031310D02*
X020247Y031310D01*
X020280Y031192D02*
X020181Y031192D01*
X020181Y031073D02*
X020352Y031073D01*
X020519Y030955D02*
X020181Y030955D01*
X020181Y030836D02*
X030953Y030836D01*
X030963Y030955D02*
X021403Y030955D01*
X021570Y031073D02*
X031018Y031073D01*
X031091Y031192D02*
X021642Y031192D01*
X021676Y031310D02*
X031091Y031310D01*
X031091Y031429D02*
X021676Y031429D01*
X021634Y031548D02*
X031091Y031548D01*
X031091Y031666D02*
X021550Y031666D01*
X021499Y030718D02*
X030982Y030718D01*
X031065Y030599D02*
X021612Y030599D01*
X020424Y030718D02*
X020181Y030718D01*
X020181Y030599D02*
X020310Y030599D01*
X020261Y030481D02*
X020181Y030481D01*
X020181Y030362D02*
X020247Y030362D01*
X020259Y030244D02*
X020181Y030244D01*
X020181Y030125D02*
X020308Y030125D01*
X020419Y030006D02*
X020181Y030006D01*
X019741Y030244D02*
X018700Y030244D01*
X018685Y030362D02*
X019741Y030362D01*
X019741Y030481D02*
X018619Y030481D01*
X018104Y030481D02*
X017257Y030481D01*
X017281Y030599D02*
X019741Y030599D01*
X019741Y030718D02*
X017281Y030718D01*
X017281Y030836D02*
X019741Y030836D01*
X019741Y030955D02*
X017281Y030955D01*
X016231Y031073D02*
X019741Y031073D01*
X019741Y031192D02*
X016231Y031192D01*
X016231Y031310D02*
X019741Y031310D01*
X019741Y031429D02*
X016231Y031429D01*
X016231Y031548D02*
X019741Y031548D01*
X019741Y031666D02*
X016231Y031666D01*
X016231Y031785D02*
X019741Y031785D01*
X019741Y031903D02*
X016231Y031903D01*
X016231Y032022D02*
X016303Y032022D01*
X016771Y032310D02*
X019811Y032310D01*
X019741Y032022D02*
X017239Y032022D01*
X018045Y032614D02*
X019741Y032614D01*
X019741Y032733D02*
X018125Y032733D01*
X018150Y032852D02*
X019741Y032852D01*
X019741Y032970D02*
X018132Y032970D01*
X018061Y033089D02*
X019741Y033089D01*
X020181Y032733D02*
X020443Y032733D01*
X020321Y032614D02*
X020181Y032614D01*
X020181Y032496D02*
X020267Y032496D01*
X020247Y032377D02*
X020181Y032377D01*
X020173Y032259D02*
X020253Y032259D01*
X020302Y032140D02*
X020181Y032140D01*
X020181Y032022D02*
X020404Y032022D01*
X020389Y034037D02*
X020260Y034037D01*
X020295Y034156D02*
X020181Y034156D01*
X020181Y034274D02*
X020247Y034274D01*
X020247Y034393D02*
X020181Y034393D01*
X020181Y034511D02*
X020274Y034511D01*
X020336Y034630D02*
X020181Y034630D01*
X020181Y034748D02*
X020480Y034748D01*
X020322Y035104D02*
X020181Y035104D01*
X020181Y035222D02*
X020268Y035222D01*
X020247Y035341D02*
X020181Y035341D01*
X020181Y035459D02*
X020252Y035459D01*
X020301Y035578D02*
X020181Y035578D01*
X019099Y034630D02*
X019053Y034630D01*
X018761Y034810D02*
X016771Y034810D01*
X016771Y035310D02*
X018361Y035310D01*
X018151Y035578D02*
X017296Y035578D01*
X016771Y035810D02*
X016161Y035810D01*
X016231Y036052D02*
X016257Y036052D01*
X015791Y036052D02*
X014865Y036052D01*
X014356Y036052D02*
X014346Y036052D01*
X014346Y035934D02*
X014356Y035934D01*
X013827Y035578D02*
X013722Y035578D01*
X013301Y035578D02*
X012181Y035578D01*
X012181Y035459D02*
X013207Y035459D01*
X013173Y035341D02*
X012181Y035341D01*
X012181Y035222D02*
X013181Y035222D01*
X013239Y035104D02*
X012181Y035104D01*
X012181Y034985D02*
X013218Y034985D01*
X013173Y034867D02*
X012181Y034867D01*
X012181Y034748D02*
X013173Y034748D01*
X013220Y034630D02*
X012181Y034630D01*
X011341Y034630D02*
X011331Y034630D01*
X011331Y034748D02*
X011341Y034748D01*
X011331Y034867D02*
X011341Y034867D01*
X011331Y034985D02*
X011341Y034985D01*
X011331Y035104D02*
X011341Y035104D01*
X011331Y035222D02*
X011341Y035222D01*
X011331Y035341D02*
X011341Y035341D01*
X011331Y035459D02*
X011341Y035459D01*
X011331Y035578D02*
X011341Y035578D01*
X011331Y035697D02*
X011341Y035697D01*
X011341Y035815D02*
X011317Y035815D01*
X011341Y035934D02*
X011198Y035934D01*
X011080Y036052D02*
X011341Y036052D01*
X011341Y036171D02*
X006754Y036171D01*
X006602Y036289D02*
X011341Y036289D01*
X010911Y035910D02*
X006161Y035910D01*
X006683Y035578D02*
X010891Y035578D01*
X011111Y035710D02*
X010911Y035910D01*
X011111Y035710D02*
X011111Y033460D01*
X011311Y033310D01*
X014351Y033310D01*
X014351Y032810D02*
X010961Y032810D01*
X010811Y032960D01*
X010811Y034710D01*
X010611Y034910D01*
X006161Y034910D01*
X006703Y035222D02*
X010891Y035222D01*
X010891Y035104D02*
X010728Y035104D01*
X010847Y034985D02*
X010891Y034985D01*
X010580Y034630D02*
X006735Y034630D01*
X006161Y033910D02*
X010311Y033910D01*
X010511Y033710D01*
X010511Y032560D01*
X010761Y032310D01*
X014351Y032310D01*
X013883Y032022D02*
X013510Y032022D01*
X014296Y030955D02*
X014306Y030955D01*
X014296Y030836D02*
X014306Y030836D01*
X016721Y029760D02*
X018761Y029760D01*
X019211Y029260D02*
X016721Y029260D01*
X017274Y028940D02*
X019100Y028940D01*
X015786Y025976D02*
X014836Y025976D01*
X014829Y025988D02*
X014799Y026018D01*
X014763Y026039D01*
X014722Y026050D01*
X014306Y026050D01*
X014306Y025765D01*
X014861Y025765D01*
X014861Y025911D01*
X014850Y025951D01*
X014829Y025988D01*
X014861Y025857D02*
X015791Y025857D01*
X015871Y025739D02*
X014861Y025739D01*
X014861Y025620D02*
X016030Y025620D01*
X016207Y025502D02*
X014815Y025502D01*
X014861Y025383D02*
X016161Y025383D01*
X016161Y025265D02*
X014861Y025265D01*
X014861Y025146D02*
X016161Y025146D01*
X016197Y025028D02*
X014825Y025028D01*
X014861Y024909D02*
X016161Y024909D01*
X016161Y024791D02*
X014861Y024791D01*
X014861Y024672D02*
X016161Y024672D01*
X016171Y024554D02*
X014851Y024554D01*
X014861Y024435D02*
X016161Y024435D01*
X014306Y025857D02*
X014296Y025857D01*
X014296Y025976D02*
X014306Y025976D01*
X012711Y025660D02*
X012611Y025760D01*
X012442Y023487D02*
X013772Y023487D01*
X013761Y023260D02*
X013261Y022760D01*
X011861Y022760D01*
X012322Y023131D02*
X013321Y023131D01*
X013203Y023012D02*
X012462Y023012D01*
X013311Y019860D02*
X014301Y019860D01*
X014301Y019360D02*
X013111Y019360D01*
X013111Y019660D02*
X013311Y019860D01*
X013111Y019660D02*
X006161Y019660D01*
X006693Y018982D02*
X012422Y018982D01*
X016103Y017441D02*
X016161Y017441D01*
X016161Y017322D02*
X016081Y017322D01*
X016081Y017204D02*
X016161Y017204D01*
X018881Y015544D02*
X020287Y015544D01*
X020247Y015426D02*
X018881Y015426D01*
X018881Y015307D02*
X020247Y015307D01*
X020282Y015189D02*
X018881Y015189D01*
X018881Y015070D02*
X020356Y015070D01*
X020527Y014951D02*
X018881Y014951D01*
X018881Y014833D02*
X034121Y014833D01*
X034121Y014951D02*
X033395Y014951D01*
X033325Y014923D02*
X033486Y014989D01*
X033609Y015112D01*
X033676Y015273D01*
X033676Y015447D01*
X033609Y015607D01*
X033486Y015730D01*
X033325Y015797D01*
X032597Y015797D01*
X032436Y015730D01*
X032313Y015607D01*
X032247Y015447D01*
X032247Y015273D01*
X032313Y015112D01*
X032436Y014989D01*
X032597Y014923D01*
X033325Y014923D01*
X033325Y014797D02*
X032597Y014797D01*
X032436Y014730D01*
X032313Y014607D01*
X032247Y014447D01*
X032247Y014273D01*
X032313Y014112D01*
X032436Y013989D01*
X032597Y013923D01*
X033325Y013923D01*
X033486Y013989D01*
X033609Y014112D01*
X033676Y014273D01*
X033676Y014447D01*
X033609Y014607D01*
X033486Y014730D01*
X033325Y014797D01*
X033502Y014714D02*
X034121Y014714D01*
X034121Y014596D02*
X033614Y014596D01*
X033663Y014477D02*
X034121Y014477D01*
X034121Y014359D02*
X033676Y014359D01*
X033662Y014240D02*
X034121Y014240D01*
X034121Y014122D02*
X033613Y014122D01*
X033500Y014003D02*
X034121Y014003D01*
X034121Y013885D02*
X018881Y013885D01*
X018881Y014003D02*
X020422Y014003D01*
X020436Y013989D02*
X020597Y013923D01*
X021325Y013923D01*
X021486Y013989D01*
X021609Y014112D01*
X021676Y014273D01*
X021676Y014447D01*
X021609Y014607D01*
X021486Y014730D01*
X021325Y014797D01*
X020597Y014797D01*
X020436Y014730D01*
X020313Y014607D01*
X020247Y014447D01*
X020247Y014273D01*
X020313Y014112D01*
X020436Y013989D01*
X020309Y014122D02*
X018881Y014122D01*
X018881Y014240D02*
X020260Y014240D01*
X020247Y014359D02*
X018881Y014359D01*
X018881Y014477D02*
X020260Y014477D01*
X020309Y014596D02*
X018881Y014596D01*
X018881Y014714D02*
X020421Y014714D01*
X020582Y013786D02*
X020516Y013765D01*
X020455Y013734D01*
X020399Y013693D01*
X020351Y013645D01*
X020310Y013589D01*
X020279Y013528D01*
X020258Y013462D01*
X020247Y013394D01*
X020247Y013388D01*
X020932Y013388D01*
X020932Y013331D01*
X020247Y013331D01*
X020247Y013325D01*
X020258Y013257D01*
X020279Y013192D01*
X020310Y013131D01*
X020351Y013075D01*
X020399Y013026D01*
X020455Y012986D01*
X020516Y012955D01*
X020582Y012933D01*
X020650Y012923D01*
X020933Y012923D01*
X020933Y013331D01*
X020990Y013331D01*
X020990Y013388D01*
X021676Y013388D01*
X021676Y013394D01*
X021665Y013462D01*
X021644Y013528D01*
X021612Y013589D01*
X021572Y013645D01*
X021523Y013693D01*
X021468Y013734D01*
X021406Y013765D01*
X021341Y013786D01*
X021273Y013797D01*
X020990Y013797D01*
X020990Y013389D01*
X020933Y013389D01*
X020933Y013797D01*
X020650Y013797D01*
X020582Y013786D01*
X020520Y013766D02*
X018881Y013766D01*
X018881Y013648D02*
X020354Y013648D01*
X020280Y013529D02*
X018881Y013529D01*
X018881Y013410D02*
X020250Y013410D01*
X020252Y013292D02*
X018881Y013292D01*
X018881Y013173D02*
X020288Y013173D01*
X020371Y013055D02*
X018881Y013055D01*
X018881Y012936D02*
X020573Y012936D01*
X020933Y012936D02*
X020990Y012936D01*
X020990Y012923D02*
X021273Y012923D01*
X021341Y012933D01*
X021406Y012955D01*
X021468Y012986D01*
X021523Y013026D01*
X021572Y013075D01*
X021612Y013131D01*
X021644Y013192D01*
X021665Y013257D01*
X021676Y013325D01*
X021676Y013331D01*
X020990Y013331D01*
X020990Y012923D01*
X020990Y013055D02*
X020933Y013055D01*
X020933Y013173D02*
X020990Y013173D01*
X020990Y013292D02*
X020933Y013292D01*
X020933Y013410D02*
X020990Y013410D01*
X020990Y013529D02*
X020933Y013529D01*
X020933Y013648D02*
X020990Y013648D01*
X020990Y013766D02*
X020933Y013766D01*
X021403Y013766D02*
X032520Y013766D01*
X032516Y013765D02*
X032455Y013734D01*
X032399Y013693D01*
X032351Y013645D01*
X032310Y013589D01*
X032279Y013528D01*
X032258Y013462D01*
X032247Y013394D01*
X032247Y013388D01*
X032932Y013388D01*
X032932Y013331D01*
X032247Y013331D01*
X032247Y013325D01*
X032258Y013257D01*
X032279Y013192D01*
X032310Y013131D01*
X032351Y013075D01*
X032399Y013026D01*
X032455Y012986D01*
X032516Y012955D01*
X032582Y012933D01*
X032650Y012923D01*
X032933Y012923D01*
X032933Y013331D01*
X032990Y013331D01*
X032990Y013388D01*
X033676Y013388D01*
X033676Y013394D01*
X033665Y013462D01*
X033644Y013528D01*
X033612Y013589D01*
X033572Y013645D01*
X033523Y013693D01*
X033468Y013734D01*
X033406Y013765D01*
X033341Y013786D01*
X033273Y013797D01*
X032990Y013797D01*
X032990Y013389D01*
X032933Y013389D01*
X032933Y013797D01*
X032650Y013797D01*
X032582Y013786D01*
X032516Y013765D01*
X032354Y013648D02*
X021569Y013648D01*
X021643Y013529D02*
X032280Y013529D01*
X032250Y013410D02*
X021673Y013410D01*
X021670Y013292D02*
X032252Y013292D01*
X032288Y013173D02*
X021634Y013173D01*
X021552Y013055D02*
X032371Y013055D01*
X032573Y012936D02*
X021350Y012936D01*
X021500Y014003D02*
X032422Y014003D01*
X032309Y014122D02*
X021613Y014122D01*
X021662Y014240D02*
X032260Y014240D01*
X032247Y014359D02*
X021676Y014359D01*
X021663Y014477D02*
X032260Y014477D01*
X032309Y014596D02*
X021614Y014596D01*
X021502Y014714D02*
X032421Y014714D01*
X032527Y014951D02*
X021395Y014951D01*
X021567Y015070D02*
X032356Y015070D01*
X032282Y015189D02*
X021641Y015189D01*
X021676Y015307D02*
X032247Y015307D01*
X032247Y015426D02*
X021676Y015426D01*
X021635Y015544D02*
X032287Y015544D01*
X032369Y015663D02*
X030175Y015663D01*
X030294Y015781D02*
X032559Y015781D01*
X032597Y015923D02*
X032436Y015989D01*
X032313Y016112D01*
X032247Y016273D01*
X032247Y016447D01*
X032313Y016607D01*
X032436Y016730D01*
X030481Y016730D01*
X030481Y016848D02*
X034121Y016848D01*
X034121Y016730D02*
X033487Y016730D01*
X033486Y016730D02*
X033325Y016797D01*
X032597Y016797D01*
X032436Y016730D01*
X032317Y016611D02*
X030481Y016611D01*
X030481Y016493D02*
X032266Y016493D01*
X032247Y016374D02*
X030481Y016374D01*
X030481Y016255D02*
X032254Y016255D01*
X032303Y016137D02*
X030481Y016137D01*
X030481Y016018D02*
X032407Y016018D01*
X032597Y015923D02*
X033325Y015923D01*
X033486Y015989D01*
X033609Y016112D01*
X033676Y016273D01*
X033676Y016447D01*
X033609Y016607D01*
X033486Y016730D01*
X033605Y016611D02*
X034121Y016611D01*
X034121Y016493D02*
X033657Y016493D01*
X033676Y016374D02*
X034121Y016374D01*
X034121Y016255D02*
X033668Y016255D01*
X033619Y016137D02*
X034121Y016137D01*
X034121Y016018D02*
X033515Y016018D01*
X033363Y015781D02*
X034121Y015781D01*
X034121Y015663D02*
X033554Y015663D01*
X033635Y015544D02*
X034121Y015544D01*
X034121Y015426D02*
X033676Y015426D01*
X033676Y015307D02*
X034121Y015307D01*
X034121Y015189D02*
X033641Y015189D01*
X033567Y015070D02*
X034121Y015070D01*
X034121Y015900D02*
X030412Y015900D01*
X030027Y016137D02*
X021619Y016137D01*
X021668Y016255D02*
X030041Y016255D01*
X030041Y016374D02*
X021676Y016374D01*
X021657Y016493D02*
X030041Y016493D01*
X030041Y016611D02*
X021605Y016611D01*
X021647Y017204D02*
X028694Y017204D01*
X028813Y017322D02*
X021676Y017322D01*
X021676Y017441D02*
X028891Y017441D01*
X028891Y017559D02*
X021629Y017559D01*
X021538Y017678D02*
X028891Y017678D01*
X028891Y017797D02*
X027909Y017797D01*
X028028Y017915D02*
X028891Y017915D01*
X028891Y018034D02*
X028131Y018034D01*
X028131Y018152D02*
X028891Y018152D01*
X028891Y018271D02*
X028131Y018271D01*
X028131Y018389D02*
X028891Y018389D01*
X028891Y018508D02*
X028131Y018508D01*
X028131Y018626D02*
X028821Y018626D01*
X028773Y018745D02*
X028131Y018745D01*
X028131Y018863D02*
X028773Y018863D01*
X028816Y018982D02*
X028204Y018982D01*
X028250Y019101D02*
X028929Y019101D01*
X029111Y018810D02*
X029111Y017310D01*
X028711Y016910D01*
X027643Y018152D02*
X021626Y018152D01*
X021675Y018271D02*
X027691Y018271D01*
X027691Y018389D02*
X021676Y018389D01*
X021650Y018508D02*
X027691Y018508D01*
X027691Y018626D02*
X021590Y018626D01*
X024864Y021471D02*
X031471Y021471D01*
X031471Y021590D02*
X024984Y021590D01*
X025040Y021708D02*
X031471Y021708D01*
X031471Y021827D02*
X025065Y021827D01*
X025065Y021946D02*
X031471Y021946D01*
X031471Y022064D02*
X025018Y022064D01*
X024931Y022183D02*
X031471Y022183D01*
X031471Y022301D02*
X024736Y022301D01*
X024740Y022420D02*
X031471Y022420D01*
X031471Y022538D02*
X024933Y022538D01*
X025019Y022657D02*
X031471Y022657D01*
X031471Y022775D02*
X025065Y022775D01*
X025055Y023961D02*
X031471Y023961D01*
X031443Y024672D02*
X031471Y024672D01*
X031471Y025028D02*
X031395Y025028D01*
X031127Y025028D02*
X028745Y025028D01*
X028611Y025360D02*
X031261Y025360D01*
X031015Y025620D02*
X028857Y025620D01*
X028303Y024316D02*
X024645Y024316D01*
X024916Y024198D02*
X028341Y024198D01*
X028435Y024079D02*
X025009Y024079D01*
X028080Y019456D02*
X031471Y019456D01*
X031471Y019338D02*
X028204Y019338D01*
X028250Y019219D02*
X031471Y019219D01*
X031475Y019101D02*
X029294Y019101D01*
X029406Y018982D02*
X031550Y018982D01*
X031688Y018863D02*
X029450Y018863D01*
X029450Y018745D02*
X031826Y018745D01*
X031998Y018626D02*
X029402Y018626D01*
X029331Y018508D02*
X032272Y018508D01*
X032247Y018389D02*
X030460Y018389D01*
X030561Y018271D02*
X032248Y018271D01*
X032297Y018152D02*
X030600Y018152D01*
X030596Y018034D02*
X032392Y018034D01*
X032436Y017730D02*
X032313Y017607D01*
X032247Y017447D01*
X032247Y017273D01*
X032313Y017112D01*
X032436Y016989D01*
X032597Y016923D01*
X033325Y016923D01*
X033486Y016989D01*
X033609Y017112D01*
X033676Y017273D01*
X033676Y017447D01*
X033609Y017607D01*
X033486Y017730D01*
X033325Y017797D01*
X032597Y017797D01*
X032436Y017730D01*
X032384Y017678D02*
X030481Y017678D01*
X030481Y017797D02*
X032596Y017797D01*
X032294Y017559D02*
X030481Y017559D01*
X030481Y017441D02*
X032247Y017441D01*
X032247Y017322D02*
X030481Y017322D01*
X030481Y017204D02*
X032275Y017204D01*
X032340Y017085D02*
X030481Y017085D01*
X030481Y016967D02*
X032491Y016967D01*
X033432Y016967D02*
X034121Y016967D01*
X034121Y017085D02*
X033582Y017085D01*
X033647Y017204D02*
X034121Y017204D01*
X034121Y017322D02*
X033676Y017322D01*
X033676Y017441D02*
X034121Y017441D01*
X034121Y017559D02*
X033629Y017559D01*
X033538Y017678D02*
X034121Y017678D01*
X034121Y017797D02*
X033326Y017797D01*
X033531Y018034D02*
X033948Y018034D01*
X034066Y017915D02*
X030545Y017915D01*
X032933Y013766D02*
X032990Y013766D01*
X032990Y013648D02*
X032933Y013648D01*
X032933Y013529D02*
X032990Y013529D01*
X032990Y013410D02*
X032933Y013410D01*
X032990Y013331D02*
X033676Y013331D01*
X033676Y013325D01*
X033665Y013257D01*
X033644Y013192D01*
X033612Y013131D01*
X033572Y013075D01*
X033523Y013026D01*
X033468Y012986D01*
X033406Y012955D01*
X033341Y012933D01*
X033273Y012923D01*
X032990Y012923D01*
X032990Y013331D01*
X032990Y013292D02*
X032933Y013292D01*
X032933Y013173D02*
X032990Y013173D01*
X032990Y013055D02*
X032933Y013055D01*
X032933Y012936D02*
X032990Y012936D01*
X033350Y012936D02*
X033998Y012936D01*
X033880Y012818D02*
X018881Y012818D01*
X018881Y012699D02*
X022861Y012699D01*
X022743Y012581D02*
X018793Y012581D01*
X018675Y012462D02*
X022624Y012462D01*
X022506Y012344D02*
X019801Y012344D01*
X019914Y012225D02*
X022429Y012225D01*
X022421Y012106D02*
X019963Y012106D01*
X019982Y011988D02*
X022421Y011988D01*
X022421Y011869D02*
X019982Y011869D01*
X019982Y011751D02*
X022421Y011751D01*
X022421Y011632D02*
X019982Y011632D01*
X019982Y011514D02*
X022421Y011514D01*
X022421Y011395D02*
X019982Y011395D01*
X019982Y011277D02*
X022421Y011277D01*
X022370Y011158D02*
X019947Y011158D01*
X019100Y012225D02*
X018914Y012225D01*
X018963Y012106D02*
X019051Y012106D01*
X019032Y011988D02*
X018982Y011988D01*
X018982Y011869D02*
X019032Y011869D01*
X019032Y011751D02*
X018982Y011751D01*
X018982Y011632D02*
X019032Y011632D01*
X019032Y011514D02*
X018982Y011514D01*
X018982Y011395D02*
X019032Y011395D01*
X019032Y011277D02*
X018982Y011277D01*
X018947Y011158D02*
X019067Y011158D01*
X019212Y012344D02*
X018801Y012344D01*
X017941Y013292D02*
X006631Y013292D01*
X006766Y013410D02*
X017941Y013410D01*
X014269Y010921D02*
X013745Y010921D01*
X013882Y011040D02*
X014132Y011040D01*
X014067Y011158D02*
X013947Y011158D01*
X013982Y011277D02*
X014032Y011277D01*
X014032Y011395D02*
X013982Y011395D01*
X013982Y011514D02*
X014032Y011514D01*
X014032Y011632D02*
X013982Y011632D01*
X013982Y011751D02*
X014032Y011751D01*
X014032Y011869D02*
X013982Y011869D01*
X013982Y011988D02*
X014032Y011988D01*
X014051Y012106D02*
X013963Y012106D01*
X013914Y012225D02*
X014100Y012225D01*
X013132Y011040D02*
X012882Y011040D01*
X012745Y010921D02*
X013269Y010921D01*
X009269Y010921D02*
X008745Y010921D01*
X008882Y011040D02*
X009132Y011040D01*
X008269Y010921D02*
X007745Y010921D01*
X007882Y011040D02*
X008132Y011040D01*
X008067Y011158D02*
X007947Y011158D01*
X007982Y011277D02*
X008032Y011277D01*
X008032Y011395D02*
X007982Y011395D01*
X007982Y011514D02*
X008032Y011514D01*
X008032Y011632D02*
X007982Y011632D01*
X007982Y011751D02*
X008032Y011751D01*
X008032Y011869D02*
X007982Y011869D01*
X007982Y011988D02*
X008032Y011988D01*
X008051Y012106D02*
X007963Y012106D01*
X007914Y012225D02*
X008100Y012225D01*
X000833Y022301D02*
X000621Y022301D01*
X000621Y022420D02*
X000821Y022420D01*
X000821Y022538D02*
X000621Y022538D01*
X001177Y022775D02*
X001297Y022775D01*
X001297Y022894D02*
X001177Y022894D01*
X001177Y023012D02*
X001297Y023012D01*
X001032Y024435D02*
X000621Y024435D01*
X000621Y024554D02*
X000751Y024554D01*
X000788Y026687D02*
X000621Y026687D01*
X000621Y026806D02*
X001111Y026806D01*
X001611Y026806D02*
X006877Y026806D01*
X006877Y026924D02*
X006997Y026924D01*
X006997Y027043D02*
X006877Y027043D01*
X006877Y027161D02*
X006997Y027161D01*
X006997Y027399D02*
X006877Y027399D01*
X006877Y027517D02*
X006997Y027517D01*
X006997Y027636D02*
X006877Y027636D01*
X006877Y027754D02*
X000621Y027754D01*
X000621Y027636D02*
X006521Y027636D01*
X006521Y027517D02*
X000621Y027517D01*
X000621Y027399D02*
X006535Y027399D01*
X006521Y027873D02*
X000621Y027873D01*
X000621Y027991D02*
X006521Y027991D01*
X006877Y027991D02*
X006997Y027991D01*
X006997Y027873D02*
X006877Y027873D01*
X006877Y028110D02*
X006997Y028110D01*
X006997Y026687D02*
X006877Y026687D01*
X006877Y026569D02*
X006997Y026569D01*
X006997Y026450D02*
X006877Y026450D01*
X006877Y026332D02*
X006997Y026332D01*
X006997Y026213D02*
X006877Y026213D01*
X006877Y026095D02*
X006997Y026095D01*
X006997Y025976D02*
X006877Y025976D01*
X006877Y025857D02*
X006997Y025857D01*
X007221Y026213D02*
X007361Y026213D01*
X007336Y026332D02*
X007283Y026332D01*
X005633Y028584D02*
X003689Y028584D01*
X003790Y028703D02*
X005532Y028703D01*
X005483Y028821D02*
X003839Y028821D01*
X003841Y028940D02*
X005481Y028940D01*
X005508Y029058D02*
X003814Y029058D01*
X003748Y029177D02*
X005574Y029177D01*
X005734Y029295D02*
X003588Y029295D01*
X003608Y029532D02*
X005715Y029532D01*
X005566Y029651D02*
X003756Y029651D01*
X003818Y029769D02*
X005505Y029769D01*
X005481Y029888D02*
X003841Y029888D01*
X003836Y030006D02*
X005487Y030006D01*
X005536Y030125D02*
X003787Y030125D01*
X003681Y030244D02*
X005641Y030244D01*
X005618Y030599D02*
X003705Y030599D01*
X003796Y030718D02*
X005526Y030718D01*
X005481Y030836D02*
X003841Y030836D01*
X003841Y030955D02*
X005481Y030955D01*
X005514Y031073D02*
X003808Y031073D01*
X003733Y031192D02*
X005589Y031192D01*
X002771Y031310D02*
X002362Y031310D01*
X002401Y031192D02*
X002589Y031192D01*
X002678Y031548D02*
X002401Y031548D01*
X002401Y031666D02*
X002551Y031666D01*
X002656Y032259D02*
X002401Y032259D01*
X002349Y032496D02*
X002803Y032496D01*
X002603Y032614D02*
X002401Y032614D01*
X001622Y032496D02*
X001601Y032496D01*
X001177Y032970D02*
X000821Y032970D01*
X000821Y033089D02*
X000621Y033089D01*
X000621Y033207D02*
X000821Y033207D01*
X000876Y033326D02*
X000621Y033326D01*
X000621Y032733D02*
X000821Y032733D01*
X000821Y032614D02*
X000621Y032614D01*
X000621Y032496D02*
X000874Y032496D01*
X001599Y033326D02*
X001624Y033326D01*
X001297Y034985D02*
X001177Y034985D01*
X001177Y035104D02*
X001297Y035104D01*
X001297Y035222D02*
X001177Y035222D01*
X001177Y035341D02*
X001297Y035341D01*
X001297Y035459D02*
X001177Y035459D01*
X001177Y035578D02*
X001297Y035578D01*
X001297Y035697D02*
X001177Y035697D01*
X001177Y035815D02*
X001297Y035815D01*
X001533Y035459D02*
X001658Y035459D01*
X001639Y035341D02*
X001578Y035341D01*
X001297Y037001D02*
X001177Y037001D01*
X001177Y037119D02*
X001297Y037119D01*
X001297Y037238D02*
X001177Y037238D01*
X001177Y037356D02*
X001297Y037356D01*
X001297Y037475D02*
X001177Y037475D01*
X001177Y037593D02*
X001297Y037593D01*
X001297Y037712D02*
X001177Y037712D01*
X001177Y037830D02*
X001297Y037830D01*
X001177Y037949D02*
X000621Y037949D01*
X000621Y038067D02*
X000821Y038067D01*
X000821Y038186D02*
X000621Y038186D01*
X000621Y038305D02*
X000855Y038305D01*
X000621Y038423D02*
X013263Y038423D01*
X013301Y038542D02*
X000621Y038542D01*
X000621Y038660D02*
X013236Y038660D01*
X013223Y038779D02*
X000621Y038779D01*
X000621Y038897D02*
X013252Y038897D01*
X013327Y039016D02*
X000621Y039016D01*
X000621Y039134D02*
X013247Y039134D01*
X013223Y038305D02*
X006566Y038305D01*
X006739Y038186D02*
X013225Y038186D01*
X013275Y038067D02*
X011865Y038067D01*
X011983Y037949D02*
X013273Y037949D01*
X013224Y037830D02*
X012102Y037830D01*
X012181Y037712D02*
X013223Y037712D01*
X013264Y037593D02*
X012181Y037593D01*
X012181Y037475D02*
X013298Y037475D01*
X013235Y037356D02*
X012181Y037356D01*
X012181Y037238D02*
X013223Y037238D01*
X013253Y037119D02*
X012181Y037119D01*
X012181Y037001D02*
X013342Y037001D01*
X013781Y037001D02*
X013804Y037001D01*
X014798Y037001D02*
X015791Y037001D01*
X015791Y037119D02*
X014861Y037119D01*
X014861Y037238D02*
X015791Y037238D01*
X015791Y037356D02*
X014861Y037356D01*
X014843Y037475D02*
X015791Y037475D01*
X015791Y037593D02*
X014861Y037593D01*
X014861Y037712D02*
X015791Y037712D01*
X015791Y037830D02*
X014861Y037830D01*
X014861Y037949D02*
X015791Y037949D01*
X015791Y038067D02*
X014861Y038067D01*
X014861Y038186D02*
X015826Y038186D01*
X015945Y038305D02*
X014861Y038305D01*
X014861Y038423D02*
X016063Y038423D01*
X016187Y038542D02*
X014839Y038542D01*
X014861Y038660D02*
X016161Y038660D01*
X016161Y038779D02*
X014861Y038779D01*
X014861Y038897D02*
X016161Y038897D01*
X016209Y039016D02*
X014814Y039016D01*
X014861Y039134D02*
X016161Y039134D01*
X016161Y039253D02*
X014861Y039253D01*
X014861Y039371D02*
X016161Y039371D01*
X016195Y039490D02*
X014827Y039490D01*
X014861Y039609D02*
X016161Y039609D01*
X016161Y039727D02*
X014861Y039727D01*
X014861Y039846D02*
X016161Y039846D01*
X016169Y039964D02*
X014853Y039964D01*
X014861Y040083D02*
X016161Y040083D01*
X016161Y040201D02*
X014861Y040201D01*
X014861Y040320D02*
X016161Y040320D01*
X016161Y040438D02*
X014861Y040438D01*
X014844Y040557D02*
X016168Y040557D01*
X016161Y040675D02*
X014861Y040675D01*
X014861Y040765D02*
X014861Y040911D01*
X014850Y040951D01*
X014829Y040988D01*
X014799Y041018D01*
X014763Y041039D01*
X014722Y041050D01*
X014306Y041050D01*
X014306Y040765D01*
X014861Y040765D01*
X014861Y040794D02*
X016161Y040794D01*
X016161Y040912D02*
X014861Y040912D01*
X014777Y041031D02*
X016236Y041031D01*
X016721Y040260D02*
X018361Y040260D01*
X018194Y040557D02*
X017275Y040557D01*
X017281Y040675D02*
X020381Y040675D01*
X020399Y040693D02*
X020351Y040645D01*
X020310Y040589D01*
X020279Y040528D01*
X020258Y040462D01*
X020247Y040394D01*
X020247Y040388D01*
X020932Y040388D01*
X020932Y040331D01*
X020247Y040331D01*
X020247Y040325D01*
X020258Y040257D01*
X020279Y040192D01*
X020310Y040131D01*
X020351Y040075D01*
X020399Y040026D01*
X020455Y039986D01*
X020516Y039955D01*
X020582Y039933D01*
X020650Y039923D01*
X020933Y039923D01*
X020933Y040331D01*
X020990Y040331D01*
X020990Y040388D01*
X021676Y040388D01*
X021676Y040394D01*
X021665Y040462D01*
X021644Y040528D01*
X021612Y040589D01*
X021572Y040645D01*
X021523Y040693D01*
X021468Y040734D01*
X021406Y040765D01*
X021341Y040786D01*
X021273Y040797D01*
X020990Y040797D01*
X020990Y040389D01*
X020933Y040389D01*
X020933Y040797D01*
X020650Y040797D01*
X020582Y040786D01*
X020516Y040765D01*
X020455Y040734D01*
X020399Y040693D01*
X020294Y040557D02*
X018528Y040557D01*
X018654Y040438D02*
X020254Y040438D01*
X020248Y040320D02*
X018700Y040320D01*
X018700Y040201D02*
X020276Y040201D01*
X020345Y040083D02*
X018866Y040083D01*
X019035Y039964D02*
X020498Y039964D01*
X020933Y039964D02*
X020990Y039964D01*
X020990Y039923D02*
X021273Y039923D01*
X021341Y039933D01*
X021406Y039955D01*
X021468Y039986D01*
X021523Y040026D01*
X021572Y040075D01*
X021612Y040131D01*
X021644Y040192D01*
X021665Y040257D01*
X021676Y040325D01*
X021676Y040331D01*
X020990Y040331D01*
X020990Y039923D01*
X020990Y040083D02*
X020933Y040083D01*
X020933Y040201D02*
X020990Y040201D01*
X020990Y040320D02*
X020933Y040320D01*
X020933Y040438D02*
X020990Y040438D01*
X020990Y040557D02*
X020933Y040557D01*
X020933Y040675D02*
X020990Y040675D01*
X020990Y040794D02*
X020933Y040794D01*
X020631Y040794D02*
X017281Y040794D01*
X016721Y039760D02*
X018761Y039760D01*
X018657Y040083D02*
X018654Y040083D01*
X019211Y039310D02*
X016721Y039260D01*
X017234Y039016D02*
X019037Y039016D01*
X020286Y038542D02*
X017255Y038542D01*
X017281Y038660D02*
X020366Y038660D01*
X020247Y038423D02*
X017281Y038423D01*
X017850Y037712D02*
X020418Y037712D01*
X020308Y037593D02*
X017809Y037593D01*
X017218Y037001D02*
X019741Y037001D01*
X020181Y037001D02*
X020425Y037001D01*
X020311Y037119D02*
X020181Y037119D01*
X020144Y037238D02*
X020261Y037238D01*
X020247Y037356D02*
X020026Y037356D01*
X019907Y037475D02*
X020259Y037475D01*
X021389Y037949D02*
X031239Y037949D01*
X031220Y037930D02*
X031220Y037930D01*
X031358Y038067D02*
X021564Y038067D01*
X021640Y038186D02*
X031476Y038186D01*
X031595Y038305D02*
X021676Y038305D01*
X021676Y038423D02*
X031714Y038423D01*
X031832Y038542D02*
X021636Y038542D01*
X021556Y038660D02*
X032366Y038660D01*
X032553Y038779D02*
X021369Y038779D01*
X021513Y039016D02*
X032410Y039016D01*
X032304Y039134D02*
X021618Y039134D01*
X021667Y039253D02*
X032255Y039253D01*
X032247Y039371D02*
X021676Y039371D01*
X021658Y039490D02*
X032265Y039490D01*
X032315Y039609D02*
X021608Y039609D01*
X021489Y039727D02*
X032433Y039727D01*
X032498Y039964D02*
X021425Y039964D01*
X021577Y040083D02*
X032345Y040083D01*
X032276Y040201D02*
X021647Y040201D01*
X021675Y040320D02*
X032248Y040320D01*
X032254Y040438D02*
X021669Y040438D01*
X021629Y040557D02*
X032294Y040557D01*
X032381Y040675D02*
X021541Y040675D01*
X021292Y040794D02*
X032631Y040794D01*
X033541Y040675D02*
X034621Y040675D01*
X034701Y040675D02*
X035201Y040675D01*
X035201Y040794D02*
X035185Y040794D01*
X035201Y040912D02*
X035153Y040912D01*
X035201Y041031D02*
X035083Y041031D01*
X035201Y041150D02*
X034958Y041150D01*
X034701Y041150D02*
X034621Y041150D01*
X034621Y041031D02*
X034701Y041031D01*
X034701Y040912D02*
X034621Y040912D01*
X034621Y040794D02*
X034701Y040794D01*
X035169Y040557D02*
X035225Y040557D01*
X035278Y040438D02*
X035118Y040438D01*
X035021Y040320D02*
X035397Y040320D01*
X034860Y040201D02*
X036359Y040201D01*
X035315Y039253D02*
X034943Y039253D01*
X035203Y039134D02*
X033618Y039134D01*
X033513Y039016D02*
X035171Y039016D01*
X034193Y039964D02*
X033425Y039964D01*
X033577Y040083D02*
X034285Y040083D01*
X034463Y040201D02*
X033647Y040201D01*
X033675Y040320D02*
X034302Y040320D01*
X034205Y040438D02*
X033669Y040438D01*
X033629Y040557D02*
X034154Y040557D01*
X032961Y038360D02*
X031961Y038360D01*
X031311Y037710D01*
X031311Y030860D01*
X033403Y030955D02*
X035171Y030955D01*
X035171Y031073D02*
X033570Y031073D01*
X033642Y031192D02*
X035171Y031192D01*
X035171Y031310D02*
X033676Y031310D01*
X033676Y031429D02*
X035171Y031429D01*
X035171Y031548D02*
X033634Y031548D01*
X033550Y031666D02*
X035171Y031666D01*
X035171Y031785D02*
X033355Y031785D01*
X033619Y028584D02*
X035171Y028584D01*
X035171Y028465D02*
X033668Y028465D01*
X033676Y028347D02*
X035171Y028347D01*
X035171Y028228D02*
X033657Y028228D01*
X033607Y028110D02*
X035171Y028110D01*
X035171Y027991D02*
X033488Y027991D01*
X031632Y025620D02*
X031507Y025620D01*
X032961Y022360D02*
X033211Y022360D01*
X035561Y024710D01*
X035861Y024710D01*
X034121Y013766D02*
X033403Y013766D01*
X033569Y013648D02*
X034121Y013648D01*
X034121Y013529D02*
X033643Y013529D01*
X033673Y013410D02*
X034121Y013410D01*
X034121Y013292D02*
X033670Y013292D01*
X033634Y013173D02*
X034121Y013173D01*
X034117Y013055D02*
X033552Y013055D01*
X019811Y022260D02*
X016721Y022260D01*
X008449Y023368D02*
X008071Y023368D01*
X008101Y023487D02*
X008280Y023487D01*
X002633Y028584D02*
X002401Y028584D01*
X002401Y029177D02*
X002574Y029177D01*
X002734Y029295D02*
X002377Y029295D01*
X002385Y029532D02*
X002715Y029532D01*
X002566Y029651D02*
X002401Y029651D01*
X002401Y030244D02*
X002641Y030244D01*
X002618Y030599D02*
X002401Y030599D01*
X000821Y029769D02*
X000621Y029769D01*
X000621Y029651D02*
X000821Y029651D01*
X006161Y036910D02*
X011311Y036910D01*
X011413Y037119D02*
X011741Y037119D01*
X011741Y037001D02*
X011532Y037001D01*
X011650Y036882D02*
X011741Y036882D01*
X012181Y036882D02*
X015791Y036882D01*
X015791Y036763D02*
X012181Y036763D01*
X012181Y036645D02*
X015791Y036645D01*
X015791Y036526D02*
X012181Y036526D01*
X012181Y036408D02*
X015791Y036408D01*
X015791Y036289D02*
X012181Y036289D01*
X012181Y036171D02*
X015791Y036171D01*
X016771Y034310D02*
X019211Y034310D01*
X019005Y034037D02*
X017300Y034037D01*
X013842Y033563D02*
X011340Y033563D01*
X011331Y033681D02*
X011579Y033681D01*
X011460Y033800D02*
X011331Y033800D01*
X011331Y033918D02*
X011341Y033918D01*
X011331Y034037D02*
X011341Y034037D01*
X011331Y034156D02*
X011341Y034156D01*
X011331Y034274D02*
X011341Y034274D01*
X011331Y034393D02*
X011341Y034393D01*
X011331Y034511D02*
X011341Y034511D01*
X010591Y034037D02*
X010495Y034037D01*
X014296Y040794D02*
X014306Y040794D01*
X014296Y040912D02*
X014306Y040912D01*
X014296Y041031D02*
X014306Y041031D01*
X001643Y037475D02*
X001571Y037475D01*
X001547Y037356D02*
X001654Y037356D01*
X000927Y037356D02*
X000621Y037356D01*
X000621Y037238D02*
X000824Y037238D01*
X000821Y037119D02*
X000621Y037119D01*
X000621Y037001D02*
X000821Y037001D01*
X000920Y037465D02*
X000883Y037486D01*
X000853Y037516D01*
X000832Y037553D01*
X000821Y037593D01*
X000821Y037712D02*
X000621Y037712D01*
X000621Y037830D02*
X000821Y037830D01*
X001177Y038067D02*
X001297Y038067D01*
X001297Y038186D02*
X001177Y038186D01*
X001177Y038305D02*
X001297Y038305D01*
X000838Y039253D02*
X000621Y039253D01*
X000621Y039371D02*
X000633Y039371D01*
X031861Y037949D02*
X032534Y037949D01*
X032358Y038067D02*
X031980Y038067D01*
X033505Y037712D02*
X035171Y037712D01*
X035171Y037593D02*
X033615Y037593D01*
X033664Y037475D02*
X035171Y037475D01*
X035171Y037356D02*
X033676Y037356D01*
X033661Y037238D02*
X035171Y037238D01*
X035171Y037119D02*
X033612Y037119D01*
X033497Y037001D02*
X035171Y037001D01*
D20*
X019611Y021510D03*
X019211Y021860D03*
X018761Y021510D03*
X018361Y021860D03*
X017461Y022760D03*
X019211Y024260D03*
X018761Y024760D03*
X018361Y025260D03*
X017561Y027760D03*
X019211Y029260D03*
X018761Y029760D03*
X018361Y030260D03*
X017811Y032860D03*
X019211Y034310D03*
X018761Y034810D03*
X018361Y035310D03*
X017511Y037760D03*
X019211Y039310D03*
X018761Y039760D03*
X018361Y040260D03*
X013561Y040260D03*
X013561Y039760D03*
X013561Y039260D03*
X013561Y038760D03*
X013561Y038260D03*
X013561Y037760D03*
X013561Y037260D03*
X013511Y035310D03*
X013511Y034810D03*
X008461Y032910D03*
X005411Y027760D03*
X007511Y020610D03*
X013711Y026660D03*
X002611Y040910D03*
X027911Y019160D03*
X029111Y018810D03*
X030261Y018110D03*
D21*
X031711Y019160D02*
X031711Y025360D01*
X032161Y025810D01*
X035461Y025810D01*
X035811Y026160D01*
X035811Y026710D01*
X037661Y026710D01*
X035811Y026710D02*
X035411Y027110D01*
X035411Y039010D01*
X036111Y039710D01*
X037661Y039710D01*
X031711Y019160D02*
X032061Y018860D01*
X035661Y018860D01*
X035661Y016010D01*
X035961Y015710D01*
X037661Y015710D01*
X034361Y017960D02*
X034361Y012960D01*
X033961Y012560D01*
X023061Y012560D01*
X022661Y012160D01*
X022661Y011110D01*
X022361Y010810D01*
X014711Y010810D01*
X014507Y011014D01*
X014507Y011337D01*
X003161Y013660D02*
X001985Y013660D01*
X001985Y014660D02*
X003161Y014660D01*
X003161Y015660D02*
X001985Y015660D01*
X001985Y016660D02*
X003161Y016660D01*
X003161Y017660D02*
X001985Y017660D01*
X001985Y018660D02*
X003161Y018660D01*
X003161Y019660D02*
X001985Y019660D01*
X001985Y020660D02*
X003161Y020660D01*
X003161Y021660D02*
X001985Y021660D01*
X001985Y022660D02*
X003161Y022660D01*
X007685Y023760D02*
X008861Y023760D01*
X008861Y024760D02*
X007685Y024760D01*
X007685Y025760D02*
X008861Y025760D01*
X008861Y026760D02*
X007685Y026760D01*
X007685Y027760D02*
X008861Y027760D01*
X003161Y028910D02*
X001985Y028910D01*
X001985Y029910D02*
X003161Y029910D01*
X003161Y030910D02*
X001985Y030910D01*
X001985Y031910D02*
X003161Y031910D01*
X003161Y032910D02*
X001985Y032910D01*
X001985Y033910D02*
X003161Y033910D01*
X003161Y034910D02*
X001985Y034910D01*
X001985Y035910D02*
X003161Y035910D01*
X003161Y036910D02*
X001985Y036910D01*
X001985Y037910D02*
X003161Y037910D01*
X013561Y037760D02*
X014301Y037760D01*
X014301Y038260D02*
X013561Y038260D01*
X013561Y038760D02*
X014301Y038760D01*
X014301Y039260D02*
X013561Y039260D01*
X013561Y039760D02*
X014301Y039760D01*
X014301Y040260D02*
X013561Y040260D01*
X013561Y037260D02*
X014301Y037260D01*
X014351Y035310D02*
X013511Y035310D01*
X013511Y034810D02*
X014351Y034810D01*
X016721Y037760D02*
X017511Y037760D01*
X032961Y018360D02*
X033961Y018360D01*
X034361Y017960D01*
D22*
X034661Y039710D02*
X037661Y039710D01*
M02*
