G75*
G70*
%OFA0B0*%
%FSLAX24Y24*%
%IPPOS*%
%LPD*%
%AMOC8*
5,1,8,0,0,1.08239X$1,22.5*
%
%ADD10C,0.0000*%
%ADD11C,0.0554*%
%ADD12C,0.0520*%
%ADD13R,0.0472X0.0551*%
%ADD14C,0.0630*%
%ADD15R,0.0512X0.0591*%
%ADD16R,0.2550X0.0600*%
%ADD17C,0.0594*%
%ADD18C,0.0740*%
%ADD19C,0.0120*%
%ADD20C,0.0396*%
%ADD21C,0.0357*%
%ADD22C,0.0160*%
D10*
X000161Y010210D02*
X000161Y041706D01*
X035661Y041710D01*
X035661Y040710D01*
X039161Y040710D01*
X039461Y040410D01*
X039461Y015010D01*
X039161Y014710D01*
X035661Y014710D01*
X035661Y013710D01*
X035661Y014710D02*
X035661Y012560D01*
X039511Y012560D01*
X039511Y010210D01*
X000161Y010210D01*
X000732Y011337D02*
X000734Y011387D01*
X000740Y011436D01*
X000750Y011485D01*
X000763Y011532D01*
X000781Y011579D01*
X000802Y011624D01*
X000826Y011667D01*
X000854Y011708D01*
X000885Y011747D01*
X000919Y011783D01*
X000956Y011817D01*
X000996Y011847D01*
X001037Y011874D01*
X001081Y011898D01*
X001126Y011918D01*
X001173Y011934D01*
X001221Y011947D01*
X001270Y011956D01*
X001320Y011961D01*
X001369Y011962D01*
X001419Y011959D01*
X001468Y011952D01*
X001517Y011941D01*
X001564Y011927D01*
X001610Y011908D01*
X001655Y011886D01*
X001698Y011861D01*
X001738Y011832D01*
X001776Y011800D01*
X001812Y011766D01*
X001845Y011728D01*
X001874Y011688D01*
X001900Y011646D01*
X001923Y011602D01*
X001942Y011556D01*
X001958Y011509D01*
X001970Y011460D01*
X001978Y011411D01*
X001982Y011362D01*
X001982Y011312D01*
X001978Y011263D01*
X001970Y011214D01*
X001958Y011165D01*
X001942Y011118D01*
X001923Y011072D01*
X001900Y011028D01*
X001874Y010986D01*
X001845Y010946D01*
X001812Y010908D01*
X001776Y010874D01*
X001738Y010842D01*
X001698Y010813D01*
X001655Y010788D01*
X001610Y010766D01*
X001564Y010747D01*
X001517Y010733D01*
X001468Y010722D01*
X001419Y010715D01*
X001369Y010712D01*
X001320Y010713D01*
X001270Y010718D01*
X001221Y010727D01*
X001173Y010740D01*
X001126Y010756D01*
X001081Y010776D01*
X001037Y010800D01*
X000996Y010827D01*
X000956Y010857D01*
X000919Y010891D01*
X000885Y010927D01*
X000854Y010966D01*
X000826Y011007D01*
X000802Y011050D01*
X000781Y011095D01*
X000763Y011142D01*
X000750Y011189D01*
X000740Y011238D01*
X000734Y011287D01*
X000732Y011337D01*
X000601Y025610D02*
X000603Y025665D01*
X000609Y025719D01*
X000619Y025773D01*
X000632Y025827D01*
X000650Y025879D01*
X000671Y025929D01*
X000696Y025978D01*
X000724Y026025D01*
X000756Y026070D01*
X000791Y026112D01*
X000828Y026152D01*
X000869Y026189D01*
X000912Y026223D01*
X000957Y026254D01*
X001005Y026281D01*
X001054Y026305D01*
X001105Y026326D01*
X001158Y026342D01*
X001211Y026355D01*
X001265Y026364D01*
X001320Y026369D01*
X001375Y026370D01*
X001430Y026367D01*
X001484Y026360D01*
X001538Y026349D01*
X001591Y026334D01*
X001642Y026316D01*
X001693Y026294D01*
X001741Y026268D01*
X001788Y026239D01*
X001832Y026207D01*
X001874Y026171D01*
X001913Y026133D01*
X001949Y026091D01*
X001982Y026048D01*
X002012Y026002D01*
X002039Y025954D01*
X002062Y025904D01*
X002081Y025853D01*
X002097Y025800D01*
X002109Y025746D01*
X002117Y025692D01*
X002121Y025637D01*
X002121Y025583D01*
X002117Y025528D01*
X002109Y025474D01*
X002097Y025420D01*
X002081Y025367D01*
X002062Y025316D01*
X002039Y025266D01*
X002012Y025218D01*
X001982Y025172D01*
X001949Y025129D01*
X001913Y025087D01*
X001874Y025049D01*
X001832Y025013D01*
X001788Y024981D01*
X001741Y024952D01*
X001693Y024926D01*
X001642Y024904D01*
X001591Y024886D01*
X001538Y024871D01*
X001484Y024860D01*
X001430Y024853D01*
X001375Y024850D01*
X001320Y024851D01*
X001265Y024856D01*
X001211Y024865D01*
X001158Y024878D01*
X001105Y024894D01*
X001054Y024915D01*
X001005Y024939D01*
X000957Y024966D01*
X000912Y024997D01*
X000869Y025031D01*
X000828Y025068D01*
X000791Y025108D01*
X000756Y025150D01*
X000724Y025195D01*
X000696Y025242D01*
X000671Y025291D01*
X000650Y025341D01*
X000632Y025393D01*
X000619Y025447D01*
X000609Y025501D01*
X000603Y025555D01*
X000601Y025610D01*
X000601Y040360D02*
X000603Y040415D01*
X000609Y040469D01*
X000619Y040523D01*
X000632Y040577D01*
X000650Y040629D01*
X000671Y040679D01*
X000696Y040728D01*
X000724Y040775D01*
X000756Y040820D01*
X000791Y040862D01*
X000828Y040902D01*
X000869Y040939D01*
X000912Y040973D01*
X000957Y041004D01*
X001005Y041031D01*
X001054Y041055D01*
X001105Y041076D01*
X001158Y041092D01*
X001211Y041105D01*
X001265Y041114D01*
X001320Y041119D01*
X001375Y041120D01*
X001430Y041117D01*
X001484Y041110D01*
X001538Y041099D01*
X001591Y041084D01*
X001642Y041066D01*
X001693Y041044D01*
X001741Y041018D01*
X001788Y040989D01*
X001832Y040957D01*
X001874Y040921D01*
X001913Y040883D01*
X001949Y040841D01*
X001982Y040798D01*
X002012Y040752D01*
X002039Y040704D01*
X002062Y040654D01*
X002081Y040603D01*
X002097Y040550D01*
X002109Y040496D01*
X002117Y040442D01*
X002121Y040387D01*
X002121Y040333D01*
X002117Y040278D01*
X002109Y040224D01*
X002097Y040170D01*
X002081Y040117D01*
X002062Y040066D01*
X002039Y040016D01*
X002012Y039968D01*
X001982Y039922D01*
X001949Y039879D01*
X001913Y039837D01*
X001874Y039799D01*
X001832Y039763D01*
X001788Y039731D01*
X001741Y039702D01*
X001693Y039676D01*
X001642Y039654D01*
X001591Y039636D01*
X001538Y039621D01*
X001484Y039610D01*
X001430Y039603D01*
X001375Y039600D01*
X001320Y039601D01*
X001265Y039606D01*
X001211Y039615D01*
X001158Y039628D01*
X001105Y039644D01*
X001054Y039665D01*
X001005Y039689D01*
X000957Y039716D01*
X000912Y039747D01*
X000869Y039781D01*
X000828Y039818D01*
X000791Y039858D01*
X000756Y039900D01*
X000724Y039945D01*
X000696Y039992D01*
X000671Y040041D01*
X000650Y040091D01*
X000632Y040143D01*
X000619Y040197D01*
X000609Y040251D01*
X000603Y040305D01*
X000601Y040360D01*
X035661Y040706D02*
X035661Y041710D01*
X037740Y011337D02*
X037742Y011387D01*
X037748Y011436D01*
X037758Y011485D01*
X037771Y011532D01*
X037789Y011579D01*
X037810Y011624D01*
X037834Y011667D01*
X037862Y011708D01*
X037893Y011747D01*
X037927Y011783D01*
X037964Y011817D01*
X038004Y011847D01*
X038045Y011874D01*
X038089Y011898D01*
X038134Y011918D01*
X038181Y011934D01*
X038229Y011947D01*
X038278Y011956D01*
X038328Y011961D01*
X038377Y011962D01*
X038427Y011959D01*
X038476Y011952D01*
X038525Y011941D01*
X038572Y011927D01*
X038618Y011908D01*
X038663Y011886D01*
X038706Y011861D01*
X038746Y011832D01*
X038784Y011800D01*
X038820Y011766D01*
X038853Y011728D01*
X038882Y011688D01*
X038908Y011646D01*
X038931Y011602D01*
X038950Y011556D01*
X038966Y011509D01*
X038978Y011460D01*
X038986Y011411D01*
X038990Y011362D01*
X038990Y011312D01*
X038986Y011263D01*
X038978Y011214D01*
X038966Y011165D01*
X038950Y011118D01*
X038931Y011072D01*
X038908Y011028D01*
X038882Y010986D01*
X038853Y010946D01*
X038820Y010908D01*
X038784Y010874D01*
X038746Y010842D01*
X038706Y010813D01*
X038663Y010788D01*
X038618Y010766D01*
X038572Y010747D01*
X038525Y010733D01*
X038476Y010722D01*
X038427Y010715D01*
X038377Y010712D01*
X038328Y010713D01*
X038278Y010718D01*
X038229Y010727D01*
X038181Y010740D01*
X038134Y010756D01*
X038089Y010776D01*
X038045Y010800D01*
X038004Y010827D01*
X037964Y010857D01*
X037927Y010891D01*
X037893Y010927D01*
X037862Y010966D01*
X037834Y011007D01*
X037810Y011050D01*
X037789Y011095D01*
X037771Y011142D01*
X037758Y011189D01*
X037748Y011238D01*
X037742Y011287D01*
X037740Y011337D01*
D11*
X033238Y013360D02*
X032684Y013360D01*
X032684Y014360D02*
X033238Y014360D01*
X033238Y015360D02*
X032684Y015360D01*
X032684Y016360D02*
X033238Y016360D01*
X033238Y017360D02*
X032684Y017360D01*
X032684Y018360D02*
X033238Y018360D01*
X033238Y019360D02*
X032684Y019360D01*
X032684Y020360D02*
X033238Y020360D01*
X033238Y021360D02*
X032684Y021360D01*
X032684Y022360D02*
X033238Y022360D01*
X033238Y023360D02*
X032684Y023360D01*
X032684Y024360D02*
X033238Y024360D01*
X033238Y025360D02*
X032684Y025360D01*
X032684Y026360D02*
X033238Y026360D01*
X033238Y027360D02*
X032684Y027360D01*
X032684Y028360D02*
X033238Y028360D01*
X033238Y029360D02*
X032684Y029360D01*
X032684Y030360D02*
X033238Y030360D01*
X033238Y031360D02*
X032684Y031360D01*
X032684Y032360D02*
X033238Y032360D01*
X033238Y033360D02*
X032684Y033360D01*
X032684Y034360D02*
X033238Y034360D01*
X033238Y035360D02*
X032684Y035360D01*
X032684Y036360D02*
X033238Y036360D01*
X033238Y037360D02*
X032684Y037360D01*
X032684Y038360D02*
X033238Y038360D01*
X033238Y039360D02*
X032684Y039360D01*
X032684Y040360D02*
X033238Y040360D01*
X021238Y040360D02*
X020684Y040360D01*
X020684Y039360D02*
X021238Y039360D01*
X021238Y038360D02*
X020684Y038360D01*
X020684Y037360D02*
X021238Y037360D01*
X021238Y036360D02*
X020684Y036360D01*
X020684Y035360D02*
X021238Y035360D01*
X021238Y034360D02*
X020684Y034360D01*
X020684Y033360D02*
X021238Y033360D01*
X021238Y032360D02*
X020684Y032360D01*
X020684Y031360D02*
X021238Y031360D01*
X021238Y030360D02*
X020684Y030360D01*
X020684Y029360D02*
X021238Y029360D01*
X021238Y028360D02*
X020684Y028360D01*
X020684Y027360D02*
X021238Y027360D01*
X021238Y026360D02*
X020684Y026360D01*
X020684Y025360D02*
X021238Y025360D01*
X021238Y024360D02*
X020684Y024360D01*
X020684Y023360D02*
X021238Y023360D01*
X021238Y022360D02*
X020684Y022360D01*
X020684Y021360D02*
X021238Y021360D01*
X021238Y020360D02*
X020684Y020360D01*
X020684Y019360D02*
X021238Y019360D01*
X021238Y018360D02*
X020684Y018360D01*
X020684Y017360D02*
X021238Y017360D01*
X021238Y016360D02*
X020684Y016360D01*
X020684Y015360D02*
X021238Y015360D01*
X021238Y014360D02*
X020684Y014360D01*
X020684Y013360D02*
X021238Y013360D01*
X023961Y011637D02*
X023961Y011083D01*
X024961Y011083D02*
X024961Y011637D01*
X025961Y011637D02*
X025961Y011083D01*
X026961Y011083D02*
X026961Y011637D01*
X027961Y011637D02*
X027961Y011083D01*
X028961Y011083D02*
X028961Y011637D01*
D12*
X012121Y021760D02*
X011601Y021760D01*
X011601Y022760D02*
X012121Y022760D01*
X012121Y023760D02*
X011601Y023760D01*
X011601Y024760D02*
X012121Y024760D01*
X012121Y025760D02*
X011601Y025760D01*
X011601Y026760D02*
X012121Y026760D01*
X012121Y027760D02*
X011601Y027760D01*
X011601Y028760D02*
X012121Y028760D01*
X012121Y029760D02*
X011601Y029760D01*
X011601Y030760D02*
X012121Y030760D01*
X009121Y030760D02*
X008601Y030760D01*
X008601Y029760D02*
X009121Y029760D01*
X009121Y028760D02*
X008601Y028760D01*
X008601Y027760D02*
X009121Y027760D01*
X009121Y026760D02*
X008601Y026760D01*
X008601Y025760D02*
X009121Y025760D01*
X009121Y024760D02*
X008601Y024760D01*
X008601Y023760D02*
X009121Y023760D01*
X009121Y022760D02*
X008601Y022760D01*
X008601Y021760D02*
X009121Y021760D01*
X006421Y021660D02*
X005901Y021660D01*
X005901Y022660D02*
X006421Y022660D01*
X006421Y020660D02*
X005901Y020660D01*
X005901Y019660D02*
X006421Y019660D01*
X006421Y018660D02*
X005901Y018660D01*
X005901Y017660D02*
X006421Y017660D01*
X006421Y016660D02*
X005901Y016660D01*
X005901Y015660D02*
X006421Y015660D01*
X006421Y014660D02*
X005901Y014660D01*
X005901Y013660D02*
X006421Y013660D01*
X003421Y013660D02*
X002901Y013660D01*
X002901Y014660D02*
X003421Y014660D01*
X003421Y015660D02*
X002901Y015660D01*
X002901Y016660D02*
X003421Y016660D01*
X003421Y017660D02*
X002901Y017660D01*
X002901Y018660D02*
X003421Y018660D01*
X003421Y019660D02*
X002901Y019660D01*
X002901Y020660D02*
X003421Y020660D01*
X003421Y021660D02*
X002901Y021660D01*
X002901Y022660D02*
X003421Y022660D01*
X003421Y028910D02*
X002901Y028910D01*
X002901Y029910D02*
X003421Y029910D01*
X003421Y030910D02*
X002901Y030910D01*
X002901Y031910D02*
X003421Y031910D01*
X003421Y032910D02*
X002901Y032910D01*
X002901Y033910D02*
X003421Y033910D01*
X003421Y034910D02*
X002901Y034910D01*
X002901Y035910D02*
X003421Y035910D01*
X003421Y036910D02*
X002901Y036910D01*
X002901Y037910D02*
X003421Y037910D01*
X005901Y037910D02*
X006421Y037910D01*
X006421Y036910D02*
X005901Y036910D01*
X005901Y035910D02*
X006421Y035910D01*
X006421Y034910D02*
X005901Y034910D01*
X005901Y033910D02*
X006421Y033910D01*
X006421Y032910D02*
X005901Y032910D01*
X005901Y031910D02*
X006421Y031910D01*
X006421Y030910D02*
X005901Y030910D01*
X005901Y029910D02*
X006421Y029910D01*
X006421Y028910D02*
X005901Y028910D01*
D13*
X011471Y034660D03*
X010652Y035260D03*
X011471Y035960D03*
X010652Y036660D03*
X011471Y037360D03*
X010652Y038010D03*
X011471Y038660D03*
X010652Y039310D03*
X011471Y040010D03*
X012652Y040010D03*
X012652Y038660D03*
X012652Y037360D03*
X012652Y035960D03*
X012652Y034660D03*
X009471Y035260D03*
X009471Y036660D03*
X009471Y038010D03*
X009471Y039310D03*
X009421Y040960D03*
X010602Y040960D03*
D14*
X010507Y011966D02*
X010507Y011337D01*
X011507Y011337D02*
X011507Y011966D01*
X012507Y011966D02*
X012507Y011337D01*
X013507Y011337D02*
X013507Y011966D01*
X014507Y011966D02*
X014507Y011337D01*
X015507Y011337D02*
X015507Y011966D01*
X016507Y011966D02*
X016507Y011337D01*
X017507Y011337D02*
X017507Y011966D01*
X018507Y011966D02*
X018507Y011337D01*
X019507Y011337D02*
X019507Y011966D01*
X009507Y011966D02*
X009507Y011337D01*
X008507Y011337D02*
X008507Y011966D01*
X007507Y011966D02*
X007507Y011337D01*
X006507Y011337D02*
X006507Y011966D01*
X005507Y011966D02*
X005507Y011337D01*
X004507Y011337D02*
X004507Y011966D01*
D15*
X006237Y023760D03*
X006985Y023760D03*
X006985Y024760D03*
X006237Y024760D03*
X006237Y025760D03*
X006985Y025760D03*
X006985Y026760D03*
X006237Y026760D03*
X006237Y027760D03*
X006985Y027760D03*
X007687Y034060D03*
X008435Y034060D03*
X008435Y034910D03*
X007687Y034910D03*
X007687Y035760D03*
X008435Y035760D03*
X008435Y036610D03*
X007687Y036610D03*
X007687Y037460D03*
X008435Y037460D03*
X008435Y038310D03*
X008435Y039160D03*
X007687Y039160D03*
X007687Y038310D03*
X007687Y040010D03*
X008435Y040010D03*
X006135Y040010D03*
X005387Y040010D03*
X004385Y040960D03*
X003637Y040960D03*
D16*
X037661Y039710D03*
X037661Y038710D03*
X037661Y037710D03*
X037661Y036710D03*
X037661Y035710D03*
X037661Y034710D03*
X037661Y033710D03*
X037661Y032710D03*
X037661Y031710D03*
X037661Y030710D03*
X037661Y029710D03*
X037661Y028710D03*
X037661Y027710D03*
X037661Y026710D03*
X037661Y025710D03*
X037661Y024710D03*
X037661Y023710D03*
X037661Y022710D03*
X037661Y021710D03*
X037661Y020710D03*
X037661Y019710D03*
X037661Y018710D03*
X037661Y017710D03*
X037661Y016710D03*
X037661Y015710D03*
D17*
X024608Y019860D02*
X024014Y019860D01*
X024014Y020860D02*
X024608Y020860D01*
X024608Y021860D02*
X024014Y021860D01*
X024014Y022860D02*
X024608Y022860D01*
X024608Y023860D02*
X024014Y023860D01*
D18*
X034661Y039710D03*
X034661Y040710D03*
D19*
X035861Y033810D02*
X027061Y033810D01*
X025811Y031660D02*
X025811Y040610D01*
X025511Y040910D01*
X018611Y040910D01*
X018361Y040660D01*
X018361Y040260D01*
X018361Y035310D01*
X018361Y030260D01*
X018361Y025260D01*
X018361Y021860D01*
X018761Y021510D02*
X018761Y024760D01*
X018761Y029760D01*
X018761Y034810D01*
X018761Y039760D01*
X018961Y039910D01*
X021811Y039910D01*
X022011Y039710D01*
X022011Y029010D01*
X021861Y028860D01*
X020261Y028860D01*
X020161Y028760D01*
X020161Y028060D01*
X020361Y027860D01*
X021561Y027860D01*
X021811Y027610D01*
X021811Y026660D01*
X021511Y026360D01*
X020961Y026360D01*
X020961Y027360D02*
X020061Y027360D01*
X019861Y027560D01*
X019861Y029160D01*
X019761Y029260D01*
X019211Y029260D01*
X019211Y034310D01*
X019211Y039310D01*
X017761Y032910D02*
X017811Y032860D01*
X017761Y032910D02*
X008461Y032910D01*
X013711Y026660D02*
X017361Y026660D01*
X017561Y026860D01*
X017561Y027760D01*
X019211Y029260D02*
X019211Y024260D01*
X019211Y021860D01*
X019611Y021510D02*
X019611Y024660D01*
X019811Y024810D01*
X021911Y024810D01*
X022111Y025010D01*
X022111Y028160D01*
X021861Y028360D01*
X020961Y028360D01*
X023061Y025060D02*
X022661Y024660D01*
X022661Y023610D01*
X021911Y022860D01*
X020311Y022860D01*
X020061Y022610D01*
X020061Y019560D01*
X019811Y019310D01*
X018061Y019310D01*
X017511Y018760D01*
X017511Y015760D01*
X017361Y015610D01*
X017061Y015610D01*
X015361Y013910D01*
X015361Y013510D01*
X015261Y013410D01*
X007161Y013410D01*
X006461Y012710D01*
X005961Y012710D01*
X005507Y012255D01*
X005507Y011337D01*
X007507Y011337D02*
X007511Y011341D01*
X007511Y012160D01*
X007511Y012910D01*
X007761Y013160D01*
X015561Y013160D01*
X015611Y013210D01*
X015611Y013810D01*
X017111Y015310D01*
X017761Y015310D01*
X017861Y015410D01*
X017861Y018560D01*
X018161Y018860D01*
X027111Y018860D01*
X027411Y019160D01*
X027411Y024160D01*
X028611Y025360D01*
X028661Y024360D02*
X027911Y023760D01*
X027911Y019160D01*
X028311Y018060D02*
X028111Y017860D01*
X018311Y017860D01*
X018061Y017610D01*
X018061Y015160D01*
X017961Y015060D01*
X017161Y015060D01*
X015861Y013760D01*
X015861Y013060D01*
X015761Y012960D01*
X009811Y012960D01*
X009511Y012660D01*
X009511Y011341D01*
X009507Y011337D01*
X008507Y011337D02*
X008507Y012205D01*
X010507Y011337D02*
X010511Y011341D01*
X011507Y011337D02*
X011507Y012305D01*
X011511Y012310D01*
X011511Y012610D01*
X011661Y012760D01*
X015961Y012760D01*
X016061Y012860D01*
X016061Y013660D01*
X017261Y014860D01*
X018111Y014860D01*
X018311Y015060D01*
X018311Y016610D01*
X018561Y016860D01*
X029411Y016860D01*
X029761Y017160D01*
X029761Y027410D01*
X031711Y029360D01*
X032961Y029360D01*
X032961Y030360D02*
X031711Y030360D01*
X029111Y027610D01*
X029111Y018810D01*
X028311Y018060D02*
X028311Y023210D01*
X028461Y023360D01*
X028661Y023360D01*
X026911Y025060D02*
X027161Y025310D01*
X027161Y026710D01*
X031311Y030860D01*
X032961Y031360D02*
X026111Y031360D01*
X025811Y031660D01*
X030261Y026910D02*
X030261Y018110D01*
X031561Y018260D02*
X031561Y021160D01*
X032161Y021860D01*
X034161Y021860D01*
X034511Y022210D01*
X034511Y031010D01*
X034161Y031360D01*
X032961Y031360D01*
X034811Y032260D02*
X035311Y032710D01*
X037661Y032710D01*
X037661Y031710D02*
X035561Y031710D01*
X035111Y031310D01*
X035111Y019660D01*
X034811Y019360D01*
X032961Y019360D01*
X032311Y018810D02*
X034911Y018810D01*
X035411Y019310D01*
X035411Y030410D01*
X035711Y030710D01*
X037661Y030710D01*
X035861Y030010D02*
X035861Y026910D01*
X036061Y026710D01*
X037661Y026710D01*
X037661Y024710D02*
X035861Y024710D01*
X034811Y022010D02*
X034811Y032260D01*
X032961Y028360D02*
X031711Y028360D01*
X030261Y026910D01*
X030911Y026360D02*
X031911Y027360D01*
X032961Y027360D01*
X032961Y025360D02*
X031261Y025360D01*
X031261Y024360D02*
X032961Y024360D01*
X032961Y023360D02*
X031261Y023360D01*
X032961Y021360D02*
X034161Y021360D01*
X034811Y022010D01*
X036011Y021560D02*
X036011Y018310D01*
X035561Y017860D01*
X032061Y017860D01*
X031561Y018260D01*
X032311Y018810D02*
X032061Y019060D01*
X032061Y020110D01*
X032311Y020360D01*
X032961Y020360D01*
X032961Y017360D02*
X033761Y017360D01*
X034261Y016860D01*
X034261Y013010D01*
X033911Y012660D01*
X023011Y012660D01*
X022561Y012210D01*
X022561Y011110D01*
X022311Y010860D01*
X015661Y010860D01*
X015507Y011014D01*
X015507Y011337D01*
X016507Y011337D02*
X016511Y011341D01*
X016511Y013360D01*
X017511Y014360D01*
X020961Y014360D01*
X021661Y013860D02*
X021861Y013960D01*
X021861Y015160D01*
X021661Y015360D01*
X020961Y015360D01*
X020011Y015860D02*
X019861Y015710D01*
X019861Y014810D01*
X019711Y014660D01*
X017411Y014660D01*
X016261Y013510D01*
X016261Y012710D01*
X016111Y012560D01*
X013661Y012560D01*
X013511Y012410D01*
X013511Y011341D01*
X013507Y011337D01*
X017507Y011337D02*
X017507Y013355D01*
X017911Y013860D01*
X021661Y013860D01*
X020011Y015860D02*
X030511Y015860D01*
X030911Y016260D01*
X030911Y026360D01*
X026911Y025060D02*
X023061Y025060D01*
X022561Y022860D02*
X024311Y022860D01*
X024311Y021860D02*
X022561Y021860D01*
X022061Y021360D01*
X020961Y021360D01*
X020961Y022360D02*
X022061Y022360D01*
X022561Y022860D01*
X022611Y020860D02*
X022111Y020360D01*
X020961Y020360D01*
X020961Y019360D02*
X022061Y019360D01*
X022561Y019860D01*
X024311Y019860D01*
X024311Y020860D02*
X022611Y020860D01*
X017461Y020910D02*
X017461Y022760D01*
X017461Y020910D02*
X017211Y020610D01*
X007511Y020610D01*
X036011Y021560D02*
X036161Y021710D01*
X037661Y021710D01*
D20*
X035861Y024710D03*
X031261Y024360D03*
X031261Y025360D03*
X031261Y023360D03*
X028661Y023360D03*
X028661Y024360D03*
X028611Y025360D03*
X031311Y030860D03*
X027061Y033810D03*
X035861Y033810D03*
X035861Y030010D03*
D21*
X027911Y019160D03*
X029111Y018810D03*
X030261Y018110D03*
X019611Y021510D03*
X019211Y021860D03*
X018761Y021510D03*
X018361Y021860D03*
X017461Y022760D03*
X019211Y024260D03*
X018761Y024760D03*
X018361Y025260D03*
X017561Y027760D03*
X019211Y029260D03*
X018761Y029760D03*
X018361Y030260D03*
X017811Y032860D03*
X019211Y034310D03*
X018761Y034810D03*
X018361Y035310D03*
X017511Y037760D03*
X019211Y039310D03*
X018761Y039760D03*
X018361Y040260D03*
X013561Y040260D03*
X013561Y039760D03*
X013561Y039260D03*
X013561Y038760D03*
X013561Y038260D03*
X013561Y037760D03*
X013561Y037260D03*
X013511Y035310D03*
X013511Y034810D03*
X008461Y032910D03*
X005411Y027760D03*
X007511Y020610D03*
X013711Y026660D03*
X002611Y040910D03*
D22*
X002661Y040960D01*
X003637Y040960D01*
X003611Y040934D01*
X003611Y040410D01*
X004011Y040010D01*
X005387Y040010D01*
X005361Y039984D01*
X005361Y039610D01*
X005461Y039510D01*
X006711Y039510D01*
X007211Y040010D01*
X007687Y040010D01*
X007687Y039160D01*
X007687Y038310D01*
X007687Y037460D01*
X007687Y036610D01*
X007687Y035760D01*
X007687Y034910D01*
X007687Y034060D01*
X008435Y034060D02*
X010961Y034060D01*
X011471Y034569D01*
X011471Y034660D01*
X010652Y035260D02*
X013461Y035260D01*
X013511Y035310D01*
X013511Y034810D02*
X013361Y034660D01*
X012652Y034660D01*
X012652Y035960D02*
X017211Y035960D01*
X017511Y036260D01*
X017511Y037760D01*
X013561Y037760D02*
X013161Y037760D01*
X012911Y037510D01*
X012802Y037510D01*
X012652Y037360D01*
X012961Y036660D02*
X013561Y037260D01*
X012961Y036660D02*
X010652Y036660D01*
X011471Y037360D02*
X008535Y037360D01*
X008435Y037460D01*
X007711Y037460D02*
X007687Y037460D01*
X008485Y036660D02*
X008435Y036610D01*
X008485Y036660D02*
X009471Y036660D01*
X008635Y035960D02*
X008435Y035760D01*
X008635Y035960D02*
X011471Y035960D01*
X009471Y035260D02*
X009411Y035260D01*
X009061Y034910D01*
X008435Y034910D01*
X009161Y038010D02*
X008861Y038310D01*
X008435Y038310D01*
X009111Y038660D02*
X008711Y039060D01*
X008711Y039110D01*
X008661Y039160D01*
X008435Y039160D01*
X009111Y038660D02*
X011471Y038660D01*
X010652Y039310D02*
X013511Y039310D01*
X013561Y039260D01*
X013561Y039760D02*
X012902Y039760D01*
X012652Y040010D01*
X013561Y040260D02*
X013561Y040760D01*
X013361Y040960D01*
X010602Y040960D01*
X009421Y040960D02*
X004385Y040960D01*
X006135Y040010D02*
X006685Y040560D01*
X008861Y040560D01*
X009411Y040010D01*
X011471Y040010D01*
X012652Y038660D02*
X013161Y038660D01*
X013261Y038760D01*
X013561Y038760D01*
X013561Y038260D02*
X013261Y038260D01*
X013011Y038010D01*
X010652Y038010D01*
X009471Y038010D02*
X009161Y038010D01*
X009411Y039310D02*
X008761Y039960D01*
X008485Y039960D01*
X008435Y040010D01*
X009411Y039310D02*
X009471Y039310D01*
X008861Y030760D02*
X007761Y030760D01*
X007611Y030610D01*
X007611Y027910D01*
X007461Y027760D01*
X006985Y027760D01*
X006237Y027760D02*
X006237Y026760D01*
X006237Y025760D01*
X006237Y024760D01*
X006237Y023760D01*
X006985Y023760D02*
X006985Y022036D01*
X007261Y021760D01*
X008861Y021760D01*
X008861Y022760D02*
X007911Y022760D01*
X007661Y023010D01*
X007661Y024560D01*
X007461Y024760D01*
X006985Y024760D01*
X006985Y025760D02*
X008061Y025760D01*
X008161Y025860D01*
X008161Y028660D01*
X008261Y028760D01*
X008861Y028760D01*
X008861Y029760D02*
X008061Y029760D01*
X007911Y029610D01*
X007911Y026860D01*
X007811Y026760D01*
X006985Y026760D01*
X006237Y027760D02*
X005411Y027760D01*
X032961Y038360D02*
X035161Y038360D01*
X036511Y039710D01*
X037661Y039710D01*
M02*
