%
M48
M72
T01C0.0200
T02C0.0280
T03C0.0350
T04C0.0380
T09C0.1250
T10C0.1520
%
T01
X7511Y20610
X13711Y26660
X17561Y27760
X19211Y29260
X18761Y29760
X18361Y30260
X17811Y32860
X19211Y34310
X18761Y34810
X18361Y35310
X17511Y37760
X19211Y39310
X18761Y39760
X18361Y40260
X13561Y40260
X13561Y39760
X13561Y39260
X13561Y38760
X13561Y38260
X13561Y37760
X13561Y37260
X13511Y35310
X13511Y34810
X8461Y32910
X5411Y27760
X17461Y22760
X18361Y21860
X18761Y21510
X19211Y21860
X19611Y21510
X19211Y24260
X18761Y24760
X18361Y25260
X27911Y19160
X29111Y18810
X30261Y18110
X2611Y40910
T02
X27061Y33810
X31311Y30860
X35861Y30010
X35861Y33810
X31261Y25360
X31261Y24360
X31261Y23360
X28661Y23360
X28661Y24360
X28611Y25360
X35861Y24710
T03
X32961Y24360
X32961Y25360
X32961Y26360
X32961Y27360
X32961Y28360
X32961Y29360
X32961Y30360
X32961Y31360
X32961Y32360
X32961Y33360
X32961Y34360
X32961Y35360
X32961Y36360
X32961Y37360
X32961Y38360
X32961Y39360
X32961Y40360
X20961Y40360
X20961Y39360
X20961Y38360
X20961Y37360
X20961Y36360
X20961Y35360
X20961Y34360
X20961Y33360
X20961Y32360
X20961Y31360
X20961Y30360
X20961Y29360
X20961Y28360
X20961Y27360
X20961Y26360
X20961Y25360
X20961Y24360
X20961Y23360
X20961Y22360
X20961Y21360
X20961Y20360
X20961Y19360
X20961Y18360
X20961Y17360
X20961Y16360
X20961Y15360
X20961Y14360
X20961Y13360
X23961Y11360
X24961Y11360
X25961Y11360
X26961Y11360
X27961Y11360
X28961Y11360
X32961Y13360
X32961Y14360
X32961Y15360
X32961Y16360
X32961Y17360
X32961Y18360
X32961Y19360
X32961Y20360
X32961Y21360
X32961Y22360
X32961Y23360
X11861Y23760
X11861Y22760
X11861Y21760
X8861Y21760
X8861Y22760
X8861Y23760
X8861Y24760
X8861Y25760
X8861Y26760
X8861Y27760
X8861Y28760
X8861Y29760
X8861Y30760
X6161Y30910
X6161Y31910
X6161Y32910
X6161Y33910
X6161Y34910
X6161Y35910
X6161Y36910
X6161Y37910
X3161Y37910
X3161Y36910
X3161Y35910
X3161Y34910
X3161Y33910
X3161Y32910
X3161Y31910
X3161Y30910
X3161Y29910
X3161Y28910
X6161Y28910
X6161Y29910
X11861Y29760
X11861Y30760
X11861Y28760
X11861Y27760
X11861Y26760
X11861Y25760
X11861Y24760
X6161Y22660
X6161Y21660
X6161Y20660
X6161Y19660
X6161Y18660
X6161Y17660
X6161Y16660
X6161Y15660
X6161Y14660
X6161Y13660
X3161Y13660
X3161Y14660
X3161Y15660
X3161Y16660
X3161Y17660
X3161Y18660
X3161Y19660
X3161Y20660
X3161Y21660
X3161Y22660
T04
X4507Y11337
X5507Y11337
X6507Y11337
X7507Y11337
X8507Y11337
X9507Y11337
X10507Y11337
X11507Y11337
X12507Y11337
X13507Y11337
X14507Y11337
X15507Y11337
X16507Y11337
X17507Y11337
X18507Y11337
X19507Y11337
X24311Y19860
X24311Y20860
X24311Y21860
X24311Y22860
X24311Y23860
X34661Y39710
X34661Y40710
T09
X1357Y11337
X38365Y11337
T10
X1361Y25610
X1361Y40360
M30
