G75*
G70*
%OFA0B0*%
%FSLAX24Y24*%
%IPPOS*%
%LPD*%
%AMOC8*
5,1,8,0,0,1.08239X$1,22.5*
%
%ADD10C,0.1600*%
%ADD11C,0.0634*%
%ADD12C,0.0600*%
%ADD13C,0.0710*%
%ADD14C,0.1330*%
%ADD15R,0.0880X0.0340*%
%ADD16R,0.0592X0.0671*%
%ADD17R,0.2630X0.0680*%
%ADD18C,0.0674*%
%ADD19C,0.0820*%
%ADD20C,0.0476*%
%ADD21C,0.0437*%
D10*
X001361Y025610D03*
X001361Y040360D03*
D11*
X020684Y040360D02*
X021238Y040360D01*
X021238Y039360D02*
X020684Y039360D01*
X020684Y038360D02*
X021238Y038360D01*
X021238Y037360D02*
X020684Y037360D01*
X020684Y036360D02*
X021238Y036360D01*
X021238Y035360D02*
X020684Y035360D01*
X020684Y034360D02*
X021238Y034360D01*
X021238Y033360D02*
X020684Y033360D01*
X020684Y032360D02*
X021238Y032360D01*
X021238Y031360D02*
X020684Y031360D01*
X020684Y030360D02*
X021238Y030360D01*
X021238Y029360D02*
X020684Y029360D01*
X020684Y028360D02*
X021238Y028360D01*
X021238Y027360D02*
X020684Y027360D01*
X020684Y026360D02*
X021238Y026360D01*
X021238Y025360D02*
X020684Y025360D01*
X020684Y024360D02*
X021238Y024360D01*
X021238Y023360D02*
X020684Y023360D01*
X020684Y022360D02*
X021238Y022360D01*
X021238Y021360D02*
X020684Y021360D01*
X020684Y020360D02*
X021238Y020360D01*
X021238Y019360D02*
X020684Y019360D01*
X020684Y018360D02*
X021238Y018360D01*
X021238Y017360D02*
X020684Y017360D01*
X020684Y016360D02*
X021238Y016360D01*
X021238Y015360D02*
X020684Y015360D01*
X020684Y014360D02*
X021238Y014360D01*
X021238Y013360D02*
X020684Y013360D01*
X023961Y011637D02*
X023961Y011083D01*
X024961Y011083D02*
X024961Y011637D01*
X025961Y011637D02*
X025961Y011083D01*
X026961Y011083D02*
X026961Y011637D01*
X027961Y011637D02*
X027961Y011083D01*
X028961Y011083D02*
X028961Y011637D01*
X032684Y013360D02*
X033238Y013360D01*
X033238Y014360D02*
X032684Y014360D01*
X032684Y015360D02*
X033238Y015360D01*
X033238Y016360D02*
X032684Y016360D01*
X032684Y017360D02*
X033238Y017360D01*
X033238Y018360D02*
X032684Y018360D01*
X032684Y019360D02*
X033238Y019360D01*
X033238Y020360D02*
X032684Y020360D01*
X032684Y021360D02*
X033238Y021360D01*
X033238Y022360D02*
X032684Y022360D01*
X032684Y023360D02*
X033238Y023360D01*
X033238Y024360D02*
X032684Y024360D01*
X032684Y025360D02*
X033238Y025360D01*
X033238Y026360D02*
X032684Y026360D01*
X032684Y027360D02*
X033238Y027360D01*
X033238Y028360D02*
X032684Y028360D01*
X032684Y029360D02*
X033238Y029360D01*
X033238Y030360D02*
X032684Y030360D01*
X032684Y031360D02*
X033238Y031360D01*
X033238Y032360D02*
X032684Y032360D01*
X032684Y033360D02*
X033238Y033360D01*
X033238Y034360D02*
X032684Y034360D01*
X032684Y035360D02*
X033238Y035360D01*
X033238Y036360D02*
X032684Y036360D01*
X032684Y037360D02*
X033238Y037360D01*
X033238Y038360D02*
X032684Y038360D01*
X032684Y039360D02*
X033238Y039360D01*
X033238Y040360D02*
X032684Y040360D01*
D12*
X012121Y030760D02*
X011601Y030760D01*
X011601Y029760D02*
X012121Y029760D01*
X012121Y028760D02*
X011601Y028760D01*
X011601Y027760D02*
X012121Y027760D01*
X012121Y026760D02*
X011601Y026760D01*
X011601Y025760D02*
X012121Y025760D01*
X012121Y024760D02*
X011601Y024760D01*
X011601Y023760D02*
X012121Y023760D01*
X012121Y022760D02*
X011601Y022760D01*
X011601Y021760D02*
X012121Y021760D01*
X009121Y021760D02*
X008601Y021760D01*
X008601Y022760D02*
X009121Y022760D01*
X009121Y023760D02*
X008601Y023760D01*
X008601Y024760D02*
X009121Y024760D01*
X009121Y025760D02*
X008601Y025760D01*
X008601Y026760D02*
X009121Y026760D01*
X009121Y027760D02*
X008601Y027760D01*
X008601Y028760D02*
X009121Y028760D01*
X009121Y029760D02*
X008601Y029760D01*
X008601Y030760D02*
X009121Y030760D01*
X006421Y030910D02*
X005901Y030910D01*
X005901Y031910D02*
X006421Y031910D01*
X006421Y032910D02*
X005901Y032910D01*
X005901Y033910D02*
X006421Y033910D01*
X006421Y034910D02*
X005901Y034910D01*
X005901Y035910D02*
X006421Y035910D01*
X006421Y036910D02*
X005901Y036910D01*
X005901Y037910D02*
X006421Y037910D01*
X003421Y037910D02*
X002901Y037910D01*
X002901Y036910D02*
X003421Y036910D01*
X003421Y035910D02*
X002901Y035910D01*
X002901Y034910D02*
X003421Y034910D01*
X003421Y033910D02*
X002901Y033910D01*
X002901Y032910D02*
X003421Y032910D01*
X003421Y031910D02*
X002901Y031910D01*
X002901Y030910D02*
X003421Y030910D01*
X003421Y029910D02*
X002901Y029910D01*
X002901Y028910D02*
X003421Y028910D01*
X005901Y028910D02*
X006421Y028910D01*
X006421Y029910D02*
X005901Y029910D01*
X005901Y022660D02*
X006421Y022660D01*
X006421Y021660D02*
X005901Y021660D01*
X005901Y020660D02*
X006421Y020660D01*
X006421Y019660D02*
X005901Y019660D01*
X005901Y018660D02*
X006421Y018660D01*
X006421Y017660D02*
X005901Y017660D01*
X005901Y016660D02*
X006421Y016660D01*
X006421Y015660D02*
X005901Y015660D01*
X005901Y014660D02*
X006421Y014660D01*
X006421Y013660D02*
X005901Y013660D01*
X003421Y013660D02*
X002901Y013660D01*
X002901Y014660D02*
X003421Y014660D01*
X003421Y015660D02*
X002901Y015660D01*
X002901Y016660D02*
X003421Y016660D01*
X003421Y017660D02*
X002901Y017660D01*
X002901Y018660D02*
X003421Y018660D01*
X003421Y019660D02*
X002901Y019660D01*
X002901Y020660D02*
X003421Y020660D01*
X003421Y021660D02*
X002901Y021660D01*
X002901Y022660D02*
X003421Y022660D01*
D13*
X004507Y011966D02*
X004507Y011337D01*
X005507Y011337D02*
X005507Y011966D01*
X006507Y011966D02*
X006507Y011337D01*
X007507Y011337D02*
X007507Y011966D01*
X008507Y011966D02*
X008507Y011337D01*
X009507Y011337D02*
X009507Y011966D01*
X010507Y011966D02*
X010507Y011337D01*
X011507Y011337D02*
X011507Y011966D01*
X012507Y011966D02*
X012507Y011337D01*
X013507Y011337D02*
X013507Y011966D01*
X014507Y011966D02*
X014507Y011337D01*
X015507Y011337D02*
X015507Y011966D01*
X016507Y011966D02*
X016507Y011337D01*
X017507Y011337D02*
X017507Y011966D01*
X018507Y011966D02*
X018507Y011337D01*
X019507Y011337D02*
X019507Y011966D01*
D14*
X001357Y011337D03*
X038365Y011337D03*
D15*
X016721Y017360D03*
X016721Y017860D03*
X016721Y018360D03*
X016721Y018860D03*
X016721Y019360D03*
X016721Y019860D03*
X016721Y020360D03*
X016721Y020860D03*
X016721Y022260D03*
X016721Y022760D03*
X016721Y023260D03*
X016721Y023760D03*
X016721Y024260D03*
X016721Y024760D03*
X016721Y025260D03*
X016721Y025760D03*
X016721Y027260D03*
X016721Y027760D03*
X016721Y028260D03*
X016721Y028760D03*
X016721Y029260D03*
X016721Y029760D03*
X016721Y030260D03*
X016721Y030760D03*
X016771Y032310D03*
X016771Y032810D03*
X016771Y033310D03*
X016771Y033810D03*
X016771Y034310D03*
X016771Y034810D03*
X016771Y035310D03*
X016771Y035810D03*
X016721Y037260D03*
X016721Y037760D03*
X016721Y038260D03*
X016721Y038760D03*
X016721Y039260D03*
X016721Y039760D03*
X016721Y040260D03*
X016721Y040760D03*
X014301Y040760D03*
X014301Y040260D03*
X014301Y039760D03*
X014301Y039260D03*
X014301Y038760D03*
X014301Y038260D03*
X014301Y037760D03*
X014301Y037260D03*
X014351Y035810D03*
X014351Y035310D03*
X014351Y034810D03*
X014351Y034310D03*
X014351Y033810D03*
X014351Y033310D03*
X014351Y032810D03*
X014351Y032310D03*
X014301Y030760D03*
X014301Y030260D03*
X014301Y029760D03*
X014301Y029260D03*
X014301Y028760D03*
X014301Y028260D03*
X014301Y027760D03*
X014301Y027260D03*
X014301Y025760D03*
X014301Y025260D03*
X014301Y024760D03*
X014301Y024260D03*
X014301Y023760D03*
X014301Y023260D03*
X014301Y022760D03*
X014301Y022260D03*
X014301Y020860D03*
X014301Y020360D03*
X014301Y019860D03*
X014301Y019360D03*
X014301Y018860D03*
X014301Y018360D03*
X014301Y017860D03*
X014301Y017360D03*
D16*
X007685Y023760D03*
X006937Y023760D03*
X006937Y024760D03*
X007685Y024760D03*
X007685Y025760D03*
X006937Y025760D03*
X006937Y026760D03*
X007685Y026760D03*
X007685Y027760D03*
X006937Y027760D03*
X001985Y028910D03*
X001237Y028910D03*
X001237Y029910D03*
X001985Y029910D03*
X001985Y030910D03*
X001237Y030910D03*
X001237Y031910D03*
X001985Y031910D03*
X001985Y032910D03*
X001237Y032910D03*
X001237Y033910D03*
X001985Y033910D03*
X001985Y034910D03*
X001237Y034910D03*
X001237Y035910D03*
X001985Y035910D03*
X001985Y036910D03*
X001237Y036910D03*
X001237Y037910D03*
X001985Y037910D03*
X001985Y022660D03*
X001237Y022660D03*
X001237Y021660D03*
X001985Y021660D03*
X001985Y020660D03*
X001237Y020660D03*
X001237Y019660D03*
X001985Y019660D03*
X001985Y018660D03*
X001237Y018660D03*
X001237Y017660D03*
X001985Y017660D03*
X001985Y016660D03*
X001237Y016660D03*
X001237Y015660D03*
X001985Y015660D03*
X001985Y014660D03*
X001237Y014660D03*
X001237Y013660D03*
X001985Y013660D03*
D17*
X037661Y015710D03*
X037661Y016710D03*
X037661Y017710D03*
X037661Y018710D03*
X037661Y019710D03*
X037661Y020710D03*
X037661Y021710D03*
X037661Y022710D03*
X037661Y023710D03*
X037661Y024710D03*
X037661Y025710D03*
X037661Y026710D03*
X037661Y027710D03*
X037661Y028710D03*
X037661Y029710D03*
X037661Y030710D03*
X037661Y031710D03*
X037661Y032710D03*
X037661Y033710D03*
X037661Y034710D03*
X037661Y035710D03*
X037661Y036710D03*
X037661Y037710D03*
X037661Y038710D03*
X037661Y039710D03*
D18*
X024608Y023860D02*
X024014Y023860D01*
X024014Y022860D02*
X024608Y022860D01*
X024608Y021860D02*
X024014Y021860D01*
X024014Y020860D02*
X024608Y020860D01*
X024608Y019860D02*
X024014Y019860D01*
D19*
X034661Y039710D03*
X034661Y040710D03*
D20*
X035861Y033810D03*
X035861Y030010D03*
X031311Y030860D03*
X027061Y033810D03*
X028611Y025360D03*
X028661Y024360D03*
X028661Y023360D03*
X031261Y023360D03*
X031261Y024360D03*
X031261Y025360D03*
X035861Y024710D03*
D21*
X030261Y018110D03*
X029111Y018810D03*
X027911Y019160D03*
X019611Y021510D03*
X019211Y021860D03*
X018761Y021510D03*
X018361Y021860D03*
X017461Y022760D03*
X019211Y024260D03*
X018761Y024760D03*
X018361Y025260D03*
X017561Y027760D03*
X019211Y029260D03*
X018761Y029760D03*
X018361Y030260D03*
X017811Y032860D03*
X019211Y034310D03*
X018761Y034810D03*
X018361Y035310D03*
X017511Y037760D03*
X019211Y039310D03*
X018761Y039760D03*
X018361Y040260D03*
X013561Y040260D03*
X013561Y039760D03*
X013561Y039260D03*
X013561Y038760D03*
X013561Y038260D03*
X013561Y037760D03*
X013561Y037260D03*
X013511Y035310D03*
X013511Y034810D03*
X008461Y032910D03*
X005411Y027760D03*
X007511Y020610D03*
X013711Y026660D03*
X002611Y040910D03*
M02*
